<?xml version="1.0" standalone="no"?>
<!DOCTYPE svg PUBLIC "-//W3C//DTD SVG 1.1//EN" "http://www.w3.org/Graphics/SVG/1.1/DTD/svg11.dtd" >
<svg xmlns="http://www.w3.org/2000/svg" xmlns:xlink="http://www.w3.org/1999/xlink" version="1.1">
<metadata>
Created by FontForge 20170731 at Tue Jul 14 08:15:17 2020
 By Aleksey,,,
Copyright (c) 2020 by Bagas Ardiatma. All rights reserved.
</metadata>
<defs>
<font id="Causten-MediumOblique" horiz-adv-x="576" >
  <font-face 
    font-family="Causten-MediumOblique"
    font-weight="400"
    font-style="oblique"
    font-stretch="normal"
    units-per-em="1000"
    panose-1="0 0 6 0 0 0 0 0 0 0"
    ascent="773"
    descent="-227"
    x-height="460"
    cap-height="650"
    bbox="-246 -200 1345 862"
    underline-thickness="50"
    underline-position="-150"
    unicode-range="U+0020-25CA"
  />
<missing-glyph horiz-adv-x="475" 
d="M88 -200v950h302v-950h-302zM316 -5v107h-157v-107h157zM159 -27v-31h66l-66 -45v-31h157v31h-97l67 45h30v31h-157zM316 159v107h-95v-53h33v22h31v-45h-95v76h-31v-107h157zM159 564v-99h157v32h-62v67h-95zM316 589v31h-62v35h62v31h-156v-31h61v-35h-62v-31h157z
M159 373v-31h95v66h62v31h-157v-31h62v-35h-62zM159 320v-33h157v95h-31v-62h-126zM190 71h95v-45h-95v45zM190 532h31v-35h-31v35z" />
    <glyph glyph-name="f_f" unicode="ff" horiz-adv-x="646" 
d="M621 579q-28 0 -50.5 -16t-26.5 -52l-7 -51h116l-8 -69h-116l-48 -391h-90l48 391h-218l-48 -391h-90l48 391h-63l8 69h63l7 56q8 65 47 99.5t103 34.5h78l-9 -71h-52q-28 0 -50.5 -16t-26.5 -52l-7 -51h218l7 56q8 64 46 99t99 35h89l-9 -71h-58z" />
    <glyph glyph-name="t_t.liga" unicode="tt" horiz-adv-x="623" 
d="M631 391h-107l-32 -260q-7 -59 57 -59h38l-9 -72h-73q-58 0 -85 30.5t-20 87.5l34 273h-213l-32 -260q-7 -59 57 -59h38l-9 -72h-73q-58 0 -85 30.5t-20 87.5l34 273h-63l8 69h63l18 141h90l-18 -141h213l18 141h90l-18 -141h107z" />
    <glyph glyph-name=".notdef" horiz-adv-x="475" 
d="M88 -200v950h302v-950h-302zM316 -5v107h-157v-107h157zM159 -27v-31h66l-66 -45v-31h157v31h-97l67 45h30v31h-157zM316 159v107h-95v-53h33v22h31v-45h-95v76h-31v-107h157zM159 564v-99h157v32h-62v67h-95zM316 589v31h-62v35h62v31h-156v-31h61v-35h-62v-31h157z
M159 373v-31h95v66h62v31h-157v-31h62v-35h-62zM159 320v-33h157v95h-31v-62h-126zM190 71h95v-45h-95v45zM190 532h31v-35h-31v35z" />
    <glyph glyph-name=".null" horiz-adv-x="0" 
 />
    <glyph glyph-name="uni000D" horiz-adv-x="333" 
 />
    <glyph glyph-name="space" unicode=" " horiz-adv-x="200" 
 />
    <glyph glyph-name="exclam" unicode="!" horiz-adv-x="203" 
d="M60 166l54 484h95l-67 -484h-82zM36 48q2 22 19 37q17 14 39 14t33.5 -13.5t11.5 -31.5v-6q-3 -23 -19 -37.5t-38 -14.5q-23 0 -35 13.5t-12 30.5q0 4 1 8z" />
    <glyph glyph-name="quotedbl" unicode="&#x22;" horiz-adv-x="326" 
d="M276 504l6 146h94l-33 -146h-67zM104 504l6 146h94l-33 -146h-67z" />
    <glyph glyph-name="numbersign" unicode="#" horiz-adv-x="713" 
d="M59 234h111l61 179h-112l10 81h130l51 153h87l-51 -153h202l51 153h87l-51 -153h89l-10 -81h-107l-61 -179h108l-10 -81h-126l-53 -156h-87l53 156h-202l-53 -156h-87l53 156h-93zM257 234h202l61 179h-202z" />
    <glyph glyph-name="dollar" unicode="$" horiz-adv-x="622" 
d="M154 203q10 -40 58 -71t111 -31q132 0 142 85q1 5 1 11q0 9 -3 19t-13.5 19.5t-19 16.5t-26.5 13.5t-26.5 9.5t-28.5 8.5t-24 6.5q-84 24 -117 44q-70 43 -70 114q0 9 1 18q9 68 64 110.5t137 51.5l8 64h88l-8 -64q71 -8 121.5 -42t63.5 -79l-81 -46q-10 34 -55 60
t-101 26q-58 0 -92 -21t-38 -54q-1 -5 -1 -10q0 -8 3 -18t12.5 -19.5t18 -16t25 -13t26 -10t28.5 -8.5t25 -7q1 0 23 -7t31 -10.5t31.5 -13t34 -17.5t28.5 -22.5t24.5 -29.5t11.5 -32t4 -31q0 -8 -1 -17q-9 -76 -66.5 -121.5t-150.5 -53.5l-8 -64h-88l8 65q-79 8 -131 44.5
t-65 94.5z" />
    <glyph glyph-name="percent" unicode="%" horiz-adv-x="836" 
d="M486 148q8 67 56 110t113 43q64 0 97 -39t33 -91q0 -11 -1 -23q-8 -66 -55.5 -109.5t-111.5 -43.5q-65 0 -98.5 39.5t-33.5 90.5q0 11 1 23zM112 501q8 68 55.5 110.5t112.5 42.5q64 0 97.5 -38.5t33.5 -91.5q0 -11 -1 -23q-8 -66 -55.5 -109t-111.5 -43q-65 0 -98.5 39
t-33.5 90q0 11 1 23zM196 0l431 650h73l-431 -650h-73zM565 84q21 -26 60 -26q38 0 65 25.5t32 64.5q1 8 1 15q0 30 -19 53t-57 23q-39 0 -66.5 -25.5t-32.5 -65.5q-1 -7 -1 -14q0 -30 18 -50zM190 437q21 -26 60 -26q38 0 65.5 25.5t32.5 64.5q1 8 1 15q0 30 -19 53t-57 23
q-39 0 -66.5 -25.5t-32.5 -65.5q-1 -7 -1 -14q0 -30 17 -50z" />
    <glyph glyph-name="ampersand" unicode="&#x26;" horiz-adv-x="638" 
d="M71 170q7 56 44.5 101t118.5 95q-2 3 -4.5 6.5t-4 6t-2.5 3.5q-52 75 -52 131q0 6 1 12q7 56 55.5 95.5t118.5 39.5q69 0 104 -37.5t35 -81.5q0 -8 -1 -17q-4 -33 -19 -61.5t-40.5 -50.5t-45 -35.5t-47.5 -29.5l123 -184q35 51 44 118l1 13h71l-1 -13q-14 -103 -76 -176
q62 -93 74 -109h-89l-39 56q-79 -62 -172 -62q-103 0 -151 46t-48 109q0 12 2 25zM183 93q31 -31 95 -31q67 0 125 46l-133 202q-64 -42 -86.5 -74t-26.5 -66q-1 -7 -1 -14q0 -38 27 -63zM252 476q8 -21 31 -57l12 -18q108 60 116 118q1 5 1 10q0 27 -20 47t-54 20
q-35 0 -61.5 -22t-30.5 -55q-1 -6 -1 -11q0 -17 7 -32z" />
    <glyph glyph-name="quotesingle" unicode="'" horiz-adv-x="154" 
d="M110 650h94l-37 -146h-67z" />
    <glyph glyph-name="parenleft" unicode="(" horiz-adv-x="263" 
d="M69 321q29 234 134 371h94q-71 -83 -109 -218.5t-38 -263.5q0 -16 3 -96t54 -162h-95q-51 96 -51 243q0 59 8 126z" />
    <glyph glyph-name="parenright" unicode=")" horiz-adv-x="273" 
d="M146 178q36 129 36 258q0 15 -2.5 94t-53.5 162h94q51 -98 51 -245q0 -59 -18.5 -209.5t-123.5 -285.5h-95q71 82 112 226z" />
    <glyph glyph-name="asterisk" unicode="*" horiz-adv-x="387" 
d="M415 556l-114 -66l97 -70l-34 -43l-90 65l-13 -112h-53l14 114l-108 -63l-22 43l115 67l-96 69l33 43l89 -64l14 111h53l-14 -113l108 62z" />
    <glyph glyph-name="plus" unicode="+" horiz-adv-x="510" 
d="M85 283l9 76h157l19 157h76l-19 -157h157l-9 -76h-157l-19 -156h-76l19 156h-157z" />
    <glyph glyph-name="comma" unicode="," horiz-adv-x="187" 
d="M71 67h94l-78 -157h-68z" />
    <glyph glyph-name="hyphen" unicode="-" horiz-adv-x="407" 
d="M91 331h287l-11 -86h-287z" />
    <glyph glyph-name="period" unicode="." horiz-adv-x="162" 
d="M36 47q2 22 18.5 36.5t38.5 14.5t33.5 -13t11.5 -32v-6q-3 -22 -19 -36q-16 -15 -38 -15t-34 13t-12 30q0 4 1 8z" />
    <glyph glyph-name="slash" unicode="/" horiz-adv-x="342" 
d="M24 -47l303 739h90l-303 -739h-90z" />
    <glyph glyph-name="zero" unicode="0" horiz-adv-x="631" 
d="M80 325q18 147 103 240t208 93t178.5 -82.5t55.5 -187.5q0 -30 -11 -120t-96 -183q-86 -93 -209 -93t-178 82.5t-55 187.5q0 30 4 63zM201 149q40 -66 119 -66t135 65.5t70 176.5q3 27 3 52q0 75 -35 131.5t-114 56.5t-135.5 -64.5t-69.5 -175.5q-4 -28 -4 -54
q0 -74 31 -122z" />
    <glyph glyph-name="one" unicode="1" horiz-adv-x="325" 
d="M335 650l-80 -650h-94l69 564h-146l11 86h240z" />
    <glyph glyph-name="two" unicode="2" horiz-adv-x="521" 
d="M44 78l158 126q43 33 61.5 47.5t58 49.5t59.5 57.5t38.5 52.5t21.5 55q1 8 1 15q0 38 -28 63.5t-89 25.5q-51 0 -93 -26t-58 -62l-80 38q24 54 90 96.5t152 42.5q104 0 154.5 -46.5t50.5 -115.5q0 -13 -2 -26q-5 -41 -28.5 -83.5t-60 -80t-66.5 -64t-65 -54.5
q-9 -7 -13 -10l-116 -93h301l-11 -86h-446z" />
    <glyph glyph-name="three" unicode="3" horiz-adv-x="549" 
d="M41 90l69 61q19 -29 59.5 -48.5t90.5 -19.5q65 0 112 35t54 94q1 10 1 19q0 48 -34.5 80t-100.5 32q-58 0 -117 -20l9 70l231 171h-270l11 86h403l-10 -80l-201 -155q81 -10 127.5 -56t46.5 -116q0 -15 -2 -31q-13 -106 -91.5 -163t-179.5 -57q-69 0 -126 27t-82 71z" />
    <glyph glyph-name="four" unicode="4" horiz-adv-x="577" 
d="M46 131l8 62l393 457h93l-55 -449h77l-9 -70h-77l-16 -131h-93l16 131h-337zM392 201l40 327l-283 -327h243z" />
    <glyph glyph-name="five" unicode="5" horiz-adv-x="545" 
d="M112 151q49 -68 137 -68h5q67 0 114.5 34.5t54.5 94.5q1 9 1 17q0 47 -37 79t-104 32q-79 0 -131 -27l-21 67l79 270h333l-11 -86h-259l-43 -152q33 6 64 6q121 0 172 -54.5t51 -125.5q0 -15 -2 -31q-12 -100 -85.5 -157.5t-180.5 -57.5q-70 0 -124.5 26t-83.5 68z" />
    <glyph glyph-name="six" unicode="6" horiz-adv-x="551" 
d="M68 225q9 72 67 146l218 279h102l-152 -194q7 1 22 1q98 0 149.5 -60t51.5 -138q0 -16 -2 -34q-13 -99 -86 -166t-170 -67q-98 0 -150 61t-52 137q0 17 2 35zM184 122q34 -41 95 -41q60 0 104.5 40.5t52.5 103.5q1 11 1 21q0 49 -31.5 86t-91.5 37q-61 0 -105.5 -40.5
t-51.5 -103.5q-1 -12 -1 -23q0 -47 28 -80z" />
    <glyph glyph-name="seven" unicode="7" horiz-adv-x="469" 
d="M61 0l329 564h-296l11 86h404l-8 -65l-342 -585h-98z" />
    <glyph glyph-name="eight" unicode="8" horiz-adv-x="556" 
d="M62 182q6 49 38 90.5t85 64.5q-43 24 -59 58.5t-16 67.5q0 11 1 22q8 70 71 122t170 52q108 0 153.5 -48.5t45.5 -106.5q0 -9 -1 -19q-14 -101 -111 -148q47 -23 66 -60t19 -74q0 -10 -1 -21q-10 -86 -75.5 -139t-177.5 -53q-111 0 -160.5 49t-49.5 117q0 12 2 26z
M180 102q32 -33 99 -33q68 0 108.5 32.5t46.5 85.5q1 8 1 15q0 40 -30 71t-97 31t-108 -33.5t-47 -83.5q-1 -8 -1 -16q0 -41 28 -69zM221 402q30 -31 96 -31q67 0 103 30.5t42 78.5q1 6 1 13q0 36 -27 65.5t-93 29.5q-65 0 -103 -32t-43 -76q-1 -8 -1 -15q0 -38 25 -63z" />
    <glyph glyph-name="nine" unicode="9" horiz-adv-x="551" 
d="M92 426q13 99 86 165.5t171 66.5t149.5 -60.5t51.5 -135.5q0 -18 -2 -36q-9 -74 -58 -137l-223 -289h-102l149 195q-7 -1 -22 -1q-98 0 -150 60.5t-52 137.5q0 17 2 34zM209 322q34 -41 94 -41q61 0 105.5 40.5t51.5 104.5q2 12 2 23q0 48 -31.5 84.5t-92.5 36.5
q-60 0 -104.5 -40.5t-52.5 -103.5q-1 -10 -1 -20q0 -50 29 -84z" />
    <glyph glyph-name="colon" unicode=":" horiz-adv-x="172" 
d="M36 47q2 22 18.5 36.5t38.5 14.5t33.5 -13t11.5 -32v-6q-3 -22 -19 -36q-16 -15 -38 -15t-34 13t-12 30q0 4 1 8zM72 343q3 22 19 36t38 14q23 0 34.5 -12.5t11.5 -29.5q0 -4 -1 -8q-3 -23 -19 -37t-38 -14t-34 13t-12 30q0 4 1 8z" />
    <glyph glyph-name="semicolon" unicode=";" horiz-adv-x="200" 
d="M74 67h94l-81 -157h-68zM96 342q2 21 19 36t38 15t33 -14t12 -32q0 -2 -1 -14t-18 -27t-38 -15t-33 14t-12 32v5z" />
    <glyph glyph-name="less" unicode="&#x3c;" horiz-adv-x="450" 
d="M439 481l-9 -72l-247 -87l226 -88l-9 -71l-315 122l9 74z" />
    <glyph glyph-name="equal" unicode="=" horiz-adv-x="510" 
d="M106 459h390l-8 -71h-390zM82 257h390l-9 -72h-390z" />
    <glyph glyph-name="greater" unicode="&#x3e;" horiz-adv-x="450" 
d="M109 481l315 -122l-9 -74l-345 -122l9 71l248 88l-227 87z" />
    <glyph glyph-name="question" unicode="?" horiz-adv-x="497" 
d="M170 623q62 38 137 38q93 0 142 -42.5t49 -106.5q0 -14 -2 -28q-5 -40 -24.5 -74.5t-35.5 -50t-53 -48.5q-31 -29 -42.5 -40t-27 -36t-18.5 -49l-3 -20h-93l3 20q9 77 88 148q65 56 82 78q22 30 27 65q1 7 1 13q0 35 -25.5 60t-77.5 25q-42 0 -83.5 -25t-57.5 -61l-76 38
q28 57 90 96zM181 43q3 23 20 38q16 14 38 14t33.5 -13.5t11.5 -30.5q0 -4 -1 -8q-2 -22 -18.5 -36.5t-38.5 -14.5t-33.5 13.5t-11.5 31.5v6z" />
    <glyph glyph-name="at" unicode="@" horiz-adv-x="796" 
d="M90 324q18 150 128 249q109 99 254 99t222 -86t77 -199q0 -23 -3 -47q-11 -86 -48.5 -142.5t-106.5 -56.5q-40 0 -67.5 20.5t-34.5 59.5q-44 -62 -119 -62q-59 0 -94 40t-35 95q0 13 5.5 57t55 87.5t107.5 43.5q70 0 100 -53l6 48h61l-26 -207q-1 -9 -1 -17
q0 -27 11.5 -44t37.5 -17q68 0 87 148q3 24 3 45q0 96 -64.5 161t-181.5 65q-115 0 -206.5 -79.5t-106.5 -207.5q-3 -23 -3 -44q0 -97 66 -170t180 -73q75 0 134 29l23 -56q-72 -35 -165 -35q-146 0 -222.5 91t-76.5 207q0 25 3 51zM344 250q23 -30 66 -30t72.5 29.5
t32.5 54.5t3 32q0 32 -20 58.5t-63 26.5t-73.5 -29t-33.5 -53.5t-3 -32.5q0 -32 19 -56z" />
    <glyph glyph-name="A" unicode="A" horiz-adv-x="654" 
d="M20 0l346 650h72l186 -650h-100l-39 143h-290l-75 -143h-100zM460 229l-76 276l-144 -276h220z" />
    <glyph glyph-name="B" unicode="B" horiz-adv-x="604" 
d="M50 0l80 650h301q78 0 121 -43.5t43 -105.5q0 -14 -2 -28q-11 -92 -88 -136q41 -21 59.5 -55.5t18.5 -72.5q0 -13 -2 -26q-9 -81 -71 -132t-140 -51h-320zM155 86h213q48 0 80.5 30t37.5 75q1 8 1 16q0 34 -23.5 61t-70.5 27h-213zM382 373q46 0 77.5 26t37.5 70
q1 7 1 14q0 33 -23 57t-70 24h-192l-23 -191h192z" />
    <glyph glyph-name="C" unicode="C" horiz-adv-x="677" 
d="M80 325q18 145 121 239t247 94q85 0 148.5 -34.5t98.5 -96.5l-83 -55q-25 42 -70.5 67.5t-105.5 25.5q-104 0 -176.5 -67.5t-85.5 -172.5q-2 -19 -2 -38q0 -79 51 -140t155 -61q118 0 198 94l69 -57q-107 -131 -279 -131q-144 0 -216.5 85.5t-72.5 195.5q0 25 3 52z" />
    <glyph glyph-name="D" unicode="D" horiz-adv-x="653" 
d="M130 650h227q144 0 214 -81.5t70 -190.5q0 -26 -10.5 -112t-110 -176t-243.5 -90h-227zM288 91q89 0 165.5 59.5t90.5 174.5q2 20 2 38q0 37 -12 76t-42.5 66t-67.5 40.5t-78 13.5h-133l-58 -468h133z" />
    <glyph glyph-name="E" unicode="E" horiz-adv-x="543" 
d="M547 564h-334l-24 -196h313l-10 -86h-313l-24 -196h334l-11 -86h-428l80 650h428z" />
    <glyph glyph-name="F" unicode="F" horiz-adv-x="542" 
d="M549 562h-336l-25 -205h317l-11 -89h-317l-33 -268h-94l80 650h430z" />
    <glyph glyph-name="G" unicode="G" horiz-adv-x="739" 
d="M80 325q18 145 121 239t247 94q85 0 148.5 -34.5t98.5 -95.5l-84 -55q-53 92 -175 92q-104 0 -176.5 -67.5t-85.5 -172.5q-2 -19 -2 -38q0 -79 51 -140t155 -61q81 0 143.5 48t83.5 130h-211l11 86h317l-5 -40q-23 -141 -117.5 -229.5t-233.5 -88.5q-144 0 -216.5 85.5
t-72.5 195.5q0 25 3 52z" />
    <glyph glyph-name="H" unicode="H" horiz-adv-x="634" 
d="M50 0l80 650h94l-35 -280h327l35 280h93l-80 -650h-93l34 279h-327l-34 -279h-94z" />
    <glyph glyph-name="I" unicode="I" horiz-adv-x="214" 
d="M144 0h-94l80 650h94z" />
    <glyph glyph-name="J" unicode="J" horiz-adv-x="508" 
d="M48 147l96 32q1 -44 25.5 -70t73.5 -26q54 0 87 31t39 82l56 454h93l-57 -466q-11 -88 -73.5 -140t-155.5 -52q-86 0 -133 42.5t-51 112.5z" />
    <glyph glyph-name="K" unicode="K" horiz-adv-x="546" 
d="M130 650h94l-36 -288l286 288h109l-319 -325l252 -325h-111l-225 290l-36 -290h-94z" />
    <glyph glyph-name="L" unicode="L" horiz-adv-x="526" 
d="M155 86h332l-11 -86h-426l80 650h94z" />
    <glyph glyph-name="M" unicode="M" horiz-adv-x="749" 
d="M50 0l80 650h97l165 -433l270 433h97l-80 -650h-93l57 467l-236 -389h-65l-141 388l-57 -466h-94z" />
    <glyph glyph-name="N" unicode="N" horiz-adv-x="630" 
d="M131 650h90l265 -489l60 489h94l-80 -650h-91l-265 491l-60 -491h-93z" />
    <glyph glyph-name="O" unicode="O" horiz-adv-x="746" 
d="M80 325q18 145 121 239t247 94t215 -85t71 -195q0 -26 -10.5 -112.5t-111.5 -179.5q-102 -94 -246 -94t-216.5 85.5t-72.5 195.5q0 25 3 52zM218 154q56 -68 160 -68q103 0 175 67t79.5 129.5t7.5 80.5q0 80 -50.5 141t-153.5 61q-104 0 -176.5 -67.5t-85.5 -172.5
q-2 -19 -2 -37q0 -79 46 -134z" />
    <glyph glyph-name="P" unicode="P" horiz-adv-x="587" 
d="M130 650h297q77 0 122 -51t45 -120q0 -15 -2 -32q-12 -92 -75 -148t-140 -56h-203l-30 -243h-94zM185 334h188q47 0 83 32t42 81q1 9 1 17q0 37 -25 66t-72 29h-189z" />
    <glyph glyph-name="Q" unicode="Q" horiz-adv-x="746" 
d="M80 325q18 145 121.5 239t246.5 94q144 0 215 -85t71 -195q0 -26 -3 -53q-11 -93 -59 -167.5t-122 -117.5l75 -122h-112l-54 86q-42 -12 -93 -12q-144 0 -216.5 85.5t-72.5 195.5q0 25 3 52zM218 154q56 -68 160 -68q10 0 30 2l-63 100h113l44 -71q56 30 92 84.5
t44 123.5q2 20 2 38q0 80 -50.5 141t-153.5 61q-104 0 -176.5 -67.5t-85.5 -172.5q-2 -19 -2 -37q0 -79 46 -134z" />
    <glyph glyph-name="R" unicode="R" horiz-adv-x="607" 
d="M50 0l80 650h304q77 0 122 -51t45 -120q0 -15 -2 -32q-10 -79 -60.5 -133t-116.5 -67l135 -247h-109l-133 243h-141l-30 -243h-94zM185 334h196q47 0 83 32t42 81q1 8 1 16q0 38 -25.5 67t-72.5 29h-196z" />
    <glyph glyph-name="S" unicode="S" horiz-adv-x="604" 
d="M47 141l83 52q12 -43 65 -77t126 -34q140 0 151 101v7q0 14 -6.5 27.5t-18 23.5t-32.5 19.5t-35.5 14t-37.5 11t-30 8.5q-4 1 -25.5 7t-32.5 9.5t-34 12.5t-36 17.5t-30 22.5t-26 29.5t-13 33t-4 32.5q0 9 1 18q11 92 86 139t184 47q89 0 153 -39t76 -94l-82 -47
q-10 34 -57 60t-111 26q-63 0 -100 -22.5t-42 -64.5v-7q0 -13 6.5 -26t16.5 -22t31 -18t33.5 -13t37.5 -10.5t32 -8.5q3 -1 24 -7.5t32.5 -10.5t34 -13.5t36.5 -18.5t31.5 -24t26.5 -30.5t13 -33.5t4 -33q0 -9 -1 -18q-12 -96 -85 -147.5t-192 -51.5q-102 0 -168.5 43.5
t-84.5 109.5z" />
    <glyph glyph-name="T" unicode="T" horiz-adv-x="586" 
d="M110 650h506l-11 -86h-206l-69 -564h-93l69 564h-207z" />
    <glyph glyph-name="U" unicode="U" horiz-adv-x="614" 
d="M78 227l52 423h94l-51 -413q-2 -14 -2 -28q0 -54 33.5 -90t102.5 -36q70 0 117 40t56 114l51 413h93l-52 -423q-12 -102 -86.5 -168.5t-189.5 -66.5q-114 0 -167 61t-53 140q0 17 2 34z" />
    <glyph glyph-name="V" unicode="V" horiz-adv-x="647" 
d="M200 650l138 -498l259 498h100l-341 -650h-75l-181 650h100z" />
    <glyph glyph-name="W" unicode="W" horiz-adv-x="947" 
d="M200 650l99 -479l218 479h69l98 -467l214 467h99l-297 -650h-79l-96 456l-208 -456h-80l-137 650h100z" />
    <glyph glyph-name="X" unicode="X" horiz-adv-x="615" 
d="M20 0l263 325l-183 325h109l139 -246l198 246h109l-263 -325l183 -325h-109l-138 246l-199 -246h-109z" />
    <glyph glyph-name="Y" unicode="Y" horiz-adv-x="600" 
d="M201 650l137 -271l204 271h108l-276 -367l-35 -283h-94l35 281l-187 369h108z" />
    <glyph glyph-name="Z" unicode="Z" horiz-adv-x="540" 
d="M560 570l-396 -483l331 -1l-11 -86h-444l10 80l394 484h-328l11 86h443z" />
    <glyph glyph-name="bracketleft" unicode="[" horiz-adv-x="291" 
d="M298 624h-85l-74 -603h85l-9 -69h-171l91 740h171z" />
    <glyph glyph-name="backslash" unicode="\" horiz-adv-x="332" 
d="M306 -48h-90l-121 739h90z" />
    <glyph glyph-name="bracketright" unicode="]" horiz-adv-x="291" 
d="M127 624l8 68h171l-91 -740h-171l9 69h85l74 603h-85z" />
    <glyph glyph-name="asciicircum" unicode="^" horiz-adv-x="399" 
d="M229 650h79l67 -276h-72l-45 186l-90 -186h-72z" />
    <glyph glyph-name="underscore" unicode="_" horiz-adv-x="462" 
d="M61 86h342l-11 -86h-342z" />
    <glyph glyph-name="grave" unicode="`" horiz-adv-x="169" 
d="M180 650l36 -103h-76l-40 103h80z" />
    <glyph glyph-name="a" unicode="a" 
d="M63 230q13 104 83.5 170.5t168.5 66.5q103 0 149 -78l8 71h90l-56 -460h-90l9 71q-64 -79 -168 -79q-97 0 -146.5 61t-49.5 139q0 18 2 38zM178 120q35 -43 101 -43q65 0 111 43t51 83t5 51q0 51 -31.5 89.5t-97.5 38.5t-112 -42.5t-50.5 -82t-4.5 -51.5q0 -51 28 -86z
" />
    <glyph glyph-name="b" unicode="b" 
d="M130 650h90l-32 -261q65 78 167 78q98 0 147.5 -60t49.5 -138q0 -19 -3 -39q-13 -103 -84 -170.5t-168 -67.5q-103 0 -148 79l-9 -71h-90zM195 120q35 -43 100 -43q66 0 112 43t50.5 82.5t4.5 51.5q0 51 -31.5 89.5t-97.5 38.5t-111.5 -42.5t-50 -82t-4.5 -51.5
q0 -51 28 -86z" />
    <glyph glyph-name="c" unicode="c" horiz-adv-x="501" 
d="M63 230q13 105 86.5 171.5t176.5 66.5q122 0 176 -93l-71 -50q-33 57 -113 57q-66 0 -112.5 -42.5t-51 -82t-4.5 -51.5q0 -51 32 -90t98 -39q80 0 127 56l59 -48q-76 -94 -198 -94q-103 0 -155 61.5t-52 140.5q0 18 2 37z" />
    <glyph glyph-name="d" unicode="d" 
d="M63 230q13 104 83.5 170.5t168.5 66.5q103 0 149 -78l32 261h90l-80 -650h-90l9 71q-64 -79 -168 -79q-97 0 -146.5 61t-49.5 139q0 18 2 38zM178 120q35 -43 101 -43q65 0 111 43t51 83t5 51q0 51 -31.5 89.5t-97.5 38.5t-112 -42.5t-50.5 -82t-4.5 -51.5q0 -51 28 -86z
" />
    <glyph glyph-name="e" unicode="e" horiz-adv-x="539" 
d="M63 230q13 104 84 171t173 67q99 0 147 -60.5t48 -137.5q0 -20 -3 -40l-3 -26h-362v-3q0 -60 35 -96t95 -36q88 0 138 62l58 -45q-79 -95 -205 -95q-104 0 -155.5 61t-51.5 141q0 18 2 37zM154 263h278q-1 60 -32.5 96.5t-87.5 36.5q-58 0 -100 -36t-58 -97z" />
    <glyph glyph-name="f" unicode="f" horiz-adv-x="340" 
d="M76 460h63l7 56q8 65 47 99.5t103 34.5h84l-9 -71h-58q-69 0 -77 -68l-7 -51h116l-8 -69h-116l-48 -391h-90l48 391h-63z" />
    <glyph glyph-name="g" unicode="g" 
d="M63 230q13 103 83.5 170t167.5 67q105 0 150 -79l8 72h90l-52 -426q-12 -101 -85.5 -163.5t-185.5 -62.5q-123 0 -182 82l66 50q44 -55 126 -55q61 0 111.5 37.5t59.5 111.5l5 37q-66 -79 -169 -79q-97 0 -146.5 61t-49.5 139q0 18 3 38zM178 120q35 -43 100 -43
q66 0 112 43t50.5 82.5t4.5 51.5q0 51 -31.5 89.5t-97.5 38.5t-111.5 -42.5t-50 -82t-4.5 -51.5q0 -51 28 -86z" />
    <glyph glyph-name="h" unicode="h" horiz-adv-x="534" 
d="M130 650h90l-30 -246q56 63 149 63q75 0 118.5 -41.5t43.5 -109.5q0 -16 -2 -33l-35 -283h-90l33 270q2 12 2 23q0 42 -28 69.5t-77 27.5q-48 0 -85.5 -30.5t-45.5 -89.5l-33 -270h-90z" />
    <glyph glyph-name="i" unicode="i" horiz-adv-x="225" 
d="M58 0l56 460h90l-56 -460h-90zM124 601q3 23 20.5 37t38.5 14t34 -13t13 -30q0 -4 -2 -17.5t-19 -28.5q-18 -15 -39 -15t-34 13.5t-13 31.5q0 4 1 8z" />
    <glyph glyph-name="j" unicode="j" horiz-adv-x="236" 
d="M-39 -113h23q73 0 80 68l62 505h90l-64 -523q-6 -54 -43.5 -87.5t-103.5 -33.5h-53zM135 601q3 23 20.5 37t38.5 14t34 -13t13 -30q0 -4 -2 -17.5t-19 -28.5q-18 -15 -39 -15t-34 13.5t-13 31.5q0 4 1 8z" />
    <glyph glyph-name="k" unicode="k" horiz-adv-x="482" 
d="M130 650h90l-47 -381l206 191h108l-235 -218l200 -242h-108l-178 215l-26 -215h-90z" />
    <glyph glyph-name="l" unicode="l" horiz-adv-x="211" 
d="M140 0h-90l80 650h91z" />
    <glyph glyph-name="m" unicode="m" horiz-adv-x="817" 
d="M106 460h90l-6 -55q55 62 139 62q107 0 139 -81q58 81 165 81q72 0 112 -39.5t40 -106.5q0 -18 -3 -38l-35 -283h-90l33 271q2 13 2 25q0 41 -25.5 66.5t-68.5 25.5q-44 0 -78.5 -28t-42.5 -89l-33 -271h-90l33 271q2 13 2 25q0 42 -25.5 67t-69.5 25q-43 0 -78 -28.5
t-43 -88.5l-33 -271h-90z" />
    <glyph glyph-name="n" unicode="n" horiz-adv-x="534" 
d="M106 460h90l-6 -56q56 63 149 63q75 0 118.5 -41.5t43.5 -109.5q0 -16 -2 -33l-35 -283h-90l33 270q2 12 2 23q0 42 -28 69.5t-77 27.5q-48 0 -85.5 -30.5t-45.5 -89.5l-33 -270h-90z" />
    <glyph glyph-name="o" unicode="o" horiz-adv-x="560" 
d="M63 230q13 104 87.5 171.5t178.5 67.5q103 0 154.5 -61t51.5 -140q0 -19 -2 -38q-13 -104 -86.5 -171.5t-176.5 -67.5q-104 0 -156.5 62t-52.5 140q0 18 2 37zM180 121q35 -44 100 -44t110.5 43.5t53.5 109.5q2 13 2 24q0 51 -31.5 89.5t-96.5 38.5t-111 -42.5
t-54 -109.5q-1 -12 -1 -24q0 -50 28 -85z" />
    <glyph glyph-name="p" unicode="p" 
d="M106 460h90l-8 -72q64 79 167 79q97 0 146.5 -61t49.5 -139q0 -18 -2 -38q-13 -104 -84 -170.5t-168 -66.5q-102 0 -148 78l-32 -254h-90zM195 120q35 -43 100 -43q66 0 112 42.5t50.5 82t4.5 51.5q0 51 -31.5 90t-97.5 39q-65 0 -111 -43t-50.5 -82.5t-4.5 -51.5
q0 -51 28 -85z" />
    <glyph glyph-name="q" unicode="q" 
d="M63 229q13 103 84 170.5t168 67.5q104 0 149 -79l8 72h90l-79 -644h-90l32 254q-65 -78 -168 -78q-97 0 -146.5 60t-49.5 139q0 18 2 38zM178 120q35 -43 101 -43q65 0 111 42.5t50.5 82t4.5 51.5q0 51 -31.5 90t-96.5 39q-66 0 -112 -43t-50.5 -82.5t-4.5 -51.5
q0 -51 28 -85z" />
    <glyph glyph-name="r" unicode="r" horiz-adv-x="342" 
d="M106 460h90l-10 -85q63 90 173 92l-10 -85q-37 -1 -72 -11.5t-68.5 -45t-39.5 -89.5l-29 -236h-90z" />
    <glyph glyph-name="s" unicode="s" horiz-adv-x="451" 
d="M105 136q7 -29 43 -52t84 -23q94 0 103 66v4q0 10 -4.5 19.5t-11.5 16t-21 13t-23 9t-25.5 7.5t-21.5 6q-1 0 -15 4t-20.5 6.5t-21.5 8t-23 10.5t-20.5 13t-19.5 17t-14 20t-8.5 21.5t-1.5 18.5q0 7 1 15q8 65 62 99.5t132 34.5q68 0 112.5 -26.5t57.5 -67.5l-65 -37
q-9 24 -42 42t-75 18q-87 0 -94 -59v-4q0 -9 4 -18t10.5 -15t20 -12t22 -9t24.5 -7.5t21 -5.5l13 -4q14 -4 19 -5.5t19 -7t21.5 -9.5t20 -11t19.5 -14t15.5 -16.5t12.5 -20t6 -21t2 -18.5q0 -6 -1 -12q-8 -69 -60.5 -106t-139.5 -37q-77 0 -125 30.5t-60 78.5z" />
    <glyph glyph-name="t" unicode="t" horiz-adv-x="325" 
d="M68 391l8 69h63l18 141h90l-18 -141h107l-8 -69h-107l-32 -260q-1 -6 -1 -11q0 -48 58 -48h38l-9 -72h-73q-58 0 -82 28t-24 68q0 10 1 22l34 273h-63z" />
    <glyph glyph-name="u" unicode="u" horiz-adv-x="534" 
d="M72 177l34 283h90l-33 -270q-1 -11 -1 -21q0 -44 28.5 -71.5t76.5 -27.5t85.5 30.5t44.5 89.5l33 270h90l-56 -460h-90l7 55q-57 -63 -150 -63q-75 0 -118 41.5t-43 108.5q0 16 2 35z" />
    <glyph glyph-name="v" unicode="v" horiz-adv-x="487" 
d="M60 460h94l91 -338l174 338h94l-239 -460h-89z" />
    <glyph glyph-name="w" unicode="w" horiz-adv-x="739" 
d="M160 460l67 -333l156 333h66l74 -333l148 333h94l-209 -460h-89l-69 318l-148 -318h-89l-95 460h94z" />
    <glyph glyph-name="x" unicode="x" horiz-adv-x="504" 
d="M20 0l198 230l-142 230h105l98 -159l136 159h105l-197 -230l141 -230h-105l-97 159l-137 -159h-105z" />
    <glyph glyph-name="y" unicode="y" horiz-adv-x="487" 
d="M154 460l91 -335l174 335h94l-335 -644h-89l96 184l-125 460h94z" />
    <glyph glyph-name="z" unicode="z" horiz-adv-x="428" 
d="M434 460l-8 -69l-273 -316h230l-9 -75h-344l8 69l273 316h-230l9 75h344z" />
    <glyph glyph-name="braceleft" unicode="{" horiz-adv-x="342" 
d="M86 292l7 61h15q15 0 27 12.5t15 36.5l24 193q12 97 95 97h88l-8 -68h-49q-33 0 -39 -43l-22 -179q-7 -57 -56 -80q38 -20 38 -64q0 -7 -1 -15l-22 -179q-1 -6 -1 -12q0 -31 29 -31h49l-9 -69h-88q-73 0 -73 75q0 11 2 23l24 193q1 6 1 11q0 16 -8 27t-23 11h-15z" />
    <glyph glyph-name="bar" unicode="|" horiz-adv-x="206" 
d="M130 -48h-86l91 740h86z" />
    <glyph glyph-name="braceright" unicode="}" horiz-adv-x="342" 
d="M53 21h49q32 0 38 43l22 179q7 56 57 79q-39 19 -39 65q0 7 1 15l22 179q1 7 1 12q0 31 -28 31h-49l8 68h88q73 0 73 -74q0 -11 -2 -23l-24 -193q-1 -6 -1 -11q0 -16 8 -27t23 -11h15l-7 -61h-15q-15 0 -27 -12.5t-15 -36.5l-24 -193q-6 -51 -31.5 -74.5t-63.5 -23.5h-88
z" />
    <glyph glyph-name="asciitilde" unicode="~" horiz-adv-x="592" 
d="M132 364q41 43 107 43q53 0 96 -45q1 -2 5 -5l4 -5q15 -16 23.5 -23.5t22 -14t28.5 -6.5q30 0 52.5 20t28.5 63h71q-9 -68 -51.5 -111t-109.5 -43q-26 0 -48.5 10t-32 18t-25.5 25q-32 33 -48 39q-11 4 -23 4q-33 0 -54.5 -23.5t-25.5 -57.5h-71q9 68 51 112z" />
    <glyph glyph-name="exclamdown" unicode="&#xa1;" horiz-adv-x="163" 
d="M24 0l66 481h82l-53 -481h-95zM94 603q2 21 19 36t39 15q21 0 33 -14t12 -32q0 -2 -1 -14t-18 -27t-38 -15q-22 0 -34 14t-12 32v5z" />
    <glyph glyph-name="cent" unicode="&#xa2;" horiz-adv-x="658" 
d="M91 330q13 114 85 197t187 101l9 69h86l-8 -65q131 -9 200 -130l-84 -50q-53 90 -154 90q-91 0 -154.5 -57.5t-75.5 -154.5q-3 -20 -3 -38q0 -71 45 -123t135 -52q103 0 177 87l71 -47q-98 -121 -232 -130l-9 -75h-86l10 79q-110 18 -156 92.5t-46 159.5q0 23 3 47z" />
    <glyph glyph-name="sterling" unicode="&#xa3;" horiz-adv-x="523" 
d="M50 0l9 71q109 0 136 48.5t27 101.5q0 37 -9 81h-119l6 51h99q-16 55 -16 101q0 94 66 153.5t184 59.5q46 0 99 -9l-9 -69q-48 9 -87 9q-84 0 -122 -41.5t-38 -102.5q0 -41 16 -91l2 -10h167l-6 -51h-149q5 -34 5 -63q0 -112 -77 -168h228l-9 -71h-403z" />
    <glyph glyph-name="currency" unicode="&#xa4;" horiz-adv-x="575" 
d="M151 218q-18 32 -18 75q0 15 2 30q7 60 42 106l-63 72l54 47l62 -70q50 33 112 33q59 0 102 -32l77 69l45 -45l-81 -73q19 -36 19 -81q0 -12 -2 -26q-7 -57 -42 -107l63 -72l-55 -47l-61 70q-52 -33 -112 -33q-62 0 -104 34l-78 -69l-45 45zM228 238q29 -33 76 -33
q48 0 84 33t43 85q1 9 1 18q0 40 -25.5 69.5t-73.5 29.5t-84.5 -32.5t-42.5 -84.5q-1 -10 -1 -20q0 -38 23 -65z" />
    <glyph glyph-name="yen" unicode="&#xa5;" horiz-adv-x="600" 
d="M93 650h108l137 -271l204 271h108l-260 -345h140l-6 -51h-154l-10 -84h154l-6 -51h-154l-15 -119h-94l15 119h-154l6 51h154l10 84h-154l6 51h139z" />
    <glyph glyph-name="brokenbar" unicode="&#xa6;" horiz-adv-x="206" 
d="M184 393h-86l37 299h86zM130 -48h-86l37 298h86z" />
    <glyph glyph-name="section" unicode="&#xa7;" horiz-adv-x="478" 
d="M60 84l74 23q6 -34 37 -50.5t73 -16.5q95 0 105 71v7q0 13 -6 24t-23 20.5t-30 15t-37 12.5q-26 9 -35.5 12t-36.5 16.5t-39 25.5t-21 31.5t-9 38.5q0 5 1 11q10 82 89 113q-60 30 -60 89q0 8 1 16q7 59 56.5 95t122.5 36q64 0 100.5 -26t44.5 -68l-68 -28q-10 51 -86 51
q-44 0 -70 -16.5t-29 -43.5v-6q0 -21 20.5 -35.5t64.5 -29.5q4 -1 23.5 -6.5t30 -9.5t29.5 -12t29.5 -17.5t21.5 -22.5t14 -27t3 -26q0 -9 -1 -18q-11 -84 -95 -113q67 -32 67 -94q0 -7 -5 -47.5t-57 -75t-126 -34.5q-75 0 -118 31.5t-55 83.5zM206 282q24 -17 69 -17
q47 0 73 18.5t28.5 37t2.5 22.5q0 26 -21.5 42.5t-72.5 16.5q-44 0 -70 -18.5t-28.5 -37.5t-2.5 -23q0 -26 22 -41z" />
    <glyph glyph-name="dieresis" unicode="&#xa8;" horiz-adv-x="313" 
d="M98 632q2 19 17 31.5t33 12.5t29 -11.5t11 -27.5v-5q-3 -20 -18 -32q-15 -13 -33 -13t-29 11.5t-11 25.5q0 4 1 8zM281 632q2 19 17 31.5t33 12.5q17 0 28.5 -11.5t11.5 -27.5v-5q-3 -20 -18 -32q-15 -13 -33 -13t-29 11.5t-11 25.5q0 4 1 8z" />
    <glyph glyph-name="copyright" unicode="&#xa9;" horiz-adv-x="772" 
d="M90 325q18 145 121 239t247 94t215.5 -85t71.5 -196q0 -25 -10.5 -111.5t-112.5 -180t-246 -93.5q-146 0 -217.5 85t-71.5 196q0 25 3 52zM191 126q63 -83 191 -83q129 0 212 83t97 199q3 22 3 42q0 90 -56.5 165t-185.5 75t-212.5 -82.5t-97.5 -199.5q-3 -21 -3 -41
q0 -90 52 -158zM254 326q10 78 64 127.5t130 49.5q92 0 131 -69l-48 -31q-25 49 -90 49q-47 0 -87.5 -32.5t-48.5 -93.5q-2 -12 -2 -22q0 -44 30.5 -74t77.5 -30q63 0 101 48l41 -30q-57 -70 -149 -70q-76 0 -114 46t-38 105q0 13 2 27z" />
    <glyph glyph-name="guillemotleft" unicode="&#xab;" horiz-adv-x="616" 
d="M69 321l195 186h110l-194 -186l149 -186h-110zM519 507h109l-194 -186l149 -186h-109l-150 186z" />
    <glyph glyph-name="logicalnot" unicode="&#xac;" horiz-adv-x="530" 
d="M98 395h410l-25 -211h-86l15 125h-324z" />
    <glyph glyph-name="registered" unicode="&#xae;" horiz-adv-x="771" 
d="M90 325q17 144 120.5 238.5t247.5 94.5q143 0 214.5 -85.5t71.5 -197.5q0 -24 -3 -50q-17 -144 -119.5 -238.5t-245.5 -94.5q-144 0 -216.5 86t-72.5 198q0 24 3 49zM191 127q63 -84 191 -84t210.5 83.5t97.5 198.5q3 21 3 41q0 89 -56.5 165t-184.5 76t-212 -83.5
t-92.5 -151.5t-8.5 -88q0 -89 52 -157zM310 498h167q42 0 66 -27.5t24 -65.5q0 -8 -1 -17q-5 -42 -32 -71t-63 -37l72 -133h-61l-70 131h-76l-16 -131h-53zM449 330q23 0 41.5 16t22.5 42q0 4 1 8q-1 21 -14.5 36t-36.5 15h-106l-14 -117h106z" />
    <glyph glyph-name="macron" unicode="&#xaf;" horiz-adv-x="221" 
d="M100 650h181l-8 -60h-181z" />
    <glyph glyph-name="degree" unicode="&#xb0;" horiz-adv-x="328" 
d="M111 536q7 53 44.5 86t89.5 33q51 0 78 -30t27 -70q0 -9 -1 -19q-7 -52 -44.5 -85t-88.5 -33q-52 0 -79 30t-27 69q0 9 1 19zM176 487q17 -19 46 -19q28 0 50 19t24.5 37t2.5 23q0 23 -16 40.5t-44 17.5q-29 0 -51 -19.5t-24.5 -37t-2.5 -23.5q0 -22 15 -38z" />
    <glyph glyph-name="plusminus" unicode="&#xb1;" horiz-adv-x="479" 
d="M93 348l7 61h145l11 89h71l-11 -89h143l-7 -61h-143l-11 -90h-71l11 90h-145zM75 201h359l-8 -61h-359z" />
    <glyph glyph-name="twosuperior" unicode="&#xb2;" horiz-adv-x="342" 
d="M71 309l95 76q44 35 64.5 51.5t48.5 49.5t31 57q1 5 1 10q0 22 -17 37.5t-54 15.5q-31 0 -56.5 -15.5t-34.5 -37.5l-48 23q14 32 54 58t92 26q62 0 92.5 -28.5t30.5 -68.5q0 -8 -1 -17q-1 -11 -5 -22.5t-8.5 -21t-13 -21t-14 -19.5t-16.5 -19l-17 -17q-6 -6 -19 -17
t-16.5 -14t-16.5 -14t-14 -11l-70 -56h181l-6 -52h-269z" />
    <glyph glyph-name="threesuperior" unicode="&#xb3;" horiz-adv-x="365" 
d="M110 349q28 -41 91 -41q39 0 67.5 21.5t32.5 56.5q1 5 1 11q0 29 -21.5 48.5t-60.5 19.5q-34 0 -70 -12l5 42l139 103h-163l7 52h243l-6 -48l-121 -94q49 -6 77 -33.5t28 -70.5q0 -9 -1 -18q-8 -64 -55 -98.5t-109 -34.5q-41 0 -75.5 16.5t-49.5 42.5z" />
    <glyph glyph-name="acute" unicode="&#xb4;" horiz-adv-x="169" 
d="M149 650h80l-66 -103h-76z" />
    <glyph glyph-name="paragraph" unicode="&#xb6;" horiz-adv-x="537" 
d="M103 497q8 68 52.5 110.5t111.5 42.5h89l-80 -650h-86l43 351q-70 0 -101 35t-31 86q0 12 2 25zM381 0l80 650h86l-80 -650h-86z" />
    <glyph glyph-name="periodcentered" unicode="&#xb7;" horiz-adv-x="167" 
d="M70 326q3 23 20.5 38t40.5 15t35 -13.5t12 -31.5q0 -4 -2 -17.5t-19 -28.5q-17 -16 -40 -16t-35.5 14t-12.5 32q0 4 1 8z" />
    <glyph glyph-name="cedilla" unicode="&#xb8;" horiz-adv-x="184" 
d="M9 -110q16 -13 54 -13q36 0 39 22v2q0 18 -39 18q-23 0 -36 -5l5 40l34 46h54l-28 -40q31 -4 45 -19t14 -34v-8q-4 -33 -29 -50.5t-65 -17.5q-36 0 -54 9z" />
    <glyph glyph-name="onesuperior" unicode="&#xb9;" horiz-adv-x="230" 
d="M240 650l-48 -392h-57l42 340h-88l6 52h145z" />
    <glyph glyph-name="guillemotright" unicode="&#xbb;" horiz-adv-x="611" 
d="M492 321l-148 186h107l149 -186l-194 -186h-107zM47 135l193 186l-148 186h107l149 -186l-194 -186h-107z" />
    <glyph glyph-name="onequarter" unicode="&#xbc;" horiz-adv-x="500" 
d="M242 65l4 31l194 226h47l-28 -222h38l-4 -35h-38l-8 -65h-46l8 65h-167zM506 650h47l-481 -650h-47zM93 650h121l-40 -328h-48l35 285h-74zM413 100l20 162l-140 -162h120z" />
    <glyph glyph-name="onehalf" unicode="&#xbd;" horiz-adv-x="556" 
d="M318 0l4 38l77 61q112 85 117 128q0 4 1 8q-1 18 -14.5 30.5t-43.5 12.5q-24 0 -44.5 -13t-28.5 -30l-39 18q11 26 43.5 47t74.5 21q50 0 75 -23t25 -58q0 -5 -1 -11q-4 -27 -28 -59t-39.5 -45.5t-46.5 -37.5l-56 -45h146l-5 -42h-217zM24 0l481 650h47l-481 -650h-47z
M93 650h121l-40 -328h-48l35 285h-74z" />
    <glyph glyph-name="threequarters" unicode="&#xbe;" horiz-adv-x="553" 
d="M295 65l4 31l194 226h47l-28 -222h38l-4 -35h-38l-8 -65h-46l8 65h-167zM60 371l35 30q23 -34 75 -34q32 0 55 18t27 47q1 5 1 10q0 23 -17.5 39t-49.5 16q-29 0 -59 -10l5 35l115 85h-135l6 43h201l-5 -40l-101 -77q41 -5 64 -27.5t23 -56.5q0 -8 -1 -17
q-6 -53 -45.5 -81.5t-89.5 -28.5q-34 0 -62.5 13.5t-41.5 35.5zM564 650h47l-481 -650h-47zM466 100l20 162l-140 -162h120z" />
    <glyph glyph-name="questiondown" unicode="&#xbf;" horiz-adv-x="452" 
d="M36 173q5 40 25 74.5t36 50.5t53 49q56 52 71 77q14 23 17 48l2 20h93l-2 -20q-9 -77 -88 -148q-65 -57 -83 -81q-22 -31 -26 -65q-1 -7 -1 -13q0 -35 25.5 -59t77.5 -24q42 0 83 25.5t58 60.5l76 -37q-28 -57 -90 -96t-137 -39q-93 0 -142.5 43t-49.5 108q0 13 2 26z
M249 610q2 22 18.5 36.5t38.5 14.5t33.5 -13.5t11.5 -31.5v-6q-3 -22 -19 -36q-16 -15 -38 -15t-34 13t-12 30q0 4 1 8z" />
    <glyph glyph-name="Agrave" unicode="&#xc0;" horiz-adv-x="654" 
d="M20 0l346 650h72l186 -650h-100l-39 143h-290l-75 -143h-100zM460 229l-76 276l-144 -276h220zM334 813h80l36 -103h-76z" />
    <glyph glyph-name="Aacute" unicode="&#xc1;" horiz-adv-x="654" 
d="M366 650h72l186 -650h-100l-39 143h-290l-75 -143h-100zM460 229l-76 276l-144 -276h220zM433 813h80l-66 -103h-76z" />
    <glyph glyph-name="Acircumflex" unicode="&#xc2;" horiz-adv-x="654" 
d="M366 650h72l186 -650h-100l-39 143h-290l-75 -143h-100zM460 229l-76 276l-144 -276h220zM292 710l79 103h104l53 -103h-78l-31 69l-49 -69h-78z" />
    <glyph glyph-name="Atilde" unicode="&#xc3;" horiz-adv-x="654" 
d="M366 650h72l186 -650h-100l-39 143h-290l-75 -143h-100zM240 229h220l-76 276zM295 780q27 29 68 29t67 -34q21 -25 42 -25q35 0 43 47h55q-6 -45 -33.5 -73.5t-71.5 -28.5q-41 0 -67 35q-21 24 -40 24q-34 0 -41 -47h-55q6 44 33 73z" />
    <glyph glyph-name="Adieresis" unicode="&#xc4;" horiz-adv-x="654" 
d="M20 0l346 650h72l186 -650h-100l-39 143h-290l-75 -143h-100zM240 229h220l-76 276zM462 746q2 19 17 31.5t33 12.5t29 -11.5t11 -27.5v-5q-3 -20 -18 -32q-15 -13 -33 -13t-29 11.5t-11 25.5q0 4 1 8zM279 746q2 19 17 31.5t33 12.5q17 0 28.5 -11.5t11.5 -27.5v-5
q-3 -20 -18 -32q-15 -13 -33 -13t-29 11.5t-11 25.5q0 4 1 8z" />
    <glyph glyph-name="Aring" unicode="&#xc5;" horiz-adv-x="654" 
d="M366 650h72l186 -650h-100l-39 143h-290l-75 -143h-100zM460 229l-76 276l-144 -276h220zM334 779q4 37 31 60t64 23q38 0 57 -21t19 -50q0 -6 -1 -12q-5 -35 -31 -58q-27 -24 -64 -24t-56.5 21.5t-19.5 47.5q0 6 1 13zM387 753q8 -12 27 -12t30 12t13 26v6q0 11 -7 22
t-26 11t-30 -12t-13 -27v-6q0 -10 6 -20z" />
    <glyph glyph-name="AE" unicode="&#xc6;" horiz-adv-x="963" 
d="M371 650h607l-11 -86h-318l-24 -196h297l-10 -86h-297l-24 -196h318l-11 -86h-411l35 282h-250l-152 -282h-100zM318 368h214l24 196h-133z" />
    <glyph glyph-name="Ccedilla" unicode="&#xc7;" horiz-adv-x="677" 
d="M80 325q18 145 121 239t247 94q85 0 148.5 -34.5t98.5 -96.5l-83 -55q-25 42 -70.5 67.5t-105.5 25.5q-104 0 -176.5 -67.5t-85.5 -172.5q-2 -19 -2 -38q0 -79 51 -140t155 -61q118 0 198 94l69 -57q-100 -123 -257 -130l-21 -30q31 -4 44.5 -19t14.5 -34q-1 -4 -1 -8
q-9 -68 -94 -68q-36 0 -54 9l6 50q17 -13 54 -13t40 22v2q0 18 -40 18q-22 0 -35 -5l4 40q1 0 1 1l27 35q-130 11 -193.5 94t-63.5 186q0 25 3 52z" />
    <glyph glyph-name="Egrave" unicode="&#xc8;" horiz-adv-x="543" 
d="M361 813l36 -103h-76l-40 103h80zM547 564h-334l-24 -196h313l-10 -86h-313l-24 -196h334l-11 -86h-428l80 650h428z" />
    <glyph glyph-name="Eacute" unicode="&#xc9;" horiz-adv-x="543" 
d="M380 813h80l-66 -103h-76zM547 564h-334l-24 -196h313l-10 -86h-313l-24 -196h334l-11 -86h-428l80 650h428z" />
    <glyph glyph-name="Ecircumflex" unicode="&#xca;" horiz-adv-x="543" 
d="M50 0l80 650h428l-11 -86h-334l-24 -196h313l-10 -86h-313l-24 -196h334l-11 -86h-428zM239 710l79 103h104l53 -103h-78l-31 69l-49 -69h-78z" />
    <glyph glyph-name="Edieresis" unicode="&#xcb;" horiz-adv-x="543" 
d="M50 0l80 650h428l-11 -86h-334l-24 -196h313l-10 -86h-313l-24 -196h334l-11 -86h-428zM226 746q2 19 17 31.5t33 12.5t29 -11.5t11 -27.5v-5q-3 -20 -18 -32q-15 -13 -33 -13t-29 11.5t-11 25.5q0 4 1 8zM409 746q2 19 17 31.5t33 12.5q17 0 28.5 -11.5t11.5 -27.5v-5
q-3 -20 -18 -32q-15 -13 -33 -13t-29 11.5t-11 25.5q0 4 1 8z" />
    <glyph glyph-name="Igrave" unicode="&#xcc;" horiz-adv-x="214" 
d="M187 813l36 -103h-76l-40 103h80zM144 0h-94l80 650h94z" />
    <glyph glyph-name="Iacute" unicode="&#xcd;" horiz-adv-x="214" 
d="M206 813h80l-66 -103h-76zM144 0h-94l80 650h94z" />
    <glyph glyph-name="Icircumflex" unicode="&#xce;" horiz-adv-x="214" 
d="M130 650h94l-80 -650h-94zM144 813h104l53 -103h-78l-31 69l-49 -69h-78z" />
    <glyph glyph-name="Idieresis" unicode="&#xcf;" horiz-adv-x="214" 
d="M130 650h94l-80 -650h-94zM52 746q2 19 17 31.5t33 12.5t29 -11.5t11 -27.5v-5q-3 -20 -18 -32q-15 -13 -33 -13t-29 11.5t-11 25.5q0 4 1 8zM235 746q2 19 17 31.5t33 12.5q17 0 28.5 -11.5t11.5 -27.5v-5q-3 -20 -18 -32q-15 -13 -33 -13t-29 11.5t-11 25.5q0 4 1 8z
" />
    <glyph glyph-name="Ntilde" unicode="&#xd1;" horiz-adv-x="630" 
d="M131 650h90l265 -489l60 489h94l-80 -650h-91l-265 491l-60 -491h-93zM250 707q6 44 33 73t68 29t67 -34q21 -25 42 -25q35 0 43 47h55q-6 -45 -33.5 -73.5t-71.5 -28.5q-41 0 -67 35q-21 24 -40 24q-34 0 -41 -47h-55z" />
    <glyph glyph-name="Ograve" unicode="&#xd2;" horiz-adv-x="746" 
d="M80 325q18 145 121 239t247 94t215 -85t71 -195q0 -26 -10.5 -112.5t-111.5 -179.5q-102 -94 -246 -94t-216.5 85.5t-72.5 195.5q0 25 3 52zM218 154q56 -68 160 -68q103 0 175 67t79.5 129.5t7.5 80.5q0 80 -50.5 141t-153.5 61q-104 0 -176.5 -67.5t-85.5 -172.5
q-2 -19 -2 -37q0 -79 46 -134zM378 813h80l36 -103h-76z" />
    <glyph glyph-name="Oacute" unicode="&#xd3;" horiz-adv-x="746" 
d="M80 325q18 145 121 239t247 94t215 -85t71 -195q0 -26 -10.5 -112.5t-111.5 -179.5q-102 -94 -246 -94t-216.5 85.5t-72.5 195.5q0 25 3 52zM218 154q56 -68 160 -68q103 0 175 67t79.5 129.5t7.5 80.5q0 80 -50.5 141t-153.5 61q-104 0 -176.5 -67.5t-85.5 -172.5
q-2 -19 -2 -37q0 -79 46 -134zM415 710l62 103h80l-66 -103h-76z" />
    <glyph glyph-name="Ocircumflex" unicode="&#xd4;" horiz-adv-x="746" 
d="M80 325q18 145 121 239t247 94t215 -85t71 -195q0 -26 -10.5 -112.5t-111.5 -179.5q-102 -94 -246 -94t-216.5 85.5t-72.5 195.5q0 25 3 52zM218 154q56 -68 160 -68q103 0 175 67t79.5 129.5t7.5 80.5q0 80 -50.5 141t-153.5 61q-104 0 -176.5 -67.5t-85.5 -172.5
q-2 -19 -2 -37q0 -79 46 -134zM336 710l79 103h104l53 -103h-78l-31 69l-49 -69h-78z" />
    <glyph glyph-name="Otilde" unicode="&#xd5;" horiz-adv-x="746" 
d="M80 325q18 145 121 239t247 94t215 -85t71 -195q0 -26 -10.5 -112.5t-111.5 -179.5q-102 -94 -246 -94t-216.5 85.5t-72.5 195.5q0 25 3 52zM218 154q56 -68 160 -68q103 0 175 67t79.5 129.5t7.5 80.5q0 80 -50.5 141t-153.5 61q-104 0 -176.5 -67.5t-85.5 -172.5
q-2 -19 -2 -37q0 -79 46 -134zM306 707q6 44 33 73t68 29t67 -34q21 -25 42 -25q35 0 43 47h55q-6 -45 -33.5 -73.5t-71.5 -28.5q-41 0 -67 35q-21 24 -40 24q-34 0 -41 -47h-55z" />
    <glyph glyph-name="Odieresis" unicode="&#xd6;" horiz-adv-x="746" 
d="M80 325q18 145 121 239t247 94t215 -85t71 -195q0 -26 -10.5 -112.5t-111.5 -179.5q-102 -94 -246 -94t-216.5 85.5t-72.5 195.5q0 25 3 52zM218 154q56 -68 160 -68q103 0 175 67t79.5 129.5t7.5 80.5q0 80 -50.5 141t-153.5 61q-104 0 -176.5 -67.5t-85.5 -172.5
q-2 -19 -2 -37q0 -79 46 -134zM506 746q2 19 17 31.5t33 12.5t29 -11.5t11 -27.5v-5q-3 -20 -18 -32q-15 -13 -33 -13t-29 11.5t-11 25.5q0 4 1 8zM323 746q2 19 17 31.5t33 12.5q17 0 28.5 -11.5t11.5 -27.5v-5q-3 -20 -18 -32q-15 -13 -33 -13t-29 11.5t-11 25.5q0 4 1 8z
" />
    <glyph glyph-name="multiply" unicode="&#xd7;" horiz-adv-x="473" 
d="M458 446l-138 -124l107 -122l-60 -53l-108 122l-136 -122l-48 51l138 123l-108 123l60 53l109 -123l137 122z" />
    <glyph glyph-name="Oslash" unicode="&#xd8;" horiz-adv-x="746" 
d="M665 571q84 -94 66 -246q-18 -146 -119.5 -239.5t-245.5 -93.5q-104 0 -178 52l-39 -44h-79l75 83q-83 93 -65 242q18 145 121 239t247 94q100 0 173 -49l44 49h79zM174 325q-12 -105 38 -167l342 377q-51 30 -118 30q-105 0 -177 -66.5t-85 -173.5zM378 86q105 0 176 66
t84 173q12 107 -40 171l-343 -378q50 -32 123 -32z" />
    <glyph glyph-name="Ugrave" unicode="&#xd9;" horiz-adv-x="614" 
d="M78 227l52 423h94l-51 -413q-2 -14 -2 -28q0 -54 33.5 -90t102.5 -36q70 0 117 40t56 114l51 413h93l-52 -423q-12 -102 -86.5 -168.5t-189.5 -66.5q-114 0 -167 61t-53 140q0 17 2 34zM313 813h80l36 -103h-76z" />
    <glyph glyph-name="Uacute" unicode="&#xda;" horiz-adv-x="614" 
d="M78 227l52 423h94l-51 -413q-2 -14 -2 -28q0 -54 33.5 -90t102.5 -36q70 0 117 40t56 114l51 413h93l-52 -423q-12 -102 -86.5 -168.5t-189.5 -66.5q-114 0 -167 61t-53 140q0 17 2 34zM412 813h80l-66 -103h-76z" />
    <glyph glyph-name="Ucircumflex" unicode="&#xdb;" horiz-adv-x="614" 
d="M78 227l52 423h94l-51 -413q-2 -14 -2 -28q0 -54 33.5 -90t102.5 -36q70 0 117 40t56 114l51 413h93l-52 -423q-12 -102 -86.5 -168.5t-189.5 -66.5q-114 0 -167 61t-53 140q0 17 2 34zM271 710l79 103h104l53 -103h-78l-31 69l-49 -69h-78z" />
    <glyph glyph-name="Udieresis" unicode="&#xdc;" horiz-adv-x="614" 
d="M78 227l52 423h94l-51 -413q-2 -14 -2 -28q0 -54 33.5 -90t102.5 -36q70 0 117 40t56 114l51 413h93l-52 -423q-12 -102 -86.5 -168.5t-189.5 -66.5q-114 0 -167 61t-53 140q0 17 2 34zM258 746q2 19 17 31.5t33 12.5t29 -11.5t11 -27.5v-5q-3 -20 -18 -32
q-15 -13 -33 -13t-29 11.5t-11 25.5q0 4 1 8zM441 746q2 19 17 31.5t33 12.5q17 0 28.5 -11.5t11.5 -27.5v-5q-3 -20 -18 -32q-15 -13 -33 -13t-29 11.5t-11 25.5q0 4 1 8z" />
    <glyph glyph-name="Yacute" unicode="&#xdd;" horiz-adv-x="600" 
d="M201 650l137 -271l204 271h108l-276 -367l-35 -283h-94l35 281l-187 369h108zM402 813h80l-66 -103h-76z" />
    <glyph glyph-name="germandbls" unicode="&#xdf;" horiz-adv-x="529" 
d="M435 352q45 -23 64.5 -67t12.5 -98q-10 -81 -71 -134t-156 -53h-102l10 81h82q56 0 98 26.5t48 79.5t-29 80.5t-91 27.5h-82l10 77h70q56 0 94.5 28.5t44.5 76.5t-23 77t-78 29q-56 0 -94.5 -32.5t-45.5 -92.5l-56 -458h-91l57 462q12 96 78 147.5t161 51.5
q87 0 137.5 -47t40.5 -128q-12 -91 -89 -134z" />
    <glyph glyph-name="agrave" unicode="&#xe0;" 
d="M63 230q13 104 83.5 170.5t168.5 66.5q103 0 149 -78l8 71h90l-56 -460h-90l9 71q-64 -79 -168 -79q-97 0 -146.5 61t-49.5 139q0 18 2 38zM178 120q35 -43 101 -43q65 0 111 43t51 83t5 51q0 51 -31.5 89.5t-97.5 38.5t-112 -42.5t-50.5 -82t-4.5 -51.5q0 -51 28 -86z
M282 630h80l36 -103h-76z" />
    <glyph glyph-name="aacute" unicode="&#xe1;" 
d="M63 230q13 104 83.5 170.5t168.5 66.5q103 0 149 -78l8 71h90l-56 -460h-90l9 71q-64 -79 -168 -79q-97 0 -146.5 61t-49.5 139q0 18 2 38zM178 120q35 -43 101 -43q65 0 111 43t51 83t5 51q0 51 -31.5 89.5t-97.5 38.5t-112 -42.5t-50.5 -82t-4.5 -51.5q0 -51 28 -86z
M381 630h80l-66 -103h-76z" />
    <glyph glyph-name="acircumflex" unicode="&#xe2;" 
d="M63 230q13 104 83.5 170.5t168.5 66.5q103 0 149 -78l8 71h90l-56 -460h-90l9 71q-64 -79 -168 -79q-97 0 -146.5 61t-49.5 139q0 18 2 38zM178 120q35 -43 101 -43q65 0 111 43t51 83t5 51q0 51 -31.5 89.5t-97.5 38.5t-112 -42.5t-50.5 -82t-4.5 -51.5q0 -51 28 -86z
M319 630h104l53 -103h-78l-31 69l-49 -69h-78z" />
    <glyph glyph-name="atilde" unicode="&#xe3;" 
d="M63 230q13 104 83.5 170.5t168.5 66.5q103 0 149 -78l8 71h90l-56 -460h-90l9 71q-64 -79 -168 -79q-97 0 -146.5 61t-49.5 139q0 18 2 38zM178 120q35 -43 101 -43q65 0 111 43t51 83t5 51q0 51 -31.5 89.5t-97.5 38.5t-112 -42.5t-50.5 -82t-4.5 -51.5q0 -51 28 -86z
M242 596q27 29 68 29t67 -34q21 -25 42 -25q35 0 43 47h55q-6 -45 -33.5 -73.5t-71.5 -28.5q-41 0 -67 35q-21 24 -40 24q-34 0 -41 -47h-55q6 44 33 73z" />
    <glyph glyph-name="adieresis" unicode="&#xe4;" 
d="M63 230q13 104 83.5 170.5t168.5 66.5q103 0 149 -78l8 71h90l-56 -460h-90l9 71q-64 -79 -168 -79q-97 0 -146.5 61t-49.5 139q0 18 2 38zM178 120q35 -43 101 -43q65 0 111 43t51 83t5 51q0 51 -31.5 89.5t-97.5 38.5t-112 -42.5t-50.5 -82t-4.5 -51.5q0 -51 28 -86z
M410 562q2 19 17 31.5t33 12.5t29 -11.5t11 -27.5v-5q-3 -20 -18 -32q-15 -13 -33 -13t-29 11.5t-11 25.5q0 4 1 8zM227 562q2 19 17 31.5t33 12.5q17 0 28.5 -11.5t11.5 -27.5v-5q-3 -20 -18 -32q-15 -13 -33 -13t-29 11.5t-11 25.5q0 4 1 8z" />
    <glyph glyph-name="aring" unicode="&#xe5;" 
d="M63 230q13 104 83.5 170.5t168.5 66.5q103 0 149 -78l8 71h90l-56 -460h-90l9 71q-64 -79 -168 -79q-97 0 -146.5 61t-49.5 139q0 18 2 38zM178 120q35 -43 101 -43q65 0 111 43t51 83t5 51q0 51 -31.5 89.5t-97.5 38.5t-112 -42.5t-50.5 -82t-4.5 -51.5q0 -51 28 -86z
M281 596q4 37 31 60t64 23q38 0 57 -21t19 -50q0 -6 -1 -12q-5 -35 -31 -58q-27 -24 -64 -24t-56.5 21.5t-19.5 47.5q0 6 1 13zM334 570q8 -12 27 -12t30 12t13 26v6q0 11 -7 22t-26 11t-30 -12t-13 -27v-6q0 -10 6 -20z" />
    <glyph glyph-name="ae" unicode="&#xe6;" horiz-adv-x="910" 
d="M693 467q95 0 149 -67t41 -170l-3 -29h-347q-1 -61 32 -96t88 -35q85 0 134 64l58 -43q-76 -99 -204 -99q-75 0 -125.5 37t-67.5 98q-56 -135 -218 -135q-95 0 -142 29.5t-39 96.5q4 28 16.5 49.5t28.5 35.5t45 24t51.5 15.5t61.5 8.5t63 4t68 2q8 79 -17.5 110t-81.5 31
q-89 0 -123 -64l-69 25q52 108 205 108q80 0 124.5 -33.5t52.5 -92.5q33 59 90.5 92.5t128.5 33.5zM689 395q-61 0 -100 -37.5t-50 -99.5h265q1 64 -31 100.5t-84 36.5zM232 57q64 0 98.5 32t44.5 110q-132 -2 -169 -12q-62 -16 -68 -65q-4 -34 19.5 -49.5t74.5 -15.5z" />
    <glyph glyph-name="ccedilla" unicode="&#xe7;" horiz-adv-x="501" 
d="M63 230q13 105 86.5 171.5t176.5 66.5q122 0 176 -93l-71 -50q-33 57 -113 57q-66 0 -112.5 -42.5t-51 -82t-4.5 -51.5q0 -51 32 -90t98 -39q80 0 127 56l59 -48q-68 -84 -174 -93l-20 -28q31 -4 44.5 -19t14.5 -34q-1 -4 -1 -8q-9 -68 -94 -68q-36 0 -54 9l6 50
q17 -13 54 -13t40 22v2q0 18 -40 18q-22 0 -35 -5l4 40q1 0 1 1l25 34q-89 11 -132.5 69.5t-43.5 130.5q0 18 2 37z" />
    <glyph glyph-name="egrave" unicode="&#xe8;" horiz-adv-x="539" 
d="M63 230q13 104 84 171t173 67q99 0 147 -60.5t48 -137.5q0 -20 -3 -40l-3 -26h-362v-3q0 -60 35 -96t95 -36q88 0 138 62l58 -45q-79 -95 -205 -95q-104 0 -155.5 61t-51.5 141q0 18 2 37zM154 263h278q-1 60 -32.5 96.5t-87.5 36.5q-58 0 -100 -36t-58 -97zM332 630
l36 -103h-76l-40 103h80z" />
    <glyph glyph-name="eacute" unicode="&#xe9;" horiz-adv-x="539" 
d="M63 230q13 104 84 171t173 67q99 0 147 -60.5t48 -137.5q0 -20 -3 -40l-3 -26h-362v-3q0 -60 35 -96t95 -36q88 0 138 62l58 -45q-79 -95 -205 -95q-104 0 -155.5 61t-51.5 141q0 18 2 37zM154 263h278q-1 60 -32.5 96.5t-87.5 36.5q-58 0 -100 -36t-58 -97zM351 630h80
l-66 -103h-76z" />
    <glyph glyph-name="ecircumflex" unicode="&#xea;" horiz-adv-x="539" 
d="M63 230q13 104 84 171t173 67q99 0 147 -60.5t48 -137.5q0 -20 -3 -40l-3 -26h-362v-3q0 -60 35 -96t95 -36q88 0 138 62l58 -45q-79 -95 -205 -95q-104 0 -155.5 61t-51.5 141q0 18 2 37zM154 263h278q-1 60 -32.5 96.5t-87.5 36.5q-58 0 -100 -36t-58 -97zM210 527
l79 103h104l53 -103h-78l-31 69l-49 -69h-78z" />
    <glyph glyph-name="edieresis" unicode="&#xeb;" horiz-adv-x="539" 
d="M63 230q13 104 84 171t173 67q99 0 147 -60.5t48 -137.5q0 -20 -3 -40l-3 -26h-362v-3q0 -60 35 -96t95 -36q88 0 138 62l58 -45q-79 -95 -205 -95q-104 0 -155.5 61t-51.5 141q0 18 2 37zM432 263q-1 60 -32.5 96.5t-87.5 36.5q-58 0 -100 -36t-58 -97h278zM380 562
q2 19 17 31.5t33 12.5t29 -11.5t11 -27.5v-5q-3 -20 -18 -32q-15 -13 -33 -13t-29 11.5t-11 25.5q0 4 1 8zM197 562q2 19 17 31.5t33 12.5q17 0 28.5 -11.5t11.5 -27.5v-5q-3 -20 -18 -32q-15 -13 -33 -13t-29 11.5t-11 25.5q0 4 1 8z" />
    <glyph glyph-name="igrave" unicode="&#xec;" horiz-adv-x="221" 
d="M169 630l36 -103h-76l-40 103h80zM145 0h-90l56 460h91z" />
    <glyph glyph-name="iacute" unicode="&#xed;" horiz-adv-x="221" 
d="M188 630h80l-66 -103h-76zM145 0h-90l56 460h91z" />
    <glyph glyph-name="icircumflex" unicode="&#xee;" horiz-adv-x="221" 
d="M111 460h91l-57 -460h-90zM126 630h104l53 -103h-78l-31 69l-49 -69h-78z" />
    <glyph glyph-name="idieresis" unicode="&#xef;" horiz-adv-x="221" 
d="M55 0l56 460h91l-57 -460h-90zM34 562q2 19 17 31.5t33 12.5t29 -11.5t11 -27.5v-5q-3 -20 -18 -32q-15 -13 -33 -13t-29 11.5t-11 25.5q0 4 1 8zM217 562q2 19 17 31.5t33 12.5q17 0 28.5 -11.5t11.5 -27.5v-5q-3 -20 -18 -32q-15 -13 -33 -13t-29 11.5t-11 25.5
q0 4 1 8z" />
    <glyph glyph-name="ntilde" unicode="&#xf1;" horiz-adv-x="534" 
d="M106 460h90l-6 -56q56 63 149 63q75 0 118.5 -41.5t43.5 -109.5q0 -16 -2 -33l-35 -283h-90l33 270q2 12 2 23q0 42 -28 69.5t-77 27.5q-48 0 -85.5 -30.5t-45.5 -89.5l-33 -270h-90zM172 523q6 44 33 73t68 29t67 -34q21 -25 42 -25q35 0 43 47h55q-6 -45 -33.5 -73.5
t-71.5 -28.5q-41 0 -67 35q-21 24 -40 24q-34 0 -41 -47h-55z" />
    <glyph glyph-name="ograve" unicode="&#xf2;" horiz-adv-x="560" 
d="M63 230q13 104 87.5 171.5t178.5 67.5q103 0 154.5 -61t51.5 -140q0 -19 -2 -38q-13 -104 -86.5 -171.5t-176.5 -67.5q-104 0 -156.5 62t-52.5 140q0 18 2 37zM180 121q35 -44 100 -44t110.5 43.5t53.5 109.5q2 13 2 24q0 51 -31.5 89.5t-96.5 38.5t-111 -42.5
t-54 -109.5q-1 -12 -1 -24q0 -50 28 -85zM260 630h80l36 -103h-76z" />
    <glyph glyph-name="oacute" unicode="&#xf3;" horiz-adv-x="560" 
d="M63 230q13 104 87.5 171.5t178.5 67.5q103 0 154.5 -61t51.5 -140q0 -19 -2 -38q-13 -104 -86.5 -171.5t-176.5 -67.5q-104 0 -156.5 62t-52.5 140q0 18 2 37zM180 121q35 -44 100 -44t110.5 43.5t53.5 109.5q2 13 2 24q0 51 -31.5 89.5t-96.5 38.5t-111 -42.5
t-54 -109.5q-1 -12 -1 -24q0 -50 28 -85zM297 527l62 103h80l-66 -103h-76z" />
    <glyph glyph-name="ocircumflex" unicode="&#xf4;" horiz-adv-x="560" 
d="M63 230q13 104 87.5 171.5t178.5 67.5q103 0 154.5 -61t51.5 -140q0 -19 -2 -38q-13 -104 -86.5 -171.5t-176.5 -67.5q-104 0 -156.5 62t-52.5 140q0 18 2 37zM180 121q35 -44 100 -44t110.5 43.5t53.5 109.5q2 13 2 24q0 51 -31.5 89.5t-96.5 38.5t-111 -42.5
t-54 -109.5q-1 -12 -1 -24q0 -50 28 -85zM218 527l79 103h104l53 -103h-78l-31 69l-49 -69h-78z" />
    <glyph glyph-name="otilde" unicode="&#xf5;" horiz-adv-x="560" 
d="M63 230q13 104 87.5 171.5t178.5 67.5q103 0 154.5 -61t51.5 -140q0 -19 -2 -38q-13 -104 -86.5 -171.5t-176.5 -67.5q-104 0 -156.5 62t-52.5 140q0 18 2 37zM180 121q35 -44 100 -44t110.5 43.5t53.5 109.5q2 13 2 24q0 51 -31.5 89.5t-96.5 38.5t-111 -42.5
t-54 -109.5q-1 -12 -1 -24q0 -50 28 -85zM187 523q6 44 33 73t68 29t67 -34q21 -25 42 -25q35 0 43 47h55q-6 -45 -33.5 -73.5t-71.5 -28.5q-41 0 -67 35q-21 24 -40 24q-34 0 -41 -47h-55z" />
    <glyph glyph-name="odieresis" unicode="&#xf6;" horiz-adv-x="560" 
d="M63 230q13 104 87.5 171.5t178.5 67.5q103 0 154.5 -61t51.5 -140q0 -19 -2 -38q-13 -104 -86.5 -171.5t-176.5 -67.5q-104 0 -156.5 62t-52.5 140q0 18 2 37zM180 121q35 -44 100 -44t110.5 43.5t53.5 109.5q2 13 2 24q0 51 -31.5 89.5t-96.5 38.5t-111 -42.5
t-54 -109.5q-1 -12 -1 -24q0 -50 28 -85zM388 562q2 19 17 31.5t33 12.5t29 -11.5t11 -27.5v-5q-3 -20 -18 -32q-15 -13 -33 -13t-29 11.5t-11 25.5q0 4 1 8zM205 562q2 19 17 31.5t33 12.5q17 0 28.5 -11.5t11.5 -27.5v-5q-3 -20 -18 -32q-15 -13 -33 -13t-29 11.5
t-11 25.5q0 4 1 8z" />
    <glyph glyph-name="divide" unicode="&#xf7;" horiz-adv-x="515" 
d="M302 439q-23 0 -35.5 14.5t-9.5 36.5t19 36t38 14t35 -14t10 -36t-19 -36.5t-38 -14.5zM94 358h395l-9 -71h-395zM261 104q-22 0 -35 14.5t-10 36.5q3 23 19 37t38 14t35 -14.5t10 -36.5t-19 -36.5t-38 -14.5z" />
    <glyph glyph-name="oslash" unicode="&#xf8;" horiz-adv-x="560" 
d="M481 411q65 -69 52 -181q-13 -104 -86.5 -171.5t-176.5 -67.5q-79 0 -131 40l-28 -31h-39l45 50q-68 68 -54 180q13 104 87.5 171.5t178.5 67.5q77 0 130 -39l27 30h39zM153 230q-8 -67 28 -110l215 239q-32 23 -78 23q-65 0 -111 -42.5t-54 -109.5zM280 77
q65 0 110.5 43.5t53.5 109.5q9 66 -27 110l-216 -240q32 -23 79 -23z" />
    <glyph glyph-name="ugrave" unicode="&#xf9;" horiz-adv-x="534" 
d="M72 177l34 283h90l-33 -270q-1 -11 -1 -21q0 -44 28.5 -71.5t76.5 -27.5t85.5 30.5t44.5 89.5l33 270h90l-56 -460h-90l7 55q-57 -63 -150 -63q-75 0 -118 41.5t-43 108.5q0 16 2 35zM332 630l36 -103h-76l-40 103h80z" />
    <glyph glyph-name="uacute" unicode="&#xfa;" horiz-adv-x="534" 
d="M72 177l34 283h90l-33 -270q-1 -11 -1 -21q0 -44 28.5 -71.5t76.5 -27.5t85.5 30.5t44.5 89.5l33 270h90l-56 -460h-90l7 55q-57 -63 -150 -63q-75 0 -118 41.5t-43 108.5q0 16 2 35zM351 630h80l-66 -103h-76z" />
    <glyph glyph-name="ucircumflex" unicode="&#xfb;" horiz-adv-x="534" 
d="M72 177l34 283h90l-33 -270q-1 -11 -1 -21q0 -44 28.5 -71.5t76.5 -27.5t85.5 30.5t44.5 89.5l33 270h90l-56 -460h-90l7 55q-57 -63 -150 -63q-75 0 -118 41.5t-43 108.5q0 16 2 35zM289 630h104l53 -103h-78l-31 69l-49 -69h-78z" />
    <glyph glyph-name="udieresis" unicode="&#xfc;" horiz-adv-x="534" 
d="M72 177l34 283h90l-33 -270q-1 -11 -1 -21q0 -44 28.5 -71.5t76.5 -27.5t85.5 30.5t44.5 89.5l33 270h90l-56 -460h-90l7 55q-57 -63 -150 -63q-75 0 -118 41.5t-43 108.5q0 16 2 35zM380 562q2 19 17 31.5t33 12.5t29 -11.5t11 -27.5v-5q-3 -20 -18 -32q-15 -13 -33 -13
t-29 11.5t-11 25.5q0 4 1 8zM197 562q2 19 17 31.5t33 12.5q17 0 28.5 -11.5t11.5 -27.5v-5q-3 -20 -18 -32q-15 -13 -33 -13t-29 11.5t-11 25.5q0 4 1 8z" />
    <glyph glyph-name="yacute" unicode="&#xfd;" horiz-adv-x="487" 
d="M154 460l91 -335l174 335h94l-335 -644h-89l96 184l-125 460h94zM256 527l62 103h80l-66 -103h-76z" />
    <glyph glyph-name="ydieresis" unicode="&#xff;" horiz-adv-x="487" 
d="M60 460h94l91 -335l174 335h94l-335 -644h-89l96 184zM164 562q2 19 17 31.5t33 12.5t29 -11.5t11 -27.5v-5q-3 -20 -18 -32q-15 -13 -33 -13t-29 11.5t-11 25.5q0 4 1 8zM347 562q2 19 17 31.5t33 12.5q17 0 28.5 -11.5t11.5 -27.5v-5q-3 -20 -18 -32q-15 -13 -33 -13
t-29 11.5t-11 25.5q0 4 1 8z" />
    <glyph glyph-name="Amacron" unicode="&#x100;" horiz-adv-x="654" 
d="M366 650h72l186 -650h-100l-39 143h-290l-75 -143h-100zM240 229h220l-76 276zM319 708l8 60h181l-8 -60h-181z" />
    <glyph glyph-name="amacron" unicode="&#x101;" 
d="M63 230q13 104 83.5 170.5t168.5 66.5q103 0 149 -78l8 71h90l-56 -460h-90l9 71q-64 -79 -168 -79q-97 0 -146.5 61t-49.5 139q0 18 2 38zM178 120q35 -43 101 -43q65 0 111 43t51 83t5 51q0 51 -31.5 89.5t-97.5 38.5t-112 -42.5t-50.5 -82t-4.5 -51.5q0 -51 28 -86z
M267 525l8 60h181l-8 -60h-181z" />
    <glyph glyph-name="Abreve" unicode="&#x102;" horiz-adv-x="654" 
d="M366 650h72l186 -650h-100l-39 143h-290l-75 -143h-100zM460 229l-76 276l-144 -276h220zM318 802l1 3h55l-1 -3v-5q0 -16 11 -28.5t33 -12.5t36 13.5t16 32.5l1 3h55l-1 -3q-5 -43 -36.5 -69.5t-76.5 -26.5q-46 0 -70 24.5t-24 58.5q0 6 1 13z" />
    <glyph glyph-name="abreve" unicode="&#x103;" 
d="M63 230q13 104 83.5 170.5t168.5 66.5q103 0 149 -78l8 71h90l-56 -460h-90l9 71q-64 -79 -168 -79q-97 0 -146.5 61t-49.5 139q0 18 2 38zM178 120q35 -43 101 -43q65 0 111 43t51 83t5 51q0 51 -31.5 89.5t-97.5 38.5t-112 -42.5t-50.5 -82t-4.5 -51.5q0 -51 28 -86z
M266 619l1 3h55l-1 -3v-5q0 -16 11 -28.5t33 -12.5t36 13.5t16 32.5l1 3h55l-1 -3q-5 -43 -36.5 -69.5t-76.5 -26.5q-46 0 -70 24.5t-24 58.5q0 6 1 13z" />
    <glyph glyph-name="Aogonek" unicode="&#x104;" horiz-adv-x="654" 
d="M554 -54v-3q0 -7 4 -12t11 -6t9 -1q12 0 33 8l-7 -55q-22 -5 -40 -5q-24 0 -47 11.5t-23 42.5v8q5 38 45 66h-15l-39 143h-290l-75 -143h-100l346 650h72l186 -650h-30q-37 -27 -40 -54zM240 229h220l-76 276z" />
    <glyph glyph-name="aogonek" unicode="&#x105;" 
d="M63 230q13 104 83.5 170.5t168.5 66.5q103 0 149 -78l8 71h90l-56 -460h-9q-44 -30 -47 -59v-3q0 -7 4 -12t11 -6t9 -1q12 0 33 8l-7 -55q-22 -5 -40 -5q-24 0 -47 11.5t-23 42.5v8q5 41 52 71h-26l9 71q-64 -79 -168 -79q-97 0 -146.5 61t-49.5 139q0 18 2 38zM178 120
q35 -43 101 -43q65 0 111 43t51 83t5 51q0 51 -31.5 89.5t-97.5 38.5t-112 -42.5t-50.5 -82t-4.5 -51.5q0 -51 28 -86z" />
    <glyph glyph-name="Cacute" unicode="&#x106;" horiz-adv-x="677" 
d="M80 325q18 145 121 239t247 94q85 0 148.5 -34.5t98.5 -96.5l-83 -55q-25 42 -70.5 67.5t-105.5 25.5q-104 0 -176.5 -67.5t-85.5 -172.5q-2 -19 -2 -38q0 -79 51 -140t155 -61q118 0 198 94l69 -57q-107 -131 -279 -131q-144 0 -216.5 85.5t-72.5 195.5q0 25 3 52z
M470 815h80l-66 -103h-76z" />
    <glyph glyph-name="cacute" unicode="&#x107;" horiz-adv-x="501" 
d="M63 230q13 105 86.5 171.5t176.5 66.5q122 0 176 -93l-71 -50q-33 57 -113 57q-66 0 -112.5 -42.5t-51 -82t-4.5 -51.5q0 -51 32 -90t98 -39q80 0 127 56l59 -48q-76 -94 -198 -94q-103 0 -155 61.5t-52 140.5q0 18 2 37zM357 630h80l-66 -103h-76z" />
    <glyph glyph-name="Cdotaccent" unicode="&#x10a;" horiz-adv-x="677" 
d="M80 325q18 145 121 239t247 94q85 0 148.5 -34.5t98.5 -96.5l-83 -55q-25 42 -70.5 67.5t-105.5 25.5q-104 0 -176.5 -67.5t-85.5 -172.5q-2 -19 -2 -38q0 -79 51 -140t155 -61q118 0 198 94l69 -57q-107 -131 -279 -131q-144 0 -216.5 85.5t-72.5 195.5q0 25 3 52z
M407 748q2 19 17 31.5t33 12.5q17 0 28.5 -11.5t11.5 -27.5v-5q-3 -20 -18 -32q-15 -13 -33 -13t-29 11.5t-11 25.5q0 4 1 8z" />
    <glyph glyph-name="cdotaccent" unicode="&#x10b;" horiz-adv-x="501" 
d="M63 230q13 105 86.5 171.5t176.5 66.5q122 0 176 -93l-71 -50q-33 57 -113 57q-66 0 -112.5 -42.5t-51 -82t-4.5 -51.5q0 -51 32 -90t98 -39q80 0 127 56l59 -48q-76 -94 -198 -94q-103 0 -155 61.5t-52 140.5q0 18 2 37zM294 562q2 19 17 31.5t33 12.5t29 -11.5
t11 -27.5v-5q-3 -20 -18 -32q-15 -13 -33 -13t-29 11.5t-11 25.5q0 4 1 8z" />
    <glyph glyph-name="Ccaron" unicode="&#x10c;" horiz-adv-x="677" 
d="M80 325q18 145 121 239t247 94q85 0 148.5 -34.5t98.5 -96.5l-83 -55q-25 42 -70.5 67.5t-105.5 25.5q-104 0 -176.5 -67.5t-85.5 -172.5q-2 -19 -2 -38q0 -79 51 -140t155 -61q118 0 198 94l69 -57q-107 -131 -279 -131q-144 0 -216.5 85.5t-72.5 195.5q0 25 3 52z
M420 815l32 -65l48 65h78l-79 -103h-104l-53 103h78z" />
    <glyph glyph-name="ccaron" unicode="&#x10d;" horiz-adv-x="501" 
d="M63 230q13 105 86.5 171.5t176.5 66.5q122 0 176 -93l-71 -50q-33 57 -113 57q-66 0 -112.5 -42.5t-51 -82t-4.5 -51.5q0 -51 32 -90t98 -39q80 0 127 56l59 -48q-76 -94 -198 -94q-103 0 -155 61.5t-52 140.5q0 18 2 37zM229 630h78l32 -65l48 65h78l-79 -103h-104z" />
    <glyph glyph-name="Dcaron" unicode="&#x10e;" horiz-adv-x="653" 
d="M50 0l80 650h227q144 0 214 -81.5t70 -190.5q0 -26 -10.5 -112t-110 -176t-243.5 -90h-227zM288 91q89 0 165.5 59.5t90.5 174.5q2 20 2 38q0 37 -12 76t-42.5 66t-67.5 40.5t-78 13.5h-133l-58 -468h133zM243 814h78l32 -65l48 65h78l-79 -103h-104z" />
    <glyph glyph-name="dcaron" unicode="&#x10f;" 
d="M63 230q13 104 83.5 170.5t168.5 66.5q103 0 149 -78l32 261h90l-80 -650h-90l9 71q-64 -79 -168 -79q-97 0 -146.5 61t-49.5 139q0 18 2 38zM178 120q35 -43 101 -43q65 0 111 43t51 83t5 51q0 51 -31.5 89.5t-97.5 38.5t-112 -42.5t-50.5 -82t-4.5 -51.5q0 -51 28 -86z
M442 813h78l32 -65l48 65h78l-79 -103h-104z" />
    <glyph glyph-name="Dcroat" unicode="&#x110;" horiz-adv-x="656" 
d="M359 650q144 0 222 -90t60 -235t-118 -235t-244 -90h-229l34 279h-49l11 86h49l35 285h229zM291 93q40 0 80.5 13.5t78 40.5t64 73t33.5 105t-8 105.5t-45.5 73t-68 40.5t-77.5 14h-135l-24 -193h120l-11 -86h-120l-23 -186h136z" />
    <glyph glyph-name="Emacron" unicode="&#x112;" horiz-adv-x="543" 
d="M274 768h181l-8 -60h-181zM547 564h-334l-24 -196h313l-10 -86h-313l-24 -196h334l-11 -86h-428l80 650h428z" />
    <glyph glyph-name="emacron" unicode="&#x113;" horiz-adv-x="539" 
d="M63 230q13 104 84 171t173 67q99 0 147 -60.5t48 -137.5q0 -20 -3 -40l-3 -26h-362v-3q0 -60 35 -96t95 -36q88 0 138 62l58 -45q-79 -95 -205 -95q-104 0 -155.5 61t-51.5 141q0 18 2 37zM154 263h278q-1 60 -32.5 96.5t-87.5 36.5q-58 0 -100 -36t-58 -97zM245 585h181
l-8 -60h-181z" />
    <glyph glyph-name="Edotaccent" unicode="&#x116;" horiz-adv-x="543" 
d="M130 650h428l-11 -86h-334l-24 -196h313l-10 -86h-313l-24 -196h334l-11 -86h-428zM317 746q2 19 17 31.5t33 12.5q17 0 28.5 -11.5t11.5 -27.5v-5q-3 -20 -18 -32q-15 -13 -33 -13t-29 11.5t-11 25.5q0 4 1 8z" />
    <glyph glyph-name="edotaccent" unicode="&#x117;" horiz-adv-x="539" 
d="M63 230q13 104 84 171t173 67q99 0 147 -60.5t48 -137.5q0 -20 -3 -40l-3 -26h-362v-3q0 -60 35 -96t95 -36q88 0 138 62l58 -45q-79 -95 -205 -95q-104 0 -155.5 61t-51.5 141q0 18 2 37zM432 263q-1 60 -32.5 96.5t-87.5 36.5q-58 0 -100 -36t-58 -97h278zM288 562
q2 19 17 31.5t33 12.5t29 -11.5t11 -27.5v-5q-3 -20 -18 -32q-15 -13 -33 -13t-29 11.5t-11 25.5q0 4 1 8z" />
    <glyph glyph-name="Eogonek" unicode="&#x118;" horiz-adv-x="543" 
d="M130 650h428l-11 -86h-334l-24 -196h313l-10 -86h-313l-24 -196h334l-11 -86h-12q-44 -30 -47 -59v-3q0 -7 4 -12t11 -6t9 -1q12 0 33 8l-7 -55q-22 -5 -40 -5q-24 0 -47 11.5t-23 42.5v8q5 41 52 71h-361z" />
    <glyph glyph-name="eogonek" unicode="&#x119;" horiz-adv-x="539" 
d="M63 230q13 104 84 171t173 67q99 0 147 -60.5t48 -137.5q0 -20 -3 -40l-3 -26h-362v-3q0 -60 35 -96t95 -36q88 0 138 62l58 -45q-68 -83 -175 -93q-46 -34 -49 -61v-3q0 -7 4 -12t11 -6t9 -1q12 0 33 8l-7 -55q-22 -5 -40 -5q-24 0 -47 11.5t-23 42.5v8q5 43 54 72
q-93 9 -137.5 68.5t-44.5 132.5q0 18 2 37zM154 263h278q-1 60 -32.5 96.5t-87.5 36.5q-58 0 -100 -36t-58 -97z" />
    <glyph glyph-name="Ecaron" unicode="&#x11a;" horiz-adv-x="543" 
d="M50 0l80 650h428l-11 -86h-334l-24 -196h313l-10 -86h-313l-24 -196h334l-11 -86h-428zM330 813l32 -65l48 65h78l-79 -103h-104l-53 103h78z" />
    <glyph glyph-name="ecaron" unicode="&#x11b;" horiz-adv-x="539" 
d="M63 230q13 104 84 171t173 67q99 0 147 -60.5t48 -137.5q0 -20 -3 -40l-3 -26h-362v-3q0 -60 35 -96t95 -36q88 0 138 62l58 -45q-79 -95 -205 -95q-104 0 -155.5 61t-51.5 141q0 18 2 37zM154 263h278q-1 60 -32.5 96.5t-87.5 36.5q-58 0 -100 -36t-58 -97zM301 630
l32 -65l48 65h78l-79 -103h-104l-53 103h78z" />
    <glyph glyph-name="Gbreve" unicode="&#x11e;" horiz-adv-x="739" 
d="M80 325q18 145 121 239t247 94q85 0 148.5 -34.5t98.5 -95.5l-84 -55q-53 92 -175 92q-104 0 -176.5 -67.5t-85.5 -172.5q-2 -19 -2 -38q0 -79 51 -140t155 -61q81 0 143.5 48t83.5 130h-211l11 86h317l-5 -40q-23 -141 -117.5 -229.5t-233.5 -88.5q-144 0 -216.5 85.5
t-72.5 195.5q0 25 3 52zM363 802l1 3h55l-1 -3v-5q0 -16 11 -28.5t33 -12.5t36 13.5t16 32.5l1 3h55l-1 -3q-5 -43 -36.5 -69.5t-76.5 -26.5q-46 0 -70 24.5t-24 58.5q0 6 1 13z" />
    <glyph glyph-name="gbreve" unicode="&#x11f;" 
d="M63 230q13 103 83.5 170t167.5 67q105 0 150 -79l8 72h90l-52 -426q-12 -101 -85.5 -163.5t-185.5 -62.5q-123 0 -182 82l66 50q44 -55 126 -55q61 0 111.5 37.5t59.5 111.5l5 37q-66 -79 -169 -79q-97 0 -146.5 61t-49.5 139q0 18 3 38zM178 120q35 -43 100 -43
q66 0 112 43t50.5 82.5t4.5 51.5q0 51 -31.5 89.5t-97.5 38.5t-111.5 -42.5t-50 -82t-4.5 -51.5q0 -51 28 -86zM249 619l1 3h55l-1 -3v-5q0 -16 11 -28.5t33 -12.5t36 13.5t16 32.5l1 3h55l-1 -3q-5 -43 -36.5 -69.5t-76.5 -26.5q-46 0 -70 24.5t-24 58.5q0 6 1 13z" />
    <glyph glyph-name="Gdotaccent" unicode="&#x120;" horiz-adv-x="739" 
d="M80 325q18 145 121 239t247 94q85 0 148.5 -34.5t98.5 -95.5l-84 -55q-53 92 -175 92q-104 0 -176.5 -67.5t-85.5 -172.5q-2 -19 -2 -38q0 -79 51 -140t155 -61q81 0 143.5 48t83.5 130h-211l11 86h317l-5 -40q-23 -141 -117.5 -229.5t-233.5 -88.5q-144 0 -216.5 85.5
t-72.5 195.5q0 25 3 52zM415 746q2 19 17 31.5t33 12.5q17 0 28.5 -11.5t11.5 -27.5v-5q-3 -20 -18 -32q-15 -13 -33 -13t-29 11.5t-11 25.5q0 4 1 8z" />
    <glyph glyph-name="gdotaccent" unicode="&#x121;" 
d="M63 230q13 103 83.5 170t167.5 67q105 0 150 -79l8 72h90l-52 -426q-12 -101 -85.5 -163.5t-185.5 -62.5q-123 0 -182 82l66 50q44 -55 126 -55q61 0 111.5 37.5t59.5 111.5l5 37q-66 -79 -169 -79q-97 0 -146.5 61t-49.5 139q0 18 3 38zM178 120q35 -43 100 -43
q66 0 112 43t50.5 82.5t4.5 51.5q0 51 -31.5 89.5t-97.5 38.5t-111.5 -42.5t-50 -82t-4.5 -51.5q0 -51 28 -86zM301 562q2 19 17 31.5t33 12.5q17 0 28.5 -11.5t11.5 -27.5v-5q-3 -20 -18 -32q-15 -13 -33 -13t-29 11.5t-11 25.5q0 4 1 8z" />
    <glyph glyph-name="uni0122" unicode="&#x122;" horiz-adv-x="739" 
d="M80 325q18 145 121 239t247 94q85 0 148.5 -34.5t98.5 -95.5l-84 -55q-53 92 -175 92q-104 0 -176.5 -67.5t-85.5 -172.5q-2 -19 -2 -38q0 -79 51 -140t155 -61q81 0 143.5 48t83.5 130h-211l11 86h317l-5 -40q-23 -141 -117.5 -229.5t-233.5 -88.5q-144 0 -216.5 85.5
t-72.5 195.5q0 25 3 52zM264 -161l63 102h78l-67 -102h-74z" />
    <glyph glyph-name="uni0123" unicode="&#x123;" 
d="M63 230q13 103 83.5 170t167.5 67q105 0 150 -79l8 72h90l-52 -426q-12 -101 -85.5 -163.5t-185.5 -62.5q-123 0 -182 82l66 50q44 -55 126 -55q61 0 111.5 37.5t59.5 111.5l5 37q-66 -79 -169 -79q-97 0 -146.5 61t-49.5 139q0 18 3 38zM178 120q35 -43 100 -43
q66 0 112 43t50.5 82.5t4.5 51.5q0 51 -31.5 89.5t-97.5 38.5t-111.5 -42.5t-50 -82t-4.5 -51.5q0 -51 28 -86zM300 561q1 9 5 18.5t12 18.5t12.5 14t14.5 14l10 8h45q-29 -26 -34 -34q25 -6 25 -33v-6q-2 -17 -16 -30t-34 -13q-21 0 -30.5 12t-9.5 26v5z" />
    <glyph glyph-name="Itilde" unicode="&#x128;" horiz-adv-x="214" 
d="M50 0l80 650h94l-80 -650h-94zM67 780q27 29 68 29t67 -34q21 -25 42 -25q35 0 43 47h55q-6 -45 -33.5 -73.5t-71.5 -28.5q-41 0 -67 35q-21 24 -40 24q-34 0 -41 -47h-55q6 44 33 73z" />
    <glyph glyph-name="itilde" unicode="&#x129;" horiz-adv-x="221" 
d="M55 0l56 460h91l-57 -460h-90zM16 523q6 44 33 73t68 29t67 -34q21 -25 42 -25q35 0 43 47h55q-6 -45 -33.5 -73.5t-71.5 -28.5q-41 0 -67 35q-21 24 -40 24q-34 0 -41 -47h-55z" />
    <glyph glyph-name="Imacron" unicode="&#x12a;" horiz-adv-x="214" 
d="M99 768h181l-8 -60h-181zM144 0h-94l80 650h94z" />
    <glyph glyph-name="imacron" unicode="&#x12b;" horiz-adv-x="221" 
d="M81 585h181l-8 -60h-181zM145 0h-90l56 460h91z" />
    <glyph glyph-name="Iogonek" unicode="&#x12e;" horiz-adv-x="214" 
d="M26 -72q5 40 53 72h-29l80 650h94l-80 -650h-10q-45 -33 -48 -60v-3q0 -7 4 -12t11 -6t9 -1q12 0 33 8l-7 -55q-22 -5 -40 -5q-24 0 -47 11.5t-23 42.5v8z" />
    <glyph glyph-name="iogonek" unicode="&#x12f;" horiz-adv-x="221" 
d="M29 -73q5 44 55 73h-29l56 460h91l-57 -460h-6q-47 -32 -50 -61v-3q0 -7 4 -12t11 -6t9 -1q12 0 33 8l-7 -55q-22 -5 -40 -5q-24 0 -47 11.5t-23 42.5v8zM124 562q2 19 17 32q15 12 33 12t29 -11.5t11 -27.5v-5q-3 -20 -18 -32.5t-33 -12.5t-29 11.5t-11 25.5q0 4 1 8z
" />
    <glyph glyph-name="Idotaccent" unicode="&#x130;" horiz-adv-x="214" 
d="M50 0l80 650h94l-80 -650h-94zM143 746q2 19 17 31.5t33 12.5q17 0 28.5 -11.5t11.5 -27.5v-5q-3 -20 -18 -32q-15 -13 -33 -13t-29 11.5t-11 25.5q0 4 1 8z" />
    <glyph glyph-name="dotlessi" unicode="&#x131;" horiz-adv-x="221" 
d="M145 0h-90l56 460h91z" />
    <glyph glyph-name="uni0136" unicode="&#x136;" horiz-adv-x="546" 
d="M130 650h94l-36 -288l286 288h109l-319 -325l252 -325h-111l-225 290l-36 -290h-94zM161 -159l63 102h78l-67 -102h-74z" />
    <glyph glyph-name="uni0137" unicode="&#x137;" horiz-adv-x="482" 
d="M130 650h90l-47 -381l206 191h108l-235 -218l200 -242h-108l-178 215l-26 -215h-90zM131 -159l63 102h78l-67 -102h-74z" />
    <glyph glyph-name="Lacute" unicode="&#x139;" horiz-adv-x="526" 
d="M206 813h80l-66 -103h-76zM155 86h332l-11 -86h-426l80 650h94z" />
    <glyph glyph-name="lacute" unicode="&#x13a;" horiz-adv-x="211" 
d="M206 813h80l-66 -103h-76zM140 0h-90l80 650h91z" />
    <glyph glyph-name="uni013B" unicode="&#x13b;" horiz-adv-x="526" 
d="M155 86h332l-11 -86h-426l80 650h94zM220 -57h78l-67 -102h-74z" />
    <glyph glyph-name="uni013C" unicode="&#x13c;" horiz-adv-x="211" 
d="M140 0h-90l80 650h91zM53 -57h78l-67 -102h-74z" />
    <glyph glyph-name="Lcaron" unicode="&#x13d;" horiz-adv-x="526" 
d="M130 650h94l-69 -564h332l-11 -86h-426zM156 813l32 -65l48 65h78l-79 -103h-104l-53 103h78z" />
    <glyph glyph-name="lcaron" unicode="&#x13e;" horiz-adv-x="211" 
d="M50 0l80 650h91l-81 -650h-90zM78 813h78l32 -65l48 65h78l-79 -103h-104z" />
    <glyph glyph-name="Lslash" unicode="&#x141;" horiz-adv-x="525" 
d="M155 86h331l-11 -86h-425l36 295l-51 -17l11 88l51 18l33 266h94l-29 -233l130 45l-11 -89l-130 -44z" />
    <glyph glyph-name="lslash" unicode="&#x142;" horiz-adv-x="210" 
d="M251 412l-9 -74l-63 -21l-39 -317h-90l35 285l-48 -16l9 75l48 16l36 290h90l-32 -259z" />
    <glyph glyph-name="Nacute" unicode="&#x143;" horiz-adv-x="630" 
d="M131 650h90l265 -489l60 489h94l-80 -650h-91l-265 491l-60 -491h-93zM421 813h80l-66 -103h-76z" />
    <glyph glyph-name="nacute" unicode="&#x144;" horiz-adv-x="534" 
d="M106 460h90l-6 -56q56 63 149 63q75 0 118.5 -41.5t43.5 -109.5q0 -16 -2 -33l-35 -283h-90l33 270q2 12 2 23q0 42 -28 69.5t-77 27.5q-48 0 -85.5 -30.5t-45.5 -89.5l-33 -270h-90zM344 630h80l-66 -103h-76z" />
    <glyph glyph-name="uni0145" unicode="&#x145;" horiz-adv-x="630" 
d="M131 650h90l265 -489l60 489h94l-80 -650h-91l-265 491l-60 -491h-93zM270 -57h78l-67 -102h-74z" />
    <glyph glyph-name="uni0146" unicode="&#x146;" horiz-adv-x="534" 
d="M106 460h90l-6 -56q56 63 149 63q75 0 118.5 -41.5t43.5 -109.5q0 -16 -2 -33l-35 -283h-90l33 270q2 12 2 23q0 42 -28 69.5t-77 27.5q-48 0 -85.5 -30.5t-45.5 -89.5l-33 -270h-90zM151 -159l63 102h78l-67 -102h-74z" />
    <glyph glyph-name="Ncaron" unicode="&#x147;" horiz-adv-x="630" 
d="M131 650h90l265 -489l60 489h94l-80 -650h-91l-265 491l-60 -491h-93zM293 813h78l32 -65l48 65h78l-79 -103h-104z" />
    <glyph glyph-name="ncaron" unicode="&#x148;" horiz-adv-x="534" 
d="M106 460h90l-6 -56q56 63 149 63q75 0 118.5 -41.5t43.5 -109.5q0 -16 -2 -33l-35 -283h-90l33 270q2 12 2 23q0 42 -28 69.5t-77 27.5q-48 0 -85.5 -30.5t-45.5 -89.5l-33 -270h-90zM216 630h78l32 -65l48 65h78l-79 -103h-104z" />
    <glyph glyph-name="Omacron" unicode="&#x14c;" horiz-adv-x="746" 
d="M80 325q18 145 121 239t247 94t215 -85t71 -195q0 -26 -10.5 -112.5t-111.5 -179.5q-102 -94 -246 -94t-216.5 85.5t-72.5 195.5q0 25 3 52zM218 154q56 -68 160 -68q103 0 175 67t79.5 129.5t7.5 80.5q0 80 -50.5 141t-153.5 61q-104 0 -176.5 -67.5t-85.5 -172.5
q-2 -19 -2 -37q0 -79 46 -134zM363 708l8 60h181l-8 -60h-181z" />
    <glyph glyph-name="omacron" unicode="&#x14d;" horiz-adv-x="560" 
d="M63 230q13 104 87.5 171.5t178.5 67.5q103 0 154.5 -61t51.5 -140q0 -19 -2 -38q-13 -104 -86.5 -171.5t-176.5 -67.5q-104 0 -156.5 62t-52.5 140q0 18 2 37zM180 121q35 -44 100 -44t110.5 43.5t53.5 109.5q2 13 2 24q0 51 -31.5 89.5t-96.5 38.5t-111 -42.5
t-54 -109.5q-1 -12 -1 -24q0 -50 28 -85zM245 525l8 60h181l-8 -60h-181z" />
    <glyph glyph-name="Ohungarumlaut" unicode="&#x150;" horiz-adv-x="746" 
d="M80 325q18 145 121 239t247 94t215 -85t71 -195q0 -26 -10.5 -112.5t-111.5 -179.5q-102 -94 -246 -94t-216.5 85.5t-72.5 195.5q0 25 3 52zM218 154q56 -68 160 -68q103 0 175 67t79.5 129.5t7.5 80.5q0 80 -50.5 141t-153.5 61q-104 0 -176.5 -67.5t-85.5 -172.5
q-2 -19 -2 -37q0 -79 46 -134zM553 813h80l-76 -103h-66zM397 813h80l-77 -103h-66z" />
    <glyph glyph-name="ohungarumlaut" unicode="&#x151;" horiz-adv-x="560" 
d="M63 230q13 104 87.5 171.5t178.5 67.5q103 0 154.5 -61t51.5 -140q0 -19 -2 -38q-13 -104 -86.5 -171.5t-176.5 -67.5q-104 0 -156.5 62t-52.5 140q0 18 2 37zM180 121q35 -44 100 -44t110.5 43.5t53.5 109.5q2 13 2 24q0 51 -31.5 89.5t-96.5 38.5t-111 -42.5
t-54 -109.5q-1 -12 -1 -24q0 -50 28 -85zM373 527l62 103h80l-76 -103h-66zM216 527l63 103h80l-77 -103h-66z" />
    <glyph glyph-name="OE" unicode="&#x152;" horiz-adv-x="1065" 
d="M1069 564h-306l-24 -198h285l-11 -86h-285l-23 -194h306l-11 -86h-400l10 84q-100 -92 -242 -92q-144 0 -225 94t-63 239q18 146 121.5 239.5t248.5 93.5q142 0 220 -91l10 83h400zM380 86q104 0 174.5 67t83.5 172q13 106 -41.5 173t-158.5 67q-107 0 -179 -67t-85 -173
q-13 -105 43 -172t163 -67z" />
    <glyph glyph-name="oe" unicode="&#x153;" horiz-adv-x="913" 
d="M694 468q99 0 152 -67t40 -171l-3 -26h-362q-1 -62 34.5 -98.5t95.5 -36.5q88 0 138 62l59 -40q-36 -47 -90 -73.5t-116 -26.5q-125 0 -179 93q-76 -92 -198 -92q-102 0 -158.5 67.5t-43.5 170.5t85.5 170t174.5 67q122 0 175 -91q74 92 196 92zM686 396q-58 0 -100 -36
t-58 -97h278q-1 60 -32.5 96.5t-87.5 36.5zM276 81q66 0 109 41t51 108q8 68 -24.5 108.5t-98.5 40.5q-65 0 -109 -41t-52 -108t25.5 -108t98.5 -41z" />
    <glyph glyph-name="Racute" unicode="&#x154;" horiz-adv-x="607" 
d="M130 650h304q77 0 122 -51t45 -120q0 -15 -2 -32q-10 -79 -60.5 -133t-116.5 -67l135 -247h-109l-133 243h-141l-30 -243h-94zM185 334h196q47 0 83 32t42 81q1 8 1 16q0 38 -25.5 67t-72.5 29h-196zM313 710l62 103h80l-66 -103h-76z" />
    <glyph glyph-name="racute" unicode="&#x155;" horiz-adv-x="342" 
d="M50 0l56 460h90l-10 -85q63 90 173 92l-10 -85q-37 -1 -72 -11.5t-68.5 -45t-39.5 -89.5l-29 -236h-90zM268 630h80l-66 -103h-76z" />
    <glyph glyph-name="uni0156" unicode="&#x156;" horiz-adv-x="607" 
d="M130 650h304q77 0 122 -51t45 -120q0 -15 -2 -32q-10 -79 -60.5 -133t-116.5 -67l135 -247h-109l-133 243h-141l-30 -243h-94zM185 334h196q47 0 83 32t42 81q1 8 1 16q0 38 -25.5 67t-72.5 29h-196zM233 -57h78l-67 -102h-74z" />
    <glyph glyph-name="uni0157" unicode="&#x157;" horiz-adv-x="342" 
d="M50 0l56 460h90l-10 -85q63 90 173 92l-10 -85q-37 -1 -72 -11.5t-68.5 -45t-39.5 -89.5l-29 -236h-90zM53 -57h78l-67 -102h-74z" />
    <glyph glyph-name="Rcaron" unicode="&#x158;" horiz-adv-x="607" 
d="M50 0l80 650h304q77 0 122 -51t45 -120q0 -15 -2 -32q-10 -79 -60.5 -133t-116.5 -67l135 -247h-109l-133 243h-141l-30 -243h-94zM185 334h196q47 0 83 32t42 81q1 8 1 16q0 38 -25.5 67t-72.5 29h-196zM247 813h78l32 -65l48 65h78l-79 -103h-104z" />
    <glyph glyph-name="rcaron" unicode="&#x159;" horiz-adv-x="342" 
d="M106 460h90l-10 -85q63 90 173 92l-10 -85q-37 -1 -72 -11.5t-68.5 -45t-39.5 -89.5l-29 -236h-90zM218 630l32 -65l48 65h78l-79 -103h-104l-53 103h78z" />
    <glyph glyph-name="Sacute" unicode="&#x15a;" horiz-adv-x="604" 
d="M47 141l83 52q12 -43 65 -77t126 -34q140 0 151 101v7q0 14 -6.5 27.5t-18 23.5t-32.5 19.5t-35.5 14t-37.5 11t-30 8.5q-4 1 -25.5 7t-32.5 9.5t-34 12.5t-36 17.5t-30 22.5t-26 29.5t-13 33t-4 32.5q0 9 1 18q11 92 86 139t184 47q89 0 153 -39t76 -94l-82 -47
q-10 34 -57 60t-111 26q-63 0 -100 -22.5t-42 -64.5v-7q0 -13 6.5 -26t16.5 -22t31 -18t33.5 -13t37.5 -10.5t32 -8.5q3 -1 24 -7.5t32.5 -10.5t34 -13.5t36.5 -18.5t31.5 -24t26.5 -30.5t13 -33.5t4 -33q0 -9 -1 -18q-12 -96 -85 -147.5t-192 -51.5q-102 0 -168.5 43.5
t-84.5 109.5zM411 813h80l-66 -103h-76z" />
    <glyph glyph-name="sacute" unicode="&#x15b;" horiz-adv-x="451" 
d="M37 96l68 40q7 -29 43 -52t84 -23q94 0 103 66v4q0 10 -4.5 19.5t-11.5 16t-21 13t-23 9t-25.5 7.5t-21.5 6q-1 0 -15 4t-20.5 6.5t-21.5 8t-23 10.5t-20.5 13t-19.5 17t-14 20t-8.5 21.5t-1.5 18.5q0 7 1 15q8 65 62 99.5t132 34.5q68 0 112.5 -26.5t57.5 -67.5l-65 -37
q-9 24 -42 42t-75 18q-87 0 -94 -59v-4q0 -9 4 -18t10.5 -15t20 -12t22 -9t24.5 -7.5t21 -5.5l13 -4q14 -4 19 -5.5t19 -7t21.5 -9.5t20 -11t19.5 -14t15.5 -16.5t12.5 -20t6 -21t2 -18.5q0 -6 -1 -12q-8 -69 -60.5 -106t-139.5 -37q-77 0 -125 30.5t-60 78.5zM247 527
l62 103h80l-66 -103h-76z" />
    <glyph glyph-name="Scedilla" unicode="&#x15e;" horiz-adv-x="604" 
d="M47 141l83 52q12 -43 65 -77t126 -34q140 0 151 101v7q0 14 -6.5 27.5t-18 23.5t-32.5 19.5t-35.5 14t-37.5 11t-30 8.5q-4 1 -25.5 7t-32.5 9.5t-34 12.5t-36 17.5t-30 22.5t-26 29.5t-13 33t-4 32.5q0 9 1 18q11 92 86 139t184 47q89 0 153 -39t76 -94l-82 -47
q-10 34 -57 60t-111 26q-63 0 -100 -22.5t-42 -64.5v-7q0 -13 6.5 -26t16.5 -22t31 -18t33.5 -13t37.5 -10.5t32 -8.5q3 -1 24 -7.5t32.5 -10.5t34 -13.5t36.5 -18.5t31.5 -24t26.5 -30.5t13 -33.5t4 -33q0 -9 -1 -18q-11 -90 -75.5 -140.5t-170.5 -57.5l-24 -34
q31 -4 44.5 -19t14.5 -34q-1 -4 -1 -8q-9 -68 -94 -68q-36 0 -54 9l6 50q17 -13 54 -13t40 22v2q0 18 -40 18q-22 0 -35 -5l4 40q1 0 1 1l29 39q-92 5 -152 48t-77 104z" />
    <glyph glyph-name="scedilla" unicode="&#x15f;" horiz-adv-x="451" 
d="M37 96l68 40q7 -29 43 -52t84 -23q94 0 103 66v4q0 10 -4.5 19.5t-11.5 16t-21 13t-23 9t-25.5 7.5t-21.5 6q-1 0 -15 4t-20.5 6.5t-21.5 8t-23 10.5t-20.5 13t-19.5 17t-14 20t-8.5 21.5t-1.5 18.5q0 7 1 15q8 65 62 99.5t132 34.5q68 0 112.5 -26.5t57.5 -67.5l-65 -37
q-9 24 -42 42t-75 18q-87 0 -94 -59v-4q0 -9 4 -18t10.5 -15t20 -12t22 -9t24.5 -7.5t21 -5.5l13 -4q14 -4 19 -5.5t19 -7t21.5 -9.5t20 -11t19.5 -14t15.5 -16.5t12.5 -20t6 -21t2 -18.5q0 -6 -1 -12q-7 -64 -52.5 -100.5t-121.5 -41.5l-20 -29q31 -4 44.5 -19t14.5 -34
q-1 -4 -1 -8q-9 -68 -94 -68q-36 0 -54 9l6 50q17 -13 54 -13t40 22v2q0 18 -40 18q-22 0 -35 -5l4 40q1 0 1 1l26 34q-65 6 -105.5 35.5t-51.5 72.5z" />
    <glyph glyph-name="Scaron" unicode="&#x160;" horiz-adv-x="604" 
d="M47 141l83 52q12 -43 65 -77t126 -34q140 0 151 101v7q0 14 -6.5 27.5t-18 23.5t-32.5 19.5t-35.5 14t-37.5 11t-30 8.5q-4 1 -25.5 7t-32.5 9.5t-34 12.5t-36 17.5t-30 22.5t-26 29.5t-13 33t-4 32.5q0 9 1 18q11 92 86 139t184 47q89 0 153 -39t76 -94l-82 -47
q-10 34 -57 60t-111 26q-63 0 -100 -22.5t-42 -64.5v-7q0 -13 6.5 -26t16.5 -22t31 -18t33.5 -13t37.5 -10.5t32 -8.5q3 -1 24 -7.5t32.5 -10.5t34 -13.5t36.5 -18.5t31.5 -24t26.5 -30.5t13 -33.5t4 -33q0 -9 -1 -18q-12 -96 -85 -147.5t-192 -51.5q-102 0 -168.5 43.5
t-84.5 109.5zM283 813h78l32 -65l48 65h78l-79 -103h-104z" />
    <glyph glyph-name="scaron" unicode="&#x161;" horiz-adv-x="451" 
d="M37 96l68 40q7 -29 43 -52t84 -23q94 0 103 66v4q0 10 -4.5 19.5t-11.5 16t-21 13t-23 9t-25.5 7.5t-21.5 6q-1 0 -15 4t-20.5 6.5t-21.5 8t-23 10.5t-20.5 13t-19.5 17t-14 20t-8.5 21.5t-1.5 18.5q0 7 1 15q8 65 62 99.5t132 34.5q68 0 112.5 -26.5t57.5 -67.5l-65 -37
q-9 24 -42 42t-75 18q-87 0 -94 -59v-4q0 -9 4 -18t10.5 -15t20 -12t22 -9t24.5 -7.5t21 -5.5l13 -4q14 -4 19 -5.5t19 -7t21.5 -9.5t20 -11t19.5 -14t15.5 -16.5t12.5 -20t6 -21t2 -18.5q0 -6 -1 -12q-8 -69 -60.5 -106t-139.5 -37q-77 0 -125 30.5t-60 78.5zM259 630
l32 -65l48 65h78l-79 -103h-104l-53 103h78z" />
    <glyph glyph-name="uni0162" unicode="&#x162;" horiz-adv-x="586" 
d="M110 650h506l-11 -86h-206l-69 -564h-19l-25 -35q31 -4 44.5 -19t14.5 -34q-1 -4 -1 -8q-9 -68 -94 -68q-36 0 -54 9l6 50q17 -13 54 -13t40 22v2q0 18 -40 18q-22 0 -35 -5l4 40q1 0 1 1l30 40h-19l69 564h-207z" />
    <glyph glyph-name="uni0163" unicode="&#x163;" horiz-adv-x="325" 
d="M68 391l8 69h63l18 141h90l-18 -141h107l-8 -69h-107l-32 -260q-1 -6 -1 -11q0 -48 58 -48h38l-9 -72h-45l-23 -33q31 -4 44.5 -19t14.5 -34q-1 -4 -1 -8q-9 -68 -94 -68q-36 0 -54 9l6 50q17 -13 54 -13t40 22v2q0 18 -40 18q-22 0 -35 -5l4 40q1 0 1 1l30 40
q-45 6 -63 32.5t-18 61.5q0 11 1 22l34 273h-63z" />
    <glyph glyph-name="Tcaron" unicode="&#x164;" horiz-adv-x="586" 
d="M110 650h506l-11 -86h-206l-69 -564h-93l69 564h-207zM343 813l32 -65l48 65h78l-79 -103h-104l-53 103h78z" />
    <glyph glyph-name="tcaron" unicode="&#x165;" horiz-adv-x="325" 
d="M68 391l8 69h63l18 141h90l-18 -141h107l-8 -69h-107l-32 -260q-1 -6 -1 -11q0 -48 58 -48h38l-9 -72h-73q-58 0 -82 28t-24 68q0 10 1 22l34 273h-63zM100 753h78l32 -65l48 65h78l-79 -103h-104z" />
    <glyph glyph-name="Tbar" unicode="&#x166;" horiz-adv-x="596" 
d="M605 564h-206l-27 -220h130l-10 -86h-130l-32 -258h-93l32 258h-130l10 86h130l27 220h-207l11 86h506z" />
    <glyph glyph-name="Utilde" unicode="&#x168;" horiz-adv-x="614" 
d="M78 227l52 423h94l-51 -413q-2 -14 -2 -28q0 -54 33.5 -90t102.5 -36q70 0 117 40t56 114l51 413h93l-52 -423q-12 -102 -86.5 -168.5t-189.5 -66.5q-114 0 -167 61t-53 140q0 17 2 34zM241 707q6 44 33 73t68 29t67 -34q21 -25 42 -25q35 0 43 47h55q-6 -45 -33.5 -73.5
t-71.5 -28.5q-41 0 -67 35q-21 24 -40 24q-34 0 -41 -47h-55z" />
    <glyph glyph-name="utilde" unicode="&#x169;" horiz-adv-x="534" 
d="M72 177l34 283h90l-33 -270q-1 -11 -1 -21q0 -44 28.5 -71.5t76.5 -27.5t85.5 30.5t44.5 89.5l33 270h90l-56 -460h-90l7 55q-57 -63 -150 -63q-75 0 -118 41.5t-43 108.5q0 16 2 35zM179 523q6 44 33 73t68 29t67 -34q21 -25 42 -25q35 0 43 47h55q-6 -45 -33.5 -73.5
t-71.5 -28.5q-41 0 -67 35q-21 24 -40 24q-34 0 -41 -47h-55z" />
    <glyph glyph-name="Umacron" unicode="&#x16a;" horiz-adv-x="614" 
d="M78 227l52 423h94l-51 -413q-2 -14 -2 -28q0 -54 33.5 -90t102.5 -36q70 0 117 40t56 114l51 413h93l-52 -423q-12 -102 -86.5 -168.5t-189.5 -66.5q-114 0 -167 61t-53 140q0 17 2 34zM298 708l8 60h181l-8 -60h-181z" />
    <glyph glyph-name="umacron" unicode="&#x16b;" horiz-adv-x="534" 
d="M72 177l34 283h90l-33 -270q-1 -11 -1 -21q0 -44 28.5 -71.5t76.5 -27.5t85.5 30.5t44.5 89.5l33 270h90l-56 -460h-90l7 55q-57 -63 -150 -63q-75 0 -118 41.5t-43 108.5q0 16 2 35zM245 585h181l-8 -60h-181z" />
    <glyph glyph-name="Uring" unicode="&#x16e;" horiz-adv-x="614" 
d="M78 227l52 423h94l-51 -413q-2 -14 -2 -28q0 -54 33.5 -90t102.5 -36q70 0 117 40t56 114l51 413h93l-52 -423q-12 -102 -86.5 -168.5t-189.5 -66.5q-114 0 -167 61t-53 140q0 17 2 34zM313 779q4 37 31 60t64 23q38 0 57 -21t19 -50q0 -6 -1 -12q-5 -35 -31 -58
q-27 -24 -64 -24t-56.5 21.5t-19.5 47.5q0 6 1 13zM366 753q8 -12 27 -12t30 12t13 26v6q0 11 -7 22t-26 11t-30 -12t-13 -27v-6q0 -10 6 -20z" />
    <glyph glyph-name="uring" unicode="&#x16f;" horiz-adv-x="534" 
d="M72 177l34 283h90l-33 -270q-1 -11 -1 -21q0 -44 28.5 -71.5t76.5 -27.5t85.5 30.5t44.5 89.5l33 270h90l-56 -460h-90l7 55q-57 -63 -150 -63q-75 0 -118 41.5t-43 108.5q0 16 2 35zM251 596q4 37 31 60t64 23q38 0 57 -21t19 -50q0 -6 -1 -12q-5 -35 -31 -58
q-27 -24 -64 -24t-56.5 21.5t-19.5 47.5q0 6 1 13zM304 570q8 -12 27 -12t30 12t13 26v6q0 11 -7 22t-26 11t-30 -12t-13 -27v-6q0 -10 6 -20z" />
    <glyph glyph-name="Uhungarumlaut" unicode="&#x170;" horiz-adv-x="614" 
d="M78 227l52 423h94l-51 -413q-2 -14 -2 -28q0 -54 33.5 -90t102.5 -36q70 0 117 40t56 114l51 413h93l-52 -423q-12 -102 -86.5 -168.5t-189.5 -66.5q-114 0 -167 61t-53 140q0 17 2 34zM426 710l62 103h80l-76 -103h-66zM269 710l63 103h80l-77 -103h-66z" />
    <glyph glyph-name="uhungarumlaut" unicode="&#x171;" horiz-adv-x="534" 
d="M72 177l34 283h90l-33 -270q-1 -11 -1 -21q0 -44 28.5 -71.5t76.5 -27.5t85.5 30.5t44.5 89.5l33 270h90l-56 -460h-90l7 55q-57 -63 -150 -63q-75 0 -118 41.5t-43 108.5q0 16 2 35zM365 527l62 103h80l-76 -103h-66zM208 527l63 103h80l-77 -103h-66z" />
    <glyph glyph-name="Uogonek" unicode="&#x172;" horiz-adv-x="614" 
d="M78 227l52 423h94l-51 -413q-2 -14 -2 -28q0 -54 33.5 -90t102.5 -36q70 0 117 40t56 114l51 413h93l-52 -423q-12 -95 -78 -160t-169 -74q-40 -30 -43 -56v-3q0 -7 4 -12t11 -6t9 -1q12 0 33 8l-7 -55q-22 -5 -40 -5q-24 0 -47 11.5t-23 42.5v8q5 39 47 68
q-102 8 -147.5 67t-45.5 132q0 17 2 35z" />
    <glyph glyph-name="uogonek" unicode="&#x173;" horiz-adv-x="534" 
d="M72 177l34 283h90l-33 -270q-1 -11 -1 -21q0 -44 28.5 -71.5t76.5 -27.5t85.5 30.5t44.5 89.5l33 270h90l-56 -460h-14q-39 -28 -43 -56v-3q0 -7 4 -12t11 -6t9 -1q12 0 33 8l-7 -55q-22 -5 -40 -5q-24 0 -47 11.5t-23 42.5v8q5 39 47 68h-20l7 55q-57 -63 -150 -63
q-75 0 -118 41.5t-43 108.5q0 16 2 35z" />
    <glyph glyph-name="Wcircumflex" unicode="&#x174;" horiz-adv-x="947" 
d="M100 650h100l99 -479l218 479h69l98 -467l214 467h99l-297 -650h-79l-96 456l-208 -456h-80zM517 813h104l53 -103h-78l-31 69l-49 -69h-78z" />
    <glyph glyph-name="wcircumflex" unicode="&#x175;" horiz-adv-x="739" 
d="M160 460l67 -333l156 333h66l74 -333l148 333h94l-209 -460h-89l-69 318l-148 -318h-89l-95 460h94zM385 630h104l53 -103h-78l-31 69l-49 -69h-78z" />
    <glyph glyph-name="Ycircumflex" unicode="&#x176;" horiz-adv-x="600" 
d="M93 650h108l137 -271l204 271h108l-276 -367l-35 -283h-94l35 281zM340 813h104l53 -103h-78l-31 69l-49 -69h-78z" />
    <glyph glyph-name="ycircumflex" unicode="&#x177;" horiz-adv-x="487" 
d="M154 460l91 -335l174 335h94l-335 -644h-89l96 184l-125 460h94zM256 630h104l53 -103h-78l-31 69l-49 -69h-78z" />
    <glyph glyph-name="Ydieresis" unicode="&#x178;" horiz-adv-x="600" 
d="M93 650h108l137 -271l204 271h108l-276 -367l-35 -283h-94l35 281zM248 746q2 19 17 31.5t33 12.5t29 -11.5t11 -27.5v-5q-3 -20 -18 -32q-15 -13 -33 -13t-29 11.5t-11 25.5q0 4 1 8zM431 746q2 19 17 31.5t33 12.5q17 0 28.5 -11.5t11.5 -27.5v-5q-3 -20 -18 -32
q-15 -13 -33 -13t-29 11.5t-11 25.5q0 4 1 8z" />
    <glyph glyph-name="Zacute" unicode="&#x179;" horiz-adv-x="540" 
d="M380 813h80l-66 -103h-76zM560 570l-396 -483l331 -1l-11 -86h-444l10 80l394 484h-328l11 86h443z" />
    <glyph glyph-name="zacute" unicode="&#x17a;" horiz-adv-x="428" 
d="M292 630h80l-66 -103h-76zM434 460l-8 -69l-273 -316h230l-9 -75h-344l8 69l273 316h-230l9 75h344z" />
    <glyph glyph-name="Zdotaccent" unicode="&#x17b;" horiz-adv-x="540" 
d="M40 0l10 80l394 484h-328l11 86h443l-10 -80l-396 -483l331 -1l-11 -86h-444zM317 746q2 19 17 31.5t33 12.5q17 0 28.5 -11.5t11.5 -27.5v-5q-3 -20 -18 -32q-15 -13 -33 -13t-29 11.5t-11 25.5q0 4 1 8z" />
    <glyph glyph-name="zdotaccent" unicode="&#x17c;" horiz-adv-x="428" 
d="M38 69l273 316h-230l9 75h344l-8 -69l-273 -316h230l-9 -75h-344zM229 562q2 19 17 31.5t33 12.5q17 0 28.5 -11.5t11.5 -27.5v-5q-3 -20 -18 -32q-15 -13 -33 -13t-29 11.5t-11 25.5q0 4 1 8z" />
    <glyph glyph-name="Zcaron" unicode="&#x17d;" horiz-adv-x="540" 
d="M50 80l394 484h-328l11 86h443l-10 -80l-396 -483l331 -1l-11 -86h-444zM330 813l32 -65l48 65h78l-79 -103h-104l-53 103h78z" />
    <glyph glyph-name="zcaron" unicode="&#x17e;" horiz-adv-x="428" 
d="M38 69l273 316h-230l9 75h344l-8 -69l-273 -316h230l-9 -75h-344zM164 630h78l32 -65l48 65h78l-79 -103h-104z" />
    <glyph glyph-name="uni01CD" unicode="&#x1cd;" horiz-adv-x="654" 
d="M366 650h72l186 -650h-100l-39 143h-290l-75 -143h-100zM460 229l-76 276l-144 -276h220zM383 813l32 -65l48 65h78l-79 -103h-104l-53 103h78z" />
    <glyph glyph-name="uni01CE" unicode="&#x1ce;" 
d="M63 230q13 104 83.5 170.5t168.5 66.5q103 0 149 -78l8 71h90l-56 -460h-90l9 71q-64 -79 -168 -79q-97 0 -146.5 61t-49.5 139q0 18 2 38zM178 120q35 -43 101 -43q65 0 111 43t51 83t5 51q0 51 -31.5 89.5t-97.5 38.5t-112 -42.5t-50.5 -82t-4.5 -51.5q0 -51 28 -86z
M253 630h78l32 -65l48 65h78l-79 -103h-104z" />
    <glyph glyph-name="uni01CF" unicode="&#x1cf;" horiz-adv-x="214" 
d="M50 0l80 650h94l-80 -650h-94zM78 813h78l32 -65l48 65h78l-79 -103h-104z" />
    <glyph glyph-name="uni01D0" unicode="&#x1d0;" horiz-adv-x="221" 
d="M55 0l56 460h91l-57 -460h-90zM60 630h78l32 -65l48 65h78l-79 -103h-104z" />
    <glyph glyph-name="uni01D1" unicode="&#x1d1;" horiz-adv-x="746" 
d="M80 325q18 145 121 239t247 94t215 -85t71 -195q0 -26 -10.5 -112.5t-111.5 -179.5q-102 -94 -246 -94t-216.5 85.5t-72.5 195.5q0 25 3 52zM218 154q56 -68 160 -68q103 0 175 67t79.5 129.5t7.5 80.5q0 80 -50.5 141t-153.5 61q-104 0 -176.5 -67.5t-85.5 -172.5
q-2 -19 -2 -37q0 -79 46 -134zM427 813l32 -65l48 65h78l-79 -103h-104l-53 103h78z" />
    <glyph glyph-name="uni01D2" unicode="&#x1d2;" horiz-adv-x="560" 
d="M63 230q13 104 87.5 171.5t178.5 67.5q103 0 154.5 -61t51.5 -140q0 -19 -2 -38q-13 -104 -86.5 -171.5t-176.5 -67.5q-104 0 -156.5 62t-52.5 140q0 18 2 37zM180 121q35 -44 100 -44t110.5 43.5t53.5 109.5q2 13 2 24q0 51 -31.5 89.5t-96.5 38.5t-111 -42.5
t-54 -109.5q-1 -12 -1 -24q0 -50 28 -85zM309 630l32 -65l48 65h78l-79 -103h-104l-53 103h78z" />
    <glyph glyph-name="uni01D3" unicode="&#x1d3;" horiz-adv-x="614" 
d="M78 227l52 423h94l-51 -413q-2 -14 -2 -28q0 -54 33.5 -90t102.5 -36q70 0 117 40t56 114l51 413h93l-52 -423q-12 -102 -86.5 -168.5t-189.5 -66.5q-114 0 -167 61t-53 140q0 17 2 34zM284 813h78l32 -65l48 65h78l-79 -103h-104z" />
    <glyph glyph-name="uni01D4" unicode="&#x1d4;" horiz-adv-x="534" 
d="M72 177l34 283h90l-33 -270q-1 -11 -1 -21q0 -44 28.5 -71.5t76.5 -27.5t85.5 30.5t44.5 89.5l33 270h90l-56 -460h-90l7 55q-57 -63 -150 -63q-75 0 -118 41.5t-43 108.5q0 16 2 35zM301 630l32 -65l48 65h78l-79 -103h-104l-53 103h78z" />
    <glyph glyph-name="Gcaron" unicode="&#x1e6;" horiz-adv-x="739" 
d="M80 325q18 145 121 239t247 94q85 0 148.5 -34.5t98.5 -95.5l-84 -55q-53 92 -175 92q-104 0 -176.5 -67.5t-85.5 -172.5q-2 -19 -2 -38q0 -79 51 -140t155 -61q81 0 143.5 48t83.5 130h-211l11 86h317l-5 -40q-23 -141 -117.5 -229.5t-233.5 -88.5q-144 0 -216.5 85.5
t-72.5 195.5q0 25 3 52zM350 813h78l32 -65l48 65h78l-79 -103h-104z" />
    <glyph glyph-name="gcaron" unicode="&#x1e7;" 
d="M63 230q13 103 83.5 170t167.5 67q105 0 150 -79l8 72h90l-52 -426q-12 -101 -85.5 -163.5t-185.5 -62.5q-123 0 -182 82l66 50q44 -55 126 -55q61 0 111.5 37.5t59.5 111.5l5 37q-66 -79 -169 -79q-97 0 -146.5 61t-49.5 139q0 18 3 38zM178 120q35 -43 100 -43
q66 0 112 43t50.5 82.5t4.5 51.5q0 51 -31.5 89.5t-97.5 38.5t-111.5 -42.5t-50 -82t-4.5 -51.5q0 -51 28 -86zM314 630l32 -65l48 65h78l-79 -103h-104l-53 103h78z" />
    <glyph glyph-name="uni0218" unicode="&#x218;" horiz-adv-x="604" 
d="M47 141l83 52q12 -43 65 -77t126 -34q140 0 151 101v7q0 14 -6.5 27.5t-18 23.5t-32.5 19.5t-35.5 14t-37.5 11t-30 8.5q-4 1 -25.5 7t-32.5 9.5t-34 12.5t-36 17.5t-30 22.5t-26 29.5t-13 33t-4 32.5q0 9 1 18q11 92 86 139t184 47q89 0 153 -39t76 -94l-82 -47
q-10 34 -57 60t-111 26q-63 0 -100 -22.5t-42 -64.5v-7q0 -13 6.5 -26t16.5 -22t31 -18t33.5 -13t37.5 -10.5t32 -8.5q3 -1 24 -7.5t32.5 -10.5t34 -13.5t36.5 -18.5t31.5 -24t26.5 -30.5t13 -33.5t4 -33q0 -9 -1 -18q-12 -96 -85 -147.5t-192 -51.5q-102 0 -168.5 43.5
t-84.5 109.5zM199 -167l63 102h78l-67 -102h-74z" />
    <glyph glyph-name="uni0219" unicode="&#x219;" horiz-adv-x="451" 
d="M37 96l68 40q7 -29 43 -52t84 -23q94 0 103 66v4q0 10 -4.5 19.5t-11.5 16t-21 13t-23 9t-25.5 7.5t-21.5 6q-1 0 -15 4t-20.5 6.5t-21.5 8t-23 10.5t-20.5 13t-19.5 17t-14 20t-8.5 21.5t-1.5 18.5q0 7 1 15q8 65 62 99.5t132 34.5q68 0 112.5 -26.5t57.5 -67.5l-65 -37
q-9 24 -42 42t-75 18q-87 0 -94 -59v-4q0 -9 4 -18t10.5 -15t20 -12t22 -9t24.5 -7.5t21 -5.5l13 -4q14 -4 19 -5.5t19 -7t21.5 -9.5t20 -11t19.5 -14t15.5 -16.5t12.5 -20t6 -21t2 -18.5q0 -6 -1 -12q-8 -69 -60.5 -106t-139.5 -37q-77 0 -125 30.5t-60 78.5zM120 -163
l63 102h78l-67 -102h-74z" />
    <glyph glyph-name="uni021A" unicode="&#x21a;" horiz-adv-x="586" 
d="M110 650h506l-11 -86h-206l-69 -564h-93l69 564h-207zM178 -158l63 102h78l-67 -102h-74z" />
    <glyph glyph-name="uni021B" unicode="&#x21b;" horiz-adv-x="325" 
d="M76 460h63l18 141h90l-18 -141h107l-8 -69h-107l-32 -260q-1 -6 -1 -11q0 -48 58 -48h38l-9 -72h-73q-58 0 -82 28t-24 68q0 10 1 22l34 273h-63zM99 -156l63 102h78l-67 -102h-74z" />
    <glyph glyph-name="circumflex" unicode="&#x2c6;" horiz-adv-x="276" 
d="M323 547h-78l-31 69l-49 -69h-78l79 103h104z" />
    <glyph glyph-name="caron" unicode="&#x2c7;" horiz-adv-x="276" 
d="M258 650h78l-79 -103h-104l-53 103h78l32 -65z" />
    <glyph glyph-name="breve" unicode="&#x2d8;" horiz-adv-x="236" 
d="M296 650l-1 -3q-5 -45 -35.5 -70t-72.5 -25q-43 0 -68 25t-20 70l1 3h55l-1 -3q-2 -20 8 -32.5t31 -12.5q20 0 32.5 12.5t14.5 32.5l1 3h55z" />
    <glyph glyph-name="dotaccent" unicode="&#x2d9;" horiz-adv-x="130" 
d="M137 587q-18 0 -30 12.5t-9 32.5q2 19 17 31.5t33 12.5t30 -12.5t10 -31.5q-3 -20 -18 -32.5t-33 -12.5z" />
    <glyph glyph-name="ring" unicode="&#x2da;" horiz-adv-x="210" 
d="M169 499q-37 0 -59 24t-18 60q4 38 32 62t66 24t59.5 -24t17.5 -62q-5 -36 -32.5 -60t-65.5 -24zM175 542q20 0 31.5 12.5t14.5 28.5q2 17 -6.5 29.5t-29.5 12.5t-32.5 -13t-13.5 -29q-3 -16 6 -28.5t30 -12.5z" />
    <glyph glyph-name="ogonek" unicode="&#x2db;" horiz-adv-x="153" 
d="M116 -135q-50 -12 -80 4t-26 53q3 26 22 46.5t39 31.5h51q-53 -37 -56 -66q-1 -9 3.5 -14.5t17 -7t36.5 7.5z" />
    <glyph glyph-name="tilde" unicode="&#x2dc;" horiz-adv-x="337" 
d="M91 576q6 44 33 73t68 29t67 -34q21 -25 42 -25q35 0 43 47h55q-6 -45 -33.5 -73.5t-71.5 -28.5q-41 0 -67 35q-21 24 -40 24q-34 0 -41 -47h-55z" />
    <glyph glyph-name="hungarumlaut" unicode="&#x2dd;" horiz-adv-x="326" 
d="M150 650h80l-77 -103h-66zM306 650h80l-76 -103h-66z" />
    <glyph glyph-name="gravecomb" unicode="&#x300;" horiz-adv-x="0" 
d="M11 650l36 -103h-76l-40 103h80z" />
    <glyph glyph-name="acutecomb" unicode="&#x301;" horiz-adv-x="0" 
d="M-20 650h80l-66 -103h-76z" />
    <glyph glyph-name="uni0302" unicode="&#x302;" horiz-adv-x="0" 
d="M-110 650h104l53 -103h-78l-31 69l-49 -69h-78z" />
    <glyph glyph-name="tildecomb" unicode="&#x303;" horiz-adv-x="0" 
d="M-246 576q6 44 33 73t68 29t67 -34q21 -25 42 -25q35 0 43 47h55q-6 -45 -33.5 -73.5t-71.5 -28.5q-41 0 -67 35q-21 24 -40 24q-34 0 -41 -47h-55z" />
    <glyph glyph-name="uni0304" unicode="&#x304;" horiz-adv-x="0" 
d="M-121 650h181l-8 -60h-181z" />
    <glyph glyph-name="uni0306" unicode="&#x306;" horiz-adv-x="0" 
d="M-147 647l1 3h55l-1 -3v-5q0 -16 11 -28.5t33 -12.5t36 13.5t16 32.5l1 3h55l-1 -3q-5 -43 -36.5 -69.5t-76.5 -26.5q-46 0 -70 24.5t-24 58.5q0 6 1 13z" />
    <glyph glyph-name="uni0307" unicode="&#x307;" horiz-adv-x="0" 
d="M-32 632q2 19 17 31.5t33 12.5t29 -11.5t11 -27.5v-5q-3 -20 -18 -32q-15 -13 -33 -13t-29 11.5t-11 25.5q0 4 1 8z" />
    <glyph glyph-name="uni0308" unicode="&#x308;" horiz-adv-x="0" 
d="M-36 632q2 19 17 31.5t33 12.5t29 -11.5t11 -27.5v-5q-3 -20 -18 -32q-15 -13 -33 -13t-29 11.5t-11 25.5q0 4 1 8zM-219 632q2 19 17 31.5t33 12.5q17 0 28.5 -11.5t11.5 -27.5v-5q-3 -20 -18 -32q-15 -13 -33 -13t-29 11.5t-11 25.5q0 4 1 8z" />
    <glyph glyph-name="uni030A" unicode="&#x30a;" horiz-adv-x="0" 
d="M-118 586q4 37 31 60t64 23q38 0 57 -21t19 -50q0 -6 -1 -12q-5 -35 -31 -58q-27 -24 -64 -24t-56.5 21.5t-19.5 47.5q0 6 1 13zM-65 560q8 -12 27 -12t30 12t13 26v6q0 11 -7 22t-26 11t-30 -12t-13 -27v-6q0 -10 6 -20z" />
    <glyph glyph-name="uni030B" unicode="&#x30b;" horiz-adv-x="0" 
d="M-82 547l62 103h80l-76 -103h-66zM-239 547l63 103h80l-77 -103h-66z" />
    <glyph glyph-name="uni030C" unicode="&#x30c;" horiz-adv-x="0" 
d="M-98 650l32 -65l48 65h78l-79 -103h-104l-53 103h78z" />
    <glyph glyph-name="uni0312" unicode="&#x312;" horiz-adv-x="0" 
d="M-38 607q1 9 5 18.5t12 18.5t12.5 14t14.5 14l10 8h45q-29 -26 -34 -34q25 -6 25 -33v-6q-2 -17 -16 -30t-34 -13q-21 0 -30.5 12t-9.5 26v5z" />
    <glyph glyph-name="dotbelowcomb" unicode="&#x323;" horiz-adv-x="0" 
d="M-115 -44q2 19 17 31.5t33 12.5q17 0 28.5 -11.5t11.5 -27.5v-5q-3 -20 -18 -33q-15 -12 -33 -12t-29 11.5t-11 25.5q0 4 1 8z" />
    <glyph glyph-name="uni0326" unicode="&#x326;" horiz-adv-x="0" 
d="M-98 0h78l-67 -102h-74z" />
    <glyph glyph-name="uni0327" unicode="&#x327;" horiz-adv-x="0" 
d="M-174 -110q17 -13 54 -13t40 22v2q0 18 -40 18q-22 0 -35 -5l4 40q1 0 1 1l34 45h54l-28 -40q31 -4 44.5 -19t13.5 -34v-8q-9 -68 -94 -68q-36 0 -54 9z" />
    <glyph glyph-name="uni0328" unicode="&#x328;" horiz-adv-x="0" 
d="M-147 -78q3 26 23 46.5t41 31.5h53q-1 -1 -9 -6t-14 -10.5t-14.5 -13.5t-13.5 -17t-6 -19v-3q0 -7 4 -12t11 -6t9 -1q12 0 33 8l-7 -55q-22 -5 -40 -5q-24 0 -47 11.5t-23 42.5v8z" />
    <glyph glyph-name="uni0331" unicode="&#x331;" horiz-adv-x="0" 
d="M-195 0h175l-7 -60h-175z" />
    <glyph glyph-name="Gamma" unicode="&#x393;" horiz-adv-x="466" 
d="M476 650l-11 -86h-255l-69 -564h-91l80 650h346z" />
    <glyph glyph-name="uni0394" unicode="&#x394;" horiz-adv-x="657" 
d="M437 650l160 -569l-10 -81h-537l10 81l300 569h77zM158 81h341l-119 429z" />
    <glyph glyph-name="Sigma" unicode="&#x3a3;" horiz-adv-x="591" 
d="M601 650l-11 -86h-322l210 -242l-267 -236h321l-11 -86h-471l8 69l295 253l-231 262l8 66h471z" />
    <glyph glyph-name="Phi" unicode="&#x3a6;" horiz-adv-x="777" 
d="M747 326q-15 -119 -100.5 -185.5t-221.5 -74.5l-8 -70h-76l8 70q-134 8 -204 75t-55 185t101 184t222 75l8 69h76l-8 -69q134 -8 203.5 -74.5t54.5 -184.5zM181 326q-9 -72 35.5 -117t143.5 -52l42 337q-102 -7 -157 -51.5t-64 -116.5zM436 157q102 7 156.5 51.5
t63.5 117.5t-35 117t-143 51z" />
    <glyph glyph-name="Psi" unicode="&#x3a8;" horiz-adv-x="716" 
d="M635 650h91l-24 -197q-16 -134 -95.5 -204t-199.5 -80l-21 -169h-76l21 170q-118 10 -179.5 80t-45.5 204l24 196h91l-24 -196q-12 -96 25 -143t119 -55l49 394h76l-49 -394q85 7 133.5 54t60.5 144z" />
    <glyph glyph-name="uni03A9" unicode="&#x3a9;" horiz-adv-x="786" 
d="M614 90h113l-11 -86h-270l11 87q89 31 139 96.5t60 143.5q12 95 -40 165.5t-162 70.5t-180.5 -71t-81.5 -165q-10 -76 24 -141.5t115 -96.5l-11 -89h-270l11 86h115q-93 95 -76 235q18 146 119.5 239.5t245.5 93.5t221.5 -93.5t59.5 -239.5q-17 -140 -132 -235z" />
    <glyph glyph-name="uni1E04" unicode="&#x1e04;" horiz-adv-x="604" 
d="M50 0l80 650h301q78 0 121 -43.5t43 -105.5q0 -14 -2 -28q-11 -92 -88 -136q41 -21 59.5 -55.5t18.5 -72.5q0 -13 -2 -26q-9 -81 -71 -132t-140 -51h-320zM368 86q48 0 80.5 30t37.5 75q1 8 1 16q0 34 -23.5 61t-70.5 27h-213l-25 -209h213zM190 373h192q46 0 77.5 26
t37.5 70q1 7 1 14q0 33 -23 57t-70 24h-192zM211 -94q2 19 17 31.5t33 12.5q17 0 28.5 -11.5t11.5 -27.5v-5q-3 -20 -18 -33q-15 -12 -33 -12t-29 11.5t-11 25.5q0 4 1 8z" />
    <glyph glyph-name="uni1E05" unicode="&#x1e05;" 
d="M50 0l80 650h90l-32 -261q65 78 167 78q98 0 147.5 -60t49.5 -138q0 -19 -3 -39q-13 -103 -84 -170.5t-168 -67.5q-103 0 -148 79l-9 -71h-90zM195 120q35 -43 100 -43q66 0 112 43t50.5 82.5t4.5 51.5q0 51 -31.5 89.5t-97.5 38.5t-111.5 -42.5t-50 -82t-4.5 -51.5
q0 -51 28 -86zM236 -102q2 19 17 31.5t33 12.5t29 -11.5t11 -27.5v-5q-3 -20 -18 -33q-15 -12 -33 -12t-29 11.5t-11 25.5q0 4 1 8z" />
    <glyph glyph-name="uni1E0C" unicode="&#x1e0c;" horiz-adv-x="653" 
d="M50 0l80 650h227q144 0 214 -81.5t70 -190.5q0 -26 -10.5 -112t-110 -176t-243.5 -90h-227zM155 91h133q89 0 165.5 59.5t90.5 174.5q2 20 2 38q0 37 -12 76t-42.5 66t-67.5 40.5t-78 13.5h-133zM203 -94q2 19 17 31.5t33 12.5q17 0 28.5 -11.5t11.5 -27.5v-5
q-3 -20 -18 -33q-15 -12 -33 -12t-29 11.5t-11 25.5q0 4 1 8z" />
    <glyph glyph-name="uni1E0D" unicode="&#x1e0d;" 
d="M63 230q13 104 83.5 170.5t168.5 66.5q103 0 149 -78l32 261h90l-80 -650h-90l9 71q-64 -79 -168 -79q-97 0 -146.5 61t-49.5 139q0 18 2 38zM178 120q35 -43 101 -43q65 0 111 43t51 83t5 51q0 51 -31.5 89.5t-97.5 38.5t-112 -42.5t-50.5 -82t-4.5 -51.5q0 -51 28 -86z
M219 -102q2 19 17 31.5t33 12.5q17 0 28.5 -11.5t11.5 -27.5v-5q-3 -20 -18 -33q-15 -12 -33 -12t-29 11.5t-11 25.5q0 4 1 8z" />
    <glyph glyph-name="uni1E24" unicode="&#x1e24;" horiz-adv-x="634" 
d="M130 650h94l-35 -280h327l35 280h93l-80 -650h-93l34 279h-327l-34 -279h-94zM249 -91q2 19 17 31.5t33 12.5q17 0 28.5 -11.5t11.5 -27.5v-5q-3 -20 -18 -33q-15 -12 -33 -12t-29 11.5t-11 25.5q0 4 1 8z" />
    <glyph glyph-name="uni1E25" unicode="&#x1e25;" horiz-adv-x="534" 
d="M130 650h90l-30 -246q56 63 149 63q75 0 118.5 -41.5t43.5 -109.5q0 -16 -2 -33l-35 -283h-90l33 270q2 12 2 23q0 42 -28 69.5t-77 27.5q-48 0 -85.5 -30.5t-45.5 -89.5l-33 -270h-90zM205 -94q2 19 17 31.5t33 12.5q17 0 28.5 -11.5t11.5 -27.5v-5q-3 -20 -18 -33
q-15 -12 -33 -12t-29 11.5t-11 25.5q0 4 1 8z" />
    <glyph glyph-name="uni1E36" unicode="&#x1e36;" horiz-adv-x="526" 
d="M50 0l80 650h94l-69 -564h332l-11 -86h-426zM206 -94q2 19 17 31.5t33 12.5t29 -11.5t11 -27.5v-5q-3 -20 -18 -33q-15 -12 -33 -12t-29 11.5t-11 25.5q0 4 1 8z" />
    <glyph glyph-name="uni1E37" unicode="&#x1e37;" horiz-adv-x="211" 
d="M50 0l80 650h91l-81 -650h-90zM39 -94q2 19 17 31.5t33 12.5q17 0 28.5 -11.5t11.5 -27.5v-5q-3 -20 -18 -33q-15 -12 -33 -12t-29 11.5t-11 25.5q0 4 1 8z" />
    <glyph glyph-name="uni1E3E" unicode="&#x1e3e;" horiz-adv-x="749" 
d="M130 650h97l165 -433l270 433h97l-80 -650h-93l57 467l-236 -389h-65l-141 388l-57 -466h-94zM413 710l62 103h80l-66 -103h-76z" />
    <glyph glyph-name="uni1E3F" unicode="&#x1e3f;" horiz-adv-x="817" 
d="M106 460h90l-6 -55q55 62 139 62q107 0 139 -81q58 81 165 81q72 0 112 -39.5t40 -106.5q0 -18 -3 -38l-35 -283h-90l33 271q2 13 2 25q0 41 -25.5 66.5t-68.5 25.5q-44 0 -78.5 -28t-42.5 -89l-33 -271h-90l33 271q2 13 2 25q0 42 -25.5 67t-69.5 25q-43 0 -78 -28.5
t-43 -88.5l-33 -271h-90zM488 637h80l-66 -103h-76z" />
    <glyph glyph-name="uni1E44" unicode="&#x1e44;" horiz-adv-x="630" 
d="M131 650h90l265 -489l60 489h94l-80 -650h-91l-265 491l-60 -491h-93zM358 746q2 19 17 31.5t33 12.5t29 -11.5t11 -27.5v-5q-3 -20 -18 -32q-15 -13 -33 -13t-29 11.5t-11 25.5q0 4 1 8z" />
    <glyph glyph-name="uni1E45" unicode="&#x1e45;" horiz-adv-x="534" 
d="M106 460h90l-6 -56q56 63 149 63q75 0 118.5 -41.5t43.5 -109.5q0 -16 -2 -33l-35 -283h-90l33 270q2 12 2 23q0 42 -28 69.5t-77 27.5q-48 0 -85.5 -30.5t-45.5 -89.5l-33 -270h-90zM281 562q2 19 17 31.5t33 12.5q17 0 28.5 -11.5t11.5 -27.5v-5q-3 -20 -18 -32
q-15 -13 -33 -13t-29 11.5t-11 25.5q0 4 1 8z" />
    <glyph glyph-name="uni1E46" unicode="&#x1e46;" horiz-adv-x="630" 
d="M131 650h90l265 -489l60 489h94l-80 -650h-91l-265 491l-60 -491h-93zM256 -94q2 19 17 31.5t33 12.5t29 -11.5t11 -27.5v-5q-3 -20 -18 -33q-15 -12 -33 -12t-29 11.5t-11 25.5q0 4 1 8z" />
    <glyph glyph-name="uni1E47" unicode="&#x1e47;" horiz-adv-x="534" 
d="M106 460h90l-6 -56q56 63 149 63q75 0 118.5 -41.5t43.5 -109.5q0 -16 -2 -33l-35 -283h-90l33 270q2 12 2 23q0 42 -28 69.5t-77 27.5q-48 0 -85.5 -30.5t-45.5 -89.5l-33 -270h-90zM200 -94q2 19 17 31.5t33 12.5t29 -11.5t11 -27.5v-5q-3 -20 -18 -33q-15 -12 -33 -12
t-29 11.5t-11 25.5q0 4 1 8z" />
    <glyph glyph-name="uni1E62" unicode="&#x1e62;" horiz-adv-x="604" 
d="M47 141l83 52q12 -43 65 -77t126 -34q140 0 151 101v7q0 14 -6.5 27.5t-18 23.5t-32.5 19.5t-35.5 14t-37.5 11t-30 8.5q-4 1 -25.5 7t-32.5 9.5t-34 12.5t-36 17.5t-30 22.5t-26 29.5t-13 33t-4 32.5q0 9 1 18q11 92 86 139t184 47q89 0 153 -39t76 -94l-82 -47
q-10 34 -57 60t-111 26q-63 0 -100 -22.5t-42 -64.5v-7q0 -13 6.5 -26t16.5 -22t31 -18t33.5 -13t37.5 -10.5t32 -8.5q3 -1 24 -7.5t32.5 -10.5t34 -13.5t36.5 -18.5t31.5 -24t26.5 -30.5t13 -33.5t4 -33q0 -9 -1 -18q-12 -96 -85 -147.5t-192 -51.5q-102 0 -168.5 43.5
t-84.5 109.5zM248 -102q2 19 17 31.5t33 12.5t29 -11.5t11 -27.5v-5q-3 -20 -18 -33q-15 -12 -33 -12t-29 11.5t-11 25.5q0 4 1 8z" />
    <glyph glyph-name="uni1E6C" unicode="&#x1e6c;" horiz-adv-x="586" 
d="M110 650h506l-11 -86h-206l-69 -564h-93l69 564h-207zM227 -93q2 19 17 31.5t33 12.5q17 0 28.5 -11.5t11.5 -27.5v-5q-3 -20 -18 -33q-15 -12 -33 -12t-29 11.5t-11 25.5q0 4 1 8z" />
    <glyph glyph-name="uni1E6D" unicode="&#x1e6d;" horiz-adv-x="325" 
d="M68 391l8 69h63l18 141h90l-18 -141h107l-8 -69h-107l-32 -260q-1 -6 -1 -11q0 -48 58 -48h38l-9 -72h-73q-58 0 -82 28t-24 68q0 10 1 22l34 273h-63zM148 -91q2 19 17 31.5t33 12.5t29 -11.5t11 -27.5v-5q-3 -20 -18 -33q-15 -12 -33 -12t-29 11.5t-11 25.5q0 4 1 8z
" />
    <glyph glyph-name="Wgrave" unicode="&#x1e80;" horiz-adv-x="947" 
d="M200 650l99 -479l218 479h69l98 -467l214 467h99l-297 -650h-79l-96 456l-208 -456h-80l-137 650h100zM560 813l36 -103h-76l-40 103h80z" />
    <glyph glyph-name="wgrave" unicode="&#x1e81;" horiz-adv-x="739" 
d="M160 460l67 -333l156 333h66l74 -333l148 333h94l-209 -460h-89l-69 318l-148 -318h-89l-95 460h94zM428 630l36 -103h-76l-40 103h80z" />
    <glyph glyph-name="Wacute" unicode="&#x1e82;" horiz-adv-x="947" 
d="M100 650h100l99 -479l218 479h69l98 -467l214 467h99l-297 -650h-79l-96 456l-208 -456h-80zM579 813h80l-66 -103h-76z" />
    <glyph glyph-name="wacute" unicode="&#x1e83;" horiz-adv-x="739" 
d="M66 460h94l67 -333l156 333h66l74 -333l148 333h94l-209 -460h-89l-69 318l-148 -318h-89zM385 527l62 103h80l-66 -103h-76z" />
    <glyph glyph-name="Wdieresis" unicode="&#x1e84;" horiz-adv-x="947" 
d="M200 650l99 -479l218 479h69l98 -467l214 467h99l-297 -650h-79l-96 456l-208 -456h-80l-137 650h100zM608 746q2 19 17 31.5t33 12.5t29 -11.5t11 -27.5v-5q-3 -20 -18 -32q-15 -13 -33 -13t-29 11.5t-11 25.5q0 4 1 8zM425 746q2 19 17 31.5t33 12.5q17 0 28.5 -11.5
t11.5 -27.5v-5q-3 -20 -18 -32q-15 -13 -33 -13t-29 11.5t-11 25.5q0 4 1 8z" />
    <glyph glyph-name="wdieresis" unicode="&#x1e85;" horiz-adv-x="739" 
d="M66 460h94l67 -333l156 333h66l74 -333l148 333h94l-209 -460h-89l-69 318l-148 -318h-89zM476 562q2 19 17 31.5t33 12.5t29 -11.5t11 -27.5v-5q-3 -20 -18 -32q-15 -13 -33 -13t-29 11.5t-11 25.5q0 4 1 8zM293 562q2 19 17 31.5t33 12.5q17 0 28.5 -11.5t11.5 -27.5
v-5q-3 -20 -18 -32q-15 -13 -33 -13t-29 11.5t-11 25.5q0 4 1 8z" />
    <glyph glyph-name="uni1E92" unicode="&#x1e92;" horiz-adv-x="540" 
d="M40 0l10 80l394 484h-328l11 86h443l-10 -80l-396 -483l331 -1l-11 -86h-444zM209 -94q2 19 17 31.5t33 12.5q17 0 28.5 -11.5t11.5 -27.5v-5q-3 -20 -18 -33q-15 -12 -33 -12t-29 11.5t-11 25.5q0 4 1 8z" />
    <glyph glyph-name="uni1E93" unicode="&#x1e93;" horiz-adv-x="428" 
d="M30 0l8 69l273 316h-230l9 75h344l-8 -69l-273 -316h230l-9 -75h-344zM149 -94q2 19 17 31.5t33 12.5q17 0 28.5 -11.5t11.5 -27.5v-5q-3 -20 -18 -33q-15 -12 -33 -12t-29 11.5t-11 25.5q0 4 1 8z" />
    <glyph glyph-name="uni1EA0" unicode="&#x1ea0;" horiz-adv-x="654" 
d="M366 650h72l186 -650h-100l-39 143h-290l-75 -143h-100zM460 229l-76 276l-144 -276h220zM269 -94q2 19 17 31.5t33 12.5q17 0 28.5 -11.5t11.5 -27.5v-5q-3 -20 -18 -33q-15 -12 -33 -12t-29 11.5t-11 25.5q0 4 1 8z" />
    <glyph glyph-name="uni1EA1" unicode="&#x1ea1;" 
d="M63 230q13 104 83.5 170.5t168.5 66.5q103 0 149 -78l8 71h90l-56 -460h-90l9 71q-64 -79 -168 -79q-97 0 -146.5 61t-49.5 139q0 18 2 38zM178 120q35 -43 101 -43q65 0 111 43t51 83t5 51q0 51 -31.5 89.5t-97.5 38.5t-112 -42.5t-50.5 -82t-4.5 -51.5q0 -51 28 -86z
M237 -97q2 19 17 31.5t33 12.5q17 0 28.5 -11.5t11.5 -27.5v-5q-3 -20 -18 -33q-15 -12 -33 -12t-29 11.5t-11 25.5q0 4 1 8z" />
    <glyph glyph-name="uni1EB8" unicode="&#x1eb8;" horiz-adv-x="543" 
d="M130 650h428l-11 -86h-334l-24 -196h313l-10 -86h-313l-24 -196h334l-11 -86h-428zM214 -92q2 19 17 31.5t33 12.5t29 -11.5t11 -27.5v-5q-3 -20 -18 -33q-15 -12 -33 -12t-29 11.5t-11 25.5q0 4 1 8z" />
    <glyph glyph-name="uni1EB9" unicode="&#x1eb9;" horiz-adv-x="539" 
d="M63 230q13 104 84 171t173 67q99 0 147 -60.5t48 -137.5q0 -20 -3 -40l-3 -26h-362v-3q0 -60 35 -96t95 -36q88 0 138 62l58 -45q-79 -95 -205 -95q-104 0 -155.5 61t-51.5 141q0 18 2 37zM154 263h278q-1 60 -32.5 96.5t-87.5 36.5q-58 0 -100 -36t-58 -97zM209 -99
q2 19 17 31.5t33 12.5q17 0 28.5 -11.5t11.5 -27.5v-5q-3 -20 -18 -33q-15 -12 -33 -12t-29 11.5t-11 25.5q0 4 1 8z" />
    <glyph glyph-name="uni1EBC" unicode="&#x1ebc;" horiz-adv-x="543" 
d="M50 0l80 650h428l-11 -86h-334l-24 -196h313l-10 -86h-313l-24 -196h334l-11 -86h-428zM242 780q27 29 68 29t67 -34q21 -25 42 -25q35 0 43 47h55q-6 -45 -33.5 -73.5t-71.5 -28.5q-41 0 -67 35q-21 24 -40 24q-34 0 -41 -47h-55q6 44 33 73z" />
    <glyph glyph-name="uni1EBD" unicode="&#x1ebd;" horiz-adv-x="539" 
d="M63 230q13 104 84 171t173 67q99 0 147 -60.5t48 -137.5q0 -20 -3 -40l-3 -26h-362v-3q0 -60 35 -96t95 -36q88 0 138 62l58 -45q-79 -95 -205 -95q-104 0 -155.5 61t-51.5 141q0 18 2 37zM432 263q-1 60 -32.5 96.5t-87.5 36.5q-58 0 -100 -36t-58 -97h278zM179 523
q6 44 33 73t68 29t67 -34q21 -25 42 -25q35 0 43 47h55q-6 -45 -33.5 -73.5t-71.5 -28.5q-41 0 -67 35q-21 24 -40 24q-34 0 -41 -47h-55z" />
    <glyph glyph-name="uni1ECA" unicode="&#x1eca;" horiz-adv-x="214" 
d="M50 0l80 650h94l-80 -650h-94zM41 -94q2 19 17 31.5t33 12.5q17 0 28.5 -11.5t11.5 -27.5v-5q-3 -20 -18 -33q-15 -12 -33 -12t-29 11.5t-11 25.5q0 4 1 8z" />
    <glyph glyph-name="uni1ECB" unicode="&#x1ecb;" horiz-adv-x="225" 
d="M114 460h90l-56 -460h-90zM124 601q3 23 20.5 37t38.5 14t34 -13t13 -30q0 -4 -2 -17.5t-19 -28.5q-18 -15 -39 -15t-34 13.5t-13 31.5q0 4 1 8zM46 -102q2 19 17 31.5t33 12.5t29 -11.5t11 -27.5v-5q-3 -20 -18 -33q-15 -12 -33 -12t-29 11.5t-11 25.5q0 4 1 8z" />
    <glyph glyph-name="uni1ECC" unicode="&#x1ecc;" horiz-adv-x="746" 
d="M80 325q18 145 121 239t247 94t215 -85t71 -195q0 -26 -10.5 -112.5t-111.5 -179.5q-102 -94 -246 -94t-216.5 85.5t-72.5 195.5q0 25 3 52zM218 154q56 -68 160 -68q103 0 175 67t79.5 129.5t7.5 80.5q0 80 -50.5 141t-153.5 61q-104 0 -176.5 -67.5t-85.5 -172.5
q-2 -19 -2 -37q0 -79 46 -134zM310 -101q2 19 17 31.5t33 12.5t29 -11.5t11 -27.5v-5q-3 -20 -18 -33q-15 -12 -33 -12t-29 11.5t-11 25.5q0 4 1 8z" />
    <glyph glyph-name="uni1ECD" unicode="&#x1ecd;" horiz-adv-x="560" 
d="M63 230q13 104 87.5 171.5t178.5 67.5q103 0 154.5 -61t51.5 -140q0 -19 -2 -38q-13 -104 -86.5 -171.5t-176.5 -67.5q-104 0 -156.5 62t-52.5 140q0 18 2 37zM180 121q35 -44 100 -44t110.5 43.5t53.5 109.5q2 13 2 24q0 51 -31.5 89.5t-96.5 38.5t-111 -42.5
t-54 -109.5q-1 -12 -1 -24q0 -50 28 -85zM214 -102q2 19 17 31.5t33 12.5t29 -11.5t11 -27.5v-5q-3 -20 -18 -33q-15 -12 -33 -12t-29 11.5t-11 25.5q0 4 1 8z" />
    <glyph glyph-name="uni1EE4" unicode="&#x1ee4;" horiz-adv-x="614" 
d="M78 227l52 423h94l-51 -413q-2 -14 -2 -28q0 -54 33.5 -90t102.5 -36q70 0 117 40t56 114l51 413h93l-52 -423q-12 -102 -86.5 -168.5t-189.5 -66.5q-114 0 -167 61t-53 140q0 17 2 34zM241 -96q2 19 17 31.5t33 12.5q17 0 28.5 -11.5t11.5 -27.5v-5q-3 -20 -18 -33
q-15 -12 -33 -12t-29 11.5t-11 25.5q0 4 1 8z" />
    <glyph glyph-name="uni1EE5" unicode="&#x1ee5;" horiz-adv-x="534" 
d="M72 177l34 283h90l-33 -270q-1 -11 -1 -21q0 -44 28.5 -71.5t76.5 -27.5t85.5 30.5t44.5 89.5l33 270h90l-56 -460h-90l7 55q-57 -63 -150 -63q-75 0 -118 41.5t-43 108.5q0 16 2 35zM201 -99q2 19 17 31.5t33 12.5q17 0 28.5 -11.5t11.5 -27.5v-5q-3 -20 -18 -33
q-15 -12 -33 -12t-29 11.5t-11 25.5q0 4 1 8z" />
    <glyph glyph-name="Ygrave" unicode="&#x1ef2;" horiz-adv-x="600" 
d="M93 650h108l137 -271l204 271h108l-276 -367l-35 -283h-94l35 281zM303 813h80l36 -103h-76z" />
    <glyph glyph-name="ygrave" unicode="&#x1ef3;" horiz-adv-x="487" 
d="M154 460l91 -335l174 335h94l-335 -644h-89l96 184l-125 460h94zM299 630l36 -103h-76l-40 103h80z" />
    <glyph glyph-name="uni1EF4" unicode="&#x1ef4;" horiz-adv-x="600" 
d="M93 650h108l137 -271l204 271h108l-276 -367l-35 -283h-94l35 281zM236 -94q2 19 17 31.5t33 12.5t29 -11.5t11 -27.5v-5q-3 -20 -18 -33q-15 -12 -33 -12t-29 11.5t-11 25.5q0 4 1 8z" />
    <glyph glyph-name="uni1EF5" unicode="&#x1ef5;" horiz-adv-x="487" 
d="M154 460l91 -335l174 335h94l-335 -644h-89l96 184l-125 460h94zM266 -131q2 19 17 31.5t33 12.5t29 -11.5t11 -27.5v-5q-3 -20 -18 -33q-15 -12 -33 -12t-29 11.5t-11 25.5q0 4 1 8z" />
    <glyph glyph-name="uni1EF8" unicode="&#x1ef8;" horiz-adv-x="600" 
d="M201 650l137 -271l204 271h108l-276 -367l-35 -283h-94l35 281l-187 369h108zM231 707q6 44 33 73t68 29t67 -34q21 -25 42 -25q35 0 43 47h55q-6 -45 -33.5 -73.5t-71.5 -28.5q-41 0 -67 35q-21 24 -40 24q-34 0 -41 -47h-55z" />
    <glyph glyph-name="uni1EF9" unicode="&#x1ef9;" horiz-adv-x="503" 
d="M60 460h94l91 -335l174 335h94l-335 -644h-89l96 184zM162 523q6 44 33 73t68 29t67 -34q21 -25 42 -25q35 0 43 47h55q-6 -45 -33.5 -73.5t-71.5 -28.5q-41 0 -67 35q-21 24 -40 24q-34 0 -41 -47h-55z" />
    <glyph glyph-name="endash" unicode="&#x2013;" horiz-adv-x="493" 
d="M91 332h373l-11 -86h-373z" />
    <glyph glyph-name="emdash" unicode="&#x2014;" horiz-adv-x="616" 
d="M91 332h496l-11 -86h-496z" />
    <glyph glyph-name="quoteleft" unicode="&#x2018;" horiz-adv-x="184" 
d="M186 504h-94l75 146h67z" />
    <glyph glyph-name="quoteright" unicode="&#x2019;" horiz-adv-x="184" 
d="M141 650h93l-74 -146h-68z" />
    <glyph glyph-name="quotesinglbase" unicode="&#x201a;" horiz-adv-x="184" 
d="M69 67h93l-73 -144h-68z" />
    <glyph glyph-name="quotedblleft" unicode="&#x201c;" horiz-adv-x="356" 
d="M186 504h-94l75 146h67zM358 504h-94l75 146h67z" />
    <glyph glyph-name="quotedblright" unicode="&#x201d;" horiz-adv-x="356" 
d="M141 650h93l-74 -146h-68zM313 650h93l-74 -146h-68z" />
    <glyph glyph-name="quotedblbase" unicode="&#x201e;" horiz-adv-x="356" 
d="M69 67h93l-74 -147h-68zM241 67h93l-74 -147h-68z" />
    <glyph glyph-name="dagger" unicode="&#x2020;" horiz-adv-x="428" 
d="M415 467l-8 -71h-110l-49 -396h-86l49 396h-112l8 71h112l23 183h86l-23 -183h110z" />
    <glyph glyph-name="daggerdbl" unicode="&#x2021;" horiz-adv-x="428" 
d="M408 404h-110l-19 -150h110l-9 -71h-110l-22 -183h-86l22 183h-112l9 71h112l19 150h-112l8 71h112l22 175h86l-22 -175h110z" />
    <glyph glyph-name="bullet" unicode="&#x2022;" horiz-adv-x="225" 
d="M143 243q-36 0 -57 23.5t-16 58.5q4 36 30.5 59t62.5 23q35 0 55.5 -23t16.5 -59q-5 -35 -31 -58.5t-61 -23.5z" />
    <glyph glyph-name="ellipsis" unicode="&#x2026;" horiz-adv-x="551" 
d="M81 -4q-22 0 -35 14.5t-10 36.5q2 22 18.5 36.5t38.5 14.5t34.5 -14t10.5 -37q-3 -22 -19 -36.5t-38 -14.5zM277 -4q-22 0 -35 14.5t-10 36.5q2 22 18.5 36.5t38.5 14.5t34.5 -14t10.5 -37q-3 -22 -19 -36.5t-38 -14.5zM470 -4q-22 0 -35 14.5t-10 36.5q2 22 18.5 36.5
t38.5 14.5t34.5 -14t10.5 -37q-3 -22 -19 -36.5t-38 -14.5z" />
    <glyph glyph-name="perthousand" unicode="&#x2030;" horiz-adv-x="1212" 
d="M243 349q-65 0 -102 43t-29 109q8 68 55.5 110.5t112.5 42.5q64 0 101 -42.5t29 -110.5q-8 -66 -55.5 -109t-111.5 -43zM269 0h-73l431 650h73zM250 411q38 0 65.5 25.5t32.5 64.5q5 40 -16 65.5t-59 25.5q-39 0 -66.5 -25.5t-32.5 -65.5q-5 -39 16 -64.5t60 -25.5z
M617 -5q-65 0 -102 43.5t-29 109.5q8 67 56 110t113 43q64 0 100.5 -43t28.5 -110q-8 -66 -55.5 -109.5t-111.5 -43.5zM992 -5q-64 0 -101 43.5t-29 109.5q8 67 55.5 110t112.5 43q64 0 101 -43t29 -110q-8 -66 -56 -109.5t-112 -43.5zM625 58q38 0 65 25.5t32 64.5
q5 40 -16 65.5t-59 25.5q-39 0 -66.5 -25.5t-32.5 -65.5q-5 -39 16.5 -64.5t60.5 -25.5zM1000 58q39 0 66 25.5t32 64.5q5 40 -16 65.5t-60 25.5q-38 0 -65.5 -25.5t-32.5 -65.5q-5 -39 16.5 -64.5t59.5 -25.5z" />
    <glyph glyph-name="guilsinglleft" unicode="&#x2039;" horiz-adv-x="362" 
d="M329 135h-110l-150 186l195 186h110l-194 -186z" />
    <glyph glyph-name="guilsinglright" unicode="&#x203a;" horiz-adv-x="362" 
d="M47 135l193 186l-148 186h110l149 -186l-194 -186h-110z" />
    <glyph glyph-name="fraction" unicode="&#x2044;" horiz-adv-x="488" 
d="M67 0h-47l481 650h47z" />
    <glyph glyph-name="uni2070" unicode="&#x2070;" horiz-adv-x="419" 
d="M236 253q-75 0 -112.5 56.5t-26.5 145.5q11 90 62 146.5t126 56.5t113 -56.5t27 -146.5q-11 -89 -63 -145.5t-126 -56.5zM242 308q48 0 82 39.5t43 107.5q8 67 -16.5 106.5t-72.5 39.5t-82 -39.5t-42 -106.5q-9 -67 15.5 -107t72.5 -40z" />
    <glyph glyph-name="uni2074" unicode="&#x2074;" horiz-adv-x="376" 
d="M383 379l-5 -42h-47l-9 -79h-56l9 79h-203l5 38l237 275h56l-33 -271h46zM134 379h147l24 198z" />
    <glyph glyph-name="uni2075" unicode="&#x2075;" horiz-adv-x="363" 
d="M221 514q73 0 107 -35.5t27 -91.5q-7 -60 -51.5 -95t-109.5 -35q-86 0 -125 57l43 39q31 -43 85 -41q41 0 69.5 21t32.5 57q4 35 -20 56t-64 21q-48 0 -79 -16l-13 40l48 163h200l-6 -52h-156l-26 -92q17 4 38 4z" />
    <glyph glyph-name="uni2076" unicode="&#x2076;" horiz-adv-x="371" 
d="M244 533q59 0 93.5 -40t27.5 -100q-8 -60 -52 -100.5t-103 -40.5t-94 40.5t-27 100.5q5 43 41 88l131 169h62l-92 -117h13zM217 306q36 0 63 24.5t32 62.5q4 38 -17 62.5t-57 24.5q-37 0 -64 -24.5t-31 -62.5q-5 -38 16 -62.5t58 -24.5z" />
    <glyph glyph-name="uni2077" unicode="&#x2077;" horiz-adv-x="308" 
d="M79 258l198 340h-178l6 51h243l-4 -39l-206 -352h-59z" />
    <glyph glyph-name="uni2078" unicode="&#x2078;" horiz-adv-x="374" 
d="M313 461q59 -30 51 -94q-6 -52 -46 -84t-107 -32t-99 32t-27 84q4 29 23.5 54t51.5 40q-53 30 -45 89q5 43 43 74.5t103 31.5t95 -31.5t25 -74.5q-9 -61 -68 -89zM255 613q-39 0 -62 -19.5t-26 -46.5q-3 -29 15 -47.5t58 -18.5t62 18.5t25 47.5q3 27 -14.5 46.5
t-57.5 19.5zM217 299q41 0 65.5 19.5t27.5 51.5q4 30 -15.5 50.5t-60.5 20.5q-40 0 -65 -20.5t-28 -50.5q-4 -31 15.5 -51t60.5 -20z" />
    <glyph glyph-name="uni2079" unicode="&#x2079;" horiz-adv-x="371" 
d="M379 514q-4 -43 -35 -82l-135 -175h-61l90 118q-4 -1 -14 -1q-59 0 -93.5 40t-26.5 100t52 100.5t103 40.5t93 -40.5t27 -100.5zM157 514q-4 -38 17 -62.5t57 -24.5q37 0 64 24.5t31 62.5q5 39 -16 63t-58 24q-36 0 -63 -24t-32 -63z" />
    <glyph glyph-name="Euro" unicode="&#x20ac;" horiz-adv-x="584" 
d="M535 572q-73 0 -133 -34.5t-94 -102.5h206l-6 -51h-219q-10 -35 -12 -59q-3 -22 -3 -61h219l-6 -51h-205q17 -66 69 -100.5t124 -34.5q29 0 49 2l-11 -87q-10 -1 -64 -1q-109 0 -177.5 59.5t-84.5 161.5h-111l6 51h100q0 33 4 61q3 28 11 59h-100l6 51h110
q41 102 125 162.5t193 60.5h64l-11 -86h-49z" />
    <glyph glyph-name="trademark" unicode="&#x2122;" horiz-adv-x="1335" 
d="M716 650h97l165 -433l270 433h97l-80 -650h-93l57 467l-236 -389h-65l-141 388l-57 -466h-94zM110 650h506l-11 -86h-206l-69 -564h-93l69 564h-207z" />
    <glyph glyph-name="oneeighth" unicode="&#x215b;" horiz-adv-x="534" 
d="M62 0h-47l481 650h47zM214 650l-40 -328h-48l35 285h-74l6 43h121zM489 166q49 -23 42 -77q-6 -42 -38 -68.5t-88 -26.5q-55 0 -81.5 26.5t-21.5 68.5q7 54 61 77q-44 25 -37 74q4 35 35.5 60.5t84.5 25.5t77.5 -25.5t20.5 -60.5q-7 -50 -55 -74zM441 291
q-32 0 -51 -15.5t-21 -37.5q-3 -24 12 -39.5t48 -15.5t51 15.5t21 39.5q3 22 -12 37.5t-48 15.5zM410 33q34 0 54 16.5t23 42.5q3 25 -13 41.5t-50 16.5q-33 0 -53.5 -16.5t-23.5 -41.5q-3 -26 13 -42.5t50 -16.5z" />
    <glyph glyph-name="threeeighths" unicode="&#x215c;" horiz-adv-x="612" 
d="M213 533q41 -5 66.5 -30t19.5 -71q-6 -53 -45.5 -81.5t-89.5 -28.5q-34 0 -62.5 13.5t-41.5 35.5l35 30q23 -34 75 -34q32 0 55 18t27 47q4 30 -15 47.5t-51 17.5q-29 0 -59 -10l5 35l115 85h-135l6 43h201l-5 -40zM132 0h-47l481 650h47zM566 166q49 -23 42 -77
q-6 -42 -38 -68.5t-88 -26.5q-55 0 -81.5 26.5t-21.5 68.5q7 54 61 77q-44 25 -37 74q4 35 35.5 60.5t84.5 25.5t77.5 -25.5t20.5 -60.5q-7 -50 -55 -74zM518 291q-32 0 -51 -15.5t-21 -37.5q-3 -24 12 -39.5t48 -15.5t51 15.5t21 39.5q3 22 -12 37.5t-48 15.5zM487 33
q34 0 54 16.5t23 42.5q3 25 -13 41.5t-50 16.5q-33 0 -53.5 -16.5t-23.5 -41.5q-3 -26 13 -42.5t50 -16.5z" />
    <glyph glyph-name="fiveeighths" unicode="&#x215d;" horiz-adv-x="619" 
d="M189 538q61 0 89.5 -30t22.5 -77q-6 -51 -43.5 -80t-91.5 -29q-71 0 -105 48l36 33q24 -35 72 -35q34 0 57.5 17.5t27.5 47.5t-16.5 47.5t-54.5 17.5q-40 0 -66 -13l-11 34l40 136h169l-5 -43h-132l-21 -77q17 3 32 3zM137 0h-47l481 650h47zM573 166q49 -23 42 -77
q-6 -42 -38 -68.5t-88 -26.5q-55 0 -81.5 26.5t-21.5 68.5q7 54 61 77q-44 25 -37 74q4 35 35.5 60.5t84.5 25.5t77.5 -25.5t20.5 -60.5q-7 -50 -55 -74zM525 291q-32 0 -51 -15.5t-21 -37.5q-3 -24 12 -39.5t48 -15.5t51 15.5t21 39.5q3 22 -12 37.5t-48 15.5zM494 33
q34 0 54 16.5t23 42.5q3 25 -13 41.5t-50 16.5q-33 0 -53.5 -16.5t-23.5 -41.5q-3 -26 13 -42.5t50 -16.5z" />
    <glyph glyph-name="seveneighths" unicode="&#x215e;" horiz-adv-x="550" 
d="M62 0h-47l481 650h47zM101 323l165 284h-149l6 43h203l-4 -32l-172 -295h-49zM505 166q49 -23 42 -77q-6 -42 -38 -68.5t-88 -26.5q-55 0 -81.5 26.5t-21.5 68.5q7 54 61 77q-44 25 -37 74q4 35 35.5 60.5t84.5 25.5t77.5 -25.5t20.5 -60.5q-7 -50 -55 -74zM457 291
q-32 0 -51 -15.5t-21 -37.5q-3 -24 12 -39.5t48 -15.5t51 15.5t21 39.5q3 22 -12 37.5t-48 15.5zM426 33q34 0 54 16.5t23 42.5q3 25 -13 41.5t-50 16.5q-33 0 -53.5 -16.5t-23.5 -41.5q-3 -26 13 -42.5t50 -16.5z" />
    <glyph glyph-name="arrowleft" unicode="&#x2190;" horiz-adv-x="756" 
d="M731 364l-11 -85h-482l143 -163l-62 -55l-229 261l294 261l48 -55l-184 -164h483z" />
    <glyph glyph-name="arrowup" unicode="&#x2191;" horiz-adv-x="643" 
d="M620 380l-62 -55l-144 163l-59 -482h-86l59 480l-183 -162l-48 56l294 261z" />
    <glyph glyph-name="arrowright" unicode="&#x2192;" horiz-adv-x="756" 
d="M496 583l230 -261l-295 -261l-48 55l183 163h-482l11 85h483l-144 164z" />
    <glyph glyph-name="arrowdown" unicode="&#x2193;" horiz-adv-x="643" 
d="M558 322l48 -55l-293 -261l-230 261l62 56l143 -162l59 480h86l-59 -482z" />
    <glyph glyph-name="arrowboth" unicode="&#x2194;" horiz-adv-x="947" 
d="M703 583l229 -261l-294 -261l-49 55l183 163h-538l142 -163l-62 -55l-229 261l294 261l48 -55l-184 -164h541l-144 164z" />
    <glyph glyph-name="arrowupdn" unicode="&#x2195;" horiz-adv-x="621" 
d="M576 206l-282 -252l-218 249l62 55l131 -149l53 430l-168 -151l-49 56l279 249l222 -249l-62 -56l-136 152l-53 -432l173 153z" />
    <glyph glyph-name="uni2196" unicode="&#x2196;" horiz-adv-x="604" 
d="M562 227l-69 -61l-301 344l-29 -230h-79l46 370h370l-10 -78h-231z" />
    <glyph glyph-name="uni2197" unicode="&#x2197;" horiz-adv-x="604" 
d="M244 650h370l-46 -370h-79l29 230l-387 -344l-53 61l387 345h-231z" />
    <glyph glyph-name="uni2198" unicode="&#x2198;" horiz-adv-x="604" 
d="M500 370h79l-45 -370h-370l10 79h230l-302 344l68 61l302 -344z" />
    <glyph glyph-name="uni2199" unicode="&#x2199;" horiz-adv-x="604" 
d="M586 423l-386 -344h230l-10 -79h-370l45 370h79l-28 -230l386 344z" />
    <glyph glyph-name="partialdiff" unicode="&#x2202;" horiz-adv-x="568" 
d="M524 280q5 -30 0 -65q-12 -100 -84 -164t-168 -64q-97 0 -152.5 64t-43.5 164q13 100 84 163.5t168 63.5q27 0 47 -4q-70 136 -156 212h102q72 -62 134.5 -174t68.5 -196zM283 73q59 0 103.5 39.5t51.5 102.5q8 63 -26.5 102t-93.5 39q-60 0 -104 -39t-52 -102
q-7 -63 27 -102.5t94 -39.5z" />
    <glyph glyph-name="emptyset" unicode="&#x2205;" horiz-adv-x="580" 
d="M486 512q78 -66 63 -191q-12 -103 -84 -170t-174 -67q-60 0 -105 24l-31 -43h-49l48 65q-80 67 -65 191q13 104 85.5 170.5t175.5 66.5q60 0 104 -24l31 43h49zM161 321q-9 -82 39 -129l208 281q-31 14 -67 14q-71 0 -121 -46.5t-59 -119.5zM300 155q71 0 120.5 47
t57.5 119q11 83 -38 129l-207 -280q29 -15 67 -15z" />
    <glyph glyph-name="product" unicode="&#x220f;" horiz-adv-x="640" 
d="M650 650l-11 -86h-106l-69 -564h-86l69 564h-135l-69 -564h-86l69 564h-107l11 86h520z" />
    <glyph glyph-name="summation" unicode="&#x2211;" horiz-adv-x="556" 
d="M567 658l-11 -86h-311l181 -250l-238 -244h308l-11 -86h-436l9 76l251 254l-188 260l10 76h436z" />
    <glyph glyph-name="minus" unicode="&#x2212;" horiz-adv-x="510" 
d="M93 353h390l-8 -71h-390z" />
    <glyph glyph-name="radical" unicode="&#x221a;" horiz-adv-x="741" 
d="M756 692l-9 -71h-159l-326 -669h-88l-87 350h87l58 -235l305 625h219z" />
    <glyph glyph-name="infinity" unicode="&#x221e;" horiz-adv-x="838" 
d="M224 174q-64 0 -103 44t-31 105q7 61 57 105t114 44q56 0 93.5 -20.5t103.5 -85.5q78 65 124 85.5t91 20.5q65 0 103.5 -44t31.5 -105q-8 -62 -57 -105.5t-115 -43.5q-55 0 -90 21.5t-99 88.5q-77 -66 -121 -88t-102 -22zM232 237q69 0 168 87q-54 54 -83 69t-64 15
t-66 -23t-36 -62t20.5 -62.5t60.5 -23.5zM644 237q37 0 67.5 23t35.5 63t-20 62.5t-62 22.5q-35 0 -65.5 -14.5t-93.5 -68.5q46 -50 74 -69t64 -19z" />
    <glyph glyph-name="integral" unicode="&#x222b;" horiz-adv-x="536" 
d="M470 692h81l-9 -70h-55q-76 0 -95 -84l-104 -447q-15 -68 -60 -103.5t-103 -35.5h-81l9 70h55q76 0 95 84l102 441q17 72 63 108.5t102 36.5z" />
    <glyph glyph-name="approxequal" unicode="&#x2248;" horiz-adv-x="592" 
d="M511 486h71q-9 -68 -51.5 -111t-109.5 -43q-26 0 -49 9.5t-32.5 18.5t-25.5 25q-1 2 -7 8l-7.5 7.5l-6.5 6.5t-7 6t-7 4.5t-8 4.5t-7.5 3t-9.5 2.5t-10 0.5q-33 0 -54.5 -23.5t-25.5 -57.5h-71q8 68 50 111.5t108 43.5q53 0 96 -45q1 -2 5 -5l4 -5l23.5 -23.5t21 -14
t28.5 -6.5q30 0 53 20t29 63zM487 297h71q-8 -68 -50.5 -111.5t-110.5 -43.5q-26 0 -48.5 10t-32 18t-25.5 25q-2 2 -6.5 7t-6.5 7t-6.5 6t-6.5 6t-6 5t-7 4.5l-7 3.5t-7.5 3t-8 1.5t-9.5 0.5q-33 0 -54 -23.5t-26 -57.5h-71q9 68 50.5 111t107.5 43q10 0 20 -1.5t17 -3.5
t16 -7t13 -7t12 -9t10 -9l10 -10l8 -8q20 -22 36 -32.5t37 -10.5q30 0 53 20t28 63z" />
    <glyph glyph-name="notequal" unicode="&#x2260;" horiz-adv-x="510" 
d="M487 386h-135l-67 -129h187l-9 -71h-215l-51 -96h-68l51 96h-107l9 71h135l67 129h-187l9 71h215l51 96h68l-51 -96h107z" />
    <glyph glyph-name="lessequal" unicode="&#x2264;" horiz-adv-x="453" 
d="M445 505l-8 -67l-241 -67l224 -67l-8 -67l-318 98l9 72zM67 139l7 60h333l-7 -60h-333z" />
    <glyph glyph-name="greaterequal" unicode="&#x2265;" horiz-adv-x="453" 
d="M421 335l-342 -98l8 67l242 67l-225 67l8 67l318 -98zM74 199h333l-7 -60h-333z" />
    <glyph glyph-name="lozenge" unicode="&#x25ca;" horiz-adv-x="623" 
d="M426 650l167 -328l-243 -322h-97l-163 322l247 328h89zM309 61l197 261l-132 261l-197 -261z" />
    <glyph glyph-name="A.ss01" horiz-adv-x="654" 
d="M624 0h-100l-140 501l-264 -501h-100l346 650h72z" />
    <glyph glyph-name="I.ss01" horiz-adv-x="403" 
d="M422 564h-115l-58 -478h115l-11 -86h-323l11 86h115l58 478h-115l11 86h323z" />
    <glyph glyph-name="J.ss01" horiz-adv-x="590" 
d="M600 650l-52 -419q-13 -109 -90.5 -174t-189.5 -65q-94 0 -150.5 46t-68.5 116l94 35q8 -52 44 -79t92 -27q71 0 119.5 42t57.5 120l39 319h-269l11 86h363z" />
    <glyph glyph-name="R.ss01" horiz-adv-x="604" 
d="M419 197q27 -56 58 -84t87 -28l-10 -87q-92 0 -143.5 38t-95.5 136l-32 71h-109l-30 -243h-94l80 650h306q78 0 126 -55.5t37 -147.5q-11 -88 -68.5 -143.5t-132.5 -60.5zM213 559l-28 -225h196q47 0 83 32t42 81q6 48 -22 80t-75 32h-196z" />
    <glyph glyph-name="i.loclTRK" horiz-adv-x="221" 
d="M55 0l56 460h91l-57 -460h-90zM125 562q2 19 17 31.5t33 12.5q17 0 28.5 -11.5t11.5 -27.5v-5q-3 -20 -18 -32q-15 -13 -33 -13t-29 11.5t-11 25.5q0 4 1 8z" />
    <glyph glyph-name="a.ss01" horiz-adv-x="527" 
d="M51 129q3 26 13.5 46.5t26 34.5t36.5 25t45 17t51.5 10t56.5 5t52 1.5t38 1.5q15 -1 30 -1l2 20q1 9 1 17q0 40 -27.5 65t-79.5 25q-96 0 -133 -67l-68 30q24 47 77.5 78.5t132.5 31.5q101 0 145.5 -42t44.5 -107q0 -13 -2 -28l-36 -292h-90l7 54q-58 -62 -156 -62
q-95 0 -131.5 34.5t-36.5 82.5q0 10 1 20zM161 78q25 -20 76 -20q70 0 107.5 34t44.5 87l5 38q-133 0 -190.5 -15t-64.5 -68q-1 -5 -1 -10q0 -30 23 -46z" />
    <glyph glyph-name="n.ss01" horiz-adv-x="534" 
d="M106 460h227q81 0 124.5 -41t43.5 -104q0 -14 -2 -30l-35 -285h-90l33 265q2 13 2 24q0 98 -114 98h-107l-48 -387h-90z" />
    <glyph glyph-name="r.ss01" horiz-adv-x="317" 
d="M82 258q13 103 78 155.5t174 53.5l-10 -86q-64 -1 -105 -36.5t-49 -103.5l-30 -241h-90z" />
    <glyph glyph-name="u.ss01" horiz-adv-x="534" 
d="M71 175l35 285h90l-32 -265q-2 -13 -2 -24q0 -98 114 -98h107l47 387h90l-56 -460h-227q-81 0 -124.5 41t-43.5 106q0 13 2 28z" />
    </font>
</defs>
</svg>
