<?xml version="1.0" standalone="no"?>
<!DOCTYPE svg PUBLIC "-//W3C//DTD SVG 1.1//EN" "http://www.w3.org/Graphics/SVG/1.1/DTD/svg11.dtd" >
<svg xmlns="http://www.w3.org/2000/svg" xmlns:xlink="http://www.w3.org/1999/xlink" version="1.1">
<metadata>
Created by FontForge 20170731 at Tue Jul 14 08:15:19 2020
 By Aleksey,,,
Copyright (c) 2020 by Bagas Ardiatma. All rights reserved.
</metadata>
<defs>
<font id="Causten-Light" horiz-adv-x="583" >
  <font-face 
    font-family="Causten-Light"
    font-weight="400"
    font-stretch="normal"
    units-per-em="1000"
    panose-1="0 0 4 0 0 0 0 0 0 0"
    ascent="776"
    descent="-224"
    x-height="460"
    cap-height="650"
    bbox="-286 -200 1247 846"
    underline-thickness="50"
    underline-position="-150"
    unicode-range="U+0020-25CA"
  />
<missing-glyph horiz-adv-x="475" 
d="M88 -200v950h302v-950h-302zM316 -5v107h-157v-107h157zM159 -27v-31h66l-66 -45v-31h157v31h-97l67 45h30v31h-157zM316 159v107h-95v-53h33v22h31v-45h-95v76h-31v-107h157zM159 564v-99h157v32h-62v67h-95zM316 589v31h-62v35h62v31h-156v-31h61v-35h-62v-31h157z
M159 373v-31h95v66h62v31h-157v-31h62v-35h-62zM159 320v-33h157v95h-31v-62h-126zM190 71h95v-45h-95v45zM190 532h31v-35h-31v35z" />
    <glyph glyph-name="f_f" unicode="ff" horiz-adv-x="628" 
d="M522 604q-34 0 -55.5 -19t-21.5 -56v-69h129v-44h-129v-416h-55v416h-244v-416h-55v416h-66v44h66v71q0 56 31.5 87.5t87.5 31.5h72v-46h-59q-34 0 -55.5 -19t-21.5 -56v-69h244v71q0 56 31 87.5t85 31.5h79v-46h-63z" />
    <glyph glyph-name="t_t.liga" unicode="tt" horiz-adv-x="597" 
d="M552 416h-114v-307q0 -63 65 -63h44v-46h-62q-48 0 -75 27t-27 75v314h-237v-307q0 -63 65 -63h45v-46h-62q-48 0 -75.5 27t-27.5 75v314h-66v44h66v140h55v-140h237v140h55v-140h114v-44z" />
    <glyph glyph-name=".notdef" horiz-adv-x="475" 
d="M88 -200v950h302v-950h-302zM316 -5v107h-157v-107h157zM159 -27v-31h66l-66 -45v-31h157v31h-97l67 45h30v31h-157zM316 159v107h-95v-53h33v22h31v-45h-95v76h-31v-107h157zM159 564v-99h157v32h-62v67h-95zM316 589v31h-62v35h62v31h-156v-31h61v-35h-62v-31h157z
M159 373v-31h95v66h62v31h-157v-31h62v-35h-62zM159 320v-33h157v95h-31v-62h-126zM190 71h95v-45h-95v45zM190 532h31v-35h-31v35z" />
    <glyph glyph-name=".null" horiz-adv-x="0" 
 />
    <glyph glyph-name="uni000D" horiz-adv-x="333" 
 />
    <glyph glyph-name="space" unicode=" " horiz-adv-x="200" 
 />
    <glyph glyph-name="exclam" unicode="!" horiz-adv-x="181" 
d="M41 650h59l-4 -504h-51zM35 34q0 15 11 25q10 10 25 10t25 -10t10 -25t-10 -25.5t-25 -10.5t-25.5 10.5t-10.5 25.5z" />
    <glyph glyph-name="quotedbl" unicode="&#x22;" horiz-adv-x="281" 
d="M246 650l-11 -115h-45l-9 115h65zM100 650l-10 -115h-45l-10 115h65z" />
    <glyph glyph-name="numbersign" unicode="#" horiz-adv-x="703" 
d="M146 222l46 209h-119v51h130l36 165h56l-36 -165h237l36 165h56l-36 -165h96v-51h-107l-46 -209h115v-51h-126l-38 -174h-56l38 174h-237l-38 -174h-56l38 174h-100v51h111zM202 222h237l46 209h-237z" />
    <glyph glyph-name="dollar" unicode="$" horiz-adv-x="622" 
d="M55 153l49 28q18 -51 74.5 -83.5t133.5 -32.5q82 0 125.5 29.5t43.5 83.5q0 14 -4 26.5t-9 22t-15 19t-18 15.5t-22 12.5t-23 10t-25 8.5t-23 6.5t-22.5 5.5t-19.5 5q-92 22 -128 41q-86 44 -86 128q0 66 54 107t143 47v60h55v-60q77 -6 133.5 -39t73.5 -82l-48 -26
q-14 40 -66.5 67.5t-119.5 27.5q-75 0 -118 -28t-43 -71q0 -21 9.5 -38t20.5 -27.5t34.5 -21t35.5 -14.5t42 -11.5t35 -9.5q90 -24 126 -44q91 -48 91 -135q0 -75 -54.5 -119.5t-151.5 -49.5v-60h-55v60q-86 5 -146 42t-82 100z" />
    <glyph glyph-name="percent" unicode="%" horiz-adv-x="810" 
d="M452 142q0 64 40 104.5t102 40.5q61 0 101 -40.5t40 -104.5q0 -63 -40.5 -103.5t-100.5 -40.5q-61 0 -101.5 40.5t-40.5 103.5zM96 612q40 40 101 40t101 -40.5t40 -104.5q0 -63 -40.5 -103.5t-100.5 -40.5q-61 0 -101.5 40.5t-40.5 103.5q0 64 41 105zM126 434
q28 -29 71 -29t71 28.5t28 73.5t-28 74t-71 29t-71.5 -29t-28.5 -74t29 -73zM494 142q0 -45 29 -73q28 -29 71 -29t71 28.5t28 73.5t-28 74t-71 29t-71.5 -29t-28.5 -74zM195 0l351 650h49l-351 -650h-49z" />
    <glyph glyph-name="ampersand" unicode="&#x26;" horiz-adv-x="623" 
d="M88 273q33 45 113 98l-24 30q-59 75 -59 131q0 53 40 90.5t103 37.5t103 -37.5t40 -90.5q0 -32 -12.5 -59.5t-38 -50.5t-41.5 -34.5t-46 -29.5l173 -222q31 55 31 128v15h46v-16q0 -95 -47 -166l79 -99h-58l-50 63q-71 -71 -171 -71t-157 49.5t-57 130.5q0 57 33 103z
M152 74q43 -38 118 -38q85 0 141 62l-182 236q-70 -47 -95 -84t-25 -80q0 -59 43 -96zM176 483q11 -22 37 -56q15 -18 25 -33q27 16 41 26t35.5 28t31.5 38.5t10 43.5q0 38 -27.5 63t-67.5 25q-41 0 -68.5 -25.5t-27.5 -62.5q0 -25 11 -47z" />
    <glyph glyph-name="quotesingle" unicode="'" horiz-adv-x="135" 
d="M35 650h65l-16 -115h-45z" />
    <glyph glyph-name="parenleft" unicode="(" horiz-adv-x="239" 
d="M44 462q21 141 79 230h60q-61 -83 -77.5 -190t-16.5 -179t17 -180.5t78 -190.5h-61q-58 88 -73.5 193.5t-15.5 175.5q0 71 10 141z" />
    <glyph glyph-name="parenright" unicode=")" horiz-adv-x="249" 
d="M129 178q11 72 11 144t-16.5 179.5t-77.5 190.5h60q88 -137 88 -371t-88 -369h-61q61 82 84 226z" />
    <glyph glyph-name="asterisk" unicode="*" horiz-adv-x="389" 
d="M163 491l-112 76l20 30l105 -71v124h38v-125l106 70l19 -30l-112 -74l112 -76l-20 -31l-105 72v-125h-38v126l-106 -71l-20 30z" />
    <glyph glyph-name="plus" unicode="+" horiz-adv-x="504" 
d="M55 346h163v163h49v-163h162v-49h-162v-163h-49v163h-163v49z" />
    <glyph glyph-name="comma" unicode="," horiz-adv-x="163" 
d="M63 53h65l-48 -131h-45z" />
    <glyph glyph-name="hyphen" unicode="-" horiz-adv-x="408" 
d="M55 327h278v-54h-278v54z" />
    <glyph glyph-name="period" unicode="." horiz-adv-x="141" 
d="M45 59q10 10 26 10q15 0 25 -10t10 -25q0 -16 -10 -26t-25 -10q-16 0 -26 10t-10 26q0 15 10 25z" />
    <glyph glyph-name="slash" unicode="/" horiz-adv-x="309" 
d="M35 -47l212 739h57l-212 -739h-57z" />
    <glyph glyph-name="zero" unicode="0" horiz-adv-x="623" 
d="M116 566q70 92 191 92t191 -92.5t70 -240.5t-70 -240q-70 -93 -191 -93t-191.5 92.5t-70.5 240.5t71 241zM158 125q54 -76 149 -76q94 0 148 75.5t54 200.5t-54 200t-148 75q-95 0 -149.5 -75t-54.5 -200t55 -200z" />
    <glyph glyph-name="one" unicode="1" horiz-adv-x="301" 
d="M226 650v-650h-57v596h-151v54h208z" />
    <glyph glyph-name="two" unicode="2" horiz-adv-x="521" 
d="M35 529q16 54 76.5 92t141.5 38q101 0 161.5 -48.5t60.5 -133.5q0 -112 -158 -254q-3 -3 -46 -41l-144 -128h347v-54h-437v50l174 153q102 90 138 132q67 78 67 140q0 60 -43.5 94t-119.5 34q-60 0 -106 -27t-59 -69z" />
    <glyph glyph-name="three" unicode="3" horiz-adv-x="538" 
d="M35 87l40 37q25 -34 71.5 -54.5t99.5 -20.5q76 0 125.5 42.5t49.5 114.5q0 74 -49.5 116t-125.5 42q-65 0 -114 -20v47l249 205h-299v54h383v-51l-223 -186h7q94 0 161.5 -53.5t67.5 -153.5q0 -99 -67.5 -156.5t-164.5 -57.5q-65 0 -123 26t-88 69z" />
    <glyph glyph-name="four" unicode="4" horiz-adv-x="562" 
d="M35 187l348 463h57v-460h77v-46h-77v-144h-57v144h-348v43zM96 190h287v381z" />
    <glyph glyph-name="five" unicode="5" horiz-adv-x="537" 
d="M35 86l42 37q29 -36 72 -55.5t89 -19.5h5q82 1 129 45t47 115q0 69 -49 113t-128 44q-87 0 -137 -31l-21 43l42 273h324v-54h-278l-29 -195q51 14 100 14q111 0 172.5 -59t61.5 -150q0 -98 -63 -156t-168 -58q-66 0 -122.5 25.5t-88.5 68.5z" />
    <glyph glyph-name="six" unicode="6" horiz-adv-x="549" 
d="M92 364l194 286h64l-143 -211q30 8 60 8q96 0 159 -64t63 -163t-63 -163.5t-159 -64.5q-95 0 -158.5 64.5t-63.5 163.5q0 84 47 144zM100 220q0 -76 48 -124q47 -49 119 -49t119 48t47 125q0 76 -47 124t-119 48t-119.5 -48t-47.5 -124z" />
    <glyph glyph-name="seven" unicode="7" horiz-adv-x="459" 
d="M73 0l275 596h-320v54h386v-43l-280 -607h-61z" />
    <glyph glyph-name="eight" unicode="8" horiz-adv-x="551" 
d="M45 177q0 52 30 95t86 65q-52 21 -78.5 61t-26.5 91q0 69 54.5 119t158.5 50t157.5 -50t53.5 -119q0 -110 -103 -152q55 -22 84.5 -65t29.5 -95q0 -84 -57 -135t-165 -51t-166 51t-58 135zM101 179q0 -62 44 -100q43 -38 124 -38t123.5 38t42.5 100q0 58 -43 97t-123 39
t-124 -39t-44 -97zM110 486q0 -56 39.5 -91t119.5 -35t118.5 35t38.5 91q0 52 -39.5 89t-117.5 37t-118.5 -37t-40.5 -89z" />
    <glyph glyph-name="nine" unicode="9" horiz-adv-x="549" 
d="M108 594q63 64 158 64q96 0 159.5 -64.5t63.5 -163.5q0 -73 -46 -142l-191 -288h-65l140 211q-32 -8 -61 -8q-95 0 -158 64t-63 163t63 164zM100 430q0 -76 47 -124t119 -48q73 0 120 48t47 124q0 77 -47 125t-120 48q-72 0 -119 -48t-47 -125z" />
    <glyph glyph-name="colon" unicode=":" horiz-adv-x="146" 
d="M45 350q10 10 26 10q15 0 25 -10t10 -26q0 -15 -10 -25t-25 -10q-16 0 -26 10t-10 25q0 16 10 26zM45 59q10 10 26 10q15 0 25 -10t10 -25q0 -16 -10 -26t-25 -10q-16 0 -26 10t-10 26q0 15 10 25z" />
    <glyph glyph-name="semicolon" unicode=";" horiz-adv-x="172" 
d="M35 -78l32 131h65l-52 -131h-45zM67 350q10 10 24 10q15 0 25.5 -10.5t10.5 -25.5q0 -14 -10.5 -24.5t-25.5 -10.5q-14 0 -24.5 10.5t-10.5 24.5q0 15 11 26z" />
    <glyph glyph-name="less" unicode="&#x3c;" horiz-adv-x="460" 
d="M385 468v-47l-269 -99l269 -100v-47l-330 122v49z" />
    <glyph glyph-name="equal" unicode="=" horiz-adv-x="505" 
d="M55 443h375v-47h-375v47zM430 247v-46h-375v46h375z" />
    <glyph glyph-name="greater" unicode="&#x3e;" horiz-adv-x="460" 
d="M324 322l-269 99v47l330 -122v-49l-330 -122v47z" />
    <glyph glyph-name="question" unicode="?" horiz-adv-x="488" 
d="M18 534q18 55 75 91t126 36q89 0 146.5 -46.5t57.5 -128.5q0 -32 -6.5 -57t-27 -52t-29.5 -36.5t-43 -42.5q-22 -22 -33 -34.5t-24 -39.5t-13 -55v-23h-58v23q0 36 15 69.5t26 46t32 33.5q4 4 17 16.5t17 16.5l14 14q11 11 14 15.5t11 14t10.5 15.5t7.5 15.5t6.5 17.5
t3 18t1.5 21q0 58 -40 91.5t-105 33.5q-48 0 -92.5 -27.5t-57.5 -67.5zM184 28q0 15 10 25t25 10q16 0 26 -10t10 -25t-10 -25.5t-26 -10.5q-15 0 -25 10.5t-10 25.5z" />
    <glyph glyph-name="at" unicode="@" horiz-adv-x="796" 
d="M55 324q0 148 95 246q94 97 239 97t238.5 -91.5t93.5 -235.5q0 -84 -28.5 -137.5t-91.5 -53.5q-35 0 -63 20t-37 58q-39 -68 -122 -68q-64 0 -108 45t-44 117q0 73 43.5 117t108.5 44q80 0 119 -62v57h42v-216q0 -36 17 -55.5t44 -19.5q79 0 79 154q0 131 -82.5 208.5
t-208.5 77.5q-124 0 -208 -85t-84 -217q0 -131 84 -216t208 -85q78 0 137 31l21 -38q-70 -35 -158 -35q-145 0 -239.5 98t-94.5 245zM268 321q0 -49 32 -84.5t84 -35.5q51 0 82.5 35.5t31.5 84.5q0 50 -31 85t-83 35t-84 -35t-32 -85z" />
    <glyph glyph-name="A" unicode="A" horiz-adv-x="642" 
d="M25 0l269 650h44l269 -650h-62l-73 178h-312l-73 -178h-62zM450 232l-134 328l-134 -328h268z" />
    <glyph glyph-name="B" unicode="B" horiz-adv-x="603" 
d="M55 0v650h298q77 0 128 -46t51 -124q0 -100 -83 -143q49 -19 78 -60.5t29 -98.5q0 -78 -52.5 -128t-128.5 -50h-320zM113 54h255q57 0 93 37t36 91t-36 90.5t-93 36.5h-255v-255zM113 359h233q58 0 92.5 32.5t34.5 85.5t-34.5 86t-92.5 33h-233v-237z" />
    <glyph glyph-name="C" unicode="C" horiz-adv-x="687" 
d="M136 565q90 93 234 93q172 0 263 -131l-47 -33q-75 106 -216 106q-119 0 -193 -77.5t-74 -197.5t74 -197.5t193 -77.5q69 0 125 29t91 78l47 -34q-91 -131 -263 -131q-144 0 -234.5 93.5t-90.5 239.5t91 240z" />
    <glyph glyph-name="D" unicode="D" horiz-adv-x="650" 
d="M269 650q144 0 232.5 -90t88.5 -235t-88.5 -235t-232.5 -90h-214v650h214zM269 57q112 0 187.5 71.5t75.5 196.5t-75.5 197t-187.5 72h-156v-537h156z" />
    <glyph glyph-name="E" unicode="E" horiz-adv-x="540" 
d="M55 650h415v-54h-357v-245h336v-54h-336v-243h357v-54h-415v650z" />
    <glyph glyph-name="F" unicode="F" horiz-adv-x="537" 
d="M471 650v-55h-358v-249h339v-55h-339v-291h-58v650h416z" />
    <glyph glyph-name="G" unicode="G" horiz-adv-x="747" 
d="M45 325q0 146 90.5 239.5t234.5 93.5q85 0 152.5 -34.5t110.5 -95.5l-48 -33q-75 105 -215 105q-119 0 -193 -77.5t-74 -197.5t74 -197.5t193 -77.5q104 0 171 62.5t78 166.5h-251v54h314v-23q-5 -141 -89 -229.5t-223 -88.5q-144 0 -234.5 93.5t-90.5 239.5z" />
    <glyph glyph-name="H" unicode="H" horiz-adv-x="623" 
d="M113 650v-297h377v297h58v-650h-58v296h-377v-296h-58v650h58z" />
    <glyph glyph-name="I" unicode="I" horiz-adv-x="188" 
d="M113 0h-58v650h58v-650z" />
    <glyph glyph-name="J" unicode="J" horiz-adv-x="494" 
d="M35 136l57 19q8 -48 41.5 -77t92.5 -29q65 0 100 37t35 94v470h58v-476q0 -82 -52 -132t-141 -50q-81 0 -130 39t-61 105z" />
    <glyph glyph-name="K" unicode="K" horiz-adv-x="523" 
d="M55 0v650h58v-303l292 303h70l-311 -325l324 -325h-71l-304 304v-304h-58z" />
    <glyph glyph-name="L" unicode="L" horiz-adv-x="523" 
d="M113 54h355v-54h-413v650h58v-596z" />
    <glyph glyph-name="M" unicode="M" horiz-adv-x="739" 
d="M118 650l241 -480l242 480h63v-650h-58v542l-226 -460h-41l-226 460v-542h-58v650h63z" />
    <glyph glyph-name="N" unicode="N" horiz-adv-x="621" 
d="M56 650h56l376 -552v552h58v-650h-57l-375 551v-551h-58v650z" />
    <glyph glyph-name="O" unicode="O" horiz-adv-x="754" 
d="M136 565q90 93 234 93t234 -93.5t90 -239.5t-90 -239q-90 -94 -234 -94t-234.5 93.5t-90.5 239.5t91 240zM103 325q0 -120 74 -197q74 -78 193 -78t192.5 77t73.5 198t-73.5 198t-192.5 77t-193 -77.5t-74 -197.5z" />
    <glyph glyph-name="P" unicode="P" horiz-adv-x="582" 
d="M345 650q76 0 129 -55t53 -138t-53 -138t-129 -55h-232v-264h-58v650h290zM113 594v-273h225q57 0 94.5 40t37.5 96q0 57 -37.5 97t-94.5 40h-225z" />
    <glyph glyph-name="Q" unicode="Q" horiz-adv-x="754" 
d="M136 564q91 94 234 94q144 0 234 -93.5t90 -239.5q0 -97 -42.5 -174t-117.5 -119l85 -114h-70l-68 91q-53 -17 -111 -17q-144 0 -234.5 93.5t-90.5 239.5q0 145 91 239zM177 128q74 -78 193 -78q40 0 74 9l-61 82h70l46 -61q65 33 101 97.5t36 147.5q0 121 -73.5 198
t-192.5 77t-193 -77.5t-74 -197.5t74 -197z" />
    <glyph glyph-name="R" unicode="R" horiz-adv-x="600" 
d="M55 650h297q76 0 129 -55t53 -138q0 -82 -51.5 -136.5t-124.5 -56.5l187 -264h-69l-187 264h-176v-264h-58v650zM345 321q57 0 94 39.5t37 96.5t-37 97t-94 40h-232v-273h232z" />
    <glyph glyph-name="S" unicode="S" horiz-adv-x="598" 
d="M35 136l48 30q20 -53 78.5 -86t140.5 -33q178 0 178 132q0 20 -7 36.5t-22 29t-28.5 21.5t-36.5 17t-36 12t-37.5 10.5t-29.5 7.5q-4 1 -28.5 7t-36 9t-36 11.5t-38 16t-33 21t-29.5 28t-17.5 35t-7.5 44.5q0 85 65.5 130.5t174.5 45.5q87 0 152.5 -35.5t83.5 -90.5
l-49 -26q-14 40 -67.5 67.5t-124.5 27.5q-82 0 -126.5 -30.5t-44.5 -86.5q0 -18 6 -33.5t21 -27t26 -19.5t35 -15.5t34.5 -10.5t38 -9.5t31.5 -7.5q3 -1 26.5 -7t35.5 -9.5t36.5 -13t39.5 -18t34.5 -23t30.5 -29.5t19 -37t8 -46q0 -94 -64 -143t-182 -49q-100 0 -169 40
t-93 107z" />
    <glyph glyph-name="T" unicode="T" 
d="M528 650v-54h-217v-596h-58v596h-218v54h493z" />
    <glyph glyph-name="U" unicode="U" horiz-adv-x="614" 
d="M113 650v-421q0 -84 49.5 -132t134.5 -48t134.5 48t49.5 132v421h58v-425q0 -103 -65 -168t-177 -65t-177 65t-65 168v425h58z" />
    <glyph glyph-name="V" unicode="V" horiz-adv-x="638" 
d="M87 650l227 -559l228 559h61l-266 -650h-46l-266 650h62z" />
    <glyph glyph-name="W" unicode="W" horiz-adv-x="944" 
d="M87 650l180 -541l180 541h43l179 -536l178 536h62l-217 -650h-48l-177 530l-177 -530h-48l-217 650h62z" />
    <glyph glyph-name="X" unicode="X" horiz-adv-x="594" 
d="M25 650h69l193 -276l193 276h69l-227 -325l227 -325h-69l-193 276l-193 -276h-69l228 325z" />
    <glyph glyph-name="Y" unicode="Y" horiz-adv-x="576" 
d="M84 650l194 -302l195 302h68l-233 -360v-290h-58v288l-234 362h68z" />
    <glyph glyph-name="Z" unicode="Z" horiz-adv-x="538" 
d="M483 599l-368 -544l361 -1v-54h-431v51l369 545h-362v54h431v-51z" />
    <glyph glyph-name="bracketleft" unicode="[" horiz-adv-x="267" 
d="M192 692v-45h-83v-650h83v-45h-137v740h137z" />
    <glyph glyph-name="backslash" unicode="\" horiz-adv-x="294" 
d="M274 -48h-57l-212 739h57z" />
    <glyph glyph-name="bracketright" unicode="]" horiz-adv-x="267" 
d="M138 -3v650h-83v45h137v-740h-137v45h83z" />
    <glyph glyph-name="asciicircum" unicode="^" horiz-adv-x="365" 
d="M146 650h52l92 -250h-47l-71 193l-70 -193h-47z" />
    <glyph glyph-name="underscore" unicode="_" horiz-adv-x="467" 
d="M55 54h337v-54h-337v54z" />
    <glyph glyph-name="grave" unicode="`" horiz-adv-x="136" 
d="M73 650l43 -93h-49l-47 93h53z" />
    <glyph glyph-name="a" unicode="a" 
d="M43 230q0 104 63 170.5t163 66.5q125 0 184 -103v96h55v-460h-55v96q-28 -49 -75.5 -76.5t-108.5 -27.5q-99 0 -162.5 67.5t-63.5 170.5zM146 97q49 -52 129 -52t129 51.5t49 133.5t-49 133.5t-129 51.5t-129.5 -52t-49.5 -133t50 -133z" />
    <glyph glyph-name="b" unicode="b" 
d="M55 650h55v-287q58 104 184 104q100 0 163.5 -66.5t63.5 -170.5q0 -103 -64 -170.5t-163 -67.5q-62 0 -109.5 28t-74.5 77v-97h-55v650zM159 97q49 -52 129 -52t129.5 51.5t49.5 133.5t-49.5 133.5t-129.5 51.5t-129 -51.5t-49 -133.5t49 -133z" />
    <glyph glyph-name="c" unicode="c" horiz-adv-x="515" 
d="M108 401q64 66 167 66q122 0 187 -92l-40 -30q-51 70 -146 70q-80 0 -129.5 -51.5t-49.5 -133.5t49.5 -133.5t129.5 -51.5q94 0 146 69l40 -29q-64 -93 -187 -93q-103 0 -167.5 67t-64.5 171t65 171z" />
    <glyph glyph-name="d" unicode="d" 
d="M43 230q0 104 63 170.5t163 66.5q125 0 184 -103v286h55v-650h-55v96q-28 -49 -75.5 -76.5t-108.5 -27.5q-99 0 -162.5 67.5t-63.5 170.5zM146 97q49 -52 129 -52t129 51.5t49 133.5t-49 133.5t-129 51.5t-129.5 -52t-49.5 -133t50 -133z" />
    <glyph glyph-name="e" unicode="e" horiz-adv-x="551" 
d="M43 230q0 104 62 171t164 67q97 0 158.5 -67.5t61.5 -170.5v-19h-393q6 -77 55 -124t124 -47q101 0 153 76l39 -27q-31 -46 -80.5 -72t-111.5 -26q-103 0 -167.5 67.5t-64.5 171.5zM96 251h341q-6 75 -51.5 122.5t-116.5 47.5q-75 0 -121 -46.5t-52 -123.5z" />
    <glyph glyph-name="f" unicode="f" horiz-adv-x="331" 
d="M25 460h66v71q0 56 31.5 87.5t87.5 31.5h76v-46h-63q-36 0 -56.5 -20t-20.5 -55v-69h129v-44h-129v-416h-55v416h-66v44z" />
    <glyph glyph-name="g" unicode="g" 
d="M43 230q0 103 63.5 170t162.5 67q125 0 184 -103v96h55v-425q0 -99 -66 -161t-174 -62q-122 0 -189 80l38 32q57 -64 151 -64q78 0 131.5 46t53.5 129v61q-28 -49 -75.5 -76.5t-108.5 -27.5q-99 0 -162.5 67.5t-63.5 170.5zM96 230q0 -82 50 -133q49 -52 129 -52
t129 51.5t49 133.5t-49 133.5t-129 51.5t-129.5 -51.5t-49.5 -133.5z" />
    <glyph glyph-name="h" unicode="h" horiz-adv-x="524" 
d="M55 650h55v-259q50 76 154 76q77 0 131 -47t54 -136v-284h-55v277q0 66 -40.5 104t-101.5 38q-62 0 -102 -38t-40 -104v-277h-55v650z" />
    <glyph glyph-name="i" unicode="i" horiz-adv-x="203" 
d="M64 460h55v-460h-55v460zM66 630q11 10 25 10q15 0 26 -10t11 -25q0 -16 -11 -26.5t-26 -10.5q-14 0 -25 10.5t-11 26.5q0 15 11 25z" />
    <glyph glyph-name="j" unicode="j" horiz-adv-x="215" 
d="M-28 -184v46h26q78 0 78 76v522h55v-531q0 -51 -30.5 -82t-87.5 -31h-41zM67 605q0 15 11 25t25 10q15 0 26 -10t11 -25q0 -16 -11 -26.5t-25 -10.5q-15 0 -26 10.5t-11 26.5z" />
    <glyph glyph-name="k" unicode="k" horiz-adv-x="453" 
d="M55 0v650h55v-393l219 203h68l-235 -218l256 -242h-68l-240 227v-227h-55z" />
    <glyph glyph-name="l" unicode="l" horiz-adv-x="185" 
d="M110 0h-55v650h55v-650z" />
    <glyph glyph-name="m" unicode="m" horiz-adv-x="813" 
d="M55 460h55v-65q46 72 142 72q116 0 155 -93q43 93 159 93q73 0 122.5 -44.5t49.5 -138.5v-284h-55v278q0 69 -37 104t-93 35t-92.5 -35t-36.5 -104v-278h-55v278q0 69 -37 104t-93 35t-92.5 -35t-36.5 -104v-278h-55v460z" />
    <glyph glyph-name="n" unicode="n" horiz-adv-x="524" 
d="M55 460h55v-69q50 76 154 76q77 0 131 -47t54 -136v-284h-55v277q0 66 -40.5 104t-101.5 38q-62 0 -102 -38t-40 -104v-277h-55v460z" />
    <glyph glyph-name="o" unicode="o" horiz-adv-x="571" 
d="M108 401q65 67 168 67t167.5 -67t64.5 -171t-64 -171q-65 -68 -168 -68t-168 67.5t-65 171.5t65 171zM98 230q0 -80 50 -132q49 -53 128 -53t127.5 52.5t48.5 132.5t-48.5 132.5t-127.5 52.5t-128.5 -52.5t-49.5 -132.5z" />
    <glyph glyph-name="p" unicode="p" 
d="M55 460h55v-98q27 49 74.5 77t109.5 28q99 0 163 -67.5t64 -170.5q0 -104 -63.5 -170.5t-163.5 -66.5q-126 0 -184 104v-280h-55v644zM159 96q49 -51 129 -51t129.5 51t49.5 133t-49.5 134t-129.5 52t-129 -52t-49 -134t49 -133z" />
    <glyph glyph-name="q" unicode="q" 
d="M107 400q63 67 162 67q61 0 108.5 -27.5t75.5 -76.5v97h55v-644h-55v279q-59 -103 -184 -103q-100 0 -163 66.5t-63 170.5q0 103 64 171zM146 97q49 -52 129 -52t129 51t49 133t-49 134t-129 52t-129.5 -52t-49.5 -134q0 -81 50 -132z" />
    <glyph glyph-name="r" unicode="r" horiz-adv-x="317" 
d="M55 460h55v-85q50 90 162 92v-52q-67 -2 -114.5 -41.5t-47.5 -113.5v-260h-55v460z" />
    <glyph glyph-name="s" unicode="s" horiz-adv-x="451" 
d="M33 94l40 23q14 -36 54 -59t96 -23q122 0 122 90q0 14 -4.5 25.5t-15 20t-19.5 14.5t-25 11.5t-24.5 8.5t-26 7t-21.5 5q-2 1 -19 5t-25 6.5t-25.5 8.5t-27.5 11.5t-23.5 15.5t-21 20.5t-13 25.5t-5.5 32q0 61 46.5 94t123.5 33q66 0 112 -25t61 -65l-41 -21
q-10 28 -47 47t-86 19q-55 0 -85 -21t-30 -59q0 -12 4 -22.5t13.5 -18.5t18 -13.5t23 -10.5t23 -7.5t24.5 -6.5t21 -5q2 0 16 -3.5t20 -5.5t20.5 -6.5t23 -8.5t22 -10.5t21.5 -13t18 -16t15 -19.5t9 -23t4 -27q0 -68 -45.5 -103t-130.5 -35q-74 0 -123 28t-67 77z" />
    <glyph glyph-name="t" unicode="t" horiz-adv-x="308" 
d="M25 416v44h66v140h55v-140h115v-44h-115v-307q0 -63 65 -63h45v-46h-62q-48 0 -75.5 27t-27.5 75v314h-66z" />
    <glyph glyph-name="u" unicode="u" horiz-adv-x="524" 
d="M55 460h55v-278q0 -66 40.5 -104t101.5 -38q62 0 102 38t40 104v278h55v-460h-55v68q-50 -76 -154 -76q-77 0 -131 47t-54 136v285z" />
    <glyph glyph-name="v" unicode="v" horiz-adv-x="469" 
d="M15 460h58l151 -385l153 385h57l-183 -460h-55z" />
    <glyph glyph-name="w" unicode="w" horiz-adv-x="726" 
d="M78 460l127 -382l131 382h39l131 -382l128 382h57l-156 -460h-55l-125 365l-126 -365h-55l-154 460h58z" />
    <glyph glyph-name="x" unicode="x" horiz-adv-x="485" 
d="M25 460h66l142 -187l141 187h66l-174 -230l174 -230h-66l-141 187l-142 -187h-66l175 230z" />
    <glyph glyph-name="y" unicode="y" horiz-adv-x="469" 
d="M73 460l151 -384l153 384h57l-256 -644h-55l73 184l-181 460h58z" />
    <glyph glyph-name="z" unicode="z" horiz-adv-x="431" 
d="M376 460v-44l-272 -368h267v-48h-336v44l273 369h-268v47h336z" />
    <glyph glyph-name="braceleft" unicode="{" horiz-adv-x="318" 
d="M55 301v42h15q15 0 25.5 12.5t10.5 35.5v220q0 43 20 62t49 19h68v-45h-49q-33 0 -33 -43v-213q0 -48 -38 -69q38 -21 38 -69v-213q0 -43 33 -43h49v-45h-68q-29 0 -49 19.5t-20 61.5v220q0 23 -10.5 35.5t-25.5 12.5h-15z" />
    <glyph glyph-name="bar" unicode="|" horiz-adv-x="184" 
d="M109 -48h-54v740h54v-740z" />
    <glyph glyph-name="braceright" unicode="}" horiz-adv-x="318" 
d="M55 647v45h68q30 0 49.5 -19t19.5 -62v-220q0 -23 10.5 -35.5t25.5 -12.5h15v-42h-15q-15 0 -25.5 -12.5t-10.5 -35.5v-220q0 -42 -19.5 -61.5t-49.5 -19.5h-68v45h49q33 0 33 43v213q0 48 38 69q-38 21 -38 69v213q0 43 -33 43h-49z" />
    <glyph glyph-name="asciitilde" unicode="~" horiz-adv-x="599" 
d="M90 361q35 38 96 38q10 0 20.5 -2t18 -4t16.5 -7t14 -7.5t13.5 -9.5t11 -9.5t11 -10t9.5 -8.5q18 -17 28 -25t28 -16.5t35 -8.5q38 0 62.5 24.5t24.5 69.5h46q0 -62 -35.5 -101.5t-97.5 -39.5q-8 0 -16.5 1t-15 2.5t-14 5t-12.5 5.5t-12 6.5t-10 7t-10 8t-9 7.5t-8.5 8
t-7.5 7t-9.5 9t-10 9.5t-9.5 8t-11 8t-10 5.5t-12.5 5.5t-12.5 3t-14 1.5q-40 0 -62.5 -26t-22.5 -67h-47q0 63 35 102z" />
    <glyph glyph-name="exclamdown" unicode="&#xa1;" horiz-adv-x="121" 
d="M30 506h51l4 -506h-59zM31 642q10 10 25 10q14 0 24.5 -10.5t10.5 -24.5q0 -15 -10.5 -25.5t-24.5 -10.5q-15 0 -25.5 10.5t-10.5 25.5q0 14 11 25z" />
    <glyph glyph-name="cent" unicode="&#xa2;" horiz-adv-x="668" 
d="M55 330q0 118 66 202t185 98v67h54v-64q146 -4 233 -131l-48 -30q-76 105 -195 105q-110 0 -174 -69.5t-64 -177.5t64 -177.5t174 -69.5q122 0 195 103l48 -29q-87 -127 -233 -131v-74h-54v77q-119 14 -185 98.5t-66 202.5z" />
    <glyph glyph-name="sterling" unicode="&#xa3;" horiz-adv-x="520" 
d="M55 47q63 0 100 18.5t47 49t10 59.5q0 14 -4 45t-26 93h-118v36h104q-2 3 -4 9q-30 74 -30 132q0 70 52 124t164 54q43 0 94 -9v-46q-49 10 -89 10q-88 0 -125.5 -43t-37.5 -98q0 -51 28 -118l6 -15h180v-36h-167q27 -77 27 -135q0 -88 -63 -130h242v-47h-390v47z" />
    <glyph glyph-name="currency" unicode="&#xa4;" horiz-adv-x="567" 
d="M126 207q-35 49 -35 116q0 66 35 115l-70 70l32 32l69 -69q49 40 118 40q68 0 116 -39l68 68l33 -31l-70 -70q36 -49 36 -116q0 -68 -36 -117l70 -70l-32 -32l-69 69q-50 -39 -116 -39q-67 0 -118 40l-69 -69l-33 31zM178 221q39 -40 97 -40t97.5 40t39.5 102
q0 63 -39 102.5t-98 39.5q-58 0 -97.5 -39.5t-39.5 -102.5q0 -62 40 -102z" />
    <glyph glyph-name="yen" unicode="&#xa5;" horiz-adv-x="576" 
d="M16 650h68l194 -302l195 302h68l-225 -348h164v-36h-172v-96h172v-37h-172v-133h-58v133h-172v37h172v96h-172v36h162z" />
    <glyph glyph-name="brokenbar" unicode="&#xa6;" horiz-adv-x="184" 
d="M109 692v-289h-54v289h54zM55 -48v289h54v-289h-54z" />
    <glyph glyph-name="section" unicode="&#xa7;" horiz-adv-x="486" 
d="M55 77l46 15q24 -76 140 -76q121 0 121 90q0 10 -2.5 19.5t-8.5 17t-11 13t-16 11.5t-16 9t-19.5 7.5t-18.5 6t-19.5 6t-17.5 4.5q-85 22 -117 47q-39 32 -40 79q0 90 91 115q-88 35 -88 107q0 58 44 92t119 34q63 0 102.5 -24.5t52.5 -65.5l-43 -17q-20 61 -112 61
q-56 0 -86.5 -21.5t-30.5 -58.5q0 -18 10.5 -32.5t31.5 -25t36 -16t41 -12.5q2 0 29 -7t38 -11t34.5 -15t34.5 -22.5t21 -31.5t10 -44q0 -90 -98 -112q96 -36 96 -113q0 -68 -45.5 -102.5t-123.5 -34.5q-73 0 -120 28.5t-65 79.5zM123 330q0 -12 3 -19q27 -60 119 -60
q59 0 89 22.5t30 58.5t-37.5 58.5t-90.5 22.5q-55 0 -84 -22t-29 -61z" />
    <glyph glyph-name="dieresis" unicode="&#xa8;" horiz-adv-x="281" 
d="M206 654q10 9 23 9t22.5 -9t9.5 -23t-10 -23.5t-22 -9.5q-13 0 -23 9.5t-10 23.5t10 23zM30 654q10 9 23 9t22.5 -9t9.5 -23t-10 -23.5t-22 -9.5q-13 0 -23 9.5t-10 23.5t10 23z" />
    <glyph glyph-name="copyright" unicode="&#xa9;" horiz-adv-x="779" 
d="M146 565q90 93 234 93t234 -93.5t90 -239.5t-90 -239.5t-234 -93.5q-145 0 -235 93.5t-90 239.5t91 240zM92 325q0 -125 78.5 -210.5t209.5 -85.5q132 0 209.5 85t77.5 211t-77.5 211.5t-209.5 85.5t-210 -85.5t-78 -211.5zM265 454q48 49 124 49q92 0 140 -69l-31 -22
q-33 54 -109 54q-56 0 -95.5 -38t-39.5 -102t39.5 -102.5t95.5 -38.5q34 0 63.5 15.5t45.5 37.5l31 -20q-48 -70 -140 -70q-76 0 -124 50t-48 128t48 128z" />
    <glyph glyph-name="guillemotleft" unicode="&#xab;" horiz-adv-x="542" 
d="M256 321l172 186h69l-171 -186l171 -186h-69zM25 321l172 186h69l-171 -186l171 -186h-69z" />
    <glyph glyph-name="logicalnot" unicode="&#xac;" horiz-adv-x="515" 
d="M55 364h385v-179h-54v125h-331v54z" />
    <glyph glyph-name="registered" unicode="&#xae;" horiz-adv-x="779" 
d="M146 564q90 94 234 94t234 -94t90 -239t-90 -239t-234 -94t-234.5 94t-90.5 239t91 239zM171 115q78 -86 209 -86t209 85.5t78 210.5q0 126 -78 211.5t-209 85.5t-209.5 -86t-78.5 -211t79 -210zM257 502h168q43 0 72.5 -30t29.5 -76q0 -44 -27.5 -74.5t-67.5 -33.5
l101 -146h-44l-100 146h-95v-146h-37v360zM422 324q28 0 47.5 20.5t19.5 51.5q0 30 -19.5 50t-47.5 20h-128v-142h128z" />
    <glyph glyph-name="macron" unicode="&#xaf;" horiz-adv-x="206" 
d="M20 650h166v-40h-166v40z" />
    <glyph glyph-name="degree" unicode="&#xb0;" horiz-adv-x="336" 
d="M86 620q32 33 82 33q49 0 82 -33t33 -84t-33 -83.5t-82 -32.5q-50 0 -82.5 32.5t-32.5 83.5t33 84zM88 536q0 -35 24 -58q23 -23 56 -23t56 23t23 58t-23 58t-56 23t-56.5 -23t-23.5 -58z" />
    <glyph glyph-name="plusminus" unicode="&#xb1;" horiz-adv-x="489" 
d="M55 353v41h157v95h46v-95h156v-41h-156v-96h-46v96h-157zM55 193h359v-41h-359v41z" />
    <glyph glyph-name="twosuperior" unicode="&#xb2;" horiz-adv-x="347" 
d="M82 637q36 23 85 23q61 0 97.5 -29.5t36.5 -80.5q0 -26 -11.5 -52t-37 -54t-36 -38t-38.5 -34l-87 -77h209v-33h-264v30l105 92q40 35 57.5 51t42 51t24.5 63q0 36 -26 56.5t-72 20.5q-36 0 -64 -16.5t-36 -41.5l-32 13q10 33 47 56z" />
    <glyph glyph-name="threesuperior" unicode="&#xb3;" horiz-adv-x="362" 
d="M35 310l24 23q33 -45 103 -45q46 0 76 25.5t30 68.5q0 45 -30 70.5t-76 25.5q-39 0 -68 -13v29l150 123h-181v33h231v-31l-134 -112h4q57 0 97.5 -32t40.5 -93q0 -60 -40.5 -94.5t-99.5 -34.5q-39 0 -74 15.5t-53 41.5z" />
    <glyph glyph-name="acute" unicode="&#xb4;" horiz-adv-x="136" 
d="M63 650h53l-47 -93h-49z" />
    <glyph glyph-name="paragraph" unicode="&#xb6;" horiz-adv-x="480" 
d="M77 612q35 38 100 38h57v-650h-54v377q-65 0 -101.5 35.5t-36.5 98.5q0 62 35 101zM351 650h54v-650h-54v650z" />
    <glyph glyph-name="periodcentered" unicode="&#xb7;" horiz-adv-x="149" 
d="M46 353q11 11 28 11t28.5 -11t11.5 -28t-11.5 -28t-28.5 -11q-16 0 -27.5 11t-11.5 28t11 28z" />
    <glyph glyph-name="cedilla" unicode="&#xb8;" horiz-adv-x="160" 
d="M24 -136v36q16 -11 46 -11q15 0 25 6.5t10 16.5q0 22 -40 22q-16 0 -28 -5v31q1 0 1 1l25 39h37l-21 -36q29 -3 44.5 -18t15.5 -34q0 -25 -17.5 -40.5t-51.5 -15.5q-30 0 -46 8z" />
    <glyph glyph-name="onesuperior" unicode="&#xb9;" horiz-adv-x="218" 
d="M143 650v-392h-34v359h-91v33h125z" />
    <glyph glyph-name="guillemotright" unicode="&#xbb;" horiz-adv-x="560" 
d="M436 321l-171 186h68l172 -186l-172 -186h-68zM103 507l172 -186l-172 -186h-68l171 186l-171 186h68z" />
    <glyph glyph-name="onequarter" unicode="&#xbc;" horiz-adv-x="488" 
d="M232 71v22l173 229h28v-228h38v-23h-38v-71h-28v71h-173zM424 650h31l-401 -650h-31zM405 94v189l-142 -189h142zM17 650h105v-328h-29v301h-76v27z" />
    <glyph glyph-name="onehalf" unicode="&#xbd;" horiz-adv-x="546" 
d="M311 258q8 26 37.5 44.5t68.5 18.5q50 0 79 -23.5t29 -65.5q0 -21 -9.5 -42.5t-28.5 -42.5t-30.5 -31.5t-30.5 -26.5l-70 -63h169v-26h-213v24l85 75q32 28 46 41t34 41t20 50q0 30 -21.5 46.5t-58.5 16.5q-29 0 -51.5 -13.5t-28.5 -33.5zM22 0l401 650h31l-401 -650h-31
zM17 650h105v-328h-29v301h-76v27z" />
    <glyph glyph-name="threequarters" unicode="&#xbe;" horiz-adv-x="542" 
d="M458 322h28v-228h38v-23h-38v-71h-28v71h-173v22zM17 369l20 19q29 -38 86 -38q37 0 62 21.5t25 57.5q0 37 -24.5 57.5t-62.5 20.5q-33 0 -57 -10v24l124 102h-149v27h191v-25l-111 -93h3q47 0 80.5 -27t33.5 -76q0 -50 -33.5 -78.5t-81.5 -28.5q-33 0 -62 13t-44 34z
M487 650h31l-401 -650h-31zM316 94h142v189z" />
    <glyph glyph-name="questiondown" unicode="&#xbf;" horiz-adv-x="441" 
d="M25 231q6 24 27 51t29.5 36.5t42.5 42.5q24 25 33.5 35.5t23 38t13.5 55.5v23h58v-23q0 -36 -15 -69.5t-26 -46t-32 -33.5q-33 -31 -43 -41.5t-28.5 -33.5t-24.5 -43.5t-6 -46.5q0 -58 40 -91t105 -33q48 0 92.5 27.5t57.5 67.5l51 -22q-18 -55 -75 -91t-126 -36
q-89 0 -146.5 46.5t-57.5 129.5q0 32 7 57zM186 626q0 15 10 25t26 10q15 0 25 -10t10 -25q0 -16 -10 -26t-25 -10q-16 0 -26 10t-10 26z" />
    <glyph glyph-name="Agrave" unicode="&#xc0;" horiz-adv-x="642" 
d="M294 650h44l269 -650h-62l-73 178h-312l-73 -178h-62zM450 232l-134 328l-134 -328h268zM299 803l43 -93h-49l-47 93h53z" />
    <glyph glyph-name="Aacute" unicode="&#xc1;" horiz-adv-x="642" 
d="M294 650h44l269 -650h-62l-73 178h-312l-73 -178h-62zM450 232l-134 328l-134 -328h268zM334 803h53l-47 -93h-49z" />
    <glyph glyph-name="Acircumflex" unicode="&#xc2;" horiz-adv-x="642" 
d="M294 650h44l269 -650h-62l-73 178h-312l-73 -178h-62zM450 232l-134 328l-134 -328h268zM224 710l58 93h68l58 -93h-51l-41 68l-41 -68h-51z" />
    <glyph glyph-name="Atilde" unicode="&#xc3;" horiz-adv-x="642" 
d="M294 650h44l269 -650h-62l-73 178h-312l-73 -178h-62zM182 232h268l-134 328zM206 769q21 24 53 24q38 0 67 -33q24 -26 46 -26q36 0 40 47h37q-1 -37 -21 -60.5t-56 -23.5q-39 0 -68 33q-24 26 -44 26q-18 0 -28.5 -14.5t-10.5 -33.5h-38q2 37 23 61z" />
    <glyph glyph-name="Adieresis" unicode="&#xc4;" horiz-adv-x="642" 
d="M294 650h44l269 -650h-62l-73 178h-312l-73 -178h-62zM450 232l-134 328l-134 -328h268zM372 738q0 14 10 23t23 9t22.5 -9t9.5 -23t-10 -23.5t-22 -9.5q-13 0 -23 9.5t-10 23.5zM196 738q0 14 10 23t23 9t22.5 -9t9.5 -23t-10 -23.5t-22 -9.5q-13 0 -23 9.5t-10 23.5z
" />
    <glyph glyph-name="Aring" unicode="&#xc5;" horiz-adv-x="642" 
d="M25 0l269 650h44l269 -650h-62l-73 178h-312l-73 -178h-62zM450 232l-134 328l-134 -328h268zM265 826q21 20 52 20t52 -20.5t21 -52.5q0 -31 -21 -52t-52 -21t-52.5 21t-21.5 52q0 32 22 53zM288 745q10 -13 29 -13q18 0 28.5 12.5t10.5 28.5q0 17 -10.5 29.5
t-28.5 12.5q-19 0 -29.5 -12.5t-10.5 -29.5q0 -16 11 -28z" />
    <glyph glyph-name="AE" unicode="&#xc6;" horiz-adv-x="954" 
d="M25 0l271 650h588v-54h-349v-245h328v-54h-328v-243h349v-54h-407v297h-267l-123 -297h-62zM233 351h244v245h-142z" />
    <glyph glyph-name="Ccedilla" unicode="&#xc7;" horiz-adv-x="687" 
d="M45 325q0 146 90.5 239.5t234.5 93.5q172 0 263 -131l-47 -33q-75 106 -216 106q-119 0 -193 -77.5t-74 -197.5t74 -197.5t193 -77.5q69 0 125 29t91 78l47 -34q-88 -125 -248 -131l-15 -27q29 -3 44 -17.5t15 -34.5q0 -25 -17.5 -40.5t-50.5 -15.5q-31 0 -47 8v36
q16 -11 47 -11q14 0 24 6.5t10 16.5q0 22 -40 22q-16 0 -28 -5v31q1 0 1 1l20 31q-135 7 -219 100t-84 232z" />
    <glyph glyph-name="Egrave" unicode="&#xc8;" horiz-adv-x="540" 
d="M55 650h415v-54h-357v-245h336v-54h-336v-243h357v-54h-415v650zM200 803h53l43 -93h-49z" />
    <glyph glyph-name="Eacute" unicode="&#xc9;" horiz-adv-x="540" 
d="M55 650h415v-54h-357v-245h336v-54h-336v-243h357v-54h-415v650zM245 710l43 93h53l-47 -93h-49z" />
    <glyph glyph-name="Ecircumflex" unicode="&#xca;" horiz-adv-x="540" 
d="M55 650h415v-54h-357v-245h336v-54h-336v-243h357v-54h-415v650zM178 710l58 93h68l58 -93h-51l-41 68l-41 -68h-51z" />
    <glyph glyph-name="Edieresis" unicode="&#xcb;" horiz-adv-x="540" 
d="M55 0v650h415v-54h-357v-245h336v-54h-336v-243h357v-54h-415zM150 738q0 14 10 23t23 9t22.5 -9t9.5 -23t-10 -23.5t-22 -9.5q-13 0 -23 9.5t-10 23.5zM336 761q10 9 23 9t22.5 -9t9.5 -23t-10 -23.5t-22 -9.5q-13 0 -23 9.5t-10 23.5t10 23z" />
    <glyph glyph-name="Igrave" unicode="&#xcc;" horiz-adv-x="188" 
d="M66 803l43 -93h-49l-47 93h53zM113 0h-58v650h58v-650z" />
    <glyph glyph-name="Iacute" unicode="&#xcd;" horiz-adv-x="188" 
d="M102 803h53l-47 -93h-49zM113 0h-58v650h58v-650z" />
    <glyph glyph-name="Icircumflex" unicode="&#xce;" horiz-adv-x="188" 
d="M113 650v-650h-58v650h58zM49 803h68l58 -93h-51l-41 68l-41 -68h-51z" />
    <glyph glyph-name="Idieresis" unicode="&#xcf;" horiz-adv-x="188" 
d="M113 650v-650h-58v650h58zM-27 761q10 9 23 9t22.5 -9t9.5 -23t-10 -23.5t-22 -9.5q-13 0 -23 9.5t-10 23.5t10 23zM149 761q10 9 23 9t22.5 -9t9.5 -23t-10 -23.5t-22 -9.5q-13 0 -23 9.5t-10 23.5t10 23z" />
    <glyph glyph-name="Ntilde" unicode="&#xd1;" horiz-adv-x="621" 
d="M112 650l376 -552v552h58v-650h-57l-375 551v-551h-58v650h56zM176 708q2 37 23 61t53 24q38 0 67 -33q24 -26 46 -26q36 0 40 47h37q-1 -37 -21 -60.5t-56 -23.5q-39 0 -68 33q-24 26 -44 26q-18 0 -28.5 -14.5t-10.5 -33.5h-38z" />
    <glyph glyph-name="Ograve" unicode="&#xd2;" horiz-adv-x="754" 
d="M136 565q90 93 234 93t234 -93.5t90 -239.5t-90 -239q-90 -94 -234 -94t-234.5 93.5t-90.5 239.5t91 240zM177 128q74 -78 193 -78t192.5 77t73.5 198t-73.5 198t-192.5 77t-193 -77.5t-74 -197.5t74 -197zM353 803l43 -93h-49l-47 93h53z" />
    <glyph glyph-name="Oacute" unicode="&#xd3;" horiz-adv-x="754" 
d="M45 325q0 146 90.5 239.5t234.5 93.5t234 -93.5t90 -239.5t-90 -239q-90 -94 -234 -94t-234.5 93.5t-90.5 239.5zM103 325q0 -120 74 -197q74 -78 193 -78t192.5 77t73.5 198t-73.5 198t-192.5 77t-193 -77.5t-74 -197.5zM345 710l43 93h53l-47 -93h-49z" />
    <glyph glyph-name="Ocircumflex" unicode="&#xd4;" horiz-adv-x="754" 
d="M136 565q90 93 234 93t234 -93.5t90 -239.5t-90 -239q-90 -94 -234 -94t-234.5 93.5t-90.5 239.5t91 240zM103 325q0 -120 74 -197q74 -78 193 -78t192.5 77t73.5 198t-73.5 198t-192.5 77t-193 -77.5t-74 -197.5zM278 710l58 93h68l58 -93h-51l-41 68l-41 -68h-51z" />
    <glyph glyph-name="Otilde" unicode="&#xd5;" horiz-adv-x="754" 
d="M136 565q90 93 234 93t234 -93.5t90 -239.5t-90 -239q-90 -94 -234 -94t-234.5 93.5t-90.5 239.5t91 240zM103 325q0 -120 74 -197q74 -78 193 -78t192.5 77t73.5 198t-73.5 198t-192.5 77t-193 -77.5t-74 -197.5zM237 708q2 37 23 61t53 24q38 0 67 -33q24 -26 46 -26
q36 0 40 47h37q-1 -37 -21 -60.5t-56 -23.5q-39 0 -68 33q-24 26 -44 26q-18 0 -28.5 -14.5t-10.5 -33.5h-38z" />
    <glyph glyph-name="Odieresis" unicode="&#xd6;" horiz-adv-x="754" 
d="M136 565q90 93 234 93t234 -93.5t90 -239.5t-90 -239q-90 -94 -234 -94t-234.5 93.5t-90.5 239.5t91 240zM103 325q0 -120 74 -197q74 -78 193 -78t192.5 77t73.5 198t-73.5 198t-192.5 77t-193 -77.5t-74 -197.5zM250 738q0 14 10 23t23 9t22.5 -9t9.5 -23t-10 -23.5
t-22 -9.5q-13 0 -23 9.5t-10 23.5zM436 761q10 9 23 9t22.5 -9t9.5 -23t-10 -23.5t-22 -9.5q-13 0 -23 9.5t-10 23.5t10 23z" />
    <glyph glyph-name="multiply" unicode="&#xd7;" horiz-adv-x="442" 
d="M367 443l-121 -121l120 -120l-35 -35l-120 120l-120 -120l-35 33l121 121l-122 121l35 35l121 -121l121 121z" />
    <glyph glyph-name="Oslash" unicode="&#xd8;" horiz-adv-x="754" 
d="M591 577q103 -95 103 -252q0 -146 -90 -239.5t-234 -93.5q-109 0 -191 57l-38 -49h-55l59 76q-100 95 -100 249q0 146 90.5 239.5t234.5 93.5q107 0 187 -55l43 55h55zM103 325q0 -125 78 -203l340 435q-63 43 -151 43q-120 0 -193.5 -77t-73.5 -198zM370 50
q120 0 193 77t73 198q0 129 -81 205l-340 -435q65 -45 155 -45z" />
    <glyph glyph-name="Ugrave" unicode="&#xd9;" horiz-adv-x="614" 
d="M113 650v-421q0 -84 49.5 -132t134.5 -48t134.5 48t49.5 132v421h58v-425q0 -103 -65 -168t-177 -65t-177 65t-65 168v425h58zM235 803h53l43 -93h-49z" />
    <glyph glyph-name="Uacute" unicode="&#xda;" horiz-adv-x="614" 
d="M55 225v425h58v-421q0 -84 49.5 -132t134.5 -48t134.5 48t49.5 132v421h58v-425q0 -103 -65 -168t-177 -65t-177 65t-65 168zM280 710l43 93h53l-47 -93h-49z" />
    <glyph glyph-name="Ucircumflex" unicode="&#xdb;" horiz-adv-x="614" 
d="M55 225v425h58v-421q0 -84 49.5 -132t134.5 -48t134.5 48t49.5 132v421h58v-425q0 -103 -65 -168t-177 -65t-177 65t-65 168zM213 710l58 93h68l58 -93h-51l-41 68l-41 -68h-51z" />
    <glyph glyph-name="Udieresis" unicode="&#xdc;" horiz-adv-x="614" 
d="M55 650h58v-421q0 -84 49.5 -132t134.5 -48t134.5 48t49.5 132v421h58v-425q0 -103 -65 -168t-177 -65t-177 65t-65 168v425zM185 738q0 14 10 23t23 9t22.5 -9t9.5 -23t-10 -23.5t-22 -9.5q-13 0 -23 9.5t-10 23.5zM371 761q10 9 23 9t22.5 -9t9.5 -23t-10 -23.5
t-22 -9.5q-13 0 -23 9.5t-10 23.5t10 23z" />
    <glyph glyph-name="Yacute" unicode="&#xdd;" horiz-adv-x="576" 
d="M16 650h68l194 -302l195 302h68l-233 -360v-290h-58v288zM254 710l43 93h53l-47 -93h-49z" />
    <glyph glyph-name="germandbls" unicode="&#xdf;" horiz-adv-x="518" 
d="M365 345q50 -20 79 -64t29 -101q0 -78 -52 -129t-137 -51h-126v52h116q61 0 102 35t41 93q0 59 -40.5 94t-102.5 35h-116v49h98q62 0 100.5 34t38.5 89q0 60 -38.5 95t-98.5 35q-68 0 -107 -35.5t-39 -97.5v-478h-57v480q0 84 56 132.5t147 48.5q82 0 136.5 -47
t54.5 -128q0 -100 -84 -141z" />
    <glyph glyph-name="agrave" unicode="&#xe0;" 
d="M106 401q63 66 163 66q125 0 184 -103v96h55v-460h-55v96q-28 -49 -75.5 -76.5t-108.5 -27.5q-99 0 -162.5 67.5t-63.5 170.5q0 104 63 171zM146 97q49 -52 129 -52t129 51.5t49 133.5t-49 133.5t-129 51.5t-129.5 -52t-49.5 -133t50 -133zM275 620l43 -93h-49l-47 93h53
z" />
    <glyph glyph-name="aacute" unicode="&#xe1;" 
d="M43 230q0 104 63 170.5t163 66.5q125 0 184 -103v96h55v-460h-55v96q-28 -49 -75.5 -76.5t-108.5 -27.5q-99 0 -162.5 67.5t-63.5 170.5zM96 230q0 -81 50 -133q49 -52 129 -52t129 51.5t49 133.5t-49 133.5t-129 51.5t-129.5 -52t-49.5 -133zM267 527l43 93h53l-47 -93
h-49z" />
    <glyph glyph-name="acircumflex" unicode="&#xe2;" 
d="M106 401q63 66 163 66q125 0 184 -103v96h55v-460h-55v96q-28 -49 -75.5 -76.5t-108.5 -27.5q-99 0 -162.5 67.5t-63.5 170.5q0 104 63 171zM96 230q0 -81 50 -133q49 -52 129 -52t129 51.5t49 133.5t-49 133.5t-129 51.5t-129.5 -52t-49.5 -133zM258 620h68l58 -93h-51
l-41 68l-41 -68h-51z" />
    <glyph glyph-name="atilde" unicode="&#xe3;" 
d="M106 401q63 66 163 66q125 0 184 -103v96h55v-460h-55v96q-28 -49 -75.5 -76.5t-108.5 -27.5q-99 0 -162.5 67.5t-63.5 170.5q0 104 63 171zM96 230q0 -81 50 -133q49 -52 129 -52t129 51.5t49 133.5t-49 133.5t-129 51.5t-129.5 -52t-49.5 -133zM159 525q2 37 23 61
t53 24q38 0 67 -33q24 -26 46 -26q36 0 40 47h37q-1 -37 -21 -60.5t-56 -23.5q-39 0 -68 33q-24 26 -44 26q-18 0 -28.5 -14.5t-10.5 -33.5h-38z" />
    <glyph glyph-name="adieresis" unicode="&#xe4;" 
d="M43 230q0 104 63 170.5t163 66.5q125 0 184 -103v96h55v-460h-55v96q-28 -49 -75.5 -76.5t-108.5 -27.5q-99 0 -162.5 67.5t-63.5 170.5zM146 97q49 -52 129 -52t129 51.5t49 133.5t-49 133.5t-129 51.5t-129.5 -52t-49.5 -133t50 -133zM172 555q0 14 10 23t23 9t22.5 -9
t9.5 -23t-10 -23.5t-22 -9.5q-13 0 -23 9.5t-10 23.5zM358 578q10 9 23 9t22.5 -9t9.5 -23t-10 -23.5t-22 -9.5q-13 0 -23 9.5t-10 23.5t10 23z" />
    <glyph glyph-name="aring" unicode="&#xe5;" 
d="M43 230q0 104 63 170.5t163 66.5q125 0 184 -103v96h55v-460h-55v96q-28 -49 -75.5 -76.5t-108.5 -27.5q-99 0 -162.5 67.5t-63.5 170.5zM96 230q0 -81 50 -133q49 -52 129 -52t129 51.5t49 133.5t-49 133.5t-129 51.5t-129.5 -52t-49.5 -133zM219 590q0 32 21.5 52.5
t52.5 20.5t52 -20.5t21 -52.5q0 -31 -21 -52t-52 -21t-52.5 21t-21.5 52zM264 562q10 -13 29 -13q18 0 28.5 12.5t10.5 28.5t-10.5 29t-28.5 13q-19 0 -29.5 -12.5t-10.5 -29.5q0 -16 11 -28z" />
    <glyph glyph-name="ae" unicode="&#xe6;" horiz-adv-x="925" 
d="M644 467q95 0 157 -67t62 -170v-20h-383q6 -77 51.5 -123t119.5 -46q100 0 150 77l41 -27q-65 -99 -192 -99q-77 0 -134 39t-80 102q-33 -141 -203 -141q-94 0 -142 28t-48 95q0 32 11.5 55.5t36.5 37.5t50.5 22.5t67 12t72.5 4.5t79 1h29q-1 97 -35 135.5t-109 38.5
q-111 0 -143 -78l-46 15q39 108 192 108q82 0 129.5 -34t59.5 -96q25 60 79.5 95t127.5 35zM646 421q-76 0 -119 -47.5t-47 -125.5h331q-4 79 -50 126t-115 47zM231 35q81 0 119 41t39 133h-43q-44 0 -66 -0.5t-57.5 -3t-53 -8t-37.5 -15.5t-28 -26.5t-8 -38.5q0 -46 33 -64
t102 -18z" />
    <glyph glyph-name="ccedilla" unicode="&#xe7;" horiz-adv-x="515" 
d="M108 401q64 66 167 66q122 0 187 -92l-40 -30q-51 70 -146 70q-80 0 -129.5 -51.5t-49.5 -133.5t49.5 -133.5t129.5 -51.5q94 0 146 69l40 -29q-59 -85 -171 -93l-15 -26q29 -3 44 -17.5t15 -34.5q0 -25 -17.5 -40.5t-50.5 -15.5q-31 0 -47 8v36q16 -11 47 -11
q14 0 24 6.5t10 16.5q0 22 -40 22q-16 0 -28 -5v31q1 0 1 1l19 30q-94 7 -152 73t-58 164q0 104 65 171z" />
    <glyph glyph-name="egrave" unicode="&#xe8;" horiz-adv-x="551" 
d="M105 401q62 67 164 67q97 0 158.5 -67.5t61.5 -170.5v-19h-393q6 -77 55 -124t124 -47q101 0 153 76l39 -27q-31 -46 -80.5 -72t-111.5 -26q-103 0 -167.5 67.5t-64.5 171.5t62 171zM437 251q-6 75 -51.5 122.5t-116.5 47.5q-75 0 -121 -46.5t-52 -123.5h341zM252 620
l43 -93h-49l-47 93h53z" />
    <glyph glyph-name="eacute" unicode="&#xe9;" horiz-adv-x="551" 
d="M105 401q62 67 164 67q97 0 158.5 -67.5t61.5 -170.5v-19h-393q6 -77 55 -124t124 -47q101 0 153 76l39 -27q-31 -46 -80.5 -72t-111.5 -26q-103 0 -167.5 67.5t-64.5 171.5t62 171zM437 251q-6 75 -51.5 122.5t-116.5 47.5q-75 0 -121 -46.5t-52 -123.5h341zM287 620h53
l-47 -93h-49z" />
    <glyph glyph-name="ecircumflex" unicode="&#xea;" horiz-adv-x="551" 
d="M43 230q0 104 62 171t164 67q97 0 158.5 -67.5t61.5 -170.5v-19h-393q6 -77 55 -124t124 -47q101 0 153 76l39 -27q-31 -46 -80.5 -72t-111.5 -26q-103 0 -167.5 67.5t-64.5 171.5zM437 251q-6 75 -51.5 122.5t-116.5 47.5q-75 0 -121 -46.5t-52 -123.5h341zM177 527
l58 93h68l58 -93h-51l-41 68l-41 -68h-51z" />
    <glyph glyph-name="edieresis" unicode="&#xeb;" horiz-adv-x="551" 
d="M43 230q0 104 62 171t164 67q97 0 158.5 -67.5t61.5 -170.5v-19h-393q6 -77 55 -124t124 -47q101 0 153 76l39 -27q-31 -46 -80.5 -72t-111.5 -26q-103 0 -167.5 67.5t-64.5 171.5zM96 251h341q-6 75 -51.5 122.5t-116.5 47.5q-75 0 -121 -46.5t-52 -123.5zM149 555
q0 14 10 23t23 9t22.5 -9t9.5 -23t-10 -23.5t-22 -9.5q-13 0 -23 9.5t-10 23.5zM325 555q0 14 10 23t23 9t22.5 -9t9.5 -23t-10 -23.5t-22 -9.5q-13 0 -23 9.5t-10 23.5z" />
    <glyph glyph-name="igrave" unicode="&#xec;" horiz-adv-x="200" 
d="M72 620l43 -93h-49l-47 93h53zM118 0h-55v460h55v-460z" />
    <glyph glyph-name="iacute" unicode="&#xed;" horiz-adv-x="200" 
d="M108 620h53l-47 -93h-49zM118 0h-55v460h55v-460z" />
    <glyph glyph-name="icircumflex" unicode="&#xee;" horiz-adv-x="200" 
d="M118 460v-460h-55v460h55zM55 620h68l58 -93h-51l-41 68l-41 -68h-51z" />
    <glyph glyph-name="idieresis" unicode="&#xef;" horiz-adv-x="200" 
d="M118 460v-460h-55v460h55zM155 578q10 9 23 9t22.5 -9t9.5 -23t-10 -23.5t-22 -9.5q-13 0 -23 9.5t-10 23.5t10 23zM-21 578q10 9 23 9t22.5 -9t9.5 -23t-10 -23.5t-22 -9.5q-13 0 -23 9.5t-10 23.5t10 23z" />
    <glyph glyph-name="ntilde" unicode="&#xf1;" horiz-adv-x="524" 
d="M55 460h55v-69q50 76 154 76q77 0 131 -47t54 -136v-284h-55v277q0 66 -40.5 104t-101.5 38q-62 0 -102 -38t-40 -104v-277h-55v460zM119 525q2 37 23 61t53 24q38 0 67 -33q24 -26 46 -26q36 0 40 47h37q-1 -37 -21 -60.5t-56 -23.5q-39 0 -68 33q-24 26 -44 26
q-18 0 -28.5 -14.5t-10.5 -33.5h-38z" />
    <glyph glyph-name="ograve" unicode="&#xf2;" horiz-adv-x="571" 
d="M108 401q65 67 168 67t167.5 -67t64.5 -171t-64 -171q-65 -68 -168 -68t-168 67.5t-65 171.5t65 171zM148 98q49 -53 128 -53t127.5 52.5t48.5 132.5t-48.5 132.5t-127.5 52.5t-128.5 -52.5t-49.5 -132.5t50 -132zM259 620l43 -93h-49l-47 93h53z" />
    <glyph glyph-name="oacute" unicode="&#xf3;" horiz-adv-x="571" 
d="M43 230q0 104 65 171t168 67t167.5 -67t64.5 -171t-64 -171q-65 -68 -168 -68t-168 67.5t-65 171.5zM98 230q0 -80 50 -132q49 -53 128 -53t127.5 52.5t48.5 132.5t-48.5 132.5t-127.5 52.5t-128.5 -52.5t-49.5 -132.5zM251 527l43 93h53l-47 -93h-49z" />
    <glyph glyph-name="ocircumflex" unicode="&#xf4;" horiz-adv-x="571" 
d="M108 401q65 67 168 67t167.5 -67t64.5 -171t-64 -171q-65 -68 -168 -68t-168 67.5t-65 171.5t65 171zM98 230q0 -80 50 -132q49 -53 128 -53t127.5 52.5t48.5 132.5t-48.5 132.5t-127.5 52.5t-128.5 -52.5t-49.5 -132.5zM184 527l58 93h68l58 -93h-51l-41 68l-41 -68h-51
z" />
    <glyph glyph-name="otilde" unicode="&#xf5;" horiz-adv-x="571" 
d="M43 230q0 104 65 171t168 67t167.5 -67t64.5 -171t-64 -171q-65 -68 -168 -68t-168 67.5t-65 171.5zM98 230q0 -80 50 -132q49 -53 128 -53t127.5 52.5t48.5 132.5t-48.5 132.5t-127.5 52.5t-128.5 -52.5t-49.5 -132.5zM143 525q2 37 23 61t53 24q38 0 67 -33
q24 -26 46 -26q36 0 40 47h37q-1 -37 -21 -60.5t-56 -23.5q-39 0 -68 33q-24 26 -44 26q-18 0 -28.5 -14.5t-10.5 -33.5h-38z" />
    <glyph glyph-name="odieresis" unicode="&#xf6;" horiz-adv-x="571" 
d="M108 401q65 67 168 67t167.5 -67t64.5 -171t-64 -171q-65 -68 -168 -68t-168 67.5t-65 171.5t65 171zM98 230q0 -80 50 -132q49 -53 128 -53t127.5 52.5t48.5 132.5t-48.5 132.5t-127.5 52.5t-128.5 -52.5t-49.5 -132.5zM156 555q0 14 10 23t23 9t22.5 -9t9.5 -23
t-10 -23.5t-22 -9.5q-13 0 -23 9.5t-10 23.5zM342 578q10 9 23 9t22.5 -9t9.5 -23t-10 -23.5t-22 -9.5q-13 0 -23 9.5t-10 23.5t10 23z" />
    <glyph glyph-name="divide" unicode="&#xf7;" horiz-adv-x="507" 
d="M244 442q-15 0 -25.5 10t-10.5 25q0 16 10.5 26t25.5 10t25 -10t10 -26q0 -15 -10 -25t-25 -10zM55 345h377v-46h-377v46zM244 132q-15 0 -25.5 10t-10.5 25t10.5 25t25.5 10t25 -10t10 -25t-10 -25t-25 -10z" />
    <glyph glyph-name="oslash" unicode="&#xf8;" horiz-adv-x="571" 
d="M432 412q76 -68 76 -182q0 -104 -64.5 -171.5t-167.5 -67.5q-80 0 -138 42l-26 -33h-32l38 49q-75 69 -75 181q0 104 65 171t168 67q77 0 137 -41l25 33h32zM98 230q0 -85 54 -137l227 291q-43 31 -103 31q-79 0 -128.5 -52.5t-49.5 -132.5zM276 45q79 0 127.5 52.5
t48.5 132.5q0 86 -54 138l-226 -291q45 -32 104 -32z" />
    <glyph glyph-name="ugrave" unicode="&#xf9;" horiz-adv-x="524" 
d="M110 460v-278q0 -66 40.5 -104t101.5 -38q62 0 102 38t40 104v278h55v-460h-55v68q-50 -76 -154 -76q-77 0 -131 47t-54 136v285h55zM243 620l43 -93h-49l-47 93h53z" />
    <glyph glyph-name="uacute" unicode="&#xfa;" horiz-adv-x="524" 
d="M110 460v-278q0 -66 40.5 -104t101.5 -38q62 0 102 38t40 104v278h55v-460h-55v68q-50 -76 -154 -76q-77 0 -131 47t-54 136v285h55zM278 620h53l-47 -93h-49z" />
    <glyph glyph-name="ucircumflex" unicode="&#xfb;" horiz-adv-x="524" 
d="M110 460v-278q0 -66 40.5 -104t101.5 -38q62 0 102 38t40 104v278h55v-460h-55v68q-50 -76 -154 -76q-77 0 -131 47t-54 136v285h55zM168 527l58 93h68l58 -93h-51l-41 68l-41 -68h-51z" />
    <glyph glyph-name="udieresis" unicode="&#xfc;" horiz-adv-x="524" 
d="M110 460v-278q0 -66 40.5 -104t101.5 -38q62 0 102 38t40 104v278h55v-460h-55v68q-50 -76 -154 -76q-77 0 -131 47t-54 136v285h55zM140 555q0 14 10 23t23 9t22.5 -9t9.5 -23t-10 -23.5t-22 -9.5q-13 0 -23 9.5t-10 23.5zM316 555q0 14 10 23t23 9t22.5 -9t9.5 -23
t-10 -23.5t-22 -9.5q-13 0 -23 9.5t-10 23.5z" />
    <glyph glyph-name="yacute" unicode="&#xfd;" horiz-adv-x="479" 
d="M15 460h58l151 -384l153 384h57l-256 -644h-55l73 184zM209 527l43 93h53l-47 -93h-49z" />
    <glyph glyph-name="ydieresis" unicode="&#xff;" horiz-adv-x="479" 
d="M73 460l151 -384l153 384h57l-256 -644h-55l73 184l-181 460h58zM114 555q0 14 10 23t23 9t22.5 -9t9.5 -23t-10 -23.5t-22 -9.5q-13 0 -23 9.5t-10 23.5zM290 555q0 14 10 23t23 9t22.5 -9t9.5 -23t-10 -23.5t-22 -9.5q-13 0 -23 9.5t-10 23.5z" />
    <glyph glyph-name="Amacron" unicode="&#x100;" horiz-adv-x="642" 
d="M25 0l269 650h44l269 -650h-62l-73 178h-312l-73 -178h-62zM450 232l-134 328l-134 -328h268zM399 749v-40h-166v40h166z" />
    <glyph glyph-name="amacron" unicode="&#x101;" 
d="M43 230q0 104 63 170.5t163 66.5q125 0 184 -103v96h55v-460h-55v96q-28 -49 -75.5 -76.5t-108.5 -27.5q-99 0 -162.5 67.5t-63.5 170.5zM96 230q0 -81 50 -133q49 -52 129 -52t129 51.5t49 133.5t-49 133.5t-129 51.5t-129.5 -52t-49.5 -133zM209 526v40h166v-40h-166z
" />
    <glyph glyph-name="Abreve" unicode="&#x102;" horiz-adv-x="642" 
d="M294 650h44l269 -650h-62l-73 178h-312l-73 -178h-62zM182 232h268l-134 328zM268 794v-3q0 -20 13 -34t35 -14q21 0 34 14t13 34v3h37v-3q0 -37 -24 -60t-60 -23q-37 0 -61.5 23t-24.5 60v3h38z" />
    <glyph glyph-name="abreve" unicode="&#x103;" 
d="M43 230q0 104 63 170.5t163 66.5q125 0 184 -103v96h55v-460h-55v96q-28 -49 -75.5 -76.5t-108.5 -27.5q-99 0 -162.5 67.5t-63.5 170.5zM146 97q49 -52 129 -52t129 51.5t49 133.5t-49 133.5t-129 51.5t-129.5 -52t-49.5 -133t50 -133zM206 610h38v-3q0 -20 13 -34
t35 -14q21 0 34 14t13 34v3h37v-3q0 -37 -24 -60t-60 -23q-37 0 -61.5 23t-24.5 60v3z" />
    <glyph glyph-name="Aogonek" unicode="&#x104;" horiz-adv-x="642" 
d="M294 650h44l269 -650h-28q-30 -25 -30 -52q0 -13 7 -16.5t13 -3.5q11 0 30 6v-37q-18 -5 -32 -5q-20 0 -39 11.5t-19 38.5q0 34 35 61l-72 175h-312l-73 -178h-62zM450 232l-134 328l-134 -328h268z" />
    <glyph glyph-name="aogonek" unicode="&#x105;" 
d="M43 230q0 104 63 170.5t163 66.5q125 0 184 -103v96h55v-454h1q-1 0 -1 -1v-5h-8q-36 -28 -36 -57q0 -13 7.5 -16.5t13.5 -3.5q11 0 29 6v-37q-18 -5 -32 -5q-20 0 -39 11.5t-19 38.5q0 36 38 63h-9v96q-28 -49 -75.5 -76.5t-108.5 -27.5q-99 0 -162.5 67.5t-63.5 170.5z
M146 97q49 -52 129 -52t129 51.5t49 133.5t-49 133.5t-129 51.5t-129.5 -52t-49.5 -133t50 -133z" />
    <glyph glyph-name="Cacute" unicode="&#x106;" horiz-adv-x="687" 
d="M136 565q90 93 234 93q172 0 263 -131l-47 -33q-75 106 -216 106q-119 0 -193 -77.5t-74 -197.5t74 -197.5t193 -77.5q69 0 125 29t91 78l47 -34q-91 -131 -263 -131q-144 0 -234.5 93.5t-90.5 239.5t91 240zM342 712l43 93h53l-47 -93h-49z" />
    <glyph glyph-name="cacute" unicode="&#x107;" horiz-adv-x="515" 
d="M43 230q0 104 64.5 170.5t167.5 66.5q122 0 187 -92l-40 -30q-51 70 -146 70q-80 0 -129.5 -51.5t-49.5 -133.5t49.5 -133.5t129.5 -51.5q94 0 146 69l40 -29q-64 -93 -187 -93q-103 0 -167.5 67t-64.5 171zM293 620h53l-47 -93h-49z" />
    <glyph glyph-name="Cdotaccent" unicode="&#x10a;" horiz-adv-x="687" 
d="M45 325q0 146 90.5 239.5t234.5 93.5q172 0 263 -131l-47 -33q-75 106 -216 106q-119 0 -193 -77.5t-74 -197.5t74 -197.5t193 -77.5q69 0 125 29t91 78l47 -34q-91 -131 -263 -131q-144 0 -234.5 93.5t-90.5 239.5zM335 740q0 14 10 23t23 9t22.5 -9t9.5 -23t-10 -23.5
t-22 -9.5q-13 0 -23 9.5t-10 23.5z" />
    <glyph glyph-name="cdotaccent" unicode="&#x10b;" horiz-adv-x="515" 
d="M43 230q0 104 64.5 170.5t167.5 66.5q122 0 187 -92l-40 -30q-51 70 -146 70q-80 0 -129.5 -51.5t-49.5 -133.5t49.5 -133.5t129.5 -51.5q94 0 146 69l40 -29q-64 -93 -187 -93q-103 0 -167.5 67t-64.5 171zM243 555q0 14 10 23t23 9t22.5 -9t9.5 -23t-10 -23.5t-22 -9.5
q-13 0 -23 9.5t-10 23.5z" />
    <glyph glyph-name="Ccaron" unicode="&#x10c;" horiz-adv-x="687" 
d="M45 325q0 146 90.5 239.5t234.5 93.5q172 0 263 -131l-47 -33q-75 106 -216 106q-119 0 -193 -77.5t-74 -197.5t74 -197.5t193 -77.5q69 0 125 29t91 78l47 -34q-91 -131 -263 -131q-144 0 -234.5 93.5t-90.5 239.5zM326 805l41 -67l41 67h51l-58 -93h-68l-58 93h51z" />
    <glyph glyph-name="ccaron" unicode="&#x10d;" horiz-adv-x="515" 
d="M108 401q64 66 167 66q122 0 187 -92l-40 -30q-51 70 -146 70q-80 0 -129.5 -51.5t-49.5 -133.5t49.5 -133.5t129.5 -51.5q94 0 146 69l40 -29q-64 -93 -187 -93q-103 0 -167.5 67t-64.5 171t65 171zM183 620h51l41 -67l41 67h51l-58 -93h-68z" />
    <glyph glyph-name="Dcaron" unicode="&#x10e;" horiz-adv-x="650" 
d="M55 0v650h214q144 0 232.5 -90t88.5 -235t-88.5 -235t-232.5 -90h-214zM269 57q112 0 187.5 71.5t75.5 196.5t-75.5 197t-187.5 72h-156v-537h156zM167 804h51l41 -67l41 67h51l-58 -93h-68z" />
    <glyph glyph-name="dcaron" unicode="&#x10f;" 
d="M106 401q63 66 163 66q125 0 184 -103v286h55v-650h-55v96q-28 -49 -75.5 -76.5t-108.5 -27.5q-99 0 -162.5 67.5t-63.5 170.5q0 104 63 171zM146 97q49 -52 129 -52t129 51.5t49 133.5t-49 133.5t-129 51.5t-129.5 -52t-49.5 -133t50 -133zM440 803l41 -67l41 67h51
l-58 -93h-68l-58 93h51z" />
    <glyph glyph-name="Dcroat" unicode="&#x110;" horiz-adv-x="651" 
d="M269 650q144 0 233 -90t89 -235t-89 -235t-233 -90h-214v295h-54v54h54v301h214zM270 57q112 0 188 72t76 196q-1 124 -77 196t-187 72h-157v-244h141v-54h-141v-238h157z" />
    <glyph glyph-name="Emacron" unicode="&#x112;" horiz-adv-x="540" 
d="M55 650h415v-54h-357v-245h336v-54h-336v-243h357v-54h-415v650zM353 749v-40h-166v40h166z" />
    <glyph glyph-name="emacron" unicode="&#x113;" horiz-adv-x="551" 
d="M105 401q62 67 164 67q97 0 158.5 -67.5t61.5 -170.5v-19h-393q6 -77 55 -124t124 -47q101 0 153 76l39 -27q-31 -46 -80.5 -72t-111.5 -26q-103 0 -167.5 67.5t-64.5 171.5t62 171zM437 251q-6 75 -51.5 122.5t-116.5 47.5q-75 0 -121 -46.5t-52 -123.5h341zM352 566
v-40h-166v40h166z" />
    <glyph glyph-name="Edotaccent" unicode="&#x116;" horiz-adv-x="540" 
d="M55 650h415v-54h-357v-245h336v-54h-336v-243h357v-54h-415v650zM238 738q0 14 10 23t23 9t22.5 -9t9.5 -23t-10 -23.5t-22 -9.5q-13 0 -23 9.5t-10 23.5z" />
    <glyph glyph-name="edotaccent" unicode="&#x117;" horiz-adv-x="551" 
d="M105 401q62 67 164 67q97 0 158.5 -67.5t61.5 -170.5v-19h-393q6 -77 55 -124t124 -47q101 0 153 76l39 -27q-31 -46 -80.5 -72t-111.5 -26q-103 0 -167.5 67.5t-64.5 171.5t62 171zM96 251h341q-6 75 -51.5 122.5t-116.5 47.5q-75 0 -121 -46.5t-52 -123.5zM237 555
q0 14 10 23t23 9t22.5 -9t9.5 -23t-10 -23.5t-22 -9.5q-13 0 -23 9.5t-10 23.5z" />
    <glyph glyph-name="Eogonek" unicode="&#x118;" horiz-adv-x="540" 
d="M55 650h415v-54h-357v-245h336v-54h-336v-243h357v-54h-14q-38 -27 -38 -58q0 -13 7.5 -16.5t13.5 -3.5q11 0 29 6v-37q-18 -5 -32 -5q-20 0 -39 11.5t-19 38.5q0 37 40 64h-363v650z" />
    <glyph glyph-name="eogonek" unicode="&#x119;" horiz-adv-x="551" 
d="M43 230q0 104 62 171t164 67q97 0 158.5 -67.5t61.5 -170.5v-19h-393q6 -77 55 -124t124 -47q101 0 153 76l39 -27q-59 -88 -169 -97q-39 -30 -39 -59q0 -13 7 -16.5t13 -3.5q11 0 30 6v-37q-18 -5 -32 -5q-20 0 -39 11.5t-19 38.5q0 37 40 64q-97 6 -156.5 72.5
t-59.5 166.5zM437 251q-6 75 -51.5 122.5t-116.5 47.5q-75 0 -121 -46.5t-52 -123.5h341z" />
    <glyph glyph-name="Ecaron" unicode="&#x11a;" horiz-adv-x="540" 
d="M55 650h415v-54h-357v-245h336v-54h-336v-243h357v-54h-415v650zM178 803h51l41 -67l41 67h51l-58 -93h-68z" />
    <glyph glyph-name="ecaron" unicode="&#x11b;" horiz-adv-x="551" 
d="M43 230q0 104 62 171t164 67q97 0 158.5 -67.5t61.5 -170.5v-19h-393q6 -77 55 -124t124 -47q101 0 153 76l39 -27q-31 -46 -80.5 -72t-111.5 -26q-103 0 -167.5 67.5t-64.5 171.5zM437 251q-6 75 -51.5 122.5t-116.5 47.5q-75 0 -121 -46.5t-52 -123.5h341zM228 620
l41 -67l41 67h51l-58 -93h-68l-58 93h51z" />
    <glyph glyph-name="Gbreve" unicode="&#x11e;" horiz-adv-x="747" 
d="M136 565q90 93 234 93q85 0 152.5 -34.5t110.5 -95.5l-48 -33q-75 105 -215 105q-119 0 -193 -77.5t-74 -197.5t74 -197.5t193 -77.5q104 0 171 62.5t78 166.5h-251v54h314v-23q-5 -141 -89 -229.5t-223 -88.5q-144 0 -234.5 93.5t-90.5 239.5t91 240zM287 794h38v-3
q0 -20 13 -34t35 -14q21 0 34 14t13 34v3h37v-3q0 -37 -24 -60t-60 -23q-37 0 -61.5 23t-24.5 60v3z" />
    <glyph glyph-name="gbreve" unicode="&#x11f;" 
d="M107 400q63 67 162 67q125 0 184 -103v96h55v-425q0 -99 -66 -161t-174 -62q-122 0 -189 80l38 32q57 -64 151 -64q78 0 131.5 46t53.5 129v61q-28 -49 -75.5 -76.5t-108.5 -27.5q-99 0 -162.5 67.5t-63.5 170.5t64 170zM96 230q0 -82 50 -133q49 -52 129 -52t129 51.5
t49 133.5t-49 133.5t-129 51.5t-129.5 -51.5t-49.5 -133.5zM192 607v3h38v-3q0 -20 13 -34t35 -14q21 0 34 14t13 34v3h37v-3q0 -37 -24 -60t-60 -23q-37 0 -61.5 23t-24.5 60z" />
    <glyph glyph-name="Gdotaccent" unicode="&#x120;" horiz-adv-x="747" 
d="M45 325q0 146 90.5 239.5t234.5 93.5q85 0 152.5 -34.5t110.5 -95.5l-48 -33q-75 105 -215 105q-119 0 -193 -77.5t-74 -197.5t74 -197.5t193 -77.5q104 0 171 62.5t78 166.5h-251v54h314v-23q-5 -141 -89 -229.5t-223 -88.5q-144 0 -234.5 93.5t-90.5 239.5zM341 738
q0 14 10 23t23 9t22.5 -9t9.5 -23t-10 -23.5t-22 -9.5q-13 0 -23 9.5t-10 23.5z" />
    <glyph glyph-name="gdotaccent" unicode="&#x121;" 
d="M43 230q0 103 63.5 170t162.5 67q125 0 184 -103v96h55v-425q0 -99 -66 -161t-174 -62q-122 0 -189 80l38 32q57 -64 151 -64q78 0 131.5 46t53.5 129v61q-28 -49 -75.5 -76.5t-108.5 -27.5q-99 0 -162.5 67.5t-63.5 170.5zM96 230q0 -82 50 -133q49 -52 129 -52
t129 51.5t49 133.5t-49 133.5t-129 51.5t-129.5 -51.5t-49.5 -133.5zM246 555q0 14 10 23t23 9t22.5 -9t9.5 -23t-10 -23.5t-22 -9.5q-13 0 -23 9.5t-10 23.5z" />
    <glyph glyph-name="uni0122" unicode="&#x122;" horiz-adv-x="747" 
d="M45 325q0 146 90.5 239.5t234.5 93.5q85 0 152.5 -34.5t110.5 -95.5l-48 -33q-75 105 -215 105q-119 0 -193 -77.5t-74 -197.5t74 -197.5t193 -77.5q104 0 171 62.5t78 166.5h-251v54h314v-23q-5 -141 -89 -229.5t-223 -88.5q-144 0 -234.5 93.5t-90.5 239.5zM306 -155
l44 92h52l-48 -92h-48z" />
    <glyph glyph-name="uni0123" unicode="&#x123;" 
d="M43 230q0 103 63.5 170t162.5 67q125 0 184 -103v96h55v-425q0 -99 -66 -161t-174 -62q-122 0 -189 80l38 32q57 -64 151 -64q78 0 131.5 46t53.5 129v61q-28 -49 -75.5 -76.5t-108.5 -27.5q-99 0 -162.5 67.5t-63.5 170.5zM96 230q0 -82 50 -133q49 -52 129 -52
t129 51.5t49 133.5t-49 133.5t-129 51.5t-129.5 -51.5t-49.5 -133.5zM247 568q2 6 6.5 13t7.5 11t9 11t7 9h32l-21 -28q22 -7 22 -30q0 -13 -9 -22t-23 -9t-23.5 9.5t-9.5 21.5q0 7 2 14z" />
    <glyph glyph-name="Itilde" unicode="&#x128;" horiz-adv-x="188" 
d="M113 650v-650h-58v650h58zM-49 708q2 37 23 61t53 24q38 0 67 -33q24 -26 46 -26q36 0 40 47h37q-1 -37 -21 -60.5t-56 -23.5q-39 0 -68 33q-24 26 -44 26q-18 0 -28.5 -14.5t-10.5 -33.5h-38z" />
    <glyph glyph-name="itilde" unicode="&#x129;" horiz-adv-x="200" 
d="M118 460v-460h-55v460h55zM-43 525q2 37 23 61t53 24q38 0 67 -33q24 -26 46 -26q36 0 40 47h37q-1 -37 -21 -60.5t-56 -23.5q-39 0 -68 33q-24 26 -44 26q-18 0 -28.5 -14.5t-10.5 -33.5h-38z" />
    <glyph glyph-name="Imacron" unicode="&#x12a;" horiz-adv-x="188" 
d="M1 749h166v-40h-166v40zM113 0h-58v650h58v-650z" />
    <glyph glyph-name="imacron" unicode="&#x12b;" horiz-adv-x="200" 
d="M7 566h166v-40h-166v40zM118 0h-55v460h55v-460z" />
    <glyph glyph-name="Iogonek" unicode="&#x12e;" horiz-adv-x="188" 
d="M28 -64q0 37 40 64h-13v650h58v-650h-7q-38 -27 -38 -58q0 -13 7.5 -16.5t13.5 -3.5q11 0 29 6v-37q-18 -5 -32 -5q-20 0 -39 11.5t-19 38.5z" />
    <glyph glyph-name="iogonek" unicode="&#x12f;" horiz-adv-x="200" 
d="M33 -65q0 38 41 65h-11v460h55v-460h-6q-39 -30 -39 -59q0 -13 7 -16.5t13 -3.5q11 0 30 6v-37q-18 -5 -32 -5q-20 0 -39 11.5t-19 38.5zM68 578q10 9 23 9t22.5 -9t9.5 -23t-10 -23.5t-22 -9.5q-13 0 -23 9.5t-10 23.5t10 23z" />
    <glyph glyph-name="Idotaccent" unicode="&#x130;" horiz-adv-x="188" 
d="M55 650h58v-650h-58v650zM62 761q10 9 23 9t22.5 -9t9.5 -23t-10 -23.5t-22 -9.5q-13 0 -23 9.5t-10 23.5t10 23z" />
    <glyph glyph-name="dotlessi" unicode="&#x131;" horiz-adv-x="200" 
d="M118 0h-55v460h55v-460z" />
    <glyph glyph-name="uni0136" unicode="&#x136;" horiz-adv-x="523" 
d="M55 0v650h58v-303l292 303h70l-311 -325l324 -325h-71l-304 304v-304h-58zM231 -62h52l-48 -92h-48z" />
    <glyph glyph-name="uni0137" unicode="&#x137;" horiz-adv-x="453" 
d="M110 650v-393l219 203h68l-235 -218l256 -242h-68l-240 227v-227h-55v650h55zM157 -154l44 92h52l-48 -92h-48z" />
    <glyph glyph-name="Lacute" unicode="&#x139;" horiz-adv-x="523" 
d="M102 803h53l-47 -93h-49zM113 54h355v-54h-413v650h58v-596z" />
    <glyph glyph-name="lacute" unicode="&#x13a;" horiz-adv-x="185" 
d="M101 803h53l-47 -93h-49zM110 0h-55v650h55v-650z" />
    <glyph glyph-name="uni013B" unicode="&#x13b;" horiz-adv-x="523" 
d="M113 54h355v-54h-413v650h58v-596zM238 -62h52l-48 -92h-48z" />
    <glyph glyph-name="uni013C" unicode="&#x13c;" horiz-adv-x="185" 
d="M110 0h-55v650h55v-650zM59 -62h52l-48 -92h-48z" />
    <glyph glyph-name="Lcaron" unicode="&#x13d;" horiz-adv-x="523" 
d="M55 650h58v-596h355v-54h-413v650zM42 803l41 -67l41 67h51l-58 -93h-68l-58 93h51z" />
    <glyph glyph-name="lcaron" unicode="&#x13e;" horiz-adv-x="185" 
d="M110 650v-650h-55v650h55zM41 803l41 -67l41 67h51l-58 -93h-68l-58 93h51z" />
    <glyph glyph-name="Lslash" unicode="&#x141;" horiz-adv-x="522" 
d="M113 54h354v-54h-412v312l-54 -19v56l54 19v282h58v-261l143 51v-55l-143 -52v-279z" />
    <glyph glyph-name="lslash" unicode="&#x142;" horiz-adv-x="185" 
d="M174 398v-48l-64 -23v-327h-55v308l-52 -19v48l52 19v294h55v-275z" />
    <glyph glyph-name="Nacute" unicode="&#x143;" horiz-adv-x="621" 
d="M112 650l376 -552v552h58v-650h-57l-375 551v-551h-58v650h56zM327 803h53l-47 -93h-49z" />
    <glyph glyph-name="nacute" unicode="&#x144;" horiz-adv-x="524" 
d="M55 460h55v-69q50 76 154 76q77 0 131 -47t54 -136v-284h-55v277q0 66 -40.5 104t-101.5 38q-62 0 -102 -38t-40 -104v-277h-55v460zM270 620h53l-47 -93h-49z" />
    <glyph glyph-name="uni0145" unicode="&#x145;" horiz-adv-x="621" 
d="M56 650h56l376 -552v552h58v-650h-57l-375 551v-551h-58v650zM242 -154l44 92h52l-48 -92h-48z" />
    <glyph glyph-name="uni0146" unicode="&#x146;" horiz-adv-x="524" 
d="M55 460h55v-69q50 76 154 76q77 0 131 -47t54 -136v-284h-55v277q0 66 -40.5 104t-101.5 38q-62 0 -102 -38t-40 -104v-277h-55v460zM185 -154l44 92h52l-48 -92h-48z" />
    <glyph glyph-name="Ncaron" unicode="&#x147;" horiz-adv-x="621" 
d="M56 650h56l376 -552v552h58v-650h-57l-375 551v-551h-58v650zM268 803l41 -67l41 67h51l-58 -93h-68l-58 93h51z" />
    <glyph glyph-name="ncaron" unicode="&#x148;" horiz-adv-x="524" 
d="M55 460h55v-69q50 76 154 76q77 0 131 -47t54 -136v-284h-55v277q0 66 -40.5 104t-101.5 38q-62 0 -102 -38t-40 -104v-277h-55v460zM160 620h51l41 -67l41 67h51l-58 -93h-68z" />
    <glyph glyph-name="Omacron" unicode="&#x14c;" horiz-adv-x="754" 
d="M45 325q0 146 90.5 239.5t234.5 93.5t234 -93.5t90 -239.5t-90 -239q-90 -94 -234 -94t-234.5 93.5t-90.5 239.5zM177 128q74 -78 193 -78t192.5 77t73.5 198t-73.5 198t-192.5 77t-193 -77.5t-74 -197.5t74 -197zM453 749v-40h-166v40h166z" />
    <glyph glyph-name="omacron" unicode="&#x14d;" horiz-adv-x="571" 
d="M43 230q0 104 65 171t168 67t167.5 -67t64.5 -171t-64 -171q-65 -68 -168 -68t-168 67.5t-65 171.5zM148 98q49 -53 128 -53t127.5 52.5t48.5 132.5t-48.5 132.5t-127.5 52.5t-128.5 -52.5t-49.5 -132.5t50 -132zM359 566v-40h-166v40h166z" />
    <glyph glyph-name="Ohungarumlaut" unicode="&#x150;" horiz-adv-x="754" 
d="M136 565q90 93 234 93t234 -93.5t90 -239.5t-90 -239q-90 -94 -234 -94t-234.5 93.5t-90.5 239.5t91 240zM177 128q74 -78 193 -78t192.5 77t73.5 198t-73.5 198t-192.5 77t-193 -77.5t-74 -197.5t74 -197zM452 803h53l-53 -93h-44zM320 803h53l-53 -93h-44z" />
    <glyph glyph-name="ohungarumlaut" unicode="&#x151;" horiz-adv-x="571" 
d="M108 401q65 67 168 67t167.5 -67t64.5 -171t-64 -171q-65 -68 -168 -68t-168 67.5t-65 171.5t65 171zM148 98q49 -53 128 -53t127.5 52.5t48.5 132.5t-48.5 132.5t-127.5 52.5t-128.5 -52.5t-49.5 -132.5t50 -132zM358 620h53l-53 -93h-44zM226 620h53l-53 -93h-44z" />
    <glyph glyph-name="OE" unicode="&#x152;" horiz-adv-x="1110" 
d="M1040 596h-343v-245h322v-54h-322v-243h343v-54h-400v130q-42 -65 -111.5 -101.5t-156.5 -36.5q-144 0 -235.5 94t-91.5 239q0 146 91 239.5t236 93.5q88 0 157 -36.5t111 -101.5v130h400v-54zM372 50q119 0 191.5 77t72.5 198t-72.5 198t-191.5 77q-121 0 -195 -77
t-74 -198t74 -198t195 -77z" />
    <glyph glyph-name="oe" unicode="&#x153;" horiz-adv-x="959" 
d="M677 468q97 0 158 -67t61 -171v-19h-392q5 -77 54 -124t124 -47q103 0 153 76l40 -25q-66 -100 -193 -100q-69 0 -123 32.5t-82 88.5q-28 -56 -81 -88t-122 -32q-102 0 -166.5 67.5t-64.5 170.5t64.5 170t166.5 67q69 0 121.5 -31.5t80.5 -86.5q28 56 80 87.5t121 31.5z
M677 421q-75 0 -121.5 -46.5t-51.5 -123.5h341q-6 75 -52 122.5t-116 47.5zM274 46q79 0 127 51t48 133t-47.5 132.5t-127.5 50.5t-128.5 -50.5t-48.5 -132.5t48.5 -133t128.5 -51z" />
    <glyph glyph-name="Racute" unicode="&#x154;" horiz-adv-x="600" 
d="M352 650q76 0 129 -55t53 -138q0 -82 -51.5 -136.5t-124.5 -56.5l187 -264h-69l-187 264h-176v-264h-58v650h297zM113 321h232q57 0 94 39.5t37 96.5t-37 97t-94 40h-232v-273zM239 710l43 93h53l-47 -93h-49z" />
    <glyph glyph-name="racute" unicode="&#x155;" horiz-adv-x="317" 
d="M55 460h55v-85q50 90 162 92v-52q-67 -2 -114.5 -41.5t-47.5 -113.5v-260h-55v460zM138 527l43 93h53l-47 -93h-49z" />
    <glyph glyph-name="uni0156" unicode="&#x156;" horiz-adv-x="600" 
d="M352 650q76 0 129 -55t53 -138q0 -82 -51.5 -136.5t-124.5 -56.5l187 -264h-69l-187 264h-176v-264h-58v650h297zM113 321h232q57 0 94 39.5t37 96.5t-37 97t-94 40h-232v-273zM202 -154l44 92h52l-48 -92h-48z" />
    <glyph glyph-name="uni0157" unicode="&#x157;" horiz-adv-x="317" 
d="M110 460v-85q50 90 162 92v-52q-67 -2 -114.5 -41.5t-47.5 -113.5v-260h-55v460h55zM58 -62h52l-48 -92h-48z" />
    <glyph glyph-name="Rcaron" unicode="&#x158;" horiz-adv-x="600" 
d="M352 650q76 0 129 -55t53 -138q0 -82 -51.5 -136.5t-124.5 -56.5l187 -264h-69l-187 264h-176v-264h-58v650h297zM113 321h232q57 0 94 39.5t37 96.5t-37 97t-94 40h-232v-273zM223 803l41 -67l41 67h51l-58 -93h-68l-58 93h51z" />
    <glyph glyph-name="rcaron" unicode="&#x159;" horiz-adv-x="317" 
d="M110 460v-85q50 90 162 92v-52q-67 -2 -114.5 -41.5t-47.5 -113.5v-260h-55v460h55zM122 620l41 -67l41 67h51l-58 -93h-68l-58 93h51z" />
    <glyph glyph-name="Sacute" unicode="&#x15a;" horiz-adv-x="598" 
d="M35 136l48 30q20 -53 78.5 -86t140.5 -33q178 0 178 132q0 20 -7 36.5t-22 29t-28.5 21.5t-36.5 17t-36 12t-37.5 10.5t-29.5 7.5q-4 1 -28.5 7t-36 9t-36 11.5t-38 16t-33 21t-29.5 28t-17.5 35t-7.5 44.5q0 85 65.5 130.5t174.5 45.5q87 0 152.5 -35.5t83.5 -90.5
l-49 -26q-14 40 -67.5 67.5t-124.5 27.5q-82 0 -126.5 -30.5t-44.5 -86.5q0 -18 6 -33.5t21 -27t26 -19.5t35 -15.5t34.5 -10.5t38 -9.5t31.5 -7.5q3 -1 26.5 -7t35.5 -9.5t36.5 -13t39.5 -18t34.5 -23t30.5 -29.5t19 -37t8 -46q0 -94 -64 -143t-182 -49q-100 0 -169 40
t-93 107zM315 803h53l-47 -93h-49z" />
    <glyph glyph-name="sacute" unicode="&#x15b;" horiz-adv-x="451" 
d="M33 94l40 23q14 -36 54 -59t96 -23q122 0 122 90q0 14 -4.5 25.5t-15 20t-19.5 14.5t-25 11.5t-24.5 8.5t-26 7t-21.5 5q-2 1 -19 5t-25 6.5t-25.5 8.5t-27.5 11.5t-23.5 15.5t-21 20.5t-13 25.5t-5.5 32q0 61 46.5 94t123.5 33q66 0 112 -25t61 -65l-41 -21
q-10 28 -47 47t-86 19q-55 0 -85 -21t-30 -59q0 -12 4 -22.5t13.5 -18.5t18 -13.5t23 -10.5t23 -7.5t24.5 -6.5t21 -5q2 0 16 -3.5t20 -5.5t20.5 -6.5t23 -8.5t22 -10.5t21.5 -13t18 -16t15 -19.5t9 -23t4 -27q0 -68 -45.5 -103t-130.5 -35q-74 0 -123 28t-67 77zM237 620
h53l-47 -93h-49z" />
    <glyph glyph-name="Scedilla" unicode="&#x15e;" horiz-adv-x="598" 
d="M83 166q20 -53 78.5 -86t140.5 -33q178 0 178 132q0 20 -7 36.5t-22 29t-28.5 21.5t-36.5 17t-36 12t-37.5 10.5t-29.5 7.5q-4 1 -28.5 7t-36 9t-36 11.5t-38 16t-33 21t-29.5 28t-17.5 35t-7.5 44.5q0 85 65.5 130.5t174.5 45.5q87 0 152.5 -35.5t83.5 -90.5l-49 -26
q-14 40 -67.5 67.5t-124.5 27.5q-82 0 -126.5 -30.5t-44.5 -86.5q0 -18 6 -33.5t21 -27t26 -19.5t35 -15.5t34.5 -10.5t38 -9.5t31.5 -7.5q3 -1 26.5 -7t35.5 -9.5t36.5 -13t39.5 -18t34.5 -23t30.5 -29.5t19 -37t8 -46q0 -89 -58.5 -138t-166.5 -54l-16 -29q29 -3 44 -17.5
t15 -34.5q0 -25 -17.5 -40.5t-50.5 -15.5q-31 0 -47 8v36q16 -11 47 -11q14 0 24 6.5t10 16.5q0 22 -40 22q-16 0 -28 -5v31q1 0 1 1l21 32q-94 4 -158.5 43.5t-87.5 103.5z" />
    <glyph glyph-name="scedilla" unicode="&#x15f;" horiz-adv-x="451" 
d="M73 117q14 -36 54 -59t96 -23q122 0 122 90q0 14 -4.5 25.5t-15 20t-19.5 14.5t-25 11.5t-24.5 8.5t-26 7t-21.5 5q-2 1 -19 5t-25 6.5t-25.5 8.5t-27.5 11.5t-23.5 15.5t-21 20.5t-13 25.5t-5.5 32q0 61 46.5 94t123.5 33q66 0 112 -25t61 -65l-41 -21q-10 28 -47 47
t-86 19q-55 0 -85 -21t-30 -59q0 -12 4 -22.5t13.5 -18.5t18 -13.5t23 -10.5t23 -7.5t24.5 -6.5t21 -5q2 0 16 -3.5t20 -5.5t20.5 -6.5t23 -8.5t22 -10.5t21.5 -13t18 -16t15 -19.5t9 -23t4 -27q0 -130 -160 -138l-15 -27q29 -3 44 -17.5t15 -34.5q0 -25 -17.5 -40.5
t-50.5 -15.5q-31 0 -47 8v36q16 -11 47 -11q14 0 24 6.5t10 16.5q0 22 -40 22q-16 0 -28 -5v31q1 0 1 1l20 31q-65 4 -109 31.5t-60 72.5z" />
    <glyph glyph-name="Scaron" unicode="&#x160;" horiz-adv-x="598" 
d="M35 136l48 30q20 -53 78.5 -86t140.5 -33q178 0 178 132q0 20 -7 36.5t-22 29t-28.5 21.5t-36.5 17t-36 12t-37.5 10.5t-29.5 7.5q-4 1 -28.5 7t-36 9t-36 11.5t-38 16t-33 21t-29.5 28t-17.5 35t-7.5 44.5q0 85 65.5 130.5t174.5 45.5q87 0 152.5 -35.5t83.5 -90.5
l-49 -26q-14 40 -67.5 67.5t-124.5 27.5q-82 0 -126.5 -30.5t-44.5 -86.5q0 -18 6 -33.5t21 -27t26 -19.5t35 -15.5t34.5 -10.5t38 -9.5t31.5 -7.5q3 -1 26.5 -7t35.5 -9.5t36.5 -13t39.5 -18t34.5 -23t30.5 -29.5t19 -37t8 -46q0 -94 -64 -143t-182 -49q-100 0 -169 40
t-93 107zM256 803l41 -67l41 67h51l-58 -93h-68l-58 93h51z" />
    <glyph glyph-name="scaron" unicode="&#x161;" horiz-adv-x="451" 
d="M33 94l40 23q14 -36 54 -59t96 -23q122 0 122 90q0 14 -4.5 25.5t-15 20t-19.5 14.5t-25 11.5t-24.5 8.5t-26 7t-21.5 5q-2 1 -19 5t-25 6.5t-25.5 8.5t-27.5 11.5t-23.5 15.5t-21 20.5t-13 25.5t-5.5 32q0 61 46.5 94t123.5 33q66 0 112 -25t61 -65l-41 -21
q-10 28 -47 47t-86 19q-55 0 -85 -21t-30 -59q0 -12 4 -22.5t13.5 -18.5t18 -13.5t23 -10.5t23 -7.5t24.5 -6.5t21 -5q2 0 16 -3.5t20 -5.5t20.5 -6.5t23 -8.5t22 -10.5t21.5 -13t18 -16t15 -19.5t9 -23t4 -27q0 -68 -45.5 -103t-130.5 -35q-74 0 -123 28t-67 77zM178 620
l41 -67l41 67h51l-58 -93h-68l-58 93h51z" />
    <glyph glyph-name="uni0162" unicode="&#x162;" 
d="M528 650v-54h-217v-596h-11l-18 -32q29 -3 44 -17.5t15 -34.5q0 -25 -17.5 -40.5t-50.5 -15.5q-31 0 -47 8v36q16 -11 47 -11q14 0 24 6.5t10 16.5q0 22 -40 22q-16 0 -28 -5v31q1 0 1 1l22 35h-9v596h-218v54h493z" />
    <glyph glyph-name="uni0163" unicode="&#x163;" horiz-adv-x="308" 
d="M25 416v44h66v140h55v-140h115v-44h-115v-307q0 -63 65 -63h45v-46h-43l-17 -31q29 -3 44 -17.5t15 -34.5q0 -25 -17.5 -40.5t-50.5 -15.5q-31 0 -47 8v36q16 -11 47 -11q14 0 24 6.5t10 16.5q0 22 -40 22q-16 0 -28 -5v31q1 0 1 1l22 35q-40 5 -62.5 31t-22.5 70v314
h-66z" />
    <glyph glyph-name="Tcaron" unicode="&#x164;" 
d="M528 650v-54h-217v-596h-58v596h-218v54h493zM190 803h51l41 -67l41 67h51l-58 -93h-68z" />
    <glyph glyph-name="tcaron" unicode="&#x165;" horiz-adv-x="308" 
d="M25 416v44h66v140h55v-140h115v-44h-115v-307q0 -63 65 -63h45v-46h-62q-48 0 -75.5 27t-27.5 75v314h-66zM76 743l41 -67l41 67h51l-58 -93h-68l-58 93h51z" />
    <glyph glyph-name="Tbar" unicode="&#x166;" horiz-adv-x="598" 
d="M528 596h-217v-252h147v-54h-147v-290h-58v290h-148v54h148v252h-218v54h493v-54z" />
    <glyph glyph-name="Utilde" unicode="&#x168;" horiz-adv-x="614" 
d="M113 650v-421q0 -84 49.5 -132t134.5 -48t134.5 48t49.5 132v421h58v-425q0 -103 -65 -168t-177 -65t-177 65t-65 168v425h58zM172 708q2 37 23 61t53 24q38 0 67 -33q24 -26 46 -26q36 0 40 47h37q-1 -37 -21 -60.5t-56 -23.5q-39 0 -68 33q-24 26 -44 26
q-18 0 -28.5 -14.5t-10.5 -33.5h-38z" />
    <glyph glyph-name="utilde" unicode="&#x169;" horiz-adv-x="524" 
d="M110 460v-278q0 -66 40.5 -104t101.5 -38q62 0 102 38t40 104v278h55v-460h-55v68q-50 -76 -154 -76q-77 0 -131 47t-54 136v285h55zM150 586q21 24 53 24q38 0 67 -33q24 -26 46 -26q36 0 40 47h37q-1 -37 -21 -60.5t-56 -23.5q-39 0 -68 33q-24 26 -44 26
q-18 0 -28.5 -14.5t-10.5 -33.5h-38q2 37 23 61z" />
    <glyph glyph-name="Umacron" unicode="&#x16a;" horiz-adv-x="614" 
d="M55 225v425h58v-421q0 -84 49.5 -132t134.5 -48t134.5 48t49.5 132v421h58v-425q0 -103 -65 -168t-177 -65t-177 65t-65 168zM222 709v40h166v-40h-166z" />
    <glyph glyph-name="umacron" unicode="&#x16b;" horiz-adv-x="524" 
d="M110 460v-278q0 -66 40.5 -104t101.5 -38q62 0 102 38t40 104v278h55v-460h-55v68q-50 -76 -154 -76q-77 0 -131 47t-54 136v285h55zM177 566h166v-40h-166v40z" />
    <glyph glyph-name="Uring" unicode="&#x16e;" horiz-adv-x="614" 
d="M55 225v425h58v-421q0 -84 49.5 -132t134.5 -48t134.5 48t49.5 132v421h58v-425q0 -103 -65 -168t-177 -65t-177 65t-65 168zM254 826q21 20 52 20t52 -20.5t21 -52.5q0 -31 -21 -52t-52 -21t-52.5 21t-21.5 52q0 32 22 53zM266 773q0 -16 10.5 -28.5t29.5 -12.5
q18 0 28.5 12.5t10.5 28.5q0 17 -10.5 29.5t-28.5 12.5q-19 0 -29.5 -12.5t-10.5 -29.5z" />
    <glyph glyph-name="uring" unicode="&#x16f;" horiz-adv-x="524" 
d="M55 460h55v-278q0 -66 40.5 -104t101.5 -38q62 0 102 38t40 104v278h55v-460h-55v68q-50 -76 -154 -76q-77 0 -131 47t-54 136v285zM209 643q21 20 52 20t52 -20.5t21 -52.5q0 -31 -21 -52t-52 -21t-52.5 21t-21.5 52q0 32 22 53zM232 562q10 -13 29 -13q18 0 28.5 12.5
t10.5 28.5t-10.5 29t-28.5 13q-19 0 -29.5 -12.5t-10.5 -29.5q0 -16 11 -28z" />
    <glyph glyph-name="Uhungarumlaut" unicode="&#x170;" horiz-adv-x="614" 
d="M55 225v425h58v-421q0 -84 49.5 -132t134.5 -48t134.5 48t49.5 132v421h58v-425q0 -103 -65 -168t-177 -65t-177 65t-65 168zM387 803h53l-53 -93h-44zM211 710l44 93h53l-53 -93h-44z" />
    <glyph glyph-name="uhungarumlaut" unicode="&#x171;" horiz-adv-x="524" 
d="M110 460v-278q0 -66 40.5 -104t101.5 -38q62 0 102 38t40 104v278h55v-460h-55v68q-50 -76 -154 -76q-77 0 -131 47t-54 136v285h55zM342 620h53l-53 -93h-44zM210 620h53l-53 -93h-44z" />
    <glyph glyph-name="Uogonek" unicode="&#x172;" horiz-adv-x="614" 
d="M55 650h58v-421q0 -84 49.5 -132t134.5 -48t134.5 48t49.5 132v421h58v-425q0 -98 -59.5 -162.5t-163.5 -69.5q-32 -27 -32 -54q0 -13 7.5 -16.5t13.5 -3.5q11 0 29 6v-37q-18 -5 -32 -5q-20 0 -39 11.5t-19 38.5q0 34 34 60q-104 6 -163.5 70t-59.5 162v425z" />
    <glyph glyph-name="uogonek" unicode="&#x173;" horiz-adv-x="524" 
d="M110 460v-278q0 -66 40.5 -104t101.5 -38q62 0 102 38t40 104v278h55v-452h1q-1 0 -1 -1v-7h-10q-34 -27 -34 -55q0 -13 7 -16.5t13 -3.5q11 0 30 6v-37q-18 -5 -32 -5q-20 0 -39 11.5t-19 38.5q0 35 36 61h-7v68q-50 -76 -154 -76q-77 0 -131 47t-54 136v285h55z" />
    <glyph glyph-name="Wcircumflex" unicode="&#x174;" horiz-adv-x="944" 
d="M25 650h62l180 -541l180 541h43l179 -536l178 536h62l-217 -650h-48l-177 530l-177 -530h-48zM433 803h68l58 -93h-51l-41 68l-41 -68h-51z" />
    <glyph glyph-name="wcircumflex" unicode="&#x175;" horiz-adv-x="731" 
d="M20 460h58l127 -382l131 382h39l131 -382l128 382h57l-156 -460h-55l-125 365l-126 -365h-55zM326 620h68l58 -93h-51l-41 68l-41 -68h-51z" />
    <glyph glyph-name="Ycircumflex" unicode="&#x176;" horiz-adv-x="576" 
d="M84 650l194 -302l195 302h68l-233 -360v-290h-58v288l-234 362h68zM245 803h68l58 -93h-51l-41 68l-41 -68h-51z" />
    <glyph glyph-name="ycircumflex" unicode="&#x177;" horiz-adv-x="479" 
d="M15 460h58l151 -384l153 384h57l-256 -644h-55l73 184zM200 620h68l58 -93h-51l-41 68l-41 -68h-51z" />
    <glyph glyph-name="Ydieresis" unicode="&#x178;" horiz-adv-x="576" 
d="M16 650h68l194 -302l195 302h68l-233 -360v-290h-58v288zM335 738q0 14 10 23t23 9t22.5 -9t9.5 -23t-10 -23.5t-22 -9.5q-13 0 -23 9.5t-10 23.5zM159 738q0 14 10 23t23 9t22.5 -9t9.5 -23t-10 -23.5t-22 -9.5q-13 0 -23 9.5t-10 23.5z" />
    <glyph glyph-name="Zacute" unicode="&#x179;" horiz-adv-x="538" 
d="M287 803h53l-47 -93h-49zM483 599l-368 -544l361 -1v-54h-431v51l369 545h-362v54h431v-51z" />
    <glyph glyph-name="zacute" unicode="&#x17a;" horiz-adv-x="431" 
d="M224 620h53l-47 -93h-49zM376 460v-44l-272 -368h267v-48h-336v44l273 369h-268v47h336z" />
    <glyph glyph-name="Zdotaccent" unicode="&#x17b;" horiz-adv-x="538" 
d="M45 51l369 545h-362v54h431v-51l-368 -544l361 -1v-54h-431v51zM247 761q10 9 23 9t22.5 -9t9.5 -23t-10 -23.5t-22 -9.5q-13 0 -23 9.5t-10 23.5t10 23z" />
    <glyph glyph-name="zdotaccent" unicode="&#x17c;" horiz-adv-x="431" 
d="M308 413h-268v47h336v-44l-272 -368h267v-48h-336v44zM184 578q10 9 23 9t22.5 -9t9.5 -23t-10 -23.5t-22 -9.5q-13 0 -23 9.5t-10 23.5t10 23z" />
    <glyph glyph-name="Zcaron" unicode="&#x17d;" horiz-adv-x="538" 
d="M45 0v51l369 545h-362v54h431v-51l-368 -544l361 -1v-54h-431zM228 803l41 -67l41 67h51l-58 -93h-68l-58 93h51z" />
    <glyph glyph-name="zcaron" unicode="&#x17e;" horiz-adv-x="431" 
d="M308 413h-268v47h336v-44l-272 -368h267v-48h-336v44zM114 620h51l41 -67l41 67h51l-58 -93h-68z" />
    <glyph glyph-name="uni01CD" unicode="&#x1cd;" horiz-adv-x="642" 
d="M294 650h44l269 -650h-62l-73 178h-312l-73 -178h-62zM450 232l-134 328l-134 -328h268zM275 803l41 -67l41 67h51l-58 -93h-68l-58 93h51z" />
    <glyph glyph-name="uni01CE" unicode="&#x1ce;" 
d="M106 401q63 66 163 66q125 0 184 -103v96h55v-460h-55v96q-28 -49 -75.5 -76.5t-108.5 -27.5q-99 0 -162.5 67.5t-63.5 170.5q0 104 63 171zM96 230q0 -81 50 -133q49 -52 129 -52t129 51.5t49 133.5t-49 133.5t-129 51.5t-129.5 -52t-49.5 -133zM200 620h51l41 -67
l41 67h51l-58 -93h-68z" />
    <glyph glyph-name="uni01CF" unicode="&#x1cf;" horiz-adv-x="188" 
d="M113 650v-650h-58v650h58zM42 803l41 -67l41 67h51l-58 -93h-68l-58 93h51z" />
    <glyph glyph-name="uni01D0" unicode="&#x1d0;" horiz-adv-x="200" 
d="M118 460v-460h-55v460h55zM48 620l41 -67l41 67h51l-58 -93h-68l-58 93h51z" />
    <glyph glyph-name="uni01D1" unicode="&#x1d1;" horiz-adv-x="754" 
d="M136 565q90 93 234 93t234 -93.5t90 -239.5t-90 -239q-90 -94 -234 -94t-234.5 93.5t-90.5 239.5t91 240zM103 325q0 -120 74 -197q74 -78 193 -78t192.5 77t73.5 198t-73.5 198t-192.5 77t-193 -77.5t-74 -197.5zM278 803h51l41 -67l41 67h51l-58 -93h-68z" />
    <glyph glyph-name="uni01D2" unicode="&#x1d2;" horiz-adv-x="571" 
d="M108 401q65 67 168 67t167.5 -67t64.5 -171t-64 -171q-65 -68 -168 -68t-168 67.5t-65 171.5t65 171zM98 230q0 -80 50 -132q49 -53 128 -53t127.5 52.5t48.5 132.5t-48.5 132.5t-127.5 52.5t-128.5 -52.5t-49.5 -132.5zM184 620h51l41 -67l41 67h51l-58 -93h-68z" />
    <glyph glyph-name="uni01D3" unicode="&#x1d3;" horiz-adv-x="614" 
d="M113 650v-421q0 -84 49.5 -132t134.5 -48t134.5 48t49.5 132v421h58v-425q0 -103 -65 -168t-177 -65t-177 65t-65 168v425h58zM213 803h51l41 -67l41 67h51l-58 -93h-68z" />
    <glyph glyph-name="uni01D4" unicode="&#x1d4;" horiz-adv-x="524" 
d="M55 460h55v-278q0 -66 40.5 -104t101.5 -38q62 0 102 38t40 104v278h55v-460h-55v68q-50 -76 -154 -76q-77 0 -131 47t-54 136v285zM168 620h51l41 -67l41 67h51l-58 -93h-68z" />
    <glyph glyph-name="Gcaron" unicode="&#x1e6;" horiz-adv-x="747" 
d="M45 325q0 146 90.5 239.5t234.5 93.5q85 0 152.5 -34.5t110.5 -95.5l-48 -33q-75 105 -215 105q-119 0 -193 -77.5t-74 -197.5t74 -197.5t193 -77.5q104 0 171 62.5t78 166.5h-251v54h314v-23q-5 -141 -89 -229.5t-223 -88.5q-144 0 -234.5 93.5t-90.5 239.5zM332 803
l41 -67l41 67h51l-58 -93h-68l-58 93h51z" />
    <glyph glyph-name="gcaron" unicode="&#x1e7;" 
d="M43 230q0 103 63.5 170t162.5 67q125 0 184 -103v96h55v-425q0 -99 -66 -161t-174 -62q-122 0 -189 80l38 32q57 -64 151 -64q78 0 131.5 46t53.5 129v61q-28 -49 -75.5 -76.5t-108.5 -27.5q-99 0 -162.5 67.5t-63.5 170.5zM96 230q0 -82 50 -133q49 -52 129 -52
t129 51.5t49 133.5t-49 133.5t-129 51.5t-129.5 -51.5t-49.5 -133.5zM237 620l41 -67l41 67h51l-58 -93h-68l-58 93h51z" />
    <glyph glyph-name="uni0218" unicode="&#x218;" horiz-adv-x="598" 
d="M35 136l48 30q20 -53 78.5 -86t140.5 -33q178 0 178 132q0 20 -7 36.5t-22 29t-28.5 21.5t-36.5 17t-36 12t-37.5 10.5t-29.5 7.5q-4 1 -28.5 7t-36 9t-36 11.5t-38 16t-33 21t-29.5 28t-17.5 35t-7.5 44.5q0 85 65.5 130.5t174.5 45.5q87 0 152.5 -35.5t83.5 -90.5
l-49 -26q-14 40 -67.5 67.5t-124.5 27.5q-82 0 -126.5 -30.5t-44.5 -86.5q0 -18 6 -33.5t21 -27t26 -19.5t35 -15.5t34.5 -10.5t38 -9.5t31.5 -7.5q3 -1 26.5 -7t35.5 -9.5t36.5 -13t39.5 -18t34.5 -23t30.5 -29.5t19 -37t8 -46q0 -94 -64 -143t-182 -49q-100 0 -169 40
t-93 107zM278 -68h52l-48 -92h-48z" />
    <glyph glyph-name="uni0219" unicode="&#x219;" horiz-adv-x="451" 
d="M33 94l40 23q14 -36 54 -59t96 -23q122 0 122 90q0 14 -4.5 25.5t-15 20t-19.5 14.5t-25 11.5t-24.5 8.5t-26 7t-21.5 5q-2 1 -19 5t-25 6.5t-25.5 8.5t-27.5 11.5t-23.5 15.5t-21 20.5t-13 25.5t-5.5 32q0 61 46.5 94t123.5 33q66 0 112 -25t61 -65l-41 -21
q-10 28 -47 47t-86 19q-55 0 -85 -21t-30 -59q0 -12 4 -22.5t13.5 -18.5t18 -13.5t23 -10.5t23 -7.5t24.5 -6.5t21 -5q2 0 16 -3.5t20 -5.5t20.5 -6.5t23 -8.5t22 -10.5t21.5 -13t18 -16t15 -19.5t9 -23t4 -27q0 -68 -45.5 -103t-130.5 -35q-74 0 -123 28t-67 77zM200 -66
h52l-48 -92h-48z" />
    <glyph glyph-name="uni021A" unicode="&#x21a;" 
d="M528 650v-54h-217v-596h-58v596h-218v54h493zM214 -152l44 92h52l-48 -92h-48z" />
    <glyph glyph-name="uni021B" unicode="&#x21b;" horiz-adv-x="308" 
d="M25 416v44h66v140h55v-140h115v-44h-115v-307q0 -63 65 -63h45v-46h-62q-48 0 -75.5 27t-27.5 75v314h-66zM128 -151l44 92h52l-48 -92h-48z" />
    <glyph glyph-name="circumflex" unicode="&#x2c6;" horiz-adv-x="224" 
d="M204 557h-51l-41 68l-41 -68h-51l58 93h68z" />
    <glyph glyph-name="caron" unicode="&#x2c7;" horiz-adv-x="224" 
d="M153 650h51l-58 -93h-68l-58 93h51l41 -67z" />
    <glyph glyph-name="breve" unicode="&#x2d8;" horiz-adv-x="205" 
d="M185 650v-3q0 -38 -23 -60t-59 -22q-35 0 -59 22t-24 60v3h38v-3q0 -21 12 -34t33 -13t33 13t12 34v3h37z" />
    <glyph glyph-name="dotaccent" unicode="&#x2d9;" horiz-adv-x="105" 
d="M53 598q-13 0 -23 9.5t-10 23.5t10 23t23 9t22.5 -9t9.5 -23t-10 -23.5t-22 -9.5z" />
    <glyph glyph-name="ring" unicode="&#x2da;" horiz-adv-x="187" 
d="M98 505q-33 0 -55.5 22t-22.5 55q0 34 22.5 55.5t55.5 21.5q34 0 55.5 -21t21.5 -56q0 -34 -22 -55.5t-55 -21.5zM98 537q21 0 32.5 13t11.5 32q0 18 -11.5 32t-32.5 14t-32.5 -14t-11.5 -32q0 -19 11.5 -32t32.5 -13z" />
    <glyph glyph-name="ogonek" unicode="&#x2db;" horiz-adv-x="129" 
d="M108 -114q-41 -11 -64.5 3.5t-23.5 41.5q0 23 14.5 41.5t32.5 27.5h36q-45 -34 -45 -63q0 -13 11 -18t39 4v-37z" />
    <glyph glyph-name="tilde" unicode="&#x2dc;" horiz-adv-x="306" 
d="M20 579q2 37 23 61t53 24q38 0 67 -33q24 -26 46 -26q36 0 40 47h37q-1 -37 -21 -60.5t-56 -23.5q-39 0 -68 33q-24 26 -44 26q-18 0 -28.5 -14.5t-10.5 -33.5h-38z" />
    <glyph glyph-name="hungarumlaut" unicode="&#x2dd;" horiz-adv-x="269" 
d="M64 650h53l-53 -93h-44zM196 650h53l-53 -93h-44z" />
    <glyph glyph-name="gravecomb" unicode="&#x300;" horiz-adv-x="0" 
d="M-63 650l43 -93h-49l-47 93h53z" />
    <glyph glyph-name="acutecomb" unicode="&#x301;" horiz-adv-x="0" 
d="M-73 650h53l-47 -93h-49z" />
    <glyph glyph-name="uni0302" unicode="&#x302;" horiz-adv-x="0" 
d="M-146 650h68l58 -93h-51l-41 68l-41 -68h-51z" />
    <glyph glyph-name="tildecomb" unicode="&#x303;" horiz-adv-x="0" 
d="M-286 579q2 37 23 61t53 24q38 0 67 -33q24 -26 46 -26q36 0 40 47h37q-1 -37 -21 -60.5t-56 -23.5q-39 0 -68 33q-24 26 -44 26q-18 0 -28.5 -14.5t-10.5 -33.5h-38z" />
    <glyph glyph-name="uni0304" unicode="&#x304;" horiz-adv-x="0" 
d="M-186 650h166v-40h-166v40z" />
    <glyph glyph-name="uni0306" unicode="&#x306;" horiz-adv-x="0" 
d="M-190 650h38v-3q0 -20 13 -34t35 -14q21 0 34 14t13 34v3h37v-3q0 -37 -24 -60t-60 -23q-37 0 -61.5 23t-24.5 60v3z" />
    <glyph glyph-name="uni0307" unicode="&#x307;" horiz-adv-x="0" 
d="M-75 654q10 9 23 9t22.5 -9t9.5 -23t-10 -23.5t-22 -9.5q-13 0 -23 9.5t-10 23.5t10 23z" />
    <glyph glyph-name="uni0308" unicode="&#x308;" horiz-adv-x="0" 
d="M-254 654q10 9 23 9t22.5 -9t9.5 -23t-10 -23.5t-22 -9.5q-13 0 -23 9.5t-10 23.5t10 23zM-78 654q10 9 23 9t22.5 -9t9.5 -23t-10 -23.5t-22 -9.5q-13 0 -23 9.5t-10 23.5t10 23z" />
    <glyph glyph-name="uni030A" unicode="&#x30a;" horiz-adv-x="0" 
d="M-146 639q22 20 53 20t52 -20.5t21 -52.5q0 -31 -21 -52t-52 -21t-52.5 21t-21.5 52q0 32 21 53zM-133 586q0 -16 10.5 -28.5t29.5 -12.5q18 0 28.5 12.5t10.5 28.5t-10.5 29t-28.5 13q-19 0 -29.5 -12.5t-10.5 -29.5z" />
    <glyph glyph-name="uni030B" unicode="&#x30b;" horiz-adv-x="0" 
d="M-117 557l44 93h53l-53 -93h-44zM-249 557l44 93h53l-53 -93h-44z" />
    <glyph glyph-name="uni030C" unicode="&#x30c;" horiz-adv-x="0" 
d="M-153 650l41 -67l41 67h51l-58 -93h-68l-58 93h51z" />
    <glyph glyph-name="uni0312" unicode="&#x312;" horiz-adv-x="0" 
d="M-86 607q0 7 2 13.5t6.5 13.5t7.5 11t9 11t7 9h32l-21 -28q22 -7 22 -30q0 -13 -9 -22t-23 -9q-15 0 -24 9t-9 22z" />
    <glyph glyph-name="dotbelowcomb" unicode="&#x323;" horiz-adv-x="0" 
d="M-75 -9q10 9 23 9t22.5 -9t9.5 -23t-10 -23.5t-22 -9.5q-13 0 -23 9.5t-10 23.5t10 23z" />
    <glyph glyph-name="uni0326" unicode="&#x326;" horiz-adv-x="0" 
d="M-72 0h52l-48 -92h-48z" />
    <glyph glyph-name="uni0327" unicode="&#x327;" horiz-adv-x="0" 
d="M-135 -136v36q16 -11 47 -11q14 0 24 6.5t10 16.5q0 22 -40 22q-16 0 -28 -5v31q1 0 1 1l25 39h37l-20 -36q29 -3 44 -17.5t15 -34.5q0 -25 -17.5 -40.5t-50.5 -15.5q-31 0 -47 8z" />
    <glyph glyph-name="uni0328" unicode="&#x328;" horiz-adv-x="0" 
d="M-96 -28q15 19 33 28h37q-45 -30 -45 -63q0 -13 7 -16.5t13 -3.5q11 0 30 6v-37q-18 -5 -32 -5q-20 0 -39 11.5t-19 38.5q0 22 15 41z" />
    <glyph glyph-name="uni0331" unicode="&#x331;" horiz-adv-x="0" 
d="M-182 0h162v-40h-162v40z" />
    <glyph glyph-name="Gamma" unicode="&#x393;" horiz-adv-x="464" 
d="M389 650v-54h-277v-596h-57v650h334z" />
    <glyph glyph-name="uni0394" unicode="&#x394;" horiz-adv-x="660" 
d="M344 650l241 -598v-52h-530v52l242 598h47zM117 52h406l-203 511z" />
    <glyph glyph-name="Sigma" unicode="&#x3a3;" horiz-adv-x="594" 
d="M519 650v-54h-373l270 -274l-269 -268h372v-54h-464v45l283 277l-283 284v44h464z" />
    <glyph glyph-name="Phi" unicode="&#x3a6;" horiz-adv-x="781" 
d="M706 326q0 -122 -80.5 -188.5t-220.5 -71.5v-68h-49v69q-140 5 -220.5 71.5t-80.5 187.5t80.5 187t220.5 71v68h49v-67q140 -5 220.5 -71.5t80.5 -187.5zM405 122q119 5 182 57.5t63 146.5q0 93 -63 145.5t-182 57.5v-407zM112 326q0 -93 63 -145.5t181 -57.5v405
q-118 -5 -181 -57.5t-63 -144.5z" />
    <glyph glyph-name="Psi" unicode="&#x3a8;" horiz-adv-x="697" 
d="M565 650h57v-197q0 -135 -68.5 -201t-190.5 -72v-180h-49v180q-122 6 -190.5 72.5t-68.5 201.5v196h57v-196q0 -112 51 -163.5t151 -56.5v416h49v-416q100 5 151 56.5t51 163.5v196z" />
    <glyph glyph-name="uni03A9" unicode="&#x3a9;" horiz-adv-x="786" 
d="M567 58h144v-54h-259v55q91 30 144.5 104t53.5 165q0 115 -72 194.5t-194 79.5t-194.5 -79.5t-72.5 -194.5q0 -90 52.5 -163.5t142.5 -103.5v-57h-257v54h146q-65 45 -103 114t-38 153q0 146 90 239.5t234 93.5t233 -93.5t89 -239.5q0 -84 -37.5 -153t-101.5 -114z" />
    <glyph glyph-name="uni1E04" unicode="&#x1e04;" horiz-adv-x="603" 
d="M55 650h298q77 0 128 -46t51 -124q0 -100 -83 -143q49 -19 78 -60.5t29 -98.5q0 -78 -52.5 -128t-128.5 -50h-320v650zM113 54h255q57 0 93 37t36 91t-36 90.5t-93 36.5h-255v-255zM113 359h233q58 0 92.5 32.5t34.5 85.5t-34.5 86t-92.5 33h-233v-237zM245 -63
q10 9 23 9t22.5 -9t9.5 -23t-10 -23.5t-22 -9.5q-13 0 -23 9.5t-10 23.5t10 23z" />
    <glyph glyph-name="uni1E05" unicode="&#x1e05;" 
d="M55 650h55v-287q58 104 184 104q100 0 163.5 -66.5t63.5 -170.5q0 -103 -64 -170.5t-163 -67.5q-62 0 -109.5 28t-74.5 77v-97h-55v650zM110 230q0 -82 49 -133q49 -52 129 -52t129.5 51.5t49.5 133.5t-49.5 133.5t-129.5 51.5t-129 -51.5t-49 -133.5zM269 -71q10 9 23 9
t22.5 -9t9.5 -23t-10 -23.5t-22 -9.5q-13 0 -23 9.5t-10 23.5t10 23z" />
    <glyph glyph-name="uni1E0C" unicode="&#x1e0c;" horiz-adv-x="650" 
d="M55 650h214q144 0 232.5 -90t88.5 -235t-88.5 -235t-232.5 -90h-214v650zM269 57q112 0 187.5 71.5t75.5 196.5t-75.5 197t-187.5 72h-156v-537h156zM236 -63q10 9 23 9t22.5 -9t9.5 -23t-10 -23.5t-22 -9.5q-13 0 -23 9.5t-10 23.5t10 23z" />
    <glyph glyph-name="uni1E0D" unicode="&#x1e0d;" 
d="M106 401q63 66 163 66q125 0 184 -103v286h55v-650h-55v96q-28 -49 -75.5 -76.5t-108.5 -27.5q-99 0 -162.5 67.5t-63.5 170.5q0 104 63 171zM146 97q49 -52 129 -52t129 51.5t49 133.5t-49 133.5t-129 51.5t-129.5 -52t-49.5 -133t50 -133zM247 -94q0 14 10 23t23 9
t22.5 -9t9.5 -23t-10 -23.5t-22 -9.5q-13 0 -23 9.5t-10 23.5z" />
    <glyph glyph-name="uni1E24" unicode="&#x1e24;" horiz-adv-x="623" 
d="M113 650v-297h377v297h58v-650h-58v296h-377v-296h-58v650h58zM266 -85q0 14 10 23t23 9t22.5 -9t9.5 -23t-10 -23.5t-22 -9.5q-13 0 -23 9.5t-10 23.5z" />
    <glyph glyph-name="uni1E25" unicode="&#x1e25;" horiz-adv-x="524" 
d="M110 650v-259q50 76 154 76q77 0 131 -47t54 -136v-284h-55v277q0 66 -40.5 104t-101.5 38q-62 0 -102 -38t-40 -104v-277h-55v650h55zM227 -86q0 14 10 23t23 9t22.5 -9t9.5 -23t-10 -23.5t-22 -9.5q-13 0 -23 9.5t-10 23.5z" />
    <glyph glyph-name="uni1E36" unicode="&#x1e36;" horiz-adv-x="523" 
d="M113 650v-596h355v-54h-413v650h58zM229 -86q0 14 10 23t23 9t22.5 -9t9.5 -23t-10 -23.5t-22 -9.5q-13 0 -23 9.5t-10 23.5z" />
    <glyph glyph-name="uni1E37" unicode="&#x1e37;" horiz-adv-x="185" 
d="M55 650h55v-650h-55v650zM61 -63q10 9 23 9t22.5 -9t9.5 -23t-10 -23.5t-22 -9.5q-13 0 -23 9.5t-10 23.5t10 23z" />
    <glyph glyph-name="uni1E3E" unicode="&#x1e3e;" horiz-adv-x="739" 
d="M55 0v650h63l241 -480l242 480h63v-650h-58v542l-226 -460h-41l-226 460v-542h-58zM378 803h53l-47 -93h-49z" />
    <glyph glyph-name="uni1E3F" unicode="&#x1e3f;" horiz-adv-x="813" 
d="M55 460h55v-65q46 72 142 72q116 0 155 -93q43 93 159 93q73 0 122.5 -44.5t49.5 -138.5v-284h-55v278q0 69 -37 104t-93 35t-92.5 -35t-36.5 -104v-278h-55v278q0 69 -37 104t-93 35t-92.5 -35t-36.5 -104v-278h-55v460zM371 531l43 93h53l-47 -93h-49z" />
    <glyph glyph-name="uni1E44" unicode="&#x1e44;" horiz-adv-x="621" 
d="M56 650h56l376 -552v552h58v-650h-57l-375 551v-551h-58v650zM277 738q0 14 10 23t23 9t22.5 -9t9.5 -23t-10 -23.5t-22 -9.5q-13 0 -23 9.5t-10 23.5z" />
    <glyph glyph-name="uni1E45" unicode="&#x1e45;" horiz-adv-x="524" 
d="M55 460h55v-69q50 76 154 76q77 0 131 -47t54 -136v-284h-55v277q0 66 -40.5 104t-101.5 38q-62 0 -102 -38t-40 -104v-277h-55v460zM220 555q0 14 10 23t23 9t22.5 -9t9.5 -23t-10 -23.5t-22 -9.5q-13 0 -23 9.5t-10 23.5z" />
    <glyph glyph-name="uni1E46" unicode="&#x1e46;" horiz-adv-x="621" 
d="M56 650h56l376 -552v552h58v-650h-57l-375 551v-551h-58v650zM277 -86q0 14 10 23t23 9t22.5 -9t9.5 -23t-10 -23.5t-22 -9.5q-13 0 -23 9.5t-10 23.5z" />
    <glyph glyph-name="uni1E47" unicode="&#x1e47;" horiz-adv-x="524" 
d="M110 460v-69q50 76 154 76q77 0 131 -47t54 -136v-284h-55v277q0 66 -40.5 104t-101.5 38q-62 0 -102 -38t-40 -104v-277h-55v460h55zM220 -86q0 14 10 23t23 9t22.5 -9t9.5 -23t-10 -23.5t-22 -9.5q-13 0 -23 9.5t-10 23.5z" />
    <glyph glyph-name="uni1E62" unicode="&#x1e62;" horiz-adv-x="598" 
d="M35 136l48 30q20 -53 78.5 -86t140.5 -33q178 0 178 132q0 20 -7 36.5t-22 29t-28.5 21.5t-36.5 17t-36 12t-37.5 10.5t-29.5 7.5q-4 1 -28.5 7t-36 9t-36 11.5t-38 16t-33 21t-29.5 28t-17.5 35t-7.5 44.5q0 85 65.5 130.5t174.5 45.5q87 0 152.5 -35.5t83.5 -90.5
l-49 -26q-14 40 -67.5 67.5t-124.5 27.5q-82 0 -126.5 -30.5t-44.5 -86.5q0 -18 6 -33.5t21 -27t26 -19.5t35 -15.5t34.5 -10.5t38 -9.5t31.5 -7.5q3 -1 26.5 -7t35.5 -9.5t36.5 -13t39.5 -18t34.5 -23t30.5 -29.5t19 -37t8 -46q0 -94 -64 -143t-182 -49q-100 0 -169 40
t-93 107zM279 -69q10 9 23 9t22.5 -9t9.5 -23t-10 -23.5t-22 -9.5q-13 0 -23 9.5t-10 23.5t10 23z" />
    <glyph glyph-name="uni1E6C" unicode="&#x1e6c;" 
d="M35 650h493v-54h-217v-596h-58v596h-218v54zM249 -84q0 14 10 23t23 9t22.5 -9t9.5 -23t-10 -23.5t-22 -9.5q-13 0 -23 9.5t-10 23.5z" />
    <glyph glyph-name="uni1E6D" unicode="&#x1e6d;" horiz-adv-x="308" 
d="M25 416v44h66v140h55v-140h115v-44h-115v-307q0 -63 65 -63h45v-46h-62q-48 0 -75.5 27t-27.5 75v314h-66zM163 -83q0 14 10 23t23 9t22.5 -9t9.5 -23t-10 -23.5t-22 -9.5q-13 0 -23 9.5t-10 23.5z" />
    <glyph glyph-name="Wgrave" unicode="&#x1e80;" horiz-adv-x="944" 
d="M25 650h62l180 -541l180 541h43l179 -536l178 536h62l-217 -650h-48l-177 530l-177 -530h-48zM450 803l43 -93h-49l-47 93h53z" />
    <glyph glyph-name="wgrave" unicode="&#x1e81;" horiz-adv-x="731" 
d="M20 460h58l127 -382l131 382h39l131 -382l128 382h57l-156 -460h-55l-125 365l-126 -365h-55zM343 620l43 -93h-49l-47 93h53z" />
    <glyph glyph-name="Wacute" unicode="&#x1e82;" horiz-adv-x="944" 
d="M25 650h62l180 -541l180 541h43l179 -536l178 536h62l-217 -650h-48l-177 530l-177 -530h-48zM485 803h53l-47 -93h-49z" />
    <glyph glyph-name="wacute" unicode="&#x1e83;" horiz-adv-x="731" 
d="M20 460h58l127 -382l131 382h39l131 -382l128 382h57l-156 -460h-55l-125 365l-126 -365h-55zM378 620h53l-47 -93h-49z" />
    <glyph glyph-name="Wdieresis" unicode="&#x1e84;" horiz-adv-x="944" 
d="M87 650l180 -541l180 541h43l179 -536l178 536h62l-217 -650h-48l-177 530l-177 -530h-48l-217 650h62zM523 738q0 14 10 23t23 9t22.5 -9t9.5 -23t-10 -23.5t-22 -9.5q-13 0 -23 9.5t-10 23.5zM357 761q10 9 23 9t22.5 -9t9.5 -23t-10 -23.5t-22 -9.5q-13 0 -23 9.5
t-10 23.5t10 23z" />
    <glyph glyph-name="wdieresis" unicode="&#x1e85;" horiz-adv-x="731" 
d="M78 460l127 -382l131 382h39l131 -382l128 382h57l-156 -460h-55l-125 365l-126 -365h-55l-154 460h58zM416 555q0 14 10 23t23 9t22.5 -9t9.5 -23t-10 -23.5t-22 -9.5q-13 0 -23 9.5t-10 23.5zM250 578q10 9 23 9t22.5 -9t9.5 -23t-10 -23.5t-22 -9.5q-13 0 -23 9.5
t-10 23.5t10 23z" />
    <glyph glyph-name="uni1E92" unicode="&#x1e92;" horiz-adv-x="538" 
d="M45 51l369 545h-362v54h431v-51l-368 -544l361 -1v-54h-431v51zM245 -63q10 9 23 9t22.5 -9t9.5 -23t-10 -23.5t-22 -9.5q-13 0 -23 9.5t-10 23.5t10 23z" />
    <glyph glyph-name="uni1E93" unicode="&#x1e93;" horiz-adv-x="431" 
d="M308 413h-268v47h336v-44l-272 -368h267v-48h-336v44zM184 -63q10 9 23 9t22.5 -9t9.5 -23t-10 -23.5t-22 -9.5q-13 0 -23 9.5t-10 23.5t10 23z" />
    <glyph glyph-name="uni1EA0" unicode="&#x1ea0;" horiz-adv-x="642" 
d="M294 650h44l269 -650h-62l-73 178h-312l-73 -178h-62zM450 232l-134 328l-134 -328h268zM288 -86q0 14 10 23t23 9t22.5 -9t9.5 -23t-10 -23.5t-22 -9.5q-13 0 -23 9.5t-10 23.5z" />
    <glyph glyph-name="uni1EA1" unicode="&#x1ea1;" 
d="M43 230q0 104 63 170.5t163 66.5q125 0 184 -103v96h55v-460h-55v96q-28 -49 -75.5 -76.5t-108.5 -27.5q-99 0 -162.5 67.5t-63.5 170.5zM146 97q49 -52 129 -52t129 51.5t49 133.5t-49 133.5t-129 51.5t-129.5 -52t-49.5 -133t50 -133zM270 -66q10 9 23 9t22.5 -9
t9.5 -23t-10 -23.5t-22 -9.5q-13 0 -23 9.5t-10 23.5t10 23z" />
    <glyph glyph-name="uni1EB8" unicode="&#x1eb8;" horiz-adv-x="540" 
d="M55 650h415v-54h-357v-245h336v-54h-336v-243h357v-54h-415v650zM238 -84q0 14 10 23t23 9t22.5 -9t9.5 -23t-10 -23.5t-22 -9.5q-13 0 -23 9.5t-10 23.5z" />
    <glyph glyph-name="uni1EB9" unicode="&#x1eb9;" horiz-adv-x="551" 
d="M43 230q0 104 62 171t164 67q97 0 158.5 -67.5t61.5 -170.5v-19h-393q6 -77 55 -124t124 -47q101 0 153 76l39 -27q-31 -46 -80.5 -72t-111.5 -26q-103 0 -167.5 67.5t-64.5 171.5zM437 251q-6 75 -51.5 122.5t-116.5 47.5q-75 0 -121 -46.5t-52 -123.5h341zM242 -91
q0 14 10 23t23 9t22.5 -9t9.5 -23t-10 -23.5t-22 -9.5q-13 0 -23 9.5t-10 23.5z" />
    <glyph glyph-name="uni1EBC" unicode="&#x1ebc;" horiz-adv-x="540" 
d="M55 650h415v-54h-357v-245h336v-54h-336v-243h357v-54h-415v650zM160 769q21 24 53 24q38 0 67 -33q24 -26 46 -26q36 0 40 47h37q-1 -37 -21 -60.5t-56 -23.5q-39 0 -68 33q-24 26 -44 26q-18 0 -28.5 -14.5t-10.5 -33.5h-38q2 37 23 61z" />
    <glyph glyph-name="uni1EBD" unicode="&#x1ebd;" horiz-adv-x="551" 
d="M43 230q0 104 62 171t164 67q97 0 158.5 -67.5t61.5 -170.5v-19h-393q6 -77 55 -124t124 -47q101 0 153 76l39 -27q-31 -46 -80.5 -72t-111.5 -26q-103 0 -167.5 67.5t-64.5 171.5zM96 251h341q-6 75 -51.5 122.5t-116.5 47.5q-75 0 -121 -46.5t-52 -123.5zM136 525
q2 37 23 61t53 24q38 0 67 -33q24 -26 46 -26q36 0 40 47h37q-1 -37 -21 -60.5t-56 -23.5q-39 0 -68 33q-24 26 -44 26q-18 0 -28.5 -14.5t-10.5 -33.5h-38z" />
    <glyph glyph-name="uni1ECA" unicode="&#x1eca;" horiz-adv-x="188" 
d="M55 650h58v-650h-58v650zM62 -63q10 9 23 9t22.5 -9t9.5 -23t-10 -23.5t-22 -9.5q-13 0 -23 9.5t-10 23.5t10 23z" />
    <glyph glyph-name="uni1ECB" unicode="&#x1ecb;" horiz-adv-x="203" 
d="M119 460v-460h-55v460h55zM66 630q11 10 25 10q15 0 26 -10t11 -25q0 -16 -11 -26.5t-26 -10.5q-14 0 -25 10.5t-11 26.5q0 15 11 25zM59 -94q0 14 10 23t23 9t22.5 -9t9.5 -23t-10 -23.5t-22 -9.5q-13 0 -23 9.5t-10 23.5z" />
    <glyph glyph-name="uni1ECC" unicode="&#x1ecc;" horiz-adv-x="754" 
d="M136 565q90 93 234 93t234 -93.5t90 -239.5t-90 -239q-90 -94 -234 -94t-234.5 93.5t-90.5 239.5t91 240zM177 128q74 -78 193 -78t192.5 77t73.5 198t-73.5 198t-192.5 77t-193 -77.5t-74 -197.5t74 -197zM338 -94q0 14 10 23t23 9t22.5 -9t9.5 -23t-10 -23.5t-22 -9.5
q-13 0 -23 9.5t-10 23.5z" />
    <glyph glyph-name="uni1ECD" unicode="&#x1ecd;" horiz-adv-x="571" 
d="M108 401q65 67 168 67t167.5 -67t64.5 -171t-64 -171q-65 -68 -168 -68t-168 67.5t-65 171.5t65 171zM148 98q49 -53 128 -53t127.5 52.5t48.5 132.5t-48.5 132.5t-127.5 52.5t-128.5 -52.5t-49.5 -132.5t50 -132zM244 -94q0 14 10 23t23 9t22.5 -9t9.5 -23t-10 -23.5
t-22 -9.5q-13 0 -23 9.5t-10 23.5z" />
    <glyph glyph-name="uni1EE4" unicode="&#x1ee4;" horiz-adv-x="614" 
d="M113 650v-421q0 -84 49.5 -132t134.5 -48t134.5 48t49.5 132v421h58v-425q0 -103 -65 -168t-177 -65t-177 65t-65 168v425h58zM275 -64q10 9 23 9t22.5 -9t9.5 -23t-10 -23.5t-22 -9.5q-13 0 -23 9.5t-10 23.5t10 23z" />
    <glyph glyph-name="uni1EE5" unicode="&#x1ee5;" horiz-adv-x="524" 
d="M110 460v-278q0 -66 40.5 -104t101.5 -38q62 0 102 38t40 104v278h55v-460h-55v68q-50 -76 -154 -76q-77 0 -131 47t-54 136v285h55zM230 -69q10 9 23 9t22.5 -9t9.5 -23t-10 -23.5t-22 -9.5q-13 0 -23 9.5t-10 23.5t10 23z" />
    <glyph glyph-name="Ygrave" unicode="&#x1ef2;" horiz-adv-x="576" 
d="M84 650l194 -302l195 302h68l-233 -360v-290h-58v288l-234 362h68zM262 803l43 -93h-49l-47 93h53z" />
    <glyph glyph-name="ygrave" unicode="&#x1ef3;" horiz-adv-x="479" 
d="M15 460h58l151 -384l153 384h57l-256 -644h-55l73 184zM217 620l43 -93h-49l-47 93h53z" />
    <glyph glyph-name="uni1EF4" unicode="&#x1ef4;" horiz-adv-x="576" 
d="M84 650l194 -302l195 302h68l-233 -360v-290h-58v288l-234 362h68zM257 -63q10 9 23 9t22.5 -9t9.5 -23t-10 -23.5t-22 -9.5q-13 0 -23 9.5t-10 23.5t10 23z" />
    <glyph glyph-name="uni1EF5" unicode="&#x1ef5;" horiz-adv-x="479" 
d="M15 460h58l151 -384l153 384h57l-256 -644h-55l73 184zM277 -115q10 9 23 9t22.5 -9t9.5 -23t-10 -23.5t-22 -9.5q-13 0 -23 9.5t-10 23.5t10 23z" />
    <glyph glyph-name="uni1EF8" unicode="&#x1ef8;" horiz-adv-x="576" 
d="M16 650h68l194 -302l195 302h68l-233 -360v-290h-58v288zM146 708q2 37 23 61t53 24q38 0 67 -33q24 -26 46 -26q36 0 40 47h37q-1 -37 -21 -60.5t-56 -23.5q-39 0 -68 33q-24 26 -44 26q-18 0 -28.5 -14.5t-10.5 -33.5h-38z" />
    <glyph glyph-name="uni1EF9" unicode="&#x1ef9;" horiz-adv-x="469" 
d="M73 460l151 -384l153 384h57l-256 -644h-55l73 184l-181 460h58zM91 525q2 37 23 61t53 24q38 0 67 -33q24 -26 46 -26q36 0 40 47h37q-1 -37 -21 -60.5t-56 -23.5q-39 0 -68 33q-24 26 -44 26q-18 0 -28.5 -14.5t-10.5 -33.5h-38z" />
    <glyph glyph-name="endash" unicode="&#x2013;" horiz-adv-x="493" 
d="M55 327h363v-54h-363v54z" />
    <glyph glyph-name="emdash" unicode="&#x2014;" horiz-adv-x="647" 
d="M55 327h517v-54h-517v54z" />
    <glyph glyph-name="quoteleft" unicode="&#x2018;" horiz-adv-x="159" 
d="M100 535h-65l44 115h45z" />
    <glyph glyph-name="quoteright" unicode="&#x2019;" horiz-adv-x="159" 
d="M59 650h65l-44 -115h-45z" />
    <glyph glyph-name="quotesinglbase" unicode="&#x201a;" horiz-adv-x="159" 
d="M59 53h65l-44 -112h-45z" />
    <glyph glyph-name="quotedblleft" unicode="&#x201c;" horiz-adv-x="305" 
d="M100 535h-65l44 115h45zM246 535h-65l44 115h45z" />
    <glyph glyph-name="quotedblright" unicode="&#x201d;" horiz-adv-x="305" 
d="M59 650h65l-44 -115h-45zM204 650h66l-45 -115h-44z" />
    <glyph glyph-name="quotedblbase" unicode="&#x201e;" horiz-adv-x="305" 
d="M59 53h65l-44 -115h-45zM204 53h66l-45 -115h-44z" />
    <glyph glyph-name="dagger" unicode="&#x2020;" horiz-adv-x="419" 
d="M344 467v-46h-117v-421h-54v421h-118v46h118v183h54v-183h117z" />
    <glyph glyph-name="daggerdbl" unicode="&#x2021;" horiz-adv-x="419" 
d="M344 416h-117v-175h117v-46h-117v-195h-54v195h-118v46h118v175h-118v46h118v188h54v-188h117v-46z" />
    <glyph glyph-name="bullet" unicode="&#x2022;" horiz-adv-x="188" 
d="M94 266q-25 0 -42 17t-17 42t17 42t42 17t42 -17t17 -42t-17 -42t-42 -17z" />
    <glyph glyph-name="ellipsis" unicode="&#x2026;" horiz-adv-x="487" 
d="M71 -2q-16 0 -26 10t-10 26q0 15 10 25t26 10q15 0 25 -10t10 -25q0 -16 -10 -26t-25 -10zM246 -2q-16 0 -26 10t-10 26q0 15 10 25t26 10q15 0 25 -10t10 -25q0 -16 -10 -26t-25 -10zM417 -2q-16 0 -26 10t-10 26q0 15 10 25t26 10q15 0 25 -10t10 -25q0 -16 -10 -26
t-25 -10z" />
    <glyph glyph-name="perthousand" unicode="&#x2030;" horiz-adv-x="1178" 
d="M197 363q-61 0 -101.5 40.5t-40.5 103.5q0 64 40.5 104.5t101.5 40.5t101 -40.5t40 -104.5q0 -63 -40.5 -103.5t-100.5 -40.5zM244 0h-49l351 650h49zM197 405q43 0 71 28.5t28 73.5t-28 74t-71 29t-71.5 -29t-28.5 -74t28.5 -73.5t71.5 -28.5zM594 -2q-61 0 -101.5 40.5
t-40.5 103.5q0 64 40 104.5t102 40.5q61 0 101 -40.5t40 -104.5q0 -63 -40.5 -103.5t-100.5 -40.5zM962 -2q-61 0 -101.5 40.5t-40.5 103.5q0 64 40 104.5t102 40.5q61 0 101 -40.5t40 -104.5q0 -63 -40.5 -103.5t-100.5 -40.5zM594 40q43 0 71 28.5t28 73.5t-28 74t-71 29
t-71.5 -29t-28.5 -74t28.5 -73.5t71.5 -28.5zM962 40q43 0 71 28.5t28 73.5t-28 74t-71 29t-71.5 -29t-28.5 -74t28.5 -73.5t71.5 -28.5z" />
    <glyph glyph-name="guilsinglleft" unicode="&#x2039;" horiz-adv-x="331" 
d="M276 135h-69l-172 186l172 186h69l-171 -186z" />
    <glyph glyph-name="guilsinglright" unicode="&#x203a;" horiz-adv-x="331" 
d="M35 135l171 186l-171 186h69l172 -186l-172 -186h-69z" />
    <glyph glyph-name="fraction" unicode="&#x2044;" horiz-adv-x="472" 
d="M51 0h-31l401 650h31z" />
    <glyph glyph-name="uni2070" unicode="&#x2070;" horiz-adv-x="418" 
d="M204 253q-74 0 -116.5 56t-42.5 146t42.5 146.5t116.5 56.5t116.5 -56t42.5 -147q0 -90 -42.5 -146t-116.5 -56zM204 288q58 0 90.5 45.5t32.5 121.5q0 77 -32.5 122t-90.5 45q-57 0 -90 -45.5t-33 -121.5q0 -75 33 -121t90 -46z" />
    <glyph glyph-name="uni2074" unicode="&#x2074;" horiz-adv-x="371" 
d="M326 373v-28h-46v-87h-35v87h-210v26l210 279h35v-277h46zM72 373h173v230z" />
    <glyph glyph-name="uni2075" unicode="&#x2075;" horiz-adv-x="362" 
d="M161 512q67 0 104 -35.5t37 -90.5q0 -59 -38.5 -94t-101.5 -35q-85 0 -127 57l25 22q39 -47 101 -45q49 1 77.5 27t28.5 69q0 42 -30 68.5t-77 26.5q-54 0 -83 -19l-12 26l25 165h195v-33h-167l-18 -117q32 8 61 8z" />
    <glyph glyph-name="uni2076" unicode="&#x2076;" horiz-adv-x="374" 
d="M179 527q58 0 96.5 -38.5t38.5 -98.5t-38.5 -99t-96.5 -39q-57 0 -95.5 39t-38.5 99q0 52 29 87l117 173h39l-87 -128q20 5 36 5zM179 285q44 0 72.5 29.5t28.5 75.5t-28.5 75t-72.5 29q-43 0 -72 -29t-29 -75t29 -75.5t72 -29.5z" />
    <glyph glyph-name="uni2077" unicode="&#x2077;" horiz-adv-x="305" 
d="M55 258l166 359h-193v32h232v-25l-168 -366h-37z" />
    <glyph glyph-name="uni2078" unicode="&#x2078;" horiz-adv-x="375" 
d="M246 461q34 -13 51.5 -39t17.5 -58q0 -51 -34.5 -81.5t-99.5 -30.5q-66 0 -101 31t-35 81q0 32 18 58t52 39q-63 25 -63 92q0 42 33 72t96 30q62 0 94.5 -30t32.5 -72q0 -67 -62 -92zM85 551q0 -34 24 -55t72 -21t71.5 21t23.5 55q0 31 -24 53.5t-71 22.5t-71.5 -22.5
t-24.5 -53.5zM181 282q49 0 74.5 23t25.5 60q0 35 -26 58.5t-74 23.5q-49 0 -75.5 -23.5t-26.5 -58.5q0 -37 26.5 -60t75.5 -23z" />
    <glyph glyph-name="uni2079" unicode="&#x2079;" horiz-adv-x="374" 
d="M314 517q0 -41 -28 -86l-116 -174h-39l85 128q-15 -5 -37 -5q-57 0 -95.5 38.5t-38.5 98.5t38.5 99t95.5 39q58 0 96.5 -39t38.5 -99zM78 517q0 -46 28.5 -75t72.5 -29t72.5 29t28.5 75t-28.5 75t-72.5 29t-72.5 -29t-28.5 -75z" />
    <glyph glyph-name="Euro" unicode="&#x20ac;" horiz-adv-x="594" 
d="M470 604q-88 0 -151 -45t-89 -126h237v-36h-246q-6 -33 -6 -72t6 -72h246v-37h-236q26 -81 88.5 -125.5t150.5 -44.5q39 0 49 1v-54q-10 -1 -56 -1q-112 0 -187.5 60t-103.5 164h-117v37h110q-6 35 -6 72t6 72h-110v36h117q27 103 103 164t188 61q46 0 56 -1v-54
q-10 1 -49 1z" />
    <glyph glyph-name="trademark" unicode="&#x2122;" horiz-adv-x="1322" 
d="M638 650h63l241 -480l242 480h63v-650h-58v542l-226 -460h-41l-226 460v-542h-58v650zM35 650h493v-54h-217v-596h-58v596h-218v54z" />
    <glyph glyph-name="oneeighth" unicode="&#x215b;" horiz-adv-x="530" 
d="M122 650v-328h-29v301h-76v27h105zM48 0h-31l401 650h31zM456 166q28 -10 42.5 -31.5t14.5 -47.5q0 -42 -28.5 -67t-81.5 -25q-54 0 -83 25t-29 67q0 26 15 47.5t43 31.5q-52 22 -52 76q0 34 27 59t79 25q51 0 78 -25t27 -59q0 -54 -52 -76zM324 241q0 -28 19.5 -45.5
t59.5 -17.5q39 0 58.5 17.5t19.5 45.5q0 25 -20 43.5t-58 18.5q-39 0 -59 -18.5t-20 -43.5zM403 19q40 0 61 19t21 50q0 29 -21.5 48.5t-60.5 19.5q-40 0 -62 -19.5t-22 -48.5q0 -31 21.5 -50t62.5 -19z" />
    <glyph glyph-name="threeeighths" unicode="&#x215c;" horiz-adv-x="601" 
d="M124 532q47 0 80.5 -27t33.5 -76q0 -50 -33.5 -78.5t-81.5 -28.5q-33 0 -62 13t-44 34l20 19q29 -38 86 -38q37 0 62 21.5t25 57.5q0 37 -24.5 57.5t-62.5 20.5q-33 0 -57 -10v24l124 102h-149v27h191v-25l-111 -93h3zM117 0h-31l401 650h31zM527 166q28 -10 42.5 -31.5
t14.5 -47.5q0 -42 -28.5 -67t-81.5 -25q-54 0 -83 25t-29 67q0 26 15 47.5t43 31.5q-52 22 -52 76q0 34 27 59t79 25q51 0 78 -25t27 -59q0 -54 -52 -76zM395 241q0 -28 19.5 -45.5t59.5 -17.5q39 0 58.5 17.5t19.5 45.5q0 25 -20 43.5t-58 18.5q-39 0 -59 -18.5t-20 -43.5z
M474 19q40 0 61 19t21 50q0 29 -21.5 48.5t-60.5 19.5q-40 0 -62 -19.5t-22 -48.5q0 -31 21.5 -50t62.5 -19z" />
    <glyph glyph-name="fiveeighths" unicode="&#x215d;" horiz-adv-x="613" 
d="M123 536q56 0 87.5 -30t31.5 -76q0 -49 -32 -78.5t-85 -29.5q-72 0 -107 48l21 18q30 -38 84 -38q41 1 65 23t24 58q0 35 -24.5 57.5t-64.5 22.5q-44 0 -70 -16l-10 22l21 138h164v-27h-141l-15 -99q24 7 51 7zM125 0h-31l401 650h31zM539 166q28 -10 42.5 -31.5
t14.5 -47.5q0 -42 -28.5 -67t-81.5 -25q-54 0 -83 25t-29 67q0 26 15 47.5t43 31.5q-52 22 -52 76q0 34 27 59t79 25q51 0 78 -25t27 -59q0 -54 -52 -76zM407 241q0 -28 19.5 -45.5t59.5 -17.5q39 0 58.5 17.5t19.5 45.5q0 25 -20 43.5t-58 18.5q-39 0 -59 -18.5t-20 -43.5z
M486 19q40 0 61 19t21 50q0 29 -21.5 48.5t-60.5 19.5q-40 0 -62 -19.5t-22 -48.5q0 -31 21.5 -50t62.5 -19z" />
    <glyph glyph-name="seveneighths" unicode="&#x215e;" horiz-adv-x="545" 
d="M48 0h-31l401 650h31zM66 323l138 300h-161v27h195v-21l-141 -306h-31zM471 166q28 -10 42.5 -31.5t14.5 -47.5q0 -42 -28.5 -67t-81.5 -25q-54 0 -83 25t-29 67q0 26 15 47.5t43 31.5q-52 22 -52 76q0 34 27 59t79 25q51 0 78 -25t27 -59q0 -54 -52 -76zM339 241
q0 -28 19.5 -45.5t59.5 -17.5q39 0 58.5 17.5t19.5 45.5q0 25 -20 43.5t-58 18.5q-39 0 -59 -18.5t-20 -43.5zM418 19q40 0 61 19t21 50q0 29 -21.5 48.5t-60.5 19.5q-40 0 -62 -19.5t-22 -48.5q0 -31 21.5 -50t62.5 -19z" />
    <glyph glyph-name="arrowleft" unicode="&#x2190;" horiz-adv-x="758" 
d="M683 348v-54h-529l184 -184l-36 -35l-247 247l247 247l36 -35l-186 -186h531z" />
    <glyph glyph-name="arrowup" unicode="&#x2191;" horiz-adv-x="625" 
d="M550 390l-36 -36l-185 185v-531h-54v531l-185 -185l-35 35l247 248z" />
    <glyph glyph-name="arrowright" unicode="&#x2192;" horiz-adv-x="758" 
d="M436 569l247 -247l-247 -247l-36 35l184 184h-529v54h531l-186 186z" />
    <glyph glyph-name="arrowdown" unicode="&#x2193;" horiz-adv-x="625" 
d="M514 291l36 -36l-248 -247l-247 248l35 35l185 -185v531h54v-531z" />
    <glyph glyph-name="arrowboth" unicode="&#x2194;" horiz-adv-x="916" 
d="M616 569l247 -247l-247 -247l-36 35l184 184h-618l185 -184l-36 -35l-247 247l247 247l36 -35l-186 -186h621l-186 186z" />
    <glyph glyph-name="arrowupdn" unicode="&#x2195;" horiz-adv-x="613" 
d="M538 215l-242 -242l-240 241l35 36l178 -178v505l-179 -178l-35 35l241 242l242 -242l-35 -35l-181 180v-509l181 181z" />
    <glyph glyph-name="uni2196" unicode="&#x2196;" horiz-adv-x="599" 
d="M524 219l-39 -38l-380 380v-261h-50v350h350v-50h-262z" />
    <glyph glyph-name="uni2197" unicode="&#x2197;" horiz-adv-x="599" 
d="M174 650h350v-350h-50v261l-380 -380l-39 38l381 381h-262v50z" />
    <glyph glyph-name="uni2198" unicode="&#x2198;" horiz-adv-x="599" 
d="M474 350h50v-350h-350v50h262l-381 381l39 39l380 -380v260z" />
    <glyph glyph-name="uni2199" unicode="&#x2199;" horiz-adv-x="599" 
d="M524 431l-381 -381h262v-50h-350v350h50v-260l380 380z" />
    <glyph glyph-name="partialdiff" unicode="&#x2202;" horiz-adv-x="569" 
d="M486 279q8 -32 8 -64q0 -99 -62.5 -162.5t-157.5 -63.5q-94 0 -156.5 63.5t-62.5 162.5t62 161.5t157 62.5q50 0 90 -18q-84 145 -190 229h67q79 -61 154.5 -175t91.5 -196h-1zM274 44q72 0 119 47.5t47 123.5q0 37 -12 69h-1q-2 6 -2 8q-20 44 -59.5 68.5t-91.5 24.5
q-72 0 -118.5 -47t-46.5 -123t47 -123.5t118 -47.5z" />
    <glyph glyph-name="emptyset" unicode="&#x2205;" horiz-adv-x="590" 
d="M424 515q43 -31 67 -81.5t24 -112.5q0 -104 -63.5 -170.5t-165.5 -66.5q-63 0 -112 26l-28 -45h-38l38 62q-91 67 -91 194q0 104 64 170.5t167 66.5q63 0 110 -26l28 45h38zM102 321q0 -99 70 -153l200 324q-38 20 -86 20q-81 0 -132.5 -54.5t-51.5 -136.5zM286 131
q82 0 132 53.5t50 136.5q0 101 -69 154l-200 -324q38 -20 87 -20z" />
    <glyph glyph-name="product" unicode="&#x220f;" horiz-adv-x="617" 
d="M542 649v-54h-113v-595h-54v595h-151v-595h-54v595h-115v54h487z" />
    <glyph glyph-name="summation" unicode="&#x2211;" horiz-adv-x="545" 
d="M470 658v-54h-338l238 -282l-236 -276h336v-54h-415v49l242 281l-242 287v49h415z" />
    <glyph glyph-name="minus" unicode="&#x2212;" horiz-adv-x="504" 
d="M55 337h374v-46h-374v46z" />
    <glyph glyph-name="radical" unicode="&#x221a;" horiz-adv-x="722" 
d="M647 692v-46h-156l-253 -694h-57l-126 340h55l99 -268l244 668h194z" />
    <glyph glyph-name="infinity" unicode="&#x221e;" horiz-adv-x="848" 
d="M205 175q-62 0 -106 43.5t-44 104.5q0 60 44 103.5t106 43.5q56 0 93.5 -21.5t119.5 -95.5q77 75 117.5 96t87.5 21q63 0 106.5 -43t43.5 -104t-43.5 -104.5t-106.5 -43.5q-39 0 -72 15t-54.5 33.5t-79.5 72.5q-74 -71 -114.5 -96t-97.5 -25zM205 218q43 0 83 25.5
t95 80.5q-73 68 -106 86t-72 18q-44 0 -76 -29.5t-32 -75.5q0 -47 32 -76t76 -29zM623 218q45 0 77 29t32 76q0 46 -32 75.5t-77 29.5q-40 0 -69 -17t-102 -86q47 -45 67.5 -62.5t47.5 -31t56 -13.5z" />
    <glyph glyph-name="integral" unicode="&#x222b;" horiz-adv-x="520" 
d="M376 692h69v-45h-56q-75 0 -85 -84l-54 -489q-7 -59 -40 -90.5t-86 -31.5h-69v45h56q75 0 85 84l54 486q7 61 41 93t85 32z" />
    <glyph glyph-name="approxequal" unicode="&#x2248;" horiz-adv-x="599" 
d="M478 473h46q0 -62 -35.5 -101.5t-97.5 -39.5q-8 0 -16.5 1t-15 2.5t-14 5t-12.5 5.5t-12 6.5t-10 7t-10 8t-9 7.5t-8.5 8t-7.5 7t-9.5 9t-10 9.5t-9.5 8t-11 8t-10 5.5t-12.5 5.5t-12.5 3t-14 1.5q-40 0 -62.5 -26t-22.5 -67h-47q0 63 35 101.5t96 38.5q10 0 20.5 -2
t18 -4t16.5 -7t14 -7.5t13.5 -9.5t11 -9.5t11 -10t9.5 -8.5q18 -17 28 -25t28 -16.5t35 -8.5q38 0 62.5 24.5t24.5 69.5zM478 297h46q0 -62 -35.5 -101t-97.5 -39q-26 0 -51 11.5t-34 19t-30 26.5q-1 1 -9.5 9t-10 9.5t-9.5 8t-11 8t-10 5.5t-12.5 5.5t-12.5 3t-14 1.5
q-40 0 -62.5 -26t-22.5 -67h-47q0 63 35.5 102t95.5 39q12 0 22.5 -2t21 -6.5l17.5 -7.5t16.5 -11t13 -10.5t13 -11.5t10.5 -10q18 -17 28 -25t28 -16.5t35 -8.5q38 0 62.5 24.5t24.5 69.5z" />
    <glyph glyph-name="notequal" unicode="&#x2260;" horiz-adv-x="504" 
d="M429 395h-134l-59 -148h193v-46h-212l-41 -103h-47l41 103h-115v46h134l60 148h-194v47h213l41 103h46l-41 -103h115v-47z" />
    <glyph glyph-name="lessequal" unicode="&#x2264;" horiz-adv-x="463" 
d="M388 485v-44l-265 -78l265 -78v-45l-330 98v49zM55 158v41h333v-41h-333z" />
    <glyph glyph-name="greaterequal" unicode="&#x2265;" horiz-adv-x="463" 
d="M385 338l-330 -98v45l265 78l-265 78v44l330 -98v-49zM55 199h333v-41h-333v41z" />
    <glyph glyph-name="lozenge" unicode="&#x25ca;" horiz-adv-x="603" 
d="M321 650l207 -328l-203 -322h-67l-203 322l207 328h59zM292 37l179 285l-179 284l-180 -284z" />
    <glyph glyph-name="A.ss01" horiz-adv-x="642" 
d="M607 0h-62l-229 559l-229 -559h-62l269 650h44z" />
    <glyph glyph-name="I.ss01" horiz-adv-x="383" 
d="M328 596h-117v-542h117v-54h-293v54h118v542h-118v54h293v-54z" />
    <glyph glyph-name="J.ss01" 
d="M508 650v-423q0 -107 -66 -171t-177 -64q-88 0 -147.5 41t-82.5 108l55 23q18 -55 63.5 -85t111.5 -30q86 0 136 49t50 135v363h-296v54h353z" />
    <glyph glyph-name="R.ss01" horiz-adv-x="599" 
d="M372 189q23 -39 34 -55t32.5 -39.5t47 -32.5t58.5 -9v-54q-59 0 -100.5 21t-69 55t-66.5 102l-51 87h-144v-264h-58v650h298q76 0 128.5 -54.5t52.5 -138.5t-52.5 -138.5t-128.5 -54.5h-25zM113 594v-273h232q57 0 94 39.5t37 96.5t-37 97t-94 40h-232z" />
    <glyph glyph-name="i.loclTRK" horiz-adv-x="200" 
d="M63 460h55v-460h-55v460zM68 578q10 9 23 9t22.5 -9t9.5 -23t-10 -23.5t-22 -9.5q-13 0 -23 9.5t-10 23.5t10 23z" />
    <glyph glyph-name="a.ss01" horiz-adv-x="526" 
d="M43 130q0 34 13.5 58.5t36.5 38.5t55 23.5t68.5 12t65.5 3.5t46 1q23 0 46 -1h22v32q0 57 -39 90t-106 33q-117 0 -148 -79l-46 17q18 49 66 79t128 30q95 0 147.5 -44t52.5 -124v-300h-55v70q-48 -78 -168 -78q-92 0 -138.5 36.5t-46.5 101.5zM96 133q0 -98 137 -98
q88 0 125.5 43t37.5 107v45q-164 0 -213 -11q-86 -20 -87 -86z" />
    <glyph glyph-name="n.ss01" horiz-adv-x="524" 
d="M55 460h207q81 0 134 -45t53 -130v-285h-55v275q0 67 -38.5 103t-108.5 36h-137v-414h-55v460z" />
    <glyph glyph-name="r.ss01" horiz-adv-x="304" 
d="M55 0v272q0 94 55.5 144t148.5 51v-53q-69 -1 -109 -41.5t-40 -109.5v-263h-55z" />
    <glyph glyph-name="u.ss01" horiz-adv-x="524" 
d="M55 175v285h55v-275q0 -66 38.5 -102t108.5 -36h137v413h55v-460h-207q-81 0 -134 45t-53 130z" />
    </font>
</defs>
</svg>
