<?xml version="1.0" standalone="no"?>
<!DOCTYPE svg PUBLIC "-//W3C//DTD SVG 1.1//EN" "http://www.w3.org/Graphics/SVG/1.1/DTD/svg11.dtd" >
<svg xmlns="http://www.w3.org/2000/svg" xmlns:xlink="http://www.w3.org/1999/xlink" version="1.1">
<metadata>
Created by FontForge 20170731 at Tue Jul 14 08:14:46 2020
 By Aleksey,,,
Copyright (c) 2020 by Bagas Ardiatma. All rights reserved.
</metadata>
<defs>
<font id="Causten-Bold" horiz-adv-x="568" >
  <font-face 
    font-family="Causten-Bold"
    font-weight="400"
    font-stretch="normal"
    units-per-em="1000"
    panose-1="0 0 8 0 0 0 0 0 0 0"
    ascent="772"
    descent="-228"
    x-height="460"
    cap-height="650"
    bbox="-363 -200 1284 876"
    underline-thickness="50"
    underline-position="-150"
    unicode-range="U+0020-25CA"
  />
<missing-glyph horiz-adv-x="475" 
d="M88 -200v950h302v-950h-302zM316 -5v107h-157v-107h157zM159 -27v-31h66l-66 -45v-31h157v31h-97l67 45h30v31h-157zM316 159v107h-95v-53h33v22h31v-45h-95v76h-31v-107h157zM159 564v-99h157v32h-62v67h-95zM316 589v31h-62v35h62v31h-156v-31h61v-35h-62v-31h157z
M159 373v-31h95v66h62v31h-157v-31h62v-35h-62zM159 320v-33h157v95h-31v-62h-126zM190 71h95v-45h-95v45zM190 532h31v-35h-31v35z" />
    <glyph glyph-name="f_f" unicode="ff" horiz-adv-x="663" 
d="M75 0v365h-60v95h60v41q0 149 146 149h85v-97h-46q-60 0 -60 -59v-34h192v41q0 73 35.5 111t103.5 38h101v-97h-55q-60 0 -60 -59v-34h104v-95h-104v-365h-125v365h-192v-365h-125z" />
    <glyph glyph-name="t_t.liga" unicode="tt" horiz-adv-x="648" 
d="M209 0q-134 0 -134 133v232h-60v95h60v141h125v-141h190v141h125v-141h98v-95h-98v-212q0 -19 5 -31.5t15.5 -17t19 -6t21.5 -1.5h32v-97h-84q-134 0 -134 133v232h-190v-212q0 -19 5 -31t15.5 -17t19 -6.5t22.5 -1.5h31v-97h-84z" />
    <glyph glyph-name=".notdef" horiz-adv-x="475" 
d="M88 -200v950h302v-950h-302zM316 -5v107h-157v-107h157zM159 -27v-31h66l-66 -45v-31h157v31h-97l67 45h30v31h-157zM316 159v107h-95v-53h33v22h31v-45h-95v76h-31v-107h157zM159 564v-99h157v32h-62v67h-95zM316 589v31h-62v35h62v31h-156v-31h61v-35h-62v-31h157z
M159 373v-31h95v66h62v31h-157v-31h62v-35h-62zM159 320v-33h157v95h-31v-62h-126zM190 71h95v-45h-95v45zM190 532h31v-35h-31v35z" />
    <glyph glyph-name=".null" horiz-adv-x="0" 
 />
    <glyph glyph-name="uni000D" horiz-adv-x="333" 
 />
    <glyph glyph-name="space" unicode=" " horiz-adv-x="200" 
 />
    <glyph glyph-name="exclam" unicode="!" horiz-adv-x="224" 
d="M157 650l-9 -465h-113l-8 465h130zM45 109q19 19 47 19t47.5 -19t19.5 -48t-19 -48q-20 -19 -48 -19t-47.5 19t-19.5 48t20 48z" />
    <glyph glyph-name="quotedbl" unicode="&#x22;" horiz-adv-x="370" 
d="M25 650h122l-18 -178h-91zM224 650h121l-18 -178h-90z" />
    <glyph glyph-name="numbersign" unicode="#" horiz-adv-x="722" 
d="M135 245l33 149h-105v111h129l31 142h119l-31 -142h166l31 142h119l-31 -142h81v-111h-105l-33 -149h100v-111h-124l-30 -137h-119l30 137h-166l-30 -137h-119l30 137h-86v111h110zM254 245h166l33 149h-166z" />
    <glyph glyph-name="dollar" unicode="$" horiz-adv-x="621" 
d="M153 226q12 -30 59.5 -60t97.5 -30q92 0 92 57q0 15 -7.5 26t-24 20t-27.5 13t-35 11t-29 9q-3 1 -10 3q-26 8 -43 14t-48 21.5t-50 33t-34.5 46.5t-15.5 64q0 70 46 113t120 56v69h121v-69q66 -12 118.5 -45t72.5 -75l-102 -66q-15 27 -59 51.5t-89 24.5q-80 0 -80 -51
q0 -12 6.5 -22.5t14 -17.5t23 -14.5t24.5 -10.5t29 -9t25 -8q1 0 19 -6t26 -9l28 -10q20 -8 31 -15.5t28.5 -18t27.5 -23t20.5 -27.5t15.5 -33t5 -39q0 -76 -49 -122.5t-135 -58.5v-68h-121v70q-74 11 -127.5 47.5t-71.5 90.5z" />
    <glyph glyph-name="percent" unicode="%" horiz-adv-x="863" 
d="M484 153q0 71 44 116t113 45q68 0 112.5 -45t44.5 -116q0 -69 -44 -114q-45 -46 -113 -46t-112.5 45.5t-44.5 114.5zM89 611q44 45 113 45q68 0 112.5 -45t44.5 -116q0 -68 -45 -113.5t-112 -45.5q-68 0 -112.5 45.5t-44.5 113.5q0 71 44 116zM549 650h96l-351 -650h-96z
M587 98q21 -23 54 -23q34 0 54.5 22t20.5 56t-20.5 56.5t-54.5 22.5q-33 0 -54 -22.5t-21 -56.5q0 -33 21 -55zM127 495q0 -33 21 -55t54 -22q34 0 54.5 22t20.5 55q0 34 -20.5 56.5t-54.5 22.5q-33 0 -54 -22.5t-21 -56.5z" />
    <glyph glyph-name="ampersand" unicode="&#x26;" horiz-adv-x="653" 
d="M75 269q30 43 101 91l-1 2q-40 49 -58 82t-18 73q0 58 46 100t123 42t123 -43t46 -101q0 -63 -35.5 -105t-89.5 -76l119 -146q28 49 28 111v9h95v-10q0 -105 -61 -187l95 -116h-119l-42 51q-72 -55 -158 -55q-106 0 -165 50t-59 130q0 54 30 98zM163 171q0 -34 27.5 -59
t80.5 -25q51 0 97 33l-132 165q-73 -56 -73 -114zM199 497q1 -7 2.5 -12t5 -12t6 -11t8 -12.5t8.5 -12t11 -13.5l12 -17q85 53 85 102q0 30 -20 48t-49 18t-49.5 -18.5t-20.5 -47.5q0 -6 1 -12z" />
    <glyph glyph-name="quotesingle" unicode="'" horiz-adv-x="172" 
d="M36 472l-11 178h122l-20 -178h-91z" />
    <glyph glyph-name="parenleft" unicode="(" horiz-adv-x="286" 
d="M34 462q21 141 79 230h127q-61 -83 -77.5 -190t-16.5 -179t17 -180.5t78 -190.5h-128q-58 88 -73.5 193.5t-15.5 175.5q0 71 10 141z" />
    <glyph glyph-name="parenright" unicode=")" horiz-adv-x="296" 
d="M35 -48q61 82 78 190.5t17 180.5t-16.5 179t-77.5 190h127q58 -89 73.5 -194.5t16.5 -176.5q-1 -70 -16.5 -175.5t-73.5 -193.5h-128z" />
    <glyph glyph-name="asterisk" unicode="*" horiz-adv-x="384" 
d="M30 431l100 60l-98 63l36 55l89 -57v98h70v-102l92 55l35 -55l-99 -59l97 -63l-36 -56l-89 58v-100h-70v102l-92 -55z" />
    <glyph glyph-name="plus" unicode="+" horiz-adv-x="515" 
d="M196 373v151h103v-151h151v-103h-151v-151h-103v151h-151v103h151z" />
    <glyph glyph-name="comma" unicode="," horiz-adv-x="210" 
d="M25 -102l39 184h121l-70 -184h-90z" />
    <glyph glyph-name="hyphen" unicode="-" horiz-adv-x="405" 
d="M45 218v118h295v-118h-295z" />
    <glyph glyph-name="period" unicode="." horiz-adv-x="183" 
d="M25 61q0 28 19 46.5t48 18.5t47.5 -18.5t18.5 -46.5q0 -29 -18 -48q-19 -19 -48 -19t-48 19t-19 48z" />
    <glyph glyph-name="slash" unicode="/" horiz-adv-x="374" 
d="M25 -47l212 739h122l-212 -739h-122z" />
    <glyph glyph-name="zero" unicode="0" horiz-adv-x="638" 
d="M111 565q76 93 201 93q126 0 203.5 -93.5t77.5 -239.5t-77.5 -239.5t-203.5 -93.5q-125 0 -201 93.5t-76 239.5t76 240zM164 325q0 -97 42.5 -152t105.5 -55q64 0 106 54.5t42 152.5t-42 151t-106 53t-106 -53t-42 -151z" />
    <glyph glyph-name="one" unicode="1" horiz-adv-x="348" 
d="M154 0v532h-141v118h270v-650h-129z" />
    <glyph glyph-name="two" unicode="2" horiz-adv-x="522" 
d="M103 613q61 47 153 47q106 0 168 -53.5t62 -142.5q0 -43 -18 -85.5t-55 -85t-57.5 -62.5t-59.5 -55l-66 -58h256v-118h-455l-1 106l113 98q118 103 157 150q52 61 52 102q0 37 -24.5 58.5t-71.5 21.5q-43 0 -74.5 -24t-40.5 -55l-116 54q16 55 78 102z" />
    <glyph glyph-name="three" unicode="3" horiz-adv-x="559" 
d="M106 179q21 -25 61 -43t86 -18q57 0 92 27t35 73q0 48 -35 75.5t-92 27.5q-56 0 -114 -18l1 93l171 136h-240v118h421v-110l-146 -126q71 -17 117 -65t46 -131q0 -77 -38.5 -129.5t-94.5 -74.5t-123 -22q-71 0 -134.5 28t-93.5 72z" />
    <glyph glyph-name="four" unicode="4" horiz-adv-x="592" 
d="M25 200l327 450h128v-439h77v-94h-77v-117h-128v117h-327v83zM352 211v274l-200 -274h200z" />
    <glyph glyph-name="five" unicode="5" horiz-adv-x="554" 
d="M25 87l85 91q56 -61 135 -61q54 1 91.5 26t37.5 73q0 47 -39 73t-94 26q-71 0 -119 -24l-43 58l54 301h344v-118h-242l-21 -113q11 1 30 1q130 0 195 -59t65 -152q0 -103 -70 -160t-180 -57q-143 0 -229 95z" />
    <glyph glyph-name="six" unicode="6" horiz-adv-x="554" 
d="M77 368l182 282h140l-119 -184q97 -4 160.5 -71t63.5 -166q0 -100 -67 -168.5t-167 -68.5q-101 0 -168 68.5t-67 168.5q0 78 42 139zM157 229q0 -50 31.5 -82.5t81.5 -32.5q49 0 80.5 32.5t31.5 82.5q0 51 -31.5 84t-80.5 33q-50 0 -81.5 -33t-31.5 -84z" />
    <glyph glyph-name="seven" unicode="7" horiz-adv-x="479" 
d="M49 0l245 532h-271v118h421v-86l-260 -564h-135z" />
    <glyph glyph-name="eight" unicode="8" horiz-adv-x="560" 
d="M59 273q24 40 70 65q-82 50 -82 144q0 70 58 124t169 54q110 0 167.5 -54t57.5 -124q0 -94 -82 -144q45 -26 69 -65.5t24 -84.5q0 -88 -61 -143t-175 -55q-116 0 -177.5 55t-61.5 143q0 45 24 85zM190 125q30 -29 84 -29q53 0 82.5 27.5t29.5 70.5q0 42 -29.5 70
t-82.5 28q-55 0 -85 -28t-30 -70q0 -41 31 -69zM193 409q27 -27 81 -27q52 0 79 26.5t27 64.5q0 37 -27 64.5t-79 27.5q-53 0 -81 -27.5t-28 -64.5q0 -38 28 -64z" />
    <glyph glyph-name="nine" unicode="9" horiz-adv-x="554" 
d="M102 590q67 68 167 68q101 0 168 -68.5t67 -168.5q0 -72 -49 -148l-175 -273h-139l116 184q-96 4 -159 71.5t-63 165.5q0 100 67 169zM157 421q0 -51 31.5 -84t80.5 -33q58 0 90 43l1 2q22 30 22 72q0 50 -32 82.5t-81 32.5t-80.5 -32.5t-31.5 -82.5z" />
    <glyph glyph-name="colon" unicode=":" horiz-adv-x="198" 
d="M44 409q19 18 48 18t47.5 -18.5t18.5 -47.5t-18 -48q-19 -19 -48 -19t-48 19t-19 48t19 48zM44 108q19 18 48 18t47.5 -18.5t18.5 -46.5q0 -29 -18 -48q-19 -19 -48 -19t-48 19t-19 48q0 28 19 47z" />
    <glyph glyph-name="semicolon" unicode=";" horiz-adv-x="227" 
d="M65 82h122l-72 -184h-90zM51 360q0 28 19.5 47.5t47.5 19.5q27 0 46.5 -19.5t19.5 -47.5q0 -27 -19.5 -46.5t-46.5 -19.5q-28 0 -47.5 19.5t-19.5 46.5z" />
    <glyph glyph-name="less" unicode="&#x3c;" horiz-adv-x="440" 
d="M45 371l330 122v-96l-204 -75l204 -76v-96l-330 122v99z" />
    <glyph glyph-name="equal" unicode="=" horiz-adv-x="516" 
d="M451 266v-96h-406v96h406zM45 379v95h406v-95h-406z" />
    <glyph glyph-name="greater" unicode="&#x3e;" horiz-adv-x="440" 
d="M375 371v-99l-330 -122v96l204 76l-204 75v96z" />
    <glyph glyph-name="question" unicode="?" horiz-adv-x="505" 
d="M13 519q23 60 80.5 101t139.5 41q96 0 156.5 -46.5t60.5 -131.5q0 -38 -13.5 -70.5t-26 -48t-38.5 -41.5q-30 -32 -40.5 -44.5t-22.5 -34.5t-12 -42v-17h-129v17q0 81 68 147l18 18q12 12 17 17.5t14.5 16t13 17t8.5 16t7 19t2 19.5q0 31 -21.5 51t-61.5 20
q-36 0 -67 -23t-43 -54zM186 107q19 19 48 19t48 -19t19 -48t-19 -48t-48 -19t-48 19t-19 48t19 48z" />
    <glyph glyph-name="at" unicode="@" horiz-adv-x="796" 
d="M144 576q99 100 245 100q145 0 243.5 -96.5t98.5 -240.5q0 -40 -7 -75t-22.5 -65.5t-44 -48.5t-67.5 -18q-43 0 -76 20.5t-48 59.5q-31 -54 -100 -54q-54 0 -98 43t-44 119t44 118.5t98 42.5q58 0 91 -40v35h80v-198q0 -79 53 -79q61 0 61 140q0 126 -77 191t-185 65
q-105 0 -184 -74t-79 -198t79 -198.5t184 -74.5q72 0 124 27l40 -74q-66 -33 -164 -33q-148 0 -246 102t-98 251q0 153 99 253zM305 320q0 -35 21 -58q21 -24 55 -24t55 23.5t21 58.5q0 34 -21 57t-55 23t-55 -23t-21 -57z" />
    <glyph glyph-name="A" unicode="A" horiz-adv-x="665" 
d="M15 0l264 650h98l263 -650h-137l-42 107h-267l-42 -107h-137zM415 225l-87 221l-87 -221h174z" />
    <glyph glyph-name="B" unicode="B" horiz-adv-x="604" 
d="M45 0v650h303q79 0 134 -49t55 -134q0 -87 -61 -130q85 -48 85 -149q0 -85 -58 -136.5t-137 -51.5h-321zM174 280v-162h171q38 0 60.5 23t22.5 58q0 34 -23 57.5t-60 23.5h-171zM327 387q35 0 56 19.5t21 53.5t-21 53t-56 19h-153v-145h153z" />
    <glyph glyph-name="C" unicode="C" horiz-adv-x="667" 
d="M127 564q92 94 236 94q172 0 263 -131l-104 -77q-25 35 -66.5 57t-92.5 22q-89 0 -144 -57.5t-55 -146.5t55 -146.5t144 -57.5q49 0 91 23.5t68 58.5l104 -80q-91 -131 -263 -131q-144 0 -236 94t-92 239t92 239z" />
    <glyph glyph-name="D" unicode="D" horiz-adv-x="655" 
d="M45 0v650h241q142 0 230.5 -90t88.5 -235t-88.5 -235t-230.5 -90h-241zM174 126h112q28 0 57.5 9t61 29t51.5 62t20 99t-20.5 98.5t-51.5 62.5t-60.5 30t-57.5 9h-112v-399z" />
    <glyph glyph-name="E" unicode="E" horiz-adv-x="545" 
d="M485 650v-118h-311v-148h290v-118h-290v-148h311v-118h-440v650h440z" />
    <glyph glyph-name="F" unicode="F" horiz-adv-x="547" 
d="M488 650v-122h-314v-161h295v-121h-295v-246h-129v650h443z" />
    <glyph glyph-name="G" unicode="G" horiz-adv-x="730" 
d="M127 564q92 94 236 94q85 0 152.5 -34.5t110.5 -95.5l-105 -77q-56 78 -158 78q-89 0 -144 -57.5t-55 -146.5t55 -146.5t144 -57.5q60 0 106.5 34t58.5 94h-173v118h319l1 -57q-5 -141 -89 -229.5t-223 -88.5q-144 0 -236 94t-92 239t92 239z" />
    <glyph glyph-name="H" unicode="H" horiz-adv-x="646" 
d="M174 650v-262h277v262h130v-650h-130v262h-277v-262h-129v650h129z" />
    <glyph glyph-name="I" unicode="I" horiz-adv-x="239" 
d="M45 0v650h129v-650h-129z" />
    <glyph glyph-name="J" unicode="J" horiz-adv-x="522" 
d="M151 202q14 -84 88 -84q43 0 66 25.5t23 67.5v439h129v-457q0 -93 -59.5 -147t-158.5 -54q-92 0 -146.5 45.5t-67.5 120.5z" />
    <glyph glyph-name="K" unicode="K" 
d="M174 650v-269l208 269h148l-247 -325l260 -325h-151l-218 271v-271h-129v650h129z" />
    <glyph glyph-name="L" unicode="L" horiz-adv-x="528" 
d="M45 0v650h129v-532h309v-118h-438z" />
    <glyph glyph-name="M" unicode="M" horiz-adv-x="760" 
d="M176 650l194 -386l194 386h131v-650h-130v389l-150 -314h-90l-151 315v-390h-129v650h131z" />
    <glyph glyph-name="N" unicode="N" horiz-adv-x="638" 
d="M171 650l273 -424v424h129v-650h-125l-273 423v-423h-130v650h126z" />
    <glyph glyph-name="O" unicode="O" horiz-adv-x="739" 
d="M127 564q92 94 236 94t235 -94t91 -239t-91 -239t-235 -94t-236 94t-92 239t92 239zM164 325q0 -89 55 -146.5t144 -57.5q88 0 142 57t54 147t-54 147t-142 57q-89 0 -144 -57.5t-55 -146.5z" />
    <glyph glyph-name="P" unicode="P" horiz-adv-x="591" 
d="M45 0v650h303q79 0 138.5 -57.5t59.5 -156.5t-59.5 -156.5t-138.5 -57.5h-174v-222h-129zM174 348h151q38 0 65 24.5t27 63.5q0 40 -26.5 64.5t-63.5 24.5h-153v-177z" />
    <glyph glyph-name="Q" unicode="Q" horiz-adv-x="739" 
d="M35 325q0 145 93 239t235 94q145 0 235.5 -93.5t90.5 -239.5q0 -86 -33.5 -156.5t-94.5 -115.5l90 -135h-155l-55 82q-38 -8 -78 -8q-144 0 -236 94t-92 239zM164 325q0 -88 54.5 -145.5t142.5 -58.5l-57 86h154l30 -45q71 58 71 163q0 90 -54 147t-142 57
q-89 0 -144 -57.5t-55 -146.5z" />
    <glyph glyph-name="R" unicode="R" horiz-adv-x="613" 
d="M45 0v650h312q79 0 138.5 -57.5t59.5 -156.5q0 -77 -37.5 -129.5t-96.5 -73.5l147 -233h-149l-140 222h-105v-222h-129zM336 348q37 0 63 24.5t26 63.5q0 40 -26 64.5t-63 24.5h-162v-177h162z" />
    <glyph glyph-name="S" unicode="S" horiz-adv-x="609" 
d="M129 220q17 -34 72 -68t118 -34q56 0 78.5 18t22.5 51q0 15 -10 28t-30 22.5t-36 15t-41.5 13t-34.5 10.5q-4 1 -27.5 8t-38.5 12.5t-40.5 16.5t-42 24.5t-34 32t-26 43.5t-8.5 54q0 98 72.5 146.5t181.5 48.5q90 0 161.5 -42.5t91.5 -97.5l-102 -66q-15 27 -62.5 52
t-104.5 25q-44 0 -67 -16t-23 -43q0 -15 9.5 -27.5t28.5 -22t34.5 -15t40.5 -12.5t34 -10q2 -1 23 -7.5t32.5 -11t34.5 -14.5t38 -19.5t33.5 -25t29.5 -31.5t19 -38t8 -47q0 -99 -69.5 -152t-189.5 -53q-105 0 -179 46.5t-101 111.5z" />
    <glyph glyph-name="T" unicode="T" horiz-adv-x="589" 
d="M25 650h519v-118h-194v-532h-130v532h-195v118z" />
    <glyph glyph-name="U" unicode="U" horiz-adv-x="614" 
d="M174 650v-406q0 -64 34.5 -95t88.5 -31t88.5 31t34.5 95v406h129v-420q0 -101 -67 -169q-68 -69 -185 -69t-184.5 68.5t-67.5 169.5v420h129z" />
    <glyph glyph-name="V" unicode="V" horiz-adv-x="655" 
d="M15 650h137l171 -437l170 437h137l-256 -650h-103z" />
    <glyph glyph-name="W" unicode="W" horiz-adv-x="950" 
d="M15 650h137l138 -414l136 414h95l134 -398l133 398h137l-217 -650h-111l-127 383l-127 -383h-111z" />
    <glyph glyph-name="X" unicode="X" horiz-adv-x="635" 
d="M15 0l218 325l-218 325h150l143 -213l143 213h149l-217 -325l217 -325h-149l-143 213l-143 -213h-150z" />
    <glyph glyph-name="Y" unicode="Y" horiz-adv-x="625" 
d="M157 650l147 -239l147 239h149l-231 -374v-276h-129v276l-231 374h148z" />
    <glyph glyph-name="Z" unicode="Z" horiz-adv-x="542" 
d="M35 0v108l301 423h-295v119h456v-109l-304 -422l298 -1v-118h-456z" />
    <glyph glyph-name="bracketleft" unicode="[" horiz-adv-x="314" 
d="M249 692v-92h-86v-556h86v-92h-204v740h204z" />
    <glyph glyph-name="backslash" unicode="\" horiz-adv-x="369" 
d="M227 -48l-212 739h122l212 -739h-122z" />
    <glyph glyph-name="bracketright" unicode="]" horiz-adv-x="314" 
d="M249 692v-740h-204v92h86v556h-86v92h204z" />
    <glyph glyph-name="asciicircum" unicode="^" horiz-adv-x="432" 
d="M152 650h105l110 -302h-95l-66 182l-65 -182h-96z" />
    <glyph glyph-name="underscore" unicode="_" horiz-adv-x="457" 
d="M45 0v118h347v-118h-347z" />
    <glyph glyph-name="grave" unicode="`" horiz-adv-x="201" 
d="M78 537l-58 113h107l54 -113h-103z" />
    <glyph glyph-name="a" unicode="a" 
d="M90 401q61 66 156 66q82 0 132 -56v49h125v-460h-125v48q-50 -56 -132 -56q-94 0 -156 67.5t-62 170.5q0 104 62 171zM149 230q0 -52 32 -86t83 -34t82.5 34t31.5 86t-31.5 86t-82.5 34t-83 -34t-32 -86z" />
    <glyph glyph-name="b" unicode="b" 
d="M45 650h125v-239q50 56 132 56q95 0 156.5 -66.5t61.5 -170.5q0 -103 -62 -170.5t-156 -67.5q-82 0 -132 56v-48h-125v650zM202 144q31 -34 82 -34t83 34t32 86t-32 86t-83 34t-82.5 -34t-31.5 -86t32 -86z" />
    <glyph glyph-name="c" unicode="c" horiz-adv-x="488" 
d="M94 402q65 66 169 66q122 0 187 -93l-89 -69q-37 44 -95 44q-51 0 -83.5 -34t-32.5 -86t32.5 -86t83.5 -34q61 0 95 42l89 -67q-65 -94 -187 -94q-104 0 -169.5 67t-65.5 172t66 172z" />
    <glyph glyph-name="d" unicode="d" 
d="M90 401q61 66 156 66q82 0 132 -56v239h125v-650h-125v48q-50 -56 -132 -56q-94 0 -156 67.5t-62 170.5q0 104 62 171zM149 230q0 -52 32 -86t83 -34t82.5 34t31.5 86t-31.5 86t-82.5 34t-83 -34t-32 -86z" />
    <glyph glyph-name="e" unicode="e" horiz-adv-x="526" 
d="M91 402q63 67 166 67q101 0 161 -67t60 -172v-34h-330q9 -46 40 -72.5t74 -26.5q72 0 109 49l85 -62q-30 -44 -81 -69t-113 -25q-104 0 -169 68t-65 172t63 172zM150 275h211q-9 43 -35.5 69t-68.5 26t-70 -25.5t-37 -69.5z" />
    <glyph glyph-name="f" unicode="f" horiz-adv-x="350" 
d="M75 460v41q0 149 146 149h94v-97h-55q-60 0 -60 -59v-34h104v-95h-104v-365h-125v365h-60v95h60z" />
    <glyph glyph-name="g" unicode="g" 
d="M28 230q0 103 61.5 170t155.5 67q84 0 133 -57v50h125v-428q0 -102 -65 -165t-181 -63q-125 0 -195 83l81 69q45 -47 114 -47q26 0 51 9t47.5 38.5t22.5 75.5v17q-50 -57 -133 -57q-94 0 -155.5 67.5t-61.5 170.5zM149 230q0 -52 32 -86q31 -34 82 -34t83 34t32 86
t-32 86t-83 34t-82.5 -34t-31.5 -86z" />
    <glyph glyph-name="h" unicode="h" horiz-adv-x="543" 
d="M45 650h125v-234q47 51 129 51q73 0 126 -44.5t53 -141.5v-281h-125v262q0 54 -28.5 77t-63.5 23t-63 -23t-28 -77v-262h-125v650z" />
    <glyph glyph-name="i" unicode="i" horiz-adv-x="248" 
d="M177 460l-1 -460h-125v460h126zM66 647q20 17 48 17q27 0 48 -18t21 -48q0 -31 -21 -50q-21 -20 -48 -20t-48 19.5t-21 50.5t21 49z" />
    <glyph glyph-name="j" unicode="j" horiz-adv-x="258" 
d="M-23 -184v97h22q15 0 24.5 1.5t19.5 7t15 18.5t5 33v487h125v-514q0 -58 -35.5 -94t-109.5 -36h-66zM76 647q20 17 48 17q27 0 48 -18t21 -48q0 -31 -20 -50q-21 -20 -48 -20t-48.5 19.5t-21.5 50.5t21 49z" />
    <glyph glyph-name="k" unicode="k" horiz-adv-x="510" 
d="M170 650v-366l148 176h146l-183 -218l204 -242h-146l-169 200v-200h-125v650h125z" />
    <glyph glyph-name="l" unicode="l" horiz-adv-x="236" 
d="M45 0v650h126l-1 -650h-125z" />
    <glyph glyph-name="m" unicode="m" horiz-adv-x="822" 
d="M170 460v-46q49 53 122 53q98 0 142 -70q52 70 151 70q71 0 121.5 -43.5t50.5 -142.5v-281h-125v264q0 53 -27.5 73.5t-58.5 20.5q-30 0 -56.5 -20.5t-26.5 -73.5v-264h-125v264q0 53 -27 73.5t-58 20.5t-57 -20.5t-26 -73.5v-264h-125v460h125z" />
    <glyph glyph-name="n" unicode="n" horiz-adv-x="543" 
d="M45 460h125v-44q47 51 129 51q73 0 126 -44.5t53 -141.5v-281h-125v262q0 54 -28.5 77t-63.5 23t-63 -23t-28 -77v-262h-125v460z" />
    <glyph glyph-name="o" unicode="o" horiz-adv-x="550" 
d="M28 230q0 104 66.5 171.5t170.5 67.5q105 0 171 -67t66 -172q0 -104 -66 -172q-67 -68 -171 -68t-170.5 68.5t-66.5 171.5zM151 230q0 -52 32 -86q31 -34 82 -34t82.5 34t31.5 86t-31.5 86t-82.5 34t-82.5 -34t-31.5 -86z" />
    <glyph glyph-name="p" unicode="p" 
d="M45 460h125v-49q50 56 132 56q94 0 156 -67.5t62 -170.5q0 -104 -61.5 -170.5t-156.5 -66.5q-82 0 -132 56v-232h-125v644zM202 144q31 -34 82 -34t83 33.5t32 85.5t-32 86.5t-83 34.5t-82.5 -34t-31.5 -87q0 -52 32 -85z" />
    <glyph glyph-name="q" unicode="q" 
d="M28 229q0 103 62 170.5t156 67.5q82 0 132 -56v49h125v-644h-125v232q-50 -56 -132 -56q-95 0 -156.5 66.5t-61.5 170.5zM149 229q0 -52 32 -85q32 -34 83 -34t82.5 33.5t31.5 85.5q0 53 -31.5 87t-82.5 34t-83 -34.5t-32 -86.5z" />
    <glyph glyph-name="r" unicode="r" horiz-adv-x="367" 
d="M170 460v-83q55 88 162 90v-117q-162 -4 -162 -139v-211h-125v460h125z" />
    <glyph glyph-name="s" unicode="s" horiz-adv-x="451" 
d="M103 154q9 -22 46 -45t77 -23q66 0 66 43q0 11 -5.5 19t-18 14.5t-21.5 10t-27 8.5t-23 7q-1 0 -17 5t-23.5 8t-25 10.5t-28 14t-24.5 18t-21.5 23.5t-13.5 28.5t-6 34.5q0 70 52.5 105t132.5 35q71 0 121 -28t69 -69l-81 -52q-12 19 -45.5 36.5t-67.5 17.5
q-59 0 -59 -39q0 -11 5.5 -19t18 -14.5t20.5 -10t26 -8.5t23 -7q1 0 13 -4l18 -6q6 -2 19.5 -7.5t22 -9.5t21.5 -11.5t21 -15t17.5 -17.5t15 -20.5t9.5 -24t4 -27.5q0 -72 -50 -110t-140 -38q-79 0 -133 32.5t-73 78.5z" />
    <glyph glyph-name="t" unicode="t" horiz-adv-x="341" 
d="M15 365v95h60v141h125v-141h98v-95h-98v-212q0 -19 5 -31t15.5 -17t19 -6.5t22.5 -1.5h31v-97h-83q-135 0 -135 133v232h-60z" />
    <glyph glyph-name="u" unicode="u" horiz-adv-x="543" 
d="M45 460h125v-262q0 -54 29 -77t64 -23t62.5 23t27.5 77v262h125v-460h-125v42q-47 -50 -128 -50q-73 0 -126.5 44.5t-53.5 141.5v282z" />
    <glyph glyph-name="v" unicode="v" horiz-adv-x="516" 
d="M5 460h129l113 -291l115 291h129l-183 -460h-122z" />
    <glyph glyph-name="w" unicode="w" horiz-adv-x="761" 
d="M10 460h129l89 -283l99 283h93l99 -283l88 283h129l-150 -460h-122l-92 270l-92 -270h-122z" />
    <glyph glyph-name="x" unicode="x" horiz-adv-x="524" 
d="M15 0l165 230l-165 230h145l92 -129l92 129h145l-164 -230l164 -230h-145l-92 129l-92 -129h-145z" />
    <glyph glyph-name="y" unicode="y" horiz-adv-x="516" 
d="M134 460l113 -287l115 287h129l-256 -644h-122l73 184l-181 460h129z" />
    <glyph glyph-name="z" unicode="z" horiz-adv-x="424" 
d="M25 0v93l196 265h-194v102h352v-93l-196 -264h194v-103h-352z" />
    <glyph glyph-name="braceleft" unicode="{" horiz-adv-x="365" 
d="M45 282v80h15q15 0 25.5 13t10.5 37v166q0 114 97 114h107v-92h-49q-33 0 -33 -43v-145q0 -68 -55 -90q55 -24 55 -90v-145q0 -43 33 -43h49v-92h-107q-97 0 -97 114v166q0 24 -10.5 37t-25.5 13h-15z" />
    <glyph glyph-name="bar" unicode="|" horiz-adv-x="228" 
d="M45 -48v740h118v-740h-118z" />
    <glyph glyph-name="braceright" unicode="}" horiz-adv-x="365" 
d="M45 44h49q33 0 33 43v145q0 66 55 90q-55 22 -55 90v145q0 43 -33 43h-49v92h107q97 0 97 -114v-166q0 -24 10.5 -37t25.5 -13h15v-80h-15q-15 0 -25.5 -13t-10.5 -37v-166q0 -114 -97 -114h-107v92z" />
    <glyph glyph-name="asciitilde" unicode="~" horiz-adv-x="585" 
d="M83 367q37 47 108 47q26 0 49.5 -10t32.5 -17t28 -25q40 -37 67 -37q57 0 57 73h95q0 -75 -38.5 -122t-113.5 -47q-59 0 -111 48q-4 3 -11.5 10.5t-10.5 10t-9 7t-10 6t-9.5 3t-12.5 1.5q-27 0 -40 -21t-13 -49h-96q0 75 38 122z" />
    <glyph glyph-name="exclamdown" unicode="&#xa1;" horiz-adv-x="204" 
d="M31 455h113l8 -455h-130zM40 637q19 19 47 19t47.5 -19.5t19.5 -46.5q0 -28 -19 -48q-20 -20 -48 -20t-47.5 20t-19.5 48q0 27 20 47z" />
    <glyph glyph-name="cent" unicode="&#xa2;" horiz-adv-x="648" 
d="M103 521q57 81 162 104v72h118v-67q121 -15 200 -128l-107 -69q-55 75 -136 75q-72 0 -120.5 -45.5t-48.5 -132.5t48.5 -132.5t120.5 -45.5q86 0 136 70l107 -65q-79 -113 -200 -128v-77h-118v82q-105 23 -162.5 104.5t-57.5 191.5q0 109 58 191z" />
    <glyph glyph-name="sterling" unicode="&#xa3;" horiz-adv-x="526" 
d="M45 96q138 0 138 114q0 35 -13 81h-119v66h96q-30 74 -30 132q0 72 54 124.5t178 52.5q49 0 108 -9v-92q-48 9 -83 9q-14 0 -41.5 -3t-52 -19.5t-30 -39t-5.5 -39.5q0 -15 5 -41t23 -70l2 -5h154v-66h-132q8 -35 8 -65q0 -81 -56 -130h212v-96h-416v96z" />
    <glyph glyph-name="currency" unicode="&#xa4;" horiz-adv-x="582" 
d="M121 228q-22 42 -22 95q0 55 23 96l-74 74l65 63l72 -72q42 27 98 27q52 0 96 -25l70 70l66 -60l-73 -75q24 -45 24 -98q0 -54 -23 -97l74 -74l-65 -63l-72 72q-42 -27 -97 -27q-56 0 -100 28l-70 -70l-68 60zM220 256q25 -26 63 -26t63 25.5t25 67.5t-25 67.5t-63 25.5
t-63 -25.5t-25 -67.5t25 -67z" />
    <glyph glyph-name="yen" unicode="&#xa5;" horiz-adv-x="625" 
d="M9 650h148l147 -239l147 239h149l-211 -342h116v-65h-136v-72h136v-66h-136v-105h-129v105h-137v66h137v72h-137v65h116z" />
    <glyph glyph-name="brokenbar" unicode="&#xa6;" horiz-adv-x="228" 
d="M45 384v308h118v-308h-118zM163 259v-307h-118v307h118z" />
    <glyph glyph-name="section" unicode="&#xa7;" horiz-adv-x="471" 
d="M142 122q7 -31 36 -44t60 -13q70 0 70 50q0 22 -19.5 36.5t-60.5 29.5q-22 8 -36.5 13t-40 18.5t-41 27.5t-28 36t-12.5 47q0 79 64 111q-60 35 -60 103q0 61 45.5 99t117.5 38q64 0 104 -27.5t54 -70.5l-86 -39q-15 42 -72 42q-33 0 -50.5 -12t-17.5 -30q0 -31 70 -55
q1 0 28.5 -9t38 -13t34.5 -17t35 -26t21 -34.5t10 -47.5q0 -83 -67 -114q65 -37 65 -106q0 -76 -50 -111t-119 -35q-77 0 -124 33.5t-66 87.5zM187 294q21 -16 51 -16q34 0 53 15t19 42q0 55 -75 55q-33 0 -51 -15t-18 -40q0 -26 21 -41z" />
    <glyph glyph-name="dieresis" unicode="&#xa8;" horiz-adv-x="344" 
d="M209 633q0 25 17.5 40t39.5 15q23 0 40.5 -15t17.5 -40q0 -26 -18 -42t-40 -16t-39.5 16t-17.5 42zM20 633q0 25 17.5 40t40.5 15q22 0 39.5 -15t17.5 -40q0 -26 -17 -42q-18 -16 -40 -16t-40 16t-18 42z" />
    <glyph glyph-name="copyright" unicode="&#xa9;" horiz-adv-x="765" 
d="M137 564q92 94 236 94t235.5 -94t91.5 -239q0 -147 -91.5 -240t-235.5 -93q-147 0 -237.5 93.5t-90.5 239.5q0 145 92 239zM180 139q69 -81 193 -81q65 0 116.5 23.5t82 62t46.5 85t16 96.5q0 68 -26.5 127t-87.5 100t-147 41q-65 0 -117 -23.5t-82.5 -62.5t-46.5 -85.5
t-16 -96.5q0 -106 69 -186zM210 326q0 77 48 127t124 50q92 0 140 -69l-56 -41q-30 44 -84 44q-37 0 -71.5 -27t-34.5 -84t34.5 -84.5t71.5 -27.5q52 0 84 43l56 -39q-48 -70 -140 -70q-76 0 -124 50.5t-48 127.5z" />
    <glyph glyph-name="guillemotleft" unicode="&#xab;" horiz-adv-x="690" 
d="M485 507h150l-171 -186l171 -186h-150l-172 186zM35 321l172 186h150l-171 -186l171 -186h-150z" />
    <glyph glyph-name="logicalnot" unicode="&#xac;" horiz-adv-x="546" 
d="M363 184v125h-318v118h436v-243h-118z" />
    <glyph glyph-name="registered" unicode="&#xae;" horiz-adv-x="764" 
d="M137 563q92 95 236 95q143 0 234.5 -95t91.5 -238t-91.5 -238t-234.5 -95q-144 0 -236 95t-92 238t92 238zM127 231q16 -47 47 -86t82.5 -63t116.5 -24q85 0 145.5 41.5t87 100.5t26.5 125q0 49 -16 95t-46 85.5t-81.5 63.5t-115.5 24q-65 0 -116.5 -24t-82.5 -63.5
t-47 -85.5t-16 -95q0 -48 16 -94zM240 493h166q41 0 72.5 -30.5t31.5 -81.5q0 -40 -19.5 -68t-49.5 -40l76 -122h-79l-72 116h-57v-116h-69v342zM309 427v-92h86q18 0 31.5 12.5t13.5 33.5q0 20 -13.5 33t-31.5 13h-86z" />
    <glyph glyph-name="macron" unicode="&#xaf;" horiz-adv-x="237" 
d="M20 570v80h197v-80h-197z" />
    <glyph glyph-name="degree" unicode="&#xb0;" horiz-adv-x="321" 
d="M73 624q34 34 88 34q52 0 87 -34.5t35 -87.5t-35 -87t-87 -34q-54 0 -88.5 34t-34.5 87q0 54 35 88zM103 536q0 -24 17 -40t41 -16t40.5 16t16.5 40t-16.5 40t-40.5 16t-41 -16t-17 -40z" />
    <glyph glyph-name="plusminus" unicode="&#xb1;" horiz-adv-x="469" 
d="M177 424v84h96v-84h131v-80h-131v-85h-96v85h-132v80h132zM45 208h359v-81h-359v81z" />
    <glyph glyph-name="twosuperior" unicode="&#xb2;" horiz-adv-x="339" 
d="M72 632q36 28 92 28q64 0 101.5 -32t37.5 -86q0 -26 -11 -52t-33 -51.5t-34 -37.5t-36 -33l-40 -35h154v-71h-274l-1 64l68 59q39 33 58.5 51.5t43.5 49.5t24 51q0 48 -58 48q-25 0 -44 -14t-25 -33l-70 32q10 33 47 62z" />
    <glyph glyph-name="threesuperior" unicode="&#xb3;" horiz-adv-x="367" 
d="M74 366q31 -37 89 -37q34 0 55 16t21 44q0 29 -21 46t-55 17q-32 0 -69 -11v56l104 82h-145v71h254v-66l-88 -76q98 -24 98 -119q0 -68 -45 -102t-109 -34q-43 0 -81.5 17t-56.5 43z" />
    <glyph glyph-name="acute" unicode="&#xb4;" horiz-adv-x="201" 
d="M20 537l54 113h107l-58 -113h-103z" />
    <glyph glyph-name="paragraph" unicode="&#xb6;" horiz-adv-x="593" 
d="M84 604q43 46 113 46h121v-650h-118v325q-75 0 -117 41.5t-42 115.5q0 75 43 122zM410 650h118v-650h-118v650z" />
    <glyph glyph-name="periodcentered" unicode="&#xb7;" horiz-adv-x="186" 
d="M44 374q19 19 49 19q29 0 48.5 -19t19.5 -48q0 -30 -19.5 -49t-48.5 -19q-30 0 -49 19t-19 49q0 29 19 48z" />
    <glyph glyph-name="cedilla" unicode="&#xb8;" horiz-adv-x="207" 
d="M85 -134q39 0 39 20q0 19 -44 19q-29 0 -41 -6l-1 50q1 0 1 1l31 50h71l-26 -44q71 -13 71 -70q0 -80 -101 -80q-44 0 -64 10v63q19 -13 64 -13z" />
    <glyph glyph-name="onesuperior" unicode="&#xb9;" horiz-adv-x="241" 
d="M98 258v321h-85v71h163v-392h-78z" />
    <glyph glyph-name="guillemotright" unicode="&#xbb;" horiz-adv-x="663" 
d="M471 321l-171 186h146l172 -186l-172 -186h-146zM171 507l172 -186l-172 -186h-146l171 186l-171 186h146z" />
    <glyph glyph-name="onequarter" unicode="&#xbc;" horiz-adv-x="512" 
d="M236 99l162 223h64v-217h38v-47h-38v-58h-64v58h-162v41zM429 650h64l-401 -650h-64zM10 590v60h136v-328h-65v268h-71zM398 105v135l-99 -135h99z" />
    <glyph glyph-name="onehalf" unicode="&#xbd;" horiz-adv-x="565" 
d="M427 650h64l-401 -650h-64zM319 249q8 27 38 50t75 23q52 0 82 -26t30 -70q0 -59 -93 -140l-32 -29h125v-57h-222v52l55 47q75 66 92 95q9 16 9 28q0 39 -46 39q-21 0 -36.5 -11.5t-19.5 -26.5zM10 650h136v-328h-65v268h-71v60z" />
    <glyph glyph-name="threequarters" unicode="&#xbe;" horiz-adv-x="565" 
d="M288 58v41l162 223h64v-217h38v-47h-38v-58h-64v58h-162zM53 415q24 -30 73 -30q28 0 45.5 13t17.5 37t-17.5 37.5t-45.5 13.5q-27 0 -57 -9l1 46l85 68h-120v59h210v-55l-73 -63q82 -20 82 -97q0 -57 -37.5 -85t-90.5 -28q-36 0 -67.5 14t-46.5 36zM81 0l401 650h64
l-401 -650h-64zM450 105v135l-99 -135h99z" />
    <glyph glyph-name="questiondown" unicode="&#xbf;" horiz-adv-x="462" 
d="M13 173q0 37 13.5 69.5t25.5 47.5t38 42q3 3 12.5 13.5t12 13.5t10.5 11.5t10.5 12t8 11t7.5 12t5.5 11t5 12t2.5 12t1 12.5v17h130v-17q0 -80 -69 -147q-30 -30 -42 -43t-25 -37t-13 -47q0 -30 21.5 -48.5t61.5 -18.5q36 0 67.5 23t42.5 54l111 -53q-23 -60 -81 -101
t-140 -41q-96 0 -156 46.5t-60 132.5zM161 595q0 28 19.5 47t48.5 19t47.5 -18.5t18.5 -47.5t-19 -48.5t-47 -19.5q-29 0 -48.5 19.5t-19.5 48.5z" />
    <glyph glyph-name="Agrave" unicode="&#xc0;" horiz-adv-x="665" 
d="M15 0l264 650h98l263 -650h-137l-42 107h-267l-42 -107h-137zM415 225l-87 221l-87 -221h174zM222 823h107l54 -113h-103z" />
    <glyph glyph-name="Aacute" unicode="&#xc1;" horiz-adv-x="665" 
d="M15 0l264 650h98l263 -650h-137l-42 107h-267l-42 -107h-137zM415 225l-87 221l-87 -221h174zM331 823h107l-58 -113h-103z" />
    <glyph glyph-name="Acircumflex" unicode="&#xc2;" horiz-adv-x="665" 
d="M279 650h98l263 -650h-137l-42 107h-267l-42 -107h-137zM186 710l73 113h141l73 -113h-104l-39 69l-40 -69h-104zM415 225l-87 221l-87 -221h174z" />
    <glyph glyph-name="Atilde" unicode="&#xc3;" horiz-adv-x="665" 
d="M279 650h98l263 -650h-137l-42 107h-267l-42 -107h-137zM165 705q1 52 27.5 85.5t74.5 33.5q45 0 76 -35q22 -24 42 -24q34 0 34 46h73q-1 -53 -27.5 -85.5t-79.5 -32.5q-45 0 -76 35q-22 24 -39 24t-24.5 -15t-7.5 -32h-73zM415 225l-87 221l-87 -221h174z" />
    <glyph glyph-name="Adieresis" unicode="&#xc4;" horiz-adv-x="665" 
d="M279 650h98l263 -650h-137l-42 107h-267l-42 -107h-137zM415 225l-87 221l-87 -221h174zM178 753q0 25 17.5 40t40.5 15q22 0 39.5 -15t17.5 -40q0 -26 -17 -42q-18 -16 -40 -16t-40 16t-18 42zM367 753q0 25 17.5 40t39.5 15q23 0 40.5 -15t17.5 -40q0 -26 -18 -42
t-40 -16t-39.5 16t-17.5 42z" />
    <glyph glyph-name="Aring" unicode="&#xc5;" horiz-adv-x="665" 
d="M15 0l264 650h98l263 -650h-137l-42 107h-267l-42 -107h-137zM233 784q0 41 27 66.5t70 25.5t69 -25.5t26 -66.5q0 -39 -26 -65q-27 -26 -69 -26t-69.5 26t-27.5 65zM241 225h174l-87 221zM330 748q19 0 27.5 11.5t8.5 24.5t-8.5 25t-27.5 12q-36 0 -36 -37q0 -36 36 -36
z" />
    <glyph glyph-name="AE" unicode="&#xc6;" horiz-adv-x="973" 
d="M15 0l271 650h627v-118h-287v-148h266v-118h-266v-148h287v-118h-417v266h-233l-111 -266h-137zM496 384v148h-123l-61 -148h184z" />
    <glyph glyph-name="Ccedilla" unicode="&#xc7;" horiz-adv-x="667" 
d="M127 564q92 94 236 94q172 0 263 -131l-104 -77q-25 35 -66.5 57t-92.5 22q-89 0 -144 -57.5t-55 -146.5t55 -146.5t144 -57.5q49 0 91 23.5t68 58.5l104 -80q-81 -118 -234 -130l-18 -32q71 -13 71 -70q0 -80 -101 -80q-44 0 -64 10v63q18 -13 64 -13q38 0 38 20
q0 19 -43 19q-31 0 -41 -6l-1 50l24 40q-128 14 -207 105.5t-79 225.5q0 145 92 239z" />
    <glyph glyph-name="Egrave" unicode="&#xc8;" horiz-adv-x="545" 
d="M45 0v650h440v-118h-311v-148h290v-118h-290v-148h311v-118h-440zM164 823h107l54 -113h-103z" />
    <glyph glyph-name="Eacute" unicode="&#xc9;" horiz-adv-x="545" 
d="M485 650v-118h-311v-148h290v-118h-290v-148h311v-118h-440v650h440zM219 710l54 113h107l-58 -113h-103z" />
    <glyph glyph-name="Ecircumflex" unicode="&#xca;" horiz-adv-x="545" 
d="M485 650v-118h-311v-148h290v-118h-290v-148h311v-118h-440v650h440zM128 710l73 113h141l73 -113h-104l-39 69l-40 -69h-104z" />
    <glyph glyph-name="Edieresis" unicode="&#xcb;" horiz-adv-x="545" 
d="M485 650v-118h-311v-148h290v-118h-290v-148h311v-118h-440v650h440zM327 793q17 15 39 15q23 0 40.5 -15t17.5 -40q0 -26 -18 -42t-40 -16t-39.5 16t-17.5 42q0 25 18 40zM120 753q0 25 17.5 40t40.5 15q22 0 39.5 -15t17.5 -40q0 -26 -17 -42q-18 -16 -40 -16t-40 16
t-18 42z" />
    <glyph glyph-name="Igrave" unicode="&#xcc;" horiz-adv-x="239" 
d="M59 710l-58 113h107l54 -113h-103zM45 0v650h129v-650h-129z" />
    <glyph glyph-name="Iacute" unicode="&#xcd;" horiz-adv-x="239" 
d="M57 710l54 113h107l-58 -113h-103zM45 0v650h129v-650h-129z" />
    <glyph glyph-name="Icircumflex" unicode="&#xce;" horiz-adv-x="239" 
d="M45 650h129v-650h-129v650zM-35 710l73 113h141l73 -113h-104l-39 69l-40 -69h-104z" />
    <glyph glyph-name="Idieresis" unicode="&#xcf;" horiz-adv-x="239" 
d="M174 650v-650h-129v650h129zM-43 753q0 25 17.5 40t40.5 15q22 0 39.5 -15t17.5 -40q0 -26 -17 -42q-18 -16 -40 -16t-40 16t-18 42zM164 793q17 15 39 15q23 0 40.5 -15t17.5 -40q0 -26 -18 -42t-40 -16t-39.5 16t-17.5 42q0 25 18 40z" />
    <glyph glyph-name="Ntilde" unicode="&#xd1;" horiz-adv-x="638" 
d="M171 650l273 -424v424h129v-650h-125l-273 423v-423h-130v650h126zM176 791q26 33 74 33q45 0 76 -35q22 -24 42 -24q34 0 34 46h73q-1 -53 -27.5 -85.5t-79.5 -32.5q-45 0 -76 35q-22 24 -39 24t-24.5 -15t-7.5 -32h-73q1 52 28 86z" />
    <glyph glyph-name="Ograve" unicode="&#xd2;" horiz-adv-x="739" 
d="M127 564q92 94 236 94t235 -94t91 -239t-91 -239t-235 -94t-236 94t-92 239t92 239zM219 179q55 -58 144 -58q88 0 142 57t54 147t-54 147t-142 57q-89 0 -144 -57.5t-55 -146.5t55 -146zM363 823l54 -113h-103l-58 113h107z" />
    <glyph glyph-name="Oacute" unicode="&#xd3;" horiz-adv-x="739" 
d="M35 325q0 145 92 239t236 94t235 -94t91 -239t-91 -239t-235 -94t-236 94t-92 239zM164 325q0 -89 55 -146.5t144 -57.5q88 0 142 57t54 147t-54 147t-142 57q-89 0 -144 -57.5t-55 -146.5zM365 823h107l-58 -113h-103z" />
    <glyph glyph-name="Ocircumflex" unicode="&#xd4;" horiz-adv-x="739" 
d="M35 325q0 145 92 239t236 94t235 -94t91 -239t-91 -239t-235 -94t-236 94t-92 239zM219 179q55 -58 144 -58q88 0 142 57t54 147t-54 147t-142 57q-89 0 -144 -57.5t-55 -146.5t55 -146zM220 710l73 113h141l73 -113h-104l-39 69l-40 -69h-104z" />
    <glyph glyph-name="Otilde" unicode="&#xd5;" horiz-adv-x="739" 
d="M127 564q92 94 236 94t235 -94t91 -239t-91 -239t-235 -94t-236 94t-92 239t92 239zM219 179q55 -58 144 -58q88 0 142 57t54 147t-54 147t-142 57q-89 0 -144 -57.5t-55 -146.5t55 -146zM199 705q1 52 27.5 85.5t74.5 33.5q45 0 76 -35q22 -24 42 -24q34 0 34 46h73
q-1 -53 -27.5 -85.5t-79.5 -32.5q-45 0 -76 35q-22 24 -39 24t-24.5 -15t-7.5 -32h-73z" />
    <glyph glyph-name="Odieresis" unicode="&#xd6;" horiz-adv-x="739" 
d="M127 564q92 94 236 94t235 -94t91 -239t-91 -239t-235 -94t-236 94t-92 239t92 239zM219 179q55 -58 144 -58q88 0 142 57t54 147t-54 147t-142 57q-89 0 -144 -57.5t-55 -146.5t55 -146zM212 753q0 25 17.5 40t40.5 15q22 0 39.5 -15t17.5 -40q0 -26 -17 -42
q-18 -16 -40 -16t-40 16t-18 42zM401 753q0 25 17.5 40t39.5 15q23 0 40.5 -15t17.5 -40q0 -26 -18 -42t-40 -16t-39.5 16t-17.5 42z" />
    <glyph glyph-name="multiply" unicode="&#xd7;" horiz-adv-x="503" 
d="M118 127l-73 68l126 125l-126 125l73 71l125 -124l124 124l71 -68l-125 -125l125 -124l-72 -72l-125 124z" />
    <glyph glyph-name="Oslash" unicode="&#xd8;" horiz-adv-x="739" 
d="M363 -8q-97 0 -175 46l-30 -38h-105l70 90q-88 93 -88 235q0 145 92 239t236 94q94 0 170 -43l34 43h105l-74 -94q91 -93 91 -239q0 -145 -91 -239t-235 -94zM204 194l248 317q-39 18 -89 18q-90 0 -144.5 -56t-54.5 -148q0 -79 40 -131zM363 121q90 0 143 56t53 148
q0 81 -42 135l-249 -319q43 -20 95 -20z" />
    <glyph glyph-name="Ugrave" unicode="&#xd9;" horiz-adv-x="614" 
d="M45 650h129v-406q0 -64 34.5 -95t88.5 -31t88.5 31t34.5 95v406h129v-420q0 -101 -67 -169q-68 -69 -185 -69t-184.5 68.5t-67.5 169.5v420zM193 823h107l54 -113h-103z" />
    <glyph glyph-name="Uacute" unicode="&#xda;" horiz-adv-x="614" 
d="M174 650v-406q0 -64 34.5 -95t88.5 -31t88.5 31t34.5 95v406h129v-420q0 -101 -67 -169q-68 -69 -185 -69t-184.5 68.5t-67.5 169.5v420h129zM248 710l54 113h107l-58 -113h-103z" />
    <glyph glyph-name="Ucircumflex" unicode="&#xdb;" horiz-adv-x="614" 
d="M45 650h129v-406q0 -64 34.5 -95t88.5 -31t88.5 31t34.5 95v406h129v-420q0 -101 -67 -169q-68 -69 -185 -69t-184.5 68.5t-67.5 169.5v420zM230 823h141l73 -113h-104l-39 69l-40 -69h-104z" />
    <glyph glyph-name="Udieresis" unicode="&#xdc;" horiz-adv-x="614" 
d="M45 230v420h129v-406q0 -64 34.5 -95t88.5 -31t88.5 31t34.5 95v406h129v-420q0 -101 -67 -169q-68 -69 -185 -69t-184.5 68.5t-67.5 169.5zM149 753q0 25 17.5 40t40.5 15q22 0 39.5 -15t17.5 -40q0 -26 -17 -42q-18 -16 -40 -16t-40 16t-18 42zM338 753q0 25 17.5 40
t39.5 15q23 0 40.5 -15t17.5 -40q0 -26 -18 -42t-40 -16t-39.5 16t-17.5 42z" />
    <glyph glyph-name="Yacute" unicode="&#xdd;" horiz-adv-x="625" 
d="M9 650h148l147 -239l147 239h149l-231 -374v-276h-129v276zM252 710l54 113h107l-58 -113h-103z" />
    <glyph glyph-name="germandbls" unicode="&#xdf;" horiz-adv-x="540" 
d="M45 0v445q0 106 64.5 161t162.5 55q91 0 149.5 -47t58.5 -128t-60 -128q85 -52 85 -164q0 -84 -57.5 -139t-162.5 -55h-78v111h48q125 0 125 83q0 48 -36.5 67.5t-88.5 19.5h-48v104h42q50 0 82 23t32 64q0 38 -26 60.5t-65 22.5q-44 0 -72.5 -28.5t-28.5 -87.5v-439
h-126z" />
    <glyph glyph-name="agrave" unicode="&#xe0;" 
d="M90 401q61 66 156 66q82 0 132 -56v49h125v-460h-125v48q-50 -56 -132 -56q-94 0 -156 67.5t-62 170.5q0 104 62 171zM181 144q32 -34 83 -34t82.5 34t31.5 86t-31.5 86t-82.5 34t-83 -34t-32 -86t32 -86zM187 640h107l54 -113h-103z" />
    <glyph glyph-name="aacute" unicode="&#xe1;" 
d="M90 401q61 66 156 66q82 0 132 -56v49h125v-460h-125v48q-50 -56 -132 -56q-94 0 -156 67.5t-62 170.5q0 104 62 171zM181 144q32 -34 83 -34t82.5 34t31.5 86t-31.5 86t-82.5 34t-83 -34t-32 -86t32 -86zM296 640h107l-58 -113h-103z" />
    <glyph glyph-name="acircumflex" unicode="&#xe2;" 
d="M90 401q61 66 156 66q82 0 132 -56v49h125v-460h-125v48q-50 -56 -132 -56q-94 0 -156 67.5t-62 170.5q0 104 62 171zM149 230q0 -52 32 -86t83 -34t82.5 34t31.5 86t-31.5 86t-82.5 34t-83 -34t-32 -86zM224 640h141l73 -113h-104l-39 69l-40 -69h-104z" />
    <glyph glyph-name="atilde" unicode="&#xe3;" 
d="M28 230q0 104 61.5 170.5t156.5 66.5q82 0 132 -56v49h125v-460h-125v48q-50 -56 -132 -56q-94 0 -156 67.5t-62 170.5zM181 144q32 -34 83 -34t82.5 34t31.5 86t-31.5 86t-82.5 34t-83 -34t-32 -86t32 -86zM130 522q1 52 27.5 85.5t74.5 33.5q45 0 76 -35q22 -24 42 -24
q34 0 34 46h73q-1 -53 -27.5 -85.5t-79.5 -32.5q-45 0 -76 35q-22 24 -39 24t-24.5 -15t-7.5 -32h-73z" />
    <glyph glyph-name="adieresis" unicode="&#xe4;" 
d="M28 230q0 104 61.5 170.5t156.5 66.5q82 0 132 -56v49h125v-460h-125v48q-50 -56 -132 -56q-94 0 -156 67.5t-62 170.5zM149 230q0 -52 32 -86t83 -34t82.5 34t31.5 86t-31.5 86t-82.5 34t-83 -34t-32 -86zM143 570q0 25 17.5 40t40.5 15q22 0 39.5 -15t17.5 -40
q0 -26 -17 -42q-18 -16 -40 -16t-40 16t-18 42zM332 570q0 25 17.5 40t39.5 15q23 0 40.5 -15t17.5 -40q0 -26 -18 -42t-40 -16t-39.5 16t-17.5 42z" />
    <glyph glyph-name="aring" unicode="&#xe5;" 
d="M90 401q61 66 156 66q82 0 132 -56v49h125v-460h-125v48q-50 -56 -132 -56q-94 0 -156 67.5t-62 170.5q0 104 62 171zM181 144q32 -34 83 -34t82.5 34t31.5 86t-31.5 86t-82.5 34t-83 -34t-32 -86t32 -86zM198 601q0 41 27 66.5t70 25.5t69 -25.5t26 -66.5q0 -39 -26 -65
q-27 -26 -69 -26t-69.5 26t-27.5 65zM259 601q0 -36 36 -36q19 0 27.5 11.5t8.5 24.5t-8.5 25t-27.5 12q-36 0 -36 -37z" />
    <glyph glyph-name="ae" unicode="&#xe6;" horiz-adv-x="895" 
d="M228 -8q-200 0 -200 130q0 36 16.5 61.5t41.5 40.5t65.5 24t76 12t86.5 5q-2 62 -26 85t-64 23q-63 0 -85 -49l-98 35q39 108 192 108q77 0 127 -32.5t68 -88.5q27 56 79.5 88.5t121.5 32.5q95 0 157 -67t62 -170v-39h-313q9 -45 37 -69t66 -24q67 0 102 53l87 -60
q-65 -99 -192 -99q-72 0 -127 35t-81 93q-20 -59 -65 -93.5t-134 -34.5zM533 267h199q-6 51 -33 76t-63 25q-46 0 -71.5 -27.5t-31.5 -73.5zM220 80q45 0 68.5 23t25.5 86q-29 -1 -47 -2t-39.5 -3.5t-33.5 -7t-23.5 -10.5t-16.5 -15.5t-5 -22.5q0 -48 71 -48z" />
    <glyph glyph-name="ccedilla" unicode="&#xe7;" horiz-adv-x="488" 
d="M28 230q0 105 65.5 171.5t169.5 66.5q122 0 187 -93l-89 -69q-37 44 -95 44q-51 0 -83.5 -34t-32.5 -86t32.5 -86t83.5 -34q61 0 95 42l89 -67q-53 -78 -154 -92l-18 -32q71 -13 71 -70q0 -80 -101 -80q-44 0 -64 10v63q18 -13 64 -13q38 0 38 20q0 19 -43 19
q-31 0 -41 -6l-1 50l24 40q-89 12 -143 77t-54 159z" />
    <glyph glyph-name="egrave" unicode="&#xe8;" horiz-adv-x="526" 
d="M91 402q63 67 166 67q101 0 161 -67t60 -172v-34h-330q9 -46 40 -72.5t74 -26.5q72 0 109 49l85 -62q-30 -44 -81 -69t-113 -25q-104 0 -169 68t-65 172t63 172zM150 275h211q-9 43 -35.5 69t-68.5 26t-70 -25.5t-37 -69.5zM150 640h107l54 -113h-103z" />
    <glyph glyph-name="eacute" unicode="&#xe9;" horiz-adv-x="526" 
d="M91 402q63 67 166 67q101 0 161 -67t60 -172v-34h-330q9 -46 40 -72.5t74 -26.5q72 0 109 49l85 -62q-30 -44 -81 -69t-113 -25q-104 0 -169 68t-65 172t63 172zM150 275h211q-9 43 -35.5 69t-68.5 26t-70 -25.5t-37 -69.5zM205 527l54 113h107l-58 -113h-103z" />
    <glyph glyph-name="ecircumflex" unicode="&#xea;" horiz-adv-x="526" 
d="M91 402q63 67 166 67q101 0 161 -67t60 -172v-34h-330q9 -46 40 -72.5t74 -26.5q72 0 109 49l85 -62q-30 -44 -81 -69t-113 -25q-104 0 -169 68t-65 172t63 172zM187 640h141l73 -113h-104l-39 69l-40 -69h-104zM150 275h211q-9 43 -35.5 69t-68.5 26t-70 -25.5
t-37 -69.5z" />
    <glyph glyph-name="edieresis" unicode="&#xeb;" horiz-adv-x="526" 
d="M28 230q0 104 63 171.5t166 67.5q101 0 161 -67t60 -172v-34h-330q9 -46 40 -72.5t74 -26.5q72 0 109 49l85 -62q-30 -44 -81 -69t-113 -25q-104 0 -169 68t-65 172zM150 275h211q-9 43 -35.5 69t-68.5 26t-70 -25.5t-37 -69.5zM124 610q17 15 40 15q22 0 39.5 -15
t17.5 -40q0 -26 -17 -42q-18 -16 -40 -16t-40 16t-18 42q0 25 18 40zM313 610q17 15 39 15q23 0 40.5 -15t17.5 -40q0 -26 -18 -42t-40 -16t-39.5 16t-17.5 42q0 25 18 40z" />
    <glyph glyph-name="igrave" unicode="&#xec;" horiz-adv-x="241" 
d="M60 527l-58 113h107l54 -113h-103zM48 0v460h125v-460h-125z" />
    <glyph glyph-name="iacute" unicode="&#xed;" horiz-adv-x="241" 
d="M58 527l54 113h107l-58 -113h-103zM48 0v460h125v-460h-125z" />
    <glyph glyph-name="icircumflex" unicode="&#xee;" horiz-adv-x="241" 
d="M48 460h125v-460h-125v460zM-34 527l73 113h141l73 -113h-104l-39 69l-40 -69h-104z" />
    <glyph glyph-name="idieresis" unicode="&#xef;" horiz-adv-x="241" 
d="M173 460v-460h-125v460h125zM-42 570q0 25 17.5 40t40.5 15q22 0 39.5 -15t17.5 -40q0 -26 -17 -42q-18 -16 -40 -16t-40 16t-18 42zM165 610q17 15 39 15q23 0 40.5 -15t17.5 -40q0 -26 -18 -42t-40 -16t-39.5 16t-17.5 42q0 25 18 40z" />
    <glyph glyph-name="ntilde" unicode="&#xf1;" horiz-adv-x="543" 
d="M45 0v460h125v-44q47 51 129 51q73 0 126 -44.5t53 -141.5v-281h-125v262q0 54 -28.5 77t-63.5 23t-63 -23t-28 -77v-262h-125zM125 608q26 33 74 33q45 0 76 -35q22 -24 42 -24q34 0 34 46h73q-1 -53 -27.5 -85.5t-79.5 -32.5q-45 0 -76 35q-22 24 -39 24t-24.5 -15
t-7.5 -32h-73q1 52 28 86z" />
    <glyph glyph-name="ograve" unicode="&#xf2;" horiz-adv-x="550" 
d="M95 402q66 67 170 67q105 0 171 -67t66 -172q0 -104 -66 -172q-67 -68 -171 -68t-170.5 68.5t-66.5 171.5q0 104 67 172zM183 144q31 -34 82 -34t82.5 34t31.5 86t-31.5 86t-82.5 34t-82.5 -34t-31.5 -86t32 -86zM265 640l54 -113h-103l-58 113h107z" />
    <glyph glyph-name="oacute" unicode="&#xf3;" horiz-adv-x="550" 
d="M28 230q0 104 66.5 171.5t170.5 67.5q105 0 171 -67t66 -172q0 -104 -66 -172q-67 -68 -171 -68t-170.5 68.5t-66.5 171.5zM183 144q31 -34 82 -34t82.5 34t31.5 86t-31.5 86t-82.5 34t-82.5 -34t-31.5 -86t32 -86zM267 640h107l-58 -113h-103z" />
    <glyph glyph-name="ocircumflex" unicode="&#xf4;" horiz-adv-x="550" 
d="M28 230q0 104 66.5 171.5t170.5 67.5q105 0 171 -67t66 -172q0 -104 -66 -172q-67 -68 -171 -68t-170.5 68.5t-66.5 171.5zM183 144q31 -34 82 -34t82.5 34t31.5 86t-31.5 86t-82.5 34t-82.5 -34t-31.5 -86t32 -86zM122 527l73 113h141l73 -113h-104l-39 69l-40 -69h-104
z" />
    <glyph glyph-name="otilde" unicode="&#xf5;" horiz-adv-x="550" 
d="M95 402q66 67 170 67q105 0 171 -67t66 -172q0 -104 -66 -172q-67 -68 -171 -68t-170.5 68.5t-66.5 171.5q0 104 67 172zM183 144q31 -34 82 -34t82.5 34t31.5 86t-31.5 86t-82.5 34t-82.5 -34t-31.5 -86t32 -86zM101 522q1 52 27.5 85.5t74.5 33.5q45 0 76 -35
q22 -24 42 -24q34 0 34 46h73q-1 -53 -27.5 -85.5t-79.5 -32.5q-45 0 -76 35q-22 24 -39 24t-24.5 -15t-7.5 -32h-73z" />
    <glyph glyph-name="odieresis" unicode="&#xf6;" horiz-adv-x="550" 
d="M95 402q66 67 170 67q105 0 171 -67t66 -172q0 -104 -66 -172q-67 -68 -171 -68t-170.5 68.5t-66.5 171.5q0 104 67 172zM151 230q0 -52 32 -86q31 -34 82 -34t82.5 34t31.5 86t-31.5 86t-82.5 34t-82.5 -34t-31.5 -86zM132 610q17 15 40 15q22 0 39.5 -15t17.5 -40
q0 -26 -17 -42q-18 -16 -40 -16t-40 16t-18 42q0 25 18 40zM303 570q0 25 17.5 40t39.5 15q23 0 40.5 -15t17.5 -40q0 -26 -18 -42t-40 -16t-39.5 16t-17.5 42z" />
    <glyph glyph-name="divide" unicode="&#xf7;" horiz-adv-x="522" 
d="M251 435q-29 0 -47.5 19t-18.5 48t18.5 47.5t47.5 18.5t48 -18.5t19 -47.5t-19 -48t-48 -19zM45 274v96h412v-96h-412zM251 77q-29 0 -47.5 18.5t-18.5 47.5t18.5 47.5t47.5 18.5t48 -18.5t19 -47.5t-19 -47.5t-48 -18.5z" />
    <glyph glyph-name="oslash" unicode="&#xf8;" horiz-adv-x="550" 
d="M265 -10q-75 0 -134 38l-22 -28h-46l39 51q-74 69 -74 179q0 104 66.5 171.5t170.5 67.5q77 0 134 -37l22 28h46l-39 -50q74 -68 74 -180q0 -104 -66.5 -172t-170.5 -68zM179 149l145 186q-25 15 -59 15q-51 0 -82.5 -34t-31.5 -86q0 -48 28 -81zM265 110q51 0 82.5 34
t31.5 86q0 49 -27 82l-146 -187q26 -15 59 -15z" />
    <glyph glyph-name="ugrave" unicode="&#xf9;" horiz-adv-x="543" 
d="M45 460h125v-262q0 -54 29 -77t64 -23t62.5 23t27.5 77v262h125v-460h-125v42q-47 -50 -128 -50q-73 0 -126.5 44.5t-53.5 141.5v282zM158 640h107l54 -113h-103z" />
    <glyph glyph-name="uacute" unicode="&#xfa;" horiz-adv-x="543" 
d="M45 460h125v-262q0 -54 29 -77t64 -23t62.5 23t27.5 77v262h125v-460h-125v42q-47 -50 -128 -50q-73 0 -126.5 44.5t-53.5 141.5v282zM267 640h107l-58 -113h-103z" />
    <glyph glyph-name="ucircumflex" unicode="&#xfb;" horiz-adv-x="543" 
d="M170 460v-262q0 -54 29 -77t64 -23t62.5 23t27.5 77v262h125v-460h-125v42q-47 -50 -128 -50q-73 0 -126.5 44.5t-53.5 141.5v282h125zM195 640h141l73 -113h-104l-39 69l-40 -69h-104z" />
    <glyph glyph-name="udieresis" unicode="&#xfc;" horiz-adv-x="543" 
d="M45 178v282h125v-262q0 -54 29 -77t64 -23t62.5 23t27.5 77v262h125v-460h-125v42q-47 -50 -128 -50q-73 0 -126.5 44.5t-53.5 141.5zM303 570q0 25 17.5 40t39.5 15q23 0 40.5 -15t17.5 -40q0 -26 -18 -42t-40 -16t-39.5 16t-17.5 42zM114 570q0 25 17.5 40t40.5 15
q22 0 39.5 -15t17.5 -40q0 -26 -17 -42q-18 -16 -40 -16t-40 16t-18 42z" />
    <glyph glyph-name="yacute" unicode="&#xfd;" horiz-adv-x="526" 
d="M134 460l113 -287l115 287h129l-256 -644h-122l73 184l-181 460h129zM259 640h107l-58 -113h-103z" />
    <glyph glyph-name="ydieresis" unicode="&#xff;" horiz-adv-x="526" 
d="M5 460h129l113 -287l115 287h129l-256 -644h-122l73 184zM106 570q0 25 17.5 40t40.5 15q22 0 39.5 -15t17.5 -40q0 -26 -17 -42q-18 -16 -40 -16t-40 16t-18 42zM295 570q0 25 17.5 40t39.5 15q23 0 40.5 -15t17.5 -40q0 -26 -18 -42t-40 -16t-39.5 16t-17.5 42z" />
    <glyph glyph-name="Amacron" unicode="&#x100;" horiz-adv-x="665" 
d="M279 650h98l263 -650h-137l-42 107h-267l-42 -107h-137zM415 225l-87 221l-87 -221h174zM231 787h197v-80h-197v80z" />
    <glyph glyph-name="amacron" unicode="&#x101;" 
d="M90 401q61 66 156 66q82 0 132 -56v49h125v-460h-125v48q-50 -56 -132 -56q-94 0 -156 67.5t-62 170.5q0 104 62 171zM181 144q32 -34 83 -34t82.5 34t31.5 86t-31.5 86t-82.5 34t-83 -34t-32 -86t32 -86zM196 524v80h197v-80h-197z" />
    <glyph glyph-name="Abreve" unicode="&#x102;" horiz-adv-x="665" 
d="M279 650h98l263 -650h-137l-42 107h-267l-42 -107h-137zM208 817h73v-3q0 -18 13 -31.5t35 -13.5t34.5 13.5t12.5 31.5v3h73v-3q0 -50 -33 -80t-87 -30t-87.5 30t-33.5 80v3zM415 225l-87 221l-87 -221h174z" />
    <glyph glyph-name="abreve" unicode="&#x103;" 
d="M28 230q0 104 61.5 170.5t156.5 66.5q82 0 132 -56v49h125v-460h-125v48q-50 -56 -132 -56q-94 0 -156 67.5t-62 170.5zM149 230q0 -52 32 -86t83 -34t82.5 34t31.5 86t-31.5 86t-82.5 34t-83 -34t-32 -86zM173 633h73v-3q0 -18 13 -31.5t35 -13.5t34.5 13.5t12.5 31.5v3
h73v-3q0 -50 -33 -80t-87 -30t-87.5 30t-33.5 80v3z" />
    <glyph glyph-name="Aogonek" unicode="&#x104;" horiz-adv-x="665" 
d="M571 -55q0 -9 6 -15.5t14 -7.5t10 -1q14 0 37 10v-73q-24 -6 -47 -6q-28 0 -62 14t-34 60q0 40 40 74h-32l-42 107h-267l-42 -107h-137l264 650h98l263 -650h-33q-36 -27 -36 -55zM241 225h174l-87 221z" />
    <glyph glyph-name="aogonek" unicode="&#x105;" 
d="M90 401q61 66 156 66q82 0 132 -56v49h125v-460h-13q-41 -31 -41 -59q0 -9 6 -15.5t14 -7.5t10 -1q14 0 37 10v-73q-24 -6 -47 -6q-28 0 -62 14t-34 60t45 78h-40v48q-50 -56 -132 -56q-94 0 -156 67.5t-62 170.5q0 104 62 171zM149 230q0 -52 32 -86t83 -34t82.5 34
t31.5 86t-31.5 86t-82.5 34t-83 -34t-32 -86z" />
    <glyph glyph-name="Cacute" unicode="&#x106;" horiz-adv-x="667" 
d="M127 564q92 94 236 94q172 0 263 -131l-104 -77q-25 35 -66.5 57t-92.5 22q-89 0 -144 -57.5t-55 -146.5t55 -146.5t144 -57.5q49 0 91 23.5t68 58.5l104 -80q-91 -131 -263 -131q-144 0 -236 94t-92 239t92 239zM354 825h107l-58 -113h-103z" />
    <glyph glyph-name="cacute" unicode="&#x107;" horiz-adv-x="488" 
d="M94 402q65 66 169 66q122 0 187 -93l-89 -69q-37 44 -95 44q-51 0 -83.5 -34t-32.5 -86t32.5 -86t83.5 -34q61 0 95 42l89 -67q-65 -94 -187 -94q-104 0 -169.5 67t-65.5 172t66 172zM211 527l54 113h107l-58 -113h-103z" />
    <glyph glyph-name="Cdotaccent" unicode="&#x10a;" horiz-adv-x="667" 
d="M35 325q0 145 92 239t236 94q172 0 263 -131l-104 -77q-25 35 -66.5 57t-92.5 22q-89 0 -144 -57.5t-55 -146.5t55 -146.5t144 -57.5q49 0 91 23.5t68 58.5l104 -80q-91 -131 -263 -131q-144 0 -236 94t-92 239zM295 755q0 25 17.5 40t40.5 15q22 0 39.5 -15t17.5 -40
q0 -26 -17 -42q-18 -16 -40 -16t-40 16t-18 42z" />
    <glyph glyph-name="cdotaccent" unicode="&#x10b;" horiz-adv-x="488" 
d="M94 402q65 66 169 66q122 0 187 -93l-89 -69q-37 44 -95 44q-51 0 -83.5 -34t-32.5 -86t32.5 -86t83.5 -34q61 0 95 42l89 -67q-65 -94 -187 -94q-104 0 -169.5 67t-65.5 172t66 172zM224 610q17 15 40 15q22 0 39.5 -15t17.5 -40q0 -26 -17 -42q-18 -16 -40 -16t-40 16
t-18 42q0 25 18 40z" />
    <glyph glyph-name="Ccaron" unicode="&#x10c;" horiz-adv-x="667" 
d="M127 564q92 94 236 94q172 0 263 -131l-104 -77q-25 35 -66.5 57t-92.5 22q-89 0 -144 -57.5t-55 -146.5t55 -146.5t144 -57.5q49 0 91 23.5t68 58.5l104 -80q-91 -131 -263 -131q-144 0 -236 94t-92 239t92 239zM313 825l40 -65l39 65h104l-73 -113h-141l-73 113h104z
" />
    <glyph glyph-name="ccaron" unicode="&#x10d;" horiz-adv-x="488" 
d="M94 402q65 66 169 66q122 0 187 -93l-89 -69q-37 44 -95 44q-51 0 -83.5 -34t-32.5 -86t32.5 -86t83.5 -34q61 0 95 42l89 -67q-65 -94 -187 -94q-104 0 -169.5 67t-65.5 172t66 172zM120 640h104l40 -65l39 65h104l-73 -113h-141z" />
    <glyph glyph-name="Dcaron" unicode="&#x10e;" horiz-adv-x="655" 
d="M45 0v650h241q142 0 230.5 -90t88.5 -235t-88.5 -235t-230.5 -90h-241zM174 525v-399h112q28 0 57.5 9t61 29t51.5 62t20 99t-20.5 98.5t-51.5 62.5t-60.5 30t-57.5 9h-112zM119 824h104l40 -65l39 65h104l-73 -113h-141z" />
    <glyph glyph-name="dcaron" unicode="&#x10f;" 
d="M90 401q61 66 156 66q82 0 132 -56v239h125v-650h-125v48q-50 -56 -132 -56q-94 0 -156 67.5t-62 170.5q0 104 62 171zM149 230q0 -52 32 -86t83 -34t82.5 34t31.5 86t-31.5 86t-82.5 34t-83 -34t-32 -86zM297 823h104l40 -65l39 65h104l-73 -113h-141z" />
    <glyph glyph-name="Dcroat" unicode="&#x110;" horiz-adv-x="660" 
d="M45 0v262h-44v118h44v270h243q144 0 233 -90t89 -235t-89 -235t-233 -90h-243zM174 128h115q28 0 58 9.5t61.5 29.5t52 61.5t20.5 96.5q0 45 -14 80.5t-35 57t-48 35.5t-50.5 19t-44.5 5h-115v-142h99v-118h-99v-134z" />
    <glyph glyph-name="Emacron" unicode="&#x112;" horiz-adv-x="545" 
d="M45 0v650h440v-118h-311v-148h290v-118h-290v-148h311v-118h-440zM173 787h197v-80h-197v80z" />
    <glyph glyph-name="emacron" unicode="&#x113;" horiz-adv-x="526" 
d="M91 402q63 67 166 67q101 0 161 -67t60 -172v-34h-330q9 -46 40 -72.5t74 -26.5q72 0 109 49l85 -62q-30 -44 -81 -69t-113 -25q-104 0 -169 68t-65 172t63 172zM150 275h211q-9 43 -35.5 69t-68.5 26t-70 -25.5t-37 -69.5zM159 524v80h197v-80h-197z" />
    <glyph glyph-name="Edotaccent" unicode="&#x116;" horiz-adv-x="545" 
d="M45 650h440v-118h-311v-148h290v-118h-290v-148h311v-118h-440v650zM214 753q0 25 17.5 40t40.5 15q22 0 39.5 -15t17.5 -40q0 -26 -17 -42q-18 -16 -40 -16t-40 16t-18 42z" />
    <glyph glyph-name="edotaccent" unicode="&#x117;" horiz-adv-x="526" 
d="M91 402q63 67 166 67q101 0 161 -67t60 -172v-34h-330q9 -46 40 -72.5t74 -26.5q72 0 109 49l85 -62q-30 -44 -81 -69t-113 -25q-104 0 -169 68t-65 172t63 172zM361 275q-9 43 -35.5 69t-68.5 26t-70 -25.5t-37 -69.5h211zM218 610q17 15 40 15q22 0 39.5 -15t17.5 -40
q0 -26 -17 -42q-18 -16 -40 -16t-40 16t-18 42q0 25 18 40z" />
    <glyph glyph-name="Eogonek" unicode="&#x118;" horiz-adv-x="545" 
d="M45 0v650h440v-118h-311v-148h290v-118h-290v-148h311v-108h1q-1 0 -1 -1v-9h-13q-40 -28 -40 -58q0 -9 6 -15.5t14 -7.5t10 -1q14 0 37 10v-73q-24 -6 -47 -6q-28 0 -62 14t-34 60t44 77h-355z" />
    <glyph glyph-name="eogonek" unicode="&#x119;" horiz-adv-x="526" 
d="M91 402q63 67 166 67q101 0 161 -67t60 -172v-34h-330q9 -46 40 -72.5t74 -26.5q72 0 109 49l85 -62q-54 -77 -156 -91q-45 -34 -45 -62q0 -9 6 -15.5t14 -7.5t10 -1q14 0 37 10v-73q-24 -6 -47 -6q-28 0 -62 14t-34 60q0 48 48 80q-90 12 -144.5 78t-54.5 160
q0 104 63 172zM150 275h211q-9 43 -35.5 69t-68.5 26t-70 -25.5t-37 -69.5z" />
    <glyph glyph-name="Ecaron" unicode="&#x11a;" horiz-adv-x="545" 
d="M45 0v650h440v-118h-311v-148h290v-118h-290v-148h311v-118h-440zM128 823h104l40 -65l39 65h104l-73 -113h-141z" />
    <glyph glyph-name="ecaron" unicode="&#x11b;" horiz-adv-x="526" 
d="M91 402q63 67 166 67q101 0 161 -67t60 -172v-34h-330q9 -46 40 -72.5t74 -26.5q72 0 109 49l85 -62q-30 -44 -81 -69t-113 -25q-104 0 -169 68t-65 172t63 172zM114 640h104l40 -65l39 65h104l-73 -113h-141zM150 275h211q-9 43 -35.5 69t-68.5 26t-70 -25.5t-37 -69.5z
" />
    <glyph glyph-name="Gbreve" unicode="&#x11e;" horiz-adv-x="730" 
d="M35 325q0 145 92 239t236 94q85 0 152.5 -34.5t110.5 -95.5l-105 -77q-56 78 -158 78q-89 0 -144 -57.5t-55 -146.5t55 -146.5t144 -57.5q60 0 106.5 34t58.5 94h-173v118h319l1 -57q-5 -141 -89 -229.5t-223 -88.5q-144 0 -236 94t-92 239zM242 814v3h73v-3
q0 -18 13 -31.5t35 -13.5t34.5 13.5t12.5 31.5v3h73v-3q0 -50 -33 -80t-87 -30t-87.5 30t-33.5 80z" />
    <glyph glyph-name="gbreve" unicode="&#x11f;" 
d="M28 230q0 103 61.5 170t155.5 67q84 0 133 -57v50h125v-428q0 -102 -65 -165t-181 -63q-125 0 -195 83l81 69q45 -47 114 -47q26 0 51 9t47.5 38.5t22.5 75.5v17q-50 -57 -133 -57q-94 0 -155.5 67.5t-61.5 170.5zM149 230q0 -52 32 -86q31 -34 82 -34t83 34t32 86
t-32 86t-83 34t-82.5 -34t-31.5 -86zM152 630v3h73v-3q0 -18 13 -31.5t35 -13.5t34.5 13.5t12.5 31.5v3h73v-3q0 -50 -33 -80t-87 -30t-87.5 30t-33.5 80z" />
    <glyph glyph-name="Gdotaccent" unicode="&#x120;" horiz-adv-x="730" 
d="M35 325q0 145 92 239t236 94q85 0 152.5 -34.5t110.5 -95.5l-105 -77q-56 78 -158 78q-89 0 -144 -57.5t-55 -146.5t55 -146.5t144 -57.5q60 0 106.5 34t58.5 94h-173v118h319l1 -57q-5 -141 -89 -229.5t-223 -88.5q-144 0 -236 94t-92 239zM324 793q17 15 40 15
q22 0 39.5 -15t17.5 -40q0 -26 -17 -42q-18 -16 -40 -16t-40 16t-18 42q0 25 18 40z" />
    <glyph glyph-name="gdotaccent" unicode="&#x121;" 
d="M90 400q61 67 155 67q84 0 133 -57v50h125v-428q0 -102 -65 -165t-181 -63q-125 0 -195 83l81 69q45 -47 114 -47q26 0 51 9t47.5 38.5t22.5 75.5v17q-50 -57 -133 -57q-94 0 -155.5 67.5t-61.5 170.5t62 170zM181 144q31 -34 82 -34t83 34t32 86t-32 86t-83 34
t-82.5 -34t-31.5 -86t32 -86zM234 610q17 15 40 15q22 0 39.5 -15t17.5 -40q0 -26 -17 -42q-18 -16 -40 -16t-40 16t-18 42q0 25 18 40z" />
    <glyph glyph-name="uni0122" unicode="&#x122;" horiz-adv-x="730" 
d="M127 564q92 94 236 94q85 0 152.5 -34.5t110.5 -95.5l-105 -77q-56 78 -158 78q-89 0 -144 -57.5t-55 -146.5t55 -146.5t144 -57.5q60 0 106.5 34t58.5 94h-173v118h319l1 -57q-5 -141 -89 -229.5t-223 -88.5q-144 0 -236 94t-92 239t92 239zM318 -56h104l-60 -111h-100z
" />
    <glyph glyph-name="uni0123" unicode="&#x123;" 
d="M28 230q0 103 61.5 170t155.5 67q84 0 133 -57v50h125v-428q0 -102 -65 -165t-181 -63q-125 0 -195 83l81 69q45 -47 114 -47q26 0 51 9t47.5 38.5t22.5 75.5v17q-50 -57 -133 -57q-94 0 -155.5 67.5t-61.5 170.5zM149 230q0 -52 32 -86q31 -34 82 -34t83 34t32 86
t-32 86t-83 34t-82.5 -34t-31.5 -86zM273 657h59q-31 -26 -38 -39q35 -12 35 -49q0 -22 -14 -38q-15 -16 -42 -16t-43 16t-16 38q0 41 59 88z" />
    <glyph glyph-name="Itilde" unicode="&#x128;" horiz-adv-x="239" 
d="M45 650h129v-650h-129v650zM-55 705q1 52 27.5 85.5t74.5 33.5q45 0 76 -35q22 -24 42 -24q34 0 34 46h73q-1 -53 -27.5 -85.5t-79.5 -32.5q-45 0 -76 35q-22 24 -39 24t-24.5 -15t-7.5 -32h-73z" />
    <glyph glyph-name="itilde" unicode="&#x129;" horiz-adv-x="241" 
d="M48 460h125v-460h-125v460zM-54 522q1 52 27.5 85.5t74.5 33.5q45 0 76 -35q22 -24 42 -24q34 0 34 46h73q-1 -53 -27.5 -85.5t-79.5 -32.5q-45 0 -76 35q-22 24 -39 24t-24.5 -15t-7.5 -32h-73z" />
    <glyph glyph-name="Imacron" unicode="&#x12a;" horiz-adv-x="239" 
d="M11 707v80h197v-80h-197zM45 0v650h129v-650h-129z" />
    <glyph glyph-name="imacron" unicode="&#x12b;" horiz-adv-x="241" 
d="M12 524v80h197v-80h-197zM48 0v460h125v-460h-125z" />
    <glyph glyph-name="Iogonek" unicode="&#x12e;" horiz-adv-x="239" 
d="M86 0h-41v650h129v-650h-15q-43 -30 -43 -60q0 -9 6 -15.5t14 -7.5t10 -1q14 0 37 10v-73q-24 -6 -47 -6q-28 0 -62 14t-34 60t46 79z" />
    <glyph glyph-name="iogonek" unicode="&#x12f;" horiz-adv-x="241" 
d="M89 0h-41v460h125v-460h-12q-44 -33 -44 -61q0 -9 6 -15.5t14 -7.5t10 -1q14 0 37 10v-73q-24 -6 -47 -6q-28 0 -62 14t-34 60t48 80zM71 610q17 15 40 15q22 0 39.5 -15t17.5 -40q0 -26 -17 -42q-18 -16 -40 -16t-40 16t-18 42q0 25 18 40z" />
    <glyph glyph-name="Idotaccent" unicode="&#x130;" horiz-adv-x="239" 
d="M174 650v-650h-129v650h129zM70 793q17 15 40 15q22 0 39.5 -15t17.5 -40q0 -26 -17 -42q-18 -16 -40 -16t-40 16t-18 42q0 25 18 40z" />
    <glyph glyph-name="dotlessi" unicode="&#x131;" horiz-adv-x="241" 
d="M48 0v460h125v-460h-125z" />
    <glyph glyph-name="uni0136" unicode="&#x136;" 
d="M174 650v-269l208 269h148l-247 -325l260 -325h-151l-218 271v-271h-129v650h129zM231 -53h104l-60 -111h-100z" />
    <glyph glyph-name="uni0137" unicode="&#x137;" horiz-adv-x="510" 
d="M170 650v-366l148 176h146l-183 -218l204 -242h-146l-169 200v-200h-125v650h125zM201 -53h104l-60 -111h-100z" />
    <glyph glyph-name="Lacute" unicode="&#x139;" horiz-adv-x="528" 
d="M57 710l54 113h107l-58 -113h-103zM45 0v650h129v-532h309v-118h-438z" />
    <glyph glyph-name="lacute" unicode="&#x13a;" horiz-adv-x="236" 
d="M56 710l54 113h107l-58 -113h-103zM45 0v650h126l-1 -650h-125z" />
    <glyph glyph-name="uni013B" unicode="&#x13b;" horiz-adv-x="528" 
d="M45 0v650h129v-532h309v-118h-438zM161 -164l56 111h104l-60 -111h-100z" />
    <glyph glyph-name="uni013C" unicode="&#x13c;" horiz-adv-x="236" 
d="M45 0v650h126l-1 -650h-125zM5 -164l56 111h104l-60 -111h-100z" />
    <glyph glyph-name="Lcaron" unicode="&#x13d;" horiz-adv-x="528" 
d="M174 650v-532h309v-118h-438v650h129zM-35 823h104l40 -65l39 65h104l-73 -113h-141z" />
    <glyph glyph-name="lcaron" unicode="&#x13e;" horiz-adv-x="236" 
d="M45 650h126l-1 -650h-125v650zM-36 823h104l40 -65l39 65h104l-73 -113h-141z" />
    <glyph glyph-name="Lslash" unicode="&#x141;" horiz-adv-x="527" 
d="M45 0v278l-44 -16v122l44 16v250h129v-204l105 37v-121l-105 -38v-206h308v-118h-437z" />
    <glyph glyph-name="lslash" unicode="&#x142;" horiz-adv-x="235" 
d="M45 0v262l-39 -13v101l39 13v287h125v-243l56 19v-101l-56 -19v-306h-125z" />
    <glyph glyph-name="Nacute" unicode="&#x143;" horiz-adv-x="638" 
d="M171 650l273 -424v424h129v-650h-125l-273 423v-423h-130v650h126zM260 710l54 113h107l-58 -113h-103z" />
    <glyph glyph-name="nacute" unicode="&#x144;" horiz-adv-x="543" 
d="M45 460h125v-44q47 51 129 51q73 0 126 -44.5t53 -141.5v-281h-125v262q0 54 -28.5 77t-63.5 23t-63 -23t-28 -77v-262h-125v460zM209 527l54 113h107l-58 -113h-103z" />
    <glyph glyph-name="uni0145" unicode="&#x145;" horiz-adv-x="638" 
d="M171 650l273 -424v424h129v-650h-125l-273 423v-423h-130v650h126zM268 -53h104l-60 -111h-100z" />
    <glyph glyph-name="uni0146" unicode="&#x146;" horiz-adv-x="543" 
d="M45 460h125v-44q47 51 129 51q73 0 126 -44.5t53 -141.5v-281h-125v262q0 54 -28.5 77t-63.5 23t-63 -23t-28 -77v-262h-125v460zM159 -164l56 111h104l-60 -111h-100z" />
    <glyph glyph-name="Ncaron" unicode="&#x147;" horiz-adv-x="638" 
d="M171 650l273 -424v424h129v-650h-125l-273 423v-423h-130v650h126zM169 823h104l40 -65l39 65h104l-73 -113h-141z" />
    <glyph glyph-name="ncaron" unicode="&#x148;" horiz-adv-x="543" 
d="M45 0v460h125v-44q47 51 129 51q73 0 126 -44.5t53 -141.5v-281h-125v262q0 54 -28.5 77t-63.5 23t-63 -23t-28 -77v-262h-125zM222 640l40 -65l39 65h104l-73 -113h-141l-73 113h104z" />
    <glyph glyph-name="Omacron" unicode="&#x14c;" horiz-adv-x="739" 
d="M127 564q92 94 236 94t235 -94t91 -239t-91 -239t-235 -94t-236 94t-92 239t92 239zM219 179q55 -58 144 -58q88 0 142 57t54 147t-54 147t-142 57q-89 0 -144 -57.5t-55 -146.5t55 -146zM462 787v-80h-197v80h197z" />
    <glyph glyph-name="omacron" unicode="&#x14d;" horiz-adv-x="550" 
d="M28 230q0 104 66.5 171.5t170.5 67.5q105 0 171 -67t66 -172q0 -104 -66 -172q-67 -68 -171 -68t-170.5 68.5t-66.5 171.5zM151 230q0 -52 32 -86q31 -34 82 -34t82.5 34t31.5 86t-31.5 86t-82.5 34t-82.5 -34t-31.5 -86zM167 604h197v-80h-197v80z" />
    <glyph glyph-name="Ohungarumlaut" unicode="&#x150;" horiz-adv-x="739" 
d="M35 325q0 145 92 239t236 94t235 -94t91 -239t-91 -239t-235 -94t-236 94t-92 239zM219 179q55 -58 144 -58q88 0 142 57t54 147t-54 147t-142 57q-89 0 -144 -57.5t-55 -146.5t55 -146zM398 710l55 113h107l-74 -113h-88zM272 823h107l-74 -113h-88z" />
    <glyph glyph-name="ohungarumlaut" unicode="&#x151;" horiz-adv-x="550" 
d="M28 230q0 104 66.5 171.5t170.5 67.5q105 0 171 -67t66 -172q0 -104 -66 -172q-67 -68 -171 -68t-170.5 68.5t-66.5 171.5zM183 144q31 -34 82 -34t82.5 34t31.5 86t-31.5 86t-82.5 34t-82.5 -34t-31.5 -86t32 -86zM300 527l55 113h107l-74 -113h-88zM119 527l55 113h107
l-74 -113h-88z" />
    <glyph glyph-name="OE" unicode="&#x152;" horiz-adv-x="1019" 
d="M367 -8q-145 0 -238.5 94t-93.5 239t93 239t239 94q113 0 194 -59v51h398v-118h-269v-150h248v-118h-248v-146h269v-118h-398v52q-82 -60 -194 -60zM367 121q87 0 139.5 57t52.5 147t-52.5 147t-139.5 57q-94 0 -148.5 -57t-54.5 -147t54.5 -147t148.5 -57z" />
    <glyph glyph-name="oe" unicode="&#x153;" horiz-adv-x="866" 
d="M603 -10q-110 0 -175 73q-65 -71 -169 -71q-102 0 -166.5 67.5t-64.5 170.5t64.5 170t166.5 67q103 0 169 -69q65 71 170 71q100 0 160.5 -67t60.5 -172v-34h-330q9 -46 39.5 -72.5t74.5 -26.5q71 0 108 49l87 -55q-31 -47 -82 -74t-113 -27zM491 275h211q-10 43 -36 69
t-68 26t-70 -25.5t-37 -69.5zM259 115q51 0 79 31t28 84t-28 83.5t-79 30.5q-52 0 -80.5 -30.5t-28.5 -83.5t28.5 -84t80.5 -31z" />
    <glyph glyph-name="Racute" unicode="&#x154;" horiz-adv-x="613" 
d="M357 650q79 0 138.5 -57.5t59.5 -156.5q0 -77 -37.5 -129.5t-96.5 -73.5l147 -233h-149l-140 222h-105v-222h-129v650h312zM174 525v-177h162q37 0 63 24.5t26 63.5q0 40 -26 64.5t-63 24.5h-162zM213 710l54 113h107l-58 -113h-103z" />
    <glyph glyph-name="racute" unicode="&#x155;" horiz-adv-x="367" 
d="M170 460v-83q55 88 162 90v-117q-162 -4 -162 -139v-211h-125v460h125zM144 527l54 113h107l-58 -113h-103z" />
    <glyph glyph-name="uni0156" unicode="&#x156;" horiz-adv-x="613" 
d="M45 0v650h312q79 0 138.5 -57.5t59.5 -156.5q0 -77 -37.5 -129.5t-96.5 -73.5l147 -233h-149l-140 222h-105v-222h-129zM336 348q37 0 63 24.5t26 63.5q0 40 -26 64.5t-63 24.5h-162v-177h162zM178 -164l56 111h104l-60 -111h-100z" />
    <glyph glyph-name="uni0157" unicode="&#x157;" horiz-adv-x="367" 
d="M45 0v460h125v-83q55 88 162 90v-117q-162 -4 -162 -139v-211h-125zM4 -164l56 111h104l-60 -111h-100z" />
    <glyph glyph-name="Rcaron" unicode="&#x158;" horiz-adv-x="613" 
d="M45 650h312q79 0 138.5 -57.5t59.5 -156.5q0 -77 -37.5 -129.5t-96.5 -73.5l147 -233h-149l-140 222h-105v-222h-129v650zM174 525v-177h162q37 0 63 24.5t26 63.5q0 40 -26 64.5t-63 24.5h-162zM122 823h104l40 -65l39 65h104l-73 -113h-141z" />
    <glyph glyph-name="rcaron" unicode="&#x159;" horiz-adv-x="367" 
d="M45 460h125v-83q55 88 162 90v-117q-162 -4 -162 -139v-211h-125v460zM157 640l40 -65l39 65h104l-73 -113h-141l-73 113h104z" />
    <glyph glyph-name="Sacute" unicode="&#x15a;" horiz-adv-x="609" 
d="M129 220q17 -34 72 -68t118 -34q56 0 78.5 18t22.5 51q0 15 -10 28t-30 22.5t-36 15t-41.5 13t-34.5 10.5q-4 1 -27.5 8t-38.5 12.5t-40.5 16.5t-42 24.5t-34 32t-26 43.5t-8.5 54q0 98 72.5 146.5t181.5 48.5q90 0 161.5 -42.5t91.5 -97.5l-102 -66q-15 27 -62.5 52
t-104.5 25q-44 0 -67 -16t-23 -43q0 -15 9.5 -27.5t28.5 -22t34.5 -15t40.5 -12.5t34 -10q2 -1 23 -7.5t32.5 -11t34.5 -14.5t38 -19.5t33.5 -25t29.5 -31.5t19 -38t8 -47q0 -99 -69.5 -152t-189.5 -53q-105 0 -179 46.5t-101 111.5zM254 710l54 113h107l-58 -113h-103z" />
    <glyph glyph-name="sacute" unicode="&#x15b;" horiz-adv-x="451" 
d="M103 154q9 -22 46 -45t77 -23q66 0 66 43q0 11 -5.5 19t-18 14.5t-21.5 10t-27 8.5t-23 7q-1 0 -17 5t-23.5 8t-25 10.5t-28 14t-24.5 18t-21.5 23.5t-13.5 28.5t-6 34.5q0 70 52.5 105t132.5 35q71 0 121 -28t69 -69l-81 -52q-12 19 -45.5 36.5t-67.5 17.5
q-59 0 -59 -39q0 -11 5.5 -19t18 -14.5t20.5 -10t26 -8.5t23 -7q1 0 13 -4l18 -6q6 -2 19.5 -7.5t22 -9.5t21.5 -11.5t21 -15t17.5 -17.5t15 -20.5t9.5 -24t4 -27.5q0 -72 -50 -110t-140 -38q-79 0 -133 32.5t-73 78.5zM225 640h107l-58 -113h-103z" />
    <glyph glyph-name="Scedilla" unicode="&#x15e;" horiz-adv-x="609" 
d="M25 146l104 74q17 -34 72 -68t118 -34q56 0 78.5 18t22.5 51q0 15 -10 28t-30 22.5t-36 15t-41.5 13t-34.5 10.5q-4 1 -27.5 8t-38.5 12.5t-40.5 16.5t-42 24.5t-34 32t-26 43.5t-8.5 54q0 98 72.5 146.5t181.5 48.5q90 0 161.5 -42.5t91.5 -97.5l-102 -66
q-15 27 -62.5 52t-104.5 25q-44 0 -67 -16t-23 -43q0 -15 9.5 -27.5t28.5 -22t34.5 -15t40.5 -12.5t34 -10q2 -1 23 -7.5t32.5 -11t34.5 -14.5t38 -19.5t33.5 -25t29.5 -31.5t19 -38t8 -47q0 -90 -58 -142.5t-160 -60.5l-21 -38q71 -13 71 -70q0 -80 -101 -80q-44 0 -64 10
v63q18 -13 64 -13q38 0 38 20q0 19 -43 19q-30 0 -41 -6l-1 50l27 44q-94 7 -159.5 52t-90.5 105z" />
    <glyph glyph-name="scedilla" unicode="&#x15f;" horiz-adv-x="451" 
d="M18 97l85 57q9 -22 46 -45t77 -23q66 0 66 43q0 11 -5.5 19t-18 14.5t-21.5 10t-27 8.5t-23 7q-1 0 -17 5t-23.5 8t-25 10.5t-28 14t-24.5 18t-21.5 23.5t-13.5 28.5t-6 34.5q0 70 52.5 105t132.5 35q71 0 121 -28t69 -69l-81 -52q-12 19 -45.5 36.5t-67.5 17.5
q-59 0 -59 -39q0 -11 5.5 -19t18 -14.5t20.5 -10t26 -8.5t23 -7q1 0 13 -4l18 -6q6 -2 19.5 -7.5t22 -9.5t21.5 -11.5t21 -15t17.5 -17.5t15 -20.5t9.5 -24t4 -27.5q0 -64 -40.5 -101.5t-114.5 -44.5l-18 -32q71 -13 71 -70q0 -80 -101 -80q-44 0 -64 10v63q18 -13 64 -13
q38 0 38 20q0 19 -43 19q-30 0 -41 -6l-1 50l24 39q-65 7 -109.5 37.5t-60.5 71.5z" />
    <glyph glyph-name="Scaron" unicode="&#x160;" horiz-adv-x="609" 
d="M129 220q17 -34 72 -68t118 -34q56 0 78.5 18t22.5 51q0 15 -10 28t-30 22.5t-36 15t-41.5 13t-34.5 10.5q-4 1 -27.5 8t-38.5 12.5t-40.5 16.5t-42 24.5t-34 32t-26 43.5t-8.5 54q0 98 72.5 146.5t181.5 48.5q90 0 161.5 -42.5t91.5 -97.5l-102 -66q-15 27 -62.5 52
t-104.5 25q-44 0 -67 -16t-23 -43q0 -15 9.5 -27.5t28.5 -22t34.5 -15t40.5 -12.5t34 -10q2 -1 23 -7.5t32.5 -11t34.5 -14.5t38 -19.5t33.5 -25t29.5 -31.5t19 -38t8 -47q0 -99 -69.5 -152t-189.5 -53q-105 0 -179 46.5t-101 111.5zM267 823l40 -65l39 65h104l-73 -113
h-141l-73 113h104z" />
    <glyph glyph-name="scaron" unicode="&#x161;" horiz-adv-x="451" 
d="M103 154q9 -22 46 -45t77 -23q66 0 66 43q0 11 -5.5 19t-18 14.5t-21.5 10t-27 8.5t-23 7q-1 0 -17 5t-23.5 8t-25 10.5t-28 14t-24.5 18t-21.5 23.5t-13.5 28.5t-6 34.5q0 70 52.5 105t132.5 35q71 0 121 -28t69 -69l-81 -52q-12 19 -45.5 36.5t-67.5 17.5
q-59 0 -59 -39q0 -11 5.5 -19t18 -14.5t20.5 -10t26 -8.5t23 -7q1 0 13 -4l18 -6q6 -2 19.5 -7.5t22 -9.5t21.5 -11.5t21 -15t17.5 -17.5t15 -20.5t9.5 -24t4 -27.5q0 -72 -50 -110t-140 -38q-79 0 -133 32.5t-73 78.5zM80 640h104l40 -65l39 65h104l-73 -113h-141z" />
    <glyph glyph-name="uni0162" unicode="&#x162;" horiz-adv-x="589" 
d="M544 650v-118h-194v-532h-29l-22 -38q71 -13 71 -70q0 -80 -101 -80q-44 0 -64 10v63q18 -13 64 -13q38 0 38 20q0 19 -43 19q-30 0 -41 -6l-1 50l27 45h-29v532h-195v118h519z" />
    <glyph glyph-name="uni0163" unicode="&#x163;" horiz-adv-x="341" 
d="M15 460h60v141h125v-141h98v-95h-98v-212q0 -19 5 -31t15.5 -17t19 -6.5t22.5 -1.5h31v-97h-45l-20 -36q71 -13 71 -70q0 -80 -101 -80q-44 0 -64 10v63q18 -13 64 -13q38 0 38 20q0 19 -43 19q-31 0 -41 -6l-1 50l27 45q-103 15 -103 131v232h-60v95z" />
    <glyph glyph-name="Tcaron" unicode="&#x164;" horiz-adv-x="589" 
d="M25 650h519v-118h-194v-532h-130v532h-195v118zM141 823h104l40 -65l39 65h104l-73 -113h-141z" />
    <glyph glyph-name="tcaron" unicode="&#x165;" horiz-adv-x="341" 
d="M15 365v95h60v141h125v-141h98v-95h-98v-212q0 -19 5 -31t15.5 -17t19 -6.5t22.5 -1.5h31v-97h-83q-135 0 -135 133v232h-60zM-10 763h104l40 -65l39 65h104l-73 -113h-141z" />
    <glyph glyph-name="Tbar" unicode="&#x166;" horiz-adv-x="594" 
d="M220 0v226h-112v118h112v188h-195v118h519v-118h-194v-188h111v-118h-111v-226h-130z" />
    <glyph glyph-name="Utilde" unicode="&#x168;" horiz-adv-x="614" 
d="M174 650v-406q0 -64 34.5 -95t88.5 -31t88.5 31t34.5 95v406h129v-420q0 -101 -67 -169q-68 -69 -185 -69t-184.5 68.5t-67.5 169.5v420h129zM164 791q26 33 74 33q45 0 76 -35q22 -24 42 -24q34 0 34 46h73q-1 -53 -27.5 -85.5t-79.5 -32.5q-45 0 -76 35q-22 24 -39 24
t-24.5 -15t-7.5 -32h-73q1 52 28 86z" />
    <glyph glyph-name="utilde" unicode="&#x169;" horiz-adv-x="543" 
d="M45 178v282h125v-262q0 -54 29 -77t64 -23t62.5 23t27.5 77v262h125v-460h-125v42q-47 -50 -128 -50q-73 0 -126.5 44.5t-53.5 141.5zM129 608q26 33 74 33q45 0 76 -35q22 -24 42 -24q34 0 34 46h73q-1 -53 -27.5 -85.5t-79.5 -32.5q-45 0 -76 35q-22 24 -39 24
t-24.5 -15t-7.5 -32h-73q1 52 28 86z" />
    <glyph glyph-name="Umacron" unicode="&#x16a;" horiz-adv-x="614" 
d="M45 650h129v-406q0 -64 34.5 -95t88.5 -31t88.5 31t34.5 95v406h129v-420q0 -101 -67 -169q-68 -69 -185 -69t-184.5 68.5t-67.5 169.5v420zM202 787h197v-80h-197v80z" />
    <glyph glyph-name="umacron" unicode="&#x16b;" horiz-adv-x="543" 
d="M45 460h125v-262q0 -54 29 -77t64 -23t62.5 23t27.5 77v262h125v-460h-125v42q-47 -50 -128 -50q-73 0 -126.5 44.5t-53.5 141.5v282zM167 524v80h197v-80h-197z" />
    <glyph glyph-name="Uring" unicode="&#x16e;" horiz-adv-x="614" 
d="M45 650h129v-406q0 -64 34.5 -95t88.5 -31t88.5 31t34.5 95v406h129v-420q0 -101 -67 -169q-68 -69 -185 -69t-184.5 68.5t-67.5 169.5v420zM204 784q0 41 27 66.5t70 25.5t69 -25.5t26 -66.5q0 -39 -26 -65q-27 -26 -69 -26t-69.5 26t-27.5 65zM301 748q19 0 27.5 11.5
t8.5 24.5t-8.5 25t-27.5 12q-36 0 -36 -37q0 -36 36 -36z" />
    <glyph glyph-name="uring" unicode="&#x16f;" horiz-adv-x="543" 
d="M170 460v-262q0 -54 29 -77t64 -23t62.5 23t27.5 77v262h125v-460h-125v42q-47 -50 -128 -50q-73 0 -126.5 44.5t-53.5 141.5v282h125zM169 601q0 41 27 66.5t70 25.5t69 -25.5t26 -66.5q0 -39 -26 -65q-27 -26 -69 -26t-69.5 26t-27.5 65zM266 565q19 0 27.5 11.5
t8.5 24.5t-8.5 25t-27.5 12q-36 0 -36 -37q0 -36 36 -36z" />
    <glyph glyph-name="Uhungarumlaut" unicode="&#x170;" horiz-adv-x="614" 
d="M45 650h129v-406q0 -64 34.5 -95t88.5 -31t88.5 31t34.5 95v406h129v-420q0 -101 -67 -169q-68 -69 -185 -69t-184.5 68.5t-67.5 169.5v420zM335 710l55 113h107l-74 -113h-88zM209 823h107l-74 -113h-88z" />
    <glyph glyph-name="uhungarumlaut" unicode="&#x171;" horiz-adv-x="543" 
d="M45 460h125v-262q0 -54 29 -77t64 -23t62.5 23t27.5 77v262h125v-460h-125v42q-47 -50 -128 -50q-73 0 -126.5 44.5t-53.5 141.5v282zM300 527l55 113h107l-74 -113h-88zM174 640h107l-74 -113h-88z" />
    <glyph glyph-name="Uogonek" unicode="&#x172;" horiz-adv-x="614" 
d="M45 650h129v-406q0 -64 34.5 -95t88.5 -31t88.5 31t34.5 95v406h129v-420q0 -93 -57.5 -159t-158.5 -77q-38 -28 -38 -57q0 -9 6 -15.5t14 -7.5t10 -1q14 0 37 10v-73q-24 -6 -47 -6q-28 0 -62 14t-34 60q0 42 42 76q-101 11 -158.5 77t-57.5 159v420z" />
    <glyph glyph-name="uogonek" unicode="&#x173;" horiz-adv-x="543" 
d="M170 460v-262q0 -54 29 -77t64 -23t62.5 23t27.5 77v262h125v-460h-18q-37 -28 -37 -56q0 -9 6 -15.5t14 -7.5t10 -1q14 0 37 10v-73q-24 -6 -47 -6q-28 0 -62 14t-34 60q0 42 41 75h-35v42q-47 -50 -128 -50q-73 0 -126.5 44.5t-53.5 141.5v282h125z" />
    <glyph glyph-name="Wcircumflex" unicode="&#x174;" horiz-adv-x="950" 
d="M15 650h137l138 -414l136 414h95l134 -398l133 398h137l-217 -650h-111l-127 383l-127 -383h-111zM400 823h141l73 -113h-104l-39 69l-40 -69h-104z" />
    <glyph glyph-name="wcircumflex" unicode="&#x175;" horiz-adv-x="766" 
d="M10 460h129l89 -283l99 283h93l99 -283l88 283h129l-150 -460h-122l-92 270l-92 -270h-122zM307 640h141l73 -113h-104l-39 69l-40 -69h-104z" />
    <glyph glyph-name="Ycircumflex" unicode="&#x176;" horiz-adv-x="625" 
d="M157 650l147 -239l147 239h149l-231 -374v-276h-129v276l-231 374h148zM161 710l73 113h141l73 -113h-104l-39 69l-40 -69h-104z" />
    <glyph glyph-name="ycircumflex" unicode="&#x177;" horiz-adv-x="526" 
d="M134 460l113 -287l115 287h129l-256 -644h-122l73 184l-181 460h129zM187 640h141l73 -113h-104l-39 69l-40 -69h-104z" />
    <glyph glyph-name="Ydieresis" unicode="&#x178;" horiz-adv-x="625" 
d="M9 650h148l147 -239l147 239h149l-231 -374v-276h-129v276zM171 793q17 15 40 15q22 0 39.5 -15t17.5 -40q0 -26 -17 -42q-18 -16 -40 -16t-40 16t-18 42q0 25 18 40zM342 753q0 25 17.5 40t39.5 15q23 0 40.5 -15t17.5 -40q0 -26 -18 -42t-40 -16t-39.5 16t-17.5 42z
" />
    <glyph glyph-name="Zacute" unicode="&#x179;" horiz-adv-x="542" 
d="M219 710l54 113h107l-58 -113h-103zM35 0v108l301 423h-295v119h456v-109l-304 -422l298 -1v-118h-456z" />
    <glyph glyph-name="zacute" unicode="&#x17a;" horiz-adv-x="424" 
d="M150 527l54 113h107l-58 -113h-103zM25 0v93l196 265h-194v102h352v-93l-196 -264h194v-103h-352z" />
    <glyph glyph-name="Zdotaccent" unicode="&#x17b;" horiz-adv-x="542" 
d="M35 108l301 423h-295v119h456v-109l-304 -422l298 -1v-118h-456v108zM214 753q0 25 17.5 40t40.5 15q22 0 39.5 -15t17.5 -40q0 -26 -17 -42q-18 -16 -40 -16t-40 16t-18 42z" />
    <glyph glyph-name="zdotaccent" unicode="&#x17c;" horiz-adv-x="424" 
d="M25 93l196 265h-194v102h352v-93l-196 -264h194v-103h-352v93zM145 570q0 25 17.5 40t40.5 15q22 0 39.5 -15t17.5 -40q0 -26 -17 -42q-18 -16 -40 -16t-40 16t-18 42z" />
    <glyph glyph-name="Zcaron" unicode="&#x17d;" horiz-adv-x="542" 
d="M35 108l301 423h-295v119h456v-109l-304 -422l298 -1v-118h-456v108zM128 823h104l40 -65l39 65h104l-73 -113h-141z" />
    <glyph glyph-name="zcaron" unicode="&#x17e;" horiz-adv-x="424" 
d="M25 93l196 265h-194v102h352v-93l-196 -264h194v-103h-352v93zM59 640h104l40 -65l39 65h104l-73 -113h-141z" />
    <glyph glyph-name="uni01CD" unicode="&#x1cd;" horiz-adv-x="665" 
d="M279 650h98l263 -650h-137l-42 107h-267l-42 -107h-137zM290 823l40 -65l39 65h104l-73 -113h-141l-73 113h104zM415 225l-87 221l-87 -221h174z" />
    <glyph glyph-name="uni01CE" unicode="&#x1ce;" 
d="M90 401q61 66 156 66q82 0 132 -56v49h125v-460h-125v48q-50 -56 -132 -56q-94 0 -156 67.5t-62 170.5q0 104 62 171zM149 230q0 -52 32 -86t83 -34t82.5 34t31.5 86t-31.5 86t-82.5 34t-83 -34t-32 -86zM151 640h104l40 -65l39 65h104l-73 -113h-141z" />
    <glyph glyph-name="uni01CF" unicode="&#x1cf;" horiz-adv-x="239" 
d="M45 650h129v-650h-129v650zM-35 823h104l40 -65l39 65h104l-73 -113h-141z" />
    <glyph glyph-name="uni01D0" unicode="&#x1d0;" horiz-adv-x="241" 
d="M48 460h125v-460h-125v460zM-34 640h104l40 -65l39 65h104l-73 -113h-141z" />
    <glyph glyph-name="uni01D1" unicode="&#x1d1;" horiz-adv-x="739" 
d="M127 564q92 94 236 94t235 -94t91 -239t-91 -239t-235 -94t-236 94t-92 239t92 239zM219 179q55 -58 144 -58q88 0 142 57t54 147t-54 147t-142 57q-89 0 -144 -57.5t-55 -146.5t55 -146zM324 823l40 -65l39 65h104l-73 -113h-141l-73 113h104z" />
    <glyph glyph-name="uni01D2" unicode="&#x1d2;" horiz-adv-x="550" 
d="M28 230q0 104 66.5 171.5t170.5 67.5q105 0 171 -67t66 -172q0 -104 -66 -172q-67 -68 -171 -68t-170.5 68.5t-66.5 171.5zM183 144q31 -34 82 -34t82.5 34t31.5 86t-31.5 86t-82.5 34t-82.5 -34t-31.5 -86t32 -86zM226 640l40 -65l39 65h104l-73 -113h-141l-73 113h104z
" />
    <glyph glyph-name="uni01D3" unicode="&#x1d3;" horiz-adv-x="614" 
d="M45 650h129v-406q0 -64 34.5 -95t88.5 -31t88.5 31t34.5 95v406h129v-420q0 -101 -67 -169q-68 -69 -185 -69t-184.5 68.5t-67.5 169.5v420zM261 823l40 -65l39 65h104l-73 -113h-141l-73 113h104z" />
    <glyph glyph-name="uni01D4" unicode="&#x1d4;" horiz-adv-x="543" 
d="M170 460v-262q0 -54 29 -77t64 -23t62.5 23t27.5 77v262h125v-460h-125v42q-47 -50 -128 -50q-73 0 -126.5 44.5t-53.5 141.5v282h125zM226 640l40 -65l39 65h104l-73 -113h-141l-73 113h104z" />
    <glyph glyph-name="Gcaron" unicode="&#x1e6;" horiz-adv-x="730" 
d="M127 564q92 94 236 94q85 0 152.5 -34.5t110.5 -95.5l-105 -77q-56 78 -158 78q-89 0 -144 -57.5t-55 -146.5t55 -146.5t144 -57.5q60 0 106.5 34t58.5 94h-173v118h319l1 -57q-5 -141 -89 -229.5t-223 -88.5q-144 0 -236 94t-92 239t92 239zM324 823l40 -65l39 65h104
l-73 -113h-141l-73 113h104z" />
    <glyph glyph-name="gcaron" unicode="&#x1e7;" 
d="M28 230q0 103 61.5 170t155.5 67q84 0 133 -57v50h125v-428q0 -102 -65 -165t-181 -63q-125 0 -195 83l81 69q45 -47 114 -47q26 0 51 9t47.5 38.5t22.5 75.5v17q-50 -57 -133 -57q-94 0 -155.5 67.5t-61.5 170.5zM149 230q0 -52 32 -86q31 -34 82 -34t83 34t32 86
t-32 86t-83 34t-82.5 -34t-31.5 -86zM130 640h104l40 -65l39 65h104l-73 -113h-141z" />
    <glyph glyph-name="uni0218" unicode="&#x218;" horiz-adv-x="609" 
d="M129 220q17 -34 72 -68t118 -34q56 0 78.5 18t22.5 51q0 15 -10 28t-30 22.5t-36 15t-41.5 13t-34.5 10.5q-4 1 -27.5 8t-38.5 12.5t-40.5 16.5t-42 24.5t-34 32t-26 43.5t-8.5 54q0 98 72.5 146.5t181.5 48.5q90 0 161.5 -42.5t91.5 -97.5l-102 -66q-15 27 -62.5 52
t-104.5 25q-44 0 -67 -16t-23 -43q0 -15 9.5 -27.5t28.5 -22t34.5 -15t40.5 -12.5t34 -10q2 -1 23 -7.5t32.5 -11t34.5 -14.5t38 -19.5t33.5 -25t29.5 -31.5t19 -38t8 -47q0 -99 -69.5 -152t-189.5 -53q-105 0 -179 46.5t-101 111.5zM264 -62h104l-60 -111h-100z" />
    <glyph glyph-name="uni0219" unicode="&#x219;" horiz-adv-x="451" 
d="M103 154q9 -22 46 -45t77 -23q66 0 66 43q0 11 -5.5 19t-18 14.5t-21.5 10t-27 8.5t-23 7q-1 0 -17 5t-23.5 8t-25 10.5t-28 14t-24.5 18t-21.5 23.5t-13.5 28.5t-6 34.5q0 70 52.5 105t132.5 35q71 0 121 -28t69 -69l-81 -52q-12 19 -45.5 36.5t-67.5 17.5
q-59 0 -59 -39q0 -11 5.5 -19t18 -14.5t20.5 -10t26 -8.5t23 -7q1 0 13 -4l18 -6q6 -2 19.5 -7.5t22 -9.5t21.5 -11.5t21 -15t17.5 -17.5t15 -20.5t9.5 -24t4 -27.5q0 -72 -50 -110t-140 -38q-79 0 -133 32.5t-73 78.5zM180 -58h104l-60 -111h-100z" />
    <glyph glyph-name="uni021A" unicode="&#x21a;" horiz-adv-x="589" 
d="M25 650h519v-118h-194v-532h-130v532h-195v118zM182 -163l56 111h104l-60 -111h-100z" />
    <glyph glyph-name="uni021B" unicode="&#x21b;" horiz-adv-x="341" 
d="M75 460v141h125v-141h98v-95h-98v-212q0 -19 5 -31t15.5 -17t19 -6.5t22.5 -1.5h31v-97h-83q-135 0 -135 133v232h-60v95h60zM167 -50h104l-60 -111h-100z" />
    <glyph glyph-name="circumflex" unicode="&#x2c6;" horiz-adv-x="327" 
d="M20 537l73 113h141l73 -113h-104l-39 69l-40 -69h-104z" />
    <glyph glyph-name="caron" unicode="&#x2c7;" horiz-adv-x="327" 
d="M93 537l-73 113h104l40 -65l39 65h104l-73 -113h-141z" />
    <glyph glyph-name="breve" unicode="&#x2d8;" horiz-adv-x="266" 
d="M134 538q-51 0 -82.5 28t-31.5 81v3h73v-3q0 -20 11 -32t30 -12q39 0 39 44v3h73v-3q0 -53 -31 -81t-81 -28z" />
    <glyph glyph-name="dotaccent" unicode="&#x2d9;" horiz-adv-x="155" 
d="M78 575q-22 0 -40 16t-18 42q0 25 17.5 40t40.5 15q22 0 39.5 -15t17.5 -40q0 -26 -17.5 -42t-39.5 -16z" />
    <glyph glyph-name="ring" unicode="&#x2da;" horiz-adv-x="232" 
d="M118 492q-43 0 -70.5 26.5t-27.5 66.5q0 41 27.5 67t70.5 26q44 0 70.5 -25.5t26.5 -67.5q0 -40 -27 -66.5t-70 -26.5zM118 548q21 0 29.5 11.5t8.5 25.5t-8.5 26t-29.5 12q-37 0 -37 -38q0 -37 37 -37z" />
    <glyph glyph-name="ogonek" unicode="&#x2db;" horiz-adv-x="178" 
d="M157 -155q-56 -13 -96.5 4.5t-40.5 63.5q0 30 17.5 53.5t37.5 33.5h65q-1 -1 -8 -6.5t-13 -11t-13.5 -13.5t-11.5 -17.5t-4 -19.5q0 -9 6 -15.5t20.5 -8t40.5 9.5v-73z" />
    <glyph glyph-name="tilde" unicode="&#x2dc;" horiz-adv-x="367" 
d="M240 561q-45 0 -76 35q-22 24 -39 24t-24.5 -15t-7.5 -32h-73q1 52 27.5 85.5t74.5 33.5q45 0 76 -35q22 -24 42 -24q34 0 34 46h73q-1 -53 -27.5 -85.5t-79.5 -32.5z" />
    <glyph glyph-name="hungarumlaut" unicode="&#x2dd;" horiz-adv-x="383" 
d="M20 537l55 113h107l-74 -113h-88zM201 537l55 113h107l-74 -113h-88z" />
    <glyph glyph-name="gravecomb" unicode="&#x300;" horiz-adv-x="0" 
d="M-123 537l-58 113h107l54 -113h-103z" />
    <glyph glyph-name="acutecomb" unicode="&#x301;" horiz-adv-x="0" 
d="M-181 537l54 113h107l-58 -113h-103z" />
    <glyph glyph-name="uni0302" unicode="&#x302;" horiz-adv-x="0" 
d="M-234 650h141l73 -113h-104l-39 69l-40 -69h-104z" />
    <glyph glyph-name="tildecomb" unicode="&#x303;" horiz-adv-x="0" 
d="M-347 573q1 52 27.5 85.5t74.5 33.5q45 0 76 -35q22 -24 42 -24q34 0 34 46h73q-1 -53 -27.5 -85.5t-79.5 -32.5q-45 0 -76 35q-22 24 -39 24t-24.5 -15t-7.5 -32h-73z" />
    <glyph glyph-name="uni0304" unicode="&#x304;" horiz-adv-x="0" 
d="M-217 570v80h197v-80h-197z" />
    <glyph glyph-name="uni0306" unicode="&#x306;" horiz-adv-x="0" 
d="M-188 650v-3q0 -18 13 -31.5t35 -13.5t34.5 13.5t12.5 31.5v3h73v-3q0 -50 -33 -80t-87 -30t-87.5 30t-33.5 80v3h73z" />
    <glyph glyph-name="uni0307" unicode="&#x307;" horiz-adv-x="0" 
d="M-135 633q0 25 17.5 40t40.5 15q22 0 39.5 -15t17.5 -40q0 -26 -18 -42q-17 -16 -39 -16t-40 16t-18 42z" />
    <glyph glyph-name="uni0308" unicode="&#x308;" horiz-adv-x="0" 
d="M-142 633q0 25 17.5 40t39.5 15q23 0 40.5 -15t17.5 -40q0 -26 -18 -42t-40 -16t-39.5 16t-17.5 42zM-331 633q0 25 17.5 40t40.5 15q22 0 39.5 -15t17.5 -40q0 -26 -18 -42q-17 -16 -39 -16t-40 16t-18 42z" />
    <glyph glyph-name="uni030A" unicode="&#x30a;" horiz-adv-x="0" 
d="M-212 586q0 41 27 66.5t70 25.5t69 -25.5t26 -66.5q0 -39 -27 -65q-26 -26 -68 -26t-69.5 26t-27.5 65zM-151 586q0 -36 36 -36q19 0 27.5 11.5t8.5 24.5t-8.5 25t-27.5 12q-36 0 -36 -37z" />
    <glyph glyph-name="uni030B" unicode="&#x30b;" horiz-adv-x="0" 
d="M-127 650h107l-74 -113h-88zM-363 537l55 113h107l-74 -113h-88z" />
    <glyph glyph-name="uni030C" unicode="&#x30c;" horiz-adv-x="0" 
d="M-307 650h104l40 -65l39 65h104l-73 -113h-141z" />
    <glyph glyph-name="uni0312" unicode="&#x312;" horiz-adv-x="0" 
d="M-80 695h59q-31 -26 -38 -39q35 -12 35 -49q0 -22 -15 -38q-14 -16 -41 -16t-43 16t-16 38q0 41 59 88z" />
    <glyph glyph-name="dotbelowcomb" unicode="&#x323;" horiz-adv-x="0" 
d="M-118 -15q18 15 41 15q22 0 39.5 -15t17.5 -40q0 -26 -17.5 -42.5t-39.5 -16.5q-23 0 -40.5 16.5t-17.5 42.5q0 25 17 40z" />
    <glyph glyph-name="uni0326" unicode="&#x326;" horiz-adv-x="0" 
d="M-180 -111l56 111h104l-60 -111h-100z" />
    <glyph glyph-name="uni0327" unicode="&#x327;" horiz-adv-x="0" 
d="M-121 -134q38 0 38 20q0 19 -43 19q-30 0 -41 -6l-1 50l31 51h71l-25 -44q71 -13 71 -70q0 -80 -101 -80q-44 0 -64 10v63q18 -13 64 -13z" />
    <glyph glyph-name="uni0328" unicode="&#x328;" horiz-adv-x="0" 
d="M-145 -35q19 24 40 35h71l-8 -6q-9 -6 -15 -11t-14 -13.5t-12.5 -18t-4.5 -19.5q0 -9 6 -15.5t14 -7.5t10 -1q14 0 37 10v-73q-24 -6 -47 -6q-28 0 -62 14t-34 60q0 29 19 52z" />
    <glyph glyph-name="uni0331" unicode="&#x331;" horiz-adv-x="0" 
d="M-207 -79v79h187v-79h-187z" />
    <glyph glyph-name="Gamma" unicode="&#x393;" horiz-adv-x="467" 
d="M45 0v650h357v-118h-231v-532h-126z" />
    <glyph glyph-name="uni0394" unicode="&#x394;" horiz-adv-x="653" 
d="M45 0v111l219 539h105l219 -539v-111h-543zM179 111h274l-138 344z" />
    <glyph glyph-name="Sigma" unicode="&#x3a3;" horiz-adv-x="588" 
d="M45 0v92l243 230l-243 240v88h478v-118h-272l208 -210l-205 -204h269v-118h-478z" />
    <glyph glyph-name="Phi" unicode="&#x3a6;" horiz-adv-x="772" 
d="M325 -6v71q-130 12 -205 78.5t-75 182.5q0 114 75.5 180.5t204.5 78.5v71h103v-71q130 -11 204.5 -77.5t74.5 -181.5q0 -116 -74.5 -182.5t-204.5 -78.5v-71h-103zM325 192v267q-81 -9 -117.5 -45t-36.5 -88t36.5 -88.5t117.5 -45.5zM428 192q153 16 153 134
q0 52 -36 88.5t-117 44.5v-267z" />
    <glyph glyph-name="Psi" unicode="&#x3a8;" horiz-adv-x="736" 
d="M307 0v159q-117 14 -189.5 88t-72.5 207v196h126v-196q0 -155 136 -176v372h103v-372q135 20 135 176v196h126v-197q0 -132 -72.5 -206t-188.5 -88v-159h-103z" />
    <glyph glyph-name="uni03A9" unicode="&#x3a9;" horiz-adv-x="786" 
d="M45 4v118h90q-75 85 -75 203q0 146 90 239.5t234 93.5t233 -93.5t89 -239.5q0 -116 -74 -203h89v-118h-282v119q142 57 142 210q0 33 -11 66.5t-33 64.5t-62 50t-91 19t-91 -19t-62.5 -50t-33.5 -64.5t-11 -66.5q0 -153 141 -208v-121h-282z" />
    <glyph glyph-name="uni1E04" unicode="&#x1e04;" horiz-adv-x="604" 
d="M348 650q79 0 134 -49t55 -134q0 -87 -61 -130q85 -48 85 -149q0 -85 -58 -136.5t-137 -51.5h-321v650h303zM174 280v-162h171q38 0 60.5 23t22.5 58q0 34 -23 57.5t-60 23.5h-171zM174 532v-145h153q35 0 56 19.5t21 53.5t-21 53t-56 19h-153zM229 -60q17 15 40 15
q22 0 39.5 -15t17.5 -40q0 -26 -17.5 -42.5t-39.5 -16.5q-23 0 -40.5 16.5t-17.5 42.5q0 25 18 40z" />
    <glyph glyph-name="uni1E05" unicode="&#x1e05;" 
d="M45 650h125v-239q50 56 132 56q95 0 156.5 -66.5t61.5 -170.5q0 -103 -62 -170.5t-156 -67.5q-82 0 -132 56v-48h-125v650zM170 230q0 -52 32 -86q31 -34 82 -34t83 34t32 86t-32 86t-83 34t-82.5 -34t-31.5 -86zM237 -108q0 25 17.5 40t40.5 15q22 0 39.5 -15t17.5 -40
q0 -26 -17.5 -42.5t-39.5 -16.5q-23 0 -40.5 16.5t-17.5 42.5z" />
    <glyph glyph-name="uni1E0C" unicode="&#x1e0c;" horiz-adv-x="655" 
d="M45 0v650h241q142 0 230.5 -90t88.5 -235t-88.5 -235t-230.5 -90h-241zM174 126h112q28 0 57.5 9t61 29t51.5 62t20 99t-20.5 98.5t-51.5 62.5t-60.5 30t-57.5 9h-112v-399zM221 -60q17 15 40 15q22 0 39.5 -15t17.5 -40q0 -26 -17.5 -42.5t-39.5 -16.5q-23 0 -40.5 16.5
t-17.5 42.5q0 25 18 40z" />
    <glyph glyph-name="uni1E0D" unicode="&#x1e0d;" 
d="M90 401q61 66 156 66q82 0 132 -56v239h125v-650h-125v48q-50 -56 -132 -56q-94 0 -156 67.5t-62 170.5q0 104 62 171zM149 230q0 -52 32 -86t83 -34t82.5 34t31.5 86t-31.5 86t-82.5 34t-83 -34t-32 -86zM217 -108q0 25 17.5 40t40.5 15q22 0 39.5 -15t17.5 -40
q0 -26 -17.5 -42.5t-39.5 -16.5q-23 0 -40.5 16.5t-17.5 42.5z" />
    <glyph glyph-name="uni1E24" unicode="&#x1e24;" horiz-adv-x="646" 
d="M45 650h129v-262h277v262h130v-650h-130v262h-277v-262h-129v650zM254 -96q0 25 17.5 40t40.5 15q22 0 39.5 -15t17.5 -40q0 -26 -17.5 -42.5t-39.5 -16.5q-23 0 -40.5 16.5t-17.5 42.5z" />
    <glyph glyph-name="uni1E25" unicode="&#x1e25;" horiz-adv-x="543" 
d="M170 650v-234q47 51 129 51q73 0 126 -44.5t53 -141.5v-281h-125v262q0 54 -28.5 77t-63.5 23t-63 -23t-28 -77v-262h-125v650h125zM206 -100q0 25 17.5 40t40.5 15q22 0 39.5 -15t17.5 -40q0 -26 -17.5 -42.5t-39.5 -16.5q-23 0 -40.5 16.5t-17.5 42.5z" />
    <glyph glyph-name="uni1E36" unicode="&#x1e36;" horiz-adv-x="528" 
d="M174 650v-532h309v-118h-438v650h129zM224 -60q17 15 40 15q22 0 39.5 -15t17.5 -40q0 -26 -17.5 -42.5t-39.5 -16.5q-23 0 -40.5 16.5t-17.5 42.5q0 25 18 40z" />
    <glyph glyph-name="uni1E37" unicode="&#x1e37;" horiz-adv-x="236" 
d="M171 650l-1 -650h-125v650h126zM69 -60q17 15 40 15q22 0 39.5 -15t17.5 -40q0 -26 -17.5 -42.5t-39.5 -16.5q-23 0 -40.5 16.5t-17.5 42.5q0 25 18 40z" />
    <glyph glyph-name="uni1E3E" unicode="&#x1e3e;" horiz-adv-x="760" 
d="M176 650l194 -386l194 386h131v-650h-130v389l-150 -314h-90l-151 315v-390h-129v650h131zM372 823h107l-58 -113h-103z" />
    <glyph glyph-name="uni1E3F" unicode="&#x1e3f;" horiz-adv-x="822" 
d="M45 460h125v-46q49 53 122 53q98 0 142 -70q52 70 151 70q71 0 121.5 -43.5t50.5 -142.5v-281h-125v264q0 53 -27.5 73.5t-58.5 20.5q-30 0 -56.5 -20.5t-26.5 -73.5v-264h-125v264q0 53 -27 73.5t-58 20.5t-57 -20.5t-26 -73.5v-264h-125v460zM349 538l54 113h107
l-58 -113h-103z" />
    <glyph glyph-name="uni1E44" unicode="&#x1e44;" horiz-adv-x="638" 
d="M45 650h126l273 -424v424h129v-650h-125l-273 423v-423h-130v650zM255 753q0 25 17.5 40t40.5 15q22 0 39.5 -15t17.5 -40q0 -26 -17 -42q-18 -16 -40 -16t-40 16t-18 42z" />
    <glyph glyph-name="uni1E45" unicode="&#x1e45;" horiz-adv-x="543" 
d="M45 0v460h125v-44q47 51 129 51q73 0 126 -44.5t53 -141.5v-281h-125v262q0 54 -28.5 77t-63.5 23t-63 -23t-28 -77v-262h-125zM222 610q17 15 40 15q22 0 39.5 -15t17.5 -40q0 -26 -17 -42q-18 -16 -40 -16t-40 16t-18 42q0 25 18 40z" />
    <glyph glyph-name="uni1E46" unicode="&#x1e46;" horiz-adv-x="638" 
d="M45 650h126l273 -424v424h129v-650h-125l-273 423v-423h-130v650zM257 -100q0 25 17.5 40t40.5 15q22 0 39.5 -15t17.5 -40q0 -26 -17.5 -42.5t-39.5 -16.5q-23 0 -40.5 16.5t-17.5 42.5z" />
    <glyph glyph-name="uni1E47" unicode="&#x1e47;" horiz-adv-x="543" 
d="M170 460v-44q47 51 129 51q73 0 126 -44.5t53 -141.5v-281h-125v262q0 54 -28.5 77t-63.5 23t-63 -23t-28 -77v-262h-125v460h125zM204 -100q0 25 17.5 40t40.5 15q22 0 39.5 -15t17.5 -40q0 -26 -17.5 -42.5t-39.5 -16.5q-23 0 -40.5 16.5t-17.5 42.5z" />
    <glyph glyph-name="uni1E62" unicode="&#x1e62;" horiz-adv-x="609" 
d="M129 220q17 -34 72 -68t118 -34q56 0 78.5 18t22.5 51q0 15 -10 28t-30 22.5t-36 15t-41.5 13t-34.5 10.5q-4 1 -27.5 8t-38.5 12.5t-40.5 16.5t-42 24.5t-34 32t-26 43.5t-8.5 54q0 98 72.5 146.5t181.5 48.5q90 0 161.5 -42.5t91.5 -97.5l-102 -66q-15 27 -62.5 52
t-104.5 25q-44 0 -67 -16t-23 -43q0 -15 9.5 -27.5t28.5 -22t34.5 -15t40.5 -12.5t34 -10q2 -1 23 -7.5t32.5 -11t34.5 -14.5t38 -19.5t33.5 -25t29.5 -31.5t19 -38t8 -47q0 -99 -69.5 -152t-189.5 -53q-105 0 -179 46.5t-101 111.5zM271 -69q17 15 40 15q22 0 39.5 -15
t17.5 -40q0 -26 -17.5 -42.5t-39.5 -16.5q-23 0 -40.5 16.5t-17.5 42.5q0 25 18 40z" />
    <glyph glyph-name="uni1E6C" unicode="&#x1e6c;" horiz-adv-x="589" 
d="M544 650v-118h-194v-532h-130v532h-195v118h519zM227 -99q0 25 17.5 40t40.5 15q22 0 39.5 -15t17.5 -40q0 -26 -17.5 -42.5t-39.5 -16.5q-23 0 -40.5 16.5t-17.5 42.5z" />
    <glyph glyph-name="uni1E6D" unicode="&#x1e6d;" horiz-adv-x="341" 
d="M15 460h60v141h125v-141h98v-95h-98v-212q0 -19 5 -31t15.5 -17t19 -6.5t22.5 -1.5h31v-97h-83q-135 0 -135 133v232h-60v95zM174 -57q17 15 40 15q22 0 39.5 -15t17.5 -40q0 -26 -17.5 -42.5t-39.5 -16.5q-23 0 -40.5 16.5t-17.5 42.5q0 25 18 40z" />
    <glyph glyph-name="Wgrave" unicode="&#x1e80;" horiz-adv-x="950" 
d="M15 650h137l138 -414l136 414h95l134 -398l133 398h137l-217 -650h-111l-127 383l-127 -383h-111zM363 823h107l54 -113h-103z" />
    <glyph glyph-name="wgrave" unicode="&#x1e81;" horiz-adv-x="766" 
d="M10 460h129l89 -283l99 283h93l99 -283l88 283h129l-150 -460h-122l-92 270l-92 -270h-122zM270 640h107l54 -113h-103z" />
    <glyph glyph-name="Wacute" unicode="&#x1e82;" horiz-adv-x="950" 
d="M15 650h137l138 -414l136 414h95l134 -398l133 398h137l-217 -650h-111l-127 383l-127 -383h-111zM418 710l54 113h107l-58 -113h-103z" />
    <glyph glyph-name="wacute" unicode="&#x1e83;" horiz-adv-x="766" 
d="M10 460h129l89 -283l99 283h93l99 -283l88 283h129l-150 -460h-122l-92 270l-92 -270h-122zM325 527l54 113h107l-58 -113h-103z" />
    <glyph glyph-name="Wdieresis" unicode="&#x1e84;" horiz-adv-x="950" 
d="M15 650h137l138 -414l136 414h95l134 -398l133 398h137l-217 -650h-111l-127 383l-127 -383h-111zM319 753q0 25 17.5 40t40.5 15q22 0 39.5 -15t17.5 -40q0 -26 -17 -42q-18 -16 -40 -16t-40 16t-18 42zM508 753q0 25 17.5 40t39.5 15q23 0 40.5 -15t17.5 -40
q0 -26 -18 -42t-40 -16t-39.5 16t-17.5 42z" />
    <glyph glyph-name="wdieresis" unicode="&#x1e85;" horiz-adv-x="766" 
d="M10 460h129l89 -283l99 283h93l99 -283l88 283h129l-150 -460h-122l-92 270l-92 -270h-122zM226 570q0 25 17.5 40t40.5 15q22 0 39.5 -15t17.5 -40q0 -26 -17 -42q-18 -16 -40 -16t-40 16t-18 42zM415 570q0 25 17.5 40t39.5 15q23 0 40.5 -15t17.5 -40q0 -26 -18 -42
t-40 -16t-39.5 16t-17.5 42z" />
    <glyph glyph-name="uni1E92" unicode="&#x1e92;" horiz-adv-x="542" 
d="M35 108l301 423h-295v119h456v-109l-304 -422l298 -1v-118h-456v108zM207 -100q0 25 17.5 40t40.5 15q22 0 39.5 -15t17.5 -40q0 -26 -17.5 -42.5t-39.5 -16.5q-23 0 -40.5 16.5t-17.5 42.5z" />
    <glyph glyph-name="uni1E93" unicode="&#x1e93;" horiz-adv-x="424" 
d="M25 93l196 265h-194v102h352v-93l-196 -264h194v-103h-352v93zM146 -100q0 25 17.5 40t40.5 15q22 0 39.5 -15t17.5 -40q0 -26 -17.5 -42.5t-39.5 -16.5q-23 0 -40.5 16.5t-17.5 42.5z" />
    <glyph glyph-name="uni1EA0" unicode="&#x1ea0;" horiz-adv-x="665" 
d="M279 650h98l263 -650h-137l-42 107h-267l-42 -107h-137zM415 225l-87 221l-87 -221h174zM273 -100q0 25 17.5 40t40.5 15q22 0 39.5 -15t17.5 -40q0 -26 -17.5 -42.5t-39.5 -16.5q-23 0 -40.5 16.5t-17.5 42.5z" />
    <glyph glyph-name="uni1EA1" unicode="&#x1ea1;" 
d="M90 401q61 66 156 66q82 0 132 -56v49h125v-460h-125v48q-50 -56 -132 -56q-94 0 -156 67.5t-62 170.5q0 104 62 171zM149 230q0 -52 32 -86t83 -34t82.5 34t31.5 86t-31.5 86t-82.5 34t-83 -34t-32 -86zM237 -103q0 25 17.5 40t40.5 15q22 0 39.5 -15t17.5 -40
q0 -26 -17.5 -42.5t-39.5 -16.5q-23 0 -40.5 16.5t-17.5 42.5z" />
    <glyph glyph-name="uni1EB8" unicode="&#x1eb8;" horiz-adv-x="545" 
d="M485 650v-118h-311v-148h290v-118h-290v-148h311v-118h-440v650h440zM214 -98q0 25 17.5 40t40.5 15q22 0 39.5 -15t17.5 -40q0 -26 -17.5 -42.5t-39.5 -16.5q-23 0 -40.5 16.5t-17.5 42.5z" />
    <glyph glyph-name="uni1EB9" unicode="&#x1eb9;" horiz-adv-x="526" 
d="M91 402q63 67 166 67q101 0 161 -67t60 -172v-34h-330q9 -46 40 -72.5t74 -26.5q72 0 109 49l85 -62q-30 -44 -81 -69t-113 -25q-104 0 -169 68t-65 172t63 172zM150 275h211q-9 43 -35.5 69t-68.5 26t-70 -25.5t-37 -69.5zM202 -105q0 25 17.5 40t40.5 15q22 0 39.5 -15
t17.5 -40q0 -26 -17.5 -42.5t-39.5 -16.5q-23 0 -40.5 16.5t-17.5 42.5z" />
    <glyph glyph-name="uni1EBC" unicode="&#x1ebc;" horiz-adv-x="545" 
d="M485 650v-118h-311v-148h290v-118h-290v-148h311v-118h-440v650h440zM107 705q1 52 27.5 85.5t74.5 33.5q45 0 76 -35q22 -24 42 -24q34 0 34 46h73q-1 -53 -27.5 -85.5t-79.5 -32.5q-45 0 -76 35q-22 24 -39 24t-24.5 -15t-7.5 -32h-73z" />
    <glyph glyph-name="uni1EBD" unicode="&#x1ebd;" horiz-adv-x="526" 
d="M91 402q63 67 166 67q101 0 161 -67t60 -172v-34h-330q9 -46 40 -72.5t74 -26.5q72 0 109 49l85 -62q-30 -44 -81 -69t-113 -25q-104 0 -169 68t-65 172t63 172zM121 608q26 33 74 33q45 0 76 -35q22 -24 42 -24q34 0 34 46h73q-1 -53 -27.5 -85.5t-79.5 -32.5
q-45 0 -76 35q-22 24 -39 24t-24.5 -15t-7.5 -32h-73q1 52 28 86zM361 275q-9 43 -35.5 69t-68.5 26t-70 -25.5t-37 -69.5h211z" />
    <glyph glyph-name="uni1ECA" unicode="&#x1eca;" horiz-adv-x="239" 
d="M174 650v-650h-129v650h129zM70 -60q17 15 40 15q22 0 39.5 -15t17.5 -40q0 -26 -17.5 -42.5t-39.5 -16.5q-23 0 -40.5 16.5t-17.5 42.5q0 25 18 40z" />
    <glyph glyph-name="uni1ECB" unicode="&#x1ecb;" horiz-adv-x="248" 
d="M51 460h126l-1 -460h-125v460zM66 647q20 17 48 17q27 0 48 -18t21 -48q0 -31 -21 -50q-21 -20 -48 -20t-48 19.5t-21 50.5t21 49zM57 -108q0 25 17.5 40t40.5 15q22 0 39.5 -15t17.5 -40q0 -26 -17.5 -42.5t-39.5 -16.5q-23 0 -40.5 16.5t-17.5 42.5z" />
    <glyph glyph-name="uni1ECC" unicode="&#x1ecc;" horiz-adv-x="739" 
d="M35 325q0 145 92 239t236 94t235 -94t91 -239t-91 -239t-235 -94t-236 94t-92 239zM219 179q55 -58 144 -58q88 0 142 57t54 147t-54 147t-142 57q-89 0 -144 -57.5t-55 -146.5t55 -146zM306 -107q0 25 17.5 40t40.5 15q22 0 39.5 -15t17.5 -40q0 -26 -17.5 -42.5
t-39.5 -16.5q-23 0 -40.5 16.5t-17.5 42.5z" />
    <glyph glyph-name="uni1ECD" unicode="&#x1ecd;" horiz-adv-x="550" 
d="M95 402q66 67 170 67q105 0 171 -67t66 -172q0 -104 -66 -172q-67 -68 -171 -68t-170.5 68.5t-66.5 171.5q0 104 67 172zM183 144q31 -34 82 -34t82.5 34t31.5 86t-31.5 86t-82.5 34t-82.5 -34t-31.5 -86t32 -86zM208 -108q0 25 17.5 40t40.5 15q22 0 39.5 -15t17.5 -40
q0 -26 -17.5 -42.5t-39.5 -16.5q-23 0 -40.5 16.5t-17.5 42.5z" />
    <glyph glyph-name="uni1EE4" unicode="&#x1ee4;" horiz-adv-x="614" 
d="M174 650v-406q0 -64 34.5 -95t88.5 -31t88.5 31t34.5 95v406h129v-420q0 -101 -67 -169q-68 -69 -185 -69t-184.5 68.5t-67.5 169.5v420h129zM240 -102q0 25 17.5 40t40.5 15q22 0 39.5 -15t17.5 -40q0 -26 -17.5 -42.5t-39.5 -16.5q-23 0 -40.5 16.5t-17.5 42.5z" />
    <glyph glyph-name="uni1EE5" unicode="&#x1ee5;" horiz-adv-x="543" 
d="M45 178v282h125v-262q0 -54 29 -77t64 -23t62.5 23t27.5 77v262h125v-460h-125v42q-47 -50 -128 -50q-73 0 -126.5 44.5t-53.5 141.5zM206 -104q0 25 17.5 40t40.5 15q22 0 39.5 -15t17.5 -40q0 -26 -17.5 -42.5t-39.5 -16.5q-23 0 -40.5 16.5t-17.5 42.5z" />
    <glyph glyph-name="Ygrave" unicode="&#x1ef2;" horiz-adv-x="625" 
d="M157 650l147 -239l147 239h149l-231 -374v-276h-129v276l-231 374h148zM197 823h107l54 -113h-103z" />
    <glyph glyph-name="ygrave" unicode="&#x1ef3;" horiz-adv-x="526" 
d="M134 460l113 -287l115 287h129l-256 -644h-122l73 184l-181 460h129zM257 640l54 -113h-103l-58 113h107z" />
    <glyph glyph-name="uni1EF4" unicode="&#x1ef4;" horiz-adv-x="625" 
d="M9 650h148l147 -239l147 239h149l-231 -374v-276h-129v276zM265 -60q17 15 40 15q22 0 39.5 -15t17.5 -40q0 -26 -17.5 -42.5t-39.5 -16.5q-23 0 -40.5 16.5t-17.5 42.5q0 25 18 40z" />
    <glyph glyph-name="uni1EF5" unicode="&#x1ef5;" horiz-adv-x="526" 
d="M134 460l113 -287l115 287h129l-256 -644h-122l73 184l-181 460h129zM331 -123q0 25 17.5 40t40.5 15q22 0 39.5 -15t17.5 -40q0 -26 -17.5 -42.5t-39.5 -16.5q-23 0 -40.5 16.5t-17.5 42.5z" />
    <glyph glyph-name="uni1EF8" unicode="&#x1ef8;" horiz-adv-x="625" 
d="M9 650h148l147 -239l147 239h149l-231 -374v-276h-129v276zM168 791q26 33 74 33q45 0 76 -35q22 -24 42 -24q34 0 34 46h73q-1 -53 -27.5 -85.5t-79.5 -32.5q-45 0 -76 35q-22 24 -39 24t-24.5 -15t-7.5 -32h-73q1 52 28 86z" />
    <glyph glyph-name="uni1EF9" unicode="&#x1ef9;" horiz-adv-x="516" 
d="M134 460l113 -287l115 287h129l-256 -644h-122l73 184l-181 460h129zM111 608q26 33 74 33q45 0 76 -35q22 -24 42 -24q34 0 34 46h73q-1 -53 -27.5 -85.5t-79.5 -32.5q-45 0 -76 35q-22 24 -39 24t-24.5 -15t-7.5 -32h-73q1 52 28 86z" />
    <glyph glyph-name="endash" unicode="&#x2013;" horiz-adv-x="493" 
d="M45 219v118h383v-118h-383z" />
    <glyph glyph-name="emdash" unicode="&#x2014;" horiz-adv-x="585" 
d="M45 218v118h475v-118h-475z" />
    <glyph glyph-name="quoteleft" unicode="&#x2018;" horiz-adv-x="209" 
d="M25 472l69 178h90l-37 -178h-122z" />
    <glyph glyph-name="quoteright" unicode="&#x2019;" horiz-adv-x="209" 
d="M25 472l37 178h122l-69 -178h-90z" />
    <glyph glyph-name="quotesinglbase" unicode="&#x201a;" horiz-adv-x="209" 
d="M25 -96l37 178h122l-69 -178h-90z" />
    <glyph glyph-name="quotedblleft" unicode="&#x201c;" horiz-adv-x="408" 
d="M25 472l69 178h90l-37 -178h-122zM224 472l68 178h91l-38 -178h-121z" />
    <glyph glyph-name="quotedblright" unicode="&#x201d;" horiz-adv-x="408" 
d="M25 472l37 178h122l-69 -178h-90zM224 472l37 178h122l-69 -178h-90z" />
    <glyph glyph-name="quotedblbase" unicode="&#x201e;" horiz-adv-x="408" 
d="M25 -97l37 179h122l-69 -179h-90zM224 -97l37 179h122l-69 -179h-90z" />
    <glyph glyph-name="dagger" unicode="&#x2020;" horiz-adv-x="438" 
d="M150 0v372h-105v95h105v183h118v-183h105v-95h-105v-372h-118z" />
    <glyph glyph-name="daggerdbl" unicode="&#x2021;" horiz-adv-x="438" 
d="M150 0v170h-105v96h105v125h-105v96h105v163h118v-163h105v-96h-105v-125h105v-96h-105v-170h-118z" />
    <glyph glyph-name="bullet" unicode="&#x2022;" horiz-adv-x="263" 
d="M131 219q-46 0 -76 30t-30 76t30 76t76 30q47 0 77 -30t30 -76t-30 -76t-77 -30z" />
    <glyph glyph-name="ellipsis" unicode="&#x2026;" horiz-adv-x="616" 
d="M92 -6q-29 0 -48 19t-19 48q0 28 19 46.5t48 18.5t47.5 -18.5t18.5 -46.5q0 -29 -18.5 -48t-47.5 -19zM309 -6q-29 0 -48 19t-19 48q0 28 19 46.5t48 18.5t47.5 -18.5t18.5 -46.5q0 -29 -18.5 -48t-47.5 -19zM525 -6q-29 0 -48 19t-19 48q0 28 19 46.5t48 18.5
t47.5 -18.5t18.5 -46.5q0 -29 -18.5 -48t-47.5 -19z" />
    <glyph glyph-name="perthousand" unicode="&#x2030;" horiz-adv-x="1245" 
d="M202 336q-68 0 -112.5 45.5t-44.5 113.5q0 71 44 116t113 45q68 0 112.5 -45t44.5 -116q0 -68 -45 -113.5t-112 -45.5zM198 0l351 650h96l-351 -650h-96zM202 418q34 0 54.5 22t20.5 55q0 34 -20.5 56.5t-54.5 22.5q-33 0 -54 -22.5t-21 -56.5q0 -33 21 -55t54 -22z
M641 -7q-68 0 -112.5 45.5t-44.5 114.5q0 71 44 116t113 45q68 0 112.5 -45t44.5 -116q0 -69 -44.5 -114.5t-112.5 -45.5zM1024 -7q-68 0 -112.5 45.5t-44.5 114.5q0 71 44 116t113 45q68 0 112 -45t44 -116q0 -69 -44.5 -114.5t-111.5 -45.5zM641 75q34 0 54.5 22t20.5 56
t-20.5 56.5t-54.5 22.5q-33 0 -54 -22.5t-21 -56.5q0 -33 21 -55.5t54 -22.5zM1024 75q34 0 54 22t20 56t-20 56.5t-54 22.5t-54.5 -22.5t-20.5 -56.5t20.5 -56t54.5 -22z" />
    <glyph glyph-name="guilsinglleft" unicode="&#x2039;" horiz-adv-x="392" 
d="M197 135l-172 186l172 186h150l-171 -186l171 -186h-150z" />
    <glyph glyph-name="guilsinglright" unicode="&#x203a;" horiz-adv-x="392" 
d="M25 135l171 186l-171 186h150l172 -186l-172 -186h-150z" />
    <glyph glyph-name="fraction" unicode="&#x2044;" horiz-adv-x="505" 
d="M20 0l401 650h64l-401 -650h-64z" />
    <glyph glyph-name="uni2070" unicode="&#x2070;" horiz-adv-x="419" 
d="M203 253q-76 0 -122 56.5t-46 145.5t46 146t122 57q77 0 124 -57t47 -146t-47 -145.5t-124 -56.5zM203 330q39 0 64.5 33t25.5 92q0 60 -25.5 92t-64.5 32q-38 0 -63.5 -32.5t-25.5 -91.5t25.5 -92t63.5 -33z" />
    <glyph glyph-name="uni2074" unicode="&#x2074;" horiz-adv-x="381" 
d="M223 258v71h-198v50l198 271h77v-265h46v-56h-46v-71h-77zM102 385h121v166z" />
    <glyph glyph-name="uni2075" unicode="&#x2075;" horiz-adv-x="364" 
d="M163 257q-85 0 -138 57l51 55q33 -36 82 -36q33 0 55.5 15t22.5 44t-24 44.5t-57 15.5q-41 0 -71 -14l-26 34l32 182h208v-71h-146l-13 -68h18q78 0 117.5 -35.5t39.5 -91.5q0 -62 -42 -96.5t-109 -34.5z" />
    <glyph glyph-name="uni2076" unicode="&#x2076;" horiz-adv-x="369" 
d="M177 252q-60 0 -101 41.5t-41 101.5q0 49 26 84l110 171h84l-72 -111q59 -2 97.5 -43t38.5 -101t-40.5 -101.5t-101.5 -41.5zM177 326q30 0 49 19.5t19 49.5q0 31 -19 51t-49 20t-49 -20t-19 -51q0 -30 19 -49.5t49 -19.5z" />
    <glyph glyph-name="uni2077" unicode="&#x2077;" horiz-adv-x="311" 
d="M39 258l147 320h-163v71h253v-51l-156 -340h-81z" />
    <glyph glyph-name="uni2078" unicode="&#x2078;" horiz-adv-x="372" 
d="M180 251q-70 0 -107.5 33t-37.5 87q0 60 57 90q-50 32 -50 87q0 43 35 75.5t103 32.5q66 0 101 -32.5t35 -75.5q0 -56 -50 -87q56 -31 56 -90q0 -54 -36.5 -87t-105.5 -33zM180 488q31 0 47.5 16t16.5 39q0 22 -16.5 39t-47.5 17q-32 0 -49 -16.5t-17 -39.5t17 -39
t49 -16zM180 315q32 0 49.5 17t17.5 42t-17.5 42.5t-49.5 17.5q-33 0 -51.5 -17.5t-18.5 -42.5t18.5 -42t51.5 -17z" />
    <glyph glyph-name="uni2079" unicode="&#x2079;" horiz-adv-x="369" 
d="M99 257l70 111q-58 3 -96 43.5t-38 99.5q0 61 40.5 102.5t101.5 41.5q60 0 101 -42t41 -102q0 -42 -30 -89l-106 -165h-84zM177 441q36 0 54 26l1 1q13 18 13 43q0 31 -19.5 50.5t-48.5 19.5q-30 0 -49 -19.5t-19 -50.5t19 -50.5t49 -19.5z" />
    <glyph glyph-name="Euro" unicode="&#x20ac;" horiz-adv-x="574" 
d="M438 -8q-107 0 -183 58.5t-105 158.5h-105v65h92q-3 26 -3 51q0 17 2 47h-91v65h104q28 101 104.5 161t184.5 60h19.5h32.5h19v-118h-14h-21h-14q-130 0 -179 -103h175v-65h-194q-3 -23 -3 -47q0 -30 4 -51h193v-65h-173q49 -99 177 -99q29 0 49 2v-118q-20 -2 -71 -2z
" />
    <glyph glyph-name="trademark" unicode="&#x2122;" horiz-adv-x="1349" 
d="M634 650h131l194 -386l194 386h131v-650h-130v389l-150 -314h-90l-151 315v-390h-129v650zM25 650h519v-118h-194v-532h-130v532h-195v118z" />
    <glyph glyph-name="oneeighth" unicode="&#x215b;" horiz-adv-x="538" 
d="M81 322v268h-71v60h136v-328h-65zM12 0l401 650h64l-401 -650h-64zM408 -6q-57 0 -88 27t-31 71q0 49 47 75q-41 25 -41 72q0 35 29 61.5t84 26.5t83.5 -26.5t28.5 -61.5q0 -48 -41 -72q46 -25 46 -75q0 -44 -30 -71t-87 -27zM408 189q26 0 39.5 13t13.5 32
q0 18 -13.5 32t-39.5 14t-40 -14t-14 -32q0 -19 13.5 -32t40.5 -13zM408 47q27 0 41.5 13.5t14.5 34.5t-14.5 35t-41.5 14t-42 -14t-15 -35q0 -20 15 -34t42 -14z" />
    <glyph glyph-name="threeeighths" unicode="&#x215c;" horiz-adv-x="622" 
d="M126 322q-36 0 -67.5 14t-46.5 36l41 43q24 -30 73 -30q28 0 45.5 13t17.5 37t-17.5 37.5t-45.5 13.5q-27 0 -57 -9l1 46l85 68h-120v59h210v-55l-73 -63q82 -20 82 -97q0 -57 -37.5 -85t-90.5 -28zM83 0l401 650h64l-401 -650h-64zM492 -6q-57 0 -88 27t-31 71
q0 49 47 75q-41 25 -41 72q0 35 29 61.5t84 26.5t83.5 -26.5t28.5 -61.5q0 -48 -41 -72q46 -25 46 -75q0 -44 -30 -71t-87 -27zM492 189q26 0 39.5 13t13.5 32q0 18 -13.5 32t-39.5 14t-40 -14t-14 -32q0 -19 13.5 -32t40.5 -13zM492 47q27 0 41.5 13.5t14.5 34.5t-14.5 35
t-41.5 14t-42 -14t-15 -35q0 -20 15 -34t42 -14z" />
    <glyph glyph-name="fiveeighths" unicode="&#x215d;" horiz-adv-x="624" 
d="M129 322q-74 0 -116 48l43 46q28 -31 68 -31q28 1 47 13t19 37q0 24 -20 37.5t-48 13.5q-37 0 -60 -13l-22 30l27 152h175v-59h-123l-11 -58q6 1 16 1q66 0 98.5 -30t32.5 -77q0 -52 -35 -81t-91 -29zM86 0l401 650h64l-401 -650h-64zM495 -6q-57 0 -88 27t-31 71
q0 49 47 75q-41 25 -41 72q0 35 29 61.5t84 26.5t83.5 -26.5t28.5 -61.5q0 -48 -41 -72q46 -25 46 -75q0 -44 -30 -71t-87 -27zM495 189q26 0 39.5 13t13.5 32q0 18 -13.5 32t-39.5 14q-27 0 -40.5 -14t-13.5 -32q0 -19 13.5 -32t40.5 -13zM495 47q27 0 41.5 13.5t14.5 34.5
t-14.5 35t-41.5 14t-42 -14t-15 -35q0 -20 15 -34t42 -14z" />
    <glyph glyph-name="seveneighths" unicode="&#x215e;" horiz-adv-x="555" 
d="M12 0l401 650h64l-401 -650h-64zM55 323l123 268h-136v59h212v-43l-131 -284h-68zM425 -6q-57 0 -88 27t-31 71q0 49 47 75q-41 25 -41 72q0 35 29 61.5t84 26.5t83.5 -26.5t28.5 -61.5q0 -48 -41 -72q46 -25 46 -75q0 -44 -30 -71t-87 -27zM425 189q26 0 39.5 13
t13.5 32q0 18 -13.5 32t-39.5 14q-27 0 -40.5 -14t-13.5 -32q0 -19 13.5 -32t40.5 -13zM425 47q27 0 41.5 13.5t14.5 34.5t-14.5 35t-41.5 14t-42 -14t-15 -35q0 -20 15 -34t42 -14z" />
    <glyph glyph-name="arrowleft" unicode="&#x2190;" horiz-adv-x="753" 
d="M321 46l-276 276l276 275l75 -75l-142 -142h434v-117h-433l141 -142z" />
    <glyph glyph-name="arrowup" unicode="&#x2191;" horiz-adv-x="662" 
d="M262 3v433l-142 -141l-75 75l276 276l276 -276l-76 -75l-141 141v-433h-118z" />
    <glyph glyph-name="arrowright" unicode="&#x2192;" horiz-adv-x="753" 
d="M412 46l-75 75l141 142h-433v117h434l-142 142l75 75l276 -275z" />
    <glyph glyph-name="arrowdown" unicode="&#x2193;" horiz-adv-x="662" 
d="M321 3l-276 276l75 75l142 -141v433h118v-433l141 141l76 -76z" />
    <glyph glyph-name="arrowboth" unicode="&#x2194;" horiz-adv-x="979" 
d="M318 46l-275 276l275 275l76 -75l-142 -142h460l-142 142l75 75l276 -275l-276 -276l-75 75l141 142h-458l141 -142z" />
    <glyph glyph-name="arrowupdn" unicode="&#x2195;" horiz-adv-x="628" 
d="M303 -65l-256 256l75 76l122 -121v354l-123 -122l-76 75l257 258l261 -258l-75 -75l-127 124v-357l127 126l75 -75z" />
    <glyph glyph-name="uni2196" unicode="&#x2196;" horiz-adv-x="608" 
d="M460 152l-308 308v-200h-107v390h390v-107h-200l308 -308z" />
    <glyph glyph-name="uni2197" unicode="&#x2197;" horiz-adv-x="608" 
d="M129 152l-84 83l308 308h-200v107h390v-390h-106v200z" />
    <glyph glyph-name="uni2198" unicode="&#x2198;" horiz-adv-x="608" 
d="M153 0v107h200l-308 308l84 84l308 -308v199h106v-390h-390z" />
    <glyph glyph-name="uni2199" unicode="&#x2199;" horiz-adv-x="608" 
d="M45 0v390h107v-199l308 308l83 -84l-308 -308h200v-107h-390z" />
    <glyph glyph-name="partialdiff" unicode="&#x2202;" horiz-adv-x="566" 
d="M273 -16q-99 0 -163.5 65t-64.5 166t64.5 165t163.5 64h10q-86 132 -180 206h137q83 -65 161 -175t93 -196q7 -35 7 -64q0 -101 -65 -166t-163 -65zM273 103q48 0 79 31t31 81q0 48 -30.5 79.5t-79.5 31.5q-48 0 -79 -30.5t-31 -80.5t31 -81t79 -31z" />
    <glyph glyph-name="emptyset" unicode="&#x2205;" horiz-adv-x="570" 
d="M87 65l42 68q-84 67 -84 188q0 104 64 170.5t167 66.5q54 0 102 -21l25 40h61l-42 -68q83 -67 83 -188q0 -104 -63.5 -170.5t-165.5 -66.5q-56 0 -103 22l-25 -41h-61zM181 217l146 237q-23 9 -51 9q-60 0 -97.5 -40t-37.5 -102q0 -64 40 -104zM276 180q60 0 96.5 39.5
t36.5 101.5q0 65 -39 104l-145 -236q23 -9 51 -9z" />
    <glyph glyph-name="product" unicode="&#x220f;" horiz-adv-x="662" 
d="M145 0v532h-100v118h552v-118h-97v-532h-118v532h-119v-532h-118z" />
    <glyph glyph-name="summation" unicode="&#x2211;" horiz-adv-x="566" 
d="M45 -8v102l196 228l-196 232v104h456v-118h-284l184 -218l-178 -212h278v-118h-456z" />
    <glyph glyph-name="minus" unicode="&#x2212;" horiz-adv-x="515" 
d="M45 272v96h405v-96h-405z" />
    <glyph glyph-name="radical" unicode="&#x221a;" horiz-adv-x="759" 
d="M178 -48l-133 360h118l75 -201l212 581h244v-95h-160l-235 -645h-121z" />
    <glyph glyph-name="infinity" unicode="&#x221e;" horiz-adv-x="828" 
d="M201 172q-65 0 -110.5 45t-45.5 106t45.5 105.5t110.5 44.5q56 0 98 -18.5t108 -75.5q108 94 200 94q68 0 112 -44t44 -106t-44 -106.5t-112 -44.5q-55 0 -93.5 19t-106.5 80q-66 -61 -106.5 -80t-99.5 -19zM201 257q68 0 135 67q-47 41 -76.5 53t-58.5 12
q-26 0 -50.5 -17t-24.5 -49q0 -33 24 -49.5t51 -16.5zM607 257q28 0 52 16.5t24 49.5t-24 49.5t-52 16.5q-60 0 -127 -64q69 -68 127 -68z" />
    <glyph glyph-name="integral" unicode="&#x222b;" horiz-adv-x="552" 
d="M45 -48v95h53q75 0 85 84l43 395q9 84 58 125t110 41h93v-95h-54q-77 0 -85 -84l-43 -404q-8 -78 -55.5 -117.5t-112.5 -39.5h-92z" />
    <glyph glyph-name="approxequal" unicode="&#x2248;" horiz-adv-x="585" 
d="M368 331q-59 0 -111 48q-4 3 -11.5 10.5t-10.5 10t-9 7t-10 6t-9.5 3t-12.5 1.5q-27 0 -40 -21t-13 -49h-96q0 75 37.5 122t108.5 47q26 0 49.5 -10t32.5 -17t28 -25q40 -37 67 -37q57 0 57 73h95q0 -75 -38.5 -122t-113.5 -47zM368 128q-59 0 -111 48q-3 3 -10 9.5
t-9.5 8.5t-7.5 6.5t-8 6t-8 3.5t-9.5 2.5t-10.5 0.5q-27 0 -40 -21t-13 -48h-96q0 74 37.5 121.5t108.5 47.5q26 0 49.5 -10t32.5 -17t28 -25q40 -37 67 -37q57 0 57 72h95q0 -74 -38.5 -121t-113.5 -47z" />
    <glyph glyph-name="notequal" unicode="&#x2260;" horiz-adv-x="515" 
d="M106 81l36 89h-97v96h135l44 110h-179v95h217l36 90h91l-36 -90h97v-95h-135l-44 -110h179v-96h-217l-36 -89h-91z" />
    <glyph glyph-name="lessequal" unicode="&#x2264;" horiz-adv-x="443" 
d="M378 234l-330 98v94l330 98v-88l-198 -57l198 -57v-88zM45 119v81h333v-81h-333z" />
    <glyph glyph-name="greaterequal" unicode="&#x2265;" horiz-adv-x="443" 
d="M45 234v88l198 57l-198 57v88l330 -98v-94zM45 119v81h333v-81h-333z" />
    <glyph glyph-name="lozenge" unicode="&#x25ca;" horiz-adv-x="644" 
d="M248 0l-203 322l207 328h120l207 -328l-203 -322h-128zM312 86l149 236l-149 236l-149 -236z" />
    <glyph glyph-name="A.ss01" horiz-adv-x="665" 
d="M15 0l264 650h98l263 -650h-137l-176 441l-175 -441h-137z" />
    <glyph glyph-name="I.ss01" horiz-adv-x="422" 
d="M25 0v118h111v414h-111v118h352v-118h-111v-414h111v-118h-352z" />
    <glyph glyph-name="J.ss01" horiz-adv-x="596" 
d="M274 -8q-100 0 -165 51t-84 124l126 48q11 -49 44 -73t79 -24q55 0 91.5 34t36.5 104v275h-244v119h373v-414q0 -112 -72 -178t-185 -66z" />
    <glyph glyph-name="R.ss01" horiz-adv-x="610" 
d="M565 -2q-101 0 -165 35.5t-120 132.5l-32 56h-74v-222h-129v650h315q80 0 137.5 -57t57.5 -157q0 -85 -42.5 -139.5t-107.5 -69.5l13 -23q51 -88 147 -88v-118zM174 348h162q37 0 63 24.5t26 63.5q0 40 -26 64.5t-63 24.5h-162v-177z" />
    <glyph glyph-name="i.loclTRK" horiz-adv-x="241" 
d="M173 460v-460h-125v460h125zM71 610q17 15 40 15q22 0 39.5 -15t17.5 -40q0 -26 -17 -42q-18 -16 -40 -16t-40 16t-18 42q0 25 18 40z" />
    <glyph glyph-name="a.ss01" horiz-adv-x="527" 
d="M40 185q11 25 35 40.5t50 25t65.5 14t70.5 6t76 1.5v7q0 46 -28 68.5t-67 22.5q-75 0 -100 -53l-98 42q19 46 69 78t130 32q107 0 163 -47.5t56 -138.5v-283h-125v40q-46 -48 -126 -48q-98 0 -140.5 38.5t-42.5 96.5q0 33 12 58zM149 136q0 -55 78 -55q53 0 81.5 25
t28.5 67v31q-107 -2 -147.5 -16t-40.5 -52z" />
    <glyph glyph-name="n.ss01" horiz-adv-x="544" 
d="M292 460q81 0 134 -45t53 -130v-285h-125v255q0 57 -24.5 81.5t-82.5 24.5h-77v-361h-125v460h247z" />
    <glyph glyph-name="r.ss01" horiz-adv-x="329" 
d="M45 245q0 222 249 222v-119q-124 0 -124 -130v-218h-125v245z" />
    <glyph glyph-name="u.ss01" horiz-adv-x="544" 
d="M45 175v285h125v-255q0 -57 24.5 -81t82.5 -24h77v360h125v-460h-247q-81 0 -134 45t-53 130z" />
    </font>
</defs>
</svg>
