<?xml version="1.0" standalone="no"?>
<!DOCTYPE svg PUBLIC "-//W3C//DTD SVG 1.1//EN" "http://www.w3.org/Graphics/SVG/1.1/DTD/svg11.dtd" >
<svg xmlns="http://www.w3.org/2000/svg" xmlns:xlink="http://www.w3.org/1999/xlink" version="1.1">
<metadata>
Created by FontForge 20170731 at Tue Jul 14 08:14:53 2020
 By Aleksey,,,
Copyright (c) 2020 by Bagas Ardiatma. All rights reserved.
</metadata>
<defs>
<font id="Causten-BlackOblique" horiz-adv-x="560" >
  <font-face 
    font-family="Causten-BlackOblique"
    font-weight="400"
    font-style="oblique"
    font-stretch="normal"
    units-per-em="1000"
    panose-1="0 0 10 0 0 0 0 0 0 0"
    ascent="772"
    descent="-228"
    x-height="460"
    cap-height="650"
    bbox="-355 -200 1382 891"
    underline-thickness="50"
    underline-position="-150"
    unicode-range="U+0020-25CA"
  />
<missing-glyph horiz-adv-x="475" 
d="M88 -200v950h302v-950h-302zM316 -5v107h-157v-107h157zM159 -27v-31h66l-66 -45v-31h157v31h-97l67 45h30v31h-157zM316 159v107h-95v-53h33v22h31v-45h-95v76h-31v-107h157zM159 564v-99h157v32h-62v67h-95zM316 589v31h-62v35h62v31h-156v-31h61v-35h-62v-31h157z
M159 373v-31h95v66h62v31h-157v-31h62v-35h-62zM159 320v-33h157v95h-31v-62h-126zM190 71h95v-45h-95v45zM190 532h31v-35h-31v35z" />
    <glyph glyph-name="f_f" unicode="ff" horiz-adv-x="680" 
d="M67 0l42 340h-57l14 120h57l4 26q20 164 180 164h91l-15 -123h-39q-52 0 -59 -51l-2 -16h166l4 26q20 164 170 164h112l-15 -123h-50q-52 0 -59 -51l-2 -16h91l-14 -120h-91l-42 -340h-160l42 340h-166l-42 -340h-160z" />
    <glyph glyph-name="t_t.liga" unicode="tt" horiz-adv-x="673" 
d="M217 0q-149 0 -132 148l24 192h-57l14 120h57l18 142h160l-18 -142h166l18 142h160l-18 -142h90l-14 -120h-90l-21 -165q-2 -19 1 -30.5t12 -16t15 -5t20 -0.5h6h25l-15 -123h-95q-149 0 -132 148l24 192h-166l-21 -165q-6 -48 30 -52h24h25l-15 -123h-95z" />
    <glyph glyph-name=".notdef" horiz-adv-x="475" 
d="M88 -200v950h302v-950h-302zM316 -5v107h-157v-107h157zM159 -27v-31h66l-66 -45v-31h157v31h-97l67 45h30v31h-157zM316 159v107h-95v-53h33v22h31v-45h-95v76h-31v-107h157zM159 564v-99h157v32h-62v67h-95zM316 589v31h-62v35h62v31h-156v-31h61v-35h-62v-31h157z
M159 373v-31h95v66h62v31h-157v-31h62v-35h-62zM159 320v-33h157v95h-31v-62h-126zM190 71h95v-45h-95v45zM190 532h31v-35h-31v35z" />
    <glyph glyph-name=".null" horiz-adv-x="0" 
 />
    <glyph glyph-name="uni000D" horiz-adv-x="333" 
 />
    <glyph glyph-name="space" unicode=" " horiz-adv-x="200" 
 />
    <glyph glyph-name="exclam" unicode="!" horiz-adv-x="245" 
d="M100 650h165l-66 -445h-144zM29 75q5 35 31 58.5t62 23.5q35 0 54 -21.5t19 -49.5q0 -5 -1 -11q-4 -36 -30.5 -59.5t-61.5 -23.5q-36 0 -55 21.5t-19 50.5q0 5 1 11z" />
    <glyph glyph-name="quotedbl" unicode="&#x22;" horiz-adv-x="415" 
d="M325 650h150l-48 -210h-113zM89 440l11 210h150l-48 -210h-113z" />
    <glyph glyph-name="numbersign" unicode="#" horiz-adv-x="732" 
d="M34 116l17 140h110l41 120h-98l17 140h128l45 131h150l-45 -131h131l45 131h150l-45 -131h75l-17 -140h-105l-41 -120h93l-17 -140h-124l-40 -119h-150l40 119h-131l-40 -119h-150l40 119h-79zM442 256l41 120h-131l-41 -120h131z" />
    <glyph glyph-name="dollar" unicode="$" horiz-adv-x="621" 
d="M207 248q7 -19 46.5 -48t76.5 -29q28 0 42 6t16 23v3q0 6 -4.5 12.5t-15 11.5t-21 9t-25.5 9t-23 8q-2 1 -18.5 7t-26.5 10.5t-29 14t-31.5 19t-27.5 24.5t-23.5 31t-12 33t-3.5 31q0 9 1 19q9 72 55.5 115.5t116.5 59.5l9 75h154l-9 -75q60 -14 106.5 -47t61.5 -71
l-139 -86q-13 21 -50 44t-70 23q-40 0 -43 -27v-4q0 -5 2 -10t7.5 -10.5t11 -9.5t15.5 -8.5t16.5 -7t18 -7t16.5 -6.5q2 -1 19 -7.5t27 -10.5t29 -13.5t31 -18.5t27 -23.5t23 -29.5t11.5 -31.5t3.5 -29.5q0 -9 -1 -18q-10 -76 -62 -123.5t-134 -61.5l-9 -73h-154l9 76
q-66 14 -111 49t-56 85z" />
    <glyph glyph-name="percent" unicode="%" horiz-adv-x="889" 
d="M100 489q9 74 61.5 121.5t124.5 47.5q71 0 108 -43t37 -100q0 -13 -2 -26q-9 -72 -61 -119.5t-123 -47.5q-72 0 -109.5 43t-37.5 99q0 12 2 25zM519 158q10 74 62 121.5t124 47.5t108.5 -43t36.5 -98q0 -13 -2 -28q-8 -71 -60.5 -119t-123.5 -48q-72 0 -109 43.5
t-37 100.5q0 11 1 23zM630 650h120l-431 -650h-120zM214 443q14 -19 43 -19t48 19t22 46q1 6 1 12q0 21 -13 38t-42 17t-48 -19t-23 -48v-9q0 -21 12 -37zM633 112q14 -19 43 -19t48 19t22 46q1 6 1 12q0 21 -12.5 38t-41.5 17t-48.5 -19t-23.5 -48v-9q0 -21 12 -37z" />
    <glyph glyph-name="ampersand" unicode="&#x26;" horiz-adv-x="668" 
d="M61 171q6 52 39.5 95t106.5 89q-21 29 -32 47.5t-18 43.5t-7 47q0 8 1 16q8 61 62 105t139 44q84 0 124 -42.5t40 -91.5q0 -9 -1 -17q-14 -110 -140 -185l77 -110q33 48 40 104l1 6h120l-1 -7q-13 -108 -94 -197l89 -125h-150l-32 47q-79 -48 -157 -48
q-109 0 -158.5 46.5t-49.5 110.5q0 11 1 22zM226 131q18 -19 59 -19q35 0 75 21l-87 127q-13 -10 -23.5 -20.5t-17 -18.5t-11 -15t-6.5 -13.5t-2.5 -10t-0.5 -7.5l-1 -4v-6q0 -18 15 -34zM276 479q2 -6 2 -8q0 -1 -0.5 -1t-0.5 -1q0 -2 4 -8.5t4.5 -8.5t5.5 -9t6.5 -9
t6.5 -9l7 -11q73 43 78 84q1 5 1 10q0 19 -13.5 32t-37.5 13t-42.5 -15t-21.5 -40v-5q0 -3 -0.5 -4t-0.5 -3t2 -7z" />
    <glyph glyph-name="quotesingle" unicode="'" horiz-adv-x="190" 
d="M89 440l11 210h150l-48 -210h-113z" />
    <glyph glyph-name="parenleft" unicode="(" horiz-adv-x="309" 
d="M59 321q29 234 134 371h160q-71 -83 -109 -218.5t-38 -263.5q0 -16 3 -96t54 -162h-161q-51 96 -51 243q0 59 8 126z" />
    <glyph glyph-name="parenright" unicode=")" horiz-adv-x="319" 
d="M24 -48q71 82 109.5 219t38.5 266q0 14 -2.5 93t-53.5 162h160q51 -98 51 -245q0 -59 -18.5 -209.5t-123.5 -285.5h-161z" />
    <glyph glyph-name="asterisk" unicode="*" horiz-adv-x="381" 
d="M188 327l11 92l-92 -49l-33 68l99 52l-83 57l53 68l74 -51l11 86h85l-11 -92l92 49l33 -68l-97 -52l82 -56l-52 -68l-76 52l-11 -88h-85z" />
    <glyph glyph-name="plus" unicode="+" horiz-adv-x="520" 
d="M71 256l16 130h145l18 145h130l-18 -145h145l-16 -130h-145l-17 -145h-130l17 145h-145z" />
    <glyph glyph-name="comma" unicode="," horiz-adv-x="234" 
d="M6 -114l70 210h150l-107 -210h-113z" />
    <glyph glyph-name="hyphen" unicode="-" horiz-adv-x="404" 
d="M63 190l19 150h304l-19 -150h-304z" />
    <glyph glyph-name="period" unicode="." horiz-adv-x="204" 
d="M29 74q4 36 30 58.5t62 22.5t54.5 -20.5t18.5 -48.5q0 -6 -1 -12q-5 -36 -30 -59q-26 -23 -62 -23t-54.5 21t-18.5 49q0 6 1 12z" />
    <glyph glyph-name="slash" unicode="/" horiz-adv-x="407" 
d="M14 -47l303 739h155l-303 -739h-155z" />
    <glyph glyph-name="zero" unicode="0" horiz-adv-x="645" 
d="M70 325q18 146 108.5 239.5t217.5 93.5t190 -84.5t63 -191.5q0 -27 -11 -114.5t-104 -181.5t-220 -94t-187.5 83.5t-60.5 190.5q0 28 4 59zM256 197q30 -45 78 -45t89.5 44.5t47.5 97t6 70.5q0 55 -26.5 92t-74.5 37q-49 0 -90 -42t-47 -94t-6 -71q0 -56 23 -89z" />
    <glyph glyph-name="one" unicode="1" horiz-adv-x="371" 
d="M146 0l61 500h-136l19 150h301l-80 -650h-165z" />
    <glyph glyph-name="two" unicode="2" horiz-adv-x="522" 
d="M43 134l91 71q53 41 80.5 63.5t71 60.5t65 67t24.5 51q1 5 1 9q0 47 -57 47q-35 0 -61 -22t-38 -49l-138 70q9 23 29 48.5t51 51t77.5 42t98.5 16.5q109 0 160 -51t51 -123q0 -14 -2 -29q-5 -43 -28 -85.5t-62 -82.5t-64 -62t-64 -54l-29 -23h210l-18 -150h-464z" />
    <glyph glyph-name="three" unicode="3" horiz-adv-x="569" 
d="M146 206q16 -20 51 -37t79 -17q46 0 76.5 19t33 38.5t2.5 23.5q0 28 -24 47.5t-70 19.5q-50 0 -117 -18l16 116l144 102h-211l19 150h441l-17 -139l-129 -101q114 -42 114 -155q0 -15 -2 -31q-8 -62 -37 -108.5t-71.5 -72.5t-89.5 -38.5t-98 -12.5q-75 0 -137.5 29
t-86.5 73z" />
    <glyph glyph-name="four" unicode="4" horiz-adv-x="607" 
d="M33 103l12 103l371 444h164l-53 -429h77l-14 -118h-77l-13 -103h-164l13 103h-316zM207 221h156l27 221z" />
    <glyph glyph-name="five" unicode="5" horiz-adv-x="562" 
d="M151 205q46 -53 114 -53q105 0 114 68q1 5 1 10q0 29 -29.5 44.5t-74.5 15.5q-61 0 -112 -21l-43 80l96 301h353l-19 -150h-224l-26 -77q137 -1 190.5 -56t53.5 -128q0 -14 -2 -29q-13 -105 -93 -161.5t-193 -56.5q-143 0 -226 95z" />
    <glyph glyph-name="six" unicode="6" horiz-adv-x="556" 
d="M59 234q8 68 63 144l204 272h177l-133 -177q86 -14 129 -74.5t43 -131.5q0 -16 -2 -33q-12 -100 -89 -171q-78 -71 -181 -71t-158 65t-55 144q0 16 2 33zM230 172q21 -25 59 -25q37 0 64 24.5t30 47t3 29.5q0 29 -19 52t-56 23q-38 0 -65 -25.5t-30 -48t-3 -29.5
q0 -29 17 -48z" />
    <glyph glyph-name="seven" unicode="7" horiz-adv-x="489" 
d="M37 0l291 500h-247l19 150h439l-13 -108l-317 -542h-172z" />
    <glyph glyph-name="eight" unicode="8" horiz-adv-x="565" 
d="M54 193q5 42 32 81t73 65q-60 46 -60 116q0 11 2 23q9 71 75.5 127t180.5 56q59 0 103 -16.5t67.5 -44t32 -54t8.5 -49.5q0 -10 -1 -19q-11 -85 -91 -139q69 -47 69 -125q0 -10 -1 -21q-11 -90 -81 -147t-188 -57q-119 0 -171 52.5t-52 123.5q0 13 2 28zM230 147
q21 -24 61 -24t66 23t30 56q1 6 1 11q0 27 -18.5 47.5t-58.5 20.5q-41 0 -67.5 -22.5t-30.5 -56.5q-1 -5 -1 -10q0 -25 18 -45zM266 415q18 -22 58 -22q39 0 63 22t27 52q1 5 1 10q0 24 -17 44t-56 20q-40 0 -64 -22t-28 -52v-8q0 -25 16 -44z" />
    <glyph glyph-name="nine" unicode="9" horiz-adv-x="556" 
d="M81 416q12 100 89.5 171t180.5 71t158 -65t55 -144q0 -16 -2 -33q-9 -72 -64 -144l-203 -272h-177l131 178q-85 14 -127.5 74.5t-42.5 130.5q0 16 2 33zM252 353q21 -26 58 -26q38 0 65 25.5t30 48t3 29.5q0 29 -19 51t-57 22q-37 0 -64 -24.5t-30 -47t-3 -29.5
q0 -29 17 -49z" />
    <glyph glyph-name="colon" unicode=":" horiz-adv-x="224" 
d="M67 379q4 36 29.5 58.5t61.5 22.5t55 -20.5t19 -49.5q0 -5 -2.5 -26t-28.5 -44q-27 -23 -63 -23t-54 20.5t-18 47.5q0 7 1 14zM29 74q4 36 30 58.5t62 22.5t54.5 -20.5t18.5 -48.5q0 -6 -1 -12q-5 -36 -30 -59q-26 -23 -62 -23t-54.5 21t-18.5 49q0 6 1 12z" />
    <glyph glyph-name="semicolon" unicode=";" horiz-adv-x="254" 
d="M76 96h150l-107 -210h-113zM95 378q5 34 31.5 58t60.5 24t53.5 -22t19.5 -49q0 -6 -2.5 -25.5t-29.5 -43.5t-61 -24t-53.5 22t-19.5 49q0 6 1 11z" />
    <glyph glyph-name="less" unicode="&#x3c;" horiz-adv-x="430" 
d="M387 138l-315 122l15 123l345 122l-15 -120l-179 -63l164 -64z" />
    <glyph glyph-name="equal" unicode="=" horiz-adv-x="521" 
d="M85 370l15 120h421l-15 -120h-421zM59 154l15 121h421l-15 -121h-421z" />
    <glyph glyph-name="greater" unicode="&#x3e;" horiz-adv-x="430" 
d="M57 138l15 120l180 64l-165 63l15 120l315 -122l-15 -123z" />
    <glyph glyph-name="question" unicode="?" horiz-adv-x="513" 
d="M170 618q63 43 151 43q100 0 151.5 -42.5t51.5 -110.5q0 -13 -2 -27q-4 -35 -19.5 -66t-27.5 -44.5t-34 -34.5q-68 -67 -80 -87q-10 -15 -12 -30l-2 -14h-165l2 14q9 79 84 146q5 4 19 17t19 18t15 15.5t14.5 17t8.5 16t5 18.5q1 4 1 7q0 13 -9.5 25t-37.5 12
q-29 0 -57 -20.5t-42 -47.5l-131 69q34 63 97 106zM168 74q5 36 30.5 59.5t61.5 23.5t55 -21.5t19 -50.5q0 -5 -1 -11q-5 -35 -31 -58q-26 -24 -62 -24t-54.5 21t-18.5 48q0 6 1 13z" />
    <glyph glyph-name="at" unicode="@" horiz-adv-x="796" 
d="M80 322q19 155 132 256.5t260 101.5q145 0 227 -91t82 -206q0 -22 -3 -45q-12 -89 -55 -152t-124 -63q-46 0 -79.5 21t-45.5 60q-35 -47 -96 -47q-30 0 -57.5 16t-44 49.5t-16.5 69.5q0 13 2 27q10 78 58.5 119.5t97.5 41.5t73 -30l3 25h100l-23 -189q-2 -14 -2 -26
q0 -55 40 -55q52 0 69 133q2 21 2 41q0 92 -60.5 146.5t-159.5 54.5q-95 0 -180 -68.5t-100 -189.5q-3 -20 -3 -39q0 -39 14 -81.5t47 -73.5t74 -47.5t85 -16.5q69 0 120 25l39 -92q-70 -33 -171 -33q-149 0 -228.5 94.5t-79.5 211.5q0 25 3 52zM373 275q13 -18 39 -18
t43 17.5t19 33.5t2 21q0 20 -11.5 35.5t-37.5 15.5t-44 -17t-20 -33t-2 -20q0 -21 12 -35z" />
    <glyph glyph-name="A" unicode="A" horiz-adv-x="677" 
d="M10 0l341 650h125l181 -650h-175l-19 72h-241l-37 -72h-175zM423 222l-43 164l-83 -164h126z" />
    <glyph glyph-name="B" unicode="B" horiz-adv-x="604" 
d="M120 650h306q80 0 126 -46t46 -113q0 -15 -2 -31q-10 -82 -67 -124q60 -41 60 -118q0 -12 -1 -25q-11 -88 -79 -140.5t-148 -52.5h-321zM223 150h129q28 0 46.5 16.5t21.5 41.5v6q0 21 -13.5 36.5t-39.5 15.5h-129zM366 401q24 0 40 13t18 27t2 19q0 17 -12 28.5
t-36 11.5h-112l-12 -99h112z" />
    <glyph glyph-name="C" unicode="C" horiz-adv-x="657" 
d="M70 325q18 145 122 239t248 94q85 0 148.5 -34.5t98.5 -96.5l-144 -99q-43 65 -123 65q-73 0 -124.5 -47t-57 -91t-5.5 -57q0 -56 36 -98.5t109 -42.5q76 0 140 69l119 -103q-107 -131 -279 -131q-144 0 -217.5 85.5t-73.5 196.5q0 25 3 51z" />
    <glyph glyph-name="D" unicode="D" horiz-adv-x="658" 
d="M120 650h254q142 0 212 -81.5t70 -190.5q0 -26 -10.5 -112t-110 -176t-241.5 -90h-254zM225 160h89q12 0 26.5 2t40 11.5t46 25.5t38.5 49t21.5 62.5t3.5 42.5q0 27 -8.5 54t-25 43.5t-39.5 26t-37 11.5t-26 2h-89z" />
    <glyph glyph-name="E" unicode="E" horiz-adv-x="548" 
d="M40 0l80 650h453l-19 -150h-288l-12 -100h267l-18 -150h-267l-13 -100h288l-18 -150h-453z" />
    <glyph glyph-name="F" unicode="F" horiz-adv-x="552" 
d="M40 0l80 650h457l-19 -155h-292l-15 -117h273l-19 -155h-273l-27 -223h-165z" />
    <glyph glyph-name="G" unicode="G" horiz-adv-x="721" 
d="M70 325q18 145 122 239t248 94q85 0 148.5 -34.5t98.5 -95.5l-145 -99q-39 64 -122 64q-73 0 -124.5 -47t-57 -91t-5.5 -57q0 -56 36 -98.5t109 -42.5q39 0 76.5 19.5t54.5 57.5h-131l18 150h322l-9 -74q-23 -141 -117.5 -229.5t-233.5 -88.5q-144 0 -217.5 85.5
t-73.5 196.5q0 25 3 51z" />
    <glyph glyph-name="H" unicode="H" horiz-adv-x="657" 
d="M120 650h165l-30 -245h227l30 245h165l-80 -650h-165l30 245h-227l-30 -245h-165z" />
    <glyph glyph-name="I" unicode="I" horiz-adv-x="265" 
d="M40 0l80 650h165l-80 -650h-165z" />
    <glyph glyph-name="J" unicode="J" horiz-adv-x="536" 
d="M209 226q0 -74 56 -74q31 0 50 20t24 55l52 423h165l-55 -447q-13 -99 -83 -155t-173 -56q-98 0 -150 48.5t-54 128.5z" />
    <glyph glyph-name="K" unicode="K" horiz-adv-x="590" 
d="M120 650h165l-30 -244l196 244h186l-255 -325l188 -325h-190l-145 247l-30 -247h-165z" />
    <glyph glyph-name="L" unicode="L" horiz-adv-x="531" 
d="M40 0l80 650h165l-62 -500h286l-18 -150h-451z" />
    <glyph glyph-name="M" unicode="M" horiz-adv-x="770" 
d="M120 650h165l128 -339l212 339h165l-80 -650h-165l38 310l-142 -239h-114l-84 239l-38 -310h-165z" />
    <glyph glyph-name="N" unicode="N" horiz-adv-x="647" 
d="M120 650h160l178 -355l44 355h165l-80 -650h-160l-179 354l-43 -354h-165z" />
    <glyph glyph-name="O" unicode="O" horiz-adv-x="731" 
d="M70 325q18 145 122 239t248 94t216.5 -85.5t72.5 -195.5q0 -25 -10.5 -111t-113.5 -180t-247 -94t-217.5 85.5t-73.5 196.5q0 25 3 51zM266 204q39 -47 112 -47t123.5 47t56 91t5.5 57q0 56 -35 98.5t-108 42.5t-124.5 -47t-57 -91t-5.5 -56q0 -57 33 -95z" />
    <glyph glyph-name="P" unicode="P" horiz-adv-x="595" 
d="M120 650h309q80 0 130 -53t50 -132q0 -19 -7.5 -82.5t-77.5 -122.5t-150 -59h-144l-25 -201h-165zM363 361q29 0 52.5 17t26.5 48q1 6 1 11q0 23 -17 38t-45 15h-116l-16 -129h114z" />
    <glyph glyph-name="Q" unicode="Q" horiz-adv-x="731" 
d="M70 325q18 144 123.5 238.5t246.5 94.5q145 0 217 -85t72 -196q0 -25 -3 -52q-10 -84 -51 -153t-105 -114l87 -140h-197l-48 78q-24 -4 -54 -4q-144 0 -217.5 85.5t-73.5 196.5q0 25 3 51zM266 204q39 -47 112 -47t123.5 47t56 91t5.5 57q0 56 -35 98.5t-108 42.5
t-124.5 -47t-57 -91t-5.5 -56q0 -57 33 -95z" />
    <glyph glyph-name="R" unicode="R" horiz-adv-x="620" 
d="M120 650h319q80 0 130 -53t50 -132q0 -19 -2 -39q-9 -75 -47.5 -126.5t-93.5 -77.5l104 -222h-190l-93 201h-67l-25 -201h-165zM375 361q28 0 50.5 16.5t26.5 48.5q1 6 1 11q0 23 -17 38t-45 15h-126l-16 -129h126z" />
    <glyph glyph-name="S" unicode="S" horiz-adv-x="615" 
d="M182 247q16 -27 63 -60.5t102 -33.5q62 0 66 38v3q0 13 -17.5 24t-56.5 23.5t-46 15.5q-3 1 -28.5 10.5t-43.5 16.5t-44 24t-41.5 36t-24 44.5t-8.5 49.5q0 10 1 20q9 71 54.5 118.5t104 66.5t127.5 19q91 0 160.5 -45.5t83.5 -100.5l-139 -87q-15 22 -55.5 45t-90.5 23
q-49 0 -54 -30v-2q0 -9 7 -18t21.5 -16t28 -12t32.5 -11t28 -10q2 -1 23.5 -9t35 -14.5t37 -18.5t38.5 -26.5t30 -33.5t19.5 -39.5t4.5 -38.5q0 -9 -1 -19q-12 -102 -91.5 -156.5t-199.5 -54.5q-109 0 -179.5 49.5t-89.5 113.5z" />
    <glyph glyph-name="T" unicode="T" horiz-adv-x="592" 
d="M81 500l19 150h532l-19 -150h-183l-61 -500h-165l61 500h-184z" />
    <glyph glyph-name="U" unicode="U" horiz-adv-x="614" 
d="M68 232l52 418h165l-49 -399q-2 -12 -2 -23q0 -36 21.5 -56t60.5 -20q91 0 104 99l49 399h165l-52 -418q-12 -100 -89 -170t-197 -70t-175 64t-55 144q0 15 2 32z" />
    <glyph glyph-name="V" unicode="V" horiz-adv-x="663" 
d="M90 650h175l95 -373l188 373h175l-331 -650h-131z" />
    <glyph glyph-name="W" unicode="W" horiz-adv-x="953" 
d="M90 650h175l73 -351l158 351h121l70 -329l151 329h175l-297 -650h-142l-64 309l-141 -309h-142z" />
    <glyph glyph-name="X" unicode="X" horiz-adv-x="656" 
d="M10 0l253 325l-173 325h190l96 -180l140 180h190l-253 -325l173 -325h-190l-96 180l-140 -180h-190z" />
    <glyph glyph-name="Y" unicode="Y" horiz-adv-x="649" 
d="M274 650l97 -208l149 208h189l-276 -380l-33 -270h-165l33 268l-183 382h189z" />
    <glyph glyph-name="Z" unicode="Z" horiz-adv-x="544" 
d="M30 0l17 137l309 362h-259l19 151h468l-17 -138l-312 -361l262 -1l-18 -150h-469z" />
    <glyph glyph-name="bracketleft" unicode="[" horiz-adv-x="337" 
d="M34 -48l91 740h237l-14 -115h-87l-63 -510h87l-14 -115h-237z" />
    <glyph glyph-name="backslash" unicode="\" horiz-adv-x="407" 
d="M226 -48l-121 739h155l121 -739h-155z" />
    <glyph glyph-name="bracketright" unicode="]" horiz-adv-x="337" 
d="M34 -48l14 115h87l63 510h-87l14 115h237l-91 -740h-237z" />
    <glyph glyph-name="asciicircum" unicode="^" horiz-adv-x="466" 
d="M235 650h132l79 -328h-120l-43 177l-83 -177h-120z" />
    <glyph glyph-name="underscore" unicode="_" horiz-adv-x="452" 
d="M40 0l18 150h352l-18 -150h-352z" />
    <glyph glyph-name="grave" unicode="`" horiz-adv-x="233" 
d="M148 527l-48 123h134l44 -123h-130z" />
    <glyph glyph-name="a" unicode="a" 
d="M48 230q13 104 82 170.5t161 66.5q66 0 102 -36l3 29h160l-56 -460h-160l3 28q-46 -36 -110 -36q-92 0 -140 61.5t-48 137.5q0 19 3 39zM218 167q20 -25 57 -25t62.5 25t28.5 48t3 30q0 28 -17.5 50t-54.5 22t-63 -24.5t-29 -47.5t-3 -30q0 -28 16 -48z" />
    <glyph glyph-name="b" unicode="b" 
d="M120 650h160l-27 -219q45 36 110 36q92 0 140 -60t48 -137q0 -20 -3 -40q-13 -103 -82 -170.5t-161 -67.5q-63 0 -102 36l-3 -28h-160zM243 167q19 -25 56 -25t63 25t29 48t3 30q0 28 -18 50t-55 22t-62.5 -24.5t-28.5 -47.5t-3 -30q0 -28 16 -48z" />
    <glyph glyph-name="c" unicode="c" horiz-adv-x="474" 
d="M48 230q13 105 87 171.5t179 66.5q122 0 176 -93l-125 -89q-24 31 -65 31q-37 0 -64 -24.5t-30 -47t-3 -29.5q0 -29 19 -51.5t56 -22.5q44 0 73 29l103 -86q-76 -94 -198 -94q-105 0 -157.5 61t-52.5 141q0 18 2 37z" />
    <glyph glyph-name="d" unicode="d" 
d="M48 230q13 104 82 170.5t161 66.5q66 0 102 -36l27 219h160l-80 -650h-160l3 28q-46 -36 -110 -36q-92 0 -140 61.5t-48 137.5q0 19 3 39zM218 167q20 -25 57 -25t62.5 25t28.5 48t3 30q0 28 -17.5 50t-54.5 22t-63 -24.5t-29 -47.5t-3 -30q0 -28 16 -48z" />
    <glyph glyph-name="e" unicode="e" horiz-adv-x="513" 
d="M48 230q13 104 85 171.5t176 67.5q103 0 149 -60t46 -138q0 -20 -3 -41l-5 -42h-297q5 -30 24.5 -46.5t47.5 -16.5q55 0 91 36l98 -80q-76 -91 -205 -91q-106 0 -157.5 61.5t-51.5 141.5q0 18 2 37zM213 287h144q-10 57 -64 57q-51 0 -80 -57z" />
    <glyph glyph-name="f" unicode="f" horiz-adv-x="359" 
d="M52 340l14 120h57l4 26q20 164 180 164h102l-15 -123h-50q-52 0 -59 -51l-2 -16h91l-14 -120h-91l-42 -340h-160l42 340h-57z" />
    <glyph glyph-name="g" unicode="g" 
d="M153 -28q33 -38 90 -38q9 0 21 2.5t30 11t32 29.5t18 52q-48 -37 -112 -37q-92 0 -139.5 61t-47.5 138q0 19 8 80.5t76.5 128.5t160.5 67q64 0 103 -37l3 30h160l-52 -429q-12 -103 -85 -167t-193 -64q-62 0 -110.5 23t-76.5 62zM218 167q19 -25 56 -25t63 25t29 48t3 30
q0 28 -18 50t-55 22t-62.5 -24.5t-28.5 -47.5t-3 -30q0 -28 16 -48z" />
    <glyph glyph-name="h" unicode="h" horiz-adv-x="553" 
d="M120 650h160l-28 -223q51 40 121 40q32 0 60 -9t53 -28.5t34.5 -50.5t9.5 -61q0 -18 -3 -38l-34 -280h-160l31 254q1 9 1 17q0 15 -4.5 30t-17 21.5t-20.5 8.5t-17 2q-8 0 -16.5 -2t-22 -8.5t-23.5 -24.5t-13 -44l-31 -254h-160z" />
    <glyph glyph-name="i" unicode="i" horiz-adv-x="270" 
d="M101 460h161l-57 -460h-160zM113 594q5 38 33.5 60t61.5 22q34 0 55 -20t21 -49q0 -6 -3 -28.5t-32 -46.5t-62 -24t-54 22t-21 51q0 6 1 13z" />
    <glyph glyph-name="j" unicode="j" horiz-adv-x="279" 
d="M-43 -184l16 123h37q2 0 8.5 0.5t9 2t7 4t7 6.5t5.5 9t5 13t3 17l57 469h160l-62 -505q-7 -61 -50 -100t-125 -39h-78zM122 594q5 38 33.5 60t61.5 22q34 0 55 -20t21 -49q0 -6 -1 -13q-5 -39 -33 -62q-29 -24 -62 -24t-54.5 22t-21.5 51q0 6 1 13z" />
    <glyph glyph-name="k" unicode="k" horiz-adv-x="538" 
d="M120 650h160l-43 -346l131 156h185l-183 -218l148 -242h-185l-111 181l-22 -181h-160z" />
    <glyph glyph-name="l" unicode="l" horiz-adv-x="261" 
d="M40 0l80 650h161l-81 -650h-160z" />
    <glyph glyph-name="m" unicode="m" horiz-adv-x="826" 
d="M96 460h160l-4 -39q53 46 117 46q90 0 130 -62q59 62 153 62q32 0 59 -9t50.5 -28.5t32.5 -50.5t9 -60q0 -18 -3 -39l-34 -280h-160l32 257q1 8 1 15q0 15 -5.5 28.5t-18 19t-19 7t-13.5 1.5t-13.5 -1.5t-19.5 -7t-22.5 -21.5t-12.5 -41l-32 -257h-160l32 257q1 8 1 15
q0 15 -5.5 28.5t-18 19t-19 7t-13.5 1.5t-13.5 -1.5t-19.5 -7t-22.5 -21.5t-12.5 -41l-32 -257h-160z" />
    <glyph glyph-name="n" unicode="n" horiz-adv-x="553" 
d="M96 460h160l-4 -33q51 40 121 40q32 0 60 -9t53 -28.5t34.5 -50.5t9.5 -61q0 -18 -3 -38l-34 -280h-160l31 254q1 9 1 17q0 15 -4.5 30t-17 21.5t-20.5 8.5t-17 2q-8 0 -16.5 -2t-22 -8.5t-23.5 -24.5t-13 -44l-31 -254h-160z" />
    <glyph glyph-name="o" unicode="o" horiz-adv-x="539" 
d="M48 230q13 105 89 172.5t181 67.5t158 -61.5t53 -141.5q0 -18 -2 -37q-13 -103 -88.5 -171.5t-179.5 -68.5q-105 0 -159 62.5t-54 141.5q0 18 2 36zM220 167q20 -25 57 -25t62.5 25t28.5 48t3 30q0 28 -17.5 50t-54.5 22t-63 -24.5t-29 -47.5t-3 -30q0 -28 16 -48z" />
    <glyph glyph-name="p" unicode="p" 
d="M96 460h160l-3 -29q47 36 110 36q92 0 140 -61.5t48 -137.5q0 -19 -3 -39q-13 -104 -82 -170.5t-161 -66.5q-64 0 -102 36l-26 -212h-160zM243 167q19 -25 56 -25t63 24.5t29 47.5t3 30q0 28 -18 50.5t-55 22.5t-62.5 -25t-28.5 -48t-3 -30q0 -28 16 -47z" />
    <glyph glyph-name="q" unicode="q" 
d="M48 229q13 103 82 170.5t161 67.5q64 0 102 -36l3 29h160l-79 -644h-160l26 212q-44 -36 -110 -36q-92 0 -140 60t-48 137q0 20 3 40zM218 167q20 -25 57 -25t62.5 24.5t28.5 47.5t3 30q0 28 -17.5 50.5t-54.5 22.5t-63 -25t-29 -48t-3 -30q0 -28 16 -47z" />
    <glyph glyph-name="r" unicode="r" horiz-adv-x="392" 
d="M96 460h160l-10 -83q68 88 173 90l-18 -150h-6h-9q-146 0 -163 -131l-23 -186h-160z" />
    <glyph glyph-name="s" unicode="s" horiz-adv-x="451" 
d="M139 173q5 -16 37.5 -39t64.5 -23q38 0 41 20v2q0 5 -3.5 10t-11.5 9t-16 7t-20 7t-19 7q-1 0 -17 6t-26 11t-27.5 14.5t-28.5 20t-22.5 25t-15 29.5t-3.5 28q0 8 1 17q9 74 69 110.5t141 36.5q73 0 121 -29.5t65 -71.5l-110 -68q-11 15 -40.5 31.5t-56.5 16.5
q-31 0 -33 -18v-3q0 -5 3.5 -10.5t12 -10t16 -8t20 -8t18.5 -6.5q1 0 13 -4.5t18.5 -7.5t20.5 -9.5t22.5 -13t21 -15.5t20 -19t14 -22t8.5 -23.5t2 -20.5q0 -7 -1 -14q-9 -74 -66 -113t-149 -39q-83 0 -134.5 34t-66.5 80z" />
    <glyph glyph-name="t" unicode="t" horiz-adv-x="357" 
d="M52 340l14 120h57l18 142h160l-18 -142h90l-14 -120h-90l-21 -165q-1 -7 -1 -13q0 -36 31 -39h49l-15 -123h-94q-135 0 -135 119q0 14 2 29l24 192h-57z" />
    <glyph glyph-name="u" unicode="u" horiz-adv-x="553" 
d="M62 179l34 281h160l-31 -255q-1 -9 -1 -16q0 -16 5 -31t17 -21.5t20 -8.5t17 -2q8 0 16.5 2t22 8.5t23.5 24.5t13 44l31 255h160l-56 -460h-160l4 32q-51 -40 -121 -40q-71 0 -113.5 39t-42.5 110q0 18 2 38z" />
    <glyph glyph-name="v" unicode="v" horiz-adv-x="539" 
d="M56 460h165l65 -244l124 244h165l-239 -460h-155z" />
    <glyph glyph-name="w" unicode="w" horiz-adv-x="777" 
d="M60 460h165l41 -234l111 234h120l55 -234l96 234h165l-203 -460h-155l-49 222l-102 -222h-155z" />
    <glyph glyph-name="x" unicode="x" horiz-adv-x="543" 
d="M10 0l188 230l-132 230h184l57 -97l78 97h184l-187 -230l131 -230h-184l-55 97l-80 -97h-184z" />
    <glyph glyph-name="y" unicode="y" horiz-adv-x="539" 
d="M221 460l65 -239l124 239h165l-335 -644h-155l96 184l-125 460h165z" />
    <glyph glyph-name="z" unicode="z" horiz-adv-x="420" 
d="M20 0l14 118l184 212h-157l15 130h360l-14 -118l-184 -212h158l-16 -130h-360z" />
    <glyph glyph-name="braceleft" unicode="{" horiz-adv-x="388" 
d="M86 372h15q15 0 27 12.5t15 37.5l17 140q9 70 40 100t87 30h126l-14 -115h-49q-34 0 -38 -43l-14 -112q-9 -74 -72 -100q48 -23 48 -81q0 -9 -1 -19l-13 -112q-1 -7 -1 -12q0 -31 28 -31h49l-14 -115h-126q-97 0 -97 99q0 15 2 31l17 140q1 8 1 14q0 15 -7.5 25.5
t-23.5 10.5h-15z" />
    <glyph glyph-name="bar" unicode="|" horiz-adv-x="250" 
d="M34 -48l91 740h150l-91 -740h-150z" />
    <glyph glyph-name="braceright" unicode="}" horiz-adv-x="388" 
d="M34 -48l14 115h49q33 0 39 43l13 112q9 72 73 100q-49 22 -49 80q0 10 1 20l14 112v9q0 34 -28 34h-49l14 115h126q56 0 76.5 -26t20.5 -69q0 -16 -2 -35l-17 -140q-1 -6 -1 -12q0 -16 8 -27t23 -11h15l-13 -100h-15q-35 0 -42 -50l-17 -140q-16 -130 -127 -130h-126z
" />
    <glyph glyph-name="asciitilde" unicode="~" horiz-adv-x="578" 
d="M125 370q45 51 121 51q26 0 47.5 -9t29 -15.5t24.5 -23.5q30 -31 51 -31q42 0 50 62h120q-10 -81 -57 -132t-128 -51q-38 0 -60 11t-43 33q-16 18 -24.5 24.5t-21.5 6.5q-37 0 -45 -58h-120q10 81 56 132z" />
    <glyph glyph-name="exclamdown" unicode="&#xa1;" horiz-adv-x="245" 
d="M84 430h144l-43 -430h-165zM91 576q4 34 31 58t62 24q34 0 53.5 -22t19.5 -49q0 -6 -1 -11q-5 -35 -31.5 -59t-60.5 -24q-35 0 -54.5 22.5t-19.5 49.5q0 6 1 11z" />
    <glyph glyph-name="cent" unicode="&#xa2;" horiz-adv-x="638" 
d="M81 330q12 105 75 184.5t164 106.5l10 76h150l-9 -69q107 -19 169 -126l-147 -89q-38 60 -100 60q-24 0 -47 -7t-45.5 -22t-38.5 -44.5t-21 -69.5q-2 -15 -2 -29q0 -55 33 -85t86 -30q67 0 113 54l126 -83q-88 -107 -199 -126l-10 -79h-150l11 86q-95 27 -133 97.5
t-38 146.5q0 23 3 48z" />
    <glyph glyph-name="sterling" unicode="&#xa3;" horiz-adv-x="529" 
d="M55 120q143 0 143 136q0 12 -1 25h-118l9 80h92q-14 52 -14 96q0 97 68.5 153.5t195.5 56.5q53 0 115 -10l-14 -115q-54 7 -75.5 8t-25.5 1q-32 0 -54 -12t-34.5 -27.5t-13.5 -32.5t-1 -25q0 -17 3 -38.5t13 -53.5l142 -1l-9 -80h-118v-8q0 -94 -69 -153h195l-15 -120
h-429z" />
    <glyph glyph-name="currency" unicode="&#xa4;" horiz-adv-x="589" 
d="M60 160l89 80q-8 24 -8 53q0 14 2 30q6 48 28 85l-67 77l90 79l65 -74q42 21 91 21q46 0 82 -19l81 72l74 -75l-86 -78q11 -30 11 -62q0 -13 -2 -26q-6 -48 -29 -86l68 -77l-91 -79l-65 74q-42 -21 -90 -21q-49 0 -88 22l-80 -71zM275 273q16 -19 43 -19t47.5 18.5
t24.5 50.5q1 6 1 12q0 23 -14.5 39.5t-41.5 16.5t-47.5 -18.5t-23 -37t-2.5 -24.5q0 -23 13 -38z" />
    <glyph glyph-name="yen" unicode="&#xa5;" horiz-adv-x="649" 
d="M274 650l97 -208l149 208h189l-246 -339h93l-10 -80h-118l-7 -60h118l-10 -80h-118l-11 -91h-165l11 91h-119l10 80h119l7 60h-119l10 80h93l-162 339h189z" />
    <glyph glyph-name="brokenbar" unicode="&#xa6;" horiz-adv-x="250" 
d="M86 374l39 318h150l-39 -318h-150zM34 -48l39 316h150l-39 -316h-150z" />
    <glyph glyph-name="section" unicode="&#xa7;" horiz-adv-x="463" 
d="M52 96l127 41q2 -27 25 -37.5t43 -10.5q45 0 49 30v2q0 30 -50 50q-140 56 -140 139q0 6 1 12q9 74 67 108q-39 30 -39 82q0 9 1 19q8 63 59.5 103t121.5 40q65 0 102 -29.5t45 -72.5l-114 -50q-8 32 -48 32q-21 0 -33 -7t-13 -16v-5q0 -1 0.5 -4t2 -5t4.5 -5.5t7 -6
t11 -6.5t15 -7q2 -1 27.5 -10t36.5 -14t32.5 -18.5t31 -27.5t15.5 -32.5t6 -36.5q0 -8 -1 -16q-9 -79 -71 -114q44 -32 44 -86q0 -9 -1 -18q-5 -42 -25 -73t-48.5 -47t-57 -23t-57.5 -7q-147 0 -176 127zM238 304q11 -13 32 -13q23 0 37.5 11.5t16.5 34.5v5q0 16 -11 26
t-33 10t-36 -12t-16 -32v-5q0 -15 10 -25z" />
    <glyph glyph-name="dieresis" unicode="&#xa8;" horiz-adv-x="375" 
d="M98 634q4 30 27.5 48.5t50.5 18.5t45 -17t18 -40q0 -5 -1 -10q-4 -32 -28 -51q-24 -20 -51 -20t-44.5 18t-17.5 42q0 5 1 11zM293 634q4 30 27.5 48.5t50.5 18.5t45 -17t18 -40q0 -5 -1 -10q-4 -32 -28 -51q-24 -20 -51 -20t-44.5 18t-17.5 42q0 5 1 11z" />
    <glyph glyph-name="copyright" unicode="&#xa9;" horiz-adv-x="758" 
d="M80 325q18 145 122 239t248 94t217.5 -85.5t73.5 -196.5q0 -25 -3 -51q-18 -147 -121.5 -240t-248.5 -93q-147 0 -219 85t-72 196q0 25 3 52zM165 238q9 -43 33 -81t70.5 -61.5t109.5 -23.5q65 0 117.5 23.5t85 61.5t51.5 80.5t25 87.5q2 18 2 35q0 26 -7 60.5t-30 72.5
t-70 61.5t-112 23.5t-117.5 -23.5t-85 -61.5t-51.5 -80.5t-25 -87.5q-2 -16 -2 -33q0 -27 6 -54zM246 326q10 77 64 127t130 50q92 0 131 -69l-74 -51q-21 39 -67 39q-10 0 -23.5 -3.5t-31.5 -12.5t-31.5 -30t-16.5 -50q-1 -8 -1 -16q0 -20 7 -38t22.5 -27t28 -12.5
t22.5 -3.5q44 0 77 37l62 -48q-57 -70 -149 -70q-76 0 -114 46t-38 105q0 13 2 27z" />
    <glyph glyph-name="guillemotleft" unicode="&#xab;" horiz-adv-x="764" 
d="M381 321l195 186h190l-194 -186l149 -186h-190zM79 321l195 186h190l-194 -186l149 -186h-190z" />
    <glyph glyph-name="logicalnot" unicode="&#xac;" horiz-adv-x="561" 
d="M373 183l16 125h-311l18 150h461l-34 -275h-150z" />
    <glyph glyph-name="registered" unicode="&#xae;" horiz-adv-x="756" 
d="M80 325q17 142 121.5 237.5t248.5 95.5q143 0 216 -86.5t73 -197.5q0 -24 -3 -49q-17 -142 -121 -237.5t-247 -95.5t-224 96q-67 79 -67 189q0 23 3 48zM161 258q4 -34 19.5 -68t40 -60t65 -42t92.5 -16q64 0 116.5 24t85 62.5t51.5 81t22.5 72t3.5 45.5q0 27 -7 61.5
t-30 73t-69.5 62.5t-110.5 24t-117 -24t-85.5 -62.5t-52 -81t-24.5 -85.5q-2 -17 -2 -33q0 -17 2 -34zM251 156l41 332h164q40 0 66 -28t26 -69q0 -9 -1 -18q-10 -75 -72 -104l53 -113h-97l-46 101h-36l-13 -101h-85zM423 340q14 0 25.5 8.5t13.5 24.5v3q0 14 -8.5 22.5
t-22.5 8.5h-64l-8 -67h64z" />
    <glyph glyph-name="macron" unicode="&#xaf;" horiz-adv-x="252" 
d="M88 550l12 100h212l-12 -100h-212z" />
    <glyph glyph-name="degree" unicode="&#xb0;" horiz-adv-x="313" 
d="M96 536q7 55 46.5 89.5t95.5 34.5q54 0 83 -32t29 -73q0 -9 -4 -41t-44 -66.5t-94 -34.5q-56 0 -84.5 31.5t-28.5 72.5q0 9 1 19zM187 506q12 -13 31 -13t34 12.5t17 30.5v5q0 16 -11 27.5t-30 11.5t-34.5 -12.5t-17.5 -31.5v-5q0 -15 11 -25z" />
    <glyph glyph-name="plusminus" unicode="&#xb1;" horiz-adv-x="459" 
d="M94 439h120l9 78h120l-9 -78h119l-12 -100h-119l-10 -79h-120l10 79h-120zM54 115l12 100h359l-12 -100h-359z" />
    <glyph glyph-name="twosuperior" unicode="&#xb2;" horiz-adv-x="315" 
d="M28 262l9 81l55 43q34 26 49 38.5t42 36t39.5 41t14.5 30.5v6q0 28 -34 28q-20 0 -35.5 -13.5t-23.5 -29.5l-84 42q14 33 55 64t100 31q66 0 96.5 -30.5t30.5 -73.5q0 -8 -1 -18q-3 -26 -16.5 -51t-38.5 -51t-37.5 -37t-38.5 -33l-18 -13h127l-11 -91h-280z" />
    <glyph glyph-name="threesuperior" unicode="&#xb3;" horiz-adv-x="349" 
d="M101 382q25 -32 78 -32q62 0 67 43v5q0 17 -14 29t-42 12q-32 0 -70 -11l9 70l87 62h-127l11 90h266l-10 -84l-78 -61q69 -26 69 -94q0 -9 -1 -18q-9 -72 -60.5 -106t-118.5 -34q-45 0 -82.5 17.5t-52.5 44.5z" />
    <glyph glyph-name="acute" unicode="&#xb4;" horiz-adv-x="233" 
d="M85 527l74 123h134l-78 -123h-130z" />
    <glyph glyph-name="paragraph" unicode="&#xb6;" horiz-adv-x="650" 
d="M97 467q10 82 63.5 132.5t126.5 50.5h153l-80 -650h-150l37 299q-80 0 -116 40t-36 98q0 14 2 30zM440 0l80 650h150l-80 -650h-150z" />
    <glyph glyph-name="periodcentered" unicode="&#xb7;" horiz-adv-x="204" 
d="M60 326q4 36 30 58.5t62 22.5t54.5 -20.5t18.5 -48.5q0 -6 -1 -12q-5 -36 -30 -59q-26 -23 -62 -23t-54.5 21t-18.5 49q0 6 1 12z" />
    <glyph glyph-name="cedilla" unicode="&#xb8;" horiz-adv-x="212" 
d="M5 -119q17 -13 64 -13q37 0 39 17v2q0 7 -9 10.5t-29 3.5q-33 0 -45 -6l6 54l37 51h80l-31 -43q62 -14 62 -62q0 -5 -1 -10q-10 -83 -117 -83q-46 0 -64 10z" />
    <glyph glyph-name="onesuperior" unicode="&#xb9;" horiz-adv-x="244" 
d="M116 258l37 302h-82l11 90h182l-48 -392h-100z" />
    <glyph glyph-name="guillemotright" unicode="&#xbb;" horiz-adv-x="714" 
d="M527 321l-148 186h185l149 -186l-194 -186h-185zM37 135l193 186l-148 186h185l149 -186l-194 -186h-185z" />
    <glyph glyph-name="onequarter" unicode="&#xbc;" horiz-adv-x="524" 
d="M250 102l184 220h81l-26 -213h38l-7 -58h-38l-6 -51h-82l7 51h-157zM511 650h80l-481 -650h-80zM85 650h152l-40 -328h-83l30 252h-68zM408 109l13 110l-90 -110h77z" />
    <glyph glyph-name="onehalf" unicode="&#xbd;" horiz-adv-x="575" 
d="M28 0l481 650h80l-481 -650h-80zM335 65l44 35q114 88 118 118v3q0 24 -28 24q-32 0 -48 -35l-67 35q11 26 44 51.5t81 25.5q53 0 77.5 -24.5t24.5 -58.5q0 -8 -1 -16q-7 -60 -106 -139l-14 -11h102l-8 -73h-226zM76 574l9 76h152l-40 -328h-83l30 252h-68z" />
    <glyph glyph-name="threequarters" unicode="&#xbe;" horiz-adv-x="576" 
d="M113 429q20 -27 65 -27q50 0 55 36v4q0 14 -12 24t-34 10q-26 0 -59 -9l8 57l72 51h-105l9 75h220l-8 -69l-65 -51q57 -20 57 -76q0 -8 -1 -16q-8 -59 -50.5 -87.5t-96.5 -28.5q-38 0 -69 14.5t-43 36.5zM302 102l184 220h81l-26 -213h38l-7 -58h-38l-6 -51h-82l7 51
h-157zM559 650h80l-481 -650h-80zM460 109l13 110l-90 -110h77z" />
    <glyph glyph-name="questiondown" unicode="&#xbf;" horiz-adv-x="473" 
d="M31 172q4 35 19.5 66t27.5 44.5t34 34.5q37 35 50.5 49t26.5 33t15 35l2 14h165l-2 -14q-9 -81 -84 -146q-27 -25 -39 -37t-26.5 -32.5t-16.5 -37.5v-5q0 -34 47 -34q29 0 57 20.5t42 47.5l131 -69q-34 -63 -97 -106t-151 -43q-100 0 -151.5 42.5t-51.5 110.5q0 13 2 27z
M220 579q5 35 31 58.5t62 23.5t54.5 -21t18.5 -48q0 -6 -1 -13q-5 -36 -30 -59q-26 -24 -62 -24t-55 21.5t-19 50.5q0 5 1 11z" />
    <glyph glyph-name="Agrave" unicode="&#xc0;" horiz-adv-x="677" 
d="M10 0l341 650h125l181 -650h-175l-19 72h-241l-37 -72h-175zM311 833h134l44 -123h-130zM423 222l-43 164l-83 -164h126z" />
    <glyph glyph-name="Aacute" unicode="&#xc1;" horiz-adv-x="677" 
d="M10 0l341 650h125l181 -650h-175l-19 72h-241l-37 -72h-175zM430 833h134l-78 -123h-130zM423 222l-43 164l-83 -164h126z" />
    <glyph glyph-name="Acircumflex" unicode="&#xc2;" horiz-adv-x="677" 
d="M351 650h125l181 -650h-175l-19 72h-241l-37 -72h-175zM253 710l95 123h178l65 -123h-130l-31 69l-47 -69h-130zM423 222l-43 164l-83 -164h126z" />
    <glyph glyph-name="Atilde" unicode="&#xc3;" horiz-adv-x="677" 
d="M351 650h125l181 -650h-175l-19 72h-241l-37 -72h-175zM242 703q7 60 41 98t91 38q47 0 75 -36q19 -23 38 -23q31 0 37 46h90q-7 -60 -42 -98t-96 -38q-49 0 -76 36q-18 23 -33 23q-29 0 -35 -46h-90zM423 222l-43 164l-83 -164h126z" />
    <glyph glyph-name="Adieresis" unicode="&#xc4;" horiz-adv-x="677" 
d="M351 650h125l181 -650h-175l-19 72h-241l-37 -72h-175zM261 761q4 30 27.5 48.5t50.5 18.5t45 -17t18 -40q0 -5 -1 -10q-4 -32 -28 -51q-24 -20 -51 -20t-44.5 18t-17.5 42q0 5 1 11zM456 761q4 30 27.5 48.5t50.5 18.5t45 -17t18 -40q0 -5 -1 -10q-4 -32 -28 -51
q-24 -20 -51 -20t-44.5 18t-17.5 42q0 5 1 11zM423 222l-43 164l-83 -164h126z" />
    <glyph glyph-name="Aring" unicode="&#xc5;" horiz-adv-x="677" 
d="M351 650h125l181 -650h-175l-19 72h-241l-37 -72h-175zM324 789q5 45 38.5 73t81.5 28q49 0 72.5 -25.5t23.5 -61.5q0 -7 -1 -14q-5 -43 -38 -71q-33 -29 -81 -29t-72.5 26.5t-24.5 60.5q0 6 1 13zM297 222h126l-43 164zM428 756q20 0 29 10.5t10 22.5v5q0 29 -31 29
q-35 0 -38 -34v-5q0 -28 30 -28z" />
    <glyph glyph-name="AE" unicode="&#xc6;" horiz-adv-x="982" 
d="M361 650h646l-19 -150h-256l-12 -100h235l-18 -150h-235l-13 -100h256l-18 -150h-421l31 250h-217l-135 -250h-175zM555 400l12 100h-113l-54 -100h155z" />
    <glyph glyph-name="Ccedilla" unicode="&#xc7;" horiz-adv-x="657" 
d="M70 325q18 145 122 239t248 94q85 0 148.5 -34.5t98.5 -96.5l-144 -99q-43 65 -123 65q-73 0 -124.5 -47t-57 -91t-5.5 -57q0 -56 36 -98.5t109 -42.5q76 0 140 69l119 -103q-87 -106 -221 -127l-20 -27q62 -14 62 -62q0 -5 -1 -10q-4 -30 -28.5 -49.5t-53 -26.5
t-61.5 -7q-46 0 -64 10l8 69q17 -13 64 -13q37 0 39 17v2q0 7 -9 10.5t-29 3.5q-33 0 -45 -6l6 54l25 34q-123 17 -182.5 98.5t-59.5 181.5q0 24 3 50z" />
    <glyph glyph-name="Egrave" unicode="&#xc8;" horiz-adv-x="548" 
d="M295 710l-48 123h134l44 -123h-130zM40 0l80 650h453l-19 -150h-288l-12 -100h267l-18 -150h-267l-13 -100h288l-18 -150h-453z" />
    <glyph glyph-name="Eacute" unicode="&#xc9;" horiz-adv-x="548" 
d="M292 710l74 123h134l-78 -123h-130zM40 0l80 650h453l-19 -150h-288l-12 -100h267l-18 -150h-267l-13 -100h288l-18 -150h-453z" />
    <glyph glyph-name="Ecircumflex" unicode="&#xca;" horiz-adv-x="548" 
d="M120 650h453l-19 -150h-288l-12 -100h267l-18 -150h-267l-13 -100h288l-18 -150h-453zM189 710l95 123h178l65 -123h-130l-31 69l-47 -69h-130z" />
    <glyph glyph-name="Edieresis" unicode="&#xcb;" horiz-adv-x="548" 
d="M120 650h453l-19 -150h-288l-12 -100h267l-18 -150h-267l-13 -100h288l-18 -150h-453zM392 761q4 30 27.5 48.5t50.5 18.5t45 -17t18 -40q0 -5 -1 -10q-4 -32 -28 -51q-24 -20 -51 -20t-44.5 18t-17.5 42q0 5 1 11zM197 761q4 30 27.5 48.5t50.5 18.5t45 -17t18 -40
q0 -5 -1 -10q-4 -32 -28 -51q-24 -20 -51 -20t-44.5 18t-17.5 42q0 5 1 11z" />
    <glyph glyph-name="Igrave" unicode="&#xcc;" horiz-adv-x="265" 
d="M145 710l-48 123h134l44 -123h-130zM40 0l80 650h165l-80 -650h-165z" />
    <glyph glyph-name="Iacute" unicode="&#xcd;" horiz-adv-x="265" 
d="M142 710l74 123h134l-78 -123h-130zM40 0l80 650h165l-80 -650h-165z" />
    <glyph glyph-name="Icircumflex" unicode="&#xce;" horiz-adv-x="265" 
d="M120 650h165l-80 -650h-165zM134 833h178l65 -123h-130l-31 69l-47 -69h-130z" />
    <glyph glyph-name="Idieresis" unicode="&#xcf;" horiz-adv-x="265" 
d="M120 650h165l-80 -650h-165zM47 761q4 30 27.5 48.5t50.5 18.5t45 -17t18 -40q0 -5 -1 -10q-4 -32 -28 -51q-24 -20 -51 -20t-44.5 18t-17.5 42q0 5 1 11zM242 761q4 30 27.5 48.5t50.5 18.5t45 -17t18 -40q0 -5 -1 -10q-4 -32 -28 -51q-24 -20 -51 -20t-44.5 18
t-17.5 42q0 5 1 11z" />
    <glyph glyph-name="Ntilde" unicode="&#xd1;" horiz-adv-x="647" 
d="M120 650h160l178 -355l44 355h165l-80 -650h-160l-179 354l-43 -354h-165zM262 801q34 38 91 38q47 0 75 -36q19 -23 38 -23q31 0 37 46h90q-7 -60 -42 -98t-96 -38q-49 0 -76 36q-18 23 -33 23q-29 0 -35 -46h-90q7 60 41 98z" />
    <glyph glyph-name="Ograve" unicode="&#xd2;" horiz-adv-x="731" 
d="M70 325q18 145 122 239t248 94t216.5 -85.5t72.5 -195.5q0 -25 -10.5 -111t-113.5 -180t-247 -94t-217.5 85.5t-73.5 196.5q0 25 3 51zM266 204q39 -47 112 -47t123.5 47t56 91t5.5 57q0 56 -35 98.5t-108 42.5t-124.5 -47t-57 -91t-5.5 -56q0 -57 33 -95zM335 833h134
l44 -123h-130z" />
    <glyph glyph-name="Oacute" unicode="&#xd3;" horiz-adv-x="731" 
d="M70 325q18 145 122 239t248 94t216.5 -85.5t72.5 -195.5q0 -25 -10.5 -111t-113.5 -180t-247 -94t-217.5 85.5t-73.5 196.5q0 25 3 51zM266 204q39 -47 112 -47t123.5 47t56 91t5.5 57q0 56 -35 98.5t-108 42.5t-124.5 -47t-57 -91t-5.5 -56q0 -57 33 -95zM454 833h134
l-78 -123h-130z" />
    <glyph glyph-name="Ocircumflex" unicode="&#xd4;" horiz-adv-x="731" 
d="M70 325q18 145 122 239t248 94t216.5 -85.5t72.5 -195.5q0 -25 -10.5 -111t-113.5 -180t-247 -94t-217.5 85.5t-73.5 196.5q0 25 3 51zM266 204q39 -47 112 -47t123.5 47t56 91t5.5 57q0 56 -35 98.5t-108 42.5t-124.5 -47t-57 -91t-5.5 -56q0 -57 33 -95zM277 710
l95 123h178l65 -123h-130l-31 69l-47 -69h-130z" />
    <glyph glyph-name="Otilde" unicode="&#xd5;" horiz-adv-x="731" 
d="M70 325q18 145 122 239t248 94t216.5 -85.5t72.5 -195.5q0 -25 -10.5 -111t-113.5 -180t-247 -94t-217.5 85.5t-73.5 196.5q0 25 3 51zM266 204q39 -47 112 -47t123.5 47t56 91t5.5 57q0 56 -35 98.5t-108 42.5t-124.5 -47t-57 -91t-5.5 -56q0 -57 33 -95zM307 801
q34 38 91 38q47 0 75 -36q19 -23 38 -23q31 0 37 46h90q-7 -60 -42 -98t-96 -38q-49 0 -76 36q-18 23 -33 23q-29 0 -35 -46h-90q7 60 41 98z" />
    <glyph glyph-name="Odieresis" unicode="&#xd6;" horiz-adv-x="731" 
d="M70 325q18 145 122 239t248 94t216.5 -85.5t72.5 -195.5q0 -25 -10.5 -111t-113.5 -180t-247 -94t-217.5 85.5t-73.5 196.5q0 25 3 51zM266 204q39 -47 112 -47t123.5 47t56 91t5.5 57q0 56 -35 98.5t-108 42.5t-124.5 -47t-57 -91t-5.5 -56q0 -57 33 -95zM480 761
q4 30 27.5 48.5t50.5 18.5t45 -17t18 -40q0 -5 -1 -10q-4 -32 -28 -51q-24 -20 -51 -20t-44.5 18t-17.5 42q0 5 1 11zM285 761q4 30 27.5 48.5t50.5 18.5t45 -17t18 -40q0 -5 -1 -10q-4 -32 -28 -51q-24 -20 -51 -20t-44.5 18t-17.5 42q0 5 1 11z" />
    <glyph glyph-name="multiply" unicode="&#xd7;" horiz-adv-x="534" 
d="M145 107l-81 85l143 128l-112 126l103 90l111 -126l141 125l79 -85l-142 -127l111 -126l-102 -90l-111 125z" />
    <glyph glyph-name="Oslash" unicode="&#xd8;" horiz-adv-x="731" 
d="M358 -8q-91 0 -162 41l-30 -33h-130l88 97q-71 91 -54 228q18 145 122 239t248 94q88 0 156 -38l35 38h130l-92 -101q74 -91 57 -232q-18 -145 -121 -239t-247 -94zM245 232l230 253q-27 8 -55 8q-76 0 -125.5 -45.5t-59.5 -122.5q-7 -50 10 -93zM378 157q75 0 124 45
t59 123q7 56 -12 98l-232 -256q26 -10 61 -10z" />
    <glyph glyph-name="Ugrave" unicode="&#xd9;" horiz-adv-x="614" 
d="M68 232l52 418h165l-49 -399q-2 -12 -2 -23q0 -36 21.5 -56t60.5 -20q91 0 104 99l49 399h165l-52 -418q-12 -100 -89 -170t-197 -70t-175 64t-55 144q0 15 2 32zM273 833h134l44 -123h-130z" />
    <glyph glyph-name="Uacute" unicode="&#xda;" horiz-adv-x="614" 
d="M68 232l52 418h165l-49 -399q-2 -12 -2 -23q0 -36 21.5 -56t60.5 -20q91 0 104 99l49 399h165l-52 -418q-12 -100 -89 -170t-197 -70t-175 64t-55 144q0 15 2 32zM318 710l74 123h134l-78 -123h-130z" />
    <glyph glyph-name="Ucircumflex" unicode="&#xdb;" horiz-adv-x="614" 
d="M68 232l52 418h165l-49 -399q-2 -12 -2 -23q0 -36 21.5 -56t60.5 -20q91 0 104 99l49 399h165l-52 -418q-12 -100 -89 -170t-197 -70t-175 64t-55 144q0 15 2 32zM215 710l95 123h178l65 -123h-130l-31 69l-47 -69h-130z" />
    <glyph glyph-name="Udieresis" unicode="&#xdc;" horiz-adv-x="614" 
d="M68 232l52 418h165l-49 -399q-2 -12 -2 -23q0 -36 21.5 -56t60.5 -20q91 0 104 99l49 399h165l-52 -418q-12 -100 -89 -170t-197 -70t-175 64t-55 144q0 15 2 32zM223 761q4 30 27.5 48.5t50.5 18.5t45 -17t18 -40q0 -5 -1 -10q-4 -32 -28 -51q-24 -20 -51 -20t-44.5 18
t-17.5 42q0 5 1 11zM418 761q4 30 27.5 48.5t50.5 18.5t45 -17t18 -40q0 -5 -1 -10q-4 -32 -28 -51q-24 -20 -51 -20t-44.5 18t-17.5 42q0 5 1 11z" />
    <glyph glyph-name="Yacute" unicode="&#xdd;" horiz-adv-x="649" 
d="M274 650l97 -208l149 208h189l-276 -380l-33 -270h-165l33 268l-183 382h189zM412 833h134l-78 -123h-130z" />
    <glyph glyph-name="germandbls" unicode="&#xdf;" horiz-adv-x="551" 
d="M40 0l52 427q15 118 90.5 176t177.5 58q95 0 150 -47t45 -128q-10 -73 -63 -121q67 -54 54 -164q-11 -88 -78 -144.5t-182 -56.5h-55l17 140h15q66 0 89 11q30 15 34 50q2 19 -4.5 32t-16.5 19.5t-28 10t-28.5 4t-29.5 0.5h-15l16 131h15q43 0 74 18t35 51q4 27 -14 43.5
t-46 16.5q-32 0 -58.5 -25t-34.5 -83l-51 -419h-160z" />
    <glyph glyph-name="agrave" unicode="&#xe0;" 
d="M48 230q13 104 82 170.5t161 66.5q66 0 102 -36l3 29h160l-56 -460h-160l3 28q-46 -36 -110 -36q-92 0 -140 61.5t-48 137.5q0 19 3 39zM218 167q20 -25 57 -25t62.5 25t28.5 48t3 30q0 28 -17.5 50t-54.5 22t-63 -24.5t-29 -47.5t-3 -30q0 -28 16 -48zM249 650h134
l44 -123h-130z" />
    <glyph glyph-name="aacute" unicode="&#xe1;" 
d="M48 230q13 104 82 170.5t161 66.5q66 0 102 -36l3 29h160l-56 -460h-160l3 28q-46 -36 -110 -36q-92 0 -140 61.5t-48 137.5q0 19 3 39zM218 167q20 -25 57 -25t62.5 25t28.5 48t3 30q0 28 -17.5 50t-54.5 22t-63 -24.5t-29 -47.5t-3 -30q0 -28 16 -48zM368 650h134
l-78 -123h-130z" />
    <glyph glyph-name="acircumflex" unicode="&#xe2;" 
d="M48 230q13 104 82 170.5t161 66.5q66 0 102 -36l3 29h160l-56 -460h-160l3 28q-46 -36 -110 -36q-92 0 -140 61.5t-48 137.5q0 19 3 39zM191 527l95 123h178l65 -123h-130l-31 69l-47 -69h-130zM218 167q20 -25 57 -25t62.5 25t28.5 48t3 30q0 28 -17.5 50t-54.5 22
t-63 -24.5t-29 -47.5t-3 -30q0 -28 16 -48z" />
    <glyph glyph-name="atilde" unicode="&#xe3;" 
d="M48 230q13 104 82 170.5t161 66.5q66 0 102 -36l3 29h160l-56 -460h-160l3 28q-46 -36 -110 -36q-92 0 -140 61.5t-48 137.5q0 19 3 39zM180 520q7 60 41 98t91 38q47 0 75 -36q19 -23 38 -23q31 0 37 46h90q-7 -60 -42 -98t-96 -38q-49 0 -76 36q-18 23 -33 23
q-29 0 -35 -46h-90zM218 167q20 -25 57 -25t62.5 25t28.5 48t3 30q0 28 -17.5 50t-54.5 22t-63 -24.5t-29 -47.5t-3 -30q0 -28 16 -48z" />
    <glyph glyph-name="adieresis" unicode="&#xe4;" 
d="M48 230q13 104 82 170.5t161 66.5q66 0 102 -36l3 29h160l-56 -460h-160l3 28q-46 -36 -110 -36q-92 0 -140 61.5t-48 137.5q0 19 3 39zM218 167q20 -25 57 -25t62.5 25t28.5 48t3 30q0 28 -17.5 50t-54.5 22t-63 -24.5t-29 -47.5t-3 -30q0 -28 16 -48zM199 578
q4 30 27.5 48.5t50.5 18.5t45 -17t18 -40q0 -5 -1 -10q-4 -32 -28 -51q-24 -20 -51 -20t-44.5 18t-17.5 42q0 5 1 11zM394 578q4 30 27.5 48.5t50.5 18.5t45 -17t18 -40q0 -5 -1 -10q-4 -32 -28 -51q-24 -20 -51 -20t-44.5 18t-17.5 42q0 5 1 11z" />
    <glyph glyph-name="aring" unicode="&#xe5;" 
d="M48 230q13 104 82 170.5t161 66.5q66 0 102 -36l3 29h160l-56 -460h-160l3 28q-46 -36 -110 -36q-92 0 -140 61.5t-48 137.5q0 19 3 39zM262 607q5 45 38.5 73t81.5 28q49 0 72.5 -25.5t23.5 -61.5q0 -7 -1 -14q-5 -43 -38 -71q-33 -29 -81 -29t-72.5 26.5t-24.5 60.5
q0 6 1 13zM218 167q20 -25 57 -25t62.5 25t28.5 48t3 30q0 28 -17.5 50t-54.5 22t-63 -24.5t-29 -47.5t-3 -30q0 -28 16 -48zM366 574q20 0 29 10.5t10 22.5v5q0 29 -31 29q-35 0 -38 -34v-5q0 -28 30 -28z" />
    <glyph glyph-name="ae" unicode="&#xe6;" horiz-adv-x="880" 
d="M224 -8q-98 0 -147.5 32t-41.5 101q5 41 29 70.5t64 45t83 23t99 10.5q4 74 -53 74q-40 0 -61 -34l-119 45q52 108 205 108q74 0 121.5 -32t62.5 -85q34 55 89 86t123 31q95 0 149 -67t41 -170l-6 -48h-278q12 -55 63 -55t83 40l100 -76q-76 -99 -204 -99
q-69 0 -119 32.5t-71 89.5q-30 -57 -77.5 -89.5t-134.5 -32.5zM594 276h133q-5 66 -54 66q-59 0 -79 -66zM227 102q14 0 22.5 2t19 9t18 23.5t11.5 42.5q-55 -4 -79.5 -15t-27.5 -31q-2 -12 8 -21.5t28 -9.5z" />
    <glyph glyph-name="ccedilla" unicode="&#xe7;" horiz-adv-x="474" 
d="M48 230q13 105 87 171.5t179 66.5q122 0 176 -93l-125 -89q-24 31 -65 31q-37 0 -64 -24.5t-30 -47t-3 -29.5q0 -29 19 -51.5t56 -22.5q44 0 73 29l103 -86q-54 -67 -134 -86l-20 -28q62 -14 62 -62q0 -5 -1 -10q-4 -30 -28.5 -49.5t-53 -26.5t-61.5 -7q-46 0 -64 10
l8 69q17 -13 64 -13q37 0 39 17v2q0 7 -9 10.5t-29 3.5q-33 0 -45 -6l6 54l23 32q-85 14 -125 71.5t-40 127.5q0 18 2 36z" />
    <glyph glyph-name="egrave" unicode="&#xe8;" horiz-adv-x="513" 
d="M48 230q13 104 85 171.5t176 67.5q103 0 149 -60t46 -138q0 -20 -3 -41l-5 -42h-297q5 -30 24.5 -46.5t47.5 -16.5q55 0 91 36l98 -80q-76 -91 -205 -91q-106 0 -157.5 61.5t-51.5 141.5q0 18 2 37zM339 650l44 -123h-130l-48 123h134zM213 287h144q-10 57 -64 57
q-51 0 -80 -57z" />
    <glyph glyph-name="eacute" unicode="&#xe9;" horiz-adv-x="513" 
d="M48 230q13 104 85 171.5t176 67.5q103 0 149 -60t46 -138q0 -20 -3 -41l-5 -42h-297q5 -30 24.5 -46.5t47.5 -16.5q55 0 91 36l98 -80q-76 -91 -205 -91q-106 0 -157.5 61.5t-51.5 141.5q0 18 2 37zM324 650h134l-78 -123h-130zM213 287h144q-10 57 -64 57q-51 0 -80 -57
z" />
    <glyph glyph-name="ecircumflex" unicode="&#xea;" horiz-adv-x="513" 
d="M48 230q13 104 85 171.5t176 67.5q103 0 149 -60t46 -138q0 -20 -3 -41l-5 -42h-297q5 -30 24.5 -46.5t47.5 -16.5q55 0 91 36l98 -80q-76 -91 -205 -91q-106 0 -157.5 61.5t-51.5 141.5q0 18 2 37zM242 650h178l65 -123h-130l-31 69l-47 -69h-130zM357 287
q-10 57 -64 57q-51 0 -80 -57h144z" />
    <glyph glyph-name="edieresis" unicode="&#xeb;" horiz-adv-x="513" 
d="M48 230q13 104 85 171.5t176 67.5q103 0 149 -60t46 -138q0 -20 -3 -41l-5 -42h-297q5 -30 24.5 -46.5t47.5 -16.5q55 0 91 36l98 -80q-76 -91 -205 -91q-106 0 -157.5 61.5t-51.5 141.5q0 18 2 37zM155 578q4 30 27.5 48.5t50.5 18.5t45 -17t18 -40q0 -5 -1 -10
q-4 -32 -28 -51q-24 -20 -51 -20t-44.5 18t-17.5 42q0 5 1 11zM350 578q4 30 27.5 48.5t50.5 18.5t45 -17t18 -40q0 -5 -1 -10q-4 -32 -28 -51q-24 -20 -51 -20t-44.5 18t-17.5 42q0 5 1 11zM213 287h144q-10 57 -64 57q-51 0 -80 -57z" />
    <glyph glyph-name="igrave" unicode="&#xec;" horiz-adv-x="261" 
d="M122 527l-48 123h134l44 -123h-130zM40 0l56 460h161l-57 -460h-160z" />
    <glyph glyph-name="iacute" unicode="&#xed;" horiz-adv-x="261" 
d="M119 527l74 123h134l-78 -123h-130zM40 0l56 460h161l-57 -460h-160z" />
    <glyph glyph-name="icircumflex" unicode="&#xee;" horiz-adv-x="261" 
d="M96 460h161l-57 -460h-160zM111 650h178l65 -123h-130l-31 69l-47 -69h-130z" />
    <glyph glyph-name="idieresis" unicode="&#xef;" horiz-adv-x="261" 
d="M40 0l56 460h161l-57 -460h-160zM24 578q4 30 27.5 48.5t50.5 18.5t45 -17t18 -40q0 -5 -1 -10q-4 -32 -28 -51q-24 -20 -51 -20t-44.5 18t-17.5 42q0 5 1 11zM219 578q4 30 27.5 48.5t50.5 18.5t45 -17t18 -40q0 -5 -1 -10q-4 -32 -28 -51q-24 -20 -51 -20t-44.5 18
t-17.5 42q0 5 1 11z" />
    <glyph glyph-name="ntilde" unicode="&#xf1;" horiz-adv-x="553" 
d="M40 0l56 460h160l-4 -33q51 40 121 40q32 0 60 -9t53 -28.5t34.5 -50.5t9.5 -61q0 -18 -3 -38l-34 -280h-160l31 254q1 9 1 17q0 15 -4.5 30t-17 21.5t-20.5 8.5t-17 2q-8 0 -16.5 -2t-22 -8.5t-23.5 -24.5t-13 -44l-31 -254h-160zM191 618q34 38 91 38q47 0 75 -36
q19 -23 38 -23q31 0 37 46h90q-7 -60 -42 -98t-96 -38q-49 0 -76 36q-18 23 -33 23q-29 0 -35 -46h-90q7 60 41 98z" />
    <glyph glyph-name="ograve" unicode="&#xf2;" horiz-adv-x="539" 
d="M48 230q13 105 89 172.5t181 67.5t158 -61.5t53 -141.5q0 -18 -2 -37q-13 -103 -88.5 -171.5t-179.5 -68.5q-105 0 -159 62.5t-54 141.5q0 18 2 36zM220 167q20 -25 57 -25t62.5 25t28.5 48t3 30q0 28 -17.5 50t-54.5 22t-63 -24.5t-29 -47.5t-3 -30q0 -28 16 -48z
M214 650h134l44 -123h-130z" />
    <glyph glyph-name="oacute" unicode="&#xf3;" horiz-adv-x="539" 
d="M48 230q13 105 89 172.5t181 67.5t158 -61.5t53 -141.5q0 -18 -2 -37q-13 -103 -88.5 -171.5t-179.5 -68.5q-105 0 -159 62.5t-54 141.5q0 18 2 36zM220 167q20 -25 57 -25t62.5 25t28.5 48t3 30q0 28 -17.5 50t-54.5 22t-63 -24.5t-29 -47.5t-3 -30q0 -28 16 -48z
M333 650h134l-78 -123h-130z" />
    <glyph glyph-name="ocircumflex" unicode="&#xf4;" horiz-adv-x="539" 
d="M48 230q13 105 89 172.5t181 67.5t158 -61.5t53 -141.5q0 -18 -2 -37q-13 -103 -88.5 -171.5t-179.5 -68.5q-105 0 -159 62.5t-54 141.5q0 18 2 36zM251 650h178l65 -123h-130l-31 69l-47 -69h-130zM220 167q20 -25 57 -25t62.5 25t28.5 48t3 30q0 28 -17.5 50t-54.5 22
t-63 -24.5t-29 -47.5t-3 -30q0 -28 16 -48z" />
    <glyph glyph-name="otilde" unicode="&#xf5;" horiz-adv-x="539" 
d="M48 230q13 105 89 172.5t181 67.5t158 -61.5t53 -141.5q0 -18 -2 -37q-13 -103 -88.5 -171.5t-179.5 -68.5q-105 0 -159 62.5t-54 141.5q0 18 2 36zM145 520q7 60 41 98t91 38q47 0 75 -36q19 -23 38 -23q31 0 37 46h90q-7 -60 -42 -98t-96 -38q-49 0 -76 36
q-18 23 -33 23q-29 0 -35 -46h-90zM220 167q20 -25 57 -25t62.5 25t28.5 48t3 30q0 28 -17.5 50t-54.5 22t-63 -24.5t-29 -47.5t-3 -30q0 -28 16 -48z" />
    <glyph glyph-name="odieresis" unicode="&#xf6;" horiz-adv-x="539" 
d="M48 230q13 105 89 172.5t181 67.5t158 -61.5t53 -141.5q0 -18 -2 -37q-13 -103 -88.5 -171.5t-179.5 -68.5q-105 0 -159 62.5t-54 141.5q0 18 2 36zM220 167q20 -25 57 -25t62.5 25t28.5 48t3 30q0 28 -17.5 50t-54.5 22t-63 -24.5t-29 -47.5t-3 -30q0 -28 16 -48z
M359 578q4 30 27.5 48.5t50.5 18.5t45 -17t18 -40q0 -5 -1 -10q-4 -32 -28 -51q-24 -20 -51 -20t-44.5 18t-17.5 42q0 5 1 11zM164 578q4 30 27.5 48.5t50.5 18.5t45 -17t18 -40q0 -5 -1 -10q-4 -32 -28 -51q-24 -20 -51 -20t-44.5 18t-17.5 42q0 5 1 11z" />
    <glyph glyph-name="divide" unicode="&#xf7;" horiz-adv-x="530" 
d="M308 432q-36 0 -56 23t-16 59t30 58.5t62 22.5t56 -22.5t16 -58.5q-5 -36 -30.5 -59t-61.5 -23zM72 262l15 120h430l-15 -120h-430zM261 49q-36 0 -56 23t-16 59t30 58.5t62 22.5t56 -22.5t16 -58.5q-5 -36 -30.5 -59t-61.5 -23z" />
    <glyph glyph-name="oslash" unicode="&#xf8;" horiz-adv-x="539" 
d="M259 -10q-76 0 -128 37l-24 -27h-53l46 52q-65 70 -52 178q13 105 89 172.5t181 67.5q74 0 127 -36l23 26h53l-46 -51q66 -67 52 -179q-13 -103 -88.5 -171.5t-179.5 -68.5zM214 177l119 133q-16 7 -34 7q-37 0 -63 -24.5t-31 -62.5q-3 -30 9 -53zM277 142q37 0 62.5 25
t30.5 63q4 30 -8 53l-120 -133q16 -8 35 -8z" />
    <glyph glyph-name="ugrave" unicode="&#xf9;" horiz-adv-x="553" 
d="M62 179l34 281h160l-31 -255q-1 -9 -1 -16q0 -16 5 -31t17 -21.5t20 -8.5t17 -2q8 0 16.5 2t22 8.5t23.5 24.5t13 44l31 255h160l-56 -460h-160l4 32q-51 -40 -121 -40q-71 0 -113.5 39t-42.5 110q0 18 2 38zM356 650l44 -123h-130l-48 123h134z" />
    <glyph glyph-name="uacute" unicode="&#xfa;" horiz-adv-x="553" 
d="M62 179l34 281h160l-31 -255q-1 -9 -1 -16q0 -16 5 -31t17 -21.5t20 -8.5t17 -2q8 0 16.5 2t22 8.5t23.5 24.5t13 44l31 255h160l-56 -460h-160l4 32q-51 -40 -121 -40q-71 0 -113.5 39t-42.5 110q0 18 2 38zM267 527l74 123h134l-78 -123h-130z" />
    <glyph glyph-name="ucircumflex" unicode="&#xfb;" horiz-adv-x="553" 
d="M62 179l34 281h160l-31 -255q-1 -9 -1 -16q0 -16 5 -31t17 -21.5t20 -8.5t17 -2q8 0 16.5 2t22 8.5t23.5 24.5t13 44l31 255h160l-56 -460h-160l4 32q-51 -40 -121 -40q-71 0 -113.5 39t-42.5 110q0 18 2 38zM164 527l95 123h178l65 -123h-130l-31 69l-47 -69h-130z" />
    <glyph glyph-name="udieresis" unicode="&#xfc;" horiz-adv-x="553" 
d="M62 179l34 281h160l-31 -255q-1 -9 -1 -16q0 -16 5 -31t17 -21.5t20 -8.5t17 -2q8 0 16.5 2t22 8.5t23.5 24.5t13 44l31 255h160l-56 -460h-160l4 32q-51 -40 -121 -40q-71 0 -113.5 39t-42.5 110q0 18 2 38zM367 578q4 30 27.5 48.5t50.5 18.5t45 -17t18 -40
q0 -5 -1 -10q-4 -32 -28 -51q-24 -20 -51 -20t-44.5 18t-17.5 42q0 5 1 11zM172 578q4 30 27.5 48.5t50.5 18.5t45 -17t18 -40q0 -5 -1 -10q-4 -32 -28 -51q-24 -20 -51 -20t-44.5 18t-17.5 42q0 5 1 11z" />
    <glyph glyph-name="yacute" unicode="&#xfd;" horiz-adv-x="539" 
d="M221 460l65 -239l124 239h165l-335 -644h-155l96 184l-125 460h165zM258 527l74 123h134l-78 -123h-130z" />
    <glyph glyph-name="ydieresis" unicode="&#xff;" horiz-adv-x="539" 
d="M56 460h165l65 -239l124 239h165l-335 -644h-155l96 184zM358 578q4 30 27.5 48.5t50.5 18.5t45 -17t18 -40q0 -5 -1 -10q-4 -32 -28 -51q-24 -20 -51 -20t-44.5 18t-17.5 42q0 5 1 11zM163 578q4 30 27.5 48.5t50.5 18.5t45 -17t18 -40q0 -5 -1 -10q-4 -32 -28 -51
q-24 -20 -51 -20t-44.5 18t-17.5 42q0 5 1 11z" />
    <glyph glyph-name="Amacron" unicode="&#x100;" horiz-adv-x="677" 
d="M10 0l341 650h125l181 -650h-175l-19 72h-241l-37 -72h-175zM328 806h212l-12 -100h-212zM423 222l-43 164l-83 -164h126z" />
    <glyph glyph-name="amacron" unicode="&#x101;" 
d="M48 230q13 104 82 170.5t161 66.5q66 0 102 -36l3 29h160l-56 -460h-160l3 28q-46 -36 -110 -36q-92 0 -140 61.5t-48 137.5q0 19 3 39zM218 167q20 -25 57 -25t62.5 25t28.5 48t3 30q0 28 -17.5 50t-54.5 22t-63 -24.5t-29 -47.5t-3 -30q0 -28 16 -48zM266 623h212
l-12 -100h-212z" />
    <glyph glyph-name="Abreve" unicode="&#x102;" horiz-adv-x="677" 
d="M351 650h125l181 -650h-175l-19 72h-241l-37 -72h-175zM297 825l1 3h90l-1 -3v-5q0 -15 11 -27t33 -12t36 13t16 31l1 3h90l-1 -3q-7 -57 -48.5 -90.5t-103.5 -33.5q-63 0 -94 30.5t-31 74.5q0 9 1 19zM297 222h126l-43 164z" />
    <glyph glyph-name="abreve" unicode="&#x103;" 
d="M48 230q13 104 82 170.5t161 66.5q66 0 102 -36l3 29h160l-56 -460h-160l3 28q-46 -36 -110 -36q-92 0 -140 61.5t-48 137.5q0 19 3 39zM235 642l1 3h90l-1 -3v-5q0 -15 11 -27t33 -12t36 13t16 31l1 3h90l-1 -3q-7 -57 -48.5 -90.5t-103.5 -33.5q-63 0 -94 30.5
t-31 74.5q0 9 1 19zM218 167q20 -25 57 -25t62.5 25t28.5 48t3 30q0 28 -17.5 50t-54.5 22t-63 -24.5t-29 -47.5t-3 -30q0 -28 16 -48z" />
    <glyph glyph-name="Aogonek" unicode="&#x104;" horiz-adv-x="677" 
d="M576 -58v-3q0 -7 5 -13t14.5 -7t12.5 -1q16 0 43 10l-11 -90q-29 -7 -55 -7q-34 0 -70.5 14.5t-36.5 60.5q0 5 1 11q5 46 55 83h-52l-19 72h-241l-37 -72h-175l341 650h125l181 -650h-34q-43 -30 -47 -58zM297 222h126l-43 164z" />
    <glyph glyph-name="aogonek" unicode="&#x105;" 
d="M48 230q13 104 82 170.5t161 66.5q66 0 102 -36l3 29h160l-56 -460h-15q-47 -32 -51 -61v-3q0 -7 5 -13t14.5 -7t12.5 -1q16 0 43 10l-11 -90q-29 -7 -55 -7q-34 0 -70.5 14.5t-36.5 60.5q0 5 1 11q6 51 59 86h-56l3 28q-46 -36 -110 -36q-92 0 -140 61.5t-48 137.5
q0 19 3 39zM218 167q20 -25 57 -25t63 25q25 25 28 48t3 30q0 28 -17.5 50t-54.5 22t-63 -24.5t-29 -47.5t-3 -30q0 -28 16 -48z" />
    <glyph glyph-name="Cacute" unicode="&#x106;" horiz-adv-x="657" 
d="M70 325q18 145 122 239t248 94q85 0 148.5 -34.5t98.5 -96.5l-144 -99q-43 65 -123 65q-73 0 -124.5 -47t-57 -91t-5.5 -57q0 -56 36 -98.5t109 -42.5q76 0 140 69l119 -103q-107 -131 -279 -131q-144 0 -217.5 85.5t-73.5 196.5q0 25 3 51zM366 712l74 123h134l-78 -123
h-130z" />
    <glyph glyph-name="cacute" unicode="&#x107;" horiz-adv-x="474" 
d="M48 230q13 105 87 171.5t179 66.5q122 0 176 -93l-125 -89q-24 31 -65 31q-37 0 -64 -24.5t-30 -47t-3 -29.5q0 -29 19 -51.5t56 -22.5q44 0 73 29l103 -86q-76 -94 -198 -94q-105 0 -157.5 61t-52.5 141q0 18 2 37zM256 527l74 123h134l-78 -123h-130z" />
    <glyph glyph-name="Cdotaccent" unicode="&#x10a;" horiz-adv-x="657" 
d="M70 325q18 145 122 239t248 94q85 0 148.5 -34.5t98.5 -96.5l-144 -99q-43 65 -123 65q-73 0 -124.5 -47t-57 -91t-5.5 -57q0 -56 36 -98.5t109 -42.5q76 0 140 69l119 -103q-107 -131 -279 -131q-144 0 -217.5 85.5t-73.5 196.5q0 25 3 51zM368 763q4 30 27.5 48.5
t50.5 18.5t45 -17t18 -40q0 -5 -1 -10q-4 -32 -28 -51q-24 -20 -51 -20t-44.5 18t-17.5 42q0 5 1 11z" />
    <glyph glyph-name="cdotaccent" unicode="&#x10b;" horiz-adv-x="474" 
d="M48 230q13 105 87 171.5t179 66.5q122 0 176 -93l-125 -89q-24 31 -65 31q-37 0 -64 -24.5t-30 -47t-3 -29.5q0 -29 19 -51.5t56 -22.5q44 0 73 29l103 -86q-76 -94 -198 -94q-105 0 -157.5 61t-52.5 141q0 18 2 37zM258 578q4 30 27.5 48.5t50.5 18.5t45 -17t18 -40
q0 -5 -1 -10q-4 -32 -28 -51q-24 -20 -51 -20t-44.5 18t-17.5 42q0 5 1 11z" />
    <glyph glyph-name="Ccaron" unicode="&#x10c;" horiz-adv-x="657" 
d="M70 325q18 145 122 239t248 94q85 0 148.5 -34.5t98.5 -96.5l-144 -99q-43 65 -123 65q-73 0 -124.5 -47t-57 -91t-5.5 -57q0 -56 36 -98.5t109 -42.5q76 0 140 69l119 -103q-107 -131 -279 -131q-144 0 -217.5 85.5t-73.5 196.5q0 25 3 51zM278 835h130l31 -64l47 64
h130l-95 -123h-178z" />
    <glyph glyph-name="ccaron" unicode="&#x10d;" horiz-adv-x="474" 
d="M48 230q13 105 87 171.5t179 66.5q122 0 176 -93l-125 -89q-24 31 -65 31q-37 0 -64 -24.5t-30 -47t-3 -29.5q0 -29 19 -51.5t56 -22.5q44 0 73 29l103 -86q-76 -94 -198 -94q-105 0 -157.5 61t-52.5 141q0 18 2 37zM168 650h130l31 -64l47 64h130l-95 -123h-178z" />
    <glyph glyph-name="Dcaron" unicode="&#x10e;" horiz-adv-x="658" 
d="M120 650h254q142 0 212 -81.5t70 -190.5q0 -26 -10.5 -112t-110 -176t-241.5 -90h-254zM314 160q12 0 26.5 2t40 11.5t46 25.5t38.5 49t21.5 62.5t3.5 42.5q0 27 -8.5 54t-25 43.5t-39.5 26t-37 11.5t-26 2h-89l-40 -330h89zM327 834l31 -64l47 64h130l-95 -123h-178
l-65 123h130z" />
    <glyph glyph-name="dcaron" unicode="&#x10f;" 
d="M48 230q13 104 82 170.5t161 66.5q66 0 102 -36l27 219h160l-80 -650h-160l3 28q-46 -36 -110 -36q-92 0 -140 61.5t-48 137.5q0 19 3 39zM482 833l31 -64l47 64h130l-95 -123h-178l-65 123h130zM218 167q20 -25 57 -25t62.5 25t28.5 48t3 30q0 28 -17.5 50t-54.5 22
t-63 -24.5t-29 -47.5t-3 -30q0 -28 16 -48z" />
    <glyph glyph-name="Dcroat" unicode="&#x110;" horiz-adv-x="664" 
d="M40 0l30 246h-39l19 150h39l31 254h257q144 0 222 -90t60 -235t-118 -235t-244 -90h-257zM225 163h94q11 0 26 2t40.5 12t46.5 26t39 48t23 74t-5.5 74t-27.5 48t-40 25.5t-37.5 12t-25.5 2.5h-93l-11 -91h77l-19 -150h-77z" />
    <glyph glyph-name="Emacron" unicode="&#x112;" horiz-adv-x="548" 
d="M252 706l12 100h212l-12 -100h-212zM40 0l80 650h453l-19 -150h-288l-12 -100h267l-18 -150h-267l-13 -100h288l-18 -150h-453z" />
    <glyph glyph-name="emacron" unicode="&#x113;" horiz-adv-x="513" 
d="M48 230q13 104 85 171.5t176 67.5q103 0 149 -60t46 -138q0 -20 -3 -41l-5 -42h-297q5 -30 24.5 -46.5t47.5 -16.5q55 0 91 36l98 -80q-76 -91 -205 -91q-106 0 -157.5 61.5t-51.5 141.5q0 18 2 37zM210 523l12 100h212l-12 -100h-212zM213 287h144q-10 57 -64 57
q-51 0 -80 -57z" />
    <glyph glyph-name="Edotaccent" unicode="&#x116;" horiz-adv-x="548" 
d="M120 650h453l-19 -150h-288l-12 -100h267l-18 -150h-267l-13 -100h288l-18 -150h-453zM294 761q4 30 27.5 48.5t50.5 18.5t45 -17t18 -40q0 -5 -1 -10q-4 -32 -28 -51q-24 -20 -51 -20t-44.5 18t-17.5 42q0 5 1 11z" />
    <glyph glyph-name="edotaccent" unicode="&#x117;" horiz-adv-x="513" 
d="M48 230q13 104 85 171.5t176 67.5q103 0 149 -60t46 -138q0 -20 -3 -41l-5 -42h-297q5 -30 24.5 -46.5t47.5 -16.5q55 0 91 36l98 -80q-76 -91 -205 -91q-106 0 -157.5 61.5t-51.5 141.5q0 18 2 37zM252 578q4 30 27.5 48.5t50.5 18.5t45 -17t18 -40q0 -5 -1 -10
q-4 -32 -28 -51q-24 -20 -51 -20t-44.5 18t-17.5 42q0 5 1 11zM357 287q-10 57 -64 57q-51 0 -80 -57h144z" />
    <glyph glyph-name="Eogonek" unicode="&#x118;" horiz-adv-x="548" 
d="M120 650h453l-19 -150h-288l-12 -100h267l-18 -150h-267l-13 -100h288l-18 -150h-28q-46 -31 -49 -59v-3q0 -7 5 -13t14.5 -7t12.5 -1q16 0 43 10l-11 -90q-29 -7 -55 -7q-34 0 -70.5 14.5t-36.5 60.5q0 5 1 11q6 47 56 84h-335z" />
    <glyph glyph-name="eogonek" unicode="&#x119;" horiz-adv-x="513" 
d="M48 230q13 104 85 171.5t176 67.5q103 0 149 -60t46 -138q0 -20 -3 -41l-5 -42h-297q5 -30 24.5 -46.5t47.5 -16.5q55 0 91 36l98 -80q-62 -73 -161 -88q-51 -32 -55 -63v-3q0 -7 5 -13t14.5 -7t12.5 -1q16 0 43 10l-11 -90q-29 -7 -55 -7q-34 0 -70.5 14.5t-36.5 60.5
q0 5 1 11q6 51 63 89q-86 14 -125 72.5t-39 127.5q0 17 2 36zM213 287h144q-10 57 -64 57q-51 0 -80 -57z" />
    <glyph glyph-name="Ecaron" unicode="&#x11a;" horiz-adv-x="548" 
d="M40 0l80 650h453l-19 -150h-288l-12 -100h267l-18 -150h-267l-13 -100h288l-18 -150h-453zM204 833h130l31 -64l47 64h130l-95 -123h-178z" />
    <glyph glyph-name="ecaron" unicode="&#x11b;" horiz-adv-x="513" 
d="M48 230q13 104 85 171.5t176 67.5q103 0 149 -60t46 -138q0 -20 -3 -41l-5 -42h-297q5 -30 24.5 -46.5t47.5 -16.5q55 0 91 36l98 -80q-76 -91 -205 -91q-106 0 -157.5 61.5t-51.5 141.5q0 18 2 37zM162 650h130l31 -64l47 64h130l-95 -123h-178zM357 287q-10 57 -64 57
q-51 0 -80 -57h144z" />
    <glyph glyph-name="Gbreve" unicode="&#x11e;" horiz-adv-x="721" 
d="M70 325q18 145 122 239t248 94q85 0 148.5 -34.5t98.5 -95.5l-145 -99q-39 64 -122 64q-73 0 -124.5 -47t-57 -91t-5.5 -57q0 -56 36 -98.5t109 -42.5q39 0 76.5 19.5t54.5 57.5h-131l18 150h322l-9 -74q-23 -141 -117.5 -229.5t-233.5 -88.5q-144 0 -217.5 85.5
t-73.5 196.5q0 25 3 51zM320 825l1 3h90l-1 -3v-5q0 -15 11 -27t33 -12t36 13t16 31l1 3h90l-1 -3q-7 -57 -48.5 -90.5t-103.5 -33.5q-63 0 -94 30.5t-31 74.5q0 9 1 19z" />
    <glyph glyph-name="gbreve" unicode="&#x11f;" 
d="M153 -28q33 -38 90 -38q9 0 21 2.5t30 11t32 29.5t18 52q-48 -37 -112 -37q-92 0 -139.5 61t-47.5 138q0 19 8 80.5t76.5 128.5t160.5 67q64 0 103 -37l3 30h160l-52 -429q-12 -103 -85 -167t-193 -64q-62 0 -110.5 23t-76.5 62zM210 642l1 3h90l-1 -3v-5q0 -15 11 -27
t33 -12t36 13t16 31l1 3h90l-1 -3q-7 -57 -48.5 -90.5t-103.5 -33.5q-63 0 -94 30.5t-31 74.5q0 9 1 19zM218 167q19 -25 56 -25t63 25t29 48t3 30q0 28 -18 50t-55 22t-62.5 -24.5t-28.5 -47.5t-3 -30q0 -28 16 -48z" />
    <glyph glyph-name="Gdotaccent" unicode="&#x120;" horiz-adv-x="721" 
d="M70 325q18 145 122 239t248 94q85 0 148.5 -34.5t98.5 -95.5l-145 -99q-39 64 -122 64q-73 0 -124.5 -47t-57 -91t-5.5 -57q0 -56 36 -98.5t109 -42.5q39 0 76.5 19.5t54.5 57.5h-131l18 150h322l-9 -74q-23 -141 -117.5 -229.5t-233.5 -88.5q-144 0 -217.5 85.5
t-73.5 196.5q0 25 3 51zM381 761q4 30 27.5 48.5t50.5 18.5t45 -17t18 -40q0 -5 -1 -10q-4 -32 -28 -51q-24 -20 -51 -20t-44.5 18t-17.5 42q0 5 1 11z" />
    <glyph glyph-name="gdotaccent" unicode="&#x121;" 
d="M153 -28q33 -38 90 -38q9 0 21 2.5t30 11t32 29.5t18 52q-48 -37 -112 -37q-92 0 -139.5 61t-47.5 138q0 19 8 80.5t76.5 128.5t160.5 67q64 0 103 -37l3 30h160l-52 -429q-12 -103 -85 -167t-193 -64q-62 0 -110.5 23t-76.5 62zM218 167q19 -25 56 -25t63 25t29 48t3 30
q0 28 -18 50t-55 22t-62.5 -24.5t-28.5 -47.5t-3 -30q0 -28 16 -48zM271 578q4 30 27.5 48.5t50.5 18.5t45 -17t18 -40q0 -5 -1 -10q-4 -32 -28 -51q-24 -20 -51 -20t-44.5 18t-17.5 42q0 5 1 11z" />
    <glyph glyph-name="uni0122" unicode="&#x122;" horiz-adv-x="721" 
d="M70 325q18 145 122 239t248 94q85 0 148.5 -34.5t98.5 -95.5l-145 -99q-39 64 -122 64q-73 0 -124.5 -47t-57 -91t-5.5 -57q0 -56 36 -98.5t109 -42.5q39 0 76.5 19.5t54.5 57.5h-131l18 150h322l-9 -74q-23 -141 -117.5 -229.5t-233.5 -88.5q-144 0 -217.5 85.5
t-73.5 196.5q0 25 3 51zM295 -52h130l-81 -120h-126z" />
    <glyph glyph-name="uni0123" unicode="&#x123;" 
d="M39 -115l114 87q33 -38 90 -38q9 0 21 2.5t30 11t32 29.5t18 52q-48 -37 -112 -37q-92 0 -139.5 61t-47.5 138q0 19 8 80.5t76.5 128.5t160.5 67q64 0 103 -37l3 30h160l-52 -429q-12 -103 -85 -167t-193 -64q-62 0 -110.5 23t-76.5 62zM218 167q19 -25 56 -25t63 25
t29 48t3 30q0 28 -18 50t-55 22t-62.5 -24.5t-28.5 -47.5t-3 -30q0 -28 16 -48zM269 576q6 53 84 103h73q-11 -7 -29 -23t-23 -22q35 -12 35 -50v-8q-3 -26 -23 -46q-21 -20 -54 -20t-48 18.5t-15 39.5v8z" />
    <glyph glyph-name="Itilde" unicode="&#x128;" horiz-adv-x="265" 
d="M120 650h165l-80 -650h-165zM28 703q7 60 41 98t91 38q47 0 75 -36q19 -23 38 -23q31 0 37 46h90q-7 -60 -42 -98t-96 -38q-49 0 -76 36q-18 23 -33 23q-29 0 -35 -46h-90z" />
    <glyph glyph-name="itilde" unicode="&#x129;" horiz-adv-x="261" 
d="M96 460h161l-57 -460h-160zM5 520q7 60 41 98t91 38q47 0 75 -36q19 -23 38 -23q31 0 37 46h90q-7 -60 -42 -98t-96 -38q-49 0 -76 36q-18 23 -33 23q-29 0 -35 -46h-90z" />
    <glyph glyph-name="Imacron" unicode="&#x12a;" horiz-adv-x="265" 
d="M102 706l12 100h212l-12 -100h-212zM40 0l80 650h165l-80 -650h-165z" />
    <glyph glyph-name="imacron" unicode="&#x12b;" horiz-adv-x="261" 
d="M79 523l12 100h212l-12 -100h-212zM40 0l56 460h161l-57 -460h-160z" />
    <glyph glyph-name="Iogonek" unicode="&#x12e;" horiz-adv-x="265" 
d="M36 -87q6 51 60 87h-56l80 650h165l-80 -650h-19q-49 -33 -53 -62v-3q0 -7 5 -13t14.5 -7t12.5 -1q16 0 43 10l-11 -90q-29 -7 -55 -7q-34 0 -70.5 14.5t-36.5 60.5q0 5 1 11z" />
    <glyph glyph-name="iogonek" unicode="&#x12f;" horiz-adv-x="261" 
d="M35 -88q6 51 62 88h-57l56 460h161l-57 -460h-13q-51 -32 -55 -63v-3q0 -7 5 -13t14.5 -7t12.5 -1q16 0 43 10l-11 -90q-29 -7 -55 -7q-34 0 -70.5 14.5t-36.5 60.5q0 5 1 11zM121 578q4 30 28 49q23 18 50 18t45 -17t18 -40q0 -5 -1 -10q-4 -32 -28 -51.5t-51 -19.5
t-44.5 18t-17.5 42q0 5 1 11z" />
    <glyph glyph-name="Idotaccent" unicode="&#x130;" horiz-adv-x="265" 
d="M120 650h165l-80 -650h-165zM144 761q4 30 27.5 48.5t50.5 18.5t45 -17t18 -40q0 -5 -1 -10q-4 -32 -28 -51q-24 -20 -51 -20t-44.5 18t-17.5 42q0 5 1 11z" />
    <glyph glyph-name="dotlessi" unicode="&#x131;" horiz-adv-x="261" 
d="M40 0l56 460h161l-57 -460h-160z" />
    <glyph glyph-name="uni0136" unicode="&#x136;" horiz-adv-x="590" 
d="M40 0l80 650h165l-30 -244l196 244h186l-255 -325l188 -325h-190l-145 247l-30 -247h-165zM224 -48h130l-81 -120h-126z" />
    <glyph glyph-name="uni0137" unicode="&#x137;" horiz-adv-x="538" 
d="M120 650h160l-43 -346l131 156h185l-183 -218l148 -242h-185l-111 181l-22 -181h-160zM194 -48h130l-81 -120h-126z" />
    <glyph glyph-name="Lacute" unicode="&#x139;" horiz-adv-x="531" 
d="M142 710l74 123h134l-78 -123h-130zM40 0l80 650h165l-62 -500h286l-18 -150h-451z" />
    <glyph glyph-name="lacute" unicode="&#x13a;" horiz-adv-x="261" 
d="M142 710l74 123h134l-78 -123h-130zM40 0l80 650h161l-81 -650h-160z" />
    <glyph glyph-name="uni013B" unicode="&#x13b;" horiz-adv-x="531" 
d="M40 0l80 650h165l-62 -500h286l-18 -150h-451zM123 -168l77 120h130l-81 -120h-126z" />
    <glyph glyph-name="uni013C" unicode="&#x13c;" horiz-adv-x="261" 
d="M40 0l80 650h161l-81 -650h-160zM-21 -168l77 120h130l-81 -120h-126z" />
    <glyph glyph-name="Lcaron" unicode="&#x13d;" horiz-adv-x="531" 
d="M40 0l80 650h165l-62 -500h286l-18 -150h-451zM54 833h130l31 -64l47 64h130l-95 -123h-178z" />
    <glyph glyph-name="lcaron" unicode="&#x13e;" horiz-adv-x="261" 
d="M40 0l80 650h161l-81 -650h-160zM54 833h130l31 -64l47 64h130l-95 -123h-178z" />
    <glyph glyph-name="Lslash" unicode="&#x141;" horiz-adv-x="529" 
d="M40 0l32 260l-41 -14l19 155l41 14l29 235h165l-22 -176l90 31l-19 -155l-90 -31l-21 -169h284l-18 -150h-449z" />
    <glyph glyph-name="lslash" unicode="&#x142;" horiz-adv-x="260" 
d="M40 0l29 240l-34 -11l16 127l34 11l35 283h160l-28 -228l54 18l-16 -127l-54 -18l-36 -295h-160z" />
    <glyph glyph-name="Nacute" unicode="&#x143;" horiz-adv-x="647" 
d="M40 0l80 650h160l178 -355l44 355h165l-80 -650h-160l-179 354l-43 -354h-165zM335 710l74 123h134l-78 -123h-130z" />
    <glyph glyph-name="nacute" unicode="&#x144;" horiz-adv-x="553" 
d="M96 460h160l-4 -33q51 40 121 40q32 0 60 -9t53 -28.5t34.5 -50.5t9.5 -61q0 -18 -3 -38l-34 -280h-160l31 254q1 9 1 17q0 15 -4.5 30t-17 21.5t-20.5 8.5t-17 2q-8 0 -16.5 -2t-22 -8.5t-23.5 -24.5t-13 -44l-31 -254h-160zM264 527l74 123h134l-78 -123h-130z" />
    <glyph glyph-name="uni0145" unicode="&#x145;" horiz-adv-x="647" 
d="M40 0l80 650h160l178 -355l44 355h165l-80 -650h-160l-179 354l-43 -354h-165zM252 -48h130l-81 -120h-126z" />
    <glyph glyph-name="uni0146" unicode="&#x146;" horiz-adv-x="553" 
d="M96 460h160l-4 -33q51 40 121 40q32 0 60 -9t53 -28.5t34.5 -50.5t9.5 -61q0 -18 -3 -38l-34 -280h-160l31 254q1 9 1 17q0 15 -4.5 30t-17 21.5t-20.5 8.5t-17 2q-8 0 -16.5 -2t-22 -8.5t-23.5 -24.5t-13 -44l-31 -254h-160zM124 -168l77 120h130l-81 -120h-126z" />
    <glyph glyph-name="Ncaron" unicode="&#x147;" horiz-adv-x="647" 
d="M120 650h160l178 -355l44 355h165l-80 -650h-160l-179 354l-43 -354h-165zM247 833h130l31 -64l47 64h130l-95 -123h-178z" />
    <glyph glyph-name="ncaron" unicode="&#x148;" horiz-adv-x="553" 
d="M96 460h160l-4 -33q51 40 121 40q32 0 60 -9t53 -28.5t34.5 -50.5t9.5 -61q0 -18 -3 -38l-34 -280h-160l31 254q1 9 1 17q0 15 -4.5 30t-17 21.5t-20.5 8.5t-17 2q-8 0 -16.5 -2t-22 -8.5t-23.5 -24.5t-13 -44l-31 -254h-160zM306 650l31 -64l47 64h130l-95 -123h-178
l-65 123h130z" />
    <glyph glyph-name="Omacron" unicode="&#x14c;" horiz-adv-x="731" 
d="M70 325q18 145 122 239t248 94t216.5 -85.5t72.5 -195.5q0 -25 -10.5 -111t-113.5 -180t-247 -94t-217.5 85.5t-73.5 196.5q0 25 3 51zM266 204q39 -47 112 -47t123.5 47t56 91t5.5 57q0 56 -35 98.5t-108 42.5t-124.5 -47t-57 -91t-5.5 -56q0 -57 33 -95zM340 706
l12 100h212l-12 -100h-212z" />
    <glyph glyph-name="omacron" unicode="&#x14d;" horiz-adv-x="539" 
d="M48 230q13 105 89 172.5t181 67.5t158 -61.5t53 -141.5q0 -18 -2 -37q-13 -103 -88.5 -171.5t-179.5 -68.5q-105 0 -159 62.5t-54 141.5q0 18 2 36zM220 167q20 -25 57 -25t62.5 25t28.5 48t3 30q0 28 -17.5 50t-54.5 22t-63 -24.5t-29 -47.5t-3 -30q0 -28 16 -48z
M231 623h212l-12 -100h-212z" />
    <glyph glyph-name="Ohungarumlaut" unicode="&#x150;" horiz-adv-x="731" 
d="M70 325q18 145 122 239t248 94t216.5 -85.5t72.5 -195.5q0 -25 -10.5 -111t-113.5 -180t-247 -94t-217.5 85.5t-73.5 196.5q0 25 3 51zM266 204q39 -47 112 -47t123.5 47t56 91t5.5 57q0 56 -35 98.5t-108 42.5t-124.5 -47t-57 -91t-5.5 -56q0 -57 33 -95zM479 710
l76 123h134l-100 -123h-110zM274 710l76 123h134l-100 -123h-110z" />
    <glyph glyph-name="ohungarumlaut" unicode="&#x151;" horiz-adv-x="539" 
d="M48 230q13 105 89 172.5t181 67.5t158 -61.5t53 -141.5q0 -18 -2 -37q-13 -103 -88.5 -171.5t-179.5 -68.5q-105 0 -159 62.5t-54 141.5q0 18 2 36zM220 167q20 -25 57 -25t62.5 25t28.5 48t3 30q0 28 -17.5 50t-54.5 22t-63 -24.5t-29 -47.5t-3 -30q0 -28 16 -48z
M358 527l76 123h134l-100 -123h-110zM229 650h134l-100 -123h-110z" />
    <glyph glyph-name="OE" unicode="&#x152;" horiz-adv-x="973" 
d="M363 -8q-145 0 -228 94t-65 239t123 239t252 94q86 0 152 -36l4 28h397l-19 -150h-232l-12 -103h211l-19 -150h-211l-12 -97h232l-18 -150h-397l4 29q-74 -37 -162 -37zM383 157q72 0 120.5 46.5t57.5 121.5t-27.5 121.5t-108.5 46.5q-79 0 -130 -46.5t-60 -121.5
t30 -121.5t118 -46.5z" />
    <glyph glyph-name="oe" unicode="&#x153;" horiz-adv-x="820" 
d="M562 -10q-97 0 -152 57q-69 -55 -160 -55q-102 0 -158.5 67.5t-43.5 170.5t85.5 170t174.5 67q90 0 146 -53q70 55 162 55q103 0 154 -67t38 -172l-5 -42h-297q5 -30 24.5 -46.5t47.5 -16.5q55 0 91 36l101 -70q-36 -47 -91 -74t-117 -27zM520 287h144q-10 57 -64 57
q-51 0 -80 -57zM269 149q73 0 83 81q10 80 -63 80q-74 0 -84 -80q-10 -81 64 -81z" />
    <glyph glyph-name="Racute" unicode="&#x154;" horiz-adv-x="620" 
d="M40 0l80 650h319q80 0 130 -53t50 -132q0 -19 -2 -39q-9 -75 -47.5 -126.5t-93.5 -77.5l104 -222h-190l-93 201h-67l-25 -201h-165zM375 361q28 0 50.5 16.5t26.5 48.5q1 6 1 11q0 23 -17 38t-45 15h-126l-16 -129h126zM287 710l74 123h134l-78 -123h-130z" />
    <glyph glyph-name="racute" unicode="&#x155;" horiz-adv-x="392" 
d="M96 460h160l-10 -83q68 88 173 90l-18 -150h-6h-9q-146 0 -163 -131l-23 -186h-160zM212 527l74 123h134l-78 -123h-130z" />
    <glyph glyph-name="uni0156" unicode="&#x156;" horiz-adv-x="620" 
d="M120 650h319q80 0 130 -53t50 -132q0 -19 -2 -39q-9 -75 -47.5 -126.5t-93.5 -77.5l104 -222h-190l-93 201h-67l-25 -201h-165zM375 361q28 0 50.5 16.5t26.5 48.5q1 6 1 11q0 23 -17 38t-45 15h-126l-16 -129h126zM145 -168l77 120h130l-81 -120h-126z" />
    <glyph glyph-name="uni0157" unicode="&#x157;" horiz-adv-x="392" 
d="M40 0l56 460h160l-10 -83q68 88 173 90l-18 -150h-6h-9q-146 0 -163 -131l-23 -186h-160zM-21 -168l77 120h130l-81 -120h-126z" />
    <glyph glyph-name="Rcaron" unicode="&#x158;" horiz-adv-x="620" 
d="M120 650h319q80 0 130 -53t50 -132q0 -19 -2 -39q-9 -75 -47.5 -126.5t-93.5 -77.5l104 -222h-190l-93 201h-67l-25 -201h-165zM329 833l31 -64l47 64h130l-95 -123h-178l-65 123h130zM249 361h126q28 0 50.5 16.5t26.5 48.5q1 6 1 11q0 23 -17 38t-45 15h-126z" />
    <glyph glyph-name="rcaron" unicode="&#x159;" horiz-adv-x="392" 
d="M96 460h160l-10 -83q68 88 173 90l-18 -150h-6h-9q-146 0 -163 -131l-23 -186h-160zM254 650l31 -64l47 64h130l-95 -123h-178l-65 123h130z" />
    <glyph glyph-name="Sacute" unicode="&#x15a;" horiz-adv-x="615" 
d="M182 247q16 -27 63 -60.5t102 -33.5q62 0 66 38v3q0 13 -17.5 24t-56.5 23.5t-46 15.5q-3 1 -28.5 10.5t-43.5 16.5t-44 24t-41.5 36t-24 44.5t-8.5 49.5q0 10 1 20q9 71 54.5 118.5t104 66.5t127.5 19q91 0 160.5 -45.5t83.5 -100.5l-139 -87q-15 22 -55.5 45t-90.5 23
q-49 0 -54 -30v-2q0 -9 7 -18t21.5 -16t28 -12t32.5 -11t28 -10q2 -1 23.5 -9t35 -14.5t37 -18.5t38.5 -26.5t30 -33.5t19.5 -39.5t4.5 -38.5q0 -9 -1 -19q-12 -102 -91.5 -156.5t-199.5 -54.5q-109 0 -179.5 49.5t-89.5 113.5zM331 710l74 123h134l-78 -123h-130z" />
    <glyph glyph-name="sacute" unicode="&#x15b;" horiz-adv-x="451" 
d="M139 173q5 -16 37.5 -39t64.5 -23q38 0 41 20v2q0 5 -3.5 10t-11.5 9t-16 7t-20 7t-19 7q-1 0 -17 6t-26 11t-27.5 14.5t-28.5 20t-22.5 25t-15 29.5t-3.5 28q0 8 1 17q9 74 69 110.5t141 36.5q73 0 121 -29.5t65 -71.5l-110 -68q-11 15 -40.5 31.5t-56.5 16.5
q-31 0 -33 -18v-3q0 -5 3.5 -10.5t12 -10t16 -8t20 -8t18.5 -6.5q1 0 13 -4.5t18.5 -7.5t20.5 -9.5t22.5 -13t21 -15.5t20 -19t14 -22t8.5 -23.5t2 -20.5q0 -7 -1 -14q-9 -74 -66 -113t-149 -39q-83 0 -134.5 34t-66.5 80zM224 527l74 123h134l-78 -123h-130z" />
    <glyph glyph-name="Scedilla" unicode="&#x15e;" horiz-adv-x="615" 
d="M39 151l143 96q16 -27 63 -60.5t102 -33.5q62 0 66 38v3q0 13 -17.5 24t-56.5 23.5t-46 15.5q-3 1 -28.5 10.5t-43.5 16.5t-44 24t-41.5 36t-24 44.5t-8.5 49.5q0 10 1 20q9 71 54.5 118.5t104 66.5t127.5 19q91 0 160.5 -45.5t83.5 -100.5l-139 -87q-15 22 -55.5 45
t-90.5 23q-49 0 -54 -30v-2q0 -9 7 -18t21.5 -16t28 -12t32.5 -11t28 -10q2 -1 23.5 -9t35 -14.5t37 -18.5t38.5 -26.5t30 -33.5t19.5 -39.5t4.5 -38.5q0 -9 -1 -19q-10 -86 -70 -139t-154 -67l-19 -27q62 -14 62 -62q0 -5 -1 -10q-4 -30 -28.5 -49.5t-53 -26.5t-61.5 -7
q-46 0 -64 10l8 69q17 -13 64 -13q37 0 39 17v2q0 7 -9 10.5t-29 3.5q-33 0 -45 -6l6 54l23 32q-92 10 -151.5 57t-76.5 104z" />
    <glyph glyph-name="scedilla" unicode="&#x15f;" horiz-adv-x="451" 
d="M22 99l117 74q5 -16 37.5 -39t64.5 -23q38 0 41 20v2q0 5 -3.5 10t-11.5 9t-16 7t-20 7t-19 7q-1 0 -17 6t-26 11t-27.5 14.5t-28.5 20t-22.5 25t-15 29.5t-3.5 28q0 8 1 17q9 74 69 110.5t141 36.5q73 0 121 -29.5t65 -71.5l-110 -68q-11 15 -40.5 31.5t-56.5 16.5
q-31 0 -33 -18v-3q0 -5 3.5 -10.5t12 -10t16 -8t20 -8t18.5 -6.5q1 0 13 -4.5t18.5 -7.5t20.5 -9.5t22.5 -13t21 -15.5t20 -19t14 -22t8.5 -23.5t2 -20.5q0 -7 -1 -14q-7 -61 -47.5 -98.5t-106.5 -48.5l-15 -21q62 -14 62 -62q0 -5 -1 -10q-4 -30 -28.5 -49.5t-53 -26.5
t-61.5 -7q-47 0 -64 10l8 69q17 -13 64 -13q37 0 39 17v2q0 7 -9 10.5t-29 3.5q-33 0 -45 -6l6 54l20 27q-64 10 -103 41t-52 70z" />
    <glyph glyph-name="Scaron" unicode="&#x160;" horiz-adv-x="615" 
d="M182 247q16 -27 63 -60.5t102 -33.5q62 0 66 38v3q0 13 -17.5 24t-56.5 23.5t-46 15.5q-3 1 -28.5 10.5t-43.5 16.5t-44 24t-41.5 36t-24 44.5t-8.5 49.5q0 10 1 20q9 71 54.5 118.5t104 66.5t127.5 19q91 0 160.5 -45.5t83.5 -100.5l-139 -87q-15 22 -55.5 45t-90.5 23
q-49 0 -54 -30v-2q0 -9 7 -18t21.5 -16t28 -12t32.5 -11t28 -10q2 -1 23.5 -9t35 -14.5t37 -18.5t38.5 -26.5t30 -33.5t19.5 -39.5t4.5 -38.5q0 -9 -1 -19q-12 -102 -91.5 -156.5t-199.5 -54.5q-109 0 -179.5 49.5t-89.5 113.5zM243 833h130l31 -64l47 64h130l-95 -123h-178
z" />
    <glyph glyph-name="scaron" unicode="&#x161;" horiz-adv-x="451" 
d="M139 173q5 -16 37.5 -39t64.5 -23q38 0 41 20v2q0 5 -3.5 10t-11.5 9t-16 7t-20 7t-19 7q-1 0 -17 6t-26 11t-27.5 14.5t-28.5 20t-22.5 25t-15 29.5t-3.5 28q0 8 1 17q9 74 69 110.5t141 36.5q73 0 121 -29.5t65 -71.5l-110 -68q-11 15 -40.5 31.5t-56.5 16.5
q-31 0 -33 -18v-3q0 -5 3.5 -10.5t12 -10t16 -8t20 -8t18.5 -6.5q1 0 13 -4.5t18.5 -7.5t20.5 -9.5t22.5 -13t21 -15.5t20 -19t14 -22t8.5 -23.5t2 -20.5q0 -7 -1 -14q-9 -74 -66 -113t-149 -39q-83 0 -134.5 34t-66.5 80zM266 650l31 -64l47 64h130l-95 -123h-178l-65 123
h130z" />
    <glyph glyph-name="uni0162" unicode="&#x162;" horiz-adv-x="592" 
d="M100 650h532l-19 -150h-183l-61 -500h-20l-21 -29q62 -14 62 -62q0 -5 -1 -10q-4 -30 -28.5 -49.5t-53 -26.5t-61.5 -7q-46 0 -64 10l8 69q17 -13 64 -13q37 0 39 17v2q0 7 -9 10.5t-29 3.5q-33 0 -45 -6l6 54l27 37h-39l61 500h-184z" />
    <glyph glyph-name="uni0163" unicode="&#x163;" horiz-adv-x="357" 
d="M52 340l14 120h57l18 142h160l-18 -142h90l-14 -120h-90l-21 -165q-1 -7 -1 -13q0 -36 31 -39h49l-15 -123h-26l-21 -29q62 -14 62 -62q0 -5 -1 -10q-4 -30 -28.5 -49.5t-53 -26.5t-61.5 -7q-47 0 -64 10l8 69q17 -13 64 -13q37 0 39 17v2q0 7 -9 10.5t-29 3.5
q-33 0 -45 -6l6 54l29 39q-99 15 -99 116q0 14 2 30l24 192h-57z" />
    <glyph glyph-name="Tcaron" unicode="&#x164;" horiz-adv-x="592" 
d="M81 500l19 150h532l-19 -150h-183l-61 -500h-165l61 500h-184zM218 833h130l31 -64l47 64h130l-95 -123h-178z" />
    <glyph glyph-name="tcaron" unicode="&#x165;" horiz-adv-x="357" 
d="M52 340l14 120h57l18 142h160l-18 -142h90l-14 -120h-90l-21 -165q-1 -7 -1 -13q0 -36 31 -39h49l-15 -123h-94q-135 0 -135 119q0 14 2 29l24 192h-57zM198 773l31 -64l47 64h130l-95 -123h-178l-65 123h130z" />
    <glyph glyph-name="Tbar" unicode="&#x166;" horiz-adv-x="592" 
d="M204 0l24 194h-94l18 150h94l19 156h-184l19 150h532l-19 -150h-183l-19 -156h94l-18 -150h-94l-24 -194h-165z" />
    <glyph glyph-name="Utilde" unicode="&#x168;" horiz-adv-x="614" 
d="M68 232l52 418h165l-49 -399q-2 -12 -2 -23q0 -36 21.5 -56t60.5 -20q91 0 104 99l49 399h165l-52 -418q-12 -100 -89 -170t-197 -70t-175 64t-55 144q0 15 2 32zM204 703q7 60 41 98t91 38q47 0 75 -36q19 -23 38 -23q31 0 37 46h90q-7 -60 -42 -98t-96 -38
q-49 0 -76 36q-18 23 -33 23q-29 0 -35 -46h-90z" />
    <glyph glyph-name="utilde" unicode="&#x169;" horiz-adv-x="553" 
d="M62 179l34 281h160l-31 -255q-1 -9 -1 -16q0 -16 5 -31t17 -21.5t20 -8.5t17 -2q8 0 16.5 2t22 8.5t23.5 24.5t13 44l31 255h160l-56 -460h-160l4 32q-51 -40 -121 -40q-71 0 -113.5 39t-42.5 110q0 18 2 38zM153 520q7 60 41 98t91 38q47 0 75 -36q19 -23 38 -23
q31 0 37 46h90q-7 -60 -42 -98t-96 -38q-49 0 -76 36q-18 23 -33 23q-29 0 -35 -46h-90z" />
    <glyph glyph-name="Umacron" unicode="&#x16a;" horiz-adv-x="614" 
d="M68 232l52 418h165l-49 -399q-2 -12 -2 -23q0 -36 21.5 -56t60.5 -20q91 0 104 99l49 399h165l-52 -418q-12 -100 -89 -170t-197 -70t-175 64t-55 144q0 15 2 32zM278 706l12 100h212l-12 -100h-212z" />
    <glyph glyph-name="umacron" unicode="&#x16b;" horiz-adv-x="553" 
d="M62 179l34 281h160l-31 -255q-1 -9 -1 -16q0 -16 5 -31t17 -21.5t20 -8.5t17 -2q8 0 16.5 2t22 8.5t23.5 24.5t13 44l31 255h160l-56 -460h-160l4 32q-51 -40 -121 -40q-71 0 -113.5 39t-42.5 110q0 18 2 38zM227 523l12 100h212l-12 -100h-212z" />
    <glyph glyph-name="Uring" unicode="&#x16e;" horiz-adv-x="614" 
d="M68 232l52 418h165l-49 -399q-2 -12 -2 -23q0 -36 21.5 -56t60.5 -20q91 0 104 99l49 399h165l-52 -418q-12 -100 -89 -170t-197 -70t-175 64t-55 144q0 15 2 32zM286 790q5 45 38.5 73t81.5 28q49 0 72.5 -25.5t23.5 -61.5q0 -7 -1 -14q-5 -43 -38 -71q-33 -29 -81 -29
t-72.5 26.5t-24.5 60.5q0 6 1 13zM390 757q20 0 29 10.5t10 22.5v5q0 29 -31 29q-35 0 -38 -34v-5q0 -28 30 -28z" />
    <glyph glyph-name="uring" unicode="&#x16f;" horiz-adv-x="553" 
d="M62 179l34 281h160l-31 -255q-1 -9 -1 -16q0 -16 5 -31t17 -21.5t20 -8.5t17 -2q8 0 16.5 2t22 8.5t23.5 24.5t13 44l31 255h160l-56 -460h-160l4 32q-51 -40 -121 -40q-71 0 -113.5 39t-42.5 110q0 18 2 38zM235 607q5 45 38.5 73t81.5 28q49 0 72.5 -25.5t23.5 -61.5
q0 -7 -1 -14q-5 -43 -38 -71q-33 -29 -81 -29t-72.5 26.5t-24.5 60.5q0 6 1 13zM339 574q20 0 29 10.5t10 22.5v5q0 29 -31 29q-35 0 -38 -34v-5q0 -28 30 -28z" />
    <glyph glyph-name="Uhungarumlaut" unicode="&#x170;" horiz-adv-x="614" 
d="M68 232l52 418h165l-49 -399q-2 -12 -2 -23q0 -36 21.5 -56t60.5 -20q91 0 104 99l49 399h165l-52 -418q-12 -100 -89 -170t-197 -70t-175 64t-55 144q0 15 2 32zM417 710l76 123h134l-100 -123h-110zM288 833h134l-100 -123h-110z" />
    <glyph glyph-name="uhungarumlaut" unicode="&#x171;" horiz-adv-x="553" 
d="M62 179l34 281h160l-31 -255q-1 -9 -1 -16q0 -16 5 -31t17 -21.5t20 -8.5t17 -2q8 0 16.5 2t22 8.5t23.5 24.5t13 44l31 255h160l-56 -460h-160l4 32q-51 -40 -121 -40q-71 0 -113.5 39t-42.5 110q0 18 2 38zM442 650h134l-100 -123h-110zM237 650h134l-100 -123h-110z
" />
    <glyph glyph-name="Uogonek" unicode="&#x172;" horiz-adv-x="614" 
d="M68 232l52 418h165l-49 -399q-2 -12 -2 -23q0 -36 21.5 -56t60.5 -20q91 0 104 99l49 399h165l-52 -418q-11 -90 -74.5 -156.5t-164.5 -80.5q-46 -31 -50 -60v-3q0 -7 5 -13t14.5 -7t12.5 -1q16 0 43 10l-11 -90q-29 -7 -55 -7q-34 0 -70.5 14.5t-36.5 60.5q0 5 1 11
q6 47 57 85q-99 13 -143 74t-44 131q0 15 2 32z" />
    <glyph glyph-name="uogonek" unicode="&#x173;" horiz-adv-x="553" 
d="M62 179l34 281h160l-31 -255q-1 -9 -1 -16q0 -16 5 -31t17 -21.5t20 -8.5t17 -2q8 0 16.5 2t22 8.5t23.5 24.5t13 44l31 255h160l-56 -460h-22q-43 -29 -46 -57v-3q0 -7 5 -13t14.5 -7t12.5 -1q16 0 43 10l-11 -90q-29 -7 -55 -7q-34 0 -70.5 14.5t-36.5 60.5q0 5 1 11
q5 45 53 82h-48l4 32q-51 -40 -121 -40q-71 0 -113.5 39t-42.5 110q0 18 2 38z" />
    <glyph glyph-name="Wcircumflex" unicode="&#x174;" horiz-adv-x="953" 
d="M90 650h175l73 -351l158 351h121l70 -329l151 329h175l-297 -650h-142l-64 309l-141 -309h-142zM485 833h178l65 -123h-130l-31 69l-47 -69h-130z" />
    <glyph glyph-name="wcircumflex" unicode="&#x175;" horiz-adv-x="777" 
d="M60 460h165l41 -234l111 234h120l55 -234l96 234h165l-203 -460h-155l-49 222l-102 -222h-155zM275 527l95 123h178l65 -123h-130l-31 69l-47 -69h-130z" />
    <glyph glyph-name="Ycircumflex" unicode="&#x176;" horiz-adv-x="649" 
d="M85 650h189l97 -208l149 208h189l-276 -380l-33 -270h-165l33 268zM330 833h178l65 -123h-130l-31 69l-47 -69h-130z" />
    <glyph glyph-name="ycircumflex" unicode="&#x177;" horiz-adv-x="539" 
d="M221 460l65 -239l124 239h165l-335 -644h-155l96 184l-125 460h165zM250 650h178l65 -123h-130l-31 69l-47 -69h-130z" />
    <glyph glyph-name="Ydieresis" unicode="&#x178;" horiz-adv-x="649" 
d="M85 650h189l97 -208l149 208h189l-276 -380l-33 -270h-165l33 268zM243 761q4 30 27.5 48.5t50.5 18.5t45 -17t18 -40q0 -5 -1 -10q-4 -32 -28 -51q-24 -20 -51 -20t-44.5 18t-17.5 42q0 5 1 11zM438 761q4 30 27.5 48.5t50.5 18.5t45 -17t18 -40q0 -5 -1 -10
q-4 -32 -28 -51q-24 -20 -51 -20t-44.5 18t-17.5 42q0 5 1 11z" />
    <glyph glyph-name="Zacute" unicode="&#x179;" horiz-adv-x="544" 
d="M293 710l74 123h134l-78 -123h-130zM30 0l17 137l309 362h-259l19 151h468l-17 -138l-312 -361l262 -1l-18 -150h-469z" />
    <glyph glyph-name="zacute" unicode="&#x17a;" horiz-adv-x="420" 
d="M199 527l74 123h134l-78 -123h-130zM20 0l14 118l184 212h-157l15 130h360l-14 -118l-184 -212h158l-16 -130h-360z" />
    <glyph glyph-name="Zdotaccent" unicode="&#x17b;" horiz-adv-x="544" 
d="M30 0l17 137l309 362h-259l19 151h468l-17 -138l-312 -361l262 -1l-18 -150h-469zM295 761q4 30 27.5 48.5t50.5 18.5t45 -17t18 -40q0 -5 -1 -10q-4 -32 -28 -51q-24 -20 -51 -20t-44.5 18t-17.5 42q0 5 1 11z" />
    <glyph glyph-name="zdotaccent" unicode="&#x17c;" horiz-adv-x="420" 
d="M20 0l14 118l184 212h-157l15 130h360l-14 -118l-184 -212h158l-16 -130h-360zM201 578q4 30 27.5 48.5t50.5 18.5t45 -17t18 -40q0 -5 -1 -10q-4 -32 -28 -51q-24 -20 -51 -20t-44.5 18t-17.5 42q0 5 1 11z" />
    <glyph glyph-name="Zcaron" unicode="&#x17d;" horiz-adv-x="544" 
d="M30 0l17 137l309 362h-259l19 151h468l-17 -138l-312 -361l262 -1l-18 -150h-469zM205 833h130l31 -64l47 64h130l-95 -123h-178z" />
    <glyph glyph-name="zcaron" unicode="&#x17e;" horiz-adv-x="420" 
d="M20 0l14 118l184 212h-157l15 130h360l-14 -118l-184 -212h158l-16 -130h-360zM111 650h130l31 -64l47 64h130l-95 -123h-178z" />
    <glyph glyph-name="uni01CD" unicode="&#x1cd;" horiz-adv-x="677" 
d="M351 650h125l181 -650h-175l-19 72h-241l-37 -72h-175zM398 833l31 -64l47 64h130l-95 -123h-178l-65 123h130zM423 222l-43 164l-83 -164h126z" />
    <glyph glyph-name="uni01CE" unicode="&#x1ce;" 
d="M48 230q13 104 82 170.5t161 66.5q66 0 102 -36l3 29h160l-56 -460h-160l3 28q-46 -36 -110 -36q-92 0 -140 61.5t-48 137.5q0 19 3 39zM336 650l31 -64l47 64h130l-95 -123h-178l-65 123h130zM218 167q20 -25 57 -25t62.5 25t28.5 48t3 30q0 28 -17.5 50t-54.5 22
t-63 -24.5t-29 -47.5t-3 -30q0 -28 16 -48z" />
    <glyph glyph-name="uni01CF" unicode="&#x1cf;" horiz-adv-x="265" 
d="M40 0l80 650h165l-80 -650h-165zM54 833h130l31 -64l47 64h130l-95 -123h-178z" />
    <glyph glyph-name="uni01D0" unicode="&#x1d0;" horiz-adv-x="261" 
d="M96 460h161l-57 -460h-160zM31 650h130l31 -64l47 64h130l-95 -123h-178z" />
    <glyph glyph-name="uni01D1" unicode="&#x1d1;" horiz-adv-x="731" 
d="M70 325q18 145 122 239t248 94t216.5 -85.5t72.5 -195.5q0 -25 -10.5 -111t-113.5 -180t-247 -94t-217.5 85.5t-73.5 196.5q0 25 3 51zM266 204q39 -47 112 -47t123.5 47t56 91t5.5 57q0 56 -35 98.5t-108 42.5t-124.5 -47t-57 -91t-5.5 -56q0 -57 33 -95zM422 833
l31 -64l47 64h130l-95 -123h-178l-65 123h130z" />
    <glyph glyph-name="uni01D2" unicode="&#x1d2;" horiz-adv-x="539" 
d="M48 230q13 105 89 172.5t181 67.5t158 -61.5t53 -141.5q0 -18 -2 -37q-13 -103 -88.5 -171.5t-179.5 -68.5q-105 0 -159 62.5t-54 141.5q0 18 2 36zM171 650h130l31 -64l47 64h130l-95 -123h-178zM220 167q20 -25 57 -25t62.5 25t28.5 48t3 30q0 28 -17.5 50t-54.5 22
t-63 -24.5t-29 -47.5t-3 -30q0 -28 16 -48z" />
    <glyph glyph-name="uni01D3" unicode="&#x1d3;" horiz-adv-x="614" 
d="M68 232l52 418h165l-49 -399q-2 -12 -2 -23q0 -36 21.5 -56t60.5 -20q91 0 104 99l49 399h165l-52 -418q-12 -100 -89 -170t-197 -70t-175 64t-55 144q0 15 2 32zM360 833l31 -64l47 64h130l-95 -123h-178l-65 123h130z" />
    <glyph glyph-name="uni01D4" unicode="&#x1d4;" horiz-adv-x="553" 
d="M62 179l34 281h160l-31 -255q-1 -9 -1 -16q0 -16 5 -31t17 -21.5t20 -8.5t17 -2q8 0 16.5 2t22 8.5t23.5 24.5t13 44l31 255h160l-56 -460h-160l4 32q-51 -40 -121 -40q-71 0 -113.5 39t-42.5 110q0 18 2 38zM309 650l31 -64l47 64h130l-95 -123h-178l-65 123h130z" />
    <glyph glyph-name="Gcaron" unicode="&#x1e6;" horiz-adv-x="721" 
d="M70 325q18 145 122 239t248 94q85 0 148.5 -34.5t98.5 -95.5l-145 -99q-39 64 -122 64q-73 0 -124.5 -47t-57 -91t-5.5 -57q0 -56 36 -98.5t109 -42.5q39 0 76.5 19.5t54.5 57.5h-131l18 150h322l-9 -74q-23 -141 -117.5 -229.5t-233.5 -88.5q-144 0 -217.5 85.5
t-73.5 196.5q0 25 3 51zM291 833h130l31 -64l47 64h130l-95 -123h-178z" />
    <glyph glyph-name="gcaron" unicode="&#x1e7;" 
d="M153 -28q33 -38 90 -38q9 0 21 2.5t30 11t32 29.5t18 52q-48 -37 -112 -37q-92 0 -139.5 61t-47.5 138q0 19 8 80.5t76.5 128.5t160.5 67q64 0 103 -37l3 30h160l-52 -429q-12 -103 -85 -167t-193 -64q-62 0 -110.5 23t-76.5 62zM181 650h130l31 -64l47 64h130l-95 -123
h-178zM218 167q19 -25 56 -25t63 25t29 48t3 30q0 28 -18 50t-55 22t-62.5 -24.5t-28.5 -47.5t-3 -30q0 -28 16 -48z" />
    <glyph glyph-name="uni0218" unicode="&#x218;" horiz-adv-x="615" 
d="M182 247q16 -27 63 -60.5t102 -33.5q62 0 66 38v3q0 13 -17.5 24t-56.5 23.5t-46 15.5q-3 1 -28.5 10.5t-43.5 16.5t-44 24t-41.5 36t-24 44.5t-8.5 49.5q0 10 1 20q9 71 54.5 118.5t104 66.5t127.5 19q91 0 160.5 -45.5t83.5 -100.5l-139 -87q-15 22 -55.5 45t-90.5 23
q-49 0 -54 -30v-2q0 -9 7 -18t21.5 -16t28 -12t32.5 -11t28 -10q2 -1 23.5 -9t35 -14.5t37 -18.5t38.5 -26.5t30 -33.5t19.5 -39.5t4.5 -38.5q0 -9 -1 -19q-12 -102 -91.5 -156.5t-199.5 -54.5q-109 0 -179.5 49.5t-89.5 113.5zM250 -50h130l-81 -120h-126z" />
    <glyph glyph-name="uni0219" unicode="&#x219;" horiz-adv-x="451" 
d="M139 173q5 -16 37.5 -39t64.5 -23q38 0 41 20v2q0 5 -3.5 10t-11.5 9t-16 7t-20 7t-19 7q-1 0 -17 6t-26 11t-27.5 14.5t-28.5 20t-22.5 25t-15 29.5t-3.5 28q0 8 1 17q9 74 69 110.5t141 36.5q73 0 121 -29.5t65 -71.5l-110 -68q-11 15 -40.5 31.5t-56.5 16.5
q-31 0 -33 -18v-3q0 -5 3.5 -10.5t12 -10t16 -8t20 -8t18.5 -6.5q1 0 13 -4.5t18.5 -7.5t20.5 -9.5t22.5 -13t21 -15.5t20 -19t14 -22t8.5 -23.5t2 -20.5q0 -7 -1 -14q-9 -74 -66 -113t-149 -39q-83 0 -134.5 34t-66.5 80zM162 -53h130l-81 -120h-126z" />
    <glyph glyph-name="uni021A" unicode="&#x21a;" horiz-adv-x="592" 
d="M100 650h532l-19 -150h-183l-61 -500h-165l61 500h-184zM144 -168l77 120h130l-81 -120h-126z" />
    <glyph glyph-name="uni021B" unicode="&#x21b;" horiz-adv-x="357" 
d="M52 340l14 120h57l18 142h160l-18 -142h90l-14 -120h-90l-21 -165q-1 -7 -1 -13q0 -36 31 -39h49l-15 -123h-94q-135 0 -135 119q0 14 2 29l24 192h-57zM158 -45h130l-81 -120h-126z" />
    <glyph glyph-name="circumflex" unicode="&#x2c6;" horiz-adv-x="378" 
d="M85 527l95 123h178l65 -123h-130l-31 69l-47 -69h-130z" />
    <glyph glyph-name="caron" unicode="&#x2c7;" horiz-adv-x="378" 
d="M165 527l-65 123h130l31 -64l47 64h130l-95 -123h-178z" />
    <glyph glyph-name="breve" unicode="&#x2d8;" horiz-adv-x="296" 
d="M213 525q-58 0 -89.5 30.5t-24.5 91.5l1 3h90l-1 -3q-5 -42 34 -42q37 0 42 42l1 3h90l-1 -3q-7 -61 -45.5 -91.5t-96.5 -30.5z" />
    <glyph glyph-name="dotaccent" unicode="&#x2d9;" horiz-adv-x="180" 
d="M159 563q-27 0 -46 19.5t-15 51.5q4 30 27.5 48.5t50.5 18.5t46.5 -18.5t15.5 -48.5q-4 -32 -28 -51.5t-51 -19.5z" />
    <glyph glyph-name="ring" unicode="&#x2da;" horiz-adv-x="255" 
d="M188 486q-48 0 -74.5 29t-21.5 71q5 45 38.5 73t81.5 28q49 0 74.5 -28t20.5 -73q-5 -43 -38 -71.5t-81 -28.5zM196 553q20 0 29 10.5t10 22.5q3 34 -31 34q-35 0 -38 -34q-3 -33 30 -33z" />
    <glyph glyph-name="ogonek" unicode="&#x2db;" horiz-adv-x="202" 
d="M161 -175q-66 -15 -112.5 4.5t-40.5 74.5q4 34 26.5 59.5t44.5 36.5h80q-58 -40 -62 -71q-1 -9 4.5 -15.5t22.5 -8.5t48 10z" />
    <glyph glyph-name="tilde" unicode="&#x2dc;" horiz-adv-x="397" 
d="M324 557q-49 0 -76 36q-18 23 -33 23q-29 0 -35 -46h-90q7 60 41 98t91 38q47 0 75 -36q19 -23 38 -23q31 0 37 46h90q-7 -60 -42 -98t-96 -38z" />
    <glyph glyph-name="hungarumlaut" unicode="&#x2dd;" horiz-adv-x="440" 
d="M85 527l76 123h134l-100 -123h-110zM290 527l76 123h134l-100 -123h-110z" />
    <glyph glyph-name="gravecomb" unicode="&#x300;" horiz-adv-x="0" 
d="M-85 527l-48 123h134l44 -123h-130z" />
    <glyph glyph-name="acutecomb" unicode="&#x301;" horiz-adv-x="0" 
d="M-148 527l74 123h134l-78 -123h-130z" />
    <glyph glyph-name="uni0302" unicode="&#x302;" horiz-adv-x="0" 
d="M-198 650h178l65 -123h-130l-31 69l-47 -69h-130z" />
    <glyph glyph-name="tildecomb" unicode="&#x303;" horiz-adv-x="0" 
d="M-266 668q34 38 91 38q47 0 75 -36q19 -23 38 -23q31 0 37 46h90q-7 -60 -42 -98t-96 -38q-49 0 -76 36q-18 23 -33 23q-29 0 -35 -46h-90q7 60 41 98z" />
    <glyph glyph-name="uni0304" unicode="&#x304;" horiz-adv-x="0" 
d="M-164 550l12 100h212l-12 -100h-212z" />
    <glyph glyph-name="uni0306" unicode="&#x306;" horiz-adv-x="0" 
d="M-217 647l1 3h90l-1 -3v-5q0 -15 11 -27t33 -12t36 13t16 31l1 3h90l-1 -3q-7 -57 -48.5 -90.5t-103.5 -33.5q-63 0 -94 30.5t-31 74.5q0 9 1 19z" />
    <glyph glyph-name="uni0307" unicode="&#x307;" horiz-adv-x="0" 
d="M-82 634q4 30 27.5 48.5t50.5 18.5t45 -17t18 -40q0 -5 -1 -10q-4 -32 -28 -51q-24 -20 -51 -20t-44.5 18t-17.5 42q0 5 1 11z" />
    <glyph glyph-name="uni0308" unicode="&#x308;" horiz-adv-x="0" 
d="M-286 634q4 30 27.5 48.5t50.5 18.5t45 -17t18 -40q0 -5 -1 -10q-4 -32 -28 -51q-24 -20 -51 -20t-44.5 18t-17.5 42q0 5 1 11zM-91 634q4 30 27.5 48.5t50.5 18.5t45 -17t18 -40q0 -5 -1 -10q-4 -32 -28 -51q-24 -20 -51 -20t-44.5 18t-17.5 42q0 5 1 11z" />
    <glyph glyph-name="uni030A" unicode="&#x30a;" horiz-adv-x="0" 
d="M-163 586q5 45 38.5 73t81.5 28q49 0 72.5 -25.5t23.5 -61.5q0 -7 -1 -14q-5 -43 -38 -71q-33 -29 -81 -29t-72.5 26.5t-24.5 60.5q0 6 1 13zM-59 553q20 0 29 10.5t10 22.5v5q0 29 -31 29q-35 0 -38 -34v-5q0 -28 30 -28z" />
    <glyph glyph-name="uni030B" unicode="&#x30b;" horiz-adv-x="0" 
d="M-74 650h134l-100 -123h-110zM-355 527l76 123h134l-100 -123h-110z" />
    <glyph glyph-name="uni030C" unicode="&#x30c;" horiz-adv-x="0" 
d="M-278 650h130l31 -64l47 64h130l-95 -123h-178z" />
    <glyph glyph-name="uni0312" unicode="&#x312;" horiz-adv-x="0" 
d="M-90 607q6 53 84 103h73q-36 -24 -52 -45q35 -12 35 -50v-8q-3 -26 -23 -46q-21 -20 -54 -20t-48 18.5t-15 39.5v8z" />
    <glyph glyph-name="dotbelowcomb" unicode="&#x323;" horiz-adv-x="0" 
d="M-168 -67q4 30 27.5 48.5t50.5 18.5t45 -17t18 -40q0 -5 -1 -10q-4 -32 -28 -52q-24 -19 -51 -19t-44.5 18t-17.5 42q0 5 1 11z" />
    <glyph glyph-name="uni0326" unicode="&#x326;" horiz-adv-x="0" 
d="M-227 -120l77 120h130l-81 -120h-126z" />
    <glyph glyph-name="uni0327" unicode="&#x327;" horiz-adv-x="0" 
d="M-242 -119q17 -13 64 -13q37 0 39 17v2q0 7 -9 10.5t-29 3.5q-33 0 -45 -6l6 54l37 51h106l-31 -43q62 -14 62 -62q0 -5 -1 -10q-4 -30 -28.5 -49.5t-53 -26.5t-61.5 -7q-47 0 -64 10z" />
    <glyph glyph-name="uni0328" unicode="&#x328;" horiz-adv-x="0" 
d="M-202 -96q4 33 28 59t48 37h88l-10 -6q-10 -6 -17 -11.5t-16.5 -14.5t-16 -19t-7.5 -20v-3q0 -7 5 -13t14.5 -7t12.5 -1q16 0 43 10l-11 -90q-29 -7 -55 -7q-34 0 -70.5 14.5t-36.5 60.5q0 5 1 11z" />
    <glyph glyph-name="uni0331" unicode="&#x331;" horiz-adv-x="0" 
d="M-231 -99l12 99h199l-12 -99h-199z" />
    <glyph glyph-name="Gamma" unicode="&#x393;" horiz-adv-x="468" 
d="M40 0l80 650h368l-19 -150h-208l-61 -500h-160z" />
    <glyph glyph-name="uni0394" unicode="&#x394;" horiz-adv-x="649" 
d="M40 0l17 140l270 510h135l144 -510l-17 -140h-549zM227 140h207l-72 262z" />
    <glyph glyph-name="Sigma" unicode="&#x3a3;" horiz-adv-x="585" 
d="M40 0l14 115l249 207l-197 218l14 110h485l-19 -150h-221l155 -178l-195 -172h218l-18 -150h-485z" />
    <glyph glyph-name="Phi" unicode="&#x3a6;" horiz-adv-x="767" 
d="M308 -8l9 73q-123 15 -187 81.5t-50 179.5q14 111 94 177.5t207 81.5l9 73h130l-9 -73q124 -14 187 -80.5t49 -178.5q-14 -113 -93.5 -180t-206.5 -81l-9 -73h-130zM337 227l24 196q-112 -18 -121 -97q-9 -81 97 -99zM467 227q111 18 120 99q9 79 -96 97z" />
    <glyph glyph-name="Psi" unicode="&#x3a8;" horiz-adv-x="755" 
d="M303 0l18 150q-112 18 -176.5 95.5t-48.5 208.5l24 196h160l-24 -196q-15 -127 84 -152l43 348h130l-43 -348q106 25 121 152l24 196h160l-24 -197q-16 -131 -99.5 -208t-200.5 -95l-18 -150h-130z" />
    <glyph glyph-name="uni03A9" unicode="&#x3a9;" horiz-adv-x="786" 
d="M40 4l19 150h71q-41 76 -30 171q18 146 119.5 239.5t245.5 93.5t221.5 -93.5t59.5 -239.5q-11 -96 -72 -171h71l-19 -150h-294l19 151q42 18 70.5 42t41.5 52.5t17 45.5t7 41q3 22 -1 47t-17.5 52.5t-45.5 45t-78 17.5t-82.5 -17.5t-57 -45t-31 -52t-13.5 -47.5
q-3 -24 -3 -40t6 -45t28.5 -53t60.5 -41l-19 -153h-294z" />
    <glyph glyph-name="uni1E04" unicode="&#x1e04;" horiz-adv-x="604" 
d="M120 650h306q80 0 126 -46t46 -113q0 -15 -2 -31q-10 -82 -67 -124q60 -41 60 -118q0 -12 -1 -25q-11 -88 -79 -140.5t-148 -52.5h-321zM352 150q28 0 46.5 16.5t21.5 41.5v6q0 21 -13.5 36.5t-39.5 15.5h-129l-15 -116h129zM185 -108q4 30 27.5 48.5t50.5 18.5t45 -17
t18 -40q0 -5 -1 -10q-4 -32 -28 -52q-24 -19 -51 -19t-44.5 18t-17.5 42q0 5 1 11zM366 401q24 0 40 13t18 27t2 19q0 17 -12 28.5t-36 11.5h-112l-12 -99h112z" />
    <glyph glyph-name="uni1E05" unicode="&#x1e05;" 
d="M120 650h160l-27 -219q45 36 110 36q92 0 140 -60t48 -137q0 -20 -3 -40q-13 -103 -82 -170.5t-161 -67.5q-63 0 -102 36l-3 -28h-160zM243 167q19 -25 56 -25t63 25t29 48t3 30q0 28 -18 50t-55 22t-62.5 -24.5t-28.5 -47.5t-3 -30q0 -28 16 -48zM211 -116
q4 30 27.5 48.5t50.5 18.5t45 -17t18 -40q0 -5 -1 -10q-4 -32 -28 -52q-24 -19 -51 -19t-44.5 18t-17.5 42q0 5 1 11z" />
    <glyph glyph-name="uni1E0C" unicode="&#x1e0c;" horiz-adv-x="658" 
d="M40 0l80 650h254q142 0 212 -81.5t70 -190.5q0 -26 -10.5 -112t-110 -176t-241.5 -90h-254zM314 160q12 0 26.5 2t40 11.5t46 25.5t38.5 49t21.5 62.5t3.5 42.5q0 27 -8.5 54t-25 43.5t-39.5 26t-37 11.5t-26 2h-89l-40 -330h89zM178 -108q4 30 27.5 48.5t50.5 18.5
t45 -17t18 -40q0 -5 -1 -10q-4 -32 -28 -52q-24 -19 -51 -19t-44.5 18t-17.5 42q0 5 1 11z" />
    <glyph glyph-name="uni1E0D" unicode="&#x1e0d;" 
d="M48 230q13 104 82 170.5t161 66.5q66 0 102 -36l27 219h160l-80 -650h-160l3 28q-46 -36 -110 -36q-92 0 -140 61.5t-48 137.5q0 19 3 39zM218 167q20 -25 57 -25t62.5 25t28.5 48t3 30q0 28 -17.5 50t-54.5 22t-63 -24.5t-29 -47.5t-3 -30q0 -28 16 -48zM187 -116
q4 30 27.5 48.5t50.5 18.5t45 -17t18 -40q0 -5 -1 -10q-4 -32 -28 -52q-24 -19 -51 -19t-44.5 18t-17.5 42q0 5 1 11z" />
    <glyph glyph-name="uni1E24" unicode="&#x1e24;" horiz-adv-x="657" 
d="M40 0l80 650h165l-30 -245h227l30 245h165l-80 -650h-165l30 245h-227l-30 -245h-165zM235 -103q4 30 27.5 48.5t50.5 18.5t45 -17t18 -40q0 -5 -1 -10q-4 -32 -28 -52q-24 -19 -51 -19t-44.5 18t-17.5 42q0 5 1 11z" />
    <glyph glyph-name="uni1E25" unicode="&#x1e25;" horiz-adv-x="553" 
d="M120 650h160l-28 -223q51 40 121 40q32 0 60 -9t53 -28.5t34.5 -50.5t9.5 -61q0 -18 -3 -38l-34 -280h-160l31 254q1 9 1 17q0 15 -4.5 30t-17 21.5t-20.5 8.5t-17 2q-8 0 -16.5 -2t-22 -8.5t-23.5 -24.5t-13 -44l-31 -254h-160zM182 -108q4 30 27.5 48.5t50.5 18.5
t45 -17t18 -40q0 -5 -1 -10q-4 -32 -28 -52q-24 -19 -51 -19t-44.5 18t-17.5 42q0 5 1 11z" />
    <glyph glyph-name="uni1E36" unicode="&#x1e36;" horiz-adv-x="531" 
d="M120 650h165l-62 -500h286l-18 -150h-451zM181 -108q4 30 27.5 48.5t50.5 18.5t45 -17t18 -40q0 -5 -1 -10q-4 -32 -28 -52q-24 -19 -51 -19t-44.5 18t-17.5 42q0 5 1 11z" />
    <glyph glyph-name="uni1E37" unicode="&#x1e37;" horiz-adv-x="261" 
d="M120 650h161l-81 -650h-160zM37 -108q4 30 27.5 48.5t50.5 18.5t45 -17t18 -40q0 -5 -1 -10q-4 -32 -28 -52q-24 -19 -51 -19t-44.5 18t-17.5 42q0 5 1 11z" />
    <glyph glyph-name="uni1E3E" unicode="&#x1e3e;" horiz-adv-x="770" 
d="M40 0l80 650h165l128 -339l212 339h165l-80 -650h-165l38 310l-142 -239h-114l-84 239l-38 -310h-165zM470 833h134l-78 -123h-130z" />
    <glyph glyph-name="uni1E3F" unicode="&#x1e3f;" horiz-adv-x="826" 
d="M96 460h160l-4 -39q53 46 117 46q90 0 130 -62q59 62 153 62q32 0 59 -9t50.5 -28.5t32.5 -50.5t9 -60q0 -18 -3 -39l-34 -280h-160l32 257q1 8 1 15q0 15 -5.5 28.5t-18 19t-19 7t-13.5 1.5t-13.5 -1.5t-19.5 -7t-22.5 -21.5t-12.5 -41l-32 -257h-160l32 257q1 8 1 15
q0 15 -5.5 28.5t-18 19t-19 7t-13.5 1.5t-13.5 -1.5t-19.5 -7t-22.5 -21.5t-12.5 -41l-32 -257h-160zM403 541l74 123h134l-78 -123h-130z" />
    <glyph glyph-name="uni1E44" unicode="&#x1e44;" horiz-adv-x="647" 
d="M120 650h160l178 -355l44 355h165l-80 -650h-160l-179 354l-43 -354h-165zM337 761q4 30 27.5 48.5t50.5 18.5t45 -17t18 -40q0 -5 -1 -10q-4 -32 -28 -51q-24 -20 -51 -20t-44.5 18t-17.5 42q0 5 1 11z" />
    <glyph glyph-name="uni1E45" unicode="&#x1e45;" horiz-adv-x="553" 
d="M96 460h160l-4 -33q51 40 121 40q32 0 60 -9t53 -28.5t34.5 -50.5t9.5 -61q0 -18 -3 -38l-34 -280h-160l31 254q1 9 1 17q0 15 -4.5 30t-17 21.5t-20.5 8.5t-17 2q-8 0 -16.5 -2t-22 -8.5t-23.5 -24.5t-13 -44l-31 -254h-160zM266 578q4 30 27.5 48.5t50.5 18.5t45 -17
t18 -40q0 -5 -1 -10q-4 -32 -28 -51q-24 -20 -51 -20t-44.5 18t-17.5 42q0 5 1 11z" />
    <glyph glyph-name="uni1E46" unicode="&#x1e46;" horiz-adv-x="647" 
d="M120 650h160l178 -355l44 355h165l-80 -650h-160l-179 354l-43 -354h-165zM233 -108q4 30 27.5 48.5t50.5 18.5t45 -17t18 -40q0 -5 -1 -10q-4 -32 -28 -52q-24 -19 -51 -19t-44.5 18t-17.5 42q0 5 1 11z" />
    <glyph glyph-name="uni1E47" unicode="&#x1e47;" horiz-adv-x="553" 
d="M96 460h160l-4 -33q51 40 121 40q32 0 60 -9t53 -28.5t34.5 -50.5t9.5 -61q0 -18 -3 -38l-34 -280h-160l31 254q1 9 1 17q0 15 -4.5 30t-17 21.5t-20.5 8.5t-17 2q-8 0 -16.5 -2t-22 -8.5t-23.5 -24.5t-13 -44l-31 -254h-160zM182 -108q4 30 27.5 48.5t50.5 18.5t45 -17
t18 -40q0 -5 -1 -10q-4 -32 -28 -52q-24 -19 -51 -19t-44.5 18t-17.5 42q0 5 1 11z" />
    <glyph glyph-name="uni1E62" unicode="&#x1e62;" horiz-adv-x="615" 
d="M182 247q16 -27 63 -60.5t102 -33.5q62 0 66 38v3q0 13 -17.5 24t-56.5 23.5t-46 15.5q-3 1 -28.5 10.5t-43.5 16.5t-44 24t-41.5 36t-24 44.5t-8.5 49.5q0 10 1 20q9 71 54.5 118.5t104 66.5t127.5 19q91 0 160.5 -45.5t83.5 -100.5l-139 -87q-15 22 -55.5 45t-90.5 23
q-49 0 -54 -30v-2q0 -9 7 -18t21.5 -16t28 -12t32.5 -11t28 -10q2 -1 23.5 -9t35 -14.5t37 -18.5t38.5 -26.5t30 -33.5t19.5 -39.5t4.5 -38.5q0 -9 -1 -19q-12 -102 -91.5 -156.5t-199.5 -54.5q-109 0 -179.5 49.5t-89.5 113.5zM229 -122q4 30 27.5 48.5t50.5 18.5t45 -17
t18 -40q0 -5 -1 -10q-4 -32 -28 -52q-24 -19 -51 -19t-44.5 18t-17.5 42q0 5 1 11z" />
    <glyph glyph-name="uni1E6C" unicode="&#x1e6c;" horiz-adv-x="592" 
d="M81 500l19 150h532l-19 -150h-183l-61 -500h-165l61 500h-184zM204 -92q4 30 27.5 48.5t50.5 18.5t45 -17t18 -40q0 -5 -1 -10q-4 -32 -28 -52q-24 -19 -51 -19t-44.5 18t-17.5 42q0 5 1 11z" />
    <glyph glyph-name="uni1E6D" unicode="&#x1e6d;" horiz-adv-x="357" 
d="M52 340l14 120h57l18 142h160l-18 -142h90l-14 -120h-90l-21 -165q-1 -7 -1 -13q0 -36 31 -39h49l-15 -123h-94q-135 0 -135 119q0 14 2 29l24 192h-57zM139 -105q4 30 27.5 48.5t50.5 18.5t45 -17t18 -40q0 -5 -1 -10q-4 -32 -28 -52q-24 -19 -51 -19t-44.5 18t-17.5 42
q0 5 1 11z" />
    <glyph glyph-name="Wgrave" unicode="&#x1e80;" horiz-adv-x="953" 
d="M90 650h175l73 -351l158 351h121l70 -329l151 329h175l-297 -650h-142l-64 309l-141 -309h-142zM582 833l44 -123h-130l-48 123h134z" />
    <glyph glyph-name="wgrave" unicode="&#x1e81;" horiz-adv-x="777" 
d="M60 460h165l41 -234l111 234h120l55 -234l96 234h165l-203 -460h-155l-49 222l-102 -222h-155zM333 650h134l44 -123h-130z" />
    <glyph glyph-name="Wacute" unicode="&#x1e82;" horiz-adv-x="953" 
d="M90 650h175l73 -351l158 351h121l70 -329l151 329h175l-297 -650h-142l-64 309l-141 -309h-142zM493 710l74 123h134l-78 -123h-130z" />
    <glyph glyph-name="wacute" unicode="&#x1e83;" horiz-adv-x="777" 
d="M60 460h165l41 -234l111 234h120l55 -234l96 234h165l-203 -460h-155l-49 222l-102 -222h-155zM452 650h134l-78 -123h-130z" />
    <glyph glyph-name="Wdieresis" unicode="&#x1e84;" horiz-adv-x="953" 
d="M90 650h175l73 -351l158 351h121l70 -329l151 329h175l-297 -650h-142l-64 309l-141 -309h-142zM593 761q4 30 27.5 48.5t50.5 18.5t45 -17t18 -40q0 -5 -1 -10q-4 -32 -28 -51q-24 -20 -51 -20t-44.5 18t-17.5 42q0 5 1 11zM398 761q4 30 27.5 48.5t50.5 18.5t45 -17
t18 -40q0 -5 -1 -10q-4 -32 -28 -51q-24 -20 -51 -20t-44.5 18t-17.5 42q0 5 1 11z" />
    <glyph glyph-name="wdieresis" unicode="&#x1e85;" horiz-adv-x="777" 
d="M60 460h165l41 -234l111 234h120l55 -234l96 234h165l-203 -460h-155l-49 222l-102 -222h-155zM283 578q4 30 27.5 48.5t50.5 18.5t45 -17t18 -40q0 -5 -1 -10q-4 -32 -28 -51q-24 -20 -51 -20t-44.5 18t-17.5 42q0 5 1 11zM478 578q4 30 27.5 48.5t50.5 18.5t45 -17
t18 -40q0 -5 -1 -10q-4 -32 -28 -51q-24 -20 -51 -20t-44.5 18t-17.5 42q0 5 1 11z" />
    <glyph glyph-name="uni1E92" unicode="&#x1e92;" horiz-adv-x="544" 
d="M30 0l17 137l309 362h-259l19 151h468l-17 -138l-312 -361l262 -1l-18 -150h-469zM179 -108q4 30 27.5 48.5t50.5 18.5t45 -17t18 -40q0 -5 -1 -10q-4 -32 -28 -52q-24 -19 -51 -19t-44.5 18t-17.5 42q0 5 1 11z" />
    <glyph glyph-name="uni1E93" unicode="&#x1e93;" horiz-adv-x="420" 
d="M20 0l14 118l184 212h-157l15 130h360l-14 -118l-184 -212h158l-16 -130h-360zM118 -108q4 30 27.5 48.5t50.5 18.5t45 -17t18 -40q0 -5 -1 -10q-4 -32 -28 -52q-24 -19 -51 -19t-44.5 18t-17.5 42q0 5 1 11z" />
    <glyph glyph-name="uni1EA0" unicode="&#x1ea0;" horiz-adv-x="677" 
d="M10 0l341 650h125l181 -650h-175l-19 72h-241l-37 -72h-175zM252 -108q4 30 27.5 48.5t50.5 18.5t45 -17t18 -40q0 -5 -1 -10q-4 -32 -28 -52q-24 -19 -51 -19t-44.5 18t-17.5 42q0 5 1 11zM423 222l-43 164l-83 -164h126z" />
    <glyph glyph-name="uni1EA1" unicode="&#x1ea1;" 
d="M48 230q13 104 82 170.5t161 66.5q66 0 102 -36l3 29h160l-56 -460h-160l3 28q-46 -36 -110 -36q-92 0 -140 61.5t-48 137.5q0 19 3 39zM218 167q20 -25 57 -25t62.5 25t28.5 48t3 30q0 28 -17.5 50t-54.5 22t-63 -24.5t-29 -47.5t-3 -30q0 -28 16 -48zM212 -111
q4 30 27.5 48.5t50.5 18.5t45 -17t18 -40q0 -5 -1 -10q-4 -32 -28 -52q-24 -19 -51 -19t-44.5 18t-17.5 42q0 5 1 11z" />
    <glyph glyph-name="uni1EB8" unicode="&#x1eb8;" horiz-adv-x="548" 
d="M40 0l80 650h453l-19 -150h-288l-12 -100h267l-18 -150h-267l-13 -100h288l-18 -150h-453zM188 -106q4 30 27.5 48.5t50.5 18.5t45 -17t18 -40q0 -5 -1 -10q-4 -32 -28 -52q-24 -19 -51 -19t-44.5 18t-17.5 42q0 5 1 11z" />
    <glyph glyph-name="uni1EB9" unicode="&#x1eb9;" horiz-adv-x="513" 
d="M48 230q13 104 85 171.5t176 67.5q103 0 149 -60t46 -138q0 -20 -3 -41l-5 -42h-297q5 -30 24.5 -46.5t47.5 -16.5q55 0 91 36l98 -80q-76 -91 -205 -91q-106 0 -157.5 61.5t-51.5 141.5q0 18 2 37zM167 -113q4 30 27.5 48.5t50.5 18.5t45 -17t18 -40q0 -5 -1 -10
q-4 -32 -28 -52q-24 -19 -51 -19t-44.5 18t-17.5 42q0 5 1 11zM213 287h144q-10 57 -64 57q-51 0 -80 -57z" />
    <glyph glyph-name="uni1EBC" unicode="&#x1ebc;" horiz-adv-x="548" 
d="M120 650h453l-19 -150h-288l-12 -100h267l-18 -150h-267l-13 -100h288l-18 -150h-453zM178 703q7 60 41 98t91 38q47 0 75 -36q19 -23 38 -23q31 0 37 46h90q-7 -60 -42 -98t-96 -38q-49 0 -76 36q-18 23 -33 23q-29 0 -35 -46h-90z" />
    <glyph glyph-name="uni1EBD" unicode="&#x1ebd;" horiz-adv-x="513" 
d="M48 230q13 104 85 171.5t176 67.5q103 0 149 -60t46 -138q0 -20 -3 -41l-5 -42h-297q5 -30 24.5 -46.5t47.5 -16.5q55 0 91 36l98 -80q-76 -91 -205 -91q-106 0 -157.5 61.5t-51.5 141.5q0 18 2 37zM177 618q34 38 91 38q47 0 75 -36q19 -23 38 -23q31 0 37 46h90
q-7 -60 -42 -98t-96 -38q-49 0 -76 36q-18 23 -33 23q-29 0 -35 -46h-90q7 60 41 98zM213 287h144q-10 57 -64 57q-51 0 -80 -57z" />
    <glyph glyph-name="uni1ECA" unicode="&#x1eca;" horiz-adv-x="265" 
d="M120 650h165l-80 -650h-165zM39 -108q4 30 27.5 48.5t50.5 18.5t45 -17t18 -40q0 -5 -1 -10q-4 -32 -28 -52q-24 -19 -51 -19t-44.5 18t-17.5 42q0 5 1 11z" />
    <glyph glyph-name="uni1ECB" unicode="&#x1ecb;" horiz-adv-x="270" 
d="M101 460h161l-57 -460h-160zM113 594q5 38 33.5 60t61.5 22q34 0 55 -20t21 -49q0 -6 -3 -28.5t-32 -46.5t-62 -24t-54 22t-21 51q0 6 1 13zM41 -116q4 30 27.5 48.5t50.5 18.5t45 -17t18 -40q0 -5 -1 -10q-4 -32 -28 -52q-24 -19 -51 -19t-44.5 18t-17.5 42q0 5 1 11z
" />
    <glyph glyph-name="uni1ECC" unicode="&#x1ecc;" horiz-adv-x="731" 
d="M70 325q18 145 122 239t248 94t216.5 -85.5t72.5 -195.5q0 -25 -10.5 -111t-113.5 -180t-247 -94t-217.5 85.5t-73.5 196.5q0 25 3 51zM266 204q39 -47 112 -47t123.5 47t56 91t5.5 57q0 56 -35 98.5t-108 42.5t-124.5 -47t-57 -91t-5.5 -56q0 -57 33 -95zM275 -114
q4 30 27.5 48.5t50.5 18.5t45 -17t18 -40q0 -5 -1 -10q-4 -32 -28 -52q-24 -19 -51 -19t-44.5 18t-17.5 42q0 5 1 11z" />
    <glyph glyph-name="uni1ECD" unicode="&#x1ecd;" horiz-adv-x="539" 
d="M48 230q13 105 89 172.5t181 67.5t158 -61.5t53 -141.5q0 -18 -2 -37q-13 -103 -88.5 -171.5t-179.5 -68.5q-105 0 -159 62.5t-54 141.5q0 18 2 36zM220 167q20 -25 57 -25t62.5 25t28.5 48t3 30q0 28 -17.5 50t-54.5 22t-63 -24.5t-29 -47.5t-3 -30q0 -28 16 -48z
M176 -116q4 30 27.5 48.5t50.5 18.5t45 -17t18 -40q0 -5 -1 -10q-4 -32 -28 -52q-24 -19 -51 -19t-44.5 18t-17.5 42q0 5 1 11z" />
    <glyph glyph-name="uni1EE4" unicode="&#x1ee4;" horiz-adv-x="614" 
d="M68 232l52 418h165l-49 -399q-2 -12 -2 -23q0 -36 21.5 -56t60.5 -20q91 0 104 99l49 399h165l-52 -418q-12 -100 -89 -170t-197 -70t-175 64t-55 144q0 15 2 32zM214 -111q4 30 27.5 48.5t50.5 18.5t45 -17t18 -40q0 -5 -1 -10q-4 -32 -28 -52q-24 -19 -51 -19t-44.5 18
t-17.5 42q0 5 1 11z" />
    <glyph glyph-name="uni1EE5" unicode="&#x1ee5;" horiz-adv-x="553" 
d="M62 179l34 281h160l-31 -255q-1 -9 -1 -16q0 -16 5 -31t17 -21.5t20 -8.5t17 -2q8 0 16.5 2t22 8.5t23.5 24.5t13 44l31 255h160l-56 -460h-160l4 32q-51 -40 -121 -40q-71 0 -113.5 39t-42.5 110q0 18 2 38zM185 -111q4 30 27.5 48.5t50.5 18.5t45 -17t18 -40
q0 -5 -1 -10q-4 -32 -28 -52q-24 -19 -51 -19t-44.5 18t-17.5 42q0 5 1 11z" />
    <glyph glyph-name="Ygrave" unicode="&#x1ef2;" horiz-adv-x="649" 
d="M274 650l97 -208l149 208h189l-276 -380l-33 -270h-165l33 268l-183 382h189zM427 833l44 -123h-130l-48 123h134z" />
    <glyph glyph-name="ygrave" unicode="&#x1ef3;" horiz-adv-x="539" 
d="M221 460l65 -239l124 239h165l-335 -644h-155l96 184l-125 460h165zM213 650h134l44 -123h-130z" />
    <glyph glyph-name="uni1EF4" unicode="&#x1ef4;" horiz-adv-x="649" 
d="M274 650l97 -208l149 208h189l-276 -380l-33 -270h-165l33 268l-183 382h189zM234 -108q4 30 27.5 48.5t50.5 18.5t45 -17t18 -40q0 -5 -1 -10q-4 -32 -28 -52q-24 -19 -51 -19t-44.5 18t-17.5 42q0 5 1 11z" />
    <glyph glyph-name="uni1EF5" unicode="&#x1ef5;" horiz-adv-x="539" 
d="M221 460l65 -239l124 239h165l-335 -644h-155l96 184l-125 460h165zM338 -116q4 30 27.5 48.5t50.5 18.5t45 -17t18 -40q0 -5 -1 -10q-4 -32 -28 -52q-24 -19 -51 -19t-44.5 18t-17.5 42q0 5 1 11z" />
    <glyph glyph-name="uni1EF8" unicode="&#x1ef8;" horiz-adv-x="649" 
d="M85 650h189l97 -208l149 208h189l-276 -380l-33 -270h-165l33 268zM265 801q34 38 91 38q47 0 75 -36q19 -23 38 -23q31 0 37 46h90q-7 -60 -42 -98t-96 -38q-49 0 -76 36q-18 23 -33 23q-29 0 -35 -46h-90q7 60 41 98z" />
    <glyph glyph-name="uni1EF9" unicode="&#x1ef9;" horiz-adv-x="539" 
d="M56 460h165l65 -239l124 239h165l-335 -644h-155l96 184zM144 520q7 60 41 98t91 38q47 0 75 -36q19 -23 38 -23q31 0 37 46h90q-7 -60 -42 -98t-96 -38q-49 0 -76 36q-18 23 -33 23q-29 0 -35 -46h-90z" />
    <glyph glyph-name="endash" unicode="&#x2013;" horiz-adv-x="493" 
d="M64 192l18 150h393l-18 -150h-393z" />
    <glyph glyph-name="emdash" unicode="&#x2014;" horiz-adv-x="554" 
d="M63 191l19 150h454l-19 -150h-454z" />
    <glyph glyph-name="quoteleft" unicode="&#x2018;" horiz-adv-x="234" 
d="M74 440l107 210h113l-70 -210h-150z" />
    <glyph glyph-name="quoteright" unicode="&#x2019;" horiz-adv-x="234" 
d="M74 440l70 210h150l-107 -210h-113z" />
    <glyph glyph-name="quotesinglbase" unicode="&#x201a;" horiz-adv-x="234" 
d="M6 -114l70 210h150l-107 -210h-113z" />
    <glyph glyph-name="quotedblleft" unicode="&#x201c;" horiz-adv-x="459" 
d="M74 440l107 210h113l-70 -210h-150zM299 440l107 210h113l-70 -210h-150z" />
    <glyph glyph-name="quotedblright" unicode="&#x201d;" horiz-adv-x="459" 
d="M74 440l70 210h150l-107 -210h-113zM299 440l70 210h150l-107 -210h-113z" />
    <glyph glyph-name="quotedblbase" unicode="&#x201e;" horiz-adv-x="459" 
d="M6 -114l70 210h150l-107 -210h-113zM231 -114l70 210h150l-107 -210h-113z" />
    <glyph glyph-name="dagger" unicode="&#x2020;" horiz-adv-x="447" 
d="M139 0l43 347h-99l14 120h99l23 183h150l-23 -183h98l-14 -120h-98l-43 -347h-150z" />
    <glyph glyph-name="daggerdbl" unicode="&#x2021;" horiz-adv-x="447" 
d="M139 0l19 158h-99l15 120h99l13 101h-99l14 120h99l19 151h150l-19 -151h98l-14 -120h-98l-13 -101h98l-15 -120h-98l-19 -158h-150z" />
    <glyph glyph-name="bullet" unicode="&#x2022;" horiz-adv-x="300" 
d="M174 195q-57 0 -89 36.5t-25 93.5t48 93t98 36t89 -36t25 -93t-48 -93.5t-98 -36.5z" />
    <glyph glyph-name="ellipsis" unicode="&#x2026;" horiz-adv-x="680" 
d="M101 -8q-36 0 -56 23t-16 59t30 58.5t62 22.5t56 -22.5t16 -58.5q-5 -36 -30.5 -59t-61.5 -23zM339 -8q-36 0 -56 23t-16 59t30 58.5t62 22.5t56 -22.5t16 -58.5q-5 -36 -30.5 -59t-61.5 -23zM577 -8q-36 0 -56 23t-16 59t30 58.5t62 22.5t56 -22.5t16 -58.5
q-5 -36 -30.5 -59t-61.5 -23z" />
    <glyph glyph-name="perthousand" unicode="&#x2030;" horiz-adv-x="1279" 
d="M100 489q9 74 61.5 121.5t124.5 47.5q71 0 111.5 -47.5t31.5 -121.5q-9 -72 -61 -119.5t-123 -47.5q-72 0 -113 47.5t-32 119.5zM199 0l431 650h120l-431 -650h-120zM202 489q-3 -27 11.5 -46t43.5 -19t48 19t22 46q4 29 -10.5 48t-43.5 19t-48 -19t-23 -48zM519 158
q10 74 62 121.5t124 47.5t112.5 -47.5t30.5 -121.5q-8 -71 -60.5 -119t-123.5 -48q-72 0 -112.5 47.5t-32.5 119.5zM909 158q10 74 62 121.5t124 47.5t112.5 -47.5t30.5 -121.5q-8 -71 -60.5 -119t-123.5 -48q-72 0 -112.5 47.5t-32.5 119.5zM621 158q-3 -27 11.5 -46
t43.5 -19t48 19t22 46q4 29 -10 48t-43 19t-48.5 -19t-23.5 -48zM1011 158q-3 -27 11.5 -46t43.5 -19t48 19t22 46q4 29 -10 48t-43 19t-48.5 -19t-23.5 -48z" />
    <glyph glyph-name="guilsinglleft" unicode="&#x2039;" horiz-adv-x="422" 
d="M209 135l-150 186l195 186h190l-194 -186l149 -186h-190z" />
    <glyph glyph-name="guilsinglright" unicode="&#x203a;" horiz-adv-x="422" 
d="M37 135l193 186l-148 186h190l149 -186l-194 -186h-190z" />
    <glyph glyph-name="fraction" unicode="&#x2044;" horiz-adv-x="521" 
d="M20 0l481 650h80l-481 -650h-80z" />
    <glyph glyph-name="uni2070" unicode="&#x2070;" horiz-adv-x="417" 
d="M217 253q-77 0 -118 57t-30 145q11 89 65.5 146t131.5 57q78 0 120.5 -57t31.5 -146q-11 -88 -67.5 -145t-133.5 -57zM229 350q29 0 54 27t31 78q7 51 -11.5 76.5t-48.5 25.5q-29 0 -54 -25.5t-31 -76.5t12.5 -78t47.5 -27z" />
    <glyph glyph-name="uni2074" unicode="&#x2074;" horiz-adv-x="381" 
d="M216 258l8 62h-191l7 62l224 268h99l-32 -259h47l-9 -71h-46l-8 -62h-99zM138 391h94l16 134z" />
    <glyph glyph-name="uni2075" unicode="&#x2075;" horiz-adv-x="348" 
d="M167 257q-85 0 -136 57l72 72q27 -32 69 -32q63 0 69 41q3 22 -16.5 32t-46.5 10q-38 0 -67 -13l-26 48l58 182h213l-12 -90h-135l-15 -47q82 -1 117 -36.5t28 -91.5q-7 -63 -55.5 -97.5t-116.5 -34.5z" />
    <glyph glyph-name="uni2076" unicode="&#x2076;" horiz-adv-x="364" 
d="M185 252q-62 0 -98.5 43t-28.5 103q4 42 38 88l123 164h107l-80 -107q52 -9 80.5 -49.5t21.5 -95.5q-7 -60 -54 -103t-109 -43zM197 346q22 0 38.5 14.5t19.5 37.5q2 23 -10.5 38.5t-34.5 15.5q-23 0 -39.5 -15.5t-19.5 -38.5q-2 -23 10 -37.5t36 -14.5z" />
    <glyph glyph-name="uni2077" unicode="&#x2077;" horiz-adv-x="290" 
d="M37 258l176 301h-149l11 90h265l-8 -65l-191 -326h-104z" />
    <glyph glyph-name="uni2078" unicode="&#x2078;" horiz-adv-x="361" 
d="M186 250q-72 0 -106 34.5t-27 89.5q5 54 63 88q-42 32 -35 84q5 43 45.5 77t109.5 34q68 0 100 -34t27 -77q-7 -52 -55 -84q48 -33 41 -88q-6 -55 -48.5 -89.5t-114.5 -34.5zM216 495q24 0 38 13.5t16 30.5q2 18 -8.5 31.5t-34.5 13.5t-38.5 -13.5t-17.5 -31.5
q-2 -18 9.5 -31t35.5 -13zM196 331q24 0 40 14t18 34q2 21 -10 34.5t-36 13.5q-25 0 -41 -14t-18 -34q-2 -19 10.5 -33.5t36.5 -14.5z" />
    <glyph glyph-name="uni2079" unicode="&#x2079;" horiz-adv-x="364" 
d="M102 257l79 108q-51 8 -79.5 48.5t-21.5 94.5q8 61 54.5 104t108.5 43t98.5 -43t29.5 -104q-7 -43 -39 -87l-123 -164h-107zM218 455q24 0 40 15t19 38t-9.5 38t-35.5 15t-39.5 -15t-18.5 -38q-3 -23 9.5 -38t34.5 -15z" />
    <glyph glyph-name="Euro" unicode="&#x20ac;" horiz-adv-x="564" 
d="M424 -8q-104 0 -173 58t-87 155h-99l10 80h83q0 1 1 16.5t2 23.5q1 12 5 34h-82l10 80h97q42 100 126 159.5t189 59.5h79l-19 -150h-14h-21h-14q-103 0 -155 -69h142l-10 -80h-167q-6 -32 -6 -34q-3 -24 -2 -40h166l-10 -80h-138q38 -63 135 -63q30 0 50 2l-19 -150
q-20 -2 -79 -2z" />
    <glyph glyph-name="trademark" unicode="&#x2122;" horiz-adv-x="1362" 
d="M712 650h165l128 -339l212 339h165l-80 -650h-165l38 310l-142 -239h-114l-84 239l-38 -310h-165zM81 500l19 150h532l-19 -150h-183l-61 -500h-165l61 500h-184z" />
    <glyph glyph-name="oneeighth" unicode="&#x215b;" horiz-adv-x="542" 
d="M10 0l481 650h80l-481 -650h-80zM114 322l30 252h-68l9 76h152l-40 -328h-83zM411 -6q-59 0 -87 28t-23 73q5 46 52 72q-34 27 -29 70q4 35 37 62.5t90 27.5t83 -27.5t22 -62.5q-5 -42 -45 -70q38 -25 33 -72q-6 -45 -40.5 -73t-92.5 -28zM435 194q20 0 31.5 11t13.5 26
t-7 26t-29 11t-31.5 -11t-14.5 -26q-2 -15 7.5 -26t29.5 -11zM419 60q19 0 32 11.5t15 27.5q2 17 -7.5 28.5t-29.5 11.5q-21 0 -34 -11.5t-15 -28.5q-2 -15 8 -27t31 -12z" />
    <glyph glyph-name="threeeighths" unicode="&#x215c;" horiz-adv-x="632" 
d="M168 322q-38 0 -69 14.5t-43 36.5l57 56q20 -27 65 -27q50 0 55 36q2 17 -11 27.5t-35 10.5q-26 0 -59 -9l8 57l72 51h-105l9 75h220l-8 -69l-65 -51q65 -23 56 -92q-8 -59 -50.5 -87.5t-96.5 -28.5zM82 0l481 650h80l-481 -650h-80zM501 -6q-59 0 -87 28t-23 73
q5 46 52 72q-34 27 -29 70q4 35 37 62.5t90 27.5t83 -27.5t22 -62.5q-5 -42 -45 -70q38 -25 33 -72q-6 -45 -40.5 -73t-92.5 -28zM525 194q20 0 31.5 11t13.5 26t-7 26t-29 11t-31.5 -11t-14.5 -26q-2 -15 7.5 -26t29.5 -11zM509 60q19 0 32 11.5t15 27.5q2 17 -7.5 28.5
t-29.5 11.5q-21 0 -34 -11.5t-15 -28.5q-2 -15 8 -27t31 -12z" />
    <glyph glyph-name="fiveeighths" unicode="&#x215d;" horiz-adv-x="630" 
d="M170 322q-72 0 -114 48l61 60q23 -27 57 -27q54 0 58 34q3 19 -13 27.5t-39 8.5q-30 0 -57 -11l-22 41l49 152h179l-10 -76h-113l-13 -39q69 -1 98.5 -30.5t23.5 -77.5q-6 -53 -47 -81.5t-98 -28.5zM82 0l481 650h80l-481 -650h-80zM499 -6q-59 0 -87 28t-23 73
q5 46 52 72q-34 27 -29 70q4 35 37 62.5t90 27.5t83 -27.5t22 -62.5q-5 -42 -45 -70q38 -25 33 -72q-6 -45 -40.5 -73t-92.5 -28zM523 194q20 0 31.5 11t13.5 26t-7 26t-29 11t-31.5 -11t-14.5 -26q-2 -15 7.5 -26t29.5 -11zM507 60q19 0 32 11.5t15 27.5q2 17 -7.5 28.5
t-29.5 11.5q-21 0 -34 -11.5t-15 -28.5q-2 -15 8 -27t31 -12z" />
    <glyph glyph-name="seveneighths" unicode="&#x215e;" 
d="M10 0l481 650h80l-481 -650h-80zM90 323l146 252h-124l9 75h222l-7 -54l-160 -273h-86zM429 -6q-59 0 -87 28t-23 73q5 46 52 72q-34 27 -29 70q4 35 37 62.5t90 27.5t83 -27.5t22 -62.5q-5 -42 -45 -70q38 -25 33 -72q-6 -45 -40.5 -73t-92.5 -28zM453 194q20 0 31.5 11
t13.5 26t-7 26t-29 11t-31.5 -11t-14.5 -26q-2 -15 7.5 -26t29.5 -11zM437 60q19 0 32 11.5t15 27.5q2 17 -7.5 28.5t-29.5 11.5q-21 0 -34 -11.5t-15 -28.5q-2 -15 8 -27t31 -12z" />
    <glyph glyph-name="arrowleft" unicode="&#x2190;" horiz-adv-x="750" 
d="M334 32l-254 290l325 289l83 -95l-134 -120h385l-19 -149h-384l105 -120z" />
    <glyph glyph-name="arrowup" unicode="&#x2191;" horiz-adv-x="680" 
d="M255 0l47 384l-134 -119l-84 95l326 290l254 -290l-107 -95l-105 119l-47 -384h-150z" />
    <glyph glyph-name="arrowright" unicode="&#x2192;" horiz-adv-x="750" 
d="M404 32l-83 95l133 120h-384l19 149h385l-106 120l107 95l255 -289z" />
    <glyph glyph-name="arrowdown" unicode="&#x2193;" horiz-adv-x="680" 
d="M330 0l-254 290l106 95l106 -119l47 384h150l-47 -384l133 119l85 -95z" />
    <glyph glyph-name="arrowboth" unicode="&#x2194;" horiz-adv-x="1010" 
d="M334 32l-254 290l325 289l83 -95l-134 -120h380l-106 120l107 95l255 -289l-326 -290l-83 95l133 120h-378l105 -120z" />
    <glyph glyph-name="arrowupdn" unicode="&#x2195;" horiz-adv-x="635" 
d="M296 -84l-232 264l107 95l82 -92l35 279l-107 -95l-84 95l297 266l238 -266l-107 -95l-88 96l-35 -281l113 99l83 -95z" />
    <glyph glyph-name="uni2196" unicode="&#x2196;" horiz-adv-x="613" 
d="M464 137l-239 272l-21 -169h-135l51 410h410l-17 -135h-169l239 -272z" />
    <glyph glyph-name="uni2197" unicode="&#x2197;" horiz-adv-x="613" 
d="M163 137l-93 106l305 272h-169l17 135h410l-51 -410h-135l21 169z" />
    <glyph glyph-name="uni2198" unicode="&#x2198;" horiz-adv-x="613" 
d="M143 0l17 135h169l-239 272l119 106l239 -272l20 169h135l-50 -410h-410z" />
    <glyph glyph-name="uni2199" unicode="&#x2199;" horiz-adv-x="613" 
d="M40 0l50 410h135l-20 -169l305 272l93 -106l-305 -272h169l-17 -135h-410z" />
    <glyph glyph-name="partialdiff" unicode="&#x2202;" horiz-adv-x="564" 
d="M270 -18q-101 0 -158.5 65.5t-45.5 167.5q12 95 78 158.5t159 71.5q-71 131 -155 205h171q101 -87 163 -206t48 -229q-12 -102 -86 -167.5t-174 -65.5zM288 132q36 0 62 23t30 60q5 37 -15.5 59t-56.5 22t-61.5 -22t-30.5 -59q-4 -37 16 -60t56 -23z" />
    <glyph glyph-name="emptyset" unicode="&#x2205;" 
d="M84 65l53 71q-72 66 -58 185q13 104 85.5 170.5t175.5 66.5q53 0 94 -19l29 38h73l-53 -71q71 -68 56 -185q-12 -103 -84 -170t-174 -67q-52 0 -95 19l-29 -38h-73zM216 243l141 191q-13 4 -32 4q-49 0 -84 -32.5t-42 -84.5q-5 -49 17 -78zM296 204q49 0 83 32.5t40 84.5
q6 48 -15 78l-140 -190q15 -5 32 -5z" />
    <glyph glyph-name="product" unicode="&#x220f;" horiz-adv-x="684" 
d="M132 0l61 500h-92l19 150h584l-19 -150h-89l-61 -500h-150l61 500h-103l-61 -500h-150z" />
    <glyph glyph-name="summation" unicode="&#x2211;" horiz-adv-x="577" 
d="M39 -8l16 129l198 201l-148 205l16 131h477l-19 -150h-257l135 -186l-173 -180h250l-18 -150h-477z" />
    <glyph glyph-name="minus" unicode="&#x2212;" horiz-adv-x="520" 
d="M72 263l15 120h420l-15 -120h-420z" />
    <glyph glyph-name="radical" unicode="&#x221a;" horiz-adv-x="778" 
d="M171 -48l-91 370h150l41 -169l263 539h269l-15 -120h-163l-302 -620h-152z" />
    <glyph glyph-name="infinity" unicode="&#x221e;" horiz-adv-x="818" 
d="M220 171q-67 0 -107.5 45t-32.5 107q7 61 58.5 106t118.5 45q56 0 97.5 -16.5t95.5 -65.5q110 82 207 82q70 0 109 -44.5t32 -106.5q-8 -63 -57.5 -107.5t-120.5 -44.5q-56 0 -92 15t-94 72q-70 -57 -110.5 -72t-103.5 -15zM233 276q65 0 119 48q-51 45 -108 45
q-11 0 -22.5 -2.5t-25.5 -13.5t-16 -30q-3 -27 15.5 -37t37.5 -10zM633 276q59 0 65 47q3 27 -15 36.5t-39 9.5q-58 0 -110 -44q44 -49 99 -49z" />
    <glyph glyph-name="integral" unicode="&#x222b;" horiz-adv-x="568" 
d="M34 -48l15 120h52q76 0 95 84l80 349q22 96 84 141.5t128 45.5h105l-15 -120h-53q-77 0 -95 -84l-83 -362q-13 -60 -48 -100.5t-76 -57t-85 -16.5h-104z" />
    <glyph glyph-name="approxequal" unicode="&#x2248;" horiz-adv-x="578" 
d="M397 330q-62 0 -104 44q-4 4 -11 12t-9 9.5t-6.5 5t-8.5 4t-10 0.5q-21 0 -32 -18.5t-13 -39.5h-120q10 81 55 132t121 51q26 0 47.5 -8.5t30 -16t23.5 -23.5q30 -31 51 -31q42 0 50 62h120q-10 -81 -56.5 -132t-127.5 -51zM370 113q-62 0 -104 44q-4 4 -11 12t-9 9.5
t-6.5 5t-8.5 4t-10 0.5q-37 0 -45 -58h-120q10 81 55 132t121 51q26 0 47.5 -9t29.5 -15.5t25 -23.5q29 -31 51 -31q42 0 49 62h120q-10 -81 -56.5 -132t-127.5 -51z" />
    <glyph glyph-name="notequal" unicode="&#x2260;" horiz-adv-x="520" 
d="M103 73l43 82h-87l15 120h135l48 91h-172l15 120h220l43 83h113l-43 -83h87l-15 -120h-135l-48 -91h172l-15 -120h-220l-43 -82h-113z" />
    <glyph glyph-name="lessequal" unicode="&#x2264;" horiz-adv-x="433" 
d="M401 231l-318 98l15 116l342 98l-14 -110l-168 -46l157 -46zM52 100l13 100h333l-13 -100h-333z" />
    <glyph glyph-name="greaterequal" unicode="&#x2265;" horiz-adv-x="433" 
d="M68 231l14 110l169 46l-158 46l14 110l318 -98l-15 -116zM52 100l13 100h333l-13 -100h-333z" />
    <glyph glyph-name="lozenge" unicode="&#x25ca;" horiz-adv-x="664" 
d="M243 0l-163 322l247 328h150l167 -328l-243 -322h-158zM335 109l161 213l-108 212l-160 -212z" />
    <glyph glyph-name="A.ss01" horiz-adv-x="677" 
d="M10 0l341 650h125l181 -650h-175l-101 380l-196 -380h-175z" />
    <glyph glyph-name="I.ss01" horiz-adv-x="441" 
d="M20 0l18 150h108l43 350h-108l19 150h381l-19 -150h-108l-43 -350h108l-18 -150h-381z" />
    <glyph glyph-name="J.ss01" horiz-adv-x="602" 
d="M277 -8q-106 0 -167 56t-68 132l168 60q2 -46 26.5 -67t60.5 -21q41 0 73 26t40 89l28 232h-218l19 151h383l-51 -410q-14 -115 -97 -181.5t-197 -66.5z" />
    <glyph glyph-name="R.ss01" horiz-adv-x="615" 
d="M575 -3q-111 0 -178.5 33t-110.5 131l-18 40h-38l-25 -201h-165l80 650h323q82 0 134.5 -58t39.5 -166q-10 -81 -51.5 -135t-101.5 -76l3 -4q31 -64 126 -64zM249 361h126q28 0 50.5 16.5t26.5 48.5q4 31 -14.5 47.5t-46.5 16.5h-126z" />
    <glyph glyph-name="i.loclTRK" horiz-adv-x="261" 
d="M96 460h161l-57 -460h-160zM121 578q4 30 27.5 48.5t50.5 18.5t45 -17t18 -40q0 -5 -1 -10q-4 -32 -28 -51q-24 -20 -51 -20t-44.5 18t-17.5 42q0 5 1 11z" />
    <glyph glyph-name="a.ss01" horiz-adv-x="527" 
d="M35 126q6 47 33 77.5t74 45t92 20t107 6.5v9q0 31 -19 45.5t-42 14.5q-57 0 -81 -40l-117 55q24 44 79.5 77.5t135.5 33.5q113 0 159.5 -45t46.5 -117q0 -16 -2 -33l-34 -275h-160l3 27q-43 -35 -109 -35q-101 0 -134 36t-33 82q0 8 1 16zM202 113q12 -9 35 -9
q82 0 91 63l2 23q-82 -3 -108.5 -15.5t-29.5 -37.5v-4q0 -13 10 -20z" />
    <glyph glyph-name="n.ss01" horiz-adv-x="554" 
d="M96 460h267q81 0 124.5 -41t43.5 -104q0 -14 -2 -30l-35 -285h-160l30 245q2 16 2 30q0 29 -13 44t-65 15h-47l-41 -334h-160z" />
    <glyph glyph-name="r.ss01" horiz-adv-x="341" 
d="M68 231q15 122 87.5 179t212.5 57l-18 -152q-56 0 -87 -26.5t-39 -92.5l-24 -196h-160z" />
    <glyph glyph-name="u.ss01" horiz-adv-x="554" 
d="M61 175l35 285h160l-30 -245q-2 -15 -2 -27q0 -31 13 -46.5t65 -15.5h47l41 334h160l-56 -460h-267q-81 0 -124.5 41t-43.5 106q0 13 2 28z" />
    </font>
</defs>
</svg>
