<?xml version="1.0" standalone="no"?>
<!DOCTYPE svg PUBLIC "-//W3C//DTD SVG 1.1//EN" "http://www.w3.org/Graphics/SVG/1.1/DTD/svg11.dtd" >
<svg xmlns="http://www.w3.org/2000/svg" xmlns:xlink="http://www.w3.org/1999/xlink" version="1.1">
<metadata>
Created by FontForge 20170731 at Tue Jul 14 08:14:39 2020
 By Aleksey,,,
Copyright (c) 2020 by Bagas Ardiatma. All rights reserved.
</metadata>
<defs>
<font id="Causten-ExtraBoldOblique" horiz-adv-x="564" >
  <font-face 
    font-family="Causten-ExtraBoldOblique"
    font-weight="400"
    font-style="oblique"
    font-stretch="normal"
    units-per-em="1000"
    panose-1="0 0 9 0 0 0 0 0 0 0"
    ascent="772"
    descent="-228"
    x-height="460"
    cap-height="650"
    bbox="-327 -200 1373 883"
    underline-thickness="50"
    underline-position="-150"
    unicode-range="U+0020-25CA"
  />
<missing-glyph horiz-adv-x="475" 
d="M88 -200v950h302v-950h-302zM316 -5v107h-157v-107h157zM159 -27v-31h66l-66 -45v-31h157v31h-97l67 45h30v31h-157zM316 159v107h-95v-53h33v22h31v-45h-95v76h-31v-107h157zM159 564v-99h157v32h-62v67h-95zM316 589v31h-62v35h62v31h-156v-31h61v-35h-62v-31h157z
M159 373v-31h95v66h62v31h-157v-31h62v-35h-62zM159 320v-33h157v95h-31v-62h-126zM190 71h95v-45h-95v45zM190 532h31v-35h-31v35z" />
    <glyph glyph-name="f_f" unicode="ff" horiz-adv-x="671" 
d="M71 0l43 353h-58l13 107h58l5 34q18 156 172 156h88l-14 -110h-42q-56 0 -62 -55l-4 -25h179l5 34q9 76 50.5 116t112.5 40h106l-14 -110h-52q-56 0 -62 -55l-4 -25h97l-13 -107h-97l-43 -353h-142l43 353h-179l-43 -353h-143z" />
    <glyph glyph-name="t_t.liga" unicode="tt" horiz-adv-x="660" 
d="M213 0q-142 0 -125 140l26 213h-58l13 107h58l18 142h143l-18 -142h177l18 142h143l-18 -142h94l-13 -107h-94l-23 -189q-2 -20 1.5 -32t14.5 -16t17.5 -5t21.5 -1h28l-14 -110h-90q-142 0 -125 140l26 213h-177l-23 -189q-2 -20 1 -32t14 -16t17.5 -5t21.5 -1h29
l-14 -110h-90z" />
    <glyph glyph-name=".notdef" horiz-adv-x="475" 
d="M88 -200v950h302v-950h-302zM316 -5v107h-157v-107h157zM159 -27v-31h66l-66 -45v-31h157v31h-97l67 45h30v31h-157zM316 159v107h-95v-53h33v22h31v-45h-95v76h-31v-107h157zM159 564v-99h157v32h-62v67h-95zM316 589v31h-62v35h62v31h-156v-31h61v-35h-62v-31h157z
M159 373v-31h95v66h62v31h-157v-31h62v-35h-62zM159 320v-33h157v95h-31v-62h-126zM190 71h95v-45h-95v45zM190 532h31v-35h-31v35z" />
    <glyph glyph-name=".null" horiz-adv-x="0" 
 />
    <glyph glyph-name="uni000D" horiz-adv-x="333" 
 />
    <glyph glyph-name="space" unicode=" " horiz-adv-x="200" 
 />
    <glyph glyph-name="exclam" unicode="!" horiz-adv-x="234" 
d="M104 650h147l-66 -455h-128zM31 68q5 32 28 53t56 21q32 0 49 -19t17 -44q0 -5 -2.5 -24t-26 -40.5t-55.5 -21.5q-33 0 -50 19.5t-17 44.5q0 5 1 11z" />
    <glyph glyph-name="quotedbl" unicode="&#x22;" horiz-adv-x="393" 
d="M314 650h136l-44 -194h-102zM93 456l10 194h135l-44 -194h-101z" />
    <glyph glyph-name="numbersign" unicode="#" horiz-adv-x="727" 
d="M38 125l16 125h109l46 135h-101l16 125h128l46 137h134l-46 -137h149l46 137h134l-46 -137h79l-16 -125h-106l-46 -135h98l-16 -125h-125l-43 -128h-134l43 128h-149l-43 -128h-134l43 128h-82zM446 250l46 135h-149l-46 -135h149z" />
    <glyph glyph-name="dollar" unicode="$" horiz-adv-x="621" 
d="M194 237q7 -24 49 -54t86 -30q73 0 78 43v3q0 9 -5 18t-17.5 15.5t-23.5 11t-29.5 10t-26.5 8.5l-23 8q-22 8 -33 14l-34 17q-23 11 -36 24t-27 31t-18 37t-4 35q0 10 1 20q9 71 57.5 114.5t121.5 57.5l9 72h137l-9 -72q63 -13 111 -46t62 -73l-125 -76q-11 24 -50.5 48
t-78.5 24q-60 0 -65 -39v-4q0 -8 4 -16t10 -14t19 -12.5t21 -9.5t24.5 -9t21.5 -8q1 0 20 -7t28 -10.5t29.5 -13.5t32 -18.5t27 -23t23.5 -29.5t11.5 -32t3.5 -30q0 -9 -1 -18q-10 -76 -63.5 -123t-138.5 -60l-8 -70h-137l9 73q-70 13 -116 48.5t-58 87.5z" />
    <glyph glyph-name="percent" unicode="%" horiz-adv-x="876" 
d="M103 492q9 73 60 119t122 46q69 0 105 -42t36 -97q0 -13 -2 -26q-8 -70 -59.5 -116.5t-120.5 -46.5q-70 0 -106 42.5t-36 97.5q0 11 1 23zM511 155q9 72 60 118.5t121 46.5t106 -41.5t36 -97.5q0 -12 -2 -26q-8 -70 -59 -116.5t-121 -46.5q-69 0 -105.5 42.5t-36.5 97.5
q0 11 1 23zM629 650h109l-431 -650h-109zM616 105q16 -21 47 -21t52 20.5t25 50.5q1 6 1 12q0 24 -14.5 42.5t-45.5 18.5q-32 0 -53 -20.5t-25 -52.5q-1 -6 -1 -11q0 -23 14 -39zM209 442q16 -21 47 -21t52 20.5t24 50.5q1 6 1 12q0 24 -14.5 42.5t-45.5 18.5
q-32 0 -53 -20.5t-25 -52.5v-9q0 -24 14 -41z" />
    <glyph glyph-name="ampersand" unicode="&#x26;" horiz-adv-x="661" 
d="M64 171q6 53 40.5 96.5t109.5 90.5q-22 31 -33.5 50t-18 43t-6.5 43q0 9 1 19q7 59 59.5 102t133.5 43t120 -41.5t39 -89.5q0 -8 -1 -16q-8 -64 -47.5 -106.5t-96.5 -76.5l89 -128q34 51 41 107l1 8h108l-1 -9q-13 -107 -89 -191l84 -121h-135q-33 47 -34 49
q-77 -51 -160 -51q-107 0 -156.5 46t-49.5 109q0 12 2 24zM216 121q20 -22 67 -22q43 0 88 27l-99 146q-12 -9 -22 -17t-17 -15.5t-12.5 -14t-9 -13.5t-6 -11t-3.5 -10l-2 -8q-1 -2 -2 -7v-5v-7q0 -24 18 -43zM268 491q1 -8 1 -11t3.5 -11t4.5 -10.5t6 -11t7 -11.5t7.5 -12
t8.5 -13q83 47 89 92q1 6 1 11q0 21 -15.5 35.5t-42.5 14.5t-47 -16.5t-23 -44.5q-1 -2 -1 -5t1 -7z" />
    <glyph glyph-name="quotesingle" unicode="'" horiz-adv-x="181" 
d="M92 456l11 194h135l-45 -194h-101z" />
    <glyph glyph-name="parenleft" unicode="(" horiz-adv-x="297" 
d="M89 462q38 141 107 230h143q-71 -83 -109 -218.5t-38 -263.5q0 -16 3 -96t54 -162h-144q-47 88 -49 165t-2 90q0 127 35 255z" />
    <glyph glyph-name="parenright" unicode=")" horiz-adv-x="307" 
d="M27 -48q71 82 109.5 219t38.5 266q0 14 -2.5 93t-53.5 162h143q51 -98 51 -245q0 -59 -18.5 -209.5t-123.5 -285.5h-144z" />
    <glyph glyph-name="asterisk" unicode="*" horiz-adv-x="382" 
d="M193 328l12 97l-96 -52l-31 61l104 56l-86 60l47 62l79 -54l11 92h77l-12 -97l95 52l31 -62l-102 -55l87 -60l-48 -61l-79 55l-12 -94h-77z" />
    <glyph glyph-name="plus" unicode="+" horiz-adv-x="517" 
d="M75 263l15 116h148l18 148h116l-18 -148h148l-15 -116h-148l-18 -148h-116l18 148h-148z" />
    <glyph glyph-name="comma" unicode="," horiz-adv-x="222" 
d="M10 -108l65 197h136l-100 -197h-101z" />
    <glyph glyph-name="hyphen" unicode="-" horiz-adv-x="405" 
d="M68 204l17 134h299l-17 -134h-299z" />
    <glyph glyph-name="period" unicode="." horiz-adv-x="194" 
d="M31 67q5 33 27.5 53.5t55.5 20.5t49.5 -18.5t16.5 -43.5q0 -6 -1 -12q-4 -32 -27.5 -53t-55.5 -21q-33 0 -49.5 19t-16.5 44q0 5 1 11z" />
    <glyph glyph-name="slash" unicode="/" horiz-adv-x="391" 
d="M17 -47l303 739h138l-303 -739h-138z" />
    <glyph glyph-name="zero" unicode="0" horiz-adv-x="641" 
d="M73 325q18 146 107 239.5t215 93.5t187 -84t61 -191q0 -28 -4 -58q-18 -146 -109 -239q-91 -94 -217 -94t-185 83.5t-59 189.5q0 29 4 60zM242 185q33 -50 89 -50q55 0 100 49.5t56 140.5q3 23 3 43q0 59 -28.5 101t-84.5 42t-101 -47.5t-52 -104.5t-7 -77q0 -60 25 -97z
" />
    <glyph glyph-name="one" unicode="1" horiz-adv-x="359" 
d="M150 0l63 516h-139l17 134h286l-80 -650h-147z" />
    <glyph glyph-name="two" unicode="2" horiz-adv-x="522" 
d="M30 0l14 120l107 85q39 31 52 41t49.5 40t53 46.5t39.5 40.5t33.5 43.5t12.5 35.5q1 6 1 11q0 23 -16 40t-56 17q-38 0 -68.5 -23.5t-42.5 -51.5l-124 62q22 54 89 103.5t163 49.5q108 0 158.5 -50t50.5 -121q0 -14 -2 -29q-5 -42 -28 -85t-63.5 -84t-64 -62t-65.5 -54
l-51 -41h233l-16 -134h-459z" />
    <glyph glyph-name="three" unicode="3" 
d="M137 192q16 -22 53 -39.5t82 -17.5q51 0 85 22.5t37 46t3 29.5q0 33 -26.5 55.5t-77.5 22.5q-48 0 -117 -19l15 105l166 119h-226l17 134h431l-15 -124l-145 -114q126 -39 126 -159q0 -15 -2 -32q-14 -115 -97.5 -172t-191.5 -57q-73 0 -134 28.5t-86 72.5z" />
    <glyph glyph-name="four" unicode="4" horiz-adv-x="600" 
d="M37 110l11 93l376 447h146l-53 -434h77l-13 -106h-77l-14 -110h-146l14 110h-321zM371 216l30 248l-208 -248h178z" />
    <glyph glyph-name="five" unicode="5" horiz-adv-x="558" 
d="M34 87l107 104q47 -56 122 -56q48 0 84.5 20t42.5 63q1 5 1 10q0 35 -32 55t-82 20q-64 0 -116 -23l-37 70l91 300h348l-17 -134h-233l-30 -94h13q135 0 188.5 -55t53.5 -129q0 -14 -2 -29q-13 -103 -91.5 -160t-189.5 -57q-142 0 -221 95z" />
    <glyph glyph-name="six" unicode="6" horiz-adv-x="555" 
d="M61 232q11 79 60 139l212 279h158l-136 -180q90 -10 136 -71t46 -132q0 -17 -2 -35q-12 -100 -88 -170t-178 -70q-101 0 -155.5 64t-54.5 143q0 16 2 33zM218 159q24 -29 68 -29q43 0 74.5 29t36.5 73q1 9 1 17q0 33 -22 59.5t-65 26.5q-44 0 -75 -29.5t-37 -73.5
q-1 -8 -1 -15q0 -35 20 -58z" />
    <glyph glyph-name="seven" unicode="7" horiz-adv-x="484" 
d="M197 -1l-154 1l301 516h-260l17 134h431l-12 -97z" />
    <glyph glyph-name="eight" unicode="8" horiz-adv-x="563" 
d="M56 190q5 44 33.5 83t75.5 65q-36 27 -49.5 60t-13.5 63q0 9 1 19q9 71 75 126t178 55q76 0 126 -28.5t65.5 -64t15.5 -69.5q0 -9 -1 -19q-11 -88 -94 -142q40 -25 55.5 -59.5t15.5 -68.5q0 -10 -1 -20q-11 -89 -79.5 -145t-184.5 -56q-117 0 -168.5 51.5t-51.5 121.5
q0 13 2 28zM218 136q23 -27 70 -27t76 25.5t32 48t3 28.5q0 30 -21 53t-68 23q-48 0 -77.5 -25.5t-34.5 -63.5q-1 -5 -1 -10q0 -30 21 -52zM255 412q21 -24 68 -24q46 0 73 24t29.5 43.5t2.5 25.5q0 27 -19.5 49.5t-65.5 22.5t-74 -24.5t-30.5 -44t-2.5 -24.5q0 -28 19 -48z
" />
    <glyph glyph-name="nine" unicode="9" horiz-adv-x="555" 
d="M84 418q13 100 89 170t177 70q102 0 156 -63.5t54 -141.5q0 -17 -2 -35q-9 -78 -59 -139l-212 -280h-158l134 181q-89 10 -135 71.5t-46 134.5q0 15 2 32zM241 345q24 -29 67 -29q44 0 75.5 29t36.5 73q1 9 1 17q0 34 -21.5 59.5t-66.5 25.5q-43 0 -74 -29t-37 -73
q-1 -8 -1 -15q0 -34 20 -58z" />
    <glyph glyph-name="colon" unicode=":" horiz-adv-x="211" 
d="M31 67q5 33 27.5 53.5t55.5 20.5t49.5 -18.5t16.5 -43.5q0 -6 -1 -12q-4 -32 -27.5 -53t-55.5 -21q-33 0 -49.5 19t-16.5 44q0 5 1 11zM68 370q5 32 27.5 52.5t55.5 20.5q32 0 49 -18.5t17 -43.5q0 -5 -2.5 -24t-26 -40t-55.5 -21q-33 0 -49.5 19t-16.5 44q0 5 1 11z" />
    <glyph glyph-name="semicolon" unicode=";" horiz-adv-x="240" 
d="M76 89h135l-100 -197h-101zM95 369q4 31 28.5 52.5t54.5 21.5q31 0 49 -19.5t18 -44.5q0 -5 -2.5 -23t-27 -39.5t-55.5 -21.5q-30 0 -48 19.5t-18 44.5q0 5 1 10z" />
    <glyph glyph-name="less" unicode="&#x3c;" horiz-adv-x="435" 
d="M391 144l-315 122l13 111l345 122l-13 -108l-196 -69l179 -70z" />
    <glyph glyph-name="equal" unicode="=" horiz-adv-x="518" 
d="M89 374l13 108h413l-13 -108h-413zM63 162l13 108h413l-13 -108h-413z" />
    <glyph glyph-name="greater" unicode="&#x3e;" horiz-adv-x="435" 
d="M61 144l13 108l197 70l-180 69l13 108l315 -122l-13 -111z" />
    <glyph glyph-name="question" unicode="?" horiz-adv-x="509" 
d="M170 619q63 42 148 42q98 0 148.5 -42.5t50.5 -108.5q0 -14 -2 -28q-4 -36 -20.5 -68t-29.5 -46.5t-38 -37.5q-36 -34 -48.5 -47t-26.5 -33.5t-16 -38.5l-2 -16h-148l2 16q10 80 86 146q4 3 16 14t16 14.5t13.5 13t13 14t10 13t9.5 14.5t6 14t4 16q0 4 1 8
q-1 19 -14.5 34t-46.5 15t-64 -22t-45 -50l-119 61q32 61 96 103zM171 66q5 33 28 54t55 21q33 0 50.5 -19t17.5 -45q0 -5 -1 -11q-4 -32 -28 -53t-57 -21q-32 0 -49 19t-17 44q0 5 1 11z" />
    <glyph glyph-name="at" unicode="@" horiz-adv-x="796" 
d="M83 322q19 154 131 255t258 101q145 0 226 -90t81 -205q0 -22 -3 -45q-11 -88 -53 -149.5t-120 -61.5q-45 0 -77 21t-43 60q-36 -51 -102 -51q-51 0 -85.5 38.5t-34.5 95.5q0 13 2 28q10 77 58.5 119t99.5 42q52 0 80 -35l3 30h91l-23 -193q-2 -13 -2 -24q0 -56 42 -56
q56 0 73 136q3 21 3 40q0 40 -14 82t-47.5 70.5t-75.5 43t-90 14.5q-100 0 -186.5 -71.5t-101.5 -194.5q-3 -20 -3 -39q0 -40 14 -83t47 -75.5t75.5 -50t89.5 -17.5q70 0 123 26l36 -83q-70 -33 -170 -33q-148 0 -226.5 93.5t-78.5 209.5q0 25 3 52zM365 269q16 -21 46 -21
t50 20.5t24 50.5q1 7 1 13q0 22 -13.5 40t-43.5 18t-51 -20t-25 -51q-1 -6 -1 -12q0 -22 13 -38z" />
    <glyph glyph-name="A" unicode="A" horiz-adv-x="671" 
d="M13 0l342 650h111l183 -650h-156l-24 90h-254l-46 -90h-156zM434 224l-53 192l-97 -192h150z" />
    <glyph glyph-name="B" unicode="B" horiz-adv-x="604" 
d="M123 650h304q80 0 125.5 -45.5t45.5 -111.5q0 -14 -2 -30q-11 -85 -73 -126q65 -40 65 -118q0 -14 -2 -28q-10 -86 -76.5 -138.5t-146.5 -52.5h-320zM206 134h150q32 0 54 20t26 50q1 6 1 11q0 22 -15.5 40t-47.5 18h-150zM370 394q30 0 49.5 16.5t23.5 44.5q1 6 1 11
q0 21 -14.5 35.5t-44.5 14.5h-132l-15 -122h132z" />
    <glyph glyph-name="C" unicode="C" horiz-adv-x="662" 
d="M73 325q18 145 121.5 239t247.5 94q85 0 148.5 -34.5t98.5 -96.5l-129 -88q-19 31 -54.5 51.5t-81.5 20.5q-81 0 -137.5 -52.5t-66.5 -133.5q-2 -15 -2 -29q0 -63 40 -110t120 -47q45 0 86 22.5t68 53.5l107 -92q-107 -131 -279 -131q-144 0 -217 85.5t-73 196.5
q0 25 3 51z" />
    <glyph glyph-name="D" unicode="D" horiz-adv-x="657" 
d="M123 650h247q142 0 212 -81.5t70 -190.5q0 -26 -10.5 -112t-110 -176t-241.5 -90h-247zM208 143h100q17 0 36 3.5t46 15t49 30.5t40 53.5t21.5 65t3.5 44.5q0 27 -8 55.5t-25.5 47t-41.5 30.5t-42.5 15.5t-34.5 3.5h-100z" />
    <glyph glyph-name="E" unicode="E" horiz-adv-x="547" 
d="M43 0l80 650h446l-17 -134h-299l-15 -124h278l-16 -134h-278l-16 -124h299l-16 -134h-446z" />
    <glyph glyph-name="F" unicode="F" horiz-adv-x="550" 
d="M43 0l80 650h450l-17 -138h-303l-17 -139h284l-17 -139h-284l-29 -234h-147z" />
    <glyph glyph-name="G" unicode="G" horiz-adv-x="725" 
d="M73 325q18 145 121.5 239t247.5 94q85 0 148.5 -34.5t98.5 -95.5l-130 -88q-43 71 -135 71q-81 0 -137.5 -52.5t-66.5 -133.5q-2 -15 -2 -29q0 -63 40 -110t120 -47q50 0 94 26.5t62 76.5h-152l16 134h321l-8 -66q-23 -141 -117.5 -229.5t-233.5 -88.5q-144 0 -217 85.5
t-73 196.5q0 25 3 51z" />
    <glyph glyph-name="H" unicode="H" horiz-adv-x="651" 
d="M123 650h147l-31 -254h252l31 254h147l-80 -650h-147l31 254h-252l-31 -254h-147z" />
    <glyph glyph-name="I" unicode="I" horiz-adv-x="252" 
d="M43 0l80 650h147l-80 -650h-147z" />
    <glyph glyph-name="J" unicode="J" horiz-adv-x="529" 
d="M192 214q3 -79 68 -79q36 0 58.5 22.5t27.5 61.5l53 431h148l-56 -452q-12 -96 -80 -151t-169 -55q-95 0 -146 47t-53 125z" />
    <glyph glyph-name="K" unicode="K" horiz-adv-x="579" 
d="M123 650h147l-32 -256l219 256h166l-271 -325l204 -325h-170l-164 259l-32 -259h-147z" />
    <glyph glyph-name="L" unicode="L" horiz-adv-x="530" 
d="M43 0l80 650h147l-64 -516h297l-16 -134h-444z" />
    <glyph glyph-name="M" unicode="M" horiz-adv-x="765" 
d="M123 650h148l136 -362l227 362h148l-80 -650h-147l43 350l-166 -277h-101l-98 277l-43 -350h-147z" />
    <glyph glyph-name="N" unicode="N" horiz-adv-x="643" 
d="M123 650h142l200 -390l48 390h147l-80 -650h-143l-199 389l-48 -389h-147z" />
    <glyph glyph-name="O" unicode="O" horiz-adv-x="735" 
d="M73 325q18 145 121.5 239t247.5 94t216 -85.5t72 -195.5q0 -25 -3 -52q-18 -146 -120 -239q-103 -94 -247 -94t-217 85.5t-73 196.5q0 25 3 51zM254 191q44 -52 124 -52t136 52t62 100.5t6 63.5q0 62 -39 109t-119 47q-81 0 -137.5 -52.5t-66.5 -133.5q-2 -15 -2 -29
q0 -63 36 -105z" />
    <glyph glyph-name="P" unicode="P" horiz-adv-x="593" 
d="M123 650h305q80 0 129 -52.5t49 -128.5q0 -18 -8 -79.5t-76 -119.5t-148 -58h-158l-26 -212h-147zM365 354q33 0 60 20.5t29.5 41.5t2.5 26q0 28 -19 46.5t-52 18.5h-134l-19 -153h132z" />
    <glyph glyph-name="Q" unicode="Q" horiz-adv-x="735" 
d="M73 325q18 145 122.5 239t246.5 94q145 0 216.5 -85t71.5 -196q0 -25 -3 -52q-10 -86 -52.5 -156.5t-108.5 -115.5l83 -135h-176l-49 79q-35 -5 -64 -5q-144 0 -217 85.5t-73 196.5q0 25 3 51zM254 191q44 -52 124 -52t136 52t62 100.5t6 63.5q0 62 -39 109t-119 47
q-81 0 -137.5 -52.5t-66.5 -133.5q-2 -15 -2 -29q0 -63 36 -105z" />
    <glyph glyph-name="R" unicode="R" horiz-adv-x="617" 
d="M123 650h315q79 0 128.5 -52.5t49.5 -128.5q0 -18 -3 -38q-9 -76 -50.5 -128t-99.5 -75l111 -228h-170l-103 212h-85l-26 -212h-147zM376 354q33 0 59.5 20.5t29 41.5t2.5 26q0 28 -19.5 46.5t-52.5 18.5h-143l-19 -153h143z" />
    <glyph glyph-name="S" unicode="S" horiz-adv-x="612" 
d="M170 234q12 -30 61.5 -64.5t109.5 -34.5q81 0 87 54v3q0 10 -7.5 20t-24 18t-31.5 13.5t-36.5 12t-30.5 10.5q-1 1 -30 10.5t-44.5 16t-43.5 23.5t-42.5 35t-23 43.5t-8.5 48.5q0 10 1 20q13 101 93 150t188 49q90 0 158.5 -44t82.5 -99l-126 -77q-12 24 -55 48.5
t-96 24.5q-70 0 -75 -45v-5q0 -10 6.5 -19.5t22.5 -18t30 -13.5t36 -12t31 -10q1 -1 24.5 -9t36.5 -14t37.5 -18t39 -26t30 -33t20 -39t4.5 -38q0 -9 -1 -19q-12 -100 -90 -154t-198 -54q-107 0 -177 48t-88 113z" />
    <glyph glyph-name="T" unicode="T" horiz-adv-x="591" 
d="M86 516l17 134h525l-17 -134h-189l-63 -516h-147l63 516h-189z" />
    <glyph glyph-name="U" unicode="U" horiz-adv-x="614" 
d="M71 231l52 419h147l-50 -403q-1 -12 -1 -23q0 -41 24.5 -65t70.5 -24t79.5 26.5t40.5 85.5l50 403h148l-52 -419q-12 -100 -88 -169q-77 -70 -196 -70t-173 63t-54 143q0 16 2 33z" />
    <glyph glyph-name="V" unicode="V" horiz-adv-x="659" 
d="M93 650h156l105 -405l206 405h156l-333 -650h-117z" />
    <glyph glyph-name="W" unicode="W" horiz-adv-x="952" 
d="M93 650h156l79 -383l173 383h108l78 -364l166 364h156l-297 -650h-126l-73 346l-157 -346h-126z" />
    <glyph glyph-name="X" unicode="X" horiz-adv-x="646" 
d="M13 0l255 325l-175 325h169l107 -197l154 197h170l-255 -325l175 -325h-170l-106 197l-155 -197h-169z" />
    <glyph glyph-name="Y" unicode="Y" horiz-adv-x="637" 
d="M256 650l107 -224l163 224h168l-275 -376l-34 -274h-147l33 271l-184 379h169z" />
    <glyph glyph-name="Z" unicode="Z" horiz-adv-x="543" 
d="M33 0l15 123l330 392h-276l17 135l462 1l-15 -124l-335 -392l280 -1l-16 -134h-462z" />
    <glyph glyph-name="bracketleft" unicode="[" horiz-adv-x="325" 
d="M37 -48l91 740h220l-13 -103h-86l-65 -534h86l-13 -103h-220z" />
    <glyph glyph-name="backslash" unicode="\" horiz-adv-x="388" 
d="M224 -48l-121 739h138l121 -739h-138z" />
    <glyph glyph-name="bracketright" unicode="]" horiz-adv-x="325" 
d="M37 -48l13 103h86l65 534h-86l13 103h220l-91 -740h-220z" />
    <glyph glyph-name="asciicircum" unicode="^" horiz-adv-x="449" 
d="M234 650h118l76 -315h-108l-44 180l-85 -180h-107z" />
    <glyph glyph-name="underscore" unicode="_" horiz-adv-x="455" 
d="M43 0l16 134h349l-16 -134h-349z" />
    <glyph glyph-name="grave" unicode="`" horiz-adv-x="217" 
d="M145 532l-45 118h121l41 -118h-117z" />
    <glyph glyph-name="a" unicode="a" 
d="M52 230q13 104 82 170.5t163 66.5q72 0 114 -45l4 38h142l-56 -460h-142l5 38q-52 -46 -125 -46q-93 0 -141.5 61t-48.5 138q0 19 3 39zM209 155q23 -29 67 -29t75 29t36 75q1 9 1 18q0 33 -20.5 59t-65.5 26t-75.5 -28.5t-36.5 -74.5q-1 -8 -1 -15q0 -36 20 -60z" />
    <glyph glyph-name="b" unicode="b" 
d="M123 650h142l-28 -228q51 45 124 45q94 0 142 -60t48 -137q0 -20 -3 -40q-13 -103 -82.5 -170.5t-162.5 -67.5q-73 0 -113 46l-5 -38h-142zM231 155q23 -29 67 -29q45 0 76 29.5t36 74.5q1 9 1 18q0 33 -21 59t-66 26q-44 0 -74.5 -28.5t-36.5 -74.5q-1 -8 -1 -16
q0 -35 19 -59z" />
    <glyph glyph-name="c" unicode="c" horiz-adv-x="481" 
d="M52 230q13 105 86.5 171.5t178.5 66.5q122 0 176 -93l-112 -79q-24 37 -76 37q-45 0 -76.5 -29t-37.5 -74q-1 -8 -1 -15q0 -35 22 -62t67 -27q52 0 86 36l92 -77q-76 -94 -198 -94q-105 0 -157 61t-52 141q0 18 2 37z" />
    <glyph glyph-name="d" unicode="d" 
d="M52 230q13 104 82 170.5t163 66.5q72 0 114 -45l28 228h142l-80 -650h-142l5 38q-52 -46 -125 -46q-93 0 -141.5 61t-48.5 138q0 19 3 39zM209 155q23 -29 67 -29t75 29t36 75q1 9 1 18q0 33 -20.5 59t-65.5 26t-75.5 -28.5t-36.5 -74.5q-1 -8 -1 -15q0 -36 20 -60z" />
    <glyph glyph-name="e" unicode="e" horiz-adv-x="519" 
d="M52 230q13 104 84.5 171.5t175.5 67.5q102 0 148.5 -60t46.5 -138q0 -20 -3 -41l-4 -38h-314q4 -38 27.5 -59.5t59.5 -21.5q64 0 102 43l88 -72q-36 -43 -89.5 -67.5t-115.5 -24.5q-105 0 -156.5 61.5t-51.5 141.5q0 18 2 37zM199 281h178q-12 76 -79 76q-70 0 -99 -76z
" />
    <glyph glyph-name="f" unicode="f" horiz-adv-x="354" 
d="M56 353l13 107h58l5 34q18 156 172 156h98l-14 -110h-52q-56 0 -62 -55l-4 -25h97l-13 -107h-97l-43 -353h-143l43 353h-58z" />
    <glyph glyph-name="g" unicode="g" 
d="M146 -36q35 -42 98 -42q20 0 42 6.5t47 33.5t30 70l1 7q-53 -47 -126 -47q-93 0 -141 61t-48 138q0 19 8 80.5t77 128.5t162 67q74 0 115 -46l4 39h142l-52 -428q-12 -102 -84.5 -166t-190.5 -64q-61 0 -110 22.5t-77 61.5zM208 155q23 -29 67 -29q45 0 76 29.5t36 74.5
q1 9 1 18q0 33 -21 59t-66 26q-44 0 -74.5 -28.5t-36.5 -74.5q-1 -8 -1 -16q0 -35 19 -59z" />
    <glyph glyph-name="h" unicode="h" horiz-adv-x="548" 
d="M123 650h142l-28 -228q52 45 127 45q32 0 61 -9t53.5 -29.5t34.5 -52t10 -62.5q0 -16 -2 -33l-35 -281h-143l32 258q1 11 1 20q0 35 -20.5 52t-49.5 17q-17 0 -33 -5t-34 -26.5t-22 -57.5l-32 -258h-142z" />
    <glyph glyph-name="i" unicode="i" horiz-adv-x="259" 
d="M104 460h144l-57 -460h-143zM116 596q4 34 29.5 54t55.5 20q31 0 50 -18.5t19 -44.5q0 -5 -1 -11q-4 -35 -30 -56q-26 -22 -56 -22t-49 19.5t-19 47.5q0 5 1 11z" />
    <glyph glyph-name="j" unicode="j" horiz-adv-x="268" 
d="M-30 -74h20q21 0 30.5 1.5t21.5 14.5t15 40l58 478h143l-62 -509q-7 -60 -48.5 -97.5t-119.5 -37.5h-72zM125 596q4 34 30 54t56 20t49.5 -18.5t19.5 -44.5q0 -6 -1 -11q-4 -35 -29 -56q-26 -22 -56 -22t-50 20t-20 47q0 6 1 11z" />
    <glyph glyph-name="k" unicode="k" horiz-adv-x="524" 
d="M123 650h142l-44 -357l150 167h165l-196 -218l161 -242h-165l-128 191l-23 -191h-142z" />
    <glyph glyph-name="l" unicode="l" horiz-adv-x="248" 
d="M43 0l80 650h143l-81 -650h-142z" />
    <glyph glyph-name="m" unicode="m" horiz-adv-x="824" 
d="M99 460h142l-5 -42q53 49 123 49q94 0 132 -66q59 66 156 66q32 0 59.5 -9t51 -29t32 -51t8.5 -61q0 -17 -2 -36l-35 -281h-142l32 261q1 8 1 16q0 16 -5.5 31t-18 22.5t-22 10t-19.5 2.5q-14 0 -28.5 -4t-32 -24t-21.5 -54l-32 -261h-142l32 261q1 8 1 16q0 16 -5.5 31
t-18 22.5t-22 10t-19.5 2.5q-14 0 -28.5 -4t-32 -24t-21.5 -54l-32 -261h-142z" />
    <glyph glyph-name="n" unicode="n" horiz-adv-x="548" 
d="M99 460h142l-4 -38q52 45 127 45q32 0 61 -9t53.5 -29.5t34.5 -52t10 -62.5q0 -16 -2 -33l-35 -281h-143l32 258q1 11 1 20q0 35 -20.5 52t-49.5 17q-17 0 -33 -5t-34 -26.5t-22 -57.5l-32 -258h-142z" />
    <glyph glyph-name="o" unicode="o" horiz-adv-x="544" 
d="M52 230q13 105 88.5 172.5t180.5 67.5q104 0 157 -61.5t53 -141.5q0 -18 -2 -37q-13 -103 -88 -171q-75 -69 -179 -69t-158 62.5t-54 141.5q0 18 2 36zM211 156q23 -30 67 -30t74.5 29.5t33.5 56t3 34.5q0 34 -20.5 60.5t-64.5 26.5q-45 0 -76 -29t-34 -55.5t-3 -33.5
q0 -35 20 -59z" />
    <glyph glyph-name="p" unicode="p" 
d="M99 460h142l-4 -39q51 46 124 46q93 0 141.5 -61t48.5 -138q0 -19 -3 -39q-13 -104 -82 -170.5t-163 -66.5q-73 0 -113 46l-28 -222h-142zM231 155q23 -29 67 -29q45 0 76 29t36 74q1 8 1 16q0 35 -21.5 61.5t-65.5 26.5t-75 -29t-34 -56t-3 -35q0 -35 19 -58z" />
    <glyph glyph-name="q" unicode="q" 
d="M52 229q13 103 82.5 170.5t162.5 67.5q73 0 114 -46l4 39h142l-79 -644h-142l28 222q-52 -46 -125 -46q-94 0 -142 60t-48 137q0 20 3 40zM209 155q23 -29 67 -29q45 0 75.5 29t35.5 74q1 8 1 16q0 35 -21 61.5t-65 26.5q-45 0 -76 -29.5t-36 -74.5q-1 -8 -1 -15
q0 -36 20 -59z" />
    <glyph glyph-name="r" unicode="r" horiz-adv-x="380" 
d="M99 460h142l-10 -83q66 88 173 90l-16 -134q-162 0 -179 -135l-24 -198h-142z" />
    <glyph glyph-name="s" unicode="s" horiz-adv-x="451" 
d="M131 164q5 -19 38.5 -42.5t68.5 -23.5q53 0 57 32v3q0 6 -3.5 12.5t-13.5 11.5t-18.5 8.5t-23 8t-20.5 6.5q-2 1 -15 5.5t-21.5 8t-24 11t-26 15t-22.5 19t-19 24t-10 26t-3 25.5q0 6 1 13q9 71 67.5 107.5t138.5 36.5q72 0 119.5 -29t63.5 -70l-100 -61q-9 17 -40 34
t-62 17q-45 0 -48 -28v-4q0 -6 3.5 -12.5t13.5 -12t18 -9t22.5 -8t20.5 -6.5q1 0 11.5 -4t16.5 -6.5t18.5 -8t20.5 -10t19.5 -12t19 -15t16 -18t13 -21t6 -20.5t1.5 -17q0 -8 -1 -15q-9 -72 -65 -110.5t-146 -38.5q-81 0 -132.5 33t-64.5 79z" />
    <glyph glyph-name="t" unicode="t" horiz-adv-x="349" 
d="M56 353l13 107h58l18 142h143l-18 -142h94l-13 -107h-94l-23 -189q-1 -8 -1 -15q0 -10 2.5 -19.5t13.5 -13.5t17.5 -5t21.5 -1h29l-14 -110h-89q-128 0 -128 112q0 13 2 28l26 213h-58z" />
    <glyph glyph-name="u" unicode="u" horiz-adv-x="548" 
d="M65 179l34 281h142l-31 -259q-1 -10 -1 -18q0 -24 11.5 -42.5t27 -23.5t31.5 -5q12 0 23.5 3t26 11.5t25 28t14.5 46.5l31 259h143l-56 -460h-143l5 37q-53 -45 -128 -45q-72 0 -114.5 39.5t-42.5 109.5q0 18 2 38z" />
    <glyph glyph-name="v" unicode="v" horiz-adv-x="537" 
d="M69 460h147l71 -267l137 267h147l-239 -460h-138z" />
    <glyph glyph-name="w" unicode="w" horiz-adv-x="774" 
d="M69 460h147l47 -259l122 259h107l60 -259l109 259h147l-205 -460h-138l-54 246l-114 -246h-138z" />
    <glyph glyph-name="x" unicode="x" horiz-adv-x="533" 
d="M13 0l190 230l-134 230h164l66 -114l94 114h164l-190 -230l134 -230h-164l-66 114l-94 -114h-164z" />
    <glyph glyph-name="y" unicode="y" horiz-adv-x="537" 
d="M216 460l71 -263l137 263h147l-335 -644h-138l96 185l-125 459h147z" />
    <glyph glyph-name="z" unicode="z" horiz-adv-x="422" 
d="M23 0l13 106l206 238h-177l14 116h356l-13 -106l-206 -238h177l-14 -116h-356z" />
    <glyph glyph-name="braceleft" unicode="{" horiz-adv-x="376" 
d="M88 367h15q15 0 27 12.5t15 37.5l19 153q8 66 37.5 94t81.5 28h116l-13 -103h-49q-32 0 -38 -43l-16 -129q-8 -71 -69 -95q47 -21 47 -77q0 -9 -1 -18l-16 -129q-1 -6 -1 -12q0 -31 29 -31h49l-13 -103h-116q-91 0 -91 95q0 12 2 27l19 153q1 6 1 12q0 16 -8 27t-23 11
h-15z" />
    <glyph glyph-name="bar" unicode="|" horiz-adv-x="239" 
d="M37 -48l91 740h134l-91 -740h-134z" />
    <glyph glyph-name="braceright" unicode="}" horiz-adv-x="376" 
d="M37 -48l13 103h49q32 0 38 43l16 129q8 71 69 95q-47 21 -47 77q0 9 1 18l16 129q1 6 1 12q0 31 -29 31h-49l13 103h116q52 0 71.5 -24.5t19.5 -65.5q0 -15 -2 -32l-19 -153q-1 -6 -1 -12q0 -16 8 -27t23 -11h15l-11 -90h-15q-15 0 -27 -12.5t-15 -37.5l-19 -153
q-14 -122 -119 -122h-116z" />
    <glyph glyph-name="asciitilde" unicode="~" horiz-adv-x="582" 
d="M127 368q43 49 117 49q26 0 47.5 -9t30.5 -16.5t24 -23.5q33 -34 57 -34q49 0 57 67h108q-10 -78 -55 -127t-123 -49q-61 0 -105 46q-3 3 -9 9.5t-7.5 8t-6 5.5t-7 5t-6 3t-7.5 2.5t-9 0.5q-24 0 -37 -19.5t-16 -43.5h-107q10 77 54 126z" />
    <glyph glyph-name="exclamdown" unicode="&#xa1;" horiz-adv-x="224" 
d="M85 443h128l-45 -443h-147zM92 583q4 31 28.5 52.5t55.5 21.5t48.5 -19.5t17.5 -44.5q0 -5 -2.5 -23t-26.5 -40q-25 -22 -56 -22t-48.5 20t-17.5 44q0 6 1 11z" />
    <glyph glyph-name="cent" unicode="&#xa2;" horiz-adv-x="643" 
d="M84 330q12 106 77.5 187t168.5 106l10 74h134l-9 -67q116 -17 178 -128l-132 -79q-42 67 -113 67q-63 0 -112.5 -39t-55.5 -88t-6 -64q0 -59 36 -94.5t99 -35.5q77 0 128 62l113 -74q-88 -110 -208 -128l-10 -77h-134l10 84q-97 25 -137 97t-40 150q0 23 3 47z" />
    <glyph glyph-name="sterling" unicode="&#xa3;" horiz-adv-x="528" 
d="M43 0l13 108q148 0 148 134q0 21 -3 44h-119l9 73h94q-15 54 -15 99q0 95 67.5 152t193.5 57q51 0 111 -10l-13 -103q-44 10 -78 10q-16 0 -44 -4.5t-52.5 -19.5t-32 -41.5t-7.5 -51.5q0 -7 1.5 -27t13.5 -61h149l-9 -73h-125q1 -11 1 -22q0 -97 -71 -156h203l-13 -108
h-422z" />
    <glyph glyph-name="currency" unicode="&#xa4;" horiz-adv-x="585" 
d="M150 234q-11 28 -11 61q0 14 2 28q6 48 31 91l-66 75l82 71l64 -73q44 24 96 24q49 0 88 -22l80 71l65 -68l-83 -76q12 -31 12 -66q0 -13 -2 -27q-8 -55 -33 -91l67 -76l-82 -71l-64 73q-44 -24 -95 -24q-52 0 -91 25l-80 -71l-68 68zM264 264q19 -22 51 -22t56.5 22
t27 43.5t2.5 27.5q0 29 -17.5 48.5t-49.5 19.5t-56.5 -21.5t-27 -43t-2.5 -27.5q0 -29 16 -47z" />
    <glyph glyph-name="yen" unicode="&#xa5;" horiz-adv-x="637" 
d="M256 650l107 -224l163 224h168l-249 -340h105l-9 -73h-127l-8 -66h127l-9 -73h-127l-12 -98h-147l12 98h-128l9 73h128l8 66h-128l9 73h104l-165 340h169z" />
    <glyph glyph-name="brokenbar" unicode="&#xa6;" horiz-adv-x="239" 
d="M90 379l38 313h134l-38 -313h-134zM37 -48l38 312h134l-38 -312h-134z" />
    <glyph glyph-name="section" unicode="&#xa7;" horiz-adv-x="467" 
d="M168 130q3 -29 28 -41t50 -12q58 0 63 40v4q0 16 -13 29t-48 26q-26 10 -44.5 19t-45.5 27t-38.5 41t-11.5 46q0 7 1 14q9 75 71 109q-43 30 -43 83q0 9 1 19q7 62 58 101t122 39q65 0 102 -28.5t45 -71.5l-103 -44q-7 36 -58 36q-27 0 -41.5 -9.5t-16.5 -22.5v-4
q0 -9 9.5 -20t41.5 -23q1 0 27.5 -9.5t36.5 -14t32 -17.5t31.5 -26.5t15.5 -32t6 -36.5q0 -7 -1 -15q-9 -81 -75 -114q47 -32 47 -86q0 -9 -1 -19q-10 -78 -65 -113t-122 -35q-78 0 -120 34.5t-55 89.5zM230 297q16 -13 41 -13q29 0 46.5 13.5t20.5 38.5q0 3 1 7
q-1 16 -14.5 28.5t-43.5 12.5q-58 0 -64 -54v-6q0 -16 13 -27z" />
    <glyph glyph-name="dieresis" unicode="&#xa8;" horiz-adv-x="359" 
d="M98 634q4 28 25.5 44.5t45.5 16.5q25 0 41.5 -15.5t16.5 -36.5q0 -4 -1 -9q-4 -29 -26 -47t-46 -18t-40.5 16.5t-16.5 38.5q0 5 1 10zM290 634q4 28 25 44.5t46 16.5q24 0 40.5 -15t16.5 -36q0 -5 -1 -10q-4 -29 -25.5 -47t-45.5 -18q-25 0 -41 16.5t-16 38.5q0 5 1 10z
" />
    <glyph glyph-name="copyright" unicode="&#xa9;" horiz-adv-x="762" 
d="M83 325q18 145 121.5 239t247.5 94t217 -85.5t73 -196.5q0 -25 -3 -51q-18 -147 -121 -240t-248 -93q-147 0 -218.5 85t-71.5 196q0 25 3 52zM160 234q10 -45 35 -83.5t72.5 -62t111.5 -23.5q65 0 118.5 23.5t87.5 62t54 83t24 77t4 50.5q0 28 -7.5 64t-32 74.5t-72 62
t-112.5 23.5t-118.5 -23.5t-87.5 -62t-54.5 -83t-24.5 -77t-4 -49.5q0 -28 6 -56zM248 326q10 77 64 127t130 50q92 0 131 -69l-67 -46q-24 41 -73 41q-33 0 -68.5 -23.5t-39.5 -57t-4 -42.5q0 -41 26.5 -62.5t59.5 -21.5q50 0 83 39l57 -43q-57 -70 -149 -70q-76 0 -114 46
t-38 105q0 13 2 27z" />
    <glyph glyph-name="guillemotleft" unicode="&#xab;" horiz-adv-x="727" 
d="M367 321l195 186h170l-194 -186l149 -186h-170zM77 321l195 186h169l-194 -186l149 -186h-169z" />
    <glyph glyph-name="logicalnot" unicode="&#xac;" horiz-adv-x="553" 
d="M379 183l16 125h-314l16 134h448l-32 -259h-134z" />
    <glyph glyph-name="registered" unicode="&#xae;" horiz-adv-x="760" 
d="M83 325q17 143 121 238t248 95q143 0 215.5 -86.5t72.5 -197.5q0 -24 -10 -108t-113.5 -179t-246.5 -95q-144 0 -217 86.5t-73 197.5q0 24 3 49zM161 235q9 -44 33.5 -83t72.5 -63t112 -24t117.5 24t87.5 63t54.5 83t25.5 90q2 18 2 35q0 28 -7.5 63.5t-32 74.5t-72 63
t-111.5 24t-118 -24t-88 -63t-55 -83.5t-26 -89.5q-2 -15 -2 -30q0 -31 7 -60zM296 490h165q40 0 65.5 -27.5t25.5 -67.5q0 -9 -1 -18q-9 -78 -77 -106l58 -117h-88l-53 108h-46l-13 -108h-77zM354 337h75q16 0 29.5 11t14.5 21.5t1 13.5q0 14 -9.5 24t-25.5 10h-75z" />
    <glyph glyph-name="macron" unicode="&#xaf;" horiz-adv-x="244" 
d="M89 560l11 90h204l-11 -90h-204z" />
    <glyph glyph-name="degree" unicode="&#xb0;" horiz-adv-x="317" 
d="M100 536q7 54 46 88.5t94 34.5q54 0 82 -31.5t28 -72.5q0 -9 -1 -19q-7 -53 -46.5 -87.5t-92.5 -34.5q-55 0 -83 31.5t-28 71.5q0 9 1 19zM183 501q14 -14 36 -14q21 0 37.5 14t19.5 35v6q0 18 -12 31t-33 13q-22 0 -39.5 -14.5t-19.5 -35.5q-1 -4 -1 -7q0 -16 12 -28z
" />
    <glyph glyph-name="plusminus" unicode="&#xb1;" horiz-adv-x="464" 
d="M96 432h126l10 80h107l-10 -80h126l-11 -91h-126l-10 -81h-107l10 81h-126zM58 121l11 90h359l-11 -90h-359z" />
    <glyph glyph-name="twosuperior" unicode="&#xb2;" horiz-adv-x="337" 
d="M59 262l9 72l64 52q42 33 65 51.5t50.5 48.5t29.5 49v6q0 14 -9.5 24.5t-33.5 10.5q-23 0 -41 -14t-26 -31l-75 37q13 32 54 62t98 30q65 0 95.5 -29.5t30.5 -72.5q0 -8 -1 -18q-3 -26 -17 -52t-38 -50t-39 -37.5t-39 -32.5l-31 -25h141l-10 -81h-277z" />
    <glyph glyph-name="threesuperior" unicode="&#xb3;" horiz-adv-x="368" 
d="M124 374q9 -14 31.5 -24.5t49.5 -10.5q31 0 51.5 14t23.5 38v7q0 20 -16 34t-46 14t-71 -12l9 63l100 72h-136l10 81h260l-9 -75l-87 -69q75 -22 75 -94q0 -10 -1 -21q-8 -70 -58.5 -104t-115.5 -34q-44 0 -81 17t-51 44z" />
    <glyph glyph-name="acute" unicode="&#xb4;" horiz-adv-x="217" 
d="M85 532l71 118h121l-75 -118h-117z" />
    <glyph glyph-name="paragraph" unicode="&#xb6;" horiz-adv-x="622" 
d="M98 474q10 79 61 127.5t123 48.5h137l-80 -650h-134l38 312q-77 0 -112 39t-35 95q0 14 2 28zM425 0l80 650h134l-80 -650h-134z" />
    <glyph glyph-name="periodcentered" unicode="&#xb7;" horiz-adv-x="195" 
d="M63 326q4 33 27.5 53.5t55.5 20.5q33 0 50 -18.5t17 -44.5q0 -5 -2.5 -24.5t-26 -40.5t-56.5 -21q-32 0 -49 19t-17 45q0 5 1 11z" />
    <glyph glyph-name="cedilla" unicode="&#xb8;" horiz-adv-x="211" 
d="M6 -120q15 -14 63 -14q37 0 40 19v2q0 7 -10 11.5t-30 4.5q-29 0 -43 -7l6 53l37 51h76l-31 -44q63 -12 63 -61q0 -5 -1 -10q-11 -82 -115 -82q-45 0 -63 10z" />
    <glyph glyph-name="onesuperior" unicode="&#xb9;" horiz-adv-x="245" 
d="M126 258l38 311h-83l10 81h172l-48 -392h-89z" />
    <glyph glyph-name="guillemotright" unicode="&#xbb;" horiz-adv-x="688" 
d="M518 321l-148 186h166l149 -186l-194 -186h-166zM40 135l193 186l-148 186h165l149 -186l-194 -186h-165z" />
    <glyph glyph-name="onequarter" unicode="&#xbc;" horiz-adv-x="518" 
d="M250 101l186 221h72l-26 -215h38l-6 -53h-38l-7 -54h-73l7 54h-159zM510 650h72l-481 -650h-72zM87 650h144l-40 -328h-74l31 260h-70zM410 107l15 123l-103 -123h88z" />
    <glyph glyph-name="onehalf" unicode="&#xbd;" horiz-adv-x="570" 
d="M508 650h72l-481 -650h-72zM332 58l53 42q28 22 39 31t33.5 28.5t32.5 34t11 26.5v5q0 11 -7.5 19.5t-26.5 8.5t-33.5 -11t-20.5 -25l-61 30q12 27 44.5 51t78.5 24q53 0 77.5 -24.5t24.5 -59.5q0 -7 -1 -14q-3 -27 -25 -57.5t-38.5 -45t-44.5 -36.5l-24 -20h113l-8 -65
h-223zM87 650h144l-40 -328h-74l31 260h-70z" />
    <glyph glyph-name="threequarters" unicode="&#xbe;" horiz-adv-x="570" 
d="M302 101l186 221h72l-26 -215h38l-6 -53h-38l-7 -54h-73l7 54h-159zM108 422q22 -29 68 -29q25 0 42 11.5t19 31.5q1 4 1 7q0 16 -13.5 27t-38.5 11q-26 0 -58 -9l7 52l83 59h-113l9 67h215l-8 -62l-72 -57q63 -19 63 -79q0 -8 -1 -16q-7 -58 -48.5 -86t-95.5 -28
q-37 0 -67.5 14t-42.5 36zM560 650h72l-481 -650h-72zM462 107l15 123l-103 -123h88z" />
    <glyph glyph-name="questiondown" unicode="&#xbf;" horiz-adv-x="468" 
d="M32 172q5 37 21.5 68.5t30 46t38.5 37.5q65 64 78 85q10 18 12 34l2 16h147l-2 -16q-9 -82 -85 -146q-58 -54 -73 -76q-13 -21 -15 -41v-7q0 -46 61 -46q33 0 63.5 22t45.5 51l117 -62q-32 -61 -95 -103t-148 -42q-98 0 -149 43t-51 110q0 13 2 26zM227 587q4 32 28 53
t56 21q33 0 50 -19t17 -44q0 -5 -1 -11q-4 -33 -27.5 -54t-56.5 -21q-32 0 -49.5 19t-17.5 45q0 5 1 11z" />
    <glyph glyph-name="Agrave" unicode="&#xc0;" horiz-adv-x="671" 
d="M13 0l342 650h111l183 -650h-156l-24 90h-254l-46 -90h-156zM434 224l-53 192l-97 -192h150zM317 828h121l41 -118h-117z" />
    <glyph glyph-name="Aacute" unicode="&#xc1;" horiz-adv-x="671" 
d="M13 0l342 650h111l183 -650h-156l-24 90h-254l-46 -90h-156zM434 224l-53 192l-97 -192h150zM431 828h121l-75 -118h-117z" />
    <glyph glyph-name="Acircumflex" unicode="&#xc2;" horiz-adv-x="671" 
d="M355 650h111l183 -650h-156l-24 90h-254l-46 -90h-156zM263 710l91 118h160l61 -118h-116l-30 69l-49 -69h-117zM434 224l-53 192l-97 -192h150z" />
    <glyph glyph-name="Atilde" unicode="&#xc3;" horiz-adv-x="671" 
d="M13 0l342 650h111l183 -650h-156l-24 90h-254l-46 -90h-156zM287 796q32 35 85 35q46 0 73 -35q18 -24 39 -24q31 0 38 46h81q-6 -56 -39 -91.5t-90 -35.5q-49 0 -75 35q-19 24 -34 24q-17 0 -26 -15t-11 -31h-81q7 56 40 92zM434 224l-53 192l-97 -192h150z" />
    <glyph glyph-name="Adieresis" unicode="&#xc4;" horiz-adv-x="671" 
d="M355 650h111l183 -650h-156l-24 90h-254l-46 -90h-156zM434 224l-53 192l-97 -192h150zM266 758q4 28 25.5 44.5t45.5 16.5q25 0 41.5 -15.5t16.5 -36.5q0 -4 -1 -9q-4 -29 -26 -47t-46 -18t-40.5 16.5t-16.5 38.5q0 5 1 10zM458 758q4 28 25 44.5t46 16.5q24 0 40.5 -15
t16.5 -36q0 -5 -1 -10q-4 -29 -25.5 -47t-45.5 -18q-25 0 -41 16.5t-16 38.5q0 5 1 10z" />
    <glyph glyph-name="Aring" unicode="&#xc5;" horiz-adv-x="671" 
d="M355 650h111l183 -650h-156l-24 90h-254l-46 -90h-156zM327 787q5 43 36.5 69.5t77.5 26.5t68.5 -24.5t22.5 -57.5q0 -7 -1 -14q-5 -41 -36.5 -68t-77.5 -27q-45 0 -68 25t-23 57q0 6 1 13zM434 224l-53 192l-97 -192h150zM399 764q6 -11 26 -11q34 0 40 34v5
q0 30 -32 30q-20 0 -29 -11t-10 -24v-5q0 -9 5 -18z" />
    <glyph glyph-name="AE" unicode="&#xc6;" horiz-adv-x="977" 
d="M13 0l351 650h636l-17 -134h-272l-15 -124h251l-16 -134h-251l-16 -124h272l-16 -134h-419l32 258h-225l-139 -258h-156zM549 392l15 124h-118l-66 -124h169z" />
    <glyph glyph-name="Ccedilla" unicode="&#xc7;" horiz-adv-x="662" 
d="M73 325q18 145 121.5 239t247.5 94q85 0 148.5 -34.5t98.5 -96.5l-129 -88q-19 31 -54.5 51.5t-81.5 20.5q-81 0 -137.5 -52.5t-66.5 -133.5q-2 -15 -2 -29q0 -63 40 -110t120 -47q45 0 86 22.5t68 53.5l107 -92q-92 -113 -237 -129l-23 -32q64 -12 64 -61q0 -5 -1 -10
q-11 -82 -128 -82q-43 0 -64 10l8 67q17 -13 64 -13q37 0 40 18v2q0 16 -40 16q-28 0 -44 -7l6 54l30 39q-125 16 -184.5 97.5t-59.5 182.5q0 24 3 50z" />
    <glyph glyph-name="Egrave" unicode="&#xc8;" horiz-adv-x="547" 
d="M301 710l-45 118h121l41 -118h-117zM43 0l80 650h446l-17 -134h-299l-15 -124h278l-16 -134h-278l-16 -124h299l-16 -134h-446z" />
    <glyph glyph-name="Eacute" unicode="&#xc9;" horiz-adv-x="547" 
d="M299 710l71 118h121l-75 -118h-117zM43 0l80 650h446l-17 -134h-299l-15 -124h278l-16 -134h-278l-16 -124h299l-16 -134h-446z" />
    <glyph glyph-name="Ecircumflex" unicode="&#xca;" horiz-adv-x="547" 
d="M123 650h446l-17 -134h-299l-15 -124h278l-16 -134h-278l-16 -124h299l-16 -134h-446zM202 710l91 118h160l61 -118h-116l-30 69l-49 -69h-117z" />
    <glyph glyph-name="Edieresis" unicode="&#xcb;" horiz-adv-x="547" 
d="M123 650h446l-17 -134h-299l-15 -124h278l-16 -134h-278l-16 -124h299l-16 -134h-446zM205 758q4 28 25.5 44.5t45.5 16.5q25 0 41.5 -15.5t16.5 -36.5q0 -4 -1 -9q-4 -29 -26 -47t-46 -18t-40.5 16.5t-16.5 38.5q0 5 1 10zM397 758q4 28 25 44.5t46 16.5q24 0 40.5 -15
t16.5 -36q0 -5 -1 -10q-4 -29 -25.5 -47t-45.5 -18q-25 0 -41 16.5t-16 38.5q0 5 1 10z" />
    <glyph glyph-name="Igrave" unicode="&#xcc;" horiz-adv-x="252" 
d="M145 710l-45 118h121l41 -118h-117zM43 0l80 650h147l-80 -650h-147z" />
    <glyph glyph-name="Iacute" unicode="&#xcd;" horiz-adv-x="252" 
d="M143 710l71 118h121l-75 -118h-117zM43 0l80 650h147l-80 -650h-147z" />
    <glyph glyph-name="Icircumflex" unicode="&#xce;" horiz-adv-x="252" 
d="M43 0l80 650h147l-80 -650h-147zM46 710l91 118h160l61 -118h-116l-30 69l-49 -69h-117z" />
    <glyph glyph-name="Idieresis" unicode="&#xcf;" horiz-adv-x="252" 
d="M123 650h147l-80 -650h-147zM49 758q4 28 25.5 44.5t45.5 16.5q25 0 41.5 -15.5t16.5 -36.5q0 -4 -1 -9q-4 -29 -26 -47t-46 -18t-40.5 16.5t-16.5 38.5q0 5 1 10zM241 758q4 28 25 44.5t46 16.5q24 0 40.5 -15t16.5 -36q0 -5 -1 -10q-4 -29 -25.5 -47t-45.5 -18
q-25 0 -41 16.5t-16 38.5q0 5 1 10z" />
    <glyph glyph-name="Ntilde" unicode="&#xd1;" horiz-adv-x="643" 
d="M123 650h142l200 -390l48 390h147l-80 -650h-143l-199 389l-48 -389h-147zM228 704q7 56 39.5 91.5t85.5 35.5q46 0 73 -35q18 -24 39 -24q31 0 38 46h81q-6 -56 -39 -91.5t-90 -35.5q-49 0 -75 35q-19 24 -34 24q-17 0 -26 -15t-11 -31h-81z" />
    <glyph glyph-name="Ograve" unicode="&#xd2;" horiz-adv-x="735" 
d="M73 325q18 145 121.5 239t247.5 94t216 -85.5t72 -195.5q0 -25 -3 -52q-18 -146 -120 -239q-103 -94 -247 -94t-217 85.5t-73 196.5q0 25 3 51zM254 191q44 -52 124 -52t136 52t62 100.5t6 63.5q0 62 -39 109t-119 47q-81 0 -137.5 -52.5t-66.5 -133.5q-2 -15 -2 -29
q0 -63 36 -105zM346 828h121l41 -118h-117z" />
    <glyph glyph-name="Oacute" unicode="&#xd3;" horiz-adv-x="735" 
d="M73 325q18 145 121.5 239t247.5 94t216 -85.5t72 -195.5q0 -25 -3 -52q-18 -146 -120 -239q-103 -94 -247 -94t-217 85.5t-73 196.5q0 25 3 51zM254 191q44 -52 124 -52t136 52t62 100.5t6 63.5q0 62 -39 109t-119 47q-81 0 -137.5 -52.5t-66.5 -133.5q-2 -15 -2 -29
q0 -63 36 -105zM460 828h121l-75 -118h-117z" />
    <glyph glyph-name="Ocircumflex" unicode="&#xd4;" horiz-adv-x="735" 
d="M73 325q18 145 121.5 239t247.5 94t216 -85.5t72 -195.5q0 -25 -3 -52q-18 -146 -120 -239q-103 -94 -247 -94t-217 85.5t-73 196.5q0 25 3 51zM254 191q44 -52 124 -52t136 52t62 100.5t6 63.5q0 62 -39 109t-119 47q-81 0 -137.5 -52.5t-66.5 -133.5q-2 -15 -2 -29
q0 -63 36 -105zM292 710l91 118h160l61 -118h-116l-30 69l-49 -69h-117z" />
    <glyph glyph-name="Otilde" unicode="&#xd5;" horiz-adv-x="735" 
d="M73 325q18 145 121.5 239t247.5 94t216 -85.5t72 -195.5q0 -25 -3 -52q-18 -146 -120 -239q-103 -94 -247 -94t-217 85.5t-73 196.5q0 25 3 51zM254 191q44 -52 124 -52t136 52t62 100.5t6 63.5q0 62 -39 109t-119 47q-81 0 -137.5 -52.5t-66.5 -133.5q-2 -15 -2 -29
q0 -63 36 -105zM276 704q7 56 39.5 91.5t85.5 35.5q46 0 73 -35q18 -24 39 -24q31 0 38 46h81q-6 -56 -39 -91.5t-90 -35.5q-49 0 -75 35q-19 24 -34 24q-17 0 -26 -15t-11 -31h-81z" />
    <glyph glyph-name="Odieresis" unicode="&#xd6;" horiz-adv-x="735" 
d="M73 325q18 145 121.5 239t247.5 94t216 -85.5t72 -195.5q0 -25 -3 -52q-18 -146 -120 -239q-103 -94 -247 -94t-217 85.5t-73 196.5q0 25 3 51zM254 191q44 -52 124 -52t136 52t62 100.5t6 63.5q0 62 -39 109t-119 47q-81 0 -137.5 -52.5t-66.5 -133.5q-2 -15 -2 -29
q0 -63 36 -105zM295 758q4 28 25.5 44.5t45.5 16.5q25 0 41.5 -15.5t16.5 -36.5q0 -4 -1 -9q-4 -29 -26 -47t-46 -18t-40.5 16.5t-16.5 38.5q0 5 1 10zM487 758q4 28 25 44.5t46 16.5q24 0 40.5 -15t16.5 -36q0 -5 -1 -10q-4 -29 -25.5 -47t-45.5 -18q-25 0 -41 16.5
t-16 38.5q0 5 1 10z" />
    <glyph glyph-name="multiply" unicode="&#xd7;" horiz-adv-x="519" 
d="M139 117l-72 76l142 127l-111 125l92 81l110 -125l139 124l72 -76l-141 -126l110 -125l-92 -81l-109 124z" />
    <glyph glyph-name="Oslash" unicode="&#xd8;" horiz-adv-x="735" 
d="M360 -8q-94 0 -166 44l-32 -36h-118l85 94q-73 92 -56 231q18 145 121.5 239t247.5 94q91 0 160 -41l37 41h118l-88 -98q76 -93 58 -235q-18 -146 -120.5 -239.5t-246.5 -93.5zM236 213l259 286q-31 12 -71 12q-83 0 -138 -50.5t-66 -135.5q-7 -65 16 -112zM378 139
q83 0 137 50.5t65 135.5q9 67 -19 117l-260 -288q33 -15 77 -15z" />
    <glyph glyph-name="Ugrave" unicode="&#xd9;" horiz-adv-x="614" 
d="M71 231l52 419h147l-50 -403q-1 -12 -1 -23q0 -41 24.5 -65t70.5 -24t79.5 26.5t40.5 85.5l50 403h148l-52 -419q-12 -100 -88 -169q-77 -70 -196 -70t-173 63t-54 143q0 16 2 33zM404 828l41 -118h-117l-45 118h121z" />
    <glyph glyph-name="Uacute" unicode="&#xda;" horiz-adv-x="614" 
d="M71 231l52 419h147l-50 -403q-1 -12 -1 -23q0 -41 24.5 -65t70.5 -24t79.5 26.5t40.5 85.5l50 403h148l-52 -419q-12 -100 -88 -169q-77 -70 -196 -70t-173 63t-54 143q0 16 2 33zM326 710l71 118h121l-75 -118h-117z" />
    <glyph glyph-name="Ucircumflex" unicode="&#xdb;" horiz-adv-x="614" 
d="M71 231l52 419h147l-50 -403q-1 -12 -1 -23q0 -41 24.5 -65t70.5 -24t79.5 26.5t40.5 85.5l50 403h148l-52 -419q-12 -100 -88 -169q-77 -70 -196 -70t-173 63t-54 143q0 16 2 33zM229 710l91 118h160l61 -118h-116l-30 69l-49 -69h-117z" />
    <glyph glyph-name="Udieresis" unicode="&#xdc;" horiz-adv-x="614" 
d="M71 231l52 419h147l-50 -403q-1 -12 -1 -23q0 -41 24.5 -65t70.5 -24t79.5 26.5t40.5 85.5l50 403h148l-52 -419q-12 -100 -88 -169q-77 -70 -196 -70t-173 63t-54 143q0 16 2 33zM232 758q4 28 25.5 44.5t45.5 16.5q25 0 41.5 -15.5t16.5 -36.5q0 -4 -1 -9
q-4 -29 -26 -47t-46 -18t-40.5 16.5t-16.5 38.5q0 5 1 10zM424 758q4 28 25 44.5t46 16.5q24 0 40.5 -15t16.5 -36q0 -5 -1 -10q-4 -29 -25.5 -47t-45.5 -18q-25 0 -41 16.5t-16 38.5q0 5 1 10z" />
    <glyph glyph-name="Yacute" unicode="&#xdd;" horiz-adv-x="637" 
d="M256 650l107 -224l163 224h168l-275 -376l-34 -274h-147l33 271l-184 379h169zM410 828h121l-75 -118h-117z" />
    <glyph glyph-name="germandbls" unicode="&#xdf;" horiz-adv-x="546" 
d="M43 0l54 436q13 112 86 168.5t174 56.5q93 0 146.5 -47t43.5 -128q-10 -78 -70 -124q74 -55 60 -164q-10 -86 -75.5 -142t-175.5 -56h-67l15 125h32q24 0 41 2t38 8.5t33.5 22.5t15.5 40q6 45 -26.5 60.5t-82.5 15.5h-32l14 117h29q45 0 78.5 21t38.5 57q4 33 -16.5 52.5
t-54.5 19.5q-39 0 -68 -27t-36 -85l-53 -429h-142z" />
    <glyph glyph-name="agrave" unicode="&#xe0;" 
d="M52 230q13 104 82 170.5t163 66.5q72 0 114 -45l4 38h142l-56 -460h-142l5 38q-52 -46 -125 -46q-93 0 -141.5 61t-48.5 138q0 19 3 39zM209 155q23 -29 67 -29t75 29t36 75q1 9 1 18q0 33 -20.5 59t-65.5 26t-75.5 -28.5t-36.5 -74.5q-1 -8 -1 -15q0 -36 20 -60z
M258 645h121l41 -118h-117z" />
    <glyph glyph-name="aacute" unicode="&#xe1;" 
d="M52 230q13 104 82 170.5t163 66.5q72 0 114 -45l4 38h142l-56 -460h-142l5 38q-52 -46 -125 -46q-93 0 -141.5 61t-48.5 138q0 19 3 39zM209 155q23 -29 67 -29t75 29t36 75q1 9 1 18q0 33 -20.5 59t-65.5 26t-75.5 -28.5t-36.5 -74.5q-1 -8 -1 -15q0 -36 20 -60z
M372 645h121l-75 -118h-117z" />
    <glyph glyph-name="acircumflex" unicode="&#xe2;" 
d="M52 230q13 104 82 170.5t163 66.5q72 0 114 -45l4 38h142l-56 -460h-142l5 38q-52 -46 -125 -46q-93 0 -141.5 61t-48.5 138q0 19 3 39zM209 155q23 -29 67 -29t75 29t36 75q1 9 1 18q0 33 -20.5 59t-65.5 26t-75.5 -28.5t-36.5 -74.5q-1 -8 -1 -15q0 -36 20 -60z
M295 645h160l61 -118h-116l-30 69l-49 -69h-117z" />
    <glyph glyph-name="atilde" unicode="&#xe3;" 
d="M52 230q13 104 82 170.5t163 66.5q72 0 114 -45l4 38h142l-56 -460h-142l5 38q-52 -46 -125 -46q-93 0 -141.5 61t-48.5 138q0 19 3 39zM209 155q23 -29 67 -29t75 29t36 75q1 9 1 18q0 33 -20.5 59t-65.5 26t-75.5 -28.5t-36.5 -74.5q-1 -8 -1 -15q0 -36 20 -60z
M188 521q7 56 39.5 91.5t85.5 35.5q46 0 73 -35q18 -24 39 -24q31 0 38 46h81q-6 -56 -39 -91.5t-90 -35.5q-49 0 -75 35q-19 24 -34 24q-17 0 -26 -15t-11 -31h-81z" />
    <glyph glyph-name="adieresis" unicode="&#xe4;" 
d="M52 230q13 104 82 170.5t163 66.5q72 0 114 -45l4 38h142l-56 -460h-142l5 38q-52 -46 -125 -46q-93 0 -141.5 61t-48.5 138q0 19 3 39zM209 155q23 -29 67 -29t75 29t36 75q1 9 1 18q0 33 -20.5 59t-65.5 26t-75.5 -28.5t-36.5 -74.5q-1 -8 -1 -15q0 -36 20 -60z
M207 575q4 28 25.5 44.5t45.5 16.5q25 0 41.5 -15.5t16.5 -36.5q0 -4 -1 -9q-4 -29 -26 -47t-46 -18t-40.5 16.5t-16.5 38.5q0 5 1 10zM399 575q4 28 25 44.5t46 16.5q24 0 40.5 -15t16.5 -36q0 -5 -1 -10q-4 -29 -25.5 -47t-45.5 -18q-25 0 -41 16.5t-16 38.5q0 5 1 10z
" />
    <glyph glyph-name="aring" unicode="&#xe5;" 
d="M52 230q13 104 82 170.5t163 66.5q72 0 114 -45l4 38h142l-56 -460h-142l5 38q-52 -46 -125 -46q-93 0 -141.5 61t-48.5 138q0 19 3 39zM209 155q23 -29 67 -29t75 29t36 75q1 9 1 18q0 33 -20.5 59t-65.5 26t-75.5 -28.5t-36.5 -74.5q-1 -8 -1 -15q0 -36 20 -60z
M268 604q5 43 36.5 69.5t77.5 26.5t68.5 -24.5t22.5 -57.5q0 -7 -1 -14q-5 -41 -36.5 -68t-77.5 -27q-45 0 -68 25t-23 57q0 6 1 13zM340 581q6 -11 26 -11q34 0 40 34v5q0 30 -32 30q-20 0 -29 -11t-10 -24v-5q0 -9 5 -18z" />
    <glyph glyph-name="ae" unicode="&#xe6;" horiz-adv-x="888" 
d="M225 -8q-97 0 -145.5 31.5t-40.5 99.5q4 35 22.5 61t44.5 41t64.5 25t74 14t83.5 6q7 90 -65 90q-53 0 -76 -41l-106 40q52 108 205 108q76 0 122.5 -32t59.5 -87q34 56 89.5 87.5t124.5 31.5q95 0 149 -67t41 -170l-5 -43h-296q4 -37 25.5 -55.5t51.5 -18.5q59 0 96 46
l90 -68q-76 -99 -204 -99q-71 0 -121 34t-71 91q-28 -58 -76 -91.5t-137 -33.5zM580 271h166q-1 44 -20.5 64t-47.5 20q-77 0 -98 -84zM228 91q37 0 59 18.5t31 74.5q-72 -4 -104 -15t-36 -39q-2 -18 11 -28.5t39 -10.5z" />
    <glyph glyph-name="ccedilla" unicode="&#xe7;" horiz-adv-x="481" 
d="M52 230q13 105 86.5 171.5t178.5 66.5q122 0 176 -93l-112 -79q-24 37 -76 37q-45 0 -76.5 -29t-37.5 -74q-1 -8 -1 -15q0 -35 22 -62t67 -27q52 0 86 36l92 -77q-59 -74 -152 -90l-23 -33q64 -12 64 -61q0 -5 -1 -10q-11 -82 -128 -82q-43 0 -64 10l8 67q17 -13 64 -13
q37 0 40 18v2q0 7 -10 11.5t-30 4.5q-28 0 -44 -7l6 54l29 38q-86 14 -126 71.5t-40 128.5q0 17 2 36z" />
    <glyph glyph-name="egrave" unicode="&#xe8;" horiz-adv-x="519" 
d="M52 230q13 104 84.5 171.5t175.5 67.5q102 0 148.5 -60t46.5 -138q0 -20 -3 -41l-4 -38h-314q4 -38 27.5 -59.5t59.5 -21.5q64 0 102 43l88 -72q-36 -43 -89.5 -67.5t-115.5 -24.5q-105 0 -156.5 61.5t-51.5 141.5q0 18 2 37zM217 645h121l41 -118h-117zM199 281h178
q-12 76 -79 76q-70 0 -99 -76z" />
    <glyph glyph-name="eacute" unicode="&#xe9;" horiz-adv-x="519" 
d="M52 230q13 104 84.5 171.5t175.5 67.5q102 0 148.5 -60t46.5 -138q0 -20 -3 -41l-4 -38h-314q4 -38 27.5 -59.5t59.5 -21.5q64 0 102 43l88 -72q-36 -43 -89.5 -67.5t-115.5 -24.5q-105 0 -156.5 61.5t-51.5 141.5q0 18 2 37zM331 645h121l-75 -118h-117zM199 281h178
q-12 76 -79 76q-70 0 -99 -76z" />
    <glyph glyph-name="ecircumflex" unicode="&#xea;" horiz-adv-x="519" 
d="M52 230q13 104 84.5 171.5t175.5 67.5q102 0 148.5 -60t46.5 -138q0 -20 -3 -41l-4 -38h-314q4 -38 27.5 -59.5t59.5 -21.5q64 0 102 43l88 -72q-36 -43 -89.5 -67.5t-115.5 -24.5q-105 0 -156.5 61.5t-51.5 141.5q0 18 2 37zM254 645h160l61 -118h-116l-30 69l-49 -69
h-117zM377 281q-12 76 -79 76q-70 0 -99 -76h178z" />
    <glyph glyph-name="edieresis" unicode="&#xeb;" horiz-adv-x="519" 
d="M52 230q13 104 84.5 171.5t175.5 67.5q102 0 148.5 -60t46.5 -138q0 -20 -3 -41l-4 -38h-314q4 -38 27.5 -59.5t59.5 -21.5q64 0 102 43l88 -72q-36 -43 -89.5 -67.5t-115.5 -24.5q-105 0 -156.5 61.5t-51.5 141.5q0 18 2 37zM166 575q4 28 25.5 44.5t45.5 16.5
q25 0 41.5 -15.5t16.5 -36.5q0 -4 -1 -9q-4 -29 -26 -47t-46 -18t-40.5 16.5t-16.5 38.5q0 5 1 10zM358 575q4 28 25 44.5t46 16.5q24 0 40.5 -15t16.5 -36q0 -5 -1 -10q-4 -29 -25.5 -47t-45.5 -18q-25 0 -41 16.5t-16 38.5q0 5 1 10zM199 281h178q-12 76 -79 76
q-70 0 -99 -76z" />
    <glyph glyph-name="igrave" unicode="&#xec;" horiz-adv-x="251" 
d="M123 527l-45 118h121l41 -118h-117zM44 0l56 460h143l-57 -460h-142z" />
    <glyph glyph-name="iacute" unicode="&#xed;" horiz-adv-x="251" 
d="M121 527l71 118h121l-75 -118h-117zM44 0l56 460h143l-57 -460h-142z" />
    <glyph glyph-name="icircumflex" unicode="&#xee;" horiz-adv-x="251" 
d="M100 460h143l-57 -460h-142zM115 645h160l61 -118h-116l-30 69l-49 -69h-117z" />
    <glyph glyph-name="idieresis" unicode="&#xef;" horiz-adv-x="251" 
d="M44 0l56 460h143l-57 -460h-142zM27 575q4 28 25.5 44.5t45.5 16.5q25 0 41.5 -15.5t16.5 -36.5q0 -4 -1 -9q-4 -29 -26 -47t-46 -18t-40.5 16.5t-16.5 38.5q0 5 1 10zM219 575q4 28 25 44.5t46 16.5q24 0 40.5 -15t16.5 -36q0 -5 -1 -10q-4 -29 -25.5 -47t-45.5 -18
q-25 0 -41 16.5t-16 38.5q0 5 1 10z" />
    <glyph glyph-name="ntilde" unicode="&#xf1;" horiz-adv-x="548" 
d="M99 460h142l-4 -38q52 45 127 45q32 0 61 -9t53.5 -29.5t34.5 -52t10 -62.5q0 -16 -2 -33l-35 -281h-143l32 258q1 11 1 20q0 35 -20.5 52t-49.5 17q-17 0 -33 -5t-34 -26.5t-22 -57.5l-32 -258h-142zM196 613q32 35 85 35q46 0 73 -35q18 -24 39 -24q31 0 38 46h81
q-6 -56 -39 -91.5t-90 -35.5q-49 0 -75 35q-19 24 -34 24q-17 0 -26 -15t-11 -31h-81q7 56 40 92z" />
    <glyph glyph-name="ograve" unicode="&#xf2;" horiz-adv-x="544" 
d="M52 230q13 105 88.5 172.5t180.5 67.5q104 0 157 -61.5t53 -141.5q0 -18 -2 -37q-13 -103 -88 -171q-75 -69 -179 -69t-158 62.5t-54 141.5q0 18 2 36zM211 156q23 -30 67 -30t74.5 29.5t33.5 56t3 34.5q0 34 -20.5 60.5t-64.5 26.5q-45 0 -76 -29t-34 -55.5t-3 -33.5
q0 -35 20 -59zM347 645l41 -118h-117l-45 118h121z" />
    <glyph glyph-name="oacute" unicode="&#xf3;" horiz-adv-x="544" 
d="M52 230q13 105 88.5 172.5t180.5 67.5q104 0 157 -61.5t53 -141.5q0 -18 -2 -37q-13 -103 -88 -171q-75 -69 -179 -69t-158 62.5t-54 141.5q0 18 2 36zM211 156q23 -30 67 -30t74.5 29.5t33.5 56t3 34.5q0 34 -20.5 60.5t-64.5 26.5q-45 0 -76 -29t-34 -55.5t-3 -33.5
q0 -35 20 -59zM340 645h121l-75 -118h-117z" />
    <glyph glyph-name="ocircumflex" unicode="&#xf4;" horiz-adv-x="544" 
d="M52 230q13 105 88.5 172.5t180.5 67.5q104 0 157 -61.5t53 -141.5q0 -18 -2 -37q-13 -103 -88 -171q-75 -69 -179 -69t-158 62.5t-54 141.5q0 18 2 36zM211 156q23 -30 67 -30t74.5 29.5t33.5 56t3 34.5q0 34 -20.5 60.5t-64.5 26.5q-45 0 -76 -29t-34 -55.5t-3 -33.5
q0 -35 20 -59zM172 527l91 118h160l61 -118h-116l-30 69l-49 -69h-117z" />
    <glyph glyph-name="otilde" unicode="&#xf5;" horiz-adv-x="544" 
d="M52 230q13 105 88.5 172.5t180.5 67.5q104 0 157 -61.5t53 -141.5q0 -18 -2 -37q-13 -103 -88 -171q-75 -69 -179 -69t-158 62.5t-54 141.5q0 18 2 36zM211 156q23 -30 67 -30t74.5 29.5t33.5 56t3 34.5q0 34 -20.5 60.5t-64.5 26.5q-45 0 -76 -29t-34 -55.5t-3 -33.5
q0 -35 20 -59zM156 521q7 56 39.5 91.5t85.5 35.5q46 0 73 -35q18 -24 39 -24q31 0 38 46h81q-6 -56 -39 -91.5t-90 -35.5q-49 0 -75 35q-19 24 -34 24q-17 0 -26 -15t-11 -31h-81z" />
    <glyph glyph-name="odieresis" unicode="&#xf6;" horiz-adv-x="544" 
d="M52 230q13 105 88.5 172.5t180.5 67.5q104 0 157 -61.5t53 -141.5q0 -18 -2 -37q-13 -103 -88 -171q-75 -69 -179 -69t-158 62.5t-54 141.5q0 18 2 36zM211 156q23 -30 67 -30t74.5 29.5t33.5 56t3 34.5q0 34 -20.5 60.5t-64.5 26.5q-45 0 -76 -29t-34 -55.5t-3 -33.5
q0 -35 20 -59zM175 575q4 28 25.5 44.5t45.5 16.5q25 0 41.5 -15.5t16.5 -36.5q0 -4 -1 -9q-4 -29 -26 -47t-46 -18t-40.5 16.5t-16.5 38.5q0 5 1 10zM367 575q4 28 25 44.5t46 16.5q24 0 40.5 -15t16.5 -36q0 -5 -1 -10q-4 -29 -25.5 -47t-45.5 -18q-25 0 -41 16.5
t-16 38.5q0 5 1 10z" />
    <glyph glyph-name="divide" unicode="&#xf7;" horiz-adv-x="526" 
d="M306 434q-32 0 -50.5 21t-14.5 53q5 32 28 52.5t55 20.5q33 0 51 -20.5t14 -52.5t-27 -53t-56 -21zM76 268l13 108h421l-13 -108h-421zM261 63q-32 0 -50.5 21t-14.5 53t27.5 52.5t55.5 20.5q33 0 51 -20.5t14 -52.5t-27 -53t-56 -21z" />
    <glyph glyph-name="oslash" unicode="&#xf8;" horiz-adv-x="544" 
d="M262 -10q-74 0 -130 37l-24 -27h-50l46 52q-65 70 -52 178q13 105 88.5 172.5t180.5 67.5q74 0 127 -36l24 26h50l-45 -50q66 -69 52 -180q-13 -103 -88 -171.5t-179 -68.5zM205 163l144 159q-20 11 -45 11q-45 0 -76 -29t-36 -74q-5 -40 13 -67zM278 126q44 0 74.5 29.5
t35.5 74.5q5 40 -13 67l-143 -160q20 -11 46 -11z" />
    <glyph glyph-name="ugrave" unicode="&#xf9;" horiz-adv-x="548" 
d="M65 179l34 281h142l-31 -259q-1 -10 -1 -18q0 -24 11.5 -42.5t27 -23.5t31.5 -5q12 0 23.5 3t26 11.5t25 28t14.5 46.5l31 259h143l-56 -460h-143l5 37q-53 -45 -128 -45q-72 0 -114.5 39.5t-42.5 109.5q0 18 2 38zM230 645h121l41 -118h-117z" />
    <glyph glyph-name="uacute" unicode="&#xfa;" horiz-adv-x="548" 
d="M65 179l34 281h142l-31 -259q-1 -10 -1 -18q0 -24 11.5 -42.5t27 -23.5t31.5 -5q12 0 23.5 3t26 11.5t25 28t14.5 46.5l31 259h143l-56 -460h-143l5 37q-53 -45 -128 -45q-72 0 -114.5 39.5t-42.5 109.5q0 18 2 38zM344 645h121l-75 -118h-117z" />
    <glyph glyph-name="ucircumflex" unicode="&#xfb;" horiz-adv-x="548" 
d="M65 179l34 281h142l-31 -259q-1 -10 -1 -18q0 -24 11.5 -42.5t27 -23.5t31.5 -5q12 0 23.5 3t26 11.5t25 28t14.5 46.5l31 259h143l-56 -460h-143l5 37q-53 -45 -128 -45q-72 0 -114.5 39.5t-42.5 109.5q0 18 2 38zM267 645h160l61 -118h-116l-30 69l-49 -69h-117z" />
    <glyph glyph-name="udieresis" unicode="&#xfc;" horiz-adv-x="548" 
d="M65 179l34 281h142l-31 -259q-1 -10 -1 -18q0 -24 11.5 -42.5t27 -23.5t31.5 -5q12 0 23.5 3t26 11.5t25 28t14.5 46.5l31 259h143l-56 -460h-143l5 37q-53 -45 -128 -45q-72 0 -114.5 39.5t-42.5 109.5q0 18 2 38zM179 575q4 28 25.5 44.5t45.5 16.5q25 0 41.5 -15.5
t16.5 -36.5q0 -4 -1 -9q-4 -29 -26 -47t-46 -18t-40.5 16.5t-16.5 38.5q0 5 1 10zM371 575q4 28 25 44.5t46 16.5q24 0 40.5 -15t16.5 -36q0 -5 -1 -10q-4 -29 -25.5 -47t-45.5 -18q-25 0 -41 16.5t-16 38.5q0 5 1 10z" />
    <glyph glyph-name="yacute" unicode="&#xfd;" horiz-adv-x="537" 
d="M216 460l71 -263l137 263h147l-335 -644h-138l96 185l-125 459h147zM269 527l71 118h121l-75 -118h-117z" />
    <glyph glyph-name="ydieresis" unicode="&#xff;" horiz-adv-x="537" 
d="M69 460h147l71 -263l137 263h147l-335 -644h-138l96 185zM175 575q4 28 25.5 44.5t45.5 16.5q25 0 41.5 -15.5t16.5 -36.5q0 -4 -1 -9q-4 -29 -26 -47t-46 -18t-40.5 16.5t-16.5 38.5q0 5 1 10zM367 575q4 28 25 44.5t46 16.5q24 0 40.5 -15t16.5 -36q0 -5 -1 -10
q-4 -29 -25.5 -47t-45.5 -18q-25 0 -41 16.5t-16 38.5q0 5 1 10z" />
    <glyph glyph-name="Amacron" unicode="&#x100;" horiz-adv-x="671" 
d="M13 0l342 650h111l183 -650h-156l-24 90h-254l-46 -90h-156zM328 796h204l-11 -90h-204zM434 224l-53 192l-97 -192h150z" />
    <glyph glyph-name="amacron" unicode="&#x101;" 
d="M52 230q13 104 82 170.5t163 66.5q72 0 114 -45l4 38h142l-56 -460h-142l5 38q-52 -46 -125 -46q-93 0 -141.5 61t-48.5 138q0 19 3 39zM209 155q23 -29 67 -29t75 29t36 75q1 9 1 18q0 33 -20.5 59t-65.5 26t-75.5 -28.5t-36.5 -74.5q-1 -8 -1 -15q0 -36 20 -60z
M269 613h204l-11 -90h-204z" />
    <glyph glyph-name="Abreve" unicode="&#x102;" horiz-adv-x="671" 
d="M13 0l342 650h111l183 -650h-156l-24 90h-254l-46 -90h-156zM302 819l1 3h81l-1 -3v-5q0 -15 11 -27.5t33 -12.5t36 13.5t16 31.5l1 3h81l-1 -3q-6 -54 -45 -85.5t-97 -31.5q-59 0 -88 29t-29 71q0 8 1 17zM284 224h150l-53 192z" />
    <glyph glyph-name="abreve" unicode="&#x103;" 
d="M52 230q13 104 82 170.5t163 66.5q72 0 114 -45l4 38h142l-56 -460h-142l5 38q-52 -46 -125 -46q-93 0 -141.5 61t-48.5 138q0 19 3 39zM209 155q23 -29 67 -29t75 29t36 75q1 9 1 18q0 33 -20.5 59t-65.5 26t-75.5 -28.5t-36.5 -74.5q-1 -8 -1 -15q0 -36 20 -60z
M243 636l1 3h81l-1 -3v-5q0 -15 11 -27.5t33 -12.5t36 13.5t16 31.5l1 3h81l-1 -3q-6 -54 -45 -85.5t-97 -31.5q-59 0 -88 29t-29 71q0 8 1 17z" />
    <glyph glyph-name="Aogonek" unicode="&#x104;" horiz-adv-x="671" 
d="M570 -58v-3q0 -7 5 -12.5t14 -6.5t12 -1q15 0 40 9l-10 -81q-27 -7 -52 -7q-30 0 -63.5 14t-33.5 55q0 5 1 11q6 46 53 80h-43l-24 90h-254l-46 -90h-156l342 650h111l183 -650h-32q-44 -30 -47 -58zM284 224h150l-53 192z" />
    <glyph glyph-name="aogonek" unicode="&#x105;" 
d="M52 230q13 104 82 170.5t163 66.5q72 0 114 -45l4 38h142l-55 -451h1q-1 0 -1 -1l-1 -8h-12q-47 -31 -51 -61v-3q0 -7 5 -12.5t14 -6.5t12 -1q15 0 40 9l-10 -81q-27 -7 -52 -7q-30 0 -63.5 14t-33.5 55q0 5 1 11q6 48 57 83h-49l5 38q-52 -46 -125 -46q-93 0 -141.5 61
t-48.5 138q0 19 3 39zM209 155q23 -29 67 -29t75 29t36 75q1 9 1 18q0 33 -20.5 59t-65.5 26t-75.5 -28.5t-36.5 -74.5q-1 -8 -1 -15q0 -36 20 -60z" />
    <glyph glyph-name="Cacute" unicode="&#x106;" horiz-adv-x="662" 
d="M73 325q18 145 121.5 239t247.5 94q85 0 148.5 -34.5t98.5 -96.5l-129 -88q-19 31 -54.5 51.5t-81.5 20.5q-81 0 -137.5 -52.5t-66.5 -133.5q-2 -15 -2 -29q0 -63 40 -110t120 -47q45 0 86 22.5t68 53.5l107 -92q-107 -131 -279 -131q-144 0 -217 85.5t-73 196.5
q0 25 3 51zM377 712l71 118h121l-75 -118h-117z" />
    <glyph glyph-name="cacute" unicode="&#x107;" horiz-adv-x="481" 
d="M52 230q13 105 86.5 171.5t178.5 66.5q122 0 176 -93l-112 -79q-24 37 -76 37q-45 0 -76.5 -29t-37.5 -74q-1 -8 -1 -15q0 -35 22 -62t67 -27q52 0 86 36l92 -77q-76 -94 -198 -94q-105 0 -157 61t-52 141q0 18 2 37zM266 527l71 118h121l-75 -118h-117z" />
    <glyph glyph-name="Cdotaccent" unicode="&#x10a;" horiz-adv-x="662" 
d="M73 325q18 145 121.5 239t247.5 94q85 0 148.5 -34.5t98.5 -96.5l-129 -88q-19 31 -54.5 51.5t-81.5 20.5q-81 0 -137.5 -52.5t-66.5 -133.5q-2 -15 -2 -29q0 -63 40 -110t120 -47q45 0 86 22.5t68 53.5l107 -92q-107 -131 -279 -131q-144 0 -217 85.5t-73 196.5
q0 25 3 51zM378 760q4 28 25.5 44.5t45.5 16.5q25 0 41.5 -15.5t16.5 -36.5q0 -4 -1 -9q-4 -29 -26 -47t-46 -18t-40.5 16.5t-16.5 38.5q0 5 1 10z" />
    <glyph glyph-name="cdotaccent" unicode="&#x10b;" horiz-adv-x="481" 
d="M52 230q13 105 86.5 171.5t178.5 66.5q122 0 176 -93l-112 -79q-24 37 -76 37q-45 0 -76.5 -29t-37.5 -74q-1 -8 -1 -15q0 -35 22 -62t67 -27q52 0 86 36l92 -77q-76 -94 -198 -94q-105 0 -157 61t-52 141q0 18 2 37zM267 575q4 28 25.5 44.5t45.5 16.5q25 0 41.5 -15.5
t16.5 -36.5q0 -4 -1 -9q-4 -29 -26 -47t-46 -18t-40.5 16.5t-16.5 38.5q0 5 1 10z" />
    <glyph glyph-name="Ccaron" unicode="&#x10c;" horiz-adv-x="662" 
d="M73 325q18 145 121.5 239t247.5 94q85 0 148.5 -34.5t98.5 -96.5l-129 -88q-19 31 -54.5 51.5t-81.5 20.5q-81 0 -137.5 -52.5t-66.5 -133.5q-2 -15 -2 -29q0 -63 40 -110t120 -47q45 0 86 22.5t68 53.5l107 -92q-107 -131 -279 -131q-144 0 -217 85.5t-73 196.5
q0 25 3 51zM412 830l32 -65l47 65h116l-91 -118h-160l-61 118h117z" />
    <glyph glyph-name="ccaron" unicode="&#x10d;" horiz-adv-x="481" 
d="M52 230q13 105 86.5 171.5t178.5 66.5q122 0 176 -93l-112 -79q-24 37 -76 37q-45 0 -76.5 -29t-37.5 -74q-1 -8 -1 -15q0 -35 22 -62t67 -27q52 0 86 36l92 -77q-76 -94 -198 -94q-105 0 -157 61t-52 141q0 18 2 37zM301 645l32 -65l47 65h116l-91 -118h-160l-61 118
h117z" />
    <glyph glyph-name="Dcaron" unicode="&#x10e;" horiz-adv-x="657" 
d="M43 0l80 650h247q142 0 212 -81.5t70 -190.5q0 -26 -10.5 -112t-110 -176t-241.5 -90h-247zM208 143h100q17 0 36 3.5t46 15t49 30.5t40 53.5t21.5 65t3.5 44.5q0 27 -8 55.5t-25.5 47t-41.5 30.5t-42.5 15.5t-34.5 3.5h-100zM326 829l32 -65l47 65h116l-91 -118h-160
l-61 118h117z" />
    <glyph glyph-name="dcaron" unicode="&#x10f;" 
d="M52 230q13 104 82 170.5t163 66.5q72 0 114 -45l28 228h142l-80 -650h-142l5 38q-52 -46 -125 -46q-93 0 -141.5 61t-48.5 138q0 19 3 39zM209 155q23 -29 67 -29t75 29t36 75q1 9 1 18q0 33 -20.5 59t-65.5 26t-75.5 -28.5t-36.5 -74.5q-1 -8 -1 -15q0 -36 20 -60z
M492 828l32 -65l47 65h116l-91 -118h-160l-61 118h117z" />
    <glyph glyph-name="Dcroat" unicode="&#x110;" horiz-adv-x="662" 
d="M43 0l31 254h-42l17 134h42l32 262h249q144 0 222 -90t60 -235t-118 -235t-244 -90h-249zM208 145h104q21 0 47.5 7t59 24.5t57.5 56t31 92.5q5 43 -5 77t-27.5 52.5t-41.5 30.5t-43 16t-35 4h-103l-14 -117h87l-17 -134h-87z" />
    <glyph glyph-name="Emacron" unicode="&#x112;" horiz-adv-x="547" 
d="M256 706l11 90h204l-11 -90h-204zM43 0l80 650h446l-17 -134h-299l-15 -124h278l-16 -134h-278l-16 -124h299l-16 -134h-446z" />
    <glyph glyph-name="emacron" unicode="&#x113;" horiz-adv-x="519" 
d="M52 230q13 104 84.5 171.5t175.5 67.5q102 0 148.5 -60t46.5 -138q0 -20 -3 -41l-4 -38h-314q4 -38 27.5 -59.5t59.5 -21.5q64 0 102 43l88 -72q-36 -43 -89.5 -67.5t-115.5 -24.5q-105 0 -156.5 61.5t-51.5 141.5q0 18 2 37zM217 523l11 90h204l-11 -90h-204zM199 281
h178q-12 76 -79 76q-70 0 -99 -76z" />
    <glyph glyph-name="Edotaccent" unicode="&#x116;" horiz-adv-x="547" 
d="M123 650h446l-17 -134h-299l-15 -124h278l-16 -134h-278l-16 -124h299l-16 -134h-446zM300 758q4 28 25.5 44.5t45.5 16.5q25 0 41.5 -15.5t16.5 -36.5q0 -4 -1 -9q-4 -29 -26 -47t-46 -18t-40.5 16.5t-16.5 38.5q0 5 1 10z" />
    <glyph glyph-name="edotaccent" unicode="&#x117;" horiz-adv-x="519" 
d="M52 230q13 104 84.5 171.5t175.5 67.5q102 0 148.5 -60t46.5 -138q0 -20 -3 -41l-4 -38h-314q4 -38 27.5 -59.5t59.5 -21.5q64 0 102 43l88 -72q-36 -43 -89.5 -67.5t-115.5 -24.5q-105 0 -156.5 61.5t-51.5 141.5q0 18 2 37zM261 575q4 28 25.5 44.5t45.5 16.5
q25 0 41.5 -15.5t16.5 -36.5q0 -4 -1 -9q-4 -29 -26 -47t-46 -18t-40.5 16.5t-16.5 38.5q0 5 1 10zM377 281q-12 76 -79 76q-70 0 -99 -76h178z" />
    <glyph glyph-name="Eogonek" unicode="&#x118;" horiz-adv-x="547" 
d="M43 0l80 650h446l-17 -134h-299l-15 -124h278l-16 -134h-278l-16 -124h299l-15 -123h3l-3 -2l-1 -9h-13q-44 -31 -48 -59v-3q0 -7 5 -12.5t14 -6.5t12 -1q15 0 40 9l-10 -81q-27 -7 -52 -7q-30 0 -63.5 14t-33.5 55q0 5 1 11q6 46 54 81h-352z" />
    <glyph glyph-name="eogonek" unicode="&#x119;" horiz-adv-x="519" 
d="M52 230q13 104 84.5 171.5t175.5 67.5q102 0 148.5 -60t46.5 -138q0 -20 -3 -41l-4 -38h-314q4 -38 27.5 -59.5t59.5 -21.5q64 0 102 43l88 -72q-61 -74 -164 -89q-50 -33 -54 -63v-3q0 -7 5 -12.5t14 -6.5t12 -1q15 0 40 9l-10 -81q-27 -7 -52 -7q-30 0 -63.5 14
t-33.5 55q0 5 3.5 33t57.5 63q-87 13 -127.5 72t-40.5 130q0 17 2 35zM199 281h178q-12 76 -79 76q-70 0 -99 -76z" />
    <glyph glyph-name="Ecaron" unicode="&#x11a;" horiz-adv-x="547" 
d="M123 650h446l-17 -134h-299l-15 -124h278l-16 -134h-278l-16 -124h299l-16 -134h-446zM217 828h117l32 -65l47 65h116l-91 -118h-160z" />
    <glyph glyph-name="ecaron" unicode="&#x11b;" horiz-adv-x="519" 
d="M52 230q13 104 84.5 171.5t175.5 67.5q102 0 148.5 -60t46.5 -138q0 -20 -3 -41l-4 -38h-314q4 -38 27.5 -59.5t59.5 -21.5q64 0 102 43l88 -72q-36 -43 -89.5 -67.5t-115.5 -24.5q-105 0 -156.5 61.5t-51.5 141.5q0 18 2 37zM178 645h117l32 -65l47 65h116l-91 -118
h-160zM377 281q-12 76 -79 76q-70 0 -99 -76h178z" />
    <glyph glyph-name="Gbreve" unicode="&#x11e;" horiz-adv-x="725" 
d="M73 325q18 145 121.5 239t247.5 94q85 0 148.5 -34.5t98.5 -95.5l-130 -88q-43 71 -135 71q-81 0 -137.5 -52.5t-66.5 -133.5q-2 -15 -2 -29q0 -63 40 -110t120 -47q50 0 94 26.5t62 76.5h-152l16 134h321l-8 -66q-23 -141 -117.5 -229.5t-233.5 -88.5q-144 0 -217 85.5
t-73 196.5q0 25 3 51zM331 819l1 3h81l-1 -3v-5q0 -15 11 -27.5t33 -12.5t36 13.5t16 31.5l1 3h81l-1 -3q-6 -54 -45 -85.5t-97 -31.5q-59 0 -88 29t-29 71q0 8 1 17z" />
    <glyph glyph-name="gbreve" unicode="&#x11f;" 
d="M43 -114l103 78q35 -42 98 -42q20 0 42 6.5t47 33.5t30 70l1 7q-53 -47 -126 -47q-93 0 -141 61t-48 138q0 19 8 80.5t77 128.5t162 67q74 0 115 -46l4 39h142l-52 -428q-12 -102 -84.5 -166t-190.5 -64q-61 0 -110 22.5t-77 61.5zM208 155q23 -29 67 -29q45 0 76 29.5
t36 74.5q1 9 1 18q0 33 -21 59t-66 26q-44 0 -74.5 -28.5t-36.5 -74.5q-1 -8 -1 -16q0 -35 19 -59zM219 636l1 3h81l-1 -3v-5q0 -15 11 -27.5t33 -12.5t36 13.5t16 31.5l1 3h81l-1 -3q-6 -54 -45 -85.5t-97 -31.5q-59 0 -88 29t-29 71q0 8 1 17z" />
    <glyph glyph-name="Gdotaccent" unicode="&#x120;" horiz-adv-x="725" 
d="M73 325q18 145 121.5 239t247.5 94q85 0 148.5 -34.5t98.5 -95.5l-130 -88q-43 71 -135 71q-81 0 -137.5 -52.5t-66.5 -133.5q-2 -15 -2 -29q0 -63 40 -110t120 -47q50 0 94 26.5t62 76.5h-152l16 134h321l-8 -66q-23 -141 -117.5 -229.5t-233.5 -88.5q-144 0 -217 85.5
t-73 196.5q0 25 3 51zM390 758q4 28 25.5 44.5t45.5 16.5q25 0 41.5 -15.5t16.5 -36.5q0 -4 -1 -9q-4 -29 -26 -47t-46 -18t-40.5 16.5t-16.5 38.5q0 5 1 10z" />
    <glyph glyph-name="gdotaccent" unicode="&#x121;" 
d="M43 -114l103 78q35 -42 98 -42q20 0 42 6.5t47 33.5t30 70l1 7q-53 -47 -126 -47q-93 0 -141 61t-48 138q0 19 8 80.5t77 128.5t162 67q74 0 115 -46l4 39h142l-52 -428q-12 -102 -84.5 -166t-190.5 -64q-61 0 -110 22.5t-77 61.5zM208 155q23 -29 67 -29q45 0 76 29.5
t36 74.5q1 9 1 18q0 33 -21 59t-66 26q-44 0 -74.5 -28.5t-36.5 -74.5q-1 -8 -1 -16q0 -35 19 -59zM278 575q4 28 25.5 44.5t45.5 16.5q25 0 41.5 -15.5t16.5 -36.5q0 -4 -1 -9q-4 -29 -26 -47t-46 -18t-40.5 16.5t-16.5 38.5q0 5 1 10z" />
    <glyph glyph-name="uni0122" unicode="&#x122;" horiz-adv-x="725" 
d="M73 325q18 145 121.5 239t247.5 94q85 0 148.5 -34.5t98.5 -95.5l-130 -88q-43 71 -135 71q-81 0 -137.5 -52.5t-66.5 -133.5q-2 -15 -2 -29q0 -63 40 -110t120 -47q50 0 94 26.5t62 76.5h-152l16 134h321l-8 -66q-23 -141 -117.5 -229.5t-233.5 -88.5q-144 0 -217 85.5
t-73 196.5q0 25 3 51zM303 -54h117l-77 -115h-113z" />
    <glyph glyph-name="uni0123" unicode="&#x123;" 
d="M43 -114l103 78q35 -42 98 -42q20 0 42 6.5t47 33.5t30 70l1 7q-53 -47 -126 -47q-93 0 -141 61t-48 138q0 19 8 80.5t77 128.5t162 67q74 0 115 -46l4 39h142l-52 -428q-12 -102 -84.5 -166t-190.5 -64q-61 0 -110 22.5t-77 61.5zM208 155q23 -29 67 -29q45 0 76 29.5
t36 74.5q1 9 1 18q0 33 -21 59t-66 26q-44 0 -74.5 -28.5t-36.5 -74.5q-1 -8 -1 -16q0 -35 19 -59zM276 572q2 21 20.5 44t27.5 30.5t28 21.5h67q-34 -24 -48 -43q33 -11 33 -45v-8q-3 -24 -22 -42t-48 -18q-30 0 -44 16.5t-14 35.5v8z" />
    <glyph glyph-name="Itilde" unicode="&#x128;" horiz-adv-x="252" 
d="M123 650h147l-80 -650h-147zM30 704q7 56 39.5 91.5t85.5 35.5q46 0 73 -35q18 -24 39 -24q31 0 38 46h81q-6 -56 -39 -91.5t-90 -35.5q-49 0 -75 35q-19 24 -34 24q-17 0 -26 -15t-11 -31h-81z" />
    <glyph glyph-name="itilde" unicode="&#x129;" horiz-adv-x="251" 
d="M100 460h143l-57 -460h-142zM8 521q7 56 39.5 91.5t85.5 35.5q46 0 73 -35q18 -24 39 -24q31 0 38 46h81q-6 -56 -39 -91.5t-90 -35.5q-49 0 -75 35q-19 24 -34 24q-17 0 -26 -15t-11 -31h-81z" />
    <glyph glyph-name="Imacron" unicode="&#x12a;" horiz-adv-x="252" 
d="M100 706l11 90h204l-11 -90h-204zM43 0l80 650h147l-80 -650h-147z" />
    <glyph glyph-name="imacron" unicode="&#x12b;" horiz-adv-x="251" 
d="M78 523l11 90h204l-11 -90h-204zM44 0l56 460h143l-57 -460h-142z" />
    <glyph glyph-name="Iogonek" unicode="&#x12e;" horiz-adv-x="252" 
d="M34 -84q6 50 58 84h-49l80 650h147l-80 -650h-16q-49 -31 -53 -62v-3q0 -7 5 -12.5t14 -6.5t12 -1q15 0 40 9l-10 -81q-27 -7 -52 -7q-30 0 -63.5 14t-33.5 55q0 5 1 11z" />
    <glyph glyph-name="iogonek" unicode="&#x12f;" horiz-adv-x="251" 
d="M34 -85q6 50 60 85h-50l56 460h143l-57 -460h-11q-50 -33 -54 -63v-3q0 -7 5 -12.5t14 -6.5t12 -1q15 0 40 9l-10 -81q-27 -7 -52 -7q-30 0 -63.5 14t-33.5 55q0 5 1 11zM122 575q4 28 25.5 44.5t45.5 16.5q25 0 41.5 -15.5t16.5 -36.5q0 -4 -1 -9q-4 -29 -26 -47
t-46 -18t-40.5 16.5t-16.5 38.5q0 5 1 10z" />
    <glyph glyph-name="Idotaccent" unicode="&#x130;" horiz-adv-x="252" 
d="M123 650h147l-80 -650h-147zM144 758q4 28 25.5 44.5t45.5 16.5q25 0 41.5 -15.5t16.5 -36.5q0 -4 -1 -9q-4 -29 -26 -47t-46 -18t-40.5 16.5t-16.5 38.5q0 5 1 10z" />
    <glyph glyph-name="dotlessi" unicode="&#x131;" horiz-adv-x="251" 
d="M44 0l56 460h143l-57 -460h-142z" />
    <glyph glyph-name="uni0136" unicode="&#x136;" horiz-adv-x="579" 
d="M43 0l80 650h147l-32 -256l219 256h166l-271 -325l204 -325h-170l-164 259l-32 -259h-147zM224 -50h117l-77 -115h-113z" />
    <glyph glyph-name="uni0137" unicode="&#x137;" horiz-adv-x="524" 
d="M123 650h142l-44 -357l150 167h165l-196 -218l161 -242h-165l-128 191l-23 -191h-142zM194 -50h117l-77 -115h-113z" />
    <glyph glyph-name="Lacute" unicode="&#x139;" horiz-adv-x="530" 
d="M143 710l71 118h121l-75 -118h-117zM43 0l80 650h147l-64 -516h297l-16 -134h-444z" />
    <glyph glyph-name="lacute" unicode="&#x13a;" horiz-adv-x="248" 
d="M143 710l71 118h121l-75 -118h-117zM43 0l80 650h143l-81 -650h-142z" />
    <glyph glyph-name="uni013B" unicode="&#x13b;" horiz-adv-x="530" 
d="M43 0l80 650h147l-64 -516h297l-16 -134h-444zM133 -165l73 115h117l-77 -115h-113z" />
    <glyph glyph-name="uni013C" unicode="&#x13c;" horiz-adv-x="248" 
d="M43 0l80 650h143l-81 -650h-142zM-17 -165l73 115h117l-77 -115h-113z" />
    <glyph glyph-name="Lcaron" unicode="&#x13d;" horiz-adv-x="530" 
d="M43 0l80 650h147l-64 -516h297l-16 -134h-444zM61 828h117l32 -65l47 65h116l-91 -118h-160z" />
    <glyph glyph-name="lcaron" unicode="&#x13e;" horiz-adv-x="248" 
d="M43 0l80 650h143l-81 -650h-142zM61 828h117l32 -65l47 65h116l-91 -118h-160z" />
    <glyph glyph-name="Lslash" unicode="&#x141;" horiz-adv-x="528" 
d="M43 0l33 269l-44 -15l17 138l44 15l30 243h147l-24 -190l100 34l-17 -138l-99 -34l-24 -188h295l-16 -134h-442z" />
    <glyph glyph-name="lslash" unicode="&#x142;" horiz-adv-x="248" 
d="M43 0l31 252l-39 -13l14 114l39 13l35 284h142l-29 -236l56 19l-14 -114l-56 -19l-37 -300h-142z" />
    <glyph glyph-name="Nacute" unicode="&#x143;" horiz-adv-x="643" 
d="M43 0l80 650h142l200 -390l48 390h147l-80 -650h-143l-199 389l-48 -389h-147zM341 710l71 118h121l-75 -118h-117z" />
    <glyph glyph-name="nacute" unicode="&#x144;" horiz-adv-x="548" 
d="M99 460h142l-4 -38q52 45 127 45q32 0 61 -9t53.5 -29.5t34.5 -52t10 -62.5q0 -16 -2 -33l-35 -281h-143l32 258q1 11 1 20q0 35 -20.5 52t-49.5 17q-17 0 -33 -5t-34 -26.5t-22 -57.5l-32 -258h-142zM269 527l71 118h121l-75 -118h-117z" />
    <glyph glyph-name="uni0145" unicode="&#x145;" horiz-adv-x="643" 
d="M43 0l80 650h142l200 -390l48 390h147l-80 -650h-143l-199 389l-48 -389h-147zM257 -50h117l-77 -115h-113z" />
    <glyph glyph-name="uni0146" unicode="&#x146;" horiz-adv-x="548" 
d="M43 0l56 460h142l-4 -38q52 45 127 45q32 0 61 -9t53.5 -29.5t34.5 -52t10 -62.5q0 -16 -2 -33l-35 -281h-143l32 258q1 11 1 20q0 35 -20.5 52t-49.5 17q-17 0 -33 -5t-34 -26.5t-22 -57.5l-32 -258h-142zM205 -50h117l-77 -115h-113z" />
    <glyph glyph-name="Ncaron" unicode="&#x147;" horiz-adv-x="643" 
d="M123 650h142l200 -390l48 390h147l-80 -650h-143l-199 389l-48 -389h-147zM259 828h117l32 -65l47 65h116l-91 -118h-160z" />
    <glyph glyph-name="ncaron" unicode="&#x148;" horiz-adv-x="548" 
d="M99 460h142l-4 -38q52 45 127 45q32 0 61 -9t53.5 -29.5t34.5 -52t10 -62.5q0 -16 -2 -33l-35 -281h-143l32 258q1 11 1 20q0 35 -20.5 52t-49.5 17q-17 0 -33 -5t-34 -26.5t-22 -57.5l-32 -258h-142zM187 645h117l32 -65l47 65h116l-91 -118h-160z" />
    <glyph glyph-name="Omacron" unicode="&#x14c;" horiz-adv-x="735" 
d="M73 325q18 145 121.5 239t247.5 94t216 -85.5t72 -195.5q0 -25 -3 -52q-18 -146 -120 -239q-103 -94 -247 -94t-217 85.5t-73 196.5q0 25 3 51zM254 191q44 -52 124 -52t136 52t62 100.5t6 63.5q0 62 -39 109t-119 47q-81 0 -137.5 -52.5t-66.5 -133.5q-2 -15 -2 -29
q0 -63 36 -105zM346 706l11 90h204l-11 -90h-204z" />
    <glyph glyph-name="omacron" unicode="&#x14d;" horiz-adv-x="544" 
d="M52 230q13 105 88.5 172.5t180.5 67.5q104 0 157 -61.5t53 -141.5q0 -18 -2 -37q-13 -103 -88 -171q-75 -69 -179 -69t-158 62.5t-54 141.5q0 18 2 36zM211 156q23 -30 67 -30t74.5 29.5t33.5 56t3 34.5q0 34 -20.5 60.5t-64.5 26.5q-45 0 -76 -29t-34 -55.5t-3 -33.5
q0 -35 20 -59zM226 523l11 90h204l-11 -90h-204z" />
    <glyph glyph-name="Ohungarumlaut" unicode="&#x150;" horiz-adv-x="735" 
d="M73 325q18 145 121.5 239t247.5 94t216 -85.5t72 -195.5q0 -25 -3 -52q-18 -146 -120 -239q-103 -94 -247 -94t-217 85.5t-73 196.5q0 25 3 51zM254 191q44 -52 124 -52t136 52t62 100.5t6 63.5q0 62 -39 109t-119 47q-81 0 -137.5 -52.5t-66.5 -133.5q-2 -15 -2 -29
q0 -63 36 -105zM482 710l73 118h121l-95 -118h-99zM289 710l73 118h121l-95 -118h-99z" />
    <glyph glyph-name="ohungarumlaut" unicode="&#x151;" horiz-adv-x="544" 
d="M52 230q13 105 88.5 172.5t180.5 67.5q104 0 157 -61.5t53 -141.5q0 -18 -2 -37q-13 -103 -88 -171q-75 -69 -179 -69t-158 62.5t-54 141.5q0 18 2 36zM211 156q23 -30 67 -30t74.5 29.5t33.5 56t3 34.5q0 34 -20.5 60.5t-64.5 26.5q-45 0 -76 -29t-34 -55.5t-3 -33.5
q0 -35 20 -59zM362 527l73 118h121l-95 -118h-99zM169 527l73 118h121l-95 -118h-99z" />
    <glyph glyph-name="OE" unicode="&#x152;" horiz-adv-x="996" 
d="M364 -8q-145 0 -227 94t-64 239t122.5 239t250.5 94q99 0 170 -46l5 38h397l-17 -134h-250l-15 -127h229l-17 -134h-229l-15 -121h250l-16 -134h-397l5 40q-82 -48 -182 -48zM382 139q81 0 134.5 52t63.5 134q10 83 -31 134.5t-121 51.5q-86 0 -142 -51.5t-66 -134.5
t33 -134.5t129 -51.5z" />
    <glyph glyph-name="oe" unicode="&#x153;" horiz-adv-x="843" 
d="M582 -10q-101 0 -159 64q-72 -62 -169 -62q-102 0 -158.5 67.5t-43.5 170.5t85.5 170t174.5 67q97 0 153 -61q73 63 171 63q101 0 152.5 -67t38.5 -172l-4 -38h-314q4 -38 28 -59.5t60 -21.5q64 0 102 43l90 -63q-36 -47 -90.5 -74t-116.5 -27zM522 281h179
q-12 76 -79 76q-71 0 -100 -76zM271 132q44 0 70.5 26t31.5 72q6 46 -14 71.5t-64 25.5t-70.5 -25.5t-32.5 -71.5q-5 -46 15 -72t64 -26z" />
    <glyph glyph-name="Racute" unicode="&#x154;" horiz-adv-x="617" 
d="M43 0l80 650h315q79 0 128.5 -52.5t49.5 -128.5q0 -18 -3 -38q-9 -76 -50.5 -128t-99.5 -75l111 -228h-170l-103 212h-85l-26 -212h-147zM376 354q33 0 59.5 20.5t29 41.5t2.5 26q0 28 -19.5 46.5t-52.5 18.5h-143l-19 -153h143zM294 710l71 118h121l-75 -118h-117z" />
    <glyph glyph-name="racute" unicode="&#x155;" horiz-adv-x="380" 
d="M99 460h142l-10 -83q66 88 173 90l-16 -134q-162 0 -179 -135l-24 -198h-142zM211 527l71 118h121l-75 -118h-117z" />
    <glyph glyph-name="uni0156" unicode="&#x156;" horiz-adv-x="617" 
d="M123 650h315q79 0 128.5 -52.5t49.5 -128.5q0 -18 -3 -38q-9 -76 -50.5 -128t-99.5 -75l111 -228h-170l-103 212h-85l-26 -212h-147zM233 354h143q33 0 59.5 20.5t29 41.5t2.5 26q0 28 -19.5 46.5t-52.5 18.5h-143zM225 -50h117l-77 -115h-113z" />
    <glyph glyph-name="uni0157" unicode="&#x157;" horiz-adv-x="380" 
d="M43 0l56 460h142l-10 -83q66 88 173 90l-16 -134q-162 0 -179 -135l-24 -198h-142zM-17 -165l73 115h117l-77 -115h-113z" />
    <glyph glyph-name="Rcaron" unicode="&#x158;" horiz-adv-x="617" 
d="M123 650h315q79 0 128.5 -52.5t49.5 -128.5q0 -18 -3 -38q-9 -76 -50.5 -128t-99.5 -75l111 -228h-170l-103 212h-85l-26 -212h-147zM233 354h143q33 0 59.5 20.5t29 41.5t2.5 26q0 28 -19.5 46.5t-52.5 18.5h-143zM329 828l32 -65l47 65h116l-91 -118h-160l-61 118h117z
" />
    <glyph glyph-name="rcaron" unicode="&#x159;" horiz-adv-x="380" 
d="M43 0l56 460h142l-10 -83q66 88 173 90l-16 -134q-162 0 -179 -135l-24 -198h-142zM246 645l32 -65l47 65h116l-91 -118h-160l-61 118h117z" />
    <glyph glyph-name="Sacute" unicode="&#x15a;" horiz-adv-x="612" 
d="M170 234q12 -30 61.5 -64.5t109.5 -34.5q81 0 87 54v3q0 10 -7.5 20t-24 18t-31.5 13.5t-36.5 12t-30.5 10.5q-1 1 -30 10.5t-44.5 16t-43.5 23.5t-42.5 35t-23 43.5t-8.5 48.5q0 10 1 20q13 101 93 150t188 49q90 0 158.5 -44t82.5 -99l-126 -77q-12 24 -55 48.5
t-96 24.5q-70 0 -75 -45v-5q0 -10 6.5 -19.5t22.5 -18t30 -13.5t36 -12t31 -10q1 -1 24.5 -9t36.5 -14t37.5 -18t39 -26t30 -33t20 -39t4.5 -38q0 -9 -1 -19q-12 -100 -90 -154t-198 -54q-107 0 -177 48t-88 113zM336 710l71 118h121l-75 -118h-117z" />
    <glyph glyph-name="sacute" unicode="&#x15b;" horiz-adv-x="451" 
d="M131 164q5 -19 38.5 -42.5t68.5 -23.5q53 0 57 32v3q0 6 -3.5 12.5t-13.5 11.5t-18.5 8.5t-23 8t-20.5 6.5q-2 1 -15 5.5t-21.5 8t-24 11t-26 15t-22.5 19t-19 24t-10 26t-3 25.5q0 6 1 13q9 71 67.5 107.5t138.5 36.5q72 0 119.5 -29t63.5 -70l-100 -61q-9 17 -40 34
t-62 17q-45 0 -48 -28v-4q0 -6 3.5 -12.5t13.5 -12t18 -9t22.5 -8t20.5 -6.5q1 0 11.5 -4t16.5 -6.5t18.5 -8t20.5 -10t19.5 -12t19 -15t16 -18t13 -21t6 -20.5t1.5 -17q0 -8 -1 -15q-9 -72 -65 -110.5t-146 -38.5q-81 0 -132.5 33t-64.5 79zM230 527l71 118h121l-75 -118
h-117z" />
    <glyph glyph-name="Scedilla" unicode="&#x15e;" horiz-adv-x="612" 
d="M41 149l129 85q12 -30 61.5 -64.5t109.5 -34.5q81 0 87 54v3q0 10 -7.5 20t-24 18t-31.5 13.5t-36.5 12t-30.5 10.5q-1 1 -30 10.5t-44.5 16t-43.5 23.5t-42.5 35t-23 43.5t-8.5 48.5q0 10 1 20q13 101 93 150t188 49q90 0 158.5 -44t82.5 -99l-126 -77q-12 24 -55 48.5
t-96 24.5q-70 0 -75 -45v-5q0 -10 6.5 -19.5t22.5 -18t30 -13.5t36 -12t31 -10q1 -1 24.5 -9t36.5 -14t37.5 -18t39 -26t30 -33t20 -39t4.5 -38q0 -9 -1 -19q-11 -89 -74 -141.5t-162 -63.5l-25 -36q64 -12 64 -61q0 -5 -1 -10q-11 -82 -128 -82q-43 0 -64 10l8 67
q17 -13 64 -13q37 0 40 18v2q0 16 -40 16q-28 0 -44 -7l6 54l31 41q-92 8 -152 54t-76 105z" />
    <glyph glyph-name="scedilla" unicode="&#x15f;" horiz-adv-x="451" 
d="M26 98l105 66q5 -19 38.5 -42.5t68.5 -23.5q53 0 57 32v3q0 6 -3.5 12.5t-13.5 11.5t-18.5 8.5t-23 8t-20.5 6.5q-2 1 -15 5.5t-21.5 8t-24 11t-26 15t-22.5 19t-19 24t-10 26t-3 25.5q0 6 1 13q9 71 67.5 107.5t138.5 36.5q72 0 119.5 -29t63.5 -70l-100 -61
q-9 17 -40 34t-62 17q-45 0 -48 -28v-4q0 -6 3.5 -12.5t13.5 -12t18 -9t22.5 -8t20.5 -6.5q1 0 11.5 -4t16.5 -6.5t18.5 -8t20.5 -10t19.5 -12t19 -15t16 -18t13 -21t6 -20.5t1.5 -17q0 -8 -1 -15q-7 -63 -50.5 -100t-114.5 -46l-22 -32q64 -12 64 -61q0 -5 -1 -10
q-11 -82 -128 -82q-43 0 -64 10l8 67q17 -13 64 -13q37 0 40 18v2q0 16 -40 16q-28 0 -44 -7l6 54l29 38q-64 8 -103.5 39t-51.5 70z" />
    <glyph glyph-name="Scaron" unicode="&#x160;" horiz-adv-x="612" 
d="M170 234q12 -30 61.5 -64.5t109.5 -34.5q81 0 87 54v3q0 10 -7.5 20t-24 18t-31.5 13.5t-36.5 12t-30.5 10.5q-1 1 -30 10.5t-44.5 16t-43.5 23.5t-42.5 35t-23 43.5t-8.5 48.5q0 10 1 20q13 101 93 150t188 49q90 0 158.5 -44t82.5 -99l-126 -77q-12 24 -55 48.5
t-96 24.5q-70 0 -75 -45v-5q0 -10 6.5 -19.5t22.5 -18t30 -13.5t36 -12t31 -10q1 -1 24.5 -9t36.5 -14t37.5 -18t39 -26t30 -33t20 -39t4.5 -38q0 -9 -1 -19q-12 -100 -90 -154t-198 -54q-107 0 -177 48t-88 113zM371 828l32 -65l47 65h116l-91 -118h-160l-61 118h117z" />
    <glyph glyph-name="scaron" unicode="&#x161;" horiz-adv-x="451" 
d="M131 164q5 -19 38.5 -42.5t68.5 -23.5q53 0 57 32v3q0 6 -3.5 12.5t-13.5 11.5t-18.5 8.5t-23 8t-20.5 6.5q-2 1 -15 5.5t-21.5 8t-24 11t-26 15t-22.5 19t-19 24t-10 26t-3 25.5q0 6 1 13q9 71 67.5 107.5t138.5 36.5q72 0 119.5 -29t63.5 -70l-100 -61q-9 17 -40 34
t-62 17q-45 0 -48 -28v-4q0 -6 3.5 -12.5t13.5 -12t18 -9t22.5 -8t20.5 -6.5q1 0 11.5 -4t16.5 -6.5t18.5 -8t20.5 -10t19.5 -12t19 -15t16 -18t13 -21t6 -20.5t1.5 -17q0 -8 -1 -15q-9 -72 -65 -110.5t-146 -38.5q-81 0 -132.5 33t-64.5 79zM265 645l32 -65l47 65h116
l-91 -118h-160l-61 118h117z" />
    <glyph glyph-name="uni0162" unicode="&#x162;" horiz-adv-x="591" 
d="M103 650h525l-17 -134h-189l-63 -516h-26l-27 -38q64 -12 64 -61q0 -5 -1 -10q-11 -82 -128 -82q-43 0 -64 10l8 67q17 -13 64 -13q37 0 40 18v2q0 7 -10 11.5t-30 4.5q-28 0 -44 -7l6 54l33 44h-32l63 516h-189z" />
    <glyph glyph-name="uni0163" unicode="&#x163;" horiz-adv-x="349" 
d="M56 353l13 107h58l18 142h143l-18 -142h94l-13 -107h-94l-23 -189q-1 -8 -1 -15q0 -10 2.5 -19.5t13.5 -13.5t17.5 -5t21.5 -1h29l-14 -110h-38l-25 -35q64 -12 64 -61q0 -5 -1 -10q-11 -82 -128 -82q-43 0 -64 10l8 67q17 -13 64 -13q37 0 40 18v2q0 7 -10 11.5t-30 4.5
q-28 0 -44 -7l6 54l33 44q-92 14 -92 107q0 14 2 30l26 213h-58z" />
    <glyph glyph-name="Tcaron" unicode="&#x164;" horiz-adv-x="591" 
d="M86 516l17 134h525l-17 -134h-189l-63 -516h-147l63 516h-189zM231 828h117l32 -65l47 65h116l-91 -118h-160z" />
    <glyph glyph-name="tcaron" unicode="&#x165;" horiz-adv-x="349" 
d="M69 460h58l18 142h143l-18 -142h94l-13 -107h-94l-23 -189q-1 -8 -1 -15q0 -10 2.5 -19.5t13.5 -13.5t17.5 -5t21.5 -1h29l-14 -110h-89q-128 0 -128 112q0 13 2 28l26 213h-58zM194 768l32 -65l47 65h116l-91 -118h-160l-61 118h117z" />
    <glyph glyph-name="Tbar" unicode="&#x166;" horiz-adv-x="593" 
d="M212 0l26 210h-103l16 134h103l21 172h-189l17 134h525l-17 -134h-189l-21 -172h103l-16 -134h-103l-26 -210h-147z" />
    <glyph glyph-name="Utilde" unicode="&#x168;" horiz-adv-x="614" 
d="M71 231l52 419h147l-50 -403q-1 -12 -1 -23q0 -41 24.5 -65t70.5 -24t79.5 26.5t40.5 85.5l50 403h148l-52 -419q-12 -100 -88 -169q-77 -70 -196 -70t-173 63t-54 143q0 16 2 33zM213 704q7 56 39.5 91.5t85.5 35.5q46 0 73 -35q18 -24 39 -24q31 0 38 46h81
q-6 -56 -39 -91.5t-90 -35.5q-49 0 -75 35q-19 24 -34 24q-17 0 -26 -15t-11 -31h-81z" />
    <glyph glyph-name="utilde" unicode="&#x169;" horiz-adv-x="548" 
d="M65 179l34 281h142l-31 -259q-1 -10 -1 -18q0 -24 11.5 -42.5t27 -23.5t31.5 -5q12 0 23.5 3t26 11.5t25 28t14.5 46.5l31 259h143l-56 -460h-143l5 37q-53 -45 -128 -45q-72 0 -114.5 39.5t-42.5 109.5q0 18 2 38zM160 521q7 56 39.5 91.5t85.5 35.5q46 0 73 -35
q18 -24 39 -24q31 0 38 46h81q-6 -56 -39 -91.5t-90 -35.5q-49 0 -75 35q-19 24 -34 24q-17 0 -26 -15t-11 -31h-81z" />
    <glyph glyph-name="Umacron" unicode="&#x16a;" horiz-adv-x="614" 
d="M71 231l52 419h147l-50 -403q-1 -12 -1 -23q0 -41 24.5 -65t70.5 -24t79.5 26.5t40.5 85.5l50 403h148l-52 -419q-12 -100 -88 -169q-77 -70 -196 -70t-173 63t-54 143q0 16 2 33zM294 796h204l-11 -90h-204z" />
    <glyph glyph-name="umacron" unicode="&#x16b;" horiz-adv-x="548" 
d="M65 179l34 281h142l-31 -259q-1 -10 -1 -18q0 -24 11.5 -42.5t27 -23.5t31.5 -5q12 0 23.5 3t26 11.5t25 28t14.5 46.5l31 259h143l-56 -460h-143l5 37q-53 -45 -128 -45q-72 0 -114.5 39.5t-42.5 109.5q0 18 2 38zM241 613h204l-11 -90h-204z" />
    <glyph glyph-name="Uring" unicode="&#x16e;" horiz-adv-x="614" 
d="M71 231l52 419h147l-50 -403q-1 -12 -1 -23q0 -41 24.5 -65t70.5 -24t79.5 26.5t40.5 85.5l50 403h148l-52 -419q-12 -100 -88 -169q-77 -70 -196 -70t-173 63t-54 143q0 16 2 33zM293 787q5 43 36.5 69.5t77.5 26.5t68.5 -24.5t22.5 -57.5q0 -7 -1 -14q-5 -41 -36.5 -68
t-77.5 -27q-45 0 -68 25t-23 57q0 6 1 13zM365 764q6 -11 26 -11q34 0 40 34v5q0 30 -32 30q-20 0 -29 -11t-10 -24v-5q0 -9 5 -18z" />
    <glyph glyph-name="uring" unicode="&#x16f;" horiz-adv-x="548" 
d="M65 179l34 281h142l-31 -259q-1 -10 -1 -18q0 -24 11.5 -42.5t27 -23.5t31.5 -5q12 0 23.5 3t26 11.5t25 28t14.5 46.5l31 259h143l-56 -460h-143l5 37q-53 -45 -128 -45q-72 0 -114.5 39.5t-42.5 109.5q0 18 2 38zM240 604q5 43 36.5 69.5t77.5 26.5t68.5 -24.5
t22.5 -57.5q0 -7 -1 -14q-5 -41 -36.5 -68t-77.5 -27q-45 0 -68 25t-23 57q0 6 1 13zM312 581q6 -11 26 -11q34 0 40 34v5q0 30 -32 30q-20 0 -29 -11t-10 -24v-5q0 -9 5 -18z" />
    <glyph glyph-name="Uhungarumlaut" unicode="&#x170;" horiz-adv-x="614" 
d="M71 231l52 419h147l-50 -403q-1 -12 -1 -23q0 -41 24.5 -65t70.5 -24t79.5 26.5t40.5 85.5l50 403h148l-52 -419q-12 -100 -88 -169q-77 -70 -196 -70t-173 63t-54 143q0 16 2 33zM492 828h121l-95 -118h-99zM299 828h121l-95 -118h-99z" />
    <glyph glyph-name="uhungarumlaut" unicode="&#x171;" horiz-adv-x="548" 
d="M65 179l34 281h142l-31 -259q-1 -10 -1 -18q0 -24 11.5 -42.5t27 -23.5t31.5 -5q12 0 23.5 3t26 11.5t25 28t14.5 46.5l31 259h143l-56 -460h-143l5 37q-53 -45 -128 -45q-72 0 -114.5 39.5t-42.5 109.5q0 18 2 38zM366 527l73 118h121l-95 -118h-99zM246 645h121
l-95 -118h-99z" />
    <glyph glyph-name="Uogonek" unicode="&#x172;" horiz-adv-x="614" 
d="M71 231l52 419h147l-50 -403q-1 -12 -1 -23q0 -41 24.5 -65t70.5 -24t79.5 26.5t40.5 85.5l50 403h148l-52 -419q-11 -91 -75.5 -157.5t-165.5 -78.5q-45 -32 -49 -60v-3q0 -7 5 -12.5t14 -6.5t12 -1q15 0 40 9l-10 -81q-27 -7 -52 -7q-30 0 -63.5 14t-33.5 55q0 5 1 11
q6 46 54 81q-100 12 -144 72.5t-44 131.5q0 16 2 33z" />
    <glyph glyph-name="uogonek" unicode="&#x173;" horiz-adv-x="548" 
d="M65 179l34 281h142l-31 -259q-1 -10 -1 -18q0 -24 11.5 -42.5t27 -23.5t31.5 -5q12 0 23.5 3t26 11.5t25 28t14.5 46.5l31 259h143l-56 -460h-21q-42 -30 -45 -57v-3q0 -7 5 -12.5t14 -6.5t12 -1q15 0 40 9l-10 -81q-27 -7 -52 -7q-30 0 -63.5 14t-33.5 55q0 5 1 11
q5 44 51 79h-41l5 37q-53 -45 -128 -45q-72 0 -114.5 39.5t-42.5 109.5q0 18 2 38z" />
    <glyph glyph-name="Wcircumflex" unicode="&#x174;" horiz-adv-x="952" 
d="M93 650h156l79 -383l173 383h108l78 -364l166 364h156l-297 -650h-126l-73 346l-157 -346h-126zM493 828h160l61 -118h-116l-30 69l-49 -69h-117z" />
    <glyph glyph-name="wcircumflex" unicode="&#x175;" horiz-adv-x="774" 
d="M69 460h147l47 -259l122 259h107l60 -259l109 259h147l-205 -460h-138l-54 246l-114 -246h-138zM290 527l91 118h160l61 -118h-116l-30 69l-49 -69h-117z" />
    <glyph glyph-name="Ycircumflex" unicode="&#x176;" horiz-adv-x="637" 
d="M87 650h169l107 -224l163 224h168l-275 -376l-34 -274h-147l33 271zM333 828h160l61 -118h-116l-30 69l-49 -69h-117z" />
    <glyph glyph-name="ycircumflex" unicode="&#x177;" horiz-adv-x="537" 
d="M216 460l71 -263l137 263h147l-335 -644h-138l96 185l-125 459h147zM263 645h160l61 -118h-116l-30 69l-49 -69h-117z" />
    <glyph glyph-name="Ydieresis" unicode="&#x178;" horiz-adv-x="637" 
d="M87 650h169l107 -224l163 224h168l-275 -376l-34 -274h-147l33 271zM245 758q4 28 25.5 44.5t45.5 16.5q25 0 41.5 -15.5t16.5 -36.5q0 -4 -1 -9q-4 -29 -26 -47t-46 -18t-40.5 16.5t-16.5 38.5q0 5 1 10zM437 758q4 28 25 44.5t46 16.5q24 0 40.5 -15t16.5 -36
q0 -5 -1 -10q-4 -29 -25.5 -47t-45.5 -18q-25 0 -41 16.5t-16 38.5q0 5 1 10z" />
    <glyph glyph-name="Zacute" unicode="&#x179;" horiz-adv-x="543" 
d="M300 710l71 118h121l-75 -118h-117zM33 0l15 123l330 392h-276l17 135l462 1l-15 -124l-335 -392l280 -1l-16 -134h-462z" />
    <glyph glyph-name="zacute" unicode="&#x17a;" horiz-adv-x="422" 
d="M207 527l71 118h121l-75 -118h-117zM23 0l13 106l206 238h-177l14 116h356l-13 -106l-206 -238h177l-14 -116h-356z" />
    <glyph glyph-name="Zdotaccent" unicode="&#x17b;" horiz-adv-x="543" 
d="M33 0l15 123l330 392h-276l17 135l462 1l-15 -124l-335 -392l280 -1l-16 -134h-462zM301 758q4 28 25.5 44.5t45.5 16.5q25 0 41.5 -15.5t16.5 -36.5q0 -4 -1 -9q-4 -29 -26 -47t-46 -18t-40.5 16.5t-16.5 38.5q0 5 1 10z" />
    <glyph glyph-name="zdotaccent" unicode="&#x17c;" horiz-adv-x="422" 
d="M23 0l13 106l206 238h-177l14 116h356l-13 -106l-206 -238h177l-14 -116h-356zM208 575q4 28 25.5 44.5t45.5 16.5q25 0 41.5 -15.5t16.5 -36.5q0 -4 -1 -9q-4 -29 -26 -47t-46 -18t-40.5 16.5t-16.5 38.5q0 5 1 10z" />
    <glyph glyph-name="Zcaron" unicode="&#x17d;" horiz-adv-x="543" 
d="M33 0l15 123l330 392h-276l17 135l462 1l-15 -124l-335 -392l280 -1l-16 -134h-462zM218 828h117l32 -65l47 65h116l-91 -118h-160z" />
    <glyph glyph-name="zcaron" unicode="&#x17e;" horiz-adv-x="422" 
d="M23 0l13 106l206 238h-177l14 116h356l-13 -106l-206 -238h177l-14 -116h-356zM125 645h117l32 -65l47 65h116l-91 -118h-160z" />
    <glyph glyph-name="uni01CD" unicode="&#x1cd;" horiz-adv-x="671" 
d="M355 650h111l183 -650h-156l-24 90h-254l-46 -90h-156zM395 828l32 -65l47 65h116l-91 -118h-160l-61 118h117zM434 224l-53 192l-97 -192h150z" />
    <glyph glyph-name="uni01CE" unicode="&#x1ce;" 
d="M52 230q13 104 82 170.5t163 66.5q72 0 114 -45l4 38h142l-56 -460h-142l5 38q-52 -46 -125 -46q-93 0 -141.5 61t-48.5 138q0 19 3 39zM209 155q23 -29 67 -29t75 29t36 75q1 9 1 18q0 33 -20.5 59t-65.5 26t-75.5 -28.5t-36.5 -74.5q-1 -8 -1 -15q0 -36 20 -60z
M219 645h117l32 -65l47 65h116l-91 -118h-160z" />
    <glyph glyph-name="uni01CF" unicode="&#x1cf;" horiz-adv-x="252" 
d="M43 0l80 650h147l-80 -650h-147zM61 828h117l32 -65l47 65h116l-91 -118h-160z" />
    <glyph glyph-name="uni01D0" unicode="&#x1d0;" horiz-adv-x="251" 
d="M100 460h143l-57 -460h-142zM39 645h117l32 -65l47 65h116l-91 -118h-160z" />
    <glyph glyph-name="uni01D1" unicode="&#x1d1;" horiz-adv-x="735" 
d="M73 325q18 145 121.5 239t247.5 94t216 -85.5t72 -195.5q0 -25 -3 -52q-18 -146 -120 -239q-103 -94 -247 -94t-217 85.5t-73 196.5q0 25 3 51zM254 191q44 -52 124 -52t136 52t62 100.5t6 63.5q0 62 -39 109t-119 47q-81 0 -137.5 -52.5t-66.5 -133.5q-2 -15 -2 -29
q0 -63 36 -105zM424 828l32 -65l47 65h116l-91 -118h-160l-61 118h117z" />
    <glyph glyph-name="uni01D2" unicode="&#x1d2;" horiz-adv-x="544" 
d="M52 230q13 105 88.5 172.5t180.5 67.5q104 0 157 -61.5t53 -141.5q0 -18 -2 -37q-13 -103 -88 -171q-75 -69 -179 -69t-158 62.5t-54 141.5q0 18 2 36zM211 156q23 -30 67 -30t74.5 29.5t33.5 56t3 34.5q0 34 -20.5 60.5t-64.5 26.5q-45 0 -76 -29t-34 -55.5t-3 -33.5
q0 -35 20 -59zM187 645h117l32 -65l47 65h116l-91 -118h-160z" />
    <glyph glyph-name="uni01D3" unicode="&#x1d3;" horiz-adv-x="614" 
d="M71 231l52 419h147l-50 -403q-1 -12 -1 -23q0 -41 24.5 -65t70.5 -24t79.5 26.5t40.5 85.5l50 403h148l-52 -419q-12 -100 -88 -169q-77 -70 -196 -70t-173 63t-54 143q0 16 2 33zM361 828l32 -65l47 65h116l-91 -118h-160l-61 118h117z" />
    <glyph glyph-name="uni01D4" unicode="&#x1d4;" horiz-adv-x="548" 
d="M65 179l34 281h142l-31 -259q-1 -10 -1 -18q0 -24 11.5 -42.5t27 -23.5t31.5 -5q12 0 23.5 3t26 11.5t25 28t14.5 46.5l31 259h143l-56 -460h-143l5 37q-53 -45 -128 -45q-72 0 -114.5 39.5t-42.5 109.5q0 18 2 38zM191 645h117l32 -65l47 65h116l-91 -118h-160z" />
    <glyph glyph-name="Gcaron" unicode="&#x1e6;" horiz-adv-x="725" 
d="M73 325q18 145 121.5 239t247.5 94q85 0 148.5 -34.5t98.5 -95.5l-130 -88q-43 71 -135 71q-81 0 -137.5 -52.5t-66.5 -133.5q-2 -15 -2 -29q0 -63 40 -110t120 -47q50 0 94 26.5t62 76.5h-152l16 134h321l-8 -66q-23 -141 -117.5 -229.5t-233.5 -88.5q-144 0 -217 85.5
t-73 196.5q0 25 3 51zM424 828l32 -65l47 65h116l-91 -118h-160l-61 118h117z" />
    <glyph glyph-name="gcaron" unicode="&#x1e7;" 
d="M146 -36q35 -42 98 -42q20 0 42 6.5t47 33.5t30 70l1 7q-53 -47 -126 -47q-93 0 -141 61t-48 138q0 19 8 80.5t77 128.5t162 67q74 0 115 -46l4 39h142l-52 -428q-12 -102 -84.5 -166t-190.5 -64q-61 0 -110 22.5t-77 61.5zM208 155q23 -29 67 -29q45 0 76 29.5t36 74.5
q1 9 1 18q0 33 -21 59t-66 26q-44 0 -74.5 -28.5t-36.5 -74.5q-1 -8 -1 -16q0 -35 19 -59zM195 645h117l32 -65l47 65h116l-91 -118h-160z" />
    <glyph glyph-name="uni0218" unicode="&#x218;" horiz-adv-x="612" 
d="M170 234q12 -30 61.5 -64.5t109.5 -34.5q81 0 87 54v3q0 10 -7.5 20t-24 18t-31.5 13.5t-36.5 12t-30.5 10.5q-1 1 -30 10.5t-44.5 16t-43.5 23.5t-42.5 35t-23 43.5t-8.5 48.5q0 10 1 20q13 101 93 150t188 49q90 0 158.5 -44t82.5 -99l-126 -77q-12 24 -55 48.5
t-96 24.5q-70 0 -75 -45v-5q0 -10 6.5 -19.5t22.5 -18t30 -13.5t36 -12t31 -10q1 -1 24.5 -9t36.5 -14t37.5 -18t39 -26t30 -33t20 -39t4.5 -38q0 -9 -1 -19q-12 -100 -90 -154t-198 -54q-107 0 -177 48t-88 113zM253 -57h117l-77 -115h-113z" />
    <glyph glyph-name="uni0219" unicode="&#x219;" horiz-adv-x="451" 
d="M131 164q5 -19 38.5 -42.5t68.5 -23.5q53 0 57 32v3q0 6 -3.5 12.5t-13.5 11.5t-18.5 8.5t-23 8t-20.5 6.5q-2 1 -15 5.5t-21.5 8t-24 11t-26 15t-22.5 19t-19 24t-10 26t-3 25.5q0 6 1 13q9 71 67.5 107.5t138.5 36.5q72 0 119.5 -29t63.5 -70l-100 -61q-9 17 -40 34
t-62 17q-45 0 -48 -28v-4q0 -6 3.5 -12.5t13.5 -12t18 -9t22.5 -8t20.5 -6.5q1 0 11.5 -4t16.5 -6.5t18.5 -8t20.5 -10t19.5 -12t19 -15t16 -18t13 -21t6 -20.5t1.5 -17q0 -8 -1 -15q-9 -72 -65 -110.5t-146 -38.5q-81 0 -132.5 33t-64.5 79zM167 -55h117l-77 -115h-113z
" />
    <glyph glyph-name="uni021A" unicode="&#x21a;" horiz-adv-x="591" 
d="M103 650h525l-17 -134h-189l-63 -516h-147l63 516h-189zM153 -165l73 115h117l-77 -115h-113z" />
    <glyph glyph-name="uni021B" unicode="&#x21b;" horiz-adv-x="349" 
d="M56 353l13 107h58l18 142h143l-18 -142h94l-13 -107h-94l-23 -189q-1 -8 -1 -15q0 -10 2.5 -19.5t13.5 -13.5t17.5 -5t21.5 -1h29l-14 -110h-89q-128 0 -128 112q0 13 2 28l26 213h-58zM160 -47h117l-77 -115h-113z" />
    <glyph glyph-name="circumflex" unicode="&#x2c6;" horiz-adv-x="352" 
d="M85 532l91 118h160l61 -118h-116l-30 69l-49 -69h-117z" />
    <glyph glyph-name="caron" unicode="&#x2c7;" horiz-adv-x="352" 
d="M161 532l-61 118h117l32 -65l47 65h116l-91 -118h-160z" />
    <glyph glyph-name="breve" unicode="&#x2d8;" horiz-adv-x="281" 
d="M206 532q-54 0 -83.5 29t-23.5 86l1 3h81l-1 -3q-2 -20 7 -31.5t28 -11.5q39 0 44 43l1 3h81l-1 -3q-6 -57 -43 -86t-91 -29z" />
    <glyph glyph-name="dotaccent" unicode="&#x2d9;" horiz-adv-x="168" 
d="M154 569q-24 0 -42 18t-14 47q4 28 25.5 44.5t45.5 16.5q25 0 43 -17t14 -44q-4 -29 -26 -47t-46 -18z" />
    <glyph glyph-name="ring" unicode="&#x2da;" horiz-adv-x="244" 
d="M183 489q-45 0 -70.5 28t-20.5 68q5 43 37 70t78 27t70.5 -27t19.5 -70q-5 -41 -37 -68.5t-77 -27.5zM191 550q35 0 41 35q3 36 -33 36q-20 0 -29.5 -11.5t-10.5 -24.5q-2 -13 4.5 -24t27.5 -11z" />
    <glyph glyph-name="ogonek" unicode="&#x2db;" horiz-adv-x="190" 
d="M150 -165q-61 -15 -104 4t-37 69q4 32 25 57t43 35h73l-6 -4q-6 -4 -10 -7t-10.5 -8t-11.5 -10.5t-10 -12t-8.5 -14t-4.5 -14.5q-1 -9 4.5 -15t21.5 -8t45 9z" />
    <glyph glyph-name="tilde" unicode="&#x2dc;" horiz-adv-x="382" 
d="M317 559q-49 0 -75 35q-19 24 -34 24q-17 0 -26 -15t-11 -31h-81q7 56 39.5 91.5t85.5 35.5q46 0 73 -35q18 -24 39 -24q31 0 38 46h81q-6 -56 -39 -91.5t-90 -35.5z" />
    <glyph glyph-name="hungarumlaut" unicode="&#x2dd;" horiz-adv-x="412" 
d="M85 532l73 118h121l-95 -118h-99zM278 532l73 118h121l-95 -118h-99z" />
    <glyph glyph-name="gravecomb" unicode="&#x300;" horiz-adv-x="0" 
d="M-72 532l-45 118h121l41 -118h-117z" />
    <glyph glyph-name="acutecomb" unicode="&#x301;" horiz-adv-x="0" 
d="M-132 532l71 118h121l-75 -118h-117z" />
    <glyph glyph-name="uni0302" unicode="&#x302;" horiz-adv-x="0" 
d="M-176 650h160l61 -118h-116l-30 69l-49 -69h-117z" />
    <glyph glyph-name="tildecomb" unicode="&#x303;" horiz-adv-x="0" 
d="M-292 572q7 56 39.5 91.5t85.5 35.5q46 0 73 -35q18 -24 39 -24q31 0 38 46h81q-6 -56 -39 -91.5t-90 -35.5q-49 0 -75 35q-19 24 -34 24q-17 0 -26 -15t-11 -31h-81z" />
    <glyph glyph-name="uni0304" unicode="&#x304;" horiz-adv-x="0" 
d="M-155 560l11 90h204l-11 -90h-204z" />
    <glyph glyph-name="uni0306" unicode="&#x306;" horiz-adv-x="0" 
d="M-199 647l1 3h81l-1 -3v-5q0 -15 11 -27.5t33 -12.5t36 13.5t16 31.5l1 3h81l-1 -3q-6 -54 -45 -85.5t-97 -31.5q-59 0 -88 29t-29 71q0 8 1 17z" />
    <glyph glyph-name="uni0307" unicode="&#x307;" horiz-adv-x="0" 
d="M-70 634q4 28 25.5 44.5t45.5 16.5q25 0 41.5 -15.5t16.5 -36.5q0 -4 -1 -9q-4 -29 -26 -47t-46 -18t-40.5 16.5t-16.5 38.5q0 5 1 10z" />
    <glyph glyph-name="uni0308" unicode="&#x308;" horiz-adv-x="0" 
d="M-269 634q4 28 25.5 44.5t45.5 16.5q25 0 41.5 -15.5t16.5 -36.5q0 -4 -1 -9q-4 -29 -26 -47t-46 -18t-40.5 16.5t-16.5 38.5q0 5 1 10zM-77 634q4 28 25 44.5t46 16.5q24 0 40.5 -15t16.5 -36q0 -5 -1 -10q-4 -29 -25.5 -47t-45.5 -18q-25 0 -41 16.5t-16 38.5q0 5 1 10
z" />
    <glyph glyph-name="uni030A" unicode="&#x30a;" horiz-adv-x="0" 
d="M-152 586q5 43 36.5 69.5t77.5 26.5t68.5 -24.5t22.5 -57.5q0 -7 -1 -14q-5 -41 -36.5 -68t-77.5 -27q-45 0 -68 25t-23 57q0 6 1 13zM-81 563q7 -11 27 -11q34 0 40 34v5q0 30 -32 30q-20 0 -29 -11t-10 -24q0 -3 -1 -6q1 -9 5 -17z" />
    <glyph glyph-name="uni030B" unicode="&#x30b;" horiz-adv-x="0" 
d="M-61 650h121l-95 -118h-99zM-327 532l73 118h121l-95 -118h-99z" />
    <glyph glyph-name="uni030C" unicode="&#x30c;" horiz-adv-x="0" 
d="M-252 650h117l32 -65l47 65h116l-91 -118h-160z" />
    <glyph glyph-name="uni0312" unicode="&#x312;" horiz-adv-x="0" 
d="M-77 607q2 21 20.5 44t27.5 30.5t28 21.5h67q-34 -24 -48 -43q33 -11 33 -45v-8q-3 -24 -22 -42t-48 -18q-30 0 -44 16.5t-14 35.5v8z" />
    <glyph glyph-name="dotbelowcomb" unicode="&#x323;" horiz-adv-x="0" 
d="M-155 -61q3 28 24.5 44.5t46.5 16.5q24 0 40.5 -15.5t16.5 -37.5v-8q-4 -29 -26 -47t-46 -18q-25 0 -41 16.5t-16 38.5q0 5 1 10z" />
    <glyph glyph-name="uni0326" unicode="&#x326;" horiz-adv-x="0" 
d="M-210 -115l73 115h117l-77 -115h-113z" />
    <glyph glyph-name="uni0327" unicode="&#x327;" horiz-adv-x="0" 
d="M-218 -120q17 -13 64 -13q37 0 40 18v2q0 16 -40 16q-28 0 -44 -7l6 54l38 50h88l-31 -44q64 -12 64 -61q0 -5 -1 -10q-11 -82 -128 -82q-43 0 -64 10z" />
    <glyph glyph-name="uni0328" unicode="&#x328;" horiz-adv-x="0" 
d="M-188 -92q4 32 26.5 56.5t45.5 35.5h80q-1 -1 -8 -5t-12.5 -8t-13.5 -11t-14 -13.5t-11 -15t-5.5 -13.5t-0.5 -7q0 -7 5 -12.5t14 -6.5t12 -1q15 0 40 9l-10 -81q-27 -7 -52 -7q-30 0 -63.5 14t-33.5 55q0 5 1 11z" />
    <glyph glyph-name="uni0331" unicode="&#x331;" horiz-adv-x="0" 
d="M-224 -89l11 89h193l-11 -89h-193z" />
    <glyph glyph-name="Gamma" unicode="&#x393;" horiz-adv-x="467" 
d="M43 0l80 650h362l-17 -134h-220l-63 -516h-142z" />
    <glyph glyph-name="uni0394" unicode="&#x394;" horiz-adv-x="651" 
d="M43 0l15 125l277 525h121l147 -525l-15 -125h-545zM209 125h241l-83 304z" />
    <glyph glyph-name="Sigma" unicode="&#x3a3;" horiz-adv-x="587" 
d="M43 0l13 103l260 219l-205 229l12 99h481l-17 -134h-246l168 -194l-213 -188h244l-16 -134h-481z" />
    <glyph glyph-name="Phi" unicode="&#x3a6;" horiz-adv-x="769" 
d="M316 -7l9 73q-126 12 -191 79t-51 181t95.5 180.5t210.5 78.5l9 72h116l-9 -72q126 -12 191 -78.5t51 -180.5t-95.5 -181t-210.5 -79l-9 -73h-116zM459 209q133 18 145 117q5 43 -20.5 74.5t-96.5 41.5zM343 209l28 232q-134 -16 -146 -115q-5 -44 20.5 -75.5t97.5 -41.5
z" />
    <glyph glyph-name="Psi" unicode="&#x3a8;" horiz-adv-x="745" 
d="M305 0l19 155q-113 15 -177 91t-48 208l24 196h142l-24 -196q-18 -140 100 -164l44 360h116l-44 -360q121 24 139 164l24 196h143l-24 -197q-11 -89 -55.5 -154.5t-106.5 -99.5t-137 -44l-19 -155h-116z" />
    <glyph glyph-name="uni03A9" unicode="&#x3a9;" horiz-adv-x="786" 
d="M43 4l17 134h80q-53 80 -40 187q18 146 119.5 239.5t245.5 93.5t221.5 -93.5t59.5 -239.5q-13 -105 -85 -187h80l-17 -134h-289l17 135q134 54 152 196q3 28 -2.5 57t-21 58t-50 47t-83.5 18t-88.5 -18.5t-62.5 -47t-36 -57.5t-16 -57q-16 -143 103 -194l-17 -137h-287z
" />
    <glyph glyph-name="uni1E04" unicode="&#x1e04;" horiz-adv-x="604" 
d="M43 0l80 650h304q80 0 125.5 -45.5t45.5 -111.5q0 -14 -2 -30q-11 -85 -73 -126q65 -40 65 -118q0 -14 -2 -28q-10 -86 -76.5 -138.5t-146.5 -52.5h-320zM356 134q32 0 54 20t26 50q1 6 1 11q0 22 -15.5 40t-47.5 18h-150l-18 -139h150zM238 394h132q30 0 49.5 16.5
t23.5 44.5q1 6 1 11q0 21 -14.5 35.5t-44.5 14.5h-132zM192 -104q3 28 24.5 44.5t46.5 16.5q24 0 40.5 -15.5t16.5 -37.5v-8q-4 -29 -26 -47t-46 -18q-25 0 -41 16.5t-16 38.5q0 5 1 10z" />
    <glyph glyph-name="uni1E05" unicode="&#x1e05;" 
d="M123 650h142l-28 -228q51 45 124 45q94 0 142 -60t48 -137q0 -20 -3 -40q-13 -103 -82.5 -170.5t-162.5 -67.5q-73 0 -113 46l-5 -38h-142zM231 155q23 -29 67 -29q45 0 76 29.5t36 74.5q1 9 1 18q0 33 -21 59t-66 26q-44 0 -74.5 -28.5t-36.5 -74.5q-1 -8 -1 -16
q0 -35 19 -59zM217 -112q3 28 24.5 44.5t46.5 16.5q24 0 40.5 -15.5t16.5 -37.5v-8q-4 -29 -26 -47t-46 -18q-25 0 -41 16.5t-16 38.5q0 5 1 10z" />
    <glyph glyph-name="uni1E0C" unicode="&#x1e0c;" horiz-adv-x="657" 
d="M43 0l80 650h247q142 0 212 -81.5t70 -190.5q0 -26 -10.5 -112t-110 -176t-241.5 -90h-247zM308 143q17 0 36 3.5t46 15t49 30.5t40 53.5t21.5 65t3.5 44.5q0 27 -8 55.5t-25.5 47t-41.5 30.5t-42.5 15.5t-34.5 3.5h-100l-44 -364h100zM185 -104q3 28 24.5 44.5
t46.5 16.5q24 0 40.5 -15.5t16.5 -37.5v-8q-4 -29 -26 -47t-46 -18q-25 0 -41 16.5t-16 38.5q0 5 1 10z" />
    <glyph glyph-name="uni1E0D" unicode="&#x1e0d;" 
d="M52 230q13 104 82 170.5t163 66.5q72 0 114 -45l28 228h142l-80 -650h-142l5 38q-52 -46 -125 -46q-93 0 -141.5 61t-48.5 138q0 19 3 39zM209 155q23 -29 67 -29t75 29t36 75q1 9 1 18q0 33 -20.5 59t-65.5 26t-75.5 -28.5t-36.5 -74.5q-1 -8 -1 -15q0 -36 20 -60z
M195 -112q3 28 24.5 44.5t46.5 16.5q24 0 40.5 -15.5t16.5 -37.5v-8q-4 -29 -26 -47t-46 -18q-25 0 -41 16.5t-16 38.5q0 5 1 10z" />
    <glyph glyph-name="uni1E24" unicode="&#x1e24;" horiz-adv-x="651" 
d="M43 0l80 650h147l-31 -254h252l31 254h147l-80 -650h-147l31 254h-252l-31 -254h-147zM238 -100q3 28 24.5 44.5t46.5 16.5q24 0 40.5 -15.5t16.5 -37.5v-8q-4 -29 -26 -47t-46 -18q-25 0 -41 16.5t-16 38.5q0 5 1 10z" />
    <glyph glyph-name="uni1E25" unicode="&#x1e25;" horiz-adv-x="548" 
d="M123 650h142l-28 -228q52 45 127 45q32 0 61 -9t53.5 -29.5t34.5 -52t10 -62.5q0 -16 -2 -33l-35 -281h-143l32 258q1 11 1 20q0 35 -20.5 52t-49.5 17q-17 0 -33 -5t-34 -26.5t-22 -57.5l-32 -258h-142zM188 -104q3 28 24.5 44.5t46.5 16.5q24 0 40.5 -15.5t16.5 -37.5
v-8q-4 -29 -26 -47t-46 -18q-25 0 -41 16.5t-16 38.5q0 5 1 10z" />
    <glyph glyph-name="uni1E36" unicode="&#x1e36;" horiz-adv-x="530" 
d="M123 650h147l-64 -516h297l-16 -134h-444zM188 -104q3 28 24.5 44.5t46.5 16.5q24 0 40.5 -15.5t16.5 -37.5v-8q-4 -29 -26 -47t-46 -18q-25 0 -41 16.5t-16 38.5q0 5 1 10z" />
    <glyph glyph-name="uni1E37" unicode="&#x1e37;" horiz-adv-x="248" 
d="M43 0l80 650h143l-81 -650h-142zM38 -104q3 28 24.5 44.5t46.5 16.5q24 0 40.5 -15.5t16.5 -37.5v-8q-4 -29 -26 -47t-46 -18q-25 0 -41 16.5t-16 38.5q0 5 1 10z" />
    <glyph glyph-name="uni1E3E" unicode="&#x1e3e;" horiz-adv-x="765" 
d="M43 0l80 650h148l136 -362l227 362h148l-80 -650h-147l43 350l-166 -277h-101l-98 277l-43 -350h-147zM472 828h121l-75 -118h-117z" />
    <glyph glyph-name="uni1E3F" unicode="&#x1e3f;" horiz-adv-x="824" 
d="M99 460h142l-5 -42q53 49 123 49q94 0 132 -66q59 66 156 66q32 0 59.5 -9t51 -29t32 -51t8.5 -61q0 -17 -2 -36l-35 -281h-142l32 261q1 8 1 16q0 16 -5.5 31t-18 22.5t-22 10t-19.5 2.5q-14 0 -28.5 -4t-32 -24t-21.5 -54l-32 -261h-142l32 261q1 8 1 16q0 16 -5.5 31
t-18 22.5t-22 10t-19.5 2.5q-14 0 -28.5 -4t-32 -24t-21.5 -54l-32 -261h-142zM480 657h121l-75 -118h-117z" />
    <glyph glyph-name="uni1E44" unicode="&#x1e44;" horiz-adv-x="643" 
d="M123 650h142l200 -390l48 390h147l-80 -650h-143l-199 389l-48 -389h-147zM342 758q4 28 25.5 44.5t45.5 16.5q25 0 41.5 -15.5t16.5 -36.5q0 -4 -1 -9q-4 -29 -26 -47t-46 -18t-40.5 16.5t-16.5 38.5q0 5 1 10z" />
    <glyph glyph-name="uni1E45" unicode="&#x1e45;" horiz-adv-x="548" 
d="M43 0l56 460h142l-4 -38q52 45 127 45q32 0 61 -9t53.5 -29.5t34.5 -52t10 -62.5q0 -16 -2 -33l-35 -281h-143l32 258q1 11 1 20q0 35 -20.5 52t-49.5 17q-17 0 -33 -5t-34 -26.5t-22 -57.5l-32 -258h-142zM270 575q4 28 25.5 44.5t45.5 16.5q25 0 41.5 -15.5t16.5 -36.5
q0 -4 -1 -9q-4 -29 -26 -47t-46 -18t-40.5 16.5t-16.5 38.5q0 5 1 10z" />
    <glyph glyph-name="uni1E46" unicode="&#x1e46;" horiz-adv-x="643" 
d="M123 650h142l200 -390l48 390h147l-80 -650h-143l-199 389l-48 -389h-147zM239 -104q3 28 24.5 44.5t46.5 16.5q24 0 40.5 -15.5t16.5 -37.5v-8q-4 -29 -26 -47t-46 -18q-25 0 -41 16.5t-16 38.5q0 5 1 10z" />
    <glyph glyph-name="uni1E47" unicode="&#x1e47;" horiz-adv-x="548" 
d="M99 460h142l-4 -38q52 45 127 45q32 0 61 -9t53.5 -29.5t34.5 -52t10 -62.5q0 -16 -2 -33l-35 -281h-143l32 258q1 11 1 20q0 35 -20.5 52t-49.5 17q-17 0 -33 -5t-34 -26.5t-22 -57.5l-32 -258h-142zM187 -104q3 28 24.5 44.5t46.5 16.5q24 0 40.5 -15.5t16.5 -37.5v-8
q-4 -29 -26 -47t-46 -18q-25 0 -41 16.5t-16 38.5q0 5 1 10z" />
    <glyph glyph-name="uni1E62" unicode="&#x1e62;" horiz-adv-x="612" 
d="M170 234q12 -30 61.5 -64.5t109.5 -34.5q81 0 87 54v3q0 10 -7.5 20t-24 18t-31.5 13.5t-36.5 12t-30.5 10.5q-1 1 -30 10.5t-44.5 16t-43.5 23.5t-42.5 35t-23 43.5t-8.5 48.5q0 10 1 20q13 101 93 150t188 49q90 0 158.5 -44t82.5 -99l-126 -77q-12 24 -55 48.5
t-96 24.5q-70 0 -75 -45v-5q0 -10 6.5 -19.5t22.5 -18t30 -13.5t36 -12t31 -10q1 -1 24.5 -9t36.5 -14t37.5 -18t39 -26t30 -33t20 -39t4.5 -38q0 -9 -1 -19q-12 -100 -90 -154t-198 -54q-107 0 -177 48t-88 113zM235 -111q3 28 24.5 44.5t46.5 16.5q24 0 40.5 -15.5
t16.5 -37.5v-8q-4 -29 -26 -47t-46 -18q-25 0 -41 16.5t-16 38.5q0 5 1 10z" />
    <glyph glyph-name="uni1E6C" unicode="&#x1e6c;" horiz-adv-x="591" 
d="M86 516l17 134h525l-17 -134h-189l-63 -516h-147l63 516h-189zM208 -104q3 28 24.5 44.5t46.5 16.5q24 0 40.5 -15.5t16.5 -37.5v-8q-4 -29 -26 -47t-46 -18q-25 0 -41 16.5t-16 38.5q0 5 1 10z" />
    <glyph glyph-name="uni1E6D" unicode="&#x1e6d;" horiz-adv-x="349" 
d="M69 460h58l18 142h143l-18 -142h94l-13 -107h-94l-23 -189q-1 -8 -1 -15q0 -10 2.5 -19.5t13.5 -13.5t17.5 -5t21.5 -1h29l-14 -110h-89q-128 0 -128 112q0 13 2 28l26 213h-58zM142 -101q3 28 24.5 44.5t46.5 16.5q24 0 40.5 -15.5t16.5 -37.5v-8q-4 -29 -26 -47
t-46 -18q-25 0 -41 16.5t-16 38.5q0 5 1 10z" />
    <glyph glyph-name="Wgrave" unicode="&#x1e80;" horiz-adv-x="952" 
d="M93 650h156l79 -383l173 383h108l78 -364l166 364h156l-297 -650h-126l-73 346l-157 -346h-126zM577 828l41 -118h-117l-45 118h121z" />
    <glyph glyph-name="wgrave" unicode="&#x1e81;" horiz-adv-x="774" 
d="M69 460h147l47 -259l122 259h107l60 -259l109 259h147l-205 -460h-138l-54 246l-114 -246h-138zM344 645h121l41 -118h-117z" />
    <glyph glyph-name="Wacute" unicode="&#x1e82;" horiz-adv-x="952" 
d="M93 650h156l79 -383l173 383h108l78 -364l166 364h156l-297 -650h-126l-73 346l-157 -346h-126zM499 710l71 118h121l-75 -118h-117z" />
    <glyph glyph-name="wacute" unicode="&#x1e83;" horiz-adv-x="774" 
d="M69 460h147l47 -259l122 259h107l60 -259l109 259h147l-205 -460h-138l-54 246l-114 -246h-138zM458 645h121l-75 -118h-117z" />
    <glyph glyph-name="Wdieresis" unicode="&#x1e84;" horiz-adv-x="952" 
d="M93 650h156l79 -383l173 383h108l78 -364l166 364h156l-297 -650h-126l-73 346l-157 -346h-126zM405 758q4 28 25.5 44.5t45.5 16.5q25 0 41.5 -15.5t16.5 -36.5q0 -4 -1 -9q-4 -29 -26 -47t-46 -18t-40.5 16.5t-16.5 38.5q0 5 1 10zM597 758q4 28 25 44.5t46 16.5
q24 0 40.5 -15t16.5 -36q0 -5 -1 -10q-4 -29 -25.5 -47t-45.5 -18q-25 0 -41 16.5t-16 38.5q0 5 1 10z" />
    <glyph glyph-name="wdieresis" unicode="&#x1e85;" horiz-adv-x="774" 
d="M69 460h147l47 -259l122 259h107l60 -259l109 259h147l-205 -460h-138l-54 246l-114 -246h-138zM293 575q4 28 25.5 44.5t45.5 16.5q25 0 41.5 -15.5t16.5 -36.5q0 -4 -1 -9q-4 -29 -26 -47t-46 -18t-40.5 16.5t-16.5 38.5q0 5 1 10zM485 575q4 28 25 44.5t46 16.5
q24 0 40.5 -15t16.5 -36q0 -5 -1 -10q-4 -29 -25.5 -47t-45.5 -18q-25 0 -41 16.5t-16 38.5q0 5 1 10z" />
    <glyph glyph-name="uni1E92" unicode="&#x1e92;" horiz-adv-x="543" 
d="M33 0l15 123l330 392h-276l17 135l462 1l-15 -124l-335 -392l280 -1l-16 -134h-462zM187 -104q3 28 24.5 44.5t46.5 16.5q24 0 40.5 -15.5t16.5 -37.5v-8q-4 -29 -26 -47t-46 -18q-25 0 -41 16.5t-16 38.5q0 5 1 10z" />
    <glyph glyph-name="uni1E93" unicode="&#x1e93;" horiz-adv-x="422" 
d="M23 0l13 106l206 238h-177l14 116h356l-13 -106l-206 -238h177l-14 -116h-356zM126 -104q3 28 24.5 44.5t46.5 16.5q24 0 40.5 -15.5t16.5 -37.5v-8q-4 -29 -26 -47t-46 -18q-25 0 -41 16.5t-16 38.5q0 5 1 10z" />
    <glyph glyph-name="uni1EA0" unicode="&#x1ea0;" horiz-adv-x="671" 
d="M13 0l342 650h111l183 -650h-156l-24 90h-254l-46 -90h-156zM434 224l-53 192l-97 -192h150zM257 -104q3 28 24.5 44.5t46.5 16.5q24 0 40.5 -15.5t16.5 -37.5v-8q-4 -29 -26 -47t-46 -18q-25 0 -41 16.5t-16 38.5q0 5 1 10z" />
    <glyph glyph-name="uni1EA1" unicode="&#x1ea1;" 
d="M52 230q13 104 82 170.5t163 66.5q72 0 114 -45l4 38h142l-56 -460h-142l5 38q-52 -46 -125 -46q-93 0 -141.5 61t-48.5 138q0 19 3 39zM209 155q23 -29 67 -29t75 29t36 75q1 9 1 18q0 33 -20.5 59t-65.5 26t-75.5 -28.5t-36.5 -74.5q-1 -8 -1 -15q0 -36 20 -60z
M219 -107q3 28 24.5 44.5t46.5 16.5q24 0 40.5 -15.5t16.5 -37.5v-8q-4 -29 -26 -47t-46 -18q-25 0 -41 16.5t-16 38.5q0 5 1 10z" />
    <glyph glyph-name="uni1EB8" unicode="&#x1eb8;" horiz-adv-x="547" 
d="M123 650h446l-17 -134h-299l-15 -124h278l-16 -134h-278l-16 -124h299l-16 -134h-446zM195 -102q3 28 24.5 44.5t46.5 16.5q24 0 40.5 -15.5t16.5 -37.5v-8q-4 -29 -26 -47t-46 -18q-25 0 -41 16.5t-16 38.5q0 5 1 10z" />
    <glyph glyph-name="uni1EB9" unicode="&#x1eb9;" horiz-adv-x="519" 
d="M52 230q13 104 84.5 171.5t175.5 67.5q102 0 148.5 -60t46.5 -138q0 -20 -3 -41l-4 -38h-314q4 -38 27.5 -59.5t59.5 -21.5q64 0 102 43l88 -72q-36 -43 -89.5 -67.5t-115.5 -24.5q-105 0 -156.5 61.5t-51.5 141.5q0 18 2 37zM178 -109q3 28 24.5 44.5t46.5 16.5
q24 0 40.5 -15.5t16.5 -37.5v-8q-4 -29 -26 -47t-46 -18q-25 0 -41 16.5t-16 38.5q0 5 1 10zM377 281q-12 76 -79 76q-70 0 -99 -76h178z" />
    <glyph glyph-name="uni1EBC" unicode="&#x1ebc;" horiz-adv-x="547" 
d="M123 650h446l-17 -134h-299l-15 -124h278l-16 -134h-278l-16 -124h299l-16 -134h-446zM226 796q32 35 85 35q46 0 73 -35q18 -24 39 -24q31 0 38 46h81q-6 -56 -39 -91.5t-90 -35.5q-49 0 -75 35q-19 24 -34 24q-17 0 -26 -15t-11 -31h-81q7 56 40 92z" />
    <glyph glyph-name="uni1EBD" unicode="&#x1ebd;" horiz-adv-x="519" 
d="M52 230q13 104 84.5 171.5t175.5 67.5q102 0 148.5 -60t46.5 -138q0 -20 -3 -41l-4 -38h-314q4 -38 27.5 -59.5t59.5 -21.5q64 0 102 43l88 -72q-36 -43 -89.5 -67.5t-115.5 -24.5q-105 0 -156.5 61.5t-51.5 141.5q0 18 2 37zM187 613q32 35 85 35q46 0 73 -35
q18 -24 39 -24q31 0 38 46h81q-6 -56 -39 -91.5t-90 -35.5q-49 0 -75 35q-19 24 -34 24q-17 0 -26 -15t-11 -31h-81q7 56 40 92zM199 281h178q-12 76 -79 76q-70 0 -99 -76z" />
    <glyph glyph-name="uni1ECA" unicode="&#x1eca;" horiz-adv-x="252" 
d="M43 0l80 650h147l-80 -650h-147zM40 -104q3 28 24.5 44.5t46.5 16.5q24 0 40.5 -15.5t16.5 -37.5v-8q-4 -29 -26 -47t-46 -18q-25 0 -41 16.5t-16 38.5q0 5 1 10z" />
    <glyph glyph-name="uni1ECB" unicode="&#x1ecb;" horiz-adv-x="259" 
d="M104 460h144l-57 -460h-143zM116 596q4 34 29.5 54t55.5 20q31 0 50 -18.5t19 -44.5q0 -5 -1 -11q-4 -35 -30 -56q-26 -22 -56 -22t-49 19.5t-19 47.5q0 5 1 11zM42 -112q3 28 24.5 44.5t46.5 16.5q24 0 40.5 -15.5t16.5 -37.5v-8q-4 -29 -26 -47t-46 -18q-25 0 -41 16.5
t-16 38.5q0 5 1 10z" />
    <glyph glyph-name="uni1ECC" unicode="&#x1ecc;" horiz-adv-x="735" 
d="M73 325q18 145 121.5 239t247.5 94t216 -85.5t72 -195.5q0 -25 -3 -52q-18 -146 -120 -239q-103 -94 -247 -94t-217 85.5t-73 196.5q0 25 3 51zM254 191q44 -52 124 -52t136 52t62 100.5t6 63.5q0 62 -39 109t-119 47q-81 0 -137.5 -52.5t-66.5 -133.5q-2 -15 -2 -29
q0 -63 36 -105zM284 -110q3 28 24.5 44.5t46.5 16.5q24 0 40.5 -15.5t16.5 -37.5v-8q-4 -29 -26 -47t-46 -18q-25 0 -41 16.5t-16 38.5q0 5 1 10z" />
    <glyph glyph-name="uni1ECD" unicode="&#x1ecd;" horiz-adv-x="544" 
d="M52 230q13 105 88.5 172.5t180.5 67.5q104 0 157 -61.5t53 -141.5q0 -18 -2 -37q-13 -103 -88 -171q-75 -69 -179 -69t-158 62.5t-54 141.5q0 18 2 36zM211 156q23 -30 67 -30t74.5 29.5t33.5 56t3 34.5q0 34 -20.5 60.5t-64.5 26.5q-45 0 -76 -29t-34 -55.5t-3 -33.5
q0 -35 20 -59zM186 -112q3 28 24.5 44.5t46.5 16.5q24 0 40.5 -15.5t16.5 -37.5v-8q-4 -29 -26 -47t-46 -18q-25 0 -41 16.5t-16 38.5q0 5 1 10z" />
    <glyph glyph-name="uni1EE4" unicode="&#x1ee4;" horiz-adv-x="614" 
d="M71 231l52 419h147l-50 -403q-1 -12 -1 -23q0 -41 24.5 -65t70.5 -24t79.5 26.5t40.5 85.5l50 403h148l-52 -419q-12 -100 -88 -169q-77 -70 -196 -70t-173 63t-54 143q0 16 2 33zM221 -107q3 28 24.5 44.5t46.5 16.5q24 0 40.5 -15.5t16.5 -37.5v-8q-4 -29 -26 -47
t-46 -18q-25 0 -41 16.5t-16 38.5q0 5 1 10z" />
    <glyph glyph-name="uni1EE5" unicode="&#x1ee5;" horiz-adv-x="548" 
d="M65 179l34 281h142l-31 -259q-1 -10 -1 -18q0 -24 11.5 -42.5t27 -23.5t31.5 -5q12 0 23.5 3t26 11.5t25 28t14.5 46.5l31 259h143l-56 -460h-143l5 37q-53 -45 -128 -45q-72 0 -114.5 39.5t-42.5 109.5q0 18 2 38zM189 -108q3 28 24.5 44.5t46.5 16.5q24 0 40.5 -15.5
t16.5 -37.5v-8q-4 -29 -26 -47t-46 -18q-25 0 -41 16.5t-16 38.5q0 5 1 10z" />
    <glyph glyph-name="Ygrave" unicode="&#x1ef2;" horiz-adv-x="637" 
d="M256 650l107 -224l163 224h168l-275 -376l-34 -274h-147l33 271l-184 379h169zM417 828l41 -118h-117l-45 118h121z" />
    <glyph glyph-name="ygrave" unicode="&#x1ef3;" horiz-adv-x="537" 
d="M216 460l71 -263l137 263h147l-335 -644h-138l96 185l-125 459h147zM226 645h121l41 -118h-117z" />
    <glyph glyph-name="uni1EF4" unicode="&#x1ef4;" horiz-adv-x="637" 
d="M87 650h169l107 -224l163 224h168l-275 -376l-34 -274h-147l33 271zM235 -104q3 28 24.5 44.5t46.5 16.5q24 0 40.5 -15.5t16.5 -37.5v-8q-4 -29 -26 -47t-46 -18q-25 0 -41 16.5t-16 38.5q0 5 1 10z" />
    <glyph glyph-name="uni1EF5" unicode="&#x1ef5;" horiz-adv-x="537" 
d="M216 460l71 -263l137 263h147l-335 -644h-138l96 185l-125 459h147zM332 -119q3 28 24.5 44.5t46.5 16.5q24 0 40.5 -15.5t16.5 -37.5v-8q-4 -29 -26 -47t-46 -18q-25 0 -41 16.5t-16 38.5q0 5 1 10z" />
    <glyph glyph-name="uni1EF8" unicode="&#x1ef8;" horiz-adv-x="637" 
d="M87 650h169l107 -224l163 224h168l-275 -376l-34 -274h-147l33 271zM226 704q7 56 39.5 91.5t85.5 35.5q46 0 73 -35q18 -24 39 -24q31 0 38 46h81q-6 -56 -39 -91.5t-90 -35.5q-49 0 -75 35q-19 24 -34 24q-17 0 -26 -15t-11 -31h-81z" />
    <glyph glyph-name="uni1EF9" unicode="&#x1ef9;" horiz-adv-x="537" 
d="M69 460h147l71 -263l137 263h147l-335 -644h-138l96 185zM156 521q7 56 39.5 91.5t85.5 35.5q46 0 73 -35q18 -24 39 -24q31 0 38 46h81q-6 -56 -39 -91.5t-90 -35.5q-49 0 -75 35q-19 24 -34 24q-17 0 -26 -15t-11 -31h-81z" />
    <glyph glyph-name="endash" unicode="&#x2013;" horiz-adv-x="493" 
d="M68 206l17 134h388l-17 -134h-388z" />
    <glyph glyph-name="emdash" unicode="&#x2014;" horiz-adv-x="570" 
d="M68 205l17 134h464l-17 -134h-464z" />
    <glyph glyph-name="quoteleft" unicode="&#x2018;" horiz-adv-x="222" 
d="M79 456l98 194h102l-65 -194h-135z" />
    <glyph glyph-name="quoteright" unicode="&#x2019;" horiz-adv-x="222" 
d="M79 456l64 194h136l-99 -194h-101z" />
    <glyph glyph-name="quotesinglbase" unicode="&#x201a;" horiz-adv-x="222" 
d="M10 -105l64 194h136l-99 -194h-101z" />
    <glyph glyph-name="quotedblleft" unicode="&#x201c;" horiz-adv-x="433" 
d="M79 456l98 194h102l-65 -194h-135zM290 456l99 194h102l-65 -194h-136z" />
    <glyph glyph-name="quotedblright" unicode="&#x201d;" horiz-adv-x="433" 
d="M79 456l64 194h136l-99 -194h-101zM290 456l65 194h136l-99 -194h-102z" />
    <glyph glyph-name="quotedblbase" unicode="&#x201e;" horiz-adv-x="433" 
d="M10 -105l64 194h136l-99 -194h-101zM221 -105l65 194h136l-99 -194h-102z" />
    <glyph glyph-name="dagger" unicode="&#x2020;" horiz-adv-x="442" 
d="M145 0l44 359h-102l13 108h102l23 183h134l-23 -183h101l-13 -108h-101l-44 -359h-134z" />
    <glyph glyph-name="daggerdbl" unicode="&#x2021;" horiz-adv-x="442" 
d="M145 0l20 164h-102l13 108h102l14 113h-102l14 108h102l19 157h134l-19 -157h101l-14 -108h-101l-14 -113h101l-13 -108h-101l-20 -164h-134z" />
    <glyph glyph-name="bullet" unicode="&#x2022;" horiz-adv-x="281" 
d="M166 207q-52 0 -81 33t-22 85q6 52 43 84.5t89 32.5t81 -32.5t23 -84.5q-7 -52 -44 -85t-89 -33z" />
    <glyph glyph-name="ellipsis" unicode="&#x2026;" horiz-adv-x="648" 
d="M96 -7q-33 0 -51 21t-14 53q5 33 27.5 53.5t55.5 20.5t51 -20.5t14 -53.5q-4 -32 -27.5 -53t-55.5 -21zM324 -7q-33 0 -51 21t-14 53q5 33 27.5 53.5t55.5 20.5t51 -20.5t14 -53.5q-4 -32 -27.5 -53t-55.5 -21zM550 -7q-33 0 -51 21t-14 53q5 33 27.5 53.5t55.5 20.5
t51 -20.5t14 -53.5q-4 -32 -27.5 -53t-55.5 -21z" />
    <glyph glyph-name="perthousand" unicode="&#x2030;" horiz-adv-x="1262" 
d="M244 329q-70 0 -109.5 46.5t-31.5 116.5q9 73 60 119t122 46q69 0 108.5 -46.5t30.5 -118.5q-8 -70 -59.5 -116.5t-120.5 -46.5zM198 0l431 650h109l-431 -650h-109zM256 421q31 0 52 20.5t24 50.5q4 32 -12 52.5t-47 20.5q-32 0 -53 -20.5t-25 -52.5q-3 -30 13.5 -50.5
t47.5 -20.5zM652 -8q-69 0 -109 46.5t-32 116.5q9 72 60 118.5t121 46.5t109.5 -46t30.5 -119q-8 -70 -59 -116.5t-121 -46.5zM1039 -8q-70 0 -110 46.5t-32 116.5q9 73 60 119t122 46q69 0 109 -46.5t31 -118.5q-8 -70 -59.5 -116.5t-120.5 -46.5zM663 84q31 0 52 20.5
t25 50.5q4 32 -12 52.5t-47 20.5q-32 0 -53 -20.5t-25 -52.5q-4 -30 12.5 -50.5t47.5 -20.5zM1050 84q31 0 52 20.5t25 50.5q4 32 -12 52.5t-47 20.5q-32 0 -53.5 -21t-25.5 -52q-4 -30 13 -50.5t48 -20.5z" />
    <glyph glyph-name="guilsinglleft" unicode="&#x2039;" horiz-adv-x="407" 
d="M212 135l-150 186l195 186h169l-194 -186l149 -186h-169z" />
    <glyph glyph-name="guilsinglright" unicode="&#x203a;" horiz-adv-x="407" 
d="M40 135l193 186l-148 186h169l149 -186l-194 -186h-169z" />
    <glyph glyph-name="fraction" unicode="&#x2044;" horiz-adv-x="513" 
d="M20 0l481 650h72l-481 -650h-72z" />
    <glyph glyph-name="uni2070" unicode="&#x2070;" horiz-adv-x="419" 
d="M235 253q-76 0 -116.5 56.5t-29.5 145.5t65 146t131 57t118 -57t30 -146q-11 -88 -66 -145t-132 -57zM246 340q33 0 60.5 30t34.5 85q6 55 -14 84t-53 29q-34 0 -61.5 -29t-33.5 -84q-7 -55 13 -85t54 -30z" />
    <glyph glyph-name="uni2074" unicode="&#x2074;" horiz-adv-x="384" 
d="M249 258l8 66h-194l7 57l227 269h88l-32 -262h47l-8 -64h-47l-8 -66h-88zM158 388h107l18 150z" />
    <glyph glyph-name="uni2075" unicode="&#x2075;" horiz-adv-x="365" 
d="M195 257q-86 0 -133 57l64 63q29 -34 74 -34q28 0 50.5 12t25.5 38t-17.5 39t-50.5 13q-37 0 -70 -14l-22 42l55 181h210l-11 -81h-140l-18 -56h8q81 0 116 -36t28 -93q-8 -62 -55 -96.5t-114 -34.5z" />
    <glyph glyph-name="uni2076" unicode="&#x2076;" horiz-adv-x="367" 
d="M208 252q-62 0 -98 42t-28 103q6 48 36 84l128 169h96l-82 -109q55 -6 85.5 -47t22.5 -97q-7 -60 -53 -102.5t-107 -42.5zM218 336q26 0 45 17.5t22 43.5q4 26 -11 44.5t-41 18.5t-45 -18t-23 -45q-3 -27 11.5 -44t41.5 -17z" />
    <glyph glyph-name="uni2077" unicode="&#x2077;" horiz-adv-x="312" 
d="M159 257l-93 1l181 311h-156l10 80h259l-7 -58z" />
    <glyph glyph-name="uni2078" unicode="&#x2078;" horiz-adv-x="372" 
d="M211 250q-71 0 -105 34.5t-27 87.5q7 58 66 89q-43 33 -38 86q5 43 45 76.5t108 33.5t99 -33.5t26 -76.5q-7 -52 -57 -86q50 -31 42 -89q-6 -54 -47.5 -88t-111.5 -34zM240 492q28 0 44.5 14t18.5 35t-10.5 35.5t-40.5 14.5t-45 -15t-19 -35t11 -34.5t41 -14.5zM219 323
q28 0 46 15.5t21 38.5q2 23 -11.5 38.5t-42.5 15.5q-28 0 -46.5 -15.5t-20.5 -38.5q-2 -22 12 -38t42 -16z" />
    <glyph glyph-name="uni2079" unicode="&#x2079;" horiz-adv-x="367" 
d="M123 256l81 110q-54 6 -84.5 47t-23.5 97q8 60 54 102.5t107 42.5t97 -42.5t28 -102.5q-4 -47 -35 -84l-129 -170h-95zM231 448q27 0 46 17.5t22 44.5q4 27 -11 44t-42 17q-25 0 -44 -17.5t-23 -43.5q-3 -26 12 -44t40 -18z" />
    <glyph glyph-name="Euro" unicode="&#x20ac;" horiz-adv-x="569" 
d="M430 -8q-104 0 -173 58.5t-88 156.5h-101l9 73h86q2 30 4 45q4 25 7 40h-86l9 73h99q42 101 126 160.5t190 59.5h76l-17 -134h-14h-21h-14q-118 0 -174 -86h159l-9 -73h-181q-3 -12 -7 -40q-3 -24 -3 -45h180l-9 -73h-156q39 -81 151 -81q30 0 50 2l-17 -134
q-20 -2 -76 -2z" />
    <glyph glyph-name="trademark" unicode="&#x2122;" horiz-adv-x="1356" 
d="M714 650h148l136 -362l227 362h148l-80 -650h-147l43 350l-166 -277h-101l-98 277l-43 -350h-147zM86 516l17 134h525l-17 -134h-189l-63 -516h-147l63 516h-189z" />
    <glyph glyph-name="oneeighth" unicode="&#x215b;" horiz-adv-x="540" 
d="M11 0l481 650h72l-481 -650h-72zM117 322l31 260h-70l9 68h144l-40 -328h-74zM409 -6q-58 0 -85.5 27.5t-22.5 71.5q5 48 54 74q-36 26 -31 71q4 35 37 62t89 27q55 0 80.5 -27t21.5 -62q-5 -45 -46 -71q41 -27 34 -74q-6 -44 -39.5 -71.5t-91.5 -27.5zM434 192
q23 0 36 12t15 29t-8.5 29t-33.5 12t-36.5 -12.5t-15.5 -28.5q-2 -17 9 -29t34 -12zM416 53q23 0 38 13t17 31q2 19 -9.5 32t-34.5 13q-24 0 -39 -13t-17 -32q-2 -18 10 -31t35 -13z" />
    <glyph glyph-name="threeeighths" unicode="&#x215c;" horiz-adv-x="627" 
d="M167 322q-37 0 -67.5 14t-42.5 36l51 50q22 -29 68 -29q25 0 42 11.5t19 31.5q3 21 -11.5 33t-39.5 12q-26 0 -58 -9l7 52l83 59h-113l9 67h215l-8 -62l-72 -57q71 -21 62 -95q-7 -58 -48.5 -86t-95.5 -28zM83 0l481 650h72l-481 -650h-72zM496 -6q-58 0 -85.5 27.5
t-22.5 71.5q5 48 54 74q-36 26 -31 71q4 35 37 62t89 27q55 0 80.5 -27t21.5 -62q-5 -45 -46 -71q41 -27 34 -74q-6 -44 -39.5 -71.5t-91.5 -27.5zM521 192q23 0 36 12t15 29t-8.5 29t-33.5 12t-36.5 -12.5t-15.5 -28.5q-2 -17 9 -29t34 -12zM503 53q23 0 38 13t17 31
q2 19 -9.5 32t-34.5 13q-24 0 -39 -13t-17 -32q-2 -18 10 -31t35 -13z" />
    <glyph glyph-name="fiveeighths" unicode="&#x215d;" horiz-adv-x="627" 
d="M169 322q-72 0 -112 48l54 53q24 -29 62 -29q24 0 43 10.5t22 31.5q2 22 -15 33t-43 11q-29 0 -58 -12l-19 35l46 152h176l-8 -68h-118l-16 -47h7q68 0 98 -30t24 -78q-7 -52 -47 -81t-96 -29zM84 0l481 650h72l-481 -650h-72zM496 -6q-58 0 -85.5 27.5t-22.5 71.5
q5 48 54 74q-36 26 -31 71q4 35 37 62t89 27q55 0 80.5 -27t21.5 -62q-5 -45 -46 -71q41 -27 34 -74q-6 -44 -39.5 -71.5t-91.5 -27.5zM521 192q23 0 36 12t15 29t-8.5 29t-33.5 12t-36.5 -12.5t-15.5 -28.5q-2 -17 9 -29t34 -12zM503 53q23 0 38 13t17 31q2 19 -9.5 32
t-34.5 13q-24 0 -39 -13t-17 -32q-2 -18 10 -31t35 -13z" />
    <glyph glyph-name="seveneighths" unicode="&#x215e;" horiz-adv-x="558" 
d="M11 0l481 650h72l-481 -650h-72zM170 322l-77 1l151 260h-131l9 67h217l-6 -48zM427 -6q-58 0 -85.5 27.5t-22.5 71.5q5 48 54 74q-36 26 -31 71q4 35 37 62t89 27q55 0 80.5 -27t21.5 -62q-5 -45 -46 -71q41 -27 34 -74q-6 -44 -39.5 -71.5t-91.5 -27.5zM452 192
q23 0 36 12t15 29t-8.5 29t-33.5 12t-36.5 -12.5t-15.5 -28.5q-2 -17 9 -29t34 -12zM434 53q23 0 38 13t17 31q2 19 -9.5 32t-34.5 13q-24 0 -39 -13t-17 -32q-2 -18 10 -31t35 -13z" />
    <glyph glyph-name="arrowleft" unicode="&#x2190;" horiz-adv-x="751" 
d="M330 39l-247 283l316 282l76 -85l-147 -131h409l-17 -133h-408l114 -131z" />
    <glyph glyph-name="arrowup" unicode="&#x2191;" horiz-adv-x="671" 
d="M258 1l50 409l-146 -130l-74 85l317 283l248 -283l-97 -85l-114 130l-50 -409h-134z" />
    <glyph glyph-name="arrowright" unicode="&#x2192;" horiz-adv-x="751" 
d="M411 39l-75 85l146 131h-408l17 133h409l-115 131l95 85l249 -282z" />
    <glyph glyph-name="arrowdown" unicode="&#x2193;" horiz-adv-x="671" 
d="M325 1l-247 283l95 85l114 -130l51 409h134l-51 -409l146 130l76 -85z" />
    <glyph glyph-name="arrowboth" unicode="&#x2194;" horiz-adv-x="994" 
d="M329 39l-248 283l317 282l75 -85l-147 -131h421l-115 131l95 85l249 -282l-318 -283l-75 85l145 131h-418l114 -131z" />
    <glyph glyph-name="arrowupdn" unicode="&#x2195;" horiz-adv-x="631" 
d="M295 -75l-228 261l95 85l95 -106l39 316l-122 -109l-75 85l293 262l233 -262l-95 -85l-101 110l-39 -319l128 113l74 -85z" />
    <glyph glyph-name="uni2196" unicode="&#x2196;" horiz-adv-x="611" 
d="M471 144l-255 291l-22 -185h-120l49 400h400l-15 -121h-184l253 -290z" />
    <glyph glyph-name="uni2197" unicode="&#x2197;" horiz-adv-x="611" 
d="M155 144l-83 95l325 290h-184l15 121h400l-49 -400h-121l22 184z" />
    <glyph glyph-name="uni2198" unicode="&#x2198;" horiz-adv-x="611" 
d="M148 0l15 121h185l-255 290l106 95l255 -290l22 184h121l-49 -400h-400z" />
    <glyph glyph-name="uni2199" unicode="&#x2199;" horiz-adv-x="611" 
d="M43 0l49 400h120l-23 -185l326 291l83 -95l-325 -290h185l-15 -121h-400z" />
    <glyph glyph-name="partialdiff" unicode="&#x2202;" horiz-adv-x="565" 
d="M270 -17q-99 0 -156 65t-45 167q13 100 83.5 164t167.5 66q-71 133 -154 205h153q76 -65 141 -174.5t69 -196.5q3 -32 -1 -64q-12 -101 -85 -166.5t-173 -65.5zM286 117q42 0 72.5 27t35.5 71q6 43 -18 69.5t-66 26.5q-41 0 -71 -26t-36 -70q-5 -44 18.5 -71t64.5 -27z
" />
    <glyph glyph-name="emptyset" unicode="&#x2205;" horiz-adv-x="565" 
d="M89 65l52 70q-73 66 -59 186q13 104 85.5 170.5t175.5 66.5q54 0 96 -20l29 39h68l-52 -70q73 -67 58 -186q-12 -103 -84 -170t-174 -67q-55 0 -98 20l-29 -39h-68zM211 230l159 214q-20 6 -41 6q-55 0 -93.5 -36t-46.5 -93q-6 -57 22 -91zM298 192q54 0 91.5 36t44.5 93
q8 57 -20 91l-159 -213q18 -7 43 -7z" />
    <glyph glyph-name="product" unicode="&#x220f;" horiz-adv-x="673" 
d="M138 0l63 516h-95l17 134h567l-17 -134h-93l-63 -516h-134l63 516h-111l-63 -516h-134z" />
    <glyph glyph-name="summation" unicode="&#x2211;" horiz-adv-x="572" 
d="M42 -8l14 116l211 214l-158 219l15 117h466l-17 -134h-270l146 -202l-189 -196h264l-16 -134h-466z" />
    <glyph glyph-name="minus" unicode="&#x2212;" horiz-adv-x="517" 
d="M76 268l13 107h412l-13 -107h-412z" />
    <glyph glyph-name="radical" unicode="&#x221a;" horiz-adv-x="769" 
d="M172 -48l-90 365h134l46 -185l273 560h256l-13 -108h-161l-309 -632h-136z" />
    <glyph glyph-name="infinity" unicode="&#x221e;" horiz-adv-x="823" 
d="M221 172q-66 0 -106 44.5t-32 106.5q7 61 57.5 105.5t117.5 44.5q56 0 96.5 -17.5t97.5 -69.5q113 87 209 87q69 0 108 -44t32 -106q-8 -62 -57.5 -106.5t-119.5 -44.5q-55 0 -91.5 17t-95.5 75q-71 -59 -113 -75.5t-103 -16.5zM233 266q65 0 131 58q-60 55 -117 55
q-23 0 -47 -13t-27 -43q-4 -30 17 -43.5t43 -13.5zM636 266q24 0 47 13t27 44q3 30 -16.5 43t-43.5 13q-59 0 -123 -54q54 -59 109 -59z" />
    <glyph glyph-name="integral" unicode="&#x222b;" horiz-adv-x="560" 
d="M37 -48l13 108h52q75 0 96 84l85 371q21 91 79 134t122 43h99l-13 -107h-54q-77 0 -95 -84l-89 -384q-18 -83 -74 -124t-123 -41h-98z" />
    <glyph glyph-name="approxequal" unicode="&#x2248;" horiz-adv-x="582" 
d="M403 330q-38 0 -61 12.5t-44 34.5q-3 3 -9 9.5t-7.5 8t-6 5.5t-7 5t-6 3t-7.5 2.5t-9 0.5q-24 0 -37 -20t-16 -44h-107q10 78 53.5 127t117.5 49q26 0 48 -9.5t30 -16.5t24 -24q33 -34 57 -34q49 0 57 67h108q-10 -78 -55 -127t-123 -49zM377 120q-27 0 -48 8t-31.5 16
t-24.5 23q-4 4 -12 12.5t-10.5 10.5t-8 5.5t-10 4.5t-11.5 1q-24 0 -37.5 -20t-16.5 -44h-107q10 78 53.5 127t117.5 49q26 0 48 -9.5t30 -16.5t24 -24q33 -34 57 -34q49 0 57 67h108q-10 -78 -55 -127t-123 -49z" />
    <glyph glyph-name="notequal" unicode="&#x2260;" horiz-adv-x="517" 
d="M109 77l46 86h-92l13 107h135l53 101h-175l13 108h218l45 86h102l-45 -86h92l-13 -108h-135l-53 -101h175l-13 -107h-218l-46 -86h-102z" />
    <glyph glyph-name="lessequal" unicode="&#x2264;" horiz-adv-x="438" 
d="M405 233l-318 98l12 104l342 98l-12 -99l-187 -51l175 -51zM57 110l11 90h333l-11 -90h-333z" />
    <glyph glyph-name="greaterequal" unicode="&#x2265;" horiz-adv-x="438" 
d="M72 233l12 99l187 51l-175 51l12 99l318 -98l-12 -104zM57 110l11 90h333l-11 -90h-333z" />
    <glyph glyph-name="lozenge" unicode="&#x25ca;" horiz-adv-x="654" 
d="M246 0l-163 322l247 328h134l167 -328l-243 -322h-142zM329 97l170 225l-115 225l-169 -225z" />
    <glyph glyph-name="A.ss01" horiz-adv-x="671" 
d="M13 0l342 650h111l183 -650h-156l-112 411l-212 -411h-156z" />
    <glyph glyph-name="I.ss01" horiz-adv-x="431" 
d="M23 0l16 134h109l47 382h-109l17 134h366l-17 -134h-110l-47 -382h110l-16 -134h-366z" />
    <glyph glyph-name="J.ss01" horiz-adv-x="599" 
d="M275 -8q-103 0 -163 53.5t-68 128.5l150 53q4 -47 31 -69.5t68 -22.5q48 0 84 30t44 96l31 254h-231l17 135h378l-51 -412q-14 -114 -95 -180t-195 -66z" />
    <glyph glyph-name="R.ss01" horiz-adv-x="612" 
d="M570 -3q-106 0 -170 34.5t-107 132.5l-21 48h-56l-26 -212h-147l80 650h318q81 0 133 -57.5t39 -161.5q-10 -82 -55.5 -136.5t-108.5 -73.5l6 -14q36 -76 131 -76zM233 354h143q33 0 59.5 20.5t30.5 56.5t-17 56t-54 20h-143z" />
    <glyph glyph-name="i.loclTRK" horiz-adv-x="251" 
d="M100 460h143l-57 -460h-142zM122 575q4 28 25.5 44.5t45.5 16.5q25 0 41.5 -15.5t16.5 -36.5q0 -4 -1 -9q-4 -29 -26 -47t-46 -18t-40.5 16.5t-16.5 38.5q0 5 1 10z" />
    <glyph glyph-name="a.ss01" horiz-adv-x="527" 
d="M40 127q4 32 18 57t38.5 40.5t51.5 25.5t64.5 15t69.5 7t74 2q1 8 1 15q0 32 -20.5 50t-52.5 18q-67 0 -94 -47l-105 49q23 45 78.5 78t135.5 33q110 0 155.5 -44t45.5 -113q0 -16 -2 -34l-34 -279h-142l4 33q-50 -41 -121 -41q-99 0 -132.5 35.5t-33.5 81.5q0 9 1 18z
M192 104q15 -11 45 -11q45 0 73.5 20.5t32.5 56.5l3 27q-93 -2 -128 -16t-39 -45v-6q0 -17 13 -26z" />
    <glyph glyph-name="n.ss01" horiz-adv-x="549" 
d="M99 460h257q81 0 124.5 -41t43.5 -104q0 -14 -2 -30l-35 -285h-143l31 250q2 15 2 28q0 33 -16 51t-71 18h-62l-43 -347h-142z" />
    <glyph glyph-name="r.ss01" horiz-adv-x="335" 
d="M72 238q14 117 84.5 173t202.5 56l-16 -135q-58 -1 -91 -30t-42 -95l-25 -207h-142z" />
    <glyph glyph-name="u.ss01" horiz-adv-x="549" 
d="M64 175l35 285h142l-30 -250q-2 -15 -2 -28q0 -33 16 -51t71 -18h62l42 347h143l-56 -460h-257q-81 0 -124.5 41t-43.5 106q0 13 2 28z" />
    </font>
</defs>
</svg>
