<?xml version="1.0" standalone="no"?>
<!DOCTYPE svg PUBLIC "-//W3C//DTD SVG 1.1//EN" "http://www.w3.org/Graphics/SVG/1.1/DTD/svg11.dtd" >
<svg xmlns="http://www.w3.org/2000/svg" xmlns:xlink="http://www.w3.org/1999/xlink" version="1.1">
<metadata>
Created by FontForge 20170731 at Tue Jul 14 08:14:34 2020
 By Aleksey,,,
Copyright (c) 2020 by Bagas Ardiatma. All rights reserved.
</metadata>
<defs>
<font id="Causten-ExtraLightOblique" horiz-adv-x="587" >
  <font-face 
    font-family="Causten-ExtraLightOblique"
    font-weight="400"
    font-style="oblique"
    font-stretch="normal"
    units-per-em="1000"
    panose-1="0 0 3 0 0 0 0 0 0 0"
    ascent="778"
    descent="-222"
    x-height="460"
    cap-height="650"
    bbox="-200 -200 1318 839"
    underline-thickness="50"
    underline-position="-150"
    unicode-range="U+0020-25CA"
  />
<missing-glyph horiz-adv-x="475" 
d="M390 750v-950h-302v950h302zM316 686h-156v-31h61v-35h-62v-31h157v31h-62v35h62v31zM254 564h-95v-99h157v32h-62v67zM221 532v-35h-31v35h31zM316 439h-157v-31h62v-35h-62v-31h95v66h62v31zM316 382h-31v-62h-126v-33h157v95zM316 266h-95v-53h33v22h31v-45h-95v76
h-31v-107h157v107zM316 102h-157v-107h157v107zM285 71v-45h-95v45h95zM316 -27h-157v-31h66l-66 -45v-31h157v31h-97l67 45h30v31z" />
    <glyph glyph-name="f_f" unicode="ff" horiz-adv-x="620" 
d="M584 617q-36 0 -61.5 -21t-29.5 -59l-10 -77h135l-3 -32h-135l-53 -428h-37l53 428h-257l-53 -428h-38l53 428h-67l3 32h67l10 79q7 52 40.5 81.5t85.5 29.5h69l-4 -33h-63q-36 0 -61 -21t-29 -59l-10 -77h257l10 79q7 52 40 81.5t84 29.5h73l-4 -33h-65z" />
    <glyph glyph-name="t_t.liga" unicode="tt" horiz-adv-x="585" 
d="M590 428h-119l-41 -330q-4 -32 12.5 -48.5t45.5 -16.5h48l-4 -33h-56q-43 0 -66 25t-17 70l41 333h-248l-41 -330q-4 -32 12 -48.5t46 -16.5h47l-4 -33h-56q-43 0 -66 25t-17 70l41 333h-67l3 32h67l18 139h38l-18 -139h248l18 139h37l-18 -139h119z" />
    <glyph glyph-name=".notdef" horiz-adv-x="475" 
d="M390 750v-950h-302v950h302zM316 686h-156v-31h61v-35h-62v-31h157v31h-62v35h62v31zM254 564h-95v-99h157v32h-62v67zM221 532v-35h-31v35h31zM316 439h-157v-31h62v-35h-62v-31h95v66h62v31zM316 382h-31v-62h-126v-33h157v95zM316 266h-95v-53h33v22h31v-45h-95v76
h-31v-107h157v107zM316 102h-157v-107h157v107zM285 71v-45h-95v45h95zM316 -27h-157v-31h66l-66 -45v-31h157v31h-97l67 45h30v31z" />
    <glyph glyph-name=".null" horiz-adv-x="0" 
 />
    <glyph glyph-name="uni000D" horiz-adv-x="333" 
 />
    <glyph glyph-name="space" unicode=" " horiz-adv-x="200" 
 />
    <glyph glyph-name="exclam" unicode="!" horiz-adv-x="171" 
d="M166 650l-66 -514h-35l60 514h41zM72 55q12 0 19 -8.5t5 -19.5q-2 -12 -10.5 -20t-20.5 -8q-11 0 -18 8t-6 20q2 11 11 19.5t20 8.5z" />
    <glyph glyph-name="quotedbl" unicode="&#x22;" horiz-adv-x="258" 
d="M118 650h51l-21 -99h-34zM250 650h51l-21 -99h-33z" />
    <glyph glyph-name="numbersign" unicode="#" horiz-adv-x="698" 
d="M694 440h-107l-76 -223h118l-5 -37h-126l-62 -183h-40l62 183h-255l-62 -183h-40l62 183h-103l5 37h111l76 223h-122l5 37h130l57 170h40l-57 -170h255l57 170h40l-57 -170h99zM471 217l76 223h-255l-76 -223h255z" />
    <glyph glyph-name="dollar" unicode="$" horiz-adv-x="622" 
d="M364 354q1 0 26 -7t34 -9.5t34 -12t36.5 -17t29.5 -22t26 -29.5t13 -36t2 -45q-10 -76 -71 -119.5t-162 -47.5l-7 -57h-39l7 57q-89 5 -146 42t-70 100l36 18q14 -57 67.5 -89t138.5 -32q91 0 143 33t59 94q3 24 -2.5 43.5t-21.5 34t-28.5 23.5t-39.5 18t-36.5 12
t-36.5 9l-12 3q-1 0 -25 5.5t-30.5 8t-29 9t-31.5 12.5t-27 15.5t-25.5 20.5t-17 25t-11.5 32t0 38q8 64 69 104.5t154 45.5l7 58h39l-7 -58q78 -4 131.5 -37t65.5 -84l-38 -16q-8 44 -59 71.5t-124 27.5q-83 0 -136 -31t-58 -80q-3 -23 5 -42t18.5 -30t34 -22t37 -15.5
t42 -12t36.5 -9.5z" />
    <glyph glyph-name="percent" unicode="%" horiz-adv-x="796" 
d="M343 409q-44 -40 -103 -40t-93 39.5t-26 101.5q7 62 51 101.5t103 39.5t93 -39.5t27 -101.5q-8 -62 -52 -101zM232 0h-38l431 650h38zM244 401q46 0 79.5 30.5t39.5 78.5t-20 78.5t-72 30.5q-45 0 -78.5 -30.5t-39.5 -78.5t20 -78.5t71 -30.5zM582 -1q-60 0 -94 39.5
t-27 101.5q8 62 52 101.5t104 39.5q59 0 93 -39.5t26 -101.5q-7 -62 -51.5 -101.5t-102.5 -39.5zM586 31q45 0 78.5 30.5t39.5 78.5t-20 78.5t-71 30.5q-46 0 -80 -30.5t-40 -78.5t20.5 -78.5t72.5 -30.5z" />
    <glyph glyph-name="ampersand" unicode="&#x26;" horiz-adv-x="616" 
d="M538 -1h-43l-45 67q-75 -77 -182 -77q-98 0 -148.5 49.5t-40.5 130.5q7 59 46 105.5t127 99.5l-24 37q-47 71 -40 125q6 52 49.5 88.5t103.5 36.5q58 0 92 -36.5t28 -88.5q-4 -32 -20 -59t-45 -50t-47 -34t-50 -29l157 -241q39 59 47 132l2 17h35l-2 -17
q-12 -96 -63 -161zM223 535q-6 -41 33 -104q3 -7 25 -40q29 16 37.5 21t34 22.5t36.5 29.5t22.5 31.5t14.5 39.5q5 40 -20.5 66.5t-68.5 26.5t-76 -27t-38 -66zM272 24q94 0 161 70l-163 253q-82 -50 -114.5 -90t-38.5 -88q-8 -66 33 -105.5t122 -39.5z" />
    <glyph glyph-name="quotesingle" unicode="'" horiz-adv-x="126" 
d="M118 650h51l-28 -99h-34z" />
    <glyph glyph-name="parenleft" unicode="(" horiz-adv-x="228" 
d="M120 -48q-72 135 -43 369t134 371h43q-71 -83 -111 -226.5t-35 -287.5t56 -226h-44z" />
    <glyph glyph-name="parenright" unicode=")" horiz-adv-x="238" 
d="M86 -48h-44q71 82 111.5 226t36 287.5t-55.5 226.5h43q72 -137 43 -371t-134 -369z" />
    <glyph glyph-name="asterisk" unicode="*" horiz-adv-x="391" 
d="M406 569l-125 -78l105 -79l-19 -24l-100 75l-16 -132h-30l16 131l-118 -74l-13 25l124 78l-105 79l19 24l100 -75l16 131h30l-16 -132l119 75z" />
    <glyph glyph-name="plus" unicode="+" horiz-adv-x="502" 
d="M466 339l-5 -36h-165l-20 -165h-35l20 165h-166l5 36h166l20 166h35l-20 -166h165z" />
    <glyph glyph-name="comma" unicode="," horiz-adv-x="151" 
d="M68 45h51l-57 -117h-33z" />
    <glyph glyph-name="hyphen" unicode="-" horiz-adv-x="408" 
d="M98 324h273l-5 -38h-273z" />
    <glyph glyph-name="period" unicode="." horiz-adv-x="131" 
d="M65 -1q-11 0 -18 8t-6 20q1 11 10.5 19t20.5 8q12 0 19 -8t5 -19q-2 -12 -10.5 -20t-20.5 -8z" />
    <glyph glyph-name="slash" unicode="/" horiz-adv-x="292" 
d="M32 -47l303 739h40l-303 -739h-40z" />
    <glyph glyph-name="zero" unicode="0" horiz-adv-x="620" 
d="M504 85q-80 -93 -200 -93t-177 92.5t-39 240.5t98 240.5t200 92.5t177 -92.5t39 -240.5t-98 -240zM309 31q103 0 170 81t83 213t-31 212.5t-150 80.5q-102 0 -170 -80.5t-84 -212.5t32 -213t150 -81z" />
    <glyph glyph-name="one" unicode="1" horiz-adv-x="290" 
d="M292 650l-80 -650h-40l75 612h-153l5 38h193z" />
    <glyph glyph-name="two" unicode="2" horiz-adv-x="520" 
d="M42 36l211 166q116 92 159 138q71 76 79 139q8 67 -35.5 103.5t-126.5 36.5q-64 0 -117.5 -28t-72.5 -71l-35 14q23 53 87.5 88.5t142.5 35.5q100 0 154 -47t44 -130q-5 -42 -28.5 -84t-65 -83t-67 -62.5t-69.5 -56.5q-9 -7 -14 -11l-182 -146h370l-5 -38h-432z" />
    <glyph glyph-name="three" unicode="3" horiz-adv-x="533" 
d="M295 410q95 0 154 -54.5t47 -152.5q-12 -96 -84.5 -153.5t-168.5 -57.5q-64 0 -117 25.5t-77 68.5l33 24q22 -36 66.5 -57.5t99.5 -21.5q80 0 139 47t69 125q10 80 -37.5 125.5t-128.5 45.5q-68 0 -117 -20l5 35l296 223h-315l5 38h374l-5 -37l-271 -204q11 1 33 1z" />
    <glyph glyph-name="four" unicode="4" horiz-adv-x="555" 
d="M530 185l-4 -34h-77l-19 -151h-40l19 151h-352l3 32l410 467h40l-57 -465h77zM105 185h308l50 408z" />
    <glyph glyph-name="five" unicode="5" horiz-adv-x="532" 
d="M293 413q107 0 160 -59t42 -149q-12 -97 -80.5 -155t-171.5 -58q-63 0 -116 25.5t-79 67.5l34 25q23 -38 67.5 -59t97.5 -21q89 1 144 49.5t64 126.5q9 75 -36.5 123.5t-130.5 48.5q-91 0 -146 -33l-13 30l75 275h319l-5 -38h-286l-58 -218q60 19 119 19z" />
    <glyph glyph-name="six" unicode="6" horiz-adv-x="547" 
d="M321 442q94 0 148.5 -63t42.5 -162q-13 -98 -82.5 -161.5t-163.5 -63.5t-149 63.5t-42 161.5q9 75 56 135l241 298h46l-181 -223q41 15 84 15zM271 31q77 0 134.5 52t67.5 134q10 83 -34.5 135t-121.5 52q-78 0 -136 -52t-68 -135q-10 -82 35 -134t123 -52z" />
    <glyph glyph-name="seven" unicode="7" horiz-adv-x="454" 
d="M79 0l358 612h-333l5 38h378l-4 -33l-361 -617h-43z" />
    <glyph glyph-name="eight" unicode="8" horiz-adv-x="548" 
d="M405 337q57 -20 83 -64t19 -99q-10 -82 -72.5 -132t-168.5 -50t-156.5 50t-40.5 132q7 55 44 99t99 64q-54 19 -77 59.5t-17 93.5q8 69 68 118.5t162 49.5t149 -49t39 -119q-6 -53 -39.5 -93.5t-91.5 -59.5zM156 489q-7 -60 31 -97t124 -37q87 0 133.5 37t53.5 97
q7 56 -31.5 95t-123.5 39t-132.5 -39t-54.5 -95zM270 28q89 0 139.5 39.5t58.5 107.5q8 62 -33.5 103.5t-128.5 41.5t-138.5 -41.5t-59.5 -103.5q-8 -67 33 -107t129 -40z" />
    <glyph glyph-name="nine" unicode="9" horiz-adv-x="547" 
d="M538 433q-9 -74 -66 -145l-227 -288h-46l176 223q-39 -15 -83 -15q-94 0 -148.5 63t-42.5 162q12 98 82 161.5t164 63.5t148.5 -63.5t42.5 -161.5zM139 433q-10 -83 34.5 -134.5t122.5 -51.5t135.5 51.5t67.5 134.5q10 82 -34.5 134t-122.5 52t-135.5 -52t-67.5 -134z
" />
    <glyph glyph-name="colon" unicode=":" horiz-adv-x="133" 
d="M100 287q-11 0 -18 8.5t-5 19.5q1 12 10 20t20 8q12 0 19 -8t6 -20q-2 -11 -11 -19.5t-21 -8.5zM65 -1q-11 0 -18 8t-6 20q1 11 10.5 19t20.5 8q12 0 19 -8t5 -19q-2 -12 -10.5 -20t-20.5 -8z" />
    <glyph glyph-name="semicolon" unicode=";" horiz-adv-x="159" 
d="M120 287q-12 0 -19 8.5t-5 19.5q2 12 10.5 20t20.5 8q11 0 18.5 -8.5t5.5 -19.5t-11 -19.5t-20 -8.5zM74 45h51l-63 -117h-33z" />
    <glyph glyph-name="less" unicode="&#x3c;" horiz-adv-x="465" 
d="M445 462l-5 -35l-297 -105l272 -106l-5 -35l-315 122l5 37z" />
    <glyph glyph-name="equal" unicode="=" horiz-adv-x="502" 
d="M111 435h366l-4 -34h-366zM88 243h366l-4 -35h-366z" />
    <glyph glyph-name="greater" unicode="&#x3e;" horiz-adv-x="465" 
d="M115 462l315 -122l-5 -37l-345 -122l5 35l298 106l-273 105z" />
    <glyph glyph-name="question" unicode="?" horiz-adv-x="484" 
d="M212 136l3 24q10 80 92 150q4 4 20 17.5t20 17t17 15t16.5 16t13.5 15t13 16.5t9.5 16.5t9.5 19t6 19.5t4 23q7 64 -33.5 101t-110.5 37q-52 0 -102.5 -28t-69.5 -71l-35 13q24 54 85 89t127 35q86 0 137.5 -47t42.5 -128q-5 -40 -24.5 -74.5t-40.5 -55t-60 -54.5
q-2 -1 -3 -2l-3 -3l-3.5 -3.5t-3.5 -2.5q-25 -22 -35.5 -32t-27.5 -39t-21 -60l-3 -24h-40zM222 48q11 0 18.5 -8.5t5.5 -19.5q-1 -12 -10.5 -20t-20.5 -8q-12 0 -19 8t-6 20q2 11 11 19.5t21 8.5z" />
    <glyph glyph-name="at" unicode="@" horiz-adv-x="796" 
d="M471 665q145 0 226.5 -90t63.5 -234q-10 -83 -44 -135t-94 -52q-35 0 -58.5 20.5t-25.5 57.5q-48 -72 -137 -72q-67 0 -105.5 45.5t-29.5 116.5q8 71 57.5 116t116.5 45q86 0 119 -69l8 64h31l-27 -221q-4 -34 11 -54.5t43 -20.5q84 0 103 159q16 133 -57.5 212.5
t-204.5 79.5q-130 0 -226 -87.5t-112 -220.5q-17 -134 57.5 -221.5t204.5 -87.5q80 0 145 32l12 -29q-73 -35 -161 -35q-145 0 -226 97t-63 244t123.5 243.5t249.5 96.5zM322 230q29 -39 85 -39t95.5 38.5t46.5 92.5q6 53 -24 91t-86 38t-95 -38t-45 -91q-7 -54 23 -92z" />
    <glyph glyph-name="A" unicode="A" horiz-adv-x="636" 
d="M556 0l-57 195h-324l-105 -195h-42l349 650h32l189 -650h-42zM195 233h294l-104 355z" />
    <glyph glyph-name="B" unicode="B" horiz-adv-x="603" 
d="M483 338q49 -18 74.5 -60.5t18.5 -101.5q-10 -77 -66.5 -126.5t-132.5 -49.5h-319l80 650h296q77 0 121 -45.5t34 -121.5q-12 -104 -106 -145zM172 612l-32 -260h253q64 0 106.5 35.5t49.5 94.5q8 58 -26.5 94t-97.5 36h-253zM378 38q63 0 106.5 40t51.5 99
q7 60 -27 99.5t-97 39.5h-276l-34 -278h276z" />
    <glyph glyph-name="C" unicode="C" horiz-adv-x="692" 
d="M664 505q-66 113 -216 113q-126 0 -215.5 -82.5t-105.5 -210.5t53 -210.5t196 -82.5q150 0 244 114l30 -23q-107 -131 -279 -131q-144 0 -222.5 93.5t-60.5 239.5t119.5 239.5t245.5 93.5q85 0 148.5 -34.5t98.5 -96.5z" />
    <glyph glyph-name="D" unicode="D" horiz-adv-x="648" 
d="M344 650q144 0 222 -90t60 -235t-118 -235t-244 -90h-206l80 650h206zM269 39q123 0 212 78t105 208t-53.5 208t-193.5 78h-167l-70 -572h167z" />
    <glyph glyph-name="E" unicode="E" horiz-adv-x="538" 
d="M541 612h-369l-33 -269h348l-5 -38h-348l-32 -267h369l-5 -38h-408l80 650h408z" />
    <glyph glyph-name="F" unicode="F" horiz-adv-x="535" 
d="M541 611h-369l-33 -271h350l-5 -38h-350l-37 -302h-39l80 650h408z" />
    <glyph glyph-name="G" unicode="G" horiz-adv-x="752" 
d="M722 310q-22 -141 -117 -229.5t-234 -88.5q-144 0 -222.5 93.5t-60.5 239.5t119.5 239.5t245.5 93.5q85 0 148.5 -34.5t98.5 -95.5l-37 -22q-66 112 -215 112q-126 0 -215.5 -82.5t-105.5 -210.5t53 -210.5t196 -82.5q115 0 195.5 70t104.5 185h-270l5 38h313z" />
    <glyph glyph-name="H" unicode="H" horiz-adv-x="617" 
d="M579 650h40l-80 -650h-40l37 305h-402l-37 -305h-39l80 650h39l-38 -306h402z" />
    <glyph glyph-name="I" unicode="I" horiz-adv-x="175" 
d="M97 0h-39l80 650h39z" />
    <glyph glyph-name="J" unicode="J" horiz-adv-x="487" 
d="M450 650h40l-59 -481q-10 -79 -66.5 -128t-143.5 -49q-78 0 -120.5 37.5t-46.5 101.5l41 12q2 -51 34.5 -81.5t96.5 -30.5q71 0 114.5 40t50.5 101z" />
    <glyph glyph-name="K" unicode="K" horiz-adv-x="512" 
d="M475 0h-52l-288 312l-38 -312h-39l80 650h39l-38 -311l351 311h52l-367 -325z" />
    <glyph glyph-name="L" unicode="L" horiz-adv-x="521" 
d="M102 38h367l-5 -38h-406l80 650h39z" />
    <glyph glyph-name="M" unicode="M" horiz-adv-x="733" 
d="M736 650l-80 -650h-40l71 579l-306 -496h-28l-185 496l-71 -579h-39l80 650h46l191 -503l315 503h46z" />
    <glyph glyph-name="N" unicode="N" horiz-adv-x="616" 
d="M579 650h40l-80 -650h-39l-330 583l-72 -583h-40l80 650h39l330 -581z" />
    <glyph glyph-name="O" unicode="O" horiz-adv-x="757" 
d="M616 86q-101 -94 -245 -94t-222.5 93.5t-60.5 239.5t119.5 239.5t245.5 93.5t222 -93.5t60 -239.5t-119 -239zM180 115q69 -83 196 -83t215 82.5t104 210.5t-52 210.5t-195 82.5q-126 0 -215.5 -82.5t-105.5 -210.5t53 -210z" />
    <glyph glyph-name="P" unicode="P" horiz-adv-x="580" 
d="M425 650q75 0 120 -54t35 -134t-68 -133.5t-133 -53.5h-248l-34 -275h-39l80 650h287zM380 314q62 0 107 43.5t53 104.5q7 61 -27.5 105t-96.5 44h-244l-36 -297h244z" />
    <glyph glyph-name="Q" unicode="Q" horiz-adv-x="757" 
d="M735 325q-13 -100 -66.5 -178t-136.5 -119l69 -110h-49l-59 94q-58 -20 -122 -20q-144 0 -222.5 93.5t-60.5 239.5t120 239.5t245 93.5q144 0 222 -93.5t60 -239.5zM376 32q51 0 96 14l-63 101h49l53 -86q75 35 124 104.5t60 159.5q16 128 -52 210.5t-195 82.5
q-126 0 -215.5 -82.5t-105.5 -210.5t53 -210.5t196 -82.5z" />
    <glyph glyph-name="R" unicode="R" horiz-adv-x="596" 
d="M539 0h-48l-166 275h-194l-34 -275h-39l80 650h292q75 0 120 -54t35 -134t-68 -133.5t-133 -53.5h-11zM172 611l-36 -297h250q62 0 106.5 43.5t52.5 104.5q7 61 -27 105t-96 44h-250z" />
    <glyph glyph-name="S" unicode="S" horiz-adv-x="595" 
d="M54 134l37 19q13 -58 68 -91t142 -33q198 0 216 148q3 22 -2.5 40.5t-19.5 32t-27.5 23.5t-37 18.5t-36.5 12.5t-38 10.5t-30 7.5q-2 0 -28.5 6.5t-36 9t-35 11t-37 16t-29.5 20.5t-26 27t-13 34.5t-2 43.5q10 82 78.5 126.5t178.5 44.5q87 0 146 -34t70 -89l-37 -16
q-9 44 -60 71.5t-127 27.5q-91 0 -144.5 -34t-61.5 -96q-2 -20 2 -36.5t18.5 -29.5t24.5 -21t35.5 -16.5l34.5 -11.5t39 -9.5t32 -7.5l26 -7q27 -7 36 -10t35.5 -12.5t38.5 -17.5t31 -22.5t27.5 -29.5t14 -36.5t2.5 -45.5q-11 -93 -79 -141t-186 -48q-99 0 -161.5 38.5
t-78.5 106.5z" />
    <glyph glyph-name="T" unicode="T" horiz-adv-x="582" 
d="M604 650l-5 -38h-223l-75 -612h-40l75 612h-223l5 38h486z" />
    <glyph glyph-name="U" unicode="U" horiz-adv-x="614" 
d="M577 650h40l-53 -427q-12 -102 -84.5 -166.5t-183.5 -64.5q-110 0 -166.5 64t-44.5 167l53 427h39l-52 -424q-11 -90 36 -142.5t140 -52.5t153 52.5t71 142.5z" />
    <glyph glyph-name="V" unicode="V" horiz-adv-x="634" 
d="M634 650h43l-349 -650h-32l-188 650h42l170 -588z" />
    <glyph glyph-name="W" unicode="W" horiz-adv-x="943" 
d="M942 650h43l-297 -650h-33l-119 567l-259 -567h-32l-137 650h42l120 -573l262 573h30l120 -571z" />
    <glyph glyph-name="X" unicode="X" horiz-adv-x="583" 
d="M616 650l-270 -325l190 -325h-48l-170 291l-242 -291h-48l270 325l-190 325h48l170 -291l242 291h48z" />
    <glyph glyph-name="Y" unicode="Y" horiz-adv-x="563" 
d="M606 650l-278 -359l-36 -291h-39l35 289l-190 361h47l168 -318l246 318h47z" />
    <glyph glyph-name="Z" unicode="Z" horiz-adv-x="537" 
d="M555 614l-455 -576h377l-5 -38h-424l4 36l455 576h-378l5 38h426z" />
    <glyph glyph-name="bracketleft" unicode="[" horiz-adv-x="256" 
d="M259 658h-82l-83 -672h82l-4 -34h-120l91 740h120z" />
    <glyph glyph-name="backslash" unicode="\" horiz-adv-x="275" 
d="M249 -48h-40l-121 739h40z" />
    <glyph glyph-name="bracketright" unicode="]" horiz-adv-x="256" 
d="M139 658l4 34h120l-91 -740h-120l4 34h82l83 672h-82z" />
    <glyph glyph-name="asciicircum" unicode="^" horiz-adv-x="348" 
d="M321 413h-35l-48 193l-94 -193h-35l116 237h38z" />
    <glyph glyph-name="underscore" unicode="_" horiz-adv-x="470" 
d="M63 38h334l-5 -38h-334z" />
    <glyph glyph-name="grave" unicode="`" horiz-adv-x="120" 
d="M140 650l29 -88h-35l-34 88h40z" />
    <glyph glyph-name="a" unicode="a" 
d="M528 460h38l-56 -460h-38l14 111q-34 -55 -89 -87t-123 -32q-101 0 -157 67.5t-43 170.5t85 170t173 67q68 0 115.5 -31.5t67.5 -86.5zM281 28q88 0 148 56.5t71 145.5t-35 145t-134 56q-87 0 -148 -56.5t-72 -144.5q-11 -89 36 -145.5t134 -56.5z" />
    <glyph glyph-name="b" unicode="b" 
d="M349 467q101 0 157 -67t43 -170t-85 -170.5t-173 -67.5q-68 0 -115 32t-67 87l-14 -111h-37l80 650h37l-37 -301q34 55 88.5 86.5t122.5 31.5zM159 85q46 -57 133 -57t148 57t72 145t-36 144.5t-134 56.5t-147.5 -56t-71.5 -145t36 -145z" />
    <glyph glyph-name="c" unicode="c" horiz-adv-x="521" 
d="M480 354q-46 77 -148 77q-88 0 -149 -56t-72 -145t36 -145.5t135 -56.5q101 0 168 77l25 -20q-75 -93 -198 -93q-102 0 -159 67.5t-44 170.5t86 170t175 67q123 0 176 -92z" />
    <glyph glyph-name="d" unicode="d" 
d="M552 650h38l-80 -650h-38l14 111q-34 -55 -89 -87t-123 -32q-101 0 -157 67.5t-43 170.5t85 170t173 67q68 0 115.5 -31.5t67.5 -86.5zM281 28q88 0 148 56.5t71 145.5t-35 145t-134 56q-87 0 -148 -56.5t-72 -144.5q-11 -89 36 -145.5t134 -56.5z" />
    <glyph glyph-name="e" unicode="e" horiz-adv-x="558" 
d="M329 467q96 0 149.5 -67t40.5 -170l-2 -15h-408q-5 -85 42 -137t130 -52q109 0 174 83l26 -19q-76 -98 -204 -98q-103 0 -159.5 67t-43.5 171t83 170.5t172 66.5zM325 434q-83 0 -140 -52t-72 -137h373q6 83 -38.5 136t-122.5 53z" />
    <glyph glyph-name="f" unicode="f" horiz-adv-x="326" 
d="M289 617q-37 0 -61.5 -21.5t-28.5 -58.5l-10 -77h134l-3 -32h-134l-53 -428h-38l53 428h-67l3 32h67l10 79q7 52 40.5 81.5t85.5 29.5h71l-4 -33h-65z" />
    <glyph glyph-name="g" unicode="g" 
d="M528 460h38l-52 -425q-12 -99 -86 -160t-180 -61q-119 0 -177 80l30 22q49 -68 151 -68q87 0 150.5 50.5t73.5 136.5l10 76q-34 -55 -89 -87t-123 -32q-101 0 -157 67.5t-43 170.5t85 170t173 67q68 0 115.5 -31.5t67.5 -86.5zM147 85q47 -57 134 -57t147.5 56.5
t71.5 145.5q11 88 -35.5 144.5t-133.5 56.5t-148 -56.5t-72 -144.5q-11 -89 36 -145z" />
    <glyph glyph-name="h" unicode="h" horiz-adv-x="519" 
d="M313 467q79 0 126.5 -47.5t36.5 -135.5l-35 -284h-37l35 281q8 69 -30.5 110.5t-106.5 41.5t-116 -41.5t-56 -110.5l-35 -281h-37l80 650h37l-33 -267q59 84 171 84z" />
    <glyph glyph-name="i" unicode="i" horiz-adv-x="191" 
d="M178 586q-10 -8 -21 -8t-18.5 8t-6.5 20t10.5 20t21.5 8q11 0 18 -8t6 -20t-10 -20zM104 0h-37l56 460h38z" />
    <glyph glyph-name="j" unicode="j" horiz-adv-x="204" 
d="M190 586q-10 -8 -21 -8t-18.5 8t-6.5 20t10.5 20t21.5 8t18.5 -8t5.5 -20t-10 -20zM-17 -184h-35l4 33h27q38 0 63 20.5t29 59.5l65 531h37l-65 -536q-6 -49 -39.5 -78.5t-85.5 -29.5z" />
    <glyph glyph-name="k" unicode="k" horiz-adv-x="439" 
d="M402 0h-50l-229 231l-28 -231h-37l80 650h37l-49 -397l261 207h50l-274 -218z" />
    <glyph glyph-name="l" unicode="l" horiz-adv-x="173" 
d="M95 0h-37l80 650h37z" />
    <glyph glyph-name="m" unicode="m" horiz-adv-x="810" 
d="M618 467q74 0 117.5 -45t32.5 -138l-35 -284h-38l35 282q9 73 -25.5 111.5t-97.5 38.5t-106 -38.5t-52 -111.5l-35 -282h-38l35 282q9 72 -25 111t-97 39t-106.5 -38.5t-52.5 -111.5l-35 -282h-37l56 460h37l-8 -71q53 78 156 78q54 0 93.5 -25t52.5 -76q27 51 73 76
t100 25z" />
    <glyph glyph-name="n" unicode="n" horiz-adv-x="519" 
d="M313 467q79 0 126.5 -47.5t36.5 -135.5l-35 -284h-37l35 281q8 69 -30.5 110.5t-106.5 41.5t-116 -41.5t-56 -110.5l-35 -281h-37l56 460h37l-9 -77q59 84 171 84z" />
    <glyph glyph-name="o" unicode="o" horiz-adv-x="576" 
d="M277 -8q-102 0 -159 67.5t-44 170.5t86 170t175 67q103 0 159.5 -67t43.5 -170q-13 -104 -85.5 -171t-175.5 -67zM281 28q86 0 146.5 57t71.5 145t-35.5 144.5t-132.5 56.5t-146.5 -56.5t-71.5 -144.5t36 -145t132 -57z" />
    <glyph glyph-name="p" unicode="p" 
d="M349 467q101 0 157 -67.5t43 -170.5t-85 -170t-173 -67q-68 0 -115 32t-67 87l-37 -295h-37l79 644h37l-13 -112q34 55 88.5 87t122.5 32zM159 84q46 -56 133 -56t148 56.5t72 144.5q11 89 -36 145.5t-134 56.5t-147.5 -56.5t-71.5 -145.5t36 -145z" />
    <glyph glyph-name="q" unicode="q" 
d="M528 460h38l-79 -644h-38l37 295q-34 -55 -89 -87t-123 -32q-101 0 -157 67t-43 170t85 170.5t173 67.5q68 0 115.5 -32t67.5 -87zM281 28q88 0 148 56t71 145t-35.5 145.5t-133.5 56.5t-148 -57t-72 -145t36 -144.5t134 -56.5z" />
    <glyph glyph-name="r" unicode="r" horiz-adv-x="305" 
d="M141 375q59 90 173 92l-4 -36q-70 -2 -121 -44t-60 -114l-34 -273h-37l56 460h37z" />
    <glyph glyph-name="s" unicode="s" horiz-adv-x="451" 
d="M47 93l32 14q10 -39 48.5 -61.5t98.5 -22.5q135 0 147 101q2 13 -1.5 24.5t-8.5 20t-16 16t-19.5 12t-23.5 9.5l-22.5 7.5t-22.5 6t-19 4.5q-2 1 -19.5 5t-25 6t-25 8t-26.5 11.5t-21.5 15t-18.5 19.5t-9.5 24.5t-1.5 31.5q7 58 56 90.5t126 32.5q65 0 107 -24t51 -63
l-32 -14q-6 30 -41.5 49.5t-88.5 19.5q-61 0 -98.5 -24t-42.5 -66q-2 -14 1.5 -25t12.5 -20t17 -15t24 -11.5t24 -8t26 -6.5t21 -5q1 0 20 -5t26 -7t25.5 -8.5t27.5 -12.5t23 -16t20 -21t10 -26.5t2 -33.5q-17 -136 -189 -136q-72 0 -117 27.5t-57 76.5z" />
    <glyph glyph-name="t" unicode="t" horiz-adv-x="300" 
d="M304 428h-118l-41 -330q-4 -32 12 -48.5t46 -16.5h47l-4 -33h-56q-43 0 -66 25t-17 70l41 333h-67l3 32h67l18 139h38l-18 -139h118z" />
    <glyph glyph-name="u" unicode="u" horiz-adv-x="519" 
d="M460 460h37l-56 -460h-37l9 76q-59 -84 -171 -84q-78 0 -126 47.5t-37 135.5l35 285h37l-34 -282q-9 -69 29.5 -110.5t106.5 -41.5t116 41.5t57 110.5z" />
    <glyph glyph-name="v" unicode="v" horiz-adv-x="454" 
d="M195 0l-125 460h39l111 -408l212 408h40l-239 -460h-38z" />
    <glyph glyph-name="w" unicode="w" horiz-adv-x="713" 
d="M691 460h40l-213 -460h-39l-84 389l-183 -389h-39l-99 460h39l88 -407l189 407h25l89 -407z" />
    <glyph glyph-name="x" unicode="x" horiz-adv-x="475" 
d="M483 460l-205 -230l149 -230h-45l-129 201l-180 -201h-45l205 230l-149 230h45l131 -201l178 201h45z" />
    <glyph glyph-name="y" unicode="y" horiz-adv-x="454" 
d="M432 460h40l-335 -644h-38l96 185l-125 459h39l111 -408z" />
    <glyph glyph-name="z" unicode="z" horiz-adv-x="433" 
d="M432 460l-3 -32l-341 -394h286l-4 -34h-332l4 31l340 395h-286l4 34h332z" />
    <glyph glyph-name="braceleft" unicode="{" horiz-adv-x="307" 
d="M194 386q-4 -43 -39 -64q28 -20 24 -64l-28 -229q-6 -43 27 -43h49l-4 -34h-58q-26 0 -42 17.5t-11 55.5l29 233q2 22 -6.5 35t-23.5 13h-15l4 32h15q15 0 27 13t14 35l29 233q5 39 25 56t46 17h58l-4 -34h-49q-34 0 -38 -43z" />
    <glyph glyph-name="bar" unicode="|" horiz-adv-x="173" 
d="M90 -48h-38l91 740h38z" />
    <glyph glyph-name="braceright" unicode="}" horiz-adv-x="307" 
d="M256 338h15l-4 -32h-15q-15 0 -27.5 -13t-14.5 -35l-29 -233q-5 -38 -25.5 -55.5t-45.5 -17.5h-58l4 34h49q33 0 39 43l28 229q4 44 40 64q-29 20 -25 64l29 229q4 43 -28 43h-49l4 34h58q25 0 41.5 -17t11.5 -56l-29 -233q-2 -22 7 -35t24 -13z" />
    <glyph glyph-name="asciitilde" unicode="~" horiz-adv-x="603" 
d="M538 381h34q-8 -59 -47.5 -96t-97.5 -37q-10 0 -20 2t-17.5 4t-16 7t-13.5 8t-12.5 10t-10 9.5t-10 10.5t-8.5 9q-18 19 -25.5 26t-26.5 17t-38 10q-42 0 -71 -27.5t-34 -70.5h-34q8 59 47 96t96 37q12 0 22.5 -2t20.5 -7t16.5 -8t15.5 -11t12 -11t12 -13l9 -9
q16 -17 26 -25.5t28 -17.5t37 -9q42 0 71 26t35 72z" />
    <glyph glyph-name="exclamdown" unicode="&#xa1;" horiz-adv-x="101" 
d="M142 604q-10 -9 -21 -9t-18.5 8.5t-6.5 19.5q1 12 11 20t21 8t18 -8t6 -20q-1 -11 -10 -19zM69 0h-42l67 518h36z" />
    <glyph glyph-name="cent" unicode="&#xa2;" horiz-adv-x="673" 
d="M361 65q130 0 223 112l31 -20q-106 -130 -257 -131l-9 -74h-38l9 76q-121 12 -178.5 97t-42.5 205q14 120 92.5 204.5t202.5 96.5l9 66h38l-8 -64q82 -1 135.5 -34t89.5 -97l-37 -21q-32 56 -78 84.5t-117 28.5q-120 0 -197.5 -75.5t-90.5 -188.5q-14 -114 44.5 -189.5
t178.5 -75.5z" />
    <glyph glyph-name="sterling" unicode="&#xa3;" horiz-adv-x="519" 
d="M194 34h251l-4 -34h-383l4 34q87 0 131 35.5t47.5 98.5t-16.5 149h-118l3 29h107l-3 11q-48 163 43.5 249t264.5 52l-5 -35q-153 33 -230 -41.5t-34 -218.5q1 -3 2.5 -8.5t1.5 -8.5h186l-3 -29h-175q51 -217 -70 -283z" />
    <glyph glyph-name="currency" unicode="&#xa4;" horiz-adv-x="564" 
d="M496 323q-9 -72 -55 -121l61 -70l-27 -24l-60 69q-57 -43 -126 -43q-72 0 -116 44l-78 -69l-21 23l79 70q-33 52 -24 121q7 69 52 120l-60 69l27 24l60 -69q57 44 128 44q70 0 115 -43l77 68l21 -23l-77 -69q33 -52 24 -121zM193 212q38 -44 101 -44t111 43.5t57 111.5
q8 68 -29 111t-101 43q-63 0 -112 -43t-57 -111q-9 -67 30 -111z" />
    <glyph glyph-name="yen" unicode="&#xa5;" horiz-adv-x="563" 
d="M606 650l-271 -349h175l-4 -30h-181l-12 -102h181l-4 -29h-181l-17 -140h-39l17 140h-182l4 29h182l12 102h-182l4 30h175l-185 349h47l168 -318l246 318h47z" />
    <glyph glyph-name="brokenbar" unicode="&#xa6;" horiz-adv-x="173" 
d="M146 407h-38l35 285h38zM90 -48h-38l35 285h38z" />
    <glyph glyph-name="section" unicode="&#xa7;" horiz-adv-x="489" 
d="M331 219q101 -35 92 -115q-8 -67 -56.5 -101t-129.5 -34q-146 0 -170 105l33 11q20 -82 141 -82q66 0 104 26t44 75q2 15 -1 27.5t-13 22t-17.5 16t-25.5 13t-24 8.5t-27 7.5t-22 5.5q-73 20 -98 36q-50 32 -43 86q6 46 35.5 75.5t78.5 40.5q-94 35 -84 109q7 57 55 90
t123 33q62 0 98.5 -23.5t45.5 -64.5l-34 -11q-11 65 -114 65q-62 0 -98.5 -23.5t-41.5 -65.5q-3 -21 7 -37.5t33 -28t37.5 -16.5t41.5 -12q4 -1 24 -5.5t30.5 -8t29.5 -10.5t29.5 -15.5t21.5 -20.5t15 -29t2 -38q-5 -43 -36.5 -72t-85.5 -39zM387 398q-38 21 -99 21t-96 -24
t-40 -67q-5 -40 32 -61.5t93 -21.5q65 0 101 23.5t41 62.5q6 45 -32 67z" />
    <glyph glyph-name="dieresis" unicode="&#xa8;" horiz-adv-x="266" 
d="M120 604q-10 0 -17 7.5t-6 19.5q1 11 10.5 18t19.5 7q11 0 17.5 -7t5.5 -18q-1 -12 -10 -19.5t-20 -7.5zM293 604q-10 0 -17 7.5t-6 19.5q1 11 10.5 18t19.5 7q11 0 17.5 -7t5.5 -18q-1 -12 -10 -19.5t-20 -7.5z" />
    <glyph glyph-name="copyright" unicode="&#xa9;" horiz-adv-x="783" 
d="M626 86q-101 -94 -245 -94t-222.5 93.5t-60.5 239.5t119.5 239.5t245.5 93.5t222 -93.5t60 -239.5t-119 -239zM182 108q70 -87 203 -87t224 86.5t107 217.5t-54 217.5t-203 86.5t-224.5 -86.5t-107.5 -217.5t55 -217zM557 417q-28 57 -108 57q-61 0 -106.5 -41.5
t-53.5 -106.5q-8 -66 27.5 -107.5t96.5 -41.5q75 0 122 57l23 -16q-57 -70 -149 -70q-76 0 -118 50t-32 128t64 127.5t130 49.5q92 0 131 -69z" />
    <glyph glyph-name="guillemotleft" unicode="&#xab;" horiz-adv-x="505" 
d="M261 135h-49l-150 186l195 186h49l-194 -186zM480 135h-50l-150 186l195 186h50l-194 -186z" />
    <glyph glyph-name="logicalnot" unicode="&#xac;" horiz-adv-x="507" 
d="M101 348h371l-20 -163h-38l15 125h-333z" />
    <glyph glyph-name="registered" unicode="&#xae;" horiz-adv-x="782" 
d="M463 658q143 0 221 -94t61 -239q-18 -145 -119.5 -239t-244.5 -94q-144 0 -222.5 94t-60.5 239q17 145 119 239t246 94zM182 108q70 -87 203 -87t223.5 86.5t106.5 217.5t-53.5 217.5t-202.5 86.5t-224.5 -86.5t-107.5 -217.5q-16 -130 55 -217zM466 293h-1l89 -154h-35
l-89 154h-104l-19 -154h-29l45 366h169q43 0 68 -30.5t20 -75.5q-5 -44 -38.5 -75t-75.5 -31zM348 476l-18 -154h138q30 0 54 22t28 55t-14.5 55t-49.5 22h-138z" />
    <glyph glyph-name="macron" unicode="&#xaf;" horiz-adv-x="198" 
d="M100 650h158l-4 -30h-158z" />
    <glyph glyph-name="degree" unicode="&#xb0;" horiz-adv-x="339" 
d="M222 421q-49 0 -78 32.5t-22 82.5q6 51 42.5 83t85.5 32q48 0 76.5 -32t22.5 -83q-7 -50 -43 -82.5t-84 -32.5zM225 448q35 0 63 25t32 63q4 37 -17.5 62t-56.5 25q-36 0 -63.5 -25t-31.5 -62q-4 -38 17 -63t57 -25z" />
    <glyph glyph-name="plusminus" unicode="&#xb1;" horiz-adv-x="494" 
d="M303 387h162l-4 -32h-162l-12 -98h-35l12 98h-162l4 32h162l11 97h35zM77 158l4 32h359l-4 -32h-359z" />
    <glyph glyph-name="twosuperior" unicode="&#xb2;" horiz-adv-x="347" 
d="M72 284l128 100q33 26 46 37t40.5 37t40.5 48.5t16 44.5q5 40 -21 62.5t-76 22.5q-39 0 -71.5 -17t-43.5 -43l-21 8q14 32 53 53.5t86 21.5q60 0 92.5 -28.5t26.5 -78.5q-1 -12 -5.5 -24.5t-12 -25t-14.5 -22.5t-19 -22.5t-19 -20t-21.5 -20t-19.5 -16.5t-20 -15.5
t-16 -12.5l-110 -88h223l-3 -23h-260z" />
    <glyph glyph-name="threesuperior" unicode="&#xb3;" horiz-adv-x="361" 
d="M225 505q57 0 92.5 -33t28.5 -92q-7 -58 -50.5 -92.5t-101.5 -34.5q-39 0 -71 15.5t-46 41.5l19 14q29 -47 101 -47q48 0 83.5 28.5t41.5 74.5q6 49 -22.5 76.5t-77.5 27.5q-41 0 -71 -13l3 22l179 134h-190l3 23h225l-3 -22l-163 -123h20z" />
    <glyph glyph-name="acute" unicode="&#xb4;" horiz-adv-x="120" 
d="M141 650h39l-55 -88h-36z" />
    <glyph glyph-name="paragraph" unicode="&#xb6;" horiz-adv-x="451" 
d="M293 650l-80 -650h-38l48 390q-64 0 -94 34.5t-22 94.5q7 58 44.5 94.5t100.5 36.5h41zM416 650h38l-80 -650h-38z" />
    <glyph glyph-name="periodcentered" unicode="&#xb7;" horiz-adv-x="139" 
d="M131 303q-11 -10 -25 -10t-22 9t-6 23t12 23t24 9q13 0 21.5 -9t6.5 -23q-1 -13 -11 -22z" />
    <glyph glyph-name="cedilla" unicode="&#xb8;" horiz-adv-x="149" 
d="M66 -34q28 -2 41 -16t10 -32q-3 -21 -19.5 -35.5t-46.5 -14.5q-25 0 -42 8l3 30q13 -11 42 -11q13 0 24 6.5t12 16.5q2 10 -8 16.5t-28 6.5q-16 0 -25 -5l2 26h1l29 38h28z" />
    <glyph glyph-name="onesuperior" unicode="&#xb9;" horiz-adv-x="214" 
d="M216 650l-48 -392h-24l45 369h-92l3 23h116z" />
    <glyph glyph-name="guillemotright" unicode="&#xbb;" horiz-adv-x="534" 
d="M55 135l193 186l-148 186h48l149 -186l-194 -186h-48zM273 135l193 186l-148 186h48l149 -186l-194 -186h-48z" />
    <glyph glyph-name="onequarter" unicode="&#xbc;" horiz-adv-x="482" 
d="M43 0h-22l481 650h22zM196 650l-40 -328h-20l38 309h-78l3 19h97zM475 92l-2 -17h-39l-9 -75h-20l10 75h-175l2 16l203 231h20l-29 -230h39zM264 92h153l24 202z" />
    <glyph glyph-name="onehalf" unicode="&#xbd;" horiz-adv-x="541" 
d="M43 0h-22l481 650h22zM196 650l-40 -328h-20l38 309h-78l3 19h97zM310 18l103 80q2 2 15 12t17 13.5t15.5 13.5t16.5 15.5t14.5 15t14.5 16.5t10.5 15.5t8.5 17t4 16.5q4 33 -17 51t-62 18q-31 0 -57 -13.5t-35 -35.5l-17 7q11 26 42.5 43.5t69.5 17.5q49 0 75 -23
t21 -64q-3 -28 -29 -60.5t-41 -45t-49 -38.5l-88 -71h180l-3 -19h-210z" />
    <glyph glyph-name="threequarters" unicode="&#xbe;" horiz-adv-x="536" 
d="M187 530q47 0 76.5 -27t23.5 -76q-6 -48 -42 -76.5t-84 -28.5q-32 0 -58.5 12.5t-38.5 34.5l17 12q23 -40 83 -40q39 0 69 23.5t34 62.5q5 40 -18.5 62.5t-63.5 22.5q-35 0 -59 -10l3 18l147 111h-157l3 19h186l-2 -18l-135 -102h16zM109 0h-22l481 650h22zM529 92
l-2 -17h-39l-9 -75h-20l10 75h-175l2 16l203 231h20l-29 -230h39zM318 92h153l24 202z" />
    <glyph glyph-name="questiondown" unicode="&#xbf;" horiz-adv-x="435" 
d="M294 605q-12 0 -19 8.5t-5 19.5q2 12 10.5 20t20.5 8q11 0 18.5 -8t6.5 -20q-1 -11 -11 -19.5t-21 -8.5zM305 524l-3 -24q-10 -80 -92 -150q-4 -4 -13 -11q-41 -34 -59 -52t-36 -47.5t-22 -64.5q-7 -64 33.5 -101t111.5 -37q51 0 102 28t70 72l35 -14q-24 -54 -85 -89
t-127 -35q-86 0 -137.5 47t-42.5 128q5 40 25 74.5t39 53.5t59 54q10 9 15 13q25 22 35.5 32t27.5 39t21 60l3 24h40z" />
    <glyph glyph-name="Agrave" unicode="&#xc0;" horiz-adv-x="636" 
d="M390 798l29 -88h-35l-34 88h40zM556 0l-57 195h-324l-105 -195h-42l349 650h32l189 -650h-42zM195 233h294l-104 355z" />
    <glyph glyph-name="Aacute" unicode="&#xc1;" horiz-adv-x="636" 
d="M433 798h39l-55 -88h-36zM556 0l-57 195h-324l-105 -195h-42l349 650h32l189 -650h-42zM195 233h294l-104 355z" />
    <glyph glyph-name="Acircumflex" unicode="&#xc2;" horiz-adv-x="636" 
d="M479 710h-38l-33 68l-50 -68h-38l66 88h49zM556 0l-57 195h-324l-105 -195h-42l349 650h32l189 -650h-42zM195 233h294l-104 355z" />
    <glyph glyph-name="Atilde" unicode="&#xc3;" horiz-adv-x="636" 
d="M274 710q6 33 28.5 54.5t51.5 21.5q36 0 60 -32q20 -27 43 -27q39 0 47 47h29q-5 -34 -26 -55t-53 -21q-36 0 -61 34q-20 25 -43 25q-19 0 -31.5 -13.5t-15.5 -33.5h-29zM556 0l-57 195h-324l-105 -195h-42l349 650h32l189 -650h-42zM195 233h294l-104 355z" />
    <glyph glyph-name="Adieresis" unicode="&#xc4;" horiz-adv-x="636" 
d="M312 707q-10 0 -17 7.5t-6 19.5q1 11 10.5 18t19.5 7q11 0 17.5 -7t5.5 -18q-1 -12 -10 -19.5t-20 -7.5zM485 707q-10 0 -17 7.5t-6 19.5q1 11 10.5 18t19.5 7q11 0 17.5 -7t5.5 -18q-1 -12 -10 -19.5t-20 -7.5zM556 0l-57 195h-324l-105 -195h-42l349 650h32l189 -650
h-42zM195 233h294l-104 355z" />
    <glyph glyph-name="Aring" unicode="&#xc5;" horiz-adv-x="636" 
d="M449 721q-22 -19 -50 -19t-46 19.5t-14 48.5q4 31 25.5 50t50.5 19q28 0 45.5 -19t13.5 -50q-4 -30 -25 -49zM402 727q18 0 30.5 13t14.5 30t-7 30t-28 13q-18 0 -31 -13t-15 -30t7.5 -30t28.5 -13zM556 0l-57 195h-324l-105 -195h-42l349 650h32l189 -650h-42zM195 233
h294l-104 355z" />
    <glyph glyph-name="AE" unicode="&#xc6;" horiz-adv-x="949" 
d="M587 612l-33 -269h343l-5 -38h-343l-32 -267h364l-5 -38h-404l37 305h-275l-164 -305h-42l351 650h577l-5 -38h-364zM255 343h259l33 269h-148z" />
    <glyph glyph-name="Ccedilla" unicode="&#xc7;" horiz-adv-x="692" 
d="M448 618q-126 0 -215.5 -82.5t-105.5 -210.5t53 -210.5t196 -82.5q150 0 244 114l30 -23q-104 -127 -268 -131l-18 -26q29 -2 42 -16t10 -32q-3 -20 -19.5 -35t-47.5 -15q-24 0 -41 8l3 30q12 -11 41 -11q14 0 24.5 6.5t11.5 16.5q2 10 -8 16.5t-27 6.5t-26 -5l3 26h1
l22 30q-136 7 -209 99.5t-56 233.5q18 146 119.5 239.5t245.5 93.5q85 0 148.5 -34.5t98.5 -96.5l-36 -22q-66 113 -216 113z" />
    <glyph glyph-name="Egrave" unicode="&#xc8;" horiz-adv-x="538" 
d="M346 798l29 -88h-35l-34 88h40zM541 612h-369l-33 -269h348l-5 -38h-348l-32 -267h369l-5 -38h-408l80 650h408z" />
    <glyph glyph-name="Eacute" unicode="&#xc9;" horiz-adv-x="538" 
d="M389 798h39l-55 -88h-36zM541 612h-369l-33 -269h348l-5 -38h-348l-32 -267h369l-5 -38h-408l80 650h408z" />
    <glyph glyph-name="Ecircumflex" unicode="&#xca;" horiz-adv-x="538" 
d="M435 710h-38l-33 68l-50 -68h-38l66 88h49zM541 612h-369l-33 -269h348l-5 -38h-348l-32 -267h369l-5 -38h-408l80 650h408z" />
    <glyph glyph-name="Edieresis" unicode="&#xcb;" horiz-adv-x="538" 
d="M268 707q-10 0 -17 7.5t-6 19.5q1 11 10.5 18t19.5 7q11 0 17.5 -7t5.5 -18q-1 -12 -10 -19.5t-20 -7.5zM441 707q-10 0 -17 7.5t-6 19.5q1 11 10.5 18t19.5 7q11 0 17.5 -7t5.5 -18q-1 -12 -10 -19.5t-20 -7.5zM541 612h-369l-33 -269h348l-5 -38h-348l-32 -267h369
l-5 -38h-408l80 650h408z" />
    <glyph glyph-name="Igrave" unicode="&#xcc;" horiz-adv-x="175" 
d="M154 798l29 -88h-35l-34 88h40zM97 0h-39l80 650h39z" />
    <glyph glyph-name="Iacute" unicode="&#xcd;" horiz-adv-x="175" 
d="M197 798h39l-55 -88h-36zM97 0h-39l80 650h39z" />
    <glyph glyph-name="Icircumflex" unicode="&#xce;" horiz-adv-x="175" 
d="M243 710h-38l-33 68l-50 -68h-38l66 88h49zM97 0h-39l80 650h39z" />
    <glyph glyph-name="Idieresis" unicode="&#xcf;" horiz-adv-x="175" 
d="M76 707q-10 0 -17 7.5t-6 19.5q1 11 10.5 18t19.5 7q11 0 17.5 -7t5.5 -18q-1 -12 -10 -19.5t-20 -7.5zM249 707q-10 0 -17 7.5t-6 19.5q1 11 10.5 18t19.5 7q11 0 17.5 -7t5.5 -18q-1 -12 -10 -19.5t-20 -7.5zM97 0h-39l80 650h39z" />
    <glyph glyph-name="Ntilde" unicode="&#xd1;" horiz-adv-x="616" 
d="M269 710q6 33 28.5 54.5t51.5 21.5q36 0 60 -32q20 -27 43 -27q39 0 47 47h29q-5 -34 -26 -55t-53 -21q-36 0 -61 34q-20 25 -43 25q-19 0 -31.5 -13.5t-15.5 -33.5h-29zM579 650h40l-80 -650h-39l-330 583l-72 -583h-40l80 650h39l330 -581z" />
    <glyph glyph-name="Ograve" unicode="&#xd2;" horiz-adv-x="757" 
d="M449 798l29 -88h-35l-34 88h40zM616 86q-101 -94 -245 -94t-222.5 93.5t-60.5 239.5t119.5 239.5t245.5 93.5t222 -93.5t60 -239.5t-119 -239zM180 115q69 -83 196 -83t215 82.5t104 210.5t-52 210.5t-195 82.5q-126 0 -215.5 -82.5t-105.5 -210.5t53 -210z" />
    <glyph glyph-name="Oacute" unicode="&#xd3;" horiz-adv-x="757" 
d="M492 798h39l-55 -88h-36zM616 86q-101 -94 -245 -94t-222.5 93.5t-60.5 239.5t119.5 239.5t245.5 93.5t222 -93.5t60 -239.5t-119 -239zM180 115q69 -83 196 -83t215 82.5t104 210.5t-52 210.5t-195 82.5q-126 0 -215.5 -82.5t-105.5 -210.5t53 -210z" />
    <glyph glyph-name="Ocircumflex" unicode="&#xd4;" horiz-adv-x="757" 
d="M538 710h-38l-33 68l-50 -68h-38l66 88h49zM616 86q-101 -94 -245 -94t-222.5 93.5t-60.5 239.5t119.5 239.5t245.5 93.5t222 -93.5t60 -239.5t-119 -239zM180 115q69 -83 196 -83t215 82.5t104 210.5t-52 210.5t-195 82.5q-126 0 -215.5 -82.5t-105.5 -210.5t53 -210z
" />
    <glyph glyph-name="Otilde" unicode="&#xd5;" horiz-adv-x="757" 
d="M333 710q6 33 28.5 54.5t51.5 21.5q36 0 60 -32q20 -27 43 -27q39 0 47 47h29q-5 -34 -26 -55t-53 -21q-35 0 -61 34q-20 25 -43 25q-19 0 -31.5 -13.5t-15.5 -33.5h-29zM616 86q-101 -94 -245 -94t-222.5 93.5t-60.5 239.5t119.5 239.5t245.5 93.5t222 -93.5t60 -239.5
t-119 -239zM180 115q69 -83 196 -83t215 82.5t104 210.5t-52 210.5t-195 82.5q-126 0 -215.5 -82.5t-105.5 -210.5t53 -210z" />
    <glyph glyph-name="Odieresis" unicode="&#xd6;" horiz-adv-x="757" 
d="M371 707q-10 0 -17 7.5t-6 19.5q1 11 10.5 18t19.5 7q11 0 17.5 -7t5.5 -18q-1 -12 -10 -19.5t-20 -7.5zM544 707q-10 0 -17 7.5t-6 19.5q1 11 10.5 18t19.5 7q11 0 17.5 -7t5.5 -18q-1 -12 -10 -19.5t-20 -7.5zM616 86q-101 -94 -245 -94t-222.5 93.5t-60.5 239.5
t119.5 239.5t245.5 93.5t222 -93.5t60 -239.5t-119 -239zM180 115q69 -83 196 -83t215 82.5t104 210.5t-52 210.5t-195 82.5q-126 0 -215.5 -82.5t-105.5 -210.5t53 -210z" />
    <glyph glyph-name="multiply" unicode="&#xd7;" horiz-adv-x="426" 
d="M403 442l-134 -120l104 -120l-28 -25l-105 120l-134 -120l-23 25l135 120l-106 120l28 25l106 -120l135 120z" />
    <glyph glyph-name="Oslash" unicode="&#xd8;" horiz-adv-x="757" 
d="M660 580q95 -95 75 -255q-18 -146 -119 -239.5t-245 -93.5q-112 0 -188 60l-47 -52h-41l66 72q-93 94 -73 253q18 146 119.5 239.5t245.5 93.5q110 0 185 -58l52 58h41zM127 325q-17 -138 62 -221l420 464q-64 50 -161 50q-127 0 -216 -82t-105 -211zM376 32
q127 0 215 82.5t104 210.5q17 142 -64 223l-420 -464q66 -52 165 -52z" />
    <glyph glyph-name="Ugrave" unicode="&#xd9;" horiz-adv-x="614" 
d="M383 798l29 -88h-35l-34 88h40zM577 650h40l-53 -427q-12 -102 -84.5 -166.5t-183.5 -64.5q-110 0 -166.5 64t-44.5 167l53 427h39l-52 -424q-11 -90 36 -142.5t140 -52.5t153 52.5t71 142.5z" />
    <glyph glyph-name="Uacute" unicode="&#xda;" horiz-adv-x="614" 
d="M426 798h39l-55 -88h-36zM577 650h40l-53 -427q-12 -102 -84.5 -166.5t-183.5 -64.5q-110 0 -166.5 64t-44.5 167l53 427h39l-52 -424q-11 -90 36 -142.5t140 -52.5t153 52.5t71 142.5z" />
    <glyph glyph-name="Ucircumflex" unicode="&#xdb;" horiz-adv-x="614" 
d="M472 710h-38l-33 68l-50 -68h-38l66 88h49zM577 650h40l-53 -427q-12 -102 -84.5 -166.5t-183.5 -64.5q-110 0 -166.5 64t-44.5 167l53 427h39l-52 -424q-11 -90 36 -142.5t140 -52.5t153 52.5t71 142.5z" />
    <glyph glyph-name="Udieresis" unicode="&#xdc;" horiz-adv-x="614" 
d="M305 707q-10 0 -17 7.5t-6 19.5q1 11 10.5 18t19.5 7q11 0 17.5 -7t5.5 -18q-1 -12 -10 -19.5t-20 -7.5zM478 707q-10 0 -17 7.5t-6 19.5q1 11 10.5 18t19.5 7q11 0 17.5 -7t5.5 -18q-1 -12 -10 -19.5t-20 -7.5zM577 650h40l-53 -427q-12 -102 -84.5 -166.5t-183.5 -64.5
q-110 0 -166.5 64t-44.5 167l53 427h39l-52 -424q-11 -90 36 -142.5t140 -52.5t153 52.5t71 142.5z" />
    <glyph glyph-name="Yacute" unicode="&#xdd;" horiz-adv-x="563" 
d="M392 798h39l-55 -88h-36zM606 650l-278 -359l-36 -291h-39l35 289l-190 361h47l168 -318l246 318h47z" />
    <glyph glyph-name="germandbls" unicode="&#xdf;" horiz-adv-x="513" 
d="M393 341q50 -17 75.5 -61.5t18.5 -102.5q-10 -77 -67 -127t-137 -50h-137l5 37h132q65 0 111.5 39.5t53.5 100.5t-29.5 100t-101.5 39h-132l4 36h111q66 0 110.5 36t51.5 96q8 65 -28.5 103t-101.5 38q-74 0 -120.5 -38t-54.5 -100l-60 -487h-39l60 488q10 79 69 126
t149 47q80 0 127 -47t38 -128q-7 -51 -35.5 -88.5t-72.5 -56.5z" />
    <glyph glyph-name="agrave" unicode="&#xe0;" 
d="M347 615l29 -88h-35l-34 88h40zM528 460h38l-56 -460h-38l14 111q-34 -55 -89 -87t-123 -32q-101 0 -157 67.5t-43 170.5t85 170t173 67q68 0 115.5 -31.5t67.5 -86.5zM281 28q88 0 148 56.5t71 145.5t-35 145t-134 56q-87 0 -148 -56.5t-72 -144.5q-11 -89 36 -145.5
t134 -56.5z" />
    <glyph glyph-name="aacute" unicode="&#xe1;" 
d="M390 615h39l-55 -88h-36zM528 460h38l-56 -460h-38l14 111q-34 -55 -89 -87t-123 -32q-101 0 -157 67.5t-43 170.5t85 170t173 67q68 0 115.5 -31.5t67.5 -86.5zM281 28q88 0 148 56.5t71 145.5t-35 145t-134 56q-87 0 -148 -56.5t-72 -144.5q-11 -89 36 -145.5
t134 -56.5z" />
    <glyph glyph-name="acircumflex" unicode="&#xe2;" 
d="M436 527h-38l-33 68l-50 -68h-38l66 88h49zM528 460h38l-56 -460h-38l14 111q-34 -55 -89 -87t-123 -32q-101 0 -157 67.5t-43 170.5t85 170t173 67q68 0 115.5 -31.5t67.5 -86.5zM281 28q88 0 148 56.5t71 145.5t-35 145t-134 56q-87 0 -148 -56.5t-72 -144.5
q-11 -89 36 -145.5t134 -56.5z" />
    <glyph glyph-name="atilde" unicode="&#xe3;" 
d="M231 527q6 33 28.5 54.5t51.5 21.5q36 0 60 -32q20 -27 43 -27q39 0 47 47h29q-5 -34 -26 -55t-53 -21q-35 0 -61 34q-20 25 -43 25q-19 0 -31.5 -13.5t-15.5 -33.5h-29zM528 460h38l-56 -460h-38l14 111q-34 -55 -89 -87t-123 -32q-101 0 -157 67.5t-43 170.5t85 170
t173 67q68 0 115.5 -31.5t67.5 -86.5zM281 28q88 0 148 56.5t71 145.5t-35 145t-134 56q-87 0 -148 -56.5t-72 -144.5q-11 -89 36 -145.5t134 -56.5z" />
    <glyph glyph-name="adieresis" unicode="&#xe4;" 
d="M269 524q-10 0 -17 7.5t-6 19.5q1 11 10.5 18t19.5 7q11 0 17.5 -7t5.5 -18q-1 -12 -10 -19.5t-20 -7.5zM442 524q-10 0 -17 7.5t-6 19.5q1 11 10.5 18t19.5 7q11 0 17.5 -7t5.5 -18q-1 -12 -10 -19.5t-20 -7.5zM528 460h38l-56 -460h-38l14 111q-34 -55 -89 -87
t-123 -32q-101 0 -157 67.5t-43 170.5t85 170t173 67q68 0 115.5 -31.5t67.5 -86.5zM281 28q88 0 148 56.5t71 145.5t-35 145t-134 56q-87 0 -148 -56.5t-72 -144.5q-11 -89 36 -145.5t134 -56.5z" />
    <glyph glyph-name="aring" unicode="&#xe5;" 
d="M406 538q-22 -19 -50 -19t-46 19.5t-14 48.5q4 31 25.5 50t50.5 19q28 0 45.5 -19t13.5 -50q-4 -30 -25 -49zM359 544q18 0 30.5 13t14.5 30t-7 30t-28 13q-18 0 -31 -13t-15 -30t7.5 -30t28.5 -13zM528 460h38l-56 -460h-38l14 111q-34 -55 -89 -87t-123 -32
q-101 0 -157 67.5t-43 170.5t85 170t173 67q68 0 115.5 -31.5t67.5 -86.5zM281 28q88 0 148 56.5t71 145.5t-35 145t-134 56q-87 0 -148 -56.5t-72 -144.5q-11 -89 36 -145.5t134 -56.5z" />
    <glyph glyph-name="ae" unicode="&#xe6;" horiz-adv-x="933" 
d="M704 467q95 0 149 -67t41 -170l-2 -16h-399q-5 -85 38.5 -136.5t125.5 -51.5q109 0 173 83l26 -18q-76 -99 -204 -99q-78 0 -130 40t-66 104q-49 -144 -222 -144q-94 0 -138.5 27t-35.5 94q4 32 19.5 55.5t39 37.5t54.5 22.5t66.5 11t74.5 4t79 -0.5h14.5h14h15.5
q13 106 -18.5 149t-115.5 43q-123 0 -168 -86l-32 10q52 108 205 108q167 0 172 -133q32 61 91.5 97t132.5 36zM702 434q-84 0 -137.5 -52t-68.5 -138h364q7 84 -37 137t-121 53zM236 23q90 0 137.5 46t59.5 145q-17 0 -53.5 0.5t-54 0t-48.5 -1t-47.5 -3.5t-40 -7t-36 -12
t-26.5 -18t-21 -25t-9 -34q-6 -52 28 -71.5t111 -19.5z" />
    <glyph glyph-name="ccedilla" unicode="&#xe7;" horiz-adv-x="521" 
d="M332 431q-88 0 -149 -56t-72 -145t36 -145.5t135 -56.5q101 0 168 77l25 -20q-72 -88 -187 -93l-18 -25q29 -2 42 -16t10 -32q-3 -20 -19.5 -35t-47.5 -15q-24 0 -41 8l3 30q12 -11 41 -11q14 0 24.5 6.5t11.5 16.5q2 10 -8 16.5t-27 6.5t-26 -5l3 26h1l22 30
q-94 6 -145.5 72t-39.5 165q13 103 86 170t175 67q123 0 176 -92l-31 -21q-46 77 -148 77z" />
    <glyph glyph-name="egrave" unicode="&#xe8;" horiz-adv-x="558" 
d="M327 615l29 -88h-35l-34 88h40zM329 467q96 0 149.5 -67t40.5 -170l-2 -15h-408q-5 -85 42 -137t130 -52q109 0 174 83l26 -19q-76 -98 -204 -98q-103 0 -159.5 67t-43.5 171t83 170.5t172 66.5zM325 434q-83 0 -140 -52t-72 -137h373q6 83 -38.5 136t-122.5 53z" />
    <glyph glyph-name="eacute" unicode="&#xe9;" horiz-adv-x="558" 
d="M370 615h39l-55 -88h-36zM329 467q96 0 149.5 -67t40.5 -170l-2 -15h-408q-5 -85 42 -137t130 -52q109 0 174 83l26 -19q-76 -98 -204 -98q-103 0 -159.5 67t-43.5 171t83 170.5t172 66.5zM325 434q-83 0 -140 -52t-72 -137h373q6 83 -38.5 136t-122.5 53z" />
    <glyph glyph-name="ecircumflex" unicode="&#xea;" horiz-adv-x="558" 
d="M416 527h-38l-33 68l-50 -68h-38l66 88h49zM329 467q96 0 149.5 -67t40.5 -170l-2 -15h-408q-5 -85 42 -137t130 -52q109 0 174 83l26 -19q-76 -98 -204 -98q-103 0 -159.5 67t-43.5 171t83 170.5t172 66.5zM325 434q-83 0 -140 -52t-72 -137h373q6 83 -38.5 136
t-122.5 53z" />
    <glyph glyph-name="edieresis" unicode="&#xeb;" horiz-adv-x="558" 
d="M249 524q-10 0 -17 7.5t-6 19.5q1 11 10.5 18t19.5 7q11 0 17.5 -7t5.5 -18q-1 -12 -10 -19.5t-20 -7.5zM422 524q-10 0 -17 7.5t-6 19.5q1 11 10.5 18t19.5 7q11 0 17.5 -7t5.5 -18q-1 -12 -10 -19.5t-20 -7.5zM329 467q96 0 149.5 -67t40.5 -170l-2 -15h-408
q-5 -85 42 -137t130 -52q109 0 174 83l26 -19q-76 -98 -204 -98q-103 0 -159.5 67t-43.5 171t83 170.5t172 66.5zM325 434q-83 0 -140 -52t-72 -137h373q6 83 -38.5 136t-122.5 53z" />
    <glyph glyph-name="igrave" unicode="&#xec;" horiz-adv-x="190" 
d="M140 615l29 -88h-35l-34 88h40zM104 0h-38l56 460h38z" />
    <glyph glyph-name="iacute" unicode="&#xed;" horiz-adv-x="190" 
d="M183 615h39l-55 -88h-36zM104 0h-38l56 460h38z" />
    <glyph glyph-name="icircumflex" unicode="&#xee;" horiz-adv-x="190" 
d="M229 527h-38l-33 68l-50 -68h-38l66 88h49zM104 0h-38l56 460h38z" />
    <glyph glyph-name="idieresis" unicode="&#xef;" horiz-adv-x="190" 
d="M62 524q-10 0 -17 7.5t-6 19.5q1 11 10.5 18t19.5 7q11 0 17.5 -7t5.5 -18q-1 -12 -10 -19.5t-20 -7.5zM235 524q-10 0 -17 7.5t-6 19.5q1 11 10.5 18t19.5 7q11 0 17.5 -7t5.5 -18q-1 -12 -10 -19.5t-20 -7.5zM104 0h-38l56 460h38z" />
    <glyph glyph-name="ntilde" unicode="&#xf1;" horiz-adv-x="519" 
d="M188 527q6 33 28.5 54.5t51.5 21.5q36 0 60 -32q20 -27 43 -27q39 0 47 47h29q-5 -34 -26 -55t-53 -21q-36 0 -61 34q-20 25 -43 25q-19 0 -31.5 -13.5t-15.5 -33.5h-29zM313 467q79 0 126.5 -47.5t36.5 -135.5l-35 -284h-37l35 281q8 69 -30.5 110.5t-106.5 41.5
t-116 -41.5t-56 -110.5l-35 -281h-37l56 460h37l-9 -77q59 84 171 84z" />
    <glyph glyph-name="ograve" unicode="&#xf2;" horiz-adv-x="576" 
d="M333 615l29 -88h-35l-34 88h40zM277 -8q-102 0 -159 67.5t-44 170.5t86 170t175 67q103 0 159.5 -67t43.5 -170q-13 -104 -85.5 -171t-175.5 -67zM281 28q86 0 146.5 57t71.5 145t-35.5 144.5t-132.5 56.5t-146.5 -56.5t-71.5 -144.5t36 -145t132 -57z" />
    <glyph glyph-name="oacute" unicode="&#xf3;" horiz-adv-x="576" 
d="M376 615h39l-55 -88h-36zM277 -8q-102 0 -159 67.5t-44 170.5t86 170t175 67q103 0 159.5 -67t43.5 -170q-13 -104 -85.5 -171t-175.5 -67zM281 28q86 0 146.5 57t71.5 145t-35.5 144.5t-132.5 56.5t-146.5 -56.5t-71.5 -144.5t36 -145t132 -57z" />
    <glyph glyph-name="ocircumflex" unicode="&#xf4;" horiz-adv-x="576" 
d="M422 527h-38l-33 68l-50 -68h-38l66 88h49zM277 -8q-102 0 -159 67.5t-44 170.5t86 170t175 67q103 0 159.5 -67t43.5 -170q-13 -104 -85.5 -171t-175.5 -67zM281 28q86 0 146.5 57t71.5 145t-35.5 144.5t-132.5 56.5t-146.5 -56.5t-71.5 -144.5t36 -145t132 -57z" />
    <glyph glyph-name="otilde" unicode="&#xf5;" horiz-adv-x="576" 
d="M217 527q6 33 28.5 54.5t51.5 21.5q36 0 60 -32q20 -27 43 -27q39 0 47 47h29q-5 -34 -26 -55t-53 -21q-35 0 -61 34q-20 25 -43 25q-19 0 -31.5 -13.5t-15.5 -33.5h-29zM277 -8q-102 0 -159 67.5t-44 170.5t86 170t175 67q103 0 159.5 -67t43.5 -170
q-13 -104 -85.5 -171t-175.5 -67zM281 28q86 0 146.5 57t71.5 145t-35.5 144.5t-132.5 56.5t-146.5 -56.5t-71.5 -144.5t36 -145t132 -57z" />
    <glyph glyph-name="odieresis" unicode="&#xf6;" horiz-adv-x="576" 
d="M255 524q-10 0 -17 7.5t-6 19.5q1 11 10.5 18t19.5 7q11 0 17.5 -7t5.5 -18q-1 -12 -10 -19.5t-20 -7.5zM428 524q-10 0 -17 7.5t-6 19.5q1 11 10.5 18t19.5 7q11 0 17.5 -7t5.5 -18q-1 -12 -10 -19.5t-20 -7.5zM277 -8q-102 0 -159 67.5t-44 170.5t86 170t175 67
q103 0 159.5 -67t43.5 -170q-13 -104 -85.5 -171t-175.5 -67zM281 28q86 0 146.5 57t71.5 145t-35.5 144.5t-132.5 56.5t-146.5 -56.5t-71.5 -144.5t36 -145t132 -57z" />
    <glyph glyph-name="divide" unicode="&#xf7;" horiz-adv-x="503" 
d="M296 443q-12 0 -19 8.5t-5 19.5q2 12 10.5 20t20.5 8t19 -8t6 -20q-2 -11 -11 -19.5t-21 -8.5zM100 339h367l-5 -34h-367zM260 145q-12 0 -19 8t-6 20t10.5 20t21.5 8t19 -8t5 -20t-10.5 -20t-20.5 -8z" />
    <glyph glyph-name="oslash" unicode="&#xf8;" horiz-adv-x="576" 
d="M484 412q68 -68 54 -182q-13 -104 -85.5 -171t-175.5 -67q-80 0 -133 42l-31 -34h-28l44 48q-69 67 -55 182q13 103 86 170t175 67q80 0 133 -42l31 35h28zM113 230q-11 -97 43 -152l286 318q-46 35 -111 35q-86 0 -146.5 -56.5t-71.5 -144.5zM281 28q86 0 146.5 57
t71.5 145q12 95 -42 152l-286 -318q44 -36 110 -36z" />
    <glyph glyph-name="ugrave" unicode="&#xf9;" horiz-adv-x="519" 
d="M313 615l29 -88h-35l-34 88h40zM460 460h37l-56 -460h-37l9 76q-59 -84 -171 -84q-78 0 -126 47.5t-37 135.5l35 285h37l-34 -282q-9 -69 29.5 -110.5t106.5 -41.5t116 41.5t57 110.5z" />
    <glyph glyph-name="uacute" unicode="&#xfa;" horiz-adv-x="519" 
d="M356 615h39l-55 -88h-36zM460 460h37l-56 -460h-37l9 76q-59 -84 -171 -84q-78 0 -126 47.5t-37 135.5l35 285h37l-34 -282q-9 -69 29.5 -110.5t106.5 -41.5t116 41.5t57 110.5z" />
    <glyph glyph-name="ucircumflex" unicode="&#xfb;" horiz-adv-x="519" 
d="M402 527h-38l-33 68l-50 -68h-38l66 88h49zM460 460h37l-56 -460h-37l9 76q-59 -84 -171 -84q-78 0 -126 47.5t-37 135.5l35 285h37l-34 -282q-9 -69 29.5 -110.5t106.5 -41.5t116 41.5t57 110.5z" />
    <glyph glyph-name="udieresis" unicode="&#xfc;" horiz-adv-x="519" 
d="M235 524q-10 0 -17 7.5t-6 19.5q1 11 10.5 18t19.5 7q11 0 17.5 -7t5.5 -18q-1 -12 -10 -19.5t-20 -7.5zM408 524q-10 0 -17 7.5t-6 19.5q1 11 10.5 18t19.5 7q11 0 17.5 -7t5.5 -18q-1 -12 -10 -19.5t-20 -7.5zM460 460h37l-56 -460h-37l9 76q-59 -84 -171 -84
q-78 0 -126 47.5t-37 135.5l35 285h37l-34 -282q-9 -69 29.5 -110.5t106.5 -41.5t116 41.5t57 110.5z" />
    <glyph glyph-name="yacute" unicode="&#xfd;" horiz-adv-x="454" 
d="M312 615h39l-55 -88h-36zM432 460h40l-335 -644h-38l96 185l-125 459h39l111 -408z" />
    <glyph glyph-name="ydieresis" unicode="&#xff;" horiz-adv-x="454" 
d="M191 524q-10 0 -17 7.5t-6 19.5q1 11 10.5 18t19.5 7q11 0 17.5 -7t5.5 -18q-1 -12 -10 -19.5t-20 -7.5zM364 524q-10 0 -17 7.5t-6 19.5q1 11 10.5 18t19.5 7q11 0 17.5 -7t5.5 -18q-1 -12 -10 -19.5t-20 -7.5zM432 460h40l-335 -644h-38l96 185l-125 459h39l111 -408z
" />
    <glyph glyph-name="Amacron" unicode="&#x100;" horiz-adv-x="636" 
d="M325 740h158l-4 -30h-158zM556 0l-57 195h-324l-105 -195h-42l349 650h32l189 -650h-42zM195 233h294l-104 355z" />
    <glyph glyph-name="amacron" unicode="&#x101;" 
d="M282 556h158l-4 -30h-158zM528 460h38l-56 -460h-38l14 111q-34 -55 -89 -87t-123 -32q-101 0 -157 67.5t-43 170.5t85 170t173 67q68 0 115.5 -31.5t67.5 -86.5zM281 28q88 0 148 56.5t71 145.5t-35 145t-134 56q-87 0 -148 -56.5t-72 -144.5q-11 -89 36 -145.5
t134 -56.5z" />
    <glyph glyph-name="Abreve" unicode="&#x102;" horiz-adv-x="636" 
d="M486 788l-1 -3q-4 -33 -28.5 -54.5t-56.5 -21.5t-52 21.5t-16 54.5l1 3h29l-1 -3q-2 -20 9.5 -34t33.5 -14q21 0 35.5 14t16.5 34l1 3h29zM556 0l-57 195h-324l-105 -195h-42l349 650h32l189 -650h-42zM195 233h294l-104 355z" />
    <glyph glyph-name="abreve" unicode="&#x103;" 
d="M443 605l-1 -3q-4 -33 -28.5 -54.5t-56.5 -21.5t-52 21.5t-16 54.5l1 3h29l-1 -3q-2 -20 9.5 -34t33.5 -14q21 0 35.5 14t16.5 34l1 3h29zM528 460h38l-56 -460h-38l14 111q-34 -55 -89 -87t-123 -32q-101 0 -157 67.5t-43 170.5t85 170t173 67q68 0 115.5 -31.5
t67.5 -86.5zM281 28q88 0 148 56.5t71 145.5t-35 145t-134 56q-87 0 -148 -56.5t-72 -144.5q-11 -89 36 -145.5t134 -56.5z" />
    <glyph glyph-name="Aogonek" unicode="&#x104;" horiz-adv-x="636" 
d="M537 -50q-2 -13 7 -18t36 4l-4 -29q-39 -11 -56.5 2.5t-14.5 36.5q6 39 49 62l-55 187h-324l-105 -195h-42l349 650h32l189 -650h-28q-31 -26 -33 -50zM195 233h294l-104 355z" />
    <glyph glyph-name="aogonek" unicode="&#x105;" 
d="M503 0q-40 -28 -42 -56q-2 -13 7 -18t36 4l-4 -29q-39 -11 -56.5 2.5t-14.5 36.5q4 35 45 60h-2l14 111q-34 -55 -89 -87t-123 -32q-101 0 -157 67.5t-43 170.5t85 170t173 67q68 0 115.5 -31.5t67.5 -86.5l13 111h38l-56 -460h-7zM281 28q88 0 148 56.5t71 145.5
t-35 145t-134 56q-87 0 -148 -56.5t-72 -144.5q-11 -89 36 -145.5t134 -56.5z" />
    <glyph glyph-name="Cacute" unicode="&#x106;" horiz-adv-x="692" 
d="M490 800h39l-55 -88h-36zM664 505q-66 113 -216 113q-126 0 -215.5 -82.5t-105.5 -210.5t53 -210.5t196 -82.5q150 0 244 114l30 -23q-107 -131 -279 -131q-144 0 -222.5 93.5t-60.5 239.5t119.5 239.5t245.5 93.5q85 0 148.5 -34.5t98.5 -96.5z" />
    <glyph glyph-name="cacute" unicode="&#x107;" horiz-adv-x="521" 
d="M376 615h39l-55 -88h-36zM480 354q-46 77 -148 77q-88 0 -149 -56t-72 -145t36 -145.5t135 -56.5q101 0 168 77l25 -20q-75 -93 -198 -93q-102 0 -159 67.5t-44 170.5t86 170t175 67q123 0 176 -92z" />
    <glyph glyph-name="Cdotaccent" unicode="&#x10a;" horiz-adv-x="692" 
d="M456 709q-10 0 -17 7.5t-6 19.5q1 11 10.5 18t19.5 7q11 0 17.5 -7t5.5 -18q-1 -12 -10 -19.5t-20 -7.5zM664 505q-66 113 -216 113q-126 0 -215.5 -82.5t-105.5 -210.5t53 -210.5t196 -82.5q150 0 244 114l30 -23q-107 -131 -279 -131q-144 0 -222.5 93.5t-60.5 239.5
t119.5 239.5t245.5 93.5q85 0 148.5 -34.5t98.5 -96.5z" />
    <glyph glyph-name="cdotaccent" unicode="&#x10b;" horiz-adv-x="521" 
d="M342 524q-10 0 -17 7.5t-6 19.5q1 11 10.5 18t19.5 7q11 0 17.5 -7t5.5 -18q-1 -12 -10 -19.5t-20 -7.5zM480 354q-46 77 -148 77q-88 0 -149 -56t-72 -145t36 -145.5t135 -56.5q101 0 168 77l25 -20q-75 -93 -198 -93q-102 0 -159 67.5t-44 170.5t86 170t175 67
q123 0 176 -92z" />
    <glyph glyph-name="Ccaron" unicode="&#x10c;" horiz-adv-x="692" 
d="M509 800h38l-66 -88h-49l-44 88h38l33 -68zM664 505q-66 113 -216 113q-126 0 -215.5 -82.5t-105.5 -210.5t53 -210.5t196 -82.5q150 0 244 114l30 -23q-107 -131 -279 -131q-144 0 -222.5 93.5t-60.5 239.5t119.5 239.5t245.5 93.5q85 0 148.5 -34.5t98.5 -96.5z" />
    <glyph glyph-name="ccaron" unicode="&#x10d;" horiz-adv-x="521" 
d="M395 615h38l-66 -88h-49l-44 88h38l33 -68zM480 354q-46 77 -148 77q-88 0 -149 -56t-72 -145t36 -145.5t135 -56.5q101 0 168 77l25 -20q-75 -93 -198 -93q-102 0 -159 67.5t-44 170.5t86 170t175 67q123 0 176 -92z" />
    <glyph glyph-name="Dcaron" unicode="&#x10e;" horiz-adv-x="648" 
d="M397 799h38l-66 -88h-49l-44 88h38l33 -68zM344 650q144 0 222 -90t60 -235t-118 -235t-244 -90h-206l80 650h206zM269 39q123 0 212 78t105 208t-53.5 208t-193.5 78h-167l-70 -572h167z" />
    <glyph glyph-name="dcaron" unicode="&#x10f;" 
d="M630 798h38l-66 -88h-49l-44 88h38l33 -68zM552 650h38l-80 -650h-38l14 111q-34 -55 -89 -87t-123 -32q-101 0 -157 67.5t-43 170.5t85 170t173 67q68 0 115.5 -31.5t67.5 -86.5zM281 28q88 0 148 56.5t71 145.5t-35 145t-134 56q-87 0 -148 -56.5t-72 -144.5
q-11 -89 36 -145.5t134 -56.5z" />
    <glyph glyph-name="Dcroat" unicode="&#x110;" horiz-adv-x="649" 
d="M345 650q144 0 222 -90t60 -235t-118 -235t-244 -90h-207l37 303h-57l5 38h57l38 309h207zM270 40q123 0 212 78t105 207t-54 207t-193 78h-168l-33 -269h153l-5 -38h-153l-32 -263h168z" />
    <glyph glyph-name="Emacron" unicode="&#x112;" horiz-adv-x="538" 
d="M281 740h158l-4 -30h-158zM541 612h-369l-33 -269h348l-5 -38h-348l-32 -267h369l-5 -38h-408l80 650h408z" />
    <glyph glyph-name="emacron" unicode="&#x113;" horiz-adv-x="558" 
d="M262 556h158l-4 -30h-158zM329 467q96 0 149.5 -67t40.5 -170l-2 -15h-408q-5 -85 42 -137t130 -52q109 0 174 83l26 -19q-76 -98 -204 -98q-103 0 -159.5 67t-43.5 171t83 170.5t172 66.5zM325 434q-83 0 -140 -52t-72 -137h373q6 83 -38.5 136t-122.5 53z" />
    <glyph glyph-name="Edotaccent" unicode="&#x116;" horiz-adv-x="538" 
d="M355 707q-10 0 -17 7.5t-6 19.5q1 11 10.5 18t19.5 7q11 0 17.5 -7t5.5 -18q-1 -12 -10 -19.5t-20 -7.5zM541 612h-369l-33 -269h348l-5 -38h-348l-32 -267h369l-5 -38h-408l80 650h408z" />
    <glyph glyph-name="edotaccent" unicode="&#x117;" horiz-adv-x="558" 
d="M336 524q-10 0 -17 7.5t-6 19.5q1 11 10.5 18t19.5 7q11 0 17.5 -7t5.5 -18q-1 -12 -10 -19.5t-20 -7.5zM329 467q96 0 149.5 -67t40.5 -170l-2 -15h-408q-5 -85 42 -137t130 -52q109 0 174 83l26 -19q-76 -98 -204 -98q-103 0 -159.5 67t-43.5 171t83 170.5t172 66.5z
M325 434q-83 0 -140 -52t-72 -137h373q6 83 -38.5 136t-122.5 53z" />
    <glyph glyph-name="Eogonek" unicode="&#x118;" horiz-adv-x="538" 
d="M541 612h-369l-33 -269h348l-5 -38h-348l-32 -267h369l-5 -38h-15q-39 -25 -43 -57q-2 -13 7 -18t36 4l-4 -29q-39 -11 -56.5 2.5t-14.5 36.5q5 35 46 61h-364l80 650h408z" />
    <glyph glyph-name="eogonek" unicode="&#x119;" horiz-adv-x="558" 
d="M329 467q96 0 149.5 -67t40.5 -170l-2 -15h-408q-5 -85 42 -137t130 -52q109 0 174 83l26 -19q-70 -91 -186 -97q-41 -29 -44 -58q-2 -13 7 -18t36 4l-4 -29q-39 -11 -56.5 2.5t-14.5 36.5q5 38 47 61q-98 4 -151.5 71t-40.5 167q13 104 83 170.5t172 66.5zM486 245
q6 83 -38.5 136t-122.5 53q-83 0 -140 -52t-72 -137h373z" />
    <glyph glyph-name="Ecaron" unicode="&#x11a;" horiz-adv-x="538" 
d="M408 798h38l-66 -88h-49l-44 88h38l33 -68zM541 612h-369l-33 -269h348l-5 -38h-348l-32 -267h369l-5 -38h-408l80 650h408z" />
    <glyph glyph-name="ecaron" unicode="&#x11b;" horiz-adv-x="558" 
d="M389 615h38l-66 -88h-49l-44 88h38l33 -68zM329 467q96 0 149.5 -67t40.5 -170l-2 -15h-408q-5 -85 42 -137t130 -52q109 0 174 83l26 -19q-76 -98 -204 -98q-103 0 -159.5 67t-43.5 171t83 170.5t172 66.5zM325 434q-83 0 -140 -52t-72 -137h373q6 83 -38.5 136
t-122.5 53z" />
    <glyph glyph-name="Gbreve" unicode="&#x11e;" horiz-adv-x="752" 
d="M549 788l-1 -3q-4 -33 -28.5 -54.5t-56.5 -21.5t-52 21.5t-16 54.5l1 3h29l-1 -3q-2 -20 9.5 -34t33.5 -14q21 0 35.5 14t16.5 34l1 3h29zM722 310q-22 -141 -117 -229.5t-234 -88.5q-144 0 -222.5 93.5t-60.5 239.5t119.5 239.5t245.5 93.5q85 0 148.5 -34.5t98.5 -95.5
l-37 -22q-66 112 -215 112q-126 0 -215.5 -82.5t-105.5 -210.5t53 -210.5t196 -82.5q115 0 195.5 70t104.5 185h-270l5 38h313z" />
    <glyph glyph-name="gbreve" unicode="&#x11f;" 
d="M431 605l-1 -3q-4 -33 -28.5 -54.5t-56.5 -21.5t-52 21.5t-16 54.5l1 3h29l-1 -3q-2 -20 9.5 -34t33.5 -14q21 0 35.5 14t16.5 34l1 3h29zM528 460h38l-52 -425q-12 -99 -86 -160t-180 -61q-119 0 -177 80l30 22q49 -68 151 -68q87 0 150.5 50.5t73.5 136.5l10 76
q-34 -55 -89 -87t-123 -32q-101 0 -157 67.5t-43 170.5t85 170t173 67q68 0 115.5 -31.5t67.5 -86.5zM147 85q47 -57 134 -57t147.5 56.5t71.5 145.5q11 88 -35.5 144.5t-133.5 56.5t-148 -56.5t-72 -144.5q-11 -89 36 -145z" />
    <glyph glyph-name="Gdotaccent" unicode="&#x120;" horiz-adv-x="752" 
d="M462 707q-10 0 -17 7.5t-6 19.5q1 11 10.5 18t19.5 7q11 0 17.5 -7t5.5 -18q-1 -12 -10 -19.5t-20 -7.5zM722 310q-22 -141 -117 -229.5t-234 -88.5q-144 0 -222.5 93.5t-60.5 239.5t119.5 239.5t245.5 93.5q85 0 148.5 -34.5t98.5 -95.5l-37 -22q-66 112 -215 112
q-126 0 -215.5 -82.5t-105.5 -210.5t53 -210.5t196 -82.5q115 0 195.5 70t104.5 185h-270l5 38h313z" />
    <glyph glyph-name="gdotaccent" unicode="&#x121;" 
d="M344 524q-10 0 -17 7.5t-6 19.5q1 11 10.5 18t19.5 7q11 0 17.5 -7t5.5 -18q-1 -12 -10 -19.5t-20 -7.5zM528 460h38l-52 -425q-12 -99 -86 -160t-180 -61q-119 0 -177 80l30 22q49 -68 151 -68q87 0 150.5 50.5t73.5 136.5l10 76q-34 -55 -89 -87t-123 -32
q-101 0 -157 67.5t-43 170.5t85 170t173 67q68 0 115.5 -31.5t67.5 -86.5zM147 85q47 -57 134 -57t147.5 56.5t71.5 145.5q11 88 -35.5 144.5t-133.5 56.5t-148 -56.5t-72 -144.5q-11 -89 36 -145z" />
    <glyph glyph-name="uni0122" unicode="&#x122;" horiz-adv-x="752" 
d="M722 310q-22 -141 -117 -229.5t-234 -88.5q-144 0 -222.5 93.5t-60.5 239.5t119.5 239.5t245.5 93.5q85 0 148.5 -34.5t98.5 -95.5l-37 -22q-66 112 -215 112q-126 0 -215.5 -82.5t-105.5 -210.5t53 -210.5t196 -82.5q115 0 195.5 70t104.5 185h-270l5 38h313zM350 -65
h39l-56 -88h-35z" />
    <glyph glyph-name="uni0123" unicode="&#x123;" 
d="M379 602q-17 -19 -21 -26q18 -6 17 -25q-2 -11 -10.5 -18.5t-19.5 -7.5q-12 0 -18.5 7.5t-4.5 18.5q2 16 32 51h25zM528 460h38l-52 -425q-12 -99 -86 -160t-180 -61q-119 0 -177 80l30 22q49 -68 151 -68q87 0 150.5 50.5t73.5 136.5l10 76q-34 -55 -89 -87t-123 -32
q-101 0 -157 67.5t-43 170.5t85 170t173 67q68 0 115.5 -31.5t67.5 -86.5zM147 85q47 -57 134 -57t147.5 56.5t71.5 145.5q11 88 -35.5 144.5t-133.5 56.5t-148 -56.5t-72 -144.5q-11 -89 36 -145z" />
    <glyph glyph-name="Itilde" unicode="&#x128;" horiz-adv-x="175" 
d="M38 710q6 33 28.5 54.5t51.5 21.5q36 0 60 -32q20 -27 43 -27q39 0 47 47h29q-5 -34 -26 -55t-53 -21q-36 0 -61 34q-20 25 -43 25q-19 0 -31.5 -13.5t-15.5 -33.5h-29zM97 0h-39l80 650h39z" />
    <glyph glyph-name="itilde" unicode="&#x129;" horiz-adv-x="190" 
d="M24 527q6 33 28.5 54.5t51.5 21.5q36 0 60 -32q20 -27 43 -27q39 0 47 47h29q-5 -34 -26 -55t-53 -21q-36 0 -61 34q-20 25 -43 25q-19 0 -31.5 -13.5t-15.5 -33.5h-29zM104 0h-38l56 460h38z" />
    <glyph glyph-name="Imacron" unicode="&#x12a;" horiz-adv-x="175" 
d="M89 740h158l-4 -30h-158zM97 0h-39l80 650h39z" />
    <glyph glyph-name="imacron" unicode="&#x12b;" horiz-adv-x="190" 
d="M75 556h158l-4 -30h-158zM104 0h-38l56 460h38z" />
    <glyph glyph-name="Iogonek" unicode="&#x12e;" horiz-adv-x="175" 
d="M91 0q-39 -25 -43 -57q-2 -13 7 -18t36 4l-4 -29q-39 -11 -56.5 2.5t-14.5 36.5q5 35 46 61h-4l80 650h39l-80 -650h-6z" />
    <glyph glyph-name="iogonek" unicode="&#x12f;" horiz-adv-x="190" 
d="M156 576q11 0 17.5 -7t5.5 -18q-1 -12 -10 -19.5t-20 -7.5q-10 0 -17 7.5t-6 19.5q1 11 10.5 18t19.5 7zM66 0l56 460h38l-56 -460h-6q-41 -28 -44 -58q-2 -13 7 -18t36 4l-4 -29q-39 -11 -56.5 2.5t-14.5 36.5q6 39 48 62h-4z" />
    <glyph glyph-name="Idotaccent" unicode="&#x130;" horiz-adv-x="175" 
d="M163 707q-10 0 -17 7.5t-6 19.5q1 11 10.5 18t19.5 7q11 0 17.5 -7t5.5 -18q-1 -12 -10 -19.5t-20 -7.5zM97 0h-39l80 650h39z" />
    <glyph glyph-name="dotlessi" unicode="&#x131;" horiz-adv-x="190" 
d="M104 0h-38l56 460h38z" />
    <glyph glyph-name="uni0136" unicode="&#x136;" horiz-adv-x="512" 
d="M475 0h-52l-288 312l-38 -312h-39l80 650h39l-38 -311l351 311h52l-367 -325zM223 -64h39l-56 -88h-35z" />
    <glyph glyph-name="uni0137" unicode="&#x137;" horiz-adv-x="439" 
d="M402 0h-50l-229 231l-28 -231h-37l80 650h37l-49 -397l261 207h50l-274 -218zM193 -64h39l-56 -88h-35z" />
    <glyph glyph-name="Lacute" unicode="&#x139;" horiz-adv-x="521" 
d="M197 798h39l-55 -88h-36zM102 38h367l-5 -38h-406l80 650h39z" />
    <glyph glyph-name="lacute" unicode="&#x13a;" horiz-adv-x="173" 
d="M196 798h39l-55 -88h-36zM95 0h-37l80 650h37z" />
    <glyph glyph-name="uni013B" unicode="&#x13b;" horiz-adv-x="521" 
d="M102 38h367l-5 -38h-406l80 650h39zM235 -64h39l-56 -88h-35z" />
    <glyph glyph-name="uni013C" unicode="&#x13c;" horiz-adv-x="173" 
d="M95 0h-37l80 650h37zM50 -64h39l-56 -88h-35z" />
    <glyph glyph-name="Lcaron" unicode="&#x13d;" horiz-adv-x="521" 
d="M216 798h38l-66 -88h-49l-44 88h38l33 -68zM102 38h367l-5 -38h-406l80 650h39z" />
    <glyph glyph-name="lcaron" unicode="&#x13e;" horiz-adv-x="173" 
d="M215 798h38l-66 -88h-49l-44 88h38l33 -68zM95 0h-37l80 650h37z" />
    <glyph glyph-name="Lslash" unicode="&#x141;" horiz-adv-x="521" 
d="M102 38h367l-5 -38h-406l39 321l-59 -20l5 39l59 20l36 290h39l-34 -276l160 55l-5 -39l-160 -55z" />
    <glyph glyph-name="lslash" unicode="&#x142;" horiz-adv-x="173" 
d="M209 391l-4 -35l-69 -24l-41 -332h-37l39 319l-58 -20l4 35l58 20l37 296h37l-35 -283z" />
    <glyph glyph-name="Nacute" unicode="&#x143;" horiz-adv-x="616" 
d="M428 798h39l-55 -88h-36zM579 650h40l-80 -650h-39l-330 583l-72 -583h-40l80 650h39l330 -581z" />
    <glyph glyph-name="nacute" unicode="&#x144;" horiz-adv-x="519" 
d="M347 615h39l-55 -88h-36zM313 467q79 0 126.5 -47.5t36.5 -135.5l-35 -284h-37l35 281q8 69 -30.5 110.5t-106.5 41.5t-116 -41.5t-56 -110.5l-35 -281h-37l56 460h37l-9 -77q59 84 171 84z" />
    <glyph glyph-name="uni0145" unicode="&#x145;" horiz-adv-x="616" 
d="M579 650h40l-80 -650h-39l-330 583l-72 -583h-40l80 650h39l330 -581zM282 -64h39l-56 -88h-35z" />
    <glyph glyph-name="uni0146" unicode="&#x146;" horiz-adv-x="519" 
d="M313 467q79 0 126.5 -47.5t36.5 -135.5l-35 -284h-37l35 281q8 69 -30.5 110.5t-106.5 41.5t-116 -41.5t-56 -110.5l-35 -281h-37l56 460h37l-9 -77q59 84 171 84zM223 -64h39l-56 -88h-35z" />
    <glyph glyph-name="Ncaron" unicode="&#x147;" horiz-adv-x="616" 
d="M447 798h38l-66 -88h-49l-44 88h38l33 -68zM579 650h40l-80 -650h-39l-330 583l-72 -583h-40l80 650h39l330 -581z" />
    <glyph glyph-name="ncaron" unicode="&#x148;" horiz-adv-x="519" 
d="M366 615h38l-66 -88h-49l-44 88h38l33 -68zM313 467q79 0 126.5 -47.5t36.5 -135.5l-35 -284h-37l35 281q8 69 -30.5 110.5t-106.5 41.5t-116 -41.5t-56 -110.5l-35 -281h-37l56 460h37l-9 -77q59 84 171 84z" />
    <glyph glyph-name="Omacron" unicode="&#x14c;" horiz-adv-x="757" 
d="M384 740h158l-4 -30h-158zM616 86q-101 -94 -245 -94t-222.5 93.5t-60.5 239.5t119.5 239.5t245.5 93.5t222 -93.5t60 -239.5t-119 -239zM180 115q69 -83 196 -83t215 82.5t104 210.5t-52 210.5t-195 82.5q-126 0 -215.5 -82.5t-105.5 -210.5t53 -210z" />
    <glyph glyph-name="omacron" unicode="&#x14d;" horiz-adv-x="576" 
d="M268 556h158l-4 -30h-158zM277 -8q-102 0 -159 67.5t-44 170.5t86 170t175 67q103 0 159.5 -67t43.5 -170q-13 -104 -85.5 -171t-175.5 -67zM281 28q86 0 146.5 57t71.5 145t-35.5 144.5t-132.5 56.5t-146.5 -56.5t-71.5 -144.5t36 -145t132 -57z" />
    <glyph glyph-name="Ohungarumlaut" unicode="&#x150;" horiz-adv-x="757" 
d="M430 798h39l-58 -88h-33zM550 798h40l-59 -88h-33zM616 86q-101 -94 -245 -94t-222.5 93.5t-60.5 239.5t119.5 239.5t245.5 93.5t222 -93.5t60 -239.5t-119 -239zM180 115q69 -83 196 -83t215 82.5t104 210.5t-52 210.5t-195 82.5q-126 0 -215.5 -82.5t-105.5 -210.5
t53 -210z" />
    <glyph glyph-name="ohungarumlaut" unicode="&#x151;" horiz-adv-x="576" 
d="M314 615h39l-58 -88h-33zM434 615h40l-59 -88h-33zM277 -8q-102 0 -159 67.5t-44 170.5t86 170t175 67q103 0 159.5 -67t43.5 -170q-13 -104 -85.5 -171t-175.5 -67zM281 28q86 0 146.5 57t71.5 145t-35.5 144.5t-132.5 56.5t-146.5 -56.5t-71.5 -144.5t36 -145t132 -57z
" />
    <glyph glyph-name="OE" unicode="&#x152;" horiz-adv-x="1133" 
d="M1136 612h-362l-33 -269h341l-5 -38h-341l-32 -267h362l-5 -38h-402l20 162q-49 -79 -129 -124.5t-178 -45.5q-144 0 -223 93.5t-61 239.5t120 239.5t246 93.5q98 0 167 -45.5t98 -124.5l20 162h402zM377 32q126 0 214 82.5t104 210.5t-52 210.5t-194 82.5
q-128 0 -217 -82.5t-105 -210.5t53 -210.5t197 -82.5z" />
    <glyph glyph-name="oe" unicode="&#x153;" horiz-adv-x="982" 
d="M753 467q96 0 150 -67t41 -170l-2 -15h-409q-5 -85 42 -137t130 -52q109 0 174 83l27 -18q-36 -46 -89.5 -72.5t-115.5 -26.5q-75 0 -126.5 37.5t-69.5 102.5q-33 -65 -93.5 -102.5t-135.5 -37.5q-102 0 -158.5 67.5t-43.5 170.5t85.5 170t174.5 67q75 0 126.5 -37
t68.5 -101q33 64 91.5 101t132.5 37zM749 434q-83 0 -140 -52t-72 -137h373q6 83 -38.5 136t-122.5 53zM281 29q87 0 146.5 56t70.5 145t-34.5 144.5t-133.5 55.5q-87 0 -147.5 -56t-71.5 -144t36 -144.5t134 -56.5z" />
    <glyph glyph-name="Racute" unicode="&#x154;" horiz-adv-x="596" 
d="M383 798h39l-55 -88h-36zM539 0h-48l-166 275h-194l-34 -275h-39l80 650h292q75 0 120 -54t35 -134t-68 -133.5t-133 -53.5h-11zM172 611l-36 -297h250q62 0 106.5 43.5t52.5 104.5q7 61 -27 105t-96 44h-250z" />
    <glyph glyph-name="racute" unicode="&#x155;" horiz-adv-x="305" 
d="M252 615h39l-55 -88h-36zM141 375q59 90 173 92l-4 -36q-70 -2 -121 -44t-60 -114l-34 -273h-37l56 460h37z" />
    <glyph glyph-name="uni0156" unicode="&#x156;" horiz-adv-x="596" 
d="M539 0h-48l-166 275h-194l-34 -275h-39l80 650h292q75 0 120 -54t35 -134t-68 -133.5t-133 -53.5h-11zM172 611l-36 -297h250q62 0 106.5 43.5t52.5 104.5q7 61 -27 105t-96 44h-250zM240 -64h39l-56 -88h-35z" />
    <glyph glyph-name="uni0157" unicode="&#x157;" horiz-adv-x="305" 
d="M141 375q59 90 173 92l-4 -36q-70 -2 -121 -44t-60 -114l-34 -273h-37l56 460h37zM49 -64h39l-56 -88h-35z" />
    <glyph glyph-name="Rcaron" unicode="&#x158;" horiz-adv-x="596" 
d="M402 798h38l-66 -88h-49l-44 88h38l33 -68zM539 0h-48l-166 275h-194l-34 -275h-39l80 650h292q75 0 120 -54t35 -134t-68 -133.5t-133 -53.5h-11zM172 611l-36 -297h250q62 0 106.5 43.5t52.5 104.5q7 61 -27 105t-96 44h-250z" />
    <glyph glyph-name="rcaron" unicode="&#x159;" horiz-adv-x="305" 
d="M271 615h38l-66 -88h-49l-44 88h38l33 -68zM141 375q59 90 173 92l-4 -36q-70 -2 -121 -44t-60 -114l-34 -273h-37l56 460h37z" />
    <glyph glyph-name="Sacute" unicode="&#x15a;" horiz-adv-x="595" 
d="M414 798h39l-55 -88h-36zM54 134l37 19q13 -58 68 -91t142 -33q198 0 216 148q3 22 -2.5 40.5t-19.5 32t-27.5 23.5t-37 18.5t-36.5 12.5t-38 10.5t-30 7.5q-2 0 -28.5 6.5t-36 9t-35 11t-37 16t-29.5 20.5t-26 27t-13 34.5t-2 43.5q10 82 78.5 126.5t178.5 44.5
q87 0 146 -34t70 -89l-37 -16q-9 44 -60 71.5t-127 27.5q-91 0 -144.5 -34t-61.5 -96q-2 -20 2 -36.5t18.5 -29.5t24.5 -21t35.5 -16.5l34.5 -11.5t39 -9.5t32 -7.5l26 -7q27 -7 36 -10t35.5 -12.5t38.5 -17.5t31 -22.5t27.5 -29.5t14 -36.5t2.5 -45.5q-11 -93 -79 -141
t-186 -48q-99 0 -161.5 38.5t-78.5 106.5z" />
    <glyph glyph-name="sacute" unicode="&#x15b;" horiz-adv-x="451" 
d="M316 615h39l-55 -88h-36zM47 93l32 14q10 -39 48.5 -61.5t98.5 -22.5q135 0 147 101q2 13 -1.5 24.5t-8.5 20t-16 16t-19.5 12t-23.5 9.5l-22.5 7.5t-22.5 6t-19 4.5q-2 1 -19.5 5t-25 6t-25 8t-26.5 11.5t-21.5 15t-18.5 19.5t-9.5 24.5t-1.5 31.5q7 58 56 90.5
t126 32.5q65 0 107 -24t51 -63l-32 -14q-6 30 -41.5 49.5t-88.5 19.5q-61 0 -98.5 -24t-42.5 -66q-2 -14 1.5 -25t12.5 -20t17 -15t24 -11.5t24 -8t26 -6.5t21 -5q1 0 20 -5t26 -7t25.5 -8.5t27.5 -12.5t23 -16t20 -21t10 -26.5t2 -33.5q-17 -136 -189 -136q-72 0 -117 27.5
t-57 76.5z" />
    <glyph glyph-name="Scedilla" unicode="&#x15e;" horiz-adv-x="595" 
d="M348 359l26 -7q27 -7 36 -10t35.5 -12.5t38.5 -17.5t31 -22.5t27.5 -29.5t14 -36.5t2.5 -45.5q-11 -90 -75 -138t-175 -51l-20 -28q29 -2 42 -16t10 -32q-3 -20 -19.5 -35t-47.5 -15q-24 0 -41 8l3 30q12 -11 41 -11q14 0 24.5 6.5t11.5 16.5q2 10 -8 16.5t-27 6.5
t-26 -5l3 26h1l24 32q-93 3 -152 41.5t-74 103.5l37 19q13 -58 68 -91t142 -33q198 0 216 148q3 22 -2.5 40.5t-19.5 32t-27.5 23.5t-37 18.5t-36.5 12.5t-38 10.5t-30 7.5q-2 0 -28.5 6.5t-36 9t-35 11t-37 16t-29.5 20.5t-26 27t-13 34.5t-2 43.5q10 82 78.5 126.5
t178.5 44.5q87 0 146 -34t70 -89l-37 -16q-9 44 -60 71.5t-127 27.5q-91 0 -144.5 -34t-61.5 -96q-2 -20 2 -36.5t18.5 -29.5t24.5 -21t35.5 -16.5l34.5 -11.5t39 -9.5t32 -7.5z" />
    <glyph glyph-name="scedilla" unicode="&#x15f;" horiz-adv-x="451" 
d="M256 255q1 0 20 -5t26 -7t25.5 -8.5t27.5 -12.5t23 -16t20 -21t10 -26.5t2 -33.5q-17 -131 -177 -136l-18 -25q29 -2 42 -16t10 -32q-3 -20 -19.5 -35t-47.5 -15q-24 0 -41 8l3 30q12 -11 41 -11q14 0 24.5 6.5t11.5 16.5q2 10 -8 16.5t-27 6.5t-26 -5l3 26h1l22 29
q-64 4 -105 31t-52 73l32 14q10 -39 48.5 -61.5t98.5 -22.5q135 0 147 101q2 13 -1.5 24.5t-8.5 20t-16 16t-19.5 12t-23.5 9.5l-22.5 7.5t-22.5 6t-19 4.5q-2 1 -19.5 5t-25 6t-25 8t-26.5 11.5t-21.5 15t-18.5 19.5t-9.5 24.5t-1.5 31.5q7 58 56 90.5t126 32.5
q65 0 107 -24t51 -63l-32 -14q-6 30 -41.5 49.5t-88.5 19.5q-61 0 -98.5 -24t-42.5 -66q-2 -14 1.5 -25t12.5 -20t17 -15t24 -11.5t24 -8t26 -6.5t21 -5z" />
    <glyph glyph-name="Scaron" unicode="&#x160;" horiz-adv-x="595" 
d="M433 798h38l-66 -88h-49l-44 88h38l33 -68zM54 134l37 19q13 -58 68 -91t142 -33q198 0 216 148q3 22 -2.5 40.5t-19.5 32t-27.5 23.5t-37 18.5t-36.5 12.5t-38 10.5t-30 7.5q-2 0 -28.5 6.5t-36 9t-35 11t-37 16t-29.5 20.5t-26 27t-13 34.5t-2 43.5q10 82 78.5 126.5
t178.5 44.5q87 0 146 -34t70 -89l-37 -16q-9 44 -60 71.5t-127 27.5q-91 0 -144.5 -34t-61.5 -96q-2 -20 2 -36.5t18.5 -29.5t24.5 -21t35.5 -16.5l34.5 -11.5t39 -9.5t32 -7.5l26 -7q27 -7 36 -10t35.5 -12.5t38.5 -17.5t31 -22.5t27.5 -29.5t14 -36.5t2.5 -45.5
q-11 -93 -79 -141t-186 -48q-99 0 -161.5 38.5t-78.5 106.5z" />
    <glyph glyph-name="scaron" unicode="&#x161;" horiz-adv-x="451" 
d="M335 615h38l-66 -88h-49l-44 88h38l33 -68zM47 93l32 14q10 -39 48.5 -61.5t98.5 -22.5q135 0 147 101q2 13 -1.5 24.5t-8.5 20t-16 16t-19.5 12t-23.5 9.5l-22.5 7.5t-22.5 6t-19 4.5q-2 1 -19.5 5t-25 6t-25 8t-26.5 11.5t-21.5 15t-18.5 19.5t-9.5 24.5t-1.5 31.5
q7 58 56 90.5t126 32.5q65 0 107 -24t51 -63l-32 -14q-6 30 -41.5 49.5t-88.5 19.5q-61 0 -98.5 -24t-42.5 -66q-2 -14 1.5 -25t12.5 -20t17 -15t24 -11.5t24 -8t26 -6.5t21 -5q1 0 20 -5t26 -7t25.5 -8.5t27.5 -12.5t23 -16t20 -21t10 -26.5t2 -33.5q-17 -136 -189 -136
q-72 0 -117 27.5t-57 76.5z" />
    <glyph glyph-name="uni0162" unicode="&#x162;" horiz-adv-x="582" 
d="M118 650h486l-5 -38h-223l-75 -612h-6l-22 -31q29 -2 42 -16t10 -32q-3 -20 -19.5 -35t-47.5 -15q-24 0 -41 8l3 30q12 -11 41 -11q14 0 24.5 6.5t11.5 16.5q2 10 -8 16.5t-27 6.5t-26 -5l3 26h1l26 35h-5l75 612h-223z" />
    <glyph glyph-name="uni0163" unicode="&#x163;" horiz-adv-x="300" 
d="M186 428l-41 -330q-4 -32 12 -48.5t46 -16.5h47l-4 -33h-42l-21 -30q29 -2 42 -16t10 -32q-3 -20 -19.5 -35t-47.5 -15q-24 0 -41 8l3 30q12 -11 41 -11q14 0 24.5 6.5t11.5 16.5q2 10 -8 16.5t-27 6.5t-26 -5l3 26h1l26 35q-37 4 -55.5 28.5t-13.5 65.5l41 333h-67l3 32
h67l18 139h38l-18 -139h118l-3 -32h-118z" />
    <glyph glyph-name="Tcaron" unicode="&#x164;" horiz-adv-x="582" 
d="M421 798h38l-66 -88h-49l-44 88h38l33 -68zM604 650l-5 -38h-223l-75 -612h-40l75 612h-223l5 38h486z" />
    <glyph glyph-name="tcaron" unicode="&#x165;" horiz-adv-x="300" 
d="M244 738h38l-66 -88h-49l-44 88h38l33 -68zM304 428h-118l-41 -330q-4 -32 12 -48.5t46 -16.5h47l-4 -33h-56q-43 0 -66 25t-17 70l41 333h-67l3 32h67l18 139h38l-18 -139h118z" />
    <glyph glyph-name="Tbar" unicode="&#x166;" horiz-adv-x="599" 
d="M599 612h-223l-33 -268h156l-4 -38h-156l-38 -306h-40l38 306h-157l4 38h157l33 268h-223l5 38h486z" />
    <glyph glyph-name="Utilde" unicode="&#x168;" horiz-adv-x="614" 
d="M267 710q6 33 28.5 54.5t51.5 21.5q36 0 60 -32q20 -27 43 -27q39 0 47 47h29q-5 -34 -26 -55t-53 -21q-35 0 -61 34q-20 25 -43 25q-19 0 -31.5 -13.5t-15.5 -33.5h-29zM577 650h40l-53 -427q-12 -102 -84.5 -166.5t-183.5 -64.5q-110 0 -166.5 64t-44.5 167l53 427h39
l-52 -424q-11 -90 36 -142.5t140 -52.5t153 52.5t71 142.5z" />
    <glyph glyph-name="utilde" unicode="&#x169;" horiz-adv-x="519" 
d="M197 527q6 33 28.5 54.5t51.5 21.5q36 0 60 -32q20 -27 43 -27q39 0 47 47h29q-5 -34 -26 -55t-53 -21q-35 0 -61 34q-20 25 -43 25q-19 0 -31.5 -13.5t-15.5 -33.5h-29zM460 460h37l-56 -460h-37l9 76q-59 -84 -171 -84q-78 0 -126 47.5t-37 135.5l35 285h37l-34 -282
q-9 -69 29.5 -110.5t106.5 -41.5t116 41.5t57 110.5z" />
    <glyph glyph-name="Umacron" unicode="&#x16a;" horiz-adv-x="614" 
d="M318 740h158l-4 -30h-158zM577 650h40l-53 -427q-12 -102 -84.5 -166.5t-183.5 -64.5q-110 0 -166.5 64t-44.5 167l53 427h39l-52 -424q-11 -90 36 -142.5t140 -52.5t153 52.5t71 142.5z" />
    <glyph glyph-name="umacron" unicode="&#x16b;" horiz-adv-x="519" 
d="M248 556h158l-4 -30h-158zM460 460h37l-56 -460h-37l9 76q-59 -84 -171 -84q-78 0 -126 47.5t-37 135.5l35 285h37l-34 -282q-9 -69 29.5 -110.5t106.5 -41.5t116 41.5t57 110.5z" />
    <glyph glyph-name="Uring" unicode="&#x16e;" horiz-adv-x="614" 
d="M442 721q-22 -19 -50 -19t-46 19.5t-14 48.5q4 31 25.5 50t50.5 19q28 0 45.5 -19t13.5 -50q-4 -30 -25 -49zM395 727q18 0 30.5 13t14.5 30t-7 30t-28 13q-18 0 -31 -13t-15 -30t7.5 -30t28.5 -13zM577 650h40l-53 -427q-12 -102 -84.5 -166.5t-183.5 -64.5
q-110 0 -166.5 64t-44.5 167l53 427h39l-52 -424q-11 -90 36 -142.5t140 -52.5t153 52.5t71 142.5z" />
    <glyph glyph-name="uring" unicode="&#x16f;" horiz-adv-x="519" 
d="M372 538q-22 -19 -50 -19t-46 19.5t-14 48.5q4 31 25.5 50t50.5 19q28 0 45.5 -19t13.5 -50q-4 -30 -25 -49zM325 544q18 0 30.5 13t14.5 30t-7 30t-28 13q-18 0 -31 -13t-15 -30t7.5 -30t28.5 -13zM460 460h37l-56 -460h-37l9 76q-59 -84 -171 -84q-78 0 -126 47.5
t-37 135.5l35 285h37l-34 -282q-9 -69 29.5 -110.5t106.5 -41.5t116 41.5t57 110.5z" />
    <glyph glyph-name="Uhungarumlaut" unicode="&#x170;" horiz-adv-x="614" 
d="M364 798h39l-58 -88h-33zM484 798h40l-59 -88h-33zM577 650h40l-53 -427q-12 -102 -84.5 -166.5t-183.5 -64.5q-110 0 -166.5 64t-44.5 167l53 427h39l-52 -424q-11 -90 36 -142.5t140 -52.5t153 52.5t71 142.5z" />
    <glyph glyph-name="uhungarumlaut" unicode="&#x171;" horiz-adv-x="519" 
d="M294 615h39l-58 -88h-33zM414 615h40l-59 -88h-33zM460 460h37l-56 -460h-37l9 76q-59 -84 -171 -84q-78 0 -126 47.5t-37 135.5l35 285h37l-34 -282q-9 -69 29.5 -110.5t106.5 -41.5t116 41.5t57 110.5z" />
    <glyph glyph-name="Uogonek" unicode="&#x172;" horiz-adv-x="614" 
d="M577 650h40l-53 -427q-11 -99 -79.5 -163t-174.5 -68q-34 -24 -36 -52q-2 -13 7 -18t36 4l-4 -29q-39 -11 -56.5 2.5t-14.5 36.5q4 33 39 56q-103 5 -155 68.5t-41 162.5l53 427h39l-52 -424q-11 -90 36 -142.5t140 -52.5t153 52.5t71 142.5z" />
    <glyph glyph-name="uogonek" unicode="&#x173;" horiz-adv-x="519" 
d="M442 6h1l-1 -1l-1 -5h-7q-38 -27 -40 -55q-2 -13 7 -18t36 4l-4 -29q-39 -11 -56.5 2.5t-14.5 36.5q4 34 43 59h-1l9 76q-59 -84 -171 -84q-78 0 -126 47.5t-37 135.5l35 285h37l-34 -282q-9 -69 29.5 -110.5t106.5 -41.5t116 41.5t57 110.5l34 282h37z" />
    <glyph glyph-name="Wcircumflex" unicode="&#x174;" horiz-adv-x="943" 
d="M632 710h-38l-33 68l-50 -68h-38l66 88h49zM942 650h43l-297 -650h-33l-119 567l-259 -567h-32l-137 650h42l120 -573l262 573h30l120 -571z" />
    <glyph glyph-name="wcircumflex" unicode="&#x175;" horiz-adv-x="713" 
d="M490 527h-38l-33 68l-50 -68h-38l66 88h49zM691 460h40l-213 -460h-39l-84 389l-183 -389h-39l-99 460h39l88 -407l189 407h25l89 -407z" />
    <glyph glyph-name="Ycircumflex" unicode="&#x176;" horiz-adv-x="563" 
d="M438 710h-38l-33 68l-50 -68h-38l66 88h49zM606 650l-278 -359l-36 -291h-39l35 289l-190 361h47l168 -318l246 318h47z" />
    <glyph glyph-name="ycircumflex" unicode="&#x177;" horiz-adv-x="454" 
d="M358 527h-38l-33 68l-50 -68h-38l66 88h49zM432 460h40l-335 -644h-38l96 185l-125 459h39l111 -408z" />
    <glyph glyph-name="Ydieresis" unicode="&#x178;" horiz-adv-x="563" 
d="M271 707q-10 0 -17 7.5t-6 19.5q1 11 10.5 18t19.5 7q11 0 17.5 -7t5.5 -18q-1 -12 -10 -19.5t-20 -7.5zM444 707q-10 0 -17 7.5t-6 19.5q1 11 10.5 18t19.5 7q11 0 17.5 -7t5.5 -18q-1 -12 -10 -19.5t-20 -7.5zM606 650l-278 -359l-36 -291h-39l35 289l-190 361h47
l168 -318l246 318h47z" />
    <glyph glyph-name="Zacute" unicode="&#x179;" horiz-adv-x="537" 
d="M389 798h39l-55 -88h-36zM555 614l-455 -576h377l-5 -38h-424l4 36l455 576h-378l5 38h426z" />
    <glyph glyph-name="zacute" unicode="&#x17a;" horiz-adv-x="433" 
d="M305 615h39l-55 -88h-36zM432 460l-3 -32l-341 -394h286l-4 -34h-332l4 31l340 395h-286l4 34h332z" />
    <glyph glyph-name="Zdotaccent" unicode="&#x17b;" horiz-adv-x="537" 
d="M355 707q-10 0 -17 7.5t-6 19.5q1 11 10.5 18t19.5 7q11 0 17.5 -7t5.5 -18q-1 -12 -10 -19.5t-20 -7.5zM555 614l-455 -576h377l-5 -38h-424l4 36l455 576h-378l5 38h426z" />
    <glyph glyph-name="zdotaccent" unicode="&#x17c;" horiz-adv-x="433" 
d="M271 524q-10 0 -17 7.5t-6 19.5q1 11 10.5 18t19.5 7q11 0 17.5 -7t5.5 -18q-1 -12 -10 -19.5t-20 -7.5zM432 460l-3 -32l-341 -394h286l-4 -34h-332l4 31l340 395h-286l4 34h332z" />
    <glyph glyph-name="Zcaron" unicode="&#x17d;" horiz-adv-x="537" 
d="M408 798h38l-66 -88h-49l-44 88h38l33 -68zM555 614l-455 -576h377l-5 -38h-424l4 36l455 576h-378l5 38h426z" />
    <glyph glyph-name="zcaron" unicode="&#x17e;" horiz-adv-x="433" 
d="M324 615h38l-66 -88h-49l-44 88h38l33 -68zM432 460l-3 -32l-341 -394h286l-4 -34h-332l4 31l340 395h-286l4 34h332z" />
    <glyph glyph-name="uni01CD" unicode="&#x1cd;" horiz-adv-x="636" 
d="M452 798h38l-66 -88h-49l-44 88h38l33 -68zM556 0l-57 195h-324l-105 -195h-42l349 650h32l189 -650h-42zM195 233h294l-104 355z" />
    <glyph glyph-name="uni01CE" unicode="&#x1ce;" 
d="M409 615h38l-66 -88h-49l-44 88h38l33 -68zM528 460h38l-56 -460h-38l14 111q-34 -55 -89 -87t-123 -32q-101 0 -157 67.5t-43 170.5t85 170t173 67q68 0 115.5 -31.5t67.5 -86.5zM281 28q88 0 148 56.5t71 145.5t-35 145t-134 56q-87 0 -148 -56.5t-72 -144.5
q-11 -89 36 -145.5t134 -56.5z" />
    <glyph glyph-name="uni01CF" unicode="&#x1cf;" horiz-adv-x="175" 
d="M216 798h38l-66 -88h-49l-44 88h38l33 -68zM97 0h-39l80 650h39z" />
    <glyph glyph-name="uni01D0" unicode="&#x1d0;" horiz-adv-x="190" 
d="M202 615h38l-66 -88h-49l-44 88h38l33 -68zM104 0h-38l56 460h38z" />
    <glyph glyph-name="uni01D1" unicode="&#x1d1;" horiz-adv-x="757" 
d="M511 798h38l-66 -88h-49l-44 88h38l33 -68zM616 86q-101 -94 -245 -94t-222.5 93.5t-60.5 239.5t119.5 239.5t245.5 93.5t222 -93.5t60 -239.5t-119 -239zM180 115q69 -83 196 -83t215 82.5t104 210.5t-52 210.5t-195 82.5q-126 0 -215.5 -82.5t-105.5 -210.5t53 -210z
" />
    <glyph glyph-name="uni01D2" unicode="&#x1d2;" horiz-adv-x="576" 
d="M395 615h38l-66 -88h-49l-44 88h38l33 -68zM277 -8q-102 0 -159 67.5t-44 170.5t86 170t175 67q103 0 159.5 -67t43.5 -170q-13 -104 -85.5 -171t-175.5 -67zM281 28q86 0 146.5 57t71.5 145t-35.5 144.5t-132.5 56.5t-146.5 -56.5t-71.5 -144.5t36 -145t132 -57z" />
    <glyph glyph-name="uni01D3" unicode="&#x1d3;" horiz-adv-x="614" 
d="M445 798h38l-66 -88h-49l-44 88h38l33 -68zM577 650h40l-53 -427q-12 -102 -84.5 -166.5t-183.5 -64.5q-110 0 -166.5 64t-44.5 167l53 427h39l-52 -424q-11 -90 36 -142.5t140 -52.5t153 52.5t71 142.5z" />
    <glyph glyph-name="uni01D4" unicode="&#x1d4;" horiz-adv-x="519" 
d="M375 615h38l-66 -88h-49l-44 88h38l33 -68zM460 460h37l-56 -460h-37l9 76q-59 -84 -171 -84q-78 0 -126 47.5t-37 135.5l35 285h37l-34 -282q-9 -69 29.5 -110.5t106.5 -41.5t116 41.5t57 110.5z" />
    <glyph glyph-name="Gcaron" unicode="&#x1e6;" horiz-adv-x="752" 
d="M515 798h38l-66 -88h-49l-44 88h38l33 -68zM722 310q-22 -141 -117 -229.5t-234 -88.5q-144 0 -222.5 93.5t-60.5 239.5t119.5 239.5t245.5 93.5q85 0 148.5 -34.5t98.5 -95.5l-37 -22q-66 112 -215 112q-126 0 -215.5 -82.5t-105.5 -210.5t53 -210.5t196 -82.5
q115 0 195.5 70t104.5 185h-270l5 38h313z" />
    <glyph glyph-name="gcaron" unicode="&#x1e7;" 
d="M397 615h38l-66 -88h-49l-44 88h38l33 -68zM528 460h38l-52 -425q-12 -99 -86 -160t-180 -61q-119 0 -177 80l30 22q49 -68 151 -68q87 0 150.5 50.5t73.5 136.5l10 76q-34 -55 -89 -87t-123 -32q-101 0 -157 67.5t-43 170.5t85 170t173 67q68 0 115.5 -31.5t67.5 -86.5z
M147 85q47 -57 134 -57t147.5 56.5t71.5 145.5q11 88 -35.5 144.5t-133.5 56.5t-148 -56.5t-72 -144.5q-11 -89 36 -145z" />
    <glyph glyph-name="uni0218" unicode="&#x218;" horiz-adv-x="595" 
d="M54 134l37 19q13 -58 68 -91t142 -33q198 0 216 148q3 22 -2.5 40.5t-19.5 32t-27.5 23.5t-37 18.5t-36.5 12.5t-38 10.5t-30 7.5q-2 0 -28.5 6.5t-36 9t-35 11t-37 16t-29.5 20.5t-26 27t-13 34.5t-2 43.5q10 82 78.5 126.5t178.5 44.5q87 0 146 -34t70 -89l-37 -16
q-9 44 -60 71.5t-127 27.5q-91 0 -144.5 -34t-61.5 -96q-2 -20 2 -36.5t18.5 -29.5t24.5 -21t35.5 -16.5l34.5 -11.5t39 -9.5t32 -7.5l26 -7q27 -7 36 -10t35.5 -12.5t38.5 -17.5t31 -22.5t27.5 -29.5t14 -36.5t2.5 -45.5q-11 -93 -79 -141t-186 -48q-99 0 -161.5 38.5
t-78.5 106.5zM271 -70h39l-56 -88h-35z" />
    <glyph glyph-name="uni0219" unicode="&#x219;" horiz-adv-x="451" 
d="M47 93l32 14q10 -39 48.5 -61.5t98.5 -22.5q135 0 147 101q2 13 -1.5 24.5t-8.5 20t-16 16t-19.5 12t-23.5 9.5l-22.5 7.5t-22.5 6t-19 4.5q-2 1 -19.5 5t-25 6t-25 8t-26.5 11.5t-21.5 15t-18.5 19.5t-9.5 24.5t-1.5 31.5q7 58 56 90.5t126 32.5q65 0 107 -24t51 -63
l-32 -14q-6 30 -41.5 49.5t-88.5 19.5q-61 0 -98.5 -24t-42.5 -66q-2 -14 1.5 -25t12.5 -20t17 -15t24 -11.5t24 -8t26 -6.5t21 -5q1 0 20 -5t26 -7t25.5 -8.5t27.5 -12.5t23 -16t20 -21t10 -26.5t2 -33.5q-17 -136 -189 -136q-72 0 -117 27.5t-57 76.5zM197 -67h39l-56 -88
h-35z" />
    <glyph glyph-name="uni021A" unicode="&#x21a;" horiz-adv-x="582" 
d="M604 650l-5 -38h-223l-75 -612h-40l75 612h-223l5 38h486zM255 -62h39l-56 -88h-35z" />
    <glyph glyph-name="uni021B" unicode="&#x21b;" horiz-adv-x="300" 
d="M304 428h-118l-41 -330q-4 -32 12 -48.5t46 -16.5h47l-4 -33h-56q-43 0 -66 25t-17 70l41 333h-67l3 32h67l18 139h38l-18 -139h118zM165 -61h39l-56 -88h-35z" />
    <glyph glyph-name="circumflex" unicode="&#x2c6;" horiz-adv-x="199" 
d="M248 562h-38l-33 68l-50 -68h-38l66 88h49z" />
    <glyph glyph-name="caron" unicode="&#x2c7;" horiz-adv-x="199" 
d="M221 650h38l-66 -88h-49l-44 88h38l33 -68z" />
    <glyph glyph-name="breve" unicode="&#x2d8;" horiz-adv-x="190" 
d="M250 650l-1 -3q-4 -34 -28 -55t-55 -21q-32 0 -51.5 21t-15.5 55l1 3h29l-1 -3q-2 -21 9 -34.5t33 -13.5q20 0 34 13.5t16 34.5l1 3h29z" />
    <glyph glyph-name="dotaccent" unicode="&#x2d9;" horiz-adv-x="93" 
d="M120 604q-10 0 -17 7.5t-6 19.5q1 11 10.5 18t19.5 7q11 0 17.5 -7t5.5 -18q-1 -12 -10 -19.5t-20 -7.5z" />
    <glyph glyph-name="ring" unicode="&#x2da;" horiz-adv-x="175" 
d="M155 508q-30 0 -49 20.5t-15 52.5q4 33 27.5 53.5t54.5 20.5t49 -20.5t14 -53.5q-4 -32 -27.5 -52.5t-53.5 -20.5zM159 534q21 0 35 13.5t16 33.5t-8.5 34t-31.5 14q-22 0 -36 -14t-16 -34t8.5 -33.5t32.5 -13.5z" />
    <glyph glyph-name="ogonek" unicode="&#x2db;" horiz-adv-x="116" 
d="M82 -104q-39 -11 -56 2.5t-14 36.5q3 21 19 38.5t34 26.5h28q-47 -31 -50 -61q-2 -13 7 -18t36 4z" />
    <glyph glyph-name="tilde" unicode="&#x2dc;" horiz-adv-x="291" 
d="M91 581q6 33 28.5 54.5t51.5 21.5q36 0 60 -32q20 -27 43 -27q39 0 47 47h29q-5 -34 -26 -55t-53 -21q-35 0 -61 34q-20 25 -43 25q-19 0 -31.5 -13.5t-15.5 -33.5h-29z" />
    <glyph glyph-name="hungarumlaut" unicode="&#x2dd;" horiz-adv-x="241" 
d="M141 650h39l-58 -88h-33zM261 650h40l-59 -88h-33z" />
    <glyph glyph-name="gravecomb" unicode="&#x300;" horiz-adv-x="0" 
d="M20 650l29 -88h-35l-34 88h40z" />
    <glyph glyph-name="acutecomb" unicode="&#x301;" horiz-adv-x="0" 
d="M21 650h39l-55 -88h-36z" />
    <glyph glyph-name="uni0302" unicode="&#x302;" horiz-adv-x="0" 
d="M49 562h-38l-33 68l-50 -68h-38l66 88h49z" />
    <glyph glyph-name="tildecomb" unicode="&#x303;" horiz-adv-x="0" 
d="M-200 581q6 33 28.5 54.5t51.5 21.5q36 0 60 -32q20 -27 43 -27q39 0 47 47h29q-5 -34 -26 -55t-53 -21q-36 0 -61 34q-20 25 -43 25q-19 0 -31.5 -13.5t-15.5 -33.5h-29z" />
    <glyph glyph-name="uni0304" unicode="&#x304;" horiz-adv-x="0" 
d="M-98 650h158l-4 -30h-158z" />
    <glyph glyph-name="uni0306" unicode="&#x306;" horiz-adv-x="0" 
d="M60 650l-1 -3q-4 -33 -28.5 -54.5t-56.5 -21.5t-52 21.5t-16 54.5l1 3h29l-1 -3q-2 -20 9.5 -34t33.5 -14q21 0 35.5 14t16.5 34l1 3h29z" />
    <glyph glyph-name="uni0307" unicode="&#x307;" horiz-adv-x="0" 
d="M27 604q-10 0 -17 7.5t-6 19.5q1 11 10.5 18t19.5 7q11 0 17.5 -7t5.5 -18q-1 -12 -10 -19.5t-20 -7.5z" />
    <glyph glyph-name="uni0308" unicode="&#x308;" horiz-adv-x="0" 
d="M-147 604q-10 0 -17 7.5t-6 19.5q1 11 10.5 18t19.5 7q11 0 17.5 -7t5.5 -18q-1 -12 -10 -19.5t-20 -7.5zM26 604q-10 0 -17 7.5t-6 19.5q1 11 10.5 18t19.5 7q11 0 17.5 -7t5.5 -18q-1 -12 -10 -19.5t-20 -7.5z" />
    <glyph glyph-name="uni030A" unicode="&#x30a;" horiz-adv-x="0" 
d="M27 537q-22 -19 -50 -19t-46 19.5t-14 48.5q4 31 25.5 50t50.5 19q28 0 45.5 -19t13.5 -50q-4 -30 -25 -49zM-20 543q18 0 30.5 13t14.5 30t-7 30t-28 13q-18 0 -31 -13t-15 -30t7.5 -30t28.5 -13z" />
    <glyph glyph-name="uni030B" unicode="&#x30b;" horiz-adv-x="0" 
d="M-100 650h39l-58 -88h-33zM20 650h40l-59 -88h-33z" />
    <glyph glyph-name="uni030C" unicode="&#x30c;" horiz-adv-x="0" 
d="M22 650h38l-66 -88h-49l-44 88h38l33 -68z" />
    <glyph glyph-name="uni0312" unicode="&#x312;" horiz-adv-x="0" 
d="M59 658q-17 -19 -21 -26q18 -6 17 -25q-2 -11 -10.5 -18.5t-19.5 -7.5q-12 0 -18.5 7.5t-4.5 18.5q2 16 32 51h25z" />
    <glyph glyph-name="dotbelowcomb" unicode="&#x323;" horiz-adv-x="0" 
d="M-53 -52q-10 0 -17 7.5t-6 18.5t10 18.5t19 7.5q11 0 18 -7.5t6 -18.5t-10 -18.5t-20 -7.5z" />
    <glyph glyph-name="uni0326" unicode="&#x326;" horiz-adv-x="0" 
d="M-59 0h39l-56 -88h-35z" />
    <glyph glyph-name="uni0327" unicode="&#x327;" horiz-adv-x="0" 
d="M-82 -34q29 -2 42 -16t10 -32q-3 -20 -19.5 -35t-47.5 -15q-24 0 -41 8l3 30q12 -11 41 -11q14 0 24.5 6.5t11.5 16.5q2 10 -8 16.5t-27 6.5t-26 -5l3 26h1l28 38h29z" />
    <glyph glyph-name="uni0328" unicode="&#x328;" horiz-adv-x="0" 
d="M-34 -104q-39 -11 -56.5 2.5t-14.5 36.5q3 21 19 38.5t35 26.5h27q-46 -31 -49 -61q-2 -13 7 -18t36 4z" />
    <glyph glyph-name="uni0331" unicode="&#x331;" horiz-adv-x="0" 
d="M-176 0h156l-4 -30h-156z" />
    <glyph glyph-name="Gamma" unicode="&#x393;" horiz-adv-x="464" 
d="M466 650l-5 -38h-289l-75 -612h-39l80 650h328z" />
    <glyph glyph-name="uni0394" unicode="&#x394;" horiz-adv-x="662" 
d="M417 650l173 -613l-5 -37h-527l5 37l322 613h32zM106 37h440l-154 553z" />
    <glyph glyph-name="Sigma" unicode="&#x3a3;" horiz-adv-x="596" 
d="M598 650l-5 -38h-399l252 -290l-321 -284h398l-5 -38h-460l4 34l329 288l-257 295l4 33h460z" />
    <glyph glyph-name="Phi" unicode="&#x3a6;" horiz-adv-x="784" 
d="M746 326q-15 -124 -105 -190t-233 -70l-8 -67h-36l8 67q-141 5 -215 71t-59 189q15 122 105 188t233 71l8 66h36l-8 -66q141 -4 215 -70t59 -189zM137 326q-13 -103 50.5 -159t189.5 -61l54 439q-127 -5 -204 -60.5t-90 -158.5zM413 106q128 4 204.5 60t89.5 160
q13 103 -50.5 159t-189.5 60z" />
    <glyph glyph-name="Psi" unicode="&#x3a8;" horiz-adv-x="687" 
d="M650 650h39l-24 -197q-32 -261 -291 -269l-23 -184h-36l23 184q-256 10 -224 270l24 196h39l-24 -196q-15 -120 33.5 -174t155.5 -58l53 428h36l-53 -428q109 4 171 58t77 174z" />
    <glyph glyph-name="uni03A9" unicode="&#x3a9;" horiz-adv-x="786" 
d="M550 42h164l-5 -38h-253l5 39q98 30 166 107.5t80 175.5q15 126 -52 209.5t-195 83.5t-217 -84t-104 -209q-12 -98 36.5 -174.5t139.5 -106.5l-6 -41h-251l5 38h166q-69 44 -105 118t-24 165q18 146 119.5 239.5t245.5 93.5t221.5 -93.5t59.5 -239.5q-11 -91 -64 -164.5
t-132 -118.5z" />
    <glyph glyph-name="uni1E04" unicode="&#x1e04;" horiz-adv-x="603" 
d="M483 338q49 -18 74.5 -60.5t18.5 -101.5q-10 -77 -66.5 -126.5t-132.5 -49.5h-319l80 650h296q77 0 121 -45.5t34 -121.5q-12 -104 -106 -145zM172 612l-32 -260h253q64 0 106.5 35.5t49.5 94.5q8 58 -26.5 94t-97.5 36h-253zM378 38q63 0 106.5 40t51.5 99
q7 60 -27 99.5t-97 39.5h-276l-34 -278h276zM253 -108q-10 0 -17 7.5t-6 18.5t10 18.5t19 7.5q11 0 18 -7.5t6 -18.5t-10 -18.5t-20 -7.5z" />
    <glyph glyph-name="uni1E05" unicode="&#x1e05;" 
d="M349 467q101 0 157 -67t43 -170t-85 -170.5t-173 -67.5q-68 0 -115 32t-67 87l-14 -111h-37l80 650h37l-37 -301q34 55 88.5 86.5t122.5 31.5zM159 85q46 -57 133 -57t148 57t72 145t-36 144.5t-134 56.5t-147.5 -56t-71.5 -145t36 -145zM277 -116q-10 0 -17 7.5t-6 18.5
t10 18.5t19 7.5q11 0 18 -7.5t6 -18.5t-10 -18.5t-20 -7.5z" />
    <glyph glyph-name="uni1E0C" unicode="&#x1e0c;" horiz-adv-x="648" 
d="M344 650q144 0 222 -90t60 -235t-118 -235t-244 -90h-206l80 650h206zM269 39q123 0 212 78t105 208t-53.5 208t-193.5 78h-167l-70 -572h167zM245 -108q-10 0 -17 7.5t-6 18.5t10 18.5t19 7.5q11 0 18 -7.5t6 -18.5t-10 -18.5t-20 -7.5z" />
    <glyph glyph-name="uni1E0D" unicode="&#x1e0d;" 
d="M552 650h38l-80 -650h-38l14 111q-34 -55 -89 -87t-123 -32q-101 0 -157 67.5t-43 170.5t85 170t173 67q68 0 115.5 -31.5t67.5 -86.5zM281 28q88 0 148 56.5t71 145.5t-35 145t-134 56q-87 0 -148 -56.5t-72 -144.5q-11 -89 36 -145.5t134 -56.5zM266 -116
q-10 0 -17 7.5t-6 18.5t10 18.5t19 7.5q11 0 18 -7.5t6 -18.5t-10 -18.5t-20 -7.5z" />
    <glyph glyph-name="uni1E24" unicode="&#x1e24;" horiz-adv-x="617" 
d="M579 650h40l-80 -650h-40l37 305h-402l-37 -305h-39l80 650h39l-38 -306h402zM282 -107q-10 0 -17 7.5t-6 18.5t10 18.5t19 7.5q11 0 18 -7.5t6 -18.5t-10 -18.5t-20 -7.5z" />
    <glyph glyph-name="uni1E25" unicode="&#x1e25;" horiz-adv-x="519" 
d="M313 467q79 0 126.5 -47.5t36.5 -135.5l-35 -284h-37l35 281q8 69 -30.5 110.5t-106.5 41.5t-116 -41.5t-56 -110.5l-35 -281h-37l80 650h37l-33 -267q59 84 171 84zM245 -108q-10 0 -17 7.5t-6 18.5t10 18.5t19 7.5q11 0 18 -7.5t6 -18.5t-10 -18.5t-20 -7.5z" />
    <glyph glyph-name="uni1E36" unicode="&#x1e36;" horiz-adv-x="521" 
d="M102 38h367l-5 -38h-406l80 650h39zM248 -108q-10 0 -17 7.5t-6 18.5t10 18.5t19 7.5q11 0 18 -7.5t6 -18.5t-10 -18.5t-20 -7.5z" />
    <glyph glyph-name="uni1E37" unicode="&#x1e37;" horiz-adv-x="173" 
d="M95 0h-37l80 650h37zM63 -108q-10 0 -17 7.5t-6 18.5t10 18.5t19 7.5q11 0 18 -7.5t6 -18.5t-10 -18.5t-20 -7.5z" />
    <glyph glyph-name="uni1E3E" unicode="&#x1e3e;" horiz-adv-x="733" 
d="M478 798h39l-55 -88h-36zM736 650l-80 -650h-40l71 579l-306 -496h-28l-185 496l-71 -579h-39l80 650h46l191 -503l315 503h46z" />
    <glyph glyph-name="uni1E3F" unicode="&#x1e3f;" horiz-adv-x="810" 
d="M493 617h39l-55 -88h-36zM618 467q74 0 117.5 -45t32.5 -138l-35 -284h-38l35 282q9 73 -25.5 111.5t-97.5 38.5t-106 -38.5t-52 -111.5l-35 -282h-38l35 282q9 72 -25 111t-97 39t-106.5 -38.5t-52.5 -111.5l-35 -282h-37l56 460h37l-8 -71q53 78 156 78q54 0 93.5 -25
t52.5 -76q27 51 73 76t100 25z" />
    <glyph glyph-name="uni1E44" unicode="&#x1e44;" horiz-adv-x="616" 
d="M394 707q-10 0 -17 7.5t-6 19.5q1 11 10.5 18t19.5 7q11 0 17.5 -7t5.5 -18q-1 -12 -10 -19.5t-20 -7.5zM579 650h40l-80 -650h-39l-330 583l-72 -583h-40l80 650h39l330 -581z" />
    <glyph glyph-name="uni1E45" unicode="&#x1e45;" horiz-adv-x="519" 
d="M313 524q-10 0 -17 7.5t-6 19.5q1 11 10.5 18t19.5 7q11 0 17.5 -7t5.5 -18q-1 -12 -10 -19.5t-20 -7.5zM313 467q79 0 126.5 -47.5t36.5 -135.5l-35 -284h-37l35 281q8 69 -30.5 110.5t-106.5 41.5t-116 -41.5t-56 -110.5l-35 -281h-37l56 460h37l-9 -77q59 84 171 84z
" />
    <glyph glyph-name="uni1E46" unicode="&#x1e46;" horiz-adv-x="616" 
d="M579 650h40l-80 -650h-39l-330 583l-72 -583h-40l80 650h39l330 -581zM295 -108q-10 0 -17 7.5t-6 18.5t10 18.5t19 7.5q11 0 18 -7.5t6 -18.5t-10 -18.5t-20 -7.5z" />
    <glyph glyph-name="uni1E47" unicode="&#x1e47;" horiz-adv-x="519" 
d="M313 467q79 0 126.5 -47.5t36.5 -135.5l-35 -284h-37l35 281q8 69 -30.5 110.5t-106.5 41.5t-116 -41.5t-56 -110.5l-35 -281h-37l56 460h37l-9 -77q59 84 171 84zM236 -108q-10 0 -17 7.5t-6 18.5t10 18.5t19 7.5q11 0 18 -7.5t6 -18.5t-10 -18.5t-20 -7.5z" />
    <glyph glyph-name="uni1E62" unicode="&#x1e62;" horiz-adv-x="595" 
d="M54 134l37 19q13 -58 68 -91t142 -33q198 0 216 148q3 22 -2.5 40.5t-19.5 32t-27.5 23.5t-37 18.5t-36.5 12.5t-38 10.5t-30 7.5q-2 0 -28.5 6.5t-36 9t-35 11t-37 16t-29.5 20.5t-26 27t-13 34.5t-2 43.5q10 82 78.5 126.5t178.5 44.5q87 0 146 -34t70 -89l-37 -16
q-9 44 -60 71.5t-127 27.5q-91 0 -144.5 -34t-61.5 -96q-2 -20 2 -36.5t18.5 -29.5t24.5 -21t35.5 -16.5l34.5 -11.5t39 -9.5t32 -7.5l26 -7q27 -7 36 -10t35.5 -12.5t38.5 -17.5t31 -22.5t27.5 -29.5t14 -36.5t2.5 -45.5q-11 -93 -79 -141t-186 -48q-99 0 -161.5 38.5
t-78.5 106.5zM284 -114q-10 0 -17 7.5t-6 18.5t10 18.5t19 7.5q11 0 18 -7.5t6 -18.5t-10 -18.5t-20 -7.5z" />
    <glyph glyph-name="uni1E6C" unicode="&#x1e6c;" horiz-adv-x="582" 
d="M604 650l-5 -38h-223l-75 -612h-40l75 612h-223l5 38h486zM268 -106q-10 0 -17 7.5t-6 18.5t10 18.5t19 7.5q11 0 18 -7.5t6 -18.5t-10 -18.5t-20 -7.5z" />
    <glyph glyph-name="uni1E6D" unicode="&#x1e6d;" horiz-adv-x="300" 
d="M304 428h-118l-41 -330q-4 -32 12 -48.5t46 -16.5h47l-4 -33h-56q-43 0 -66 25t-17 70l41 333h-67l3 32h67l18 139h38l-18 -139h118zM178 -105q-10 0 -17 7.5t-6 18.5t10 18.5t19 7.5q11 0 18 -7.5t6 -18.5t-10 -18.5t-20 -7.5z" />
    <glyph glyph-name="Wgrave" unicode="&#x1e80;" horiz-adv-x="943" 
d="M543 798l29 -88h-35l-34 88h40zM942 650h43l-297 -650h-33l-119 567l-259 -567h-32l-137 650h42l120 -573l262 573h30l120 -571z" />
    <glyph glyph-name="wgrave" unicode="&#x1e81;" horiz-adv-x="713" 
d="M401 615l29 -88h-35l-34 88h40zM691 460h40l-213 -460h-39l-84 389l-183 -389h-39l-99 460h39l88 -407l189 407h25l89 -407z" />
    <glyph glyph-name="Wacute" unicode="&#x1e82;" horiz-adv-x="943" 
d="M586 798h39l-55 -88h-36zM942 650h43l-297 -650h-33l-119 567l-259 -567h-32l-137 650h42l120 -573l262 573h30l120 -571z" />
    <glyph glyph-name="wacute" unicode="&#x1e83;" horiz-adv-x="713" 
d="M444 615h39l-55 -88h-36zM691 460h40l-213 -460h-39l-84 389l-183 -389h-39l-99 460h39l88 -407l189 407h25l89 -407z" />
    <glyph glyph-name="Wdieresis" unicode="&#x1e84;" horiz-adv-x="943" 
d="M465 707q-10 0 -17 7.5t-6 19.5q1 11 10.5 18t19.5 7q11 0 17.5 -7t5.5 -18q-1 -12 -10 -19.5t-20 -7.5zM638 707q-10 0 -17 7.5t-6 19.5q1 11 10.5 18t19.5 7q11 0 17.5 -7t5.5 -18q-1 -12 -10 -19.5t-20 -7.5zM942 650h43l-297 -650h-33l-119 567l-259 -567h-32
l-137 650h42l120 -573l262 573h30l120 -571z" />
    <glyph glyph-name="wdieresis" unicode="&#x1e85;" horiz-adv-x="713" 
d="M323 524q-10 0 -17 7.5t-6 19.5q1 11 10.5 18t19.5 7q11 0 17.5 -7t5.5 -18q-1 -12 -10 -19.5t-20 -7.5zM496 524q-10 0 -17 7.5t-6 19.5q1 11 10.5 18t19.5 7q11 0 17.5 -7t5.5 -18q-1 -12 -10 -19.5t-20 -7.5zM691 460h40l-213 -460h-39l-84 389l-183 -389h-39l-99 460
h39l88 -407l189 407h25l89 -407z" />
    <glyph glyph-name="uni1E92" unicode="&#x1e92;" horiz-adv-x="537" 
d="M555 614l-455 -576h377l-5 -38h-424l4 36l455 576h-378l5 38h426zM254 -108q-10 0 -17 7.5t-6 18.5t10 18.5t19 7.5q11 0 18 -7.5t6 -18.5t-10 -18.5t-20 -7.5z" />
    <glyph glyph-name="uni1E93" unicode="&#x1e93;" horiz-adv-x="433" 
d="M432 460l-3 -32l-341 -394h286l-4 -34h-332l4 31l340 395h-286l4 34h332zM194 -108q-10 0 -17 7.5t-6 18.5t10 18.5t19 7.5q11 0 18 -7.5t6 -18.5t-10 -18.5t-20 -7.5z" />
    <glyph glyph-name="uni1EA0" unicode="&#x1ea0;" horiz-adv-x="636" 
d="M556 0l-57 195h-324l-105 -195h-42l349 650h32l189 -650h-42zM195 233h294l-104 355zM305 -108q-10 0 -17 7.5t-6 18.5t10 18.5t19 7.5q11 0 18 -7.5t6 -18.5t-10 -18.5t-20 -7.5z" />
    <glyph glyph-name="uni1EA1" unicode="&#x1ea1;" 
d="M528 460h38l-56 -460h-38l14 111q-34 -55 -89 -87t-123 -32q-101 0 -157 67.5t-43 170.5t85 170t173 67q68 0 115.5 -31.5t67.5 -86.5zM281 28q88 0 148 56.5t71 145.5t-35 145t-134 56q-87 0 -148 -56.5t-72 -144.5q-11 -89 36 -145.5t134 -56.5zM279 -111
q-10 0 -17 7.5t-6 18.5t10 18.5t19 7.5q11 0 18 -7.5t6 -18.5t-10 -18.5t-20 -7.5z" />
    <glyph glyph-name="uni1EB8" unicode="&#x1eb8;" horiz-adv-x="538" 
d="M541 612h-369l-33 -269h348l-5 -38h-348l-32 -267h369l-5 -38h-408l80 650h408zM256 -106q-10 0 -17 7.5t-6 18.5t10 18.5t19 7.5q11 0 18 -7.5t6 -18.5t-10 -18.5t-20 -7.5z" />
    <glyph glyph-name="uni1EB9" unicode="&#x1eb9;" horiz-adv-x="558" 
d="M329 467q96 0 149.5 -67t40.5 -170l-2 -15h-408q-5 -85 42 -137t130 -52q109 0 174 83l26 -19q-76 -98 -204 -98q-103 0 -159.5 67t-43.5 171t83 170.5t172 66.5zM325 434q-83 0 -140 -52t-72 -137h373q6 83 -38.5 136t-122.5 53zM263 -113q-10 0 -17 7.5t-6 18.5
t10 18.5t19 7.5q11 0 18 -7.5t6 -18.5t-10 -18.5t-20 -7.5z" />
    <glyph glyph-name="uni1EBC" unicode="&#x1ebc;" horiz-adv-x="538" 
d="M230 710q6 33 28.5 54.5t51.5 21.5q36 0 60 -32q20 -27 43 -27q39 0 47 47h29q-5 -34 -26 -55t-53 -21q-36 0 -61 34q-20 25 -43 25q-19 0 -31.5 -13.5t-15.5 -33.5h-29zM541 612h-369l-33 -269h348l-5 -38h-348l-32 -267h369l-5 -38h-408l80 650h408z" />
    <glyph glyph-name="uni1EBD" unicode="&#x1ebd;" horiz-adv-x="558" 
d="M211 527q6 33 28.5 54.5t51.5 21.5q36 0 60 -32q20 -27 43 -27q39 0 47 47h29q-5 -34 -26 -55t-53 -21q-35 0 -61 34q-20 25 -43 25q-19 0 -31.5 -13.5t-15.5 -33.5h-29zM329 467q96 0 149.5 -67t40.5 -170l-2 -15h-408q-5 -85 42 -137t130 -52q109 0 174 83l26 -19
q-76 -98 -204 -98q-103 0 -159.5 67t-43.5 171t83 170.5t172 66.5zM325 434q-83 0 -140 -52t-72 -137h373q6 83 -38.5 136t-122.5 53z" />
    <glyph glyph-name="uni1ECA" unicode="&#x1eca;" horiz-adv-x="175" 
d="M97 0h-39l80 650h39zM64 -108q-10 0 -17 7.5t-6 18.5t10 18.5t19 7.5q11 0 18 -7.5t6 -18.5t-10 -18.5t-20 -7.5z" />
    <glyph glyph-name="uni1ECB" unicode="&#x1ecb;" horiz-adv-x="191" 
d="M178 586q-10 -8 -21 -8t-18.5 8t-6.5 20t10.5 20t21.5 8q11 0 18 -8t6 -20t-10 -20zM104 0h-37l56 460h38zM72 -116q-10 0 -17 7.5t-6 18.5t10 18.5t19 7.5q11 0 18 -7.5t6 -18.5t-10 -18.5t-20 -7.5z" />
    <glyph glyph-name="uni1ECC" unicode="&#x1ecc;" horiz-adv-x="757" 
d="M616 86q-101 -94 -245 -94t-222.5 93.5t-60.5 239.5t119.5 239.5t245.5 93.5t222 -93.5t60 -239.5t-119 -239zM180 115q69 -83 196 -83t215 82.5t104 210.5t-52 210.5t-195 82.5q-126 0 -215.5 -82.5t-105.5 -210.5t53 -210zM358 -116q-10 0 -17 7.5t-6 18.5t10 18.5
t19 7.5q11 0 18 -7.5t6 -18.5t-10 -18.5t-20 -7.5z" />
    <glyph glyph-name="uni1ECD" unicode="&#x1ecd;" horiz-adv-x="576" 
d="M277 -8q-102 0 -159 67.5t-44 170.5t86 170t175 67q103 0 159.5 -67t43.5 -170q-13 -104 -85.5 -171t-175.5 -67zM281 28q86 0 146.5 57t71.5 145t-35.5 144.5t-132.5 56.5t-146.5 -56.5t-71.5 -144.5t36 -145t132 -57zM264 -116q-10 0 -17 7.5t-6 18.5t10 18.5t19 7.5
q11 0 18 -7.5t6 -18.5t-10 -18.5t-20 -7.5z" />
    <glyph glyph-name="uni1EE4" unicode="&#x1ee4;" horiz-adv-x="614" 
d="M577 650h40l-53 -427q-12 -102 -84.5 -166.5t-183.5 -64.5q-110 0 -166.5 64t-44.5 167l53 427h39l-52 -424q-11 -90 36 -142.5t140 -52.5t153 52.5t71 142.5zM284 -108q-10 0 -17 7.5t-6 18.5t10 18.5t19 7.5q11 0 18 -7.5t6 -18.5t-10 -18.5t-20 -7.5z" />
    <glyph glyph-name="uni1EE5" unicode="&#x1ee5;" horiz-adv-x="519" 
d="M460 460h37l-56 -460h-37l9 76q-59 -84 -171 -84q-78 0 -126 47.5t-37 135.5l35 285h37l-34 -282q-9 -69 29.5 -110.5t106.5 -41.5t116 41.5t57 110.5zM236 -115q-10 0 -17 7.5t-6 18.5t10 18.5t19 7.5q11 0 18 -7.5t6 -18.5t-10 -18.5t-20 -7.5z" />
    <glyph glyph-name="Ygrave" unicode="&#x1ef2;" horiz-adv-x="563" 
d="M349 798l29 -88h-35l-34 88h40zM606 650l-278 -359l-36 -291h-39l35 289l-190 361h47l168 -318l246 318h47z" />
    <glyph glyph-name="ygrave" unicode="&#x1ef3;" horiz-adv-x="454" 
d="M269 615l29 -88h-35l-34 88h40zM432 460h40l-335 -644h-38l96 185l-125 459h39l111 -408z" />
    <glyph glyph-name="uni1EF4" unicode="&#x1ef4;" horiz-adv-x="563" 
d="M606 650l-278 -359l-36 -291h-39l35 289l-190 361h47l168 -318l246 318h47zM259 -108q-10 0 -17 7.5t-6 18.5t10 18.5t19 7.5q11 0 18 -7.5t6 -18.5t-10 -18.5t-20 -7.5z" />
    <glyph glyph-name="uni1EF5" unicode="&#x1ef5;" horiz-adv-x="454" 
d="M432 460h40l-335 -644h-38l96 185l-125 459h39l111 -408zM242 -167q-10 0 -17 7.5t-6 18.5t10 18.5t19 7.5q11 0 18 -7.5t6 -18.5t-10 -18.5t-20 -7.5z" />
    <glyph glyph-name="uni1EF8" unicode="&#x1ef8;" horiz-adv-x="563" 
d="M233 710q6 33 28.5 54.5t51.5 21.5q36 0 60 -32q20 -27 43 -27q39 0 47 47h29q-5 -34 -26 -55t-53 -21q-35 0 -61 34q-20 25 -43 25q-19 0 -31.5 -13.5t-15.5 -33.5h-29zM606 650l-278 -359l-36 -291h-39l35 289l-190 361h47l168 -318l246 318h47z" />
    <glyph glyph-name="uni1EF9" unicode="&#x1ef9;" horiz-adv-x="454" 
d="M153 527q6 33 28.5 54.5t51.5 21.5q36 0 60 -32q20 -27 43 -27q39 0 47 47h29q-5 -34 -26 -55t-53 -21q-35 0 -61 34q-20 25 -43 25q-19 0 -31.5 -13.5t-15.5 -33.5h-29zM432 460h40l-335 -644h-38l96 185l-125 459h39l111 -408z" />
    <glyph glyph-name="endash" unicode="&#x2013;" horiz-adv-x="493" 
d="M98 325h358l-5 -38h-358z" />
    <glyph glyph-name="emdash" unicode="&#x2014;" horiz-adv-x="663" 
d="M98 324h527l-5 -38h-527z" />
    <glyph glyph-name="quoteleft" unicode="&#x2018;" horiz-adv-x="147" 
d="M157 551h-51l50 99h33z" />
    <glyph glyph-name="quoteright" unicode="&#x2019;" horiz-adv-x="147" 
d="M138 650h51l-50 -99h-33z" />
    <glyph glyph-name="quotesinglbase" unicode="&#x201a;" horiz-adv-x="147" 
d="M64 45h51l-50 -94h-33z" />
    <glyph glyph-name="quotedblleft" unicode="&#x201c;" horiz-adv-x="279" 
d="M157 551h-51l50 99h33zM289 551h-51l50 99h33z" />
    <glyph glyph-name="quotedblright" unicode="&#x201d;" horiz-adv-x="279" 
d="M138 650h51l-50 -99h-33zM270 650h51l-50 -99h-33z" />
    <glyph glyph-name="quotedblbase" unicode="&#x201e;" horiz-adv-x="279" 
d="M64 45h51l-51 -99h-33zM196 45h51l-51 -99h-33z" />
    <glyph glyph-name="dagger" unicode="&#x2020;" horiz-adv-x="414" 
d="M393 467l-4 -34h-120l-53 -433h-38l53 433h-120l4 34h120l23 183h38l-23 -183h120z" />
    <glyph glyph-name="daggerdbl" unicode="&#x2021;" horiz-adv-x="414" 
d="M388 422h-120l-23 -187h120l-4 -34h-120l-25 -201h-38l25 201h-120l4 34h120l23 187h-120l4 34h120l24 194h38l-24 -194h120z" />
    <glyph glyph-name="bullet" unicode="&#x2022;" horiz-adv-x="169" 
d="M118 278q-19 0 -30.5 13.5t-9.5 33.5t17.5 33.5t34.5 13.5q20 0 31.5 -13.5t9.5 -33.5t-17.5 -33.5t-35.5 -13.5z" />
    <glyph glyph-name="ellipsis" unicode="&#x2026;" horiz-adv-x="454" 
d="M65 -1q-11 0 -18 8t-6 20q1 11 10.5 19t20.5 8q12 0 19 -8t5 -19q-2 -12 -10.5 -20t-20.5 -8zM230 -1q-11 0 -18 8t-6 20q1 11 10.5 19t20.5 8q12 0 19 -8t5 -19q-2 -12 -10.5 -20t-20.5 -8zM389 -1q-11 0 -18 8t-6 20q1 11 10.5 19t20.5 8q12 0 19 -8t5 -19
q-2 -12 -10.5 -20t-20.5 -8z" />
    <glyph glyph-name="perthousand" unicode="&#x2030;" horiz-adv-x="1161" 
d="M240 369q-59 0 -93 39.5t-26 101.5q7 62 51 101.5t103 39.5t93 -39.5t27 -101.5q-8 -62 -52 -101.5t-103 -39.5zM232 0h-38l431 650h38zM244 401q46 0 79.5 30.5t39.5 78.5t-20 78.5t-72 30.5q-45 0 -78.5 -30.5t-39.5 -78.5t20 -78.5t71 -30.5zM582 -1q-60 0 -94 39.5
t-27 101.5q8 62 52 101.5t104 39.5q59 0 93 -39.5t26 -101.5q-7 -62 -51.5 -101.5t-102.5 -39.5zM947 -1q-60 0 -94 39.5t-27 101.5q8 62 52 101.5t104 39.5q59 0 92.5 -39.5t25.5 -101.5q-7 -62 -51 -101.5t-102 -39.5zM586 31q45 0 78.5 30.5t39.5 78.5t-20 78.5t-71 30.5
q-46 0 -80 -30.5t-40 -78.5t20.5 -78.5t72.5 -30.5zM951 31q45 0 78 30.5t39 78.5t-19.5 78.5t-70.5 30.5q-46 0 -80 -30.5t-40 -78.5t20.5 -78.5t72.5 -30.5z" />
    <glyph glyph-name="guilsinglleft" unicode="&#x2039;" horiz-adv-x="316" 
d="M276 135h-49l-150 186l195 186h49l-194 -186z" />
    <glyph glyph-name="guilsinglright" unicode="&#x203a;" horiz-adv-x="316" 
d="M55 135l193 186l-148 186h49l149 -186l-194 -186h-49z" />
    <glyph glyph-name="fraction" unicode="&#x2044;" horiz-adv-x="463" 
d="M42 0h-22l481 650h22z" />
    <glyph glyph-name="uni2070" unicode="&#x2070;" horiz-adv-x="418" 
d="M236 253q-73 0 -108 56t-24 146q12 91 60 147t121 56t108 -56t24 -147q-12 -90 -60 -146t-121 -56zM239 277q62 0 103 49t50 129q10 81 -19 129.5t-91 48.5t-103 -49t-51 -129t19.5 -129t91.5 -49z" />
    <glyph glyph-name="uni2074" unicode="&#x2074;" horiz-adv-x="369" 
d="M367 370l-2 -21h-47l-11 -91h-25l12 91h-213l2 20l248 281h24l-34 -280h46zM110 370h186l31 246z" />
    <glyph glyph-name="uni2075" unicode="&#x2075;" horiz-adv-x="360" 
d="M224 511q64 0 96 -35.5t26 -89.5q-8 -59 -49 -94t-103 -35q-83 0 -118 56l20 15q30 -48 100 -48q54 1 87 30t38 76q6 46 -21.5 75t-78.5 29q-56 0 -88 -20l-8 18l45 166h192l-3 -23h-172l-35 -131q36 11 72 11z" />
    <glyph glyph-name="uni2076" unicode="&#x2076;" horiz-adv-x="374" 
d="M245 524q57 0 90 -38t26 -98q-8 -60 -50 -98t-99 -38t-90 38.5t-26 97.5q5 43 34 82l146 180h28l-110 -135q26 9 51 9zM215 276q46 0 80.5 31t41.5 81q6 50 -21 81.5t-73 31.5q-48 0 -83 -31.5t-41 -81.5t21.5 -81t74.5 -31z" />
    <glyph glyph-name="uni2077" unicode="&#x2077;" horiz-adv-x="304" 
d="M92 258l215 369h-200l3 22h227l-2 -19l-218 -372h-25z" />
    <glyph glyph-name="uni2078" unicode="&#x2078;" horiz-adv-x="375" 
d="M296 461q34 -12 50 -39t12 -60q-6 -50 -44 -80t-102 -30t-94.5 30t-24.5 80q9 73 86 99q-64 23 -57 92q5 42 41.5 72t97.5 30q62 0 90.5 -30t23.5 -72q-9 -69 -79 -92zM145 553q-4 -37 19 -59t75 -22q53 0 81 22t32 59q4 33 -19 57t-75 24q-51 0 -80 -24t-33 -57z
M214 274q54 0 84.5 24t35.5 65q5 38 -20 63t-78 25q-52 0 -83.5 -25t-36.5 -63q-5 -41 20 -65t78 -24z" />
    <glyph glyph-name="uni2079" unicode="&#x2079;" horiz-adv-x="374" 
d="M376 519q-5 -46 -40 -88l-137 -174h-28l107 135q-24 -9 -51 -9q-56 0 -89 38t-26 98q7 59 49.5 97.5t99.5 38.5t89.5 -38.5t25.5 -97.5zM135 519q-6 -50 21 -81.5t74 -31.5t81.5 31.5t41.5 81.5q6 50 -21.5 81t-73.5 31q-48 0 -82.5 -31t-40.5 -81z" />
    <glyph glyph-name="Euro" unicode="&#x20ac;" horiz-adv-x="599" 
d="M549 620q-96 0 -169 -50t-109 -138h251l-4 -29h-258q-12 -41 -16 -78q-5 -49 -3 -78h258l-3 -29h-251q15 -88 75.5 -138t156.5 -50q39 0 49 1l-5 -38q-10 -1 -53 -1q-113 0 -181.5 61t-81.5 165h-120l3 29h114q-2 30 3 78q5 43 16 78h-114l4 29h120q39 104 122.5 165
t196.5 61q43 0 53 -1l-5 -38q-10 1 -49 1z" />
    <glyph glyph-name="trademark" unicode="&#x2122;" horiz-adv-x="1315" 
d="M604 650l-5 -38h-223l-75 -612h-40l75 612h-223l5 38h486zM1318 650l-80 -650h-40l71 579l-306 -496h-28l-185 496l-71 -579h-39l80 650h46l191 -503l315 503h46z" />
    <glyph glyph-name="oneeighth" unicode="&#x215b;" horiz-adv-x="528" 
d="M41 0h-22l481 650h22zM196 650l-40 -328h-20l38 309h-78l3 19h97zM469 166q58 -19 51 -81q-5 -41 -36 -65.5t-84 -24.5q-52 0 -77.5 25t-20.5 65q9 62 71 81q-53 19 -46 76q4 35 33.5 59.5t80.5 24.5t74 -24.5t19 -59.5q-7 -58 -65 -76zM346 242q-4 -30 15 -48.5
t62 -18.5t66 18.5t26 48.5q3 28 -15.5 47.5t-61.5 19.5q-42 0 -66 -20t-26 -47zM402 13q44 0 69.5 20t29.5 53q4 31 -16.5 51.5t-64.5 20.5q-43 0 -68.5 -20.5t-29.5 -51.5q-4 -33 16 -53t64 -20z" />
    <glyph glyph-name="threeeighths" unicode="&#x215c;" horiz-adv-x="596" 
d="M187 530q47 0 76.5 -27t23.5 -76q-6 -48 -42 -76.5t-84 -28.5q-32 0 -58.5 12.5t-38.5 34.5l17 12q23 -40 83 -40q39 0 69 23.5t34 62.5q5 40 -18.5 62.5t-63.5 22.5q-35 0 -59 -10l3 18l147 111h-157l3 19h186l-2 -18l-135 -102h16zM108 0h-22l481 650h22zM537 166
q58 -19 51 -81q-5 -41 -36 -65.5t-84 -24.5q-52 0 -77.5 25t-20.5 65q9 62 71 81q-53 19 -46 76q4 35 33.5 59.5t80.5 24.5t74 -24.5t19 -59.5q-7 -58 -65 -76zM414 242q-4 -30 15 -48.5t62 -18.5t66 18.5t26 48.5q3 28 -15.5 47.5t-61.5 19.5q-42 0 -66 -20t-26 -47z
M470 13q44 0 69.5 20t29.5 53q4 31 -16.5 51.5t-64.5 20.5q-43 0 -68.5 -20.5t-29.5 -51.5q-4 -33 16 -53t64 -20z" />
    <glyph glyph-name="fiveeighths" unicode="&#x215d;" horiz-adv-x="610" 
d="M188 535q54 0 81 -29.5t22 -75.5q-6 -49 -41 -78.5t-87 -29.5q-69 0 -99 47l18 13q24 -41 83 -41q45 1 73 25.5t33 63.5t-18.5 63.5t-66.5 24.5t-74 -17l-7 15l38 139h162l-3 -19h-144l-30 -110q29 9 60 9zM118 0h-22l481 650h22zM551 166q58 -19 51 -81
q-5 -41 -36 -65.5t-84 -24.5q-52 0 -77.5 25t-20.5 65q9 62 71 81q-53 19 -46 76q4 35 33.5 59.5t80.5 24.5t74 -24.5t19 -59.5q-7 -58 -65 -76zM428 242q-4 -30 15 -48.5t62 -18.5t66 18.5t26 48.5q3 28 -15.5 47.5t-61.5 19.5q-42 0 -66 -20t-26 -47zM484 13q44 0 69.5 20
t29.5 53q4 31 -16.5 51.5t-64.5 20.5q-43 0 -68.5 -20.5t-29.5 -51.5q-4 -33 16 -53t64 -20z" />
    <glyph glyph-name="seveneighths" unicode="&#x215e;" horiz-adv-x="543" 
d="M41 0h-22l481 650h22zM108 323l180 308h-168l3 19h190l-2 -16l-182 -311h-21zM483 166q58 -19 51 -81q-5 -41 -36 -65.5t-84 -24.5q-52 0 -77.5 25t-20.5 65q9 62 71 81q-53 19 -46 76q4 35 33.5 59.5t80.5 24.5t74 -24.5t19 -59.5q-7 -58 -65 -76zM360 242
q-4 -30 15 -48.5t62 -18.5t66 18.5t26 48.5q3 28 -15.5 47.5t-61.5 19.5q-42 0 -66 -20t-26 -47zM416 13q44 0 69.5 20t29.5 53q4 31 -16.5 51.5t-64.5 20.5q-43 0 -68.5 -20.5t-29.5 -51.5q-4 -33 16 -53t64 -20z" />
    <glyph glyph-name="arrowleft" unicode="&#x2190;" horiz-adv-x="760" 
d="M724 340l-5 -38h-553l171 -195l-29 -25l-210 240l269 240l23 -25l-221 -197h555z" />
    <glyph glyph-name="arrowup" unicode="&#x2191;" horiz-adv-x="615" 
d="M586 395l-28 -26l-173 196l-68 -555h-38l68 553l-219 -195l-22 26l270 240z" />
    <glyph glyph-name="arrowright" unicode="&#x2192;" horiz-adv-x="760" 
d="M511 562l211 -240l-270 -240l-23 25l219 195h-553l5 38h555l-173 197z" />
    <glyph glyph-name="arrowdown" unicode="&#x2193;" horiz-adv-x="615" 
d="M547 275l22 -26l-270 -239l-210 240l28 26l171 -195l68 553h38l-68 -555z" />
    <glyph glyph-name="arrowboth" unicode="&#x2194;" horiz-adv-x="900" 
d="M677 562l212 -240l-271 -240l-22 25l219 195h-658l171 -195l-29 -25l-210 240l269 240l23 -25l-221 -197h662l-173 197z" />
    <glyph glyph-name="arrowupdn" unicode="&#x2195;" horiz-adv-x="610" 
d="M559 220l-266 -238l-208 237l28 26l169 -191l66 542l-215 -192l-22 26l266 237l208 -237l-28 -26l-171 194l-67 -546l218 194z" />
    <glyph glyph-name="uni2196" unicode="&#x2196;" horiz-adv-x="596" 
d="M545 215l-30 -27l-349 397l-34 -275h-36l42 340h340l-5 -36h-278z" />
    <glyph glyph-name="uni2197" unicode="&#x2197;" horiz-adv-x="596" 
d="M259 650h340l-42 -340h-36l34 276l-447 -398l-24 27l447 399h-277z" />
    <glyph glyph-name="uni2198" unicode="&#x2198;" horiz-adv-x="596" 
d="M525 340h36l-42 -340h-340l4 36h278l-350 399l31 27l349 -398z" />
    <glyph glyph-name="uni2199" unicode="&#x2199;" horiz-adv-x="596" 
d="M572 435l-449 -399h279l-4 -36h-340l42 340h36l-34 -275l447 397z" />
    <glyph glyph-name="partialdiff" unicode="&#x2202;" horiz-adv-x="570" 
d="M519 280q5 -30 0 -65q-12 -99 -82 -161.5t-163 -62.5q-94 0 -148 62.5t-42 161.5q13 99 82 161t163 62q63 0 109 -29q-67 153 -167 241h51q70 -60 130.5 -174.5t66.5 -195.5zM279 29q77 0 134.5 52t67.5 134q4 36 -2 69h-1l-2 10q-15 50 -55.5 78t-96.5 28
q-77 0 -134.5 -51.5t-67.5 -133.5t35 -134t122 -52z" />
    <glyph glyph-name="emptyset" unicode="&#x2205;" horiz-adv-x="595" 
d="M488 517q86 -68 69 -196q-12 -103 -84 -170t-174 -67q-62 0 -110 27l-35 -46h-32l44 61q-84 66 -69 195q13 104 85.5 170.5t175.5 66.5q60 0 109 -27l34 46h32zM132 321q-12 -107 57 -165l256 345q-40 23 -92 23q-87 0 -148.5 -57.5t-72.5 -145.5zM303 118q86 0 146.5 58
t71.5 145q14 107 -55 165l-256 -345q40 -23 93 -23z" />
    <glyph glyph-name="product" unicode="&#x220f;" horiz-adv-x="606" 
d="M609 649l-5 -38h-118l-75 -611h-38l75 611h-159l-75 -611h-38l75 611h-118l5 38h118v1h38v-1h159v1h38v-1h118z" />
    <glyph glyph-name="summation" unicode="&#x2211;" horiz-adv-x="539" 
d="M543 658l-5 -38h-352l216 -298l-287 -292h351l-5 -38h-404l4 35l290 295l-217 300l5 36h404z" />
    <glyph glyph-name="minus" unicode="&#x2212;" horiz-adv-x="502" 
d="M99 330h366l-5 -35h-366z" />
    <glyph glyph-name="radical" unicode="&#x221a;" horiz-adv-x="712" 
d="M720 692l-4 -34h-155l-345 -706h-41l-82 335h38l70 -285l337 690h182z" />
    <glyph glyph-name="infinity" unicode="&#x221e;" horiz-adv-x="853" 
d="M227 175q-61 0 -99 43.5t-30 104.5q7 60 56 103.5t110 43.5q55 0 88.5 -22t110.5 -101q90 79 132.5 101t89.5 22q62 0 100 -43.5t31 -103.5q-8 -61 -57 -104.5t-111 -43.5q-17 0 -31 1.5t-29 9l-23 11.5t-25 20t-23 22t-29 30.5t-31 33.5q-87 -75 -130 -101.5t-100 -26.5
zM232 208q46 0 90 27t113 89q-71 76 -101.5 94.5t-73.5 18.5q-49 0 -87 -32.5t-44 -81.5q-7 -50 23 -82.5t80 -32.5zM653 208q49 0 86.5 32.5t44.5 82.5q6 49 -24 81.5t-79 32.5q-44 0 -74.5 -17.5t-121.5 -94.5q67 -75 91 -92q34 -25 77 -25z" />
    <glyph glyph-name="integral" unicode="&#x222b;" horiz-adv-x="512" 
d="M457 692h63l-4 -32h-57q-76 0 -95 -84l-120 -511q-13 -54 -46.5 -83.5t-83.5 -29.5h-62l4 32h56q75 0 95 85l120 509q13 55 46.5 84.5t83.5 29.5z" />
    <glyph glyph-name="approxequal" unicode="&#x2248;" horiz-adv-x="603" 
d="M548 466h34q-7 -59 -46.5 -96t-97.5 -37q-26 0 -50 12t-32 19.5t-27 27.5q-1 1 -6.5 7t-7.5 8t-7.5 7t-8 7t-8 6.5t-9 6t-9 4.5t-10.5 4t-11 2t-12 1q-42 0 -71 -27t-34 -71h-34q7 59 46 96t96 37q12 0 22.5 -2t20.5 -6.5t16.5 -8t15.5 -11t12.5 -10.5t12 -12t9.5 -10
q16 -17 25.5 -26t27.5 -18t37 -9q42 0 71.5 26.5t34.5 72.5zM527 297h34q-7 -58 -46.5 -95.5t-97.5 -37.5q-10 0 -20 2t-17.5 4t-16 7t-13.5 8t-12.5 10t-10 9.5t-10 10.5t-8.5 9q-36 36 -55 45q-17 7 -35 7q-42 0 -71 -27t-34 -71h-34q7 59 46 96t96 37q9 0 17.5 -1t17 -4
t14.5 -5.5t13.5 -7.5t11 -7.5t10.5 -9.5t9 -8.5t9 -9.5l7 -7l26 -26t26.5 -17.5t37.5 -9.5q42 0 71.5 26.5t34.5 72.5z" />
    <glyph glyph-name="notequal" unicode="&#x2260;" horiz-adv-x="502" 
d="M473 400h-134l-82 -157h197l-4 -35h-211l-56 -106h-35l55 106h-119l4 35h134l81 157h-196l4 34h210l56 107h36l-56 -107h120z" />
    <glyph glyph-name="lessequal" unicode="&#x2264;" horiz-adv-x="468" 
d="M449 476l-4 -34l-291 -83l271 -84l-4 -33l-318 98l4 38zM79 167l3 31h333l-3 -31h-333z" />
    <glyph glyph-name="greaterequal" unicode="&#x2265;" horiz-adv-x="468" 
d="M430 340l-342 -98l4 33l291 84l-271 83l4 34l318 -98zM82 198h333l-3 -31h-333z" />
    <glyph glyph-name="lozenge" unicode="&#x25ca;" horiz-adv-x="592" 
d="M388 650l167 -328l-243 -322h-51l-163 322l247 328h43zM290 25l224 297l-151 297l-224 -297z" />
    <glyph glyph-name="A.ss01" horiz-adv-x="636" 
d="M598 0h-42l-171 588l-315 -588h-42l349 650h32z" />
    <glyph glyph-name="I.ss01" horiz-adv-x="374" 
d="M391 612h-119l-70 -574h119l-5 -38h-278l5 38h119l70 574h-119l5 38h278z" />
    <glyph glyph-name="J.ss01" horiz-adv-x="580" 
d="M583 650l-52 -426q-13 -104 -86.5 -168t-183.5 -64q-85 0 -138 38.5t-68 104.5l38 16q13 -57 58 -88.5t115 -31.5q93 0 153.5 53t71.5 144l47 384h-308l5 38h348z" />
    <glyph glyph-name="R.ss01" horiz-adv-x="596" 
d="M384 186q36 -79 54 -102q38 -46 105 -46l-5 -38q-20 0 -37 3t-30 6t-26 12t-21.5 14.5t-19.5 21.5t-16.5 23.5t-17 29.5t-16 31.5t-17.5 37.5l-44 96h-162l-34 -275h-39l80 650h293q75 0 119.5 -54t34.5 -134t-67.5 -133.5t-132.5 -53.5h-43zM172 611l-36 -297h250
q62 0 106.5 43.5t52.5 104.5q7 61 -27 105t-96 44h-250z" />
    <glyph glyph-name="i.loclTRK" horiz-adv-x="190" 
d="M149 524q-10 0 -17 7.5t-6 19.5q1 11 10.5 18t19.5 7q11 0 17.5 -7t5.5 -18q-1 -12 -10 -19.5t-20 -7.5zM104 0h-38l56 460h38z" />
    <glyph glyph-name="a.ss01" horiz-adv-x="526" 
d="M310 467q91 0 138.5 -43t37.5 -120l-37 -304h-38l10 80q-59 -88 -190 -88q-90 0 -133.5 36t-35.5 102q4 34 20.5 58.5t41.5 38.5t58 23t70.5 11.5t78.5 4t82 -0.5h31l4 38q8 60 -30 95.5t-112 35.5q-125 0 -170 -86l-32 11q54 108 206 108zM238 24q96 0 141.5 47
t54.5 117l6 49q-65 2 -124.5 0t-106 -9.5t-76 -31t-34.5 -64.5q-7 -54 29 -81t110 -27z" />
    <glyph glyph-name="n.ss01" horiz-adv-x="519" 
d="M311 460q81 0 129 -45t37 -130l-35 -285h-38l34 280q9 69 -28.5 108t-110.5 39h-152l-52 -427h-37l56 460h197z" />
    <glyph glyph-name="r.ss01" horiz-adv-x="298" 
d="M92 278q11 89 70.5 138t145.5 51l-4 -36q-71 -1 -119 -44t-56 -113l-34 -274h-37z" />
    <glyph glyph-name="u.ss01" horiz-adv-x="519" 
d="M460 460h38l-56 -460h-197q-81 0 -128.5 45t-37.5 130l35 285h37l-34 -280q-8 -69 29 -108t110 -39h152z" />
    </font>
</defs>
</svg>
